<svg xmlns="http://www.w3.org/2000/svg" id="Capa_1" data-name="Capa 1" viewBox="0 0 1080 1080"><defs><style>.cls-1{fill:red}.cls-1,.cls-2,.cls-3{stroke-width:0}.cls-2{fill:none}.cls-3{fill:#fff}</style></defs><g><path d="m766.39,868.85h272.97c5.18,0,9.39,4.21,9.39,9.39v174.76h-291.75v-174.76c0-5.18,4.21-9.39,9.39-9.39Z" class="cls-1"/><g><path d="m789.94,885.1h5.81v34.11c0,4.38-1.68,7.39-5.81,10.4l-3.47-3.62c2.14-1.84,3.47-3.47,3.47-6.68v-34.21Z" class="cls-3"/><path d="m820.53,885.1v25.19c0,5.81-3.06,9.38-9.89,9.38s-9.89-3.57-9.89-9.38v-25.19h5.81v25.49c0,2.86,1.17,3.98,4.08,3.98s4.08-1.12,4.08-3.88v-25.59h5.81Z" class="cls-3"/><path d="m825.52,919.05v-33.96h16.52v5.1h-10.71v9.08h9.79v5.1h-9.79v9.58h10.71v5.1h-16.52Z" class="cls-3"/><path d="m845.45,894.88c0-7.49,3.47-10.4,10.76-10.4,2.91,0,5.76.41,8.06,1.22l-.76,4.89c-1.84-.56-4.13-1.02-6.73-1.02-4.03,0-5.51,1.38-5.51,5.46v15.04c0,3.01,1.07,4.64,4.69,4.64.87,0,2.09-.05,2.86-.25v-11.68h5.46v15.6c-1.73.66-5.71,1.27-8.87,1.27-7.24,0-9.94-3.36-9.94-9.64v-15.14Z" class="cls-3"/><path d="m868.49,894.63c0-5.86,2.6-10.15,9.99-10.15s9.94,4.28,9.94,10.15v14.89c0,5.86-2.55,10.15-9.94,10.15s-9.99-4.28-9.99-10.15v-14.89Zm5.81,15.45c0,2.96,1.12,4.59,4.18,4.59s4.13-1.63,4.13-4.59v-15.96c0-3.01-1.02-4.64-4.13-4.64s-4.18,1.63-4.18,4.64v15.96Z" class="cls-3"/><path d="m902.14,894.88c0-7.49,3.47-10.4,10.76-10.4,2.91,0,5.76.41,8.06,1.22l-.76,4.89c-1.84-.56-4.13-1.02-6.73-1.02-4.03,0-5.51,1.38-5.51,5.46v15.04c0,3.01,1.07,4.64,4.69,4.64.87,0,2.09-.05,2.86-.25v-11.68h5.46v15.6c-1.73.66-5.71,1.27-8.87,1.27-7.24,0-9.94-3.36-9.94-9.64v-15.14Z" class="cls-3"/><path d="m936.45,885.1c6.17,0,8.67,2.7,8.67,8.46v4.18c0,3.77-1.48,6.48-4.49,7.7l6.22,13.61h-6.63l-5.61-12.85h-3.11v12.85h-5.81v-33.96h10.76Zm2.86,8.51c0-2.45-1.07-3.47-3.26-3.47h-4.54v11.01h4.54c2.19,0,3.26-1.02,3.26-3.47v-4.08Z" class="cls-3"/><path d="m955.92,885.1h6.53l7.9,33.96h-5.97l-1.48-7.49h-7.5l-1.43,7.49h-5.97l7.9-33.96Zm6.12,21.31l-2.85-15.35-2.85,15.35h5.71Z" class="cls-3"/><path d="m981.31,890.19v28.86h-5.81v-28.86h-6.42v-5.1h18.66v5.1h-6.42Z" class="cls-3"/><path d="m990.94,919.05v-33.96h5.81v33.96h-5.81Z" class="cls-3"/><path d="m1008.43,919.66c-2.29,0-5.35-.51-7.19-1.17l.76-4.95c1.58.61,3.62,1.02,5.71,1.02,3.57,0,4.74-1.48,4.74-4.59,0-3.77-.66-4.23-4.33-5.56-6.37-2.29-7.29-4.74-7.29-10.66,0-6.63,3.31-9.28,9.43-9.28,2.91,0,5.3.46,7.14,1.17l-.71,4.95c-1.89-.61-3.67-1.02-5.81-1.02-3.16,0-4.23,1.07-4.23,4.03,0,3.16.25,3.52,4.54,5.3,5.76,2.4,7.09,3.67,7.09,10.81,0,6.37-3.36,9.94-9.84,9.94Z" class="cls-3"/></g></g><g><path d="m1029.79,1033.03c-1.26-.62-2.53-1.24-3.85-1.89-.48-2.04-1.03-4.32-1.56-6.6-.08-.32-.15-.66-.13-.99.06-1.35-.25-1.58-1.48-1.07-.68.28-1.36.57-2.03.87-.13.06-.32.15-.34.26-.18.89-.32,1.8-.49,2.81h-5.02c.13-.45.18-.96.42-1.35.93-1.51,1.33-3.08,1.43-4.89.09-1.61.84-3.18,1.26-4.78.45-1.7.86-3.42,1.28-5.13.04-.18-.03-.43.07-.54.93-1.05,1.01-2.02-.23-3.05,1.48,0,2.96-.02,4.44.02.19,0,.48.27.54.47.64,2.19,1.25,4.38,1.9,6.66-.46.1-.72.15-.99.21.06.09.09.17.14.2,1.6.71,1.31,2.31,1.7,3.58.76,2.5,1.5,5.01,2.24,7.52.02.07.07.13.08.2.21,1.8.42,3.6.62,5.39.08.7.15,1.4.22,2.11h-.22Zm-7.08-17.39c-.16,0-.31-.01-.47-.02-.72,1.51-.91,3.17-1.13,4.92.63-.32,1.2-.57,1.71-.89.21-.13.5-.43.47-.62-.15-1.14-.38-2.27-.59-3.4Z" class="cls-3"/><path d="m779.5,1033.03c-.05-2.57-.14-5.14-.13-7.71.01-3.59.08-7.19.16-10.78.05-2.05.19-4.1.24-6.15,0-.29-.22-.63-.42-.88-.22-.27-.54-.46-1.05-.89h10.93c0,.93-.04,1.66.01,2.38.06.69-.21.93-.88.92-1.58-.02-3.17,0-4.76,0,0,1.34-.04,2.77.04,4.2.01.23.5.61.79.63,1.18.07,2.36.03,3.56.03,0,.83-.02,1.55,0,2.27.02.63-.17.96-.88.92-1.03-.06-2.07-.04-3.11-.07-.54-.01-.71.11-.7.76.07,2.24-.02,4.49,0,6.74,0,1.28.12,2.57.16,3.85.02.77,0,1.54,0,2.04-1.23.61-2.38,1.19-3.53,1.76h-.44Z" class="cls-3"/><path d="m1036.24,1014.84c-.47.79-1.17,1.22-2.02.84-.41-.18-.88-.8-.87-1.21.01-.52.37-1.2.79-1.5.57-.4,1.28-.2,1.73.44.13.18.25.36.37.54v.89Z" class="cls-3"/><path d="m969.83,964.98c-.67-.92-.4-1.73.21-2.57.77-1.08,1.53-2.18,2.19-3.33.41-.71.89-.92,1.63-.63,2.64,1.04,5.35.47,8.04.37.41-.01.81-.12,1.21-.09,2.24.18,4.48.49,6.72.56,2.63.08,4.85,1.04,6.84,2.68,1.15.95,1.58,2.19,1.43,3.63-.18,1.76-.79,3.38-1.85,4.8-1.04,1.4-1.98,2.9-3.18,4.15-.94.97-2.21,1.61-3.32,2.39,2.51,2.84,8.86,12.34,8.79,12.98.47.35.88.63,1.25.94.76.64,1.5,1.31,2.25,1.96.47.41,1.11.72,1.37,1.23.46.9,1.28,1.2,2.05,1.63.54.3,1.12.53,1.8.85h-14.33c.08-.2.09-.29.13-.31,1.93-.87,2.09-1.85.75-3.7-1.84-2.54-3.72-5.06-5.34-7.73-.91-1.5-1.36-3.29-1.95-4.97-.59-1.67-1.89-2.28-3.47-2.67-.65-.16-1.19-.71-1.81-1.1.29-.95.8-1.36,1.79-1.69,2.62-.87,5.25-1.86,7.18-4.01.21-.23.23-.65.28-.98.04-.28-.06-.58-.03-.87.21-1.82-.27-2.54-2-2.99-.14-.04-.29-.1-.4-.18-1.93-1.51-4.15-1.29-6.38-1.05-2.32.25-2.33.25-2.38,2.65-.04,1.87-.39,3.74.33,5.59.23.6-.04,1.39-.05,2.09-.02,1.59,0,3.17-.04,4.76-.02.64-.2,1.27-.33,2.08.03.06.32.36.37.69.31,2.13.58,4.27.82,6.41.08.7.01,1.41.01,2.11-.11.05-.21.1-.32.15,1.23,1.18,2.46,2.36,3.59,3.44-1.12,0-2.38-.04-3.63.01-.78.03-1.56.22-2.34.31-.34.04-.68-.01-1.03-.03-.65-.03-1.41-.92-1.92.24-.02.05-.34-.05-.52-.06-1.35-.1-2.7-.2-3.89-.29,1.73-.91,1.95-2.79,2.16-4.69.36-3.27.78-6.54,1.15-9.81.2-1.8.45-3.6.49-5.4.02-.93-.47-1.85-.54-2.79-.19-2.39-.28-4.79-.41-7.06-1.2.09-2.3.18-3.41.27l.04.04Z" class="cls-3"/><path d="m961.13,991.87c.48.22.98.39,1.41.67.88.57,1.73,1.19,2.65,1.84-1.53,0-3.07.02-4.61-.06-.09,0-.14-.86-.22-1.42-.15.3-.27.58-.43.83-.46.68-.89,1.14-1.94.92-1.31-.27-2.7-.18-4.06-.18-1.13,0-2.27.11-3.45.17.61-.6,1.28-1.07,1.68-1.71,1-1.6.45-3.36.03-4.94-.6-2.23-1.58-4.36-2.46-6.51-.11-.26-.62-.6-.84-.54-1.67.45-3.34.91-4.94,1.55-.52.21-1.01.9-1.2,1.47-.55,1.64-.79,3.39-1.42,4.99-.48,1.22-.58,2.35-.04,3.47.37.78.96,1.45,1.41,2.09h-13.52c.43-.59.69-.98.99-1.35,1.13-1.4,2.43-2.7,3.35-4.22.95-1.56,1.68-3.29,2.25-5.02,1.22-3.71,2.22-7.49,3.44-11.19.56-1.7,1.54-3.27,2.13-4.96.69-1.98,1.2-4.02,1.69-6.06.22-.93.88-1.22,1.59-1.18,1.1.06,1.85-.4,2.62-1.1.39-.36,1.03-.77,1.46-.68.57.12.99.61,1.19,1.39.49,1.92,1.27,3.76,1.87,5.65,1.45,4.54,2.74,9.15,4.36,13.63,1.12,3.09,2.09,6.3,4.21,8.95.47.59.83,1.34,1.01,2.08.12.48-.15,1.07-.21,1.41Zm-14.41-22.65c-.11,0-.22-.02-.33-.03-1.39,3.05-1.73,6.35-2.43,9.83,1.8-.55,3.36-1.03,4.99-1.53-.78-2.91-1.5-5.59-2.23-8.27Z" class="cls-3"/><path d="m859.55,959.96h14.32l.09.25c-.16.14-.32.29-.49.42-1.02.82-2.08,1.59-3.04,2.48-.25.23-.07.86-.25,1.21-.63,1.2-1.35,2.34-2.01,3.52-.45.8-.89,1.61-1.27,2.45-1.42,3.2-2.37,6.56-3.36,9.91-1.05,3.52-2.46,6.92-3.66,10.4-.48,1.39-.93,2.81-1.21,4.25-.17.88-.75,1.32-1.4,1.51-.34.1-.89-.49-1.33-.79-.42-.29-.8-.64-1.22-.92-.86-.58-1.78-1.08-2.58-1.73-.37-.29-.62-.81-.77-1.28-.59-1.78-1.05-3.6-1.69-5.37-1.58-4.36-3.26-8.68-4.82-13.04-.52-1.44-.84-2.96-1.19-4.46-.63-2.73-2.75-4.59-4.02-6.94-.41-.76-1.41-1.21-2.14-1.8.03-.09.06-.18.09-.28h13.97c.04.09.08.18.12.27-1.96.82-2.16,2.53-2.07,4.21.07,1.17.56,2.32.9,3.47.34,1.17.57,2.41,1.12,3.47,1.07,2.08,1.07,4.35,1.5,6.54.51,2.57,1.2,5.1,1.82,7.65.15-.01.3-.02.45-.03.18-.5.39-1,.53-1.52.9-3.31,1.94-6.59,2.61-9.94.52-2.64,1.52-5.05,2.46-7.53.64-1.69.7-3.7-.2-5.47-.21-.42-.84-.62-1.25-.91Z" class="cls-3"/><path d="m889.39,994.45c1.71-1.05,2.04-2.33,1.82-4.14-.4-3.29-1.95-6.16-2.97-9.22-.07-.22-.59-.49-.83-.43-1.67.44-3.34.92-4.97,1.48-.32.11-.58.65-.69,1.03-.66,2.22-1.28,4.46-1.9,6.69-.49,1.78.1,3.19,2,4.6h-13.75c.22-.24.33-.42.48-.52,1.21-.81,2.17-1.76,2.72-3.21.58-1.53,1.6-2.89,2.21-4.41.84-2.07,1.47-4.23,2.2-6.35,1.29-3.77,2.58-7.54,3.86-11.31.66-1.94,1.25-3.9,1.98-5.81.36-.93.82-1.8,2.07-2.07.87-.19,1.59-.99,2.42-1.43.45-.24,1.04-.47,1.5-.37.39.09.84.59.99,1.01.79,2.33,1.47,4.71,2.24,7.05,1.35,4.08,2.78,8.14,4.11,12.23.22.68,1.13,1.34.37,2.02.27.36.56.62.72.95,1.58,3.15,3.05,6.37,4.76,9.45.59,1.06,1.75,1.8,2.72,2.75h-14.05Zm-6.5-15.35c1.43-.47,2.73-.84,3.97-1.34.31-.13.68-.77.6-1.07-.61-2.44-1.31-4.86-1.99-7.29-.11,0-.22-.02-.33-.03-1.13,3.05-2.01,6.17-2.25,9.73Z" class="cls-3"/><path d="m923.51,994.5h-14.08c.35-.18.63-.35.93-.46,1.35-.51,2.07-1.51,2.13-2.97,0-.15,0-.3.05-.44.78-2.47.42-5,.42-7.52,0-1.54.21-3.08.31-4.62.02-.26.02-.53-.03-.77-.56-2.65-.05-5.29.02-7.93.03-1.28,0-2.57,0-4.03-1.3-.07-2.64-.13-3.99-.21-3.42-.21-6.69.52-9.9,1.61-.27.09-.59,0-.89,0,.02-.31-.06-.67.07-.91,1.01-1.84,2.03-3.68,3.11-5.48.49-.82,3.01-1.49,4.04-1.25.69.16,1.41.2,2.12.28,2.09.24,4.17.5,6.26.68.68.06,1.38-.14,2.07-.13,2.22.03,4.44.19,6.66.13,1.76-.05,3.51-.38,5.27-.53,1.45-.12,2.9-.14,4.36-.22.16,0,.31-.15.48-.2.84-.24,1.68-.48,2.65-.75-.04.43.02.73-.09.91-1.11,1.81-2.16,3.66-3.39,5.39-.9,1.27-2.42.88-3.58.64-2.31-.48-4.52-.19-6.77.23-.9.17-1.83.18-2.87.27,0,.23,0,.51,0,.78,0,3.61-.04,7.22.03,10.83.02,1.26.33,2.52.48,3.78.11.86.33,1.76-.44,2.48.15.14.39.26.44.43.53,1.97,1.29,3.93,1.45,5.94.15,1.96,1.2,2.93,2.68,4.04Z" class="cls-3"/><path d="m825.71,979.02c-.14-.44-.29-.87-.41-1.31-.72-2.77-1.41-5.56-2.19-8.31-.11-.39-.73-.93-1.06-.89-.39.05-.93.58-1.04,1-.69,2.7-1.27,5.43-1.91,8.14-.11.49-.33.95-.63,1.78-2.07-1.81-3.96-3.47-5.83-5.13-.45-.4-.38-.8-.15-1.36,1.48-3.67,2.91-7.37,4.29-11.08.33-.89.5-1.85.65-2.8.17-1.08.58-1.82,1.75-2.06.37-.07.63-.57.97-.85,1.13-.91,2.27-1.83,3.42-2.72.81-.63,2.2-.12,2.52.9,1.09,3.47,2.19,6.93,3.28,10.4.77,2.47,1.52,4.94,2.31,7.4.13.4.44.75.77,1.29-.62.35-1.2.68-1.97,1.12-.41,2.23-3.25,2.59-4.42,4.52-.12-.02-.23-.04-.35-.05Z" class="cls-3"/><path d="m953.5,1027.31c-.03-1.06-.09-1.96-.08-2.85,0-1.27.05-2.54.06-3.81.02-3.61,0-7.22.06-10.83.02-1.17-.19-2.2-1.26-2.95l.2-.32c1.61.08,3.22.15,4.66.22,1.73,3.14,3,6.33,5.07,9.31.14-2.15.3-3.95.36-5.76.02-.78-.27-1.56-.25-2.34.03-1.12.49-1.49,1.55-1.28.66.13,1.61-.54,1.93.46.21.66.07,1.43.09,2.16.06,2.25.17,4.5.17,6.75,0,.91-.29,1.81-.33,2.72-.05,1.1.03,2.21.04,3.32.01.98-.01,1.97.02,2.95.01.35.16.69.25,1.06-1.14.06-2.29.13-3.23.18-1.71-3.21-3.37-6.32-5.03-9.42-.16.01-.32.03-.49.04-.13.86-.31,1.71-.37,2.57-.03.48.16.98.19,1.48.06,1.16.09,2.33.12,3.49.02.83-.13,1.48-1.15,1.7-.76.17-1.46.64-2.58,1.15Z" class="cls-3"/><path d="m822.61,1006.54c1.49.08,3.11.16,4.56.24,1.7,3.12,2.98,6.27,4.89,9.05.09-.05.18-.1.26-.14,0-2.15.07-4.3-.03-6.44-.06-1.15.31-1.79,1.41-2.1.65-.19,1.26-.53,1.93-.82.93.83.78,4.56-.24,5.38.98,1.45.73,3.05.66,4.62-.02.5-.06,1-.05,1.49.04,2.09.13,4.18.14,6.27,0,.64-.19,1.28-.31,2.04-1.01.05-2.27.12-3.38.17-1.08-3.53-3.1-6.51-4.81-9.63-.15.02-.29.05-.44.07-.04.9-.09,1.8-.12,2.69-.02.59-.02,1.18,0,1.76.03.8.06,1.6.13,2.39.09.92.03,1.67-1.13,1.9-.62.12-1.19.51-2.09.91-.19-.95-.5-1.8-.52-2.65-.05-2.65.02-5.3.02-7.95,0-2.27.05-4.54-.06-6.8-.03-.74-.49-1.47-.83-2.45Z" class="cls-3"/><path d="m978.01,1007.25c.36-.62,1.01-.19,1.72.18,1.9.99,2.63,2.67,2.66,4.65.03,1.79-.25,3.58-.29,5.37-.02,1.16.18,2.32.23,3.49.08,2.02-1.22,3.87-3.1,4.68-1.79.77-3.62.89-5.53.79-1.87-.1-3.74-.02-5.39-.02.33-1.72.68-3.61,1.06-5.5.06-.28.27-.54.3-.82.05-.5.05-1.02,0-1.52-.07-.71-.22-1.41-.28-2.12-.09-1.07-.17-2.14-.2-3.21-.03-.85-.25-1.82.08-2.51.63-1.33-.16-2.3-.54-3.33-.32-.87,0-.84.64-.83,2.03.05,4.07.02,6.1.12.79.04,1.56.35,2.54.59Zm-4.64,16.1c1.02-.11,2.16-.16,3.27-.37,1-.19,1.65-.82,1.65-1.92,0-.85.02-1.69,0-2.54-.02-2.24,0-4.48-.14-6.71-.03-.53-.57-1.31-1.05-1.47-1.15-.39-2.4-.47-3.75-.71v13.72Z" class="cls-3"/><path d="m1011.38,1018.21c.94,2.64,1.85,5.2,2.76,7.78-.97.07-1.87.19-2.77.18-.75,0-1.39-.22-1.67-1.12-.62-1.95-1.36-3.87-2.03-5.77h-2.4v6.99h-4.04c0-1.79,0-3.43,0-5.06-.01-2.97-.07-5.94-.04-8.91.02-1.94.27-3.88-1.12-5.77.93,0,1.66,0,2.39,0,1.85.02,3.7-.02,5.55.08,2.14.12,4.15.75,5.05,2.88.49,1.18.8,2.63.6,3.86-.29,1.74-.28,3.77-2.28,4.85Zm-6.15-8.52c0,1.32-.05,2.62.01,3.92.12,2.34.15,2.34,2.45,2.11,1.25-.12,2.19-1.09,2.1-2.4-.12-1.76-.34-3.38-2.16-3.42-.85-.02-1.69-.15-2.39-.21Z" class="cls-3"/><path d="m872.34,1006.74c.3-.1.43-.18.5-.15,1.19.5,2.35-.18,3.54-.06,1.25.13,2.52,0,3.77.09,2.08.14,4.18.43,5.28,2.51.88,1.66.78,3.48.33,5.25-.33,1.29-.36,2.75-1.69,3.59-.09.06-.11.35-.05.49.62,1.67,1.28,3.32,1.89,4.99.31.86.54,1.74.85,2.79h-3.98c-.85-2.37-1.68-4.68-2.49-6.96h-2.59c0,1.67,0,3.25,0,4.84.01,1.97-.46,2.42-2.44,2.24-.51-.04-1.01-.19-1.36-.26,0-3.74.02-7.41,0-11.08-.01-1.65-.21-3.3-.17-4.95.03-1.29-.35-2.35-1.4-3.33Zm4.88,9.13c1.03-.06,2.15,0,3.2-.23.6-.14,1.36-.69,1.55-1.22.43-1.21.47-2.53-.39-3.67-.88-1.16-2.22-.8-3.39-.95-.14-.02-.5.48-.51.75-.03,1.1.09,2.21.04,3.31-.03.6-.29,1.19-.51,2.02Z" class="cls-3"/><path d="m792.13,1026.26c0-1.41.02-2.58,0-3.75-.05-2.39-.15-4.78-.16-7.17,0-1.18.16-2.35.2-3.53.03-1.03.12-2.09-.07-3.09-.13-.7-.7-1.31-1.15-2.1.48-.04.93-.11,1.38-.1,2.18.02,4.37.02,6.55.1,1.05.04,2.18.05,2.69,1.32.07.18.42.26.66.35,1.48.55,2.21,1.42,2.15,3.01-.06,1.64-.23,3.29-.58,4.89-.16.73-.85,1.33-1.35,2.06.83,2.49,1.3,5.26,3.03,7.52-1.1.61-2.89.75-4.06.2-.29-.14-.57-.46-.68-.77-.73-1.96-1.4-3.94-2.09-5.9h-2.49c0,1.72.06,3.35-.03,4.97-.04.77.56,2.19-1.38,1.62-.75-.22-1.69.22-2.62.37Zm3.62-10.54c.21.04.52.13.84.16,2.16.22,3.26-.25,3.83-1.94.23-.68-.01-1.55-.15-2.32-.2-1.11-.86-1.75-2.07-1.74-.48,0-.96-.07-1.43-.13-.69-.09-.91.21-.88.88.06,1.32.06,2.64.05,3.97,0,.35-.12.7-.2,1.11Z" class="cls-3"/><path d="m843.97,998.29c-.37.58-.74.46-1.26.12-.39-.25-1.05-1.26-1.33.18-.02.11-.69.16-1.05.13-.92-.07-1.88-.43-2.74-.25-2.17.45-4.24-.59-6.4-.13.21.16.46.36.98.76-.88-.23-1.47-.39-2.07-.54-.61-.16-1.21-.4-1.82-.44-.65-.04-1.31.12-2.02.2.13-.13.24-.32.37-.34,2.03-.3,2.15-2.13,2.82-3.52.04-.09.03-.22.02-.33-.07-.85-.22-1.7-.19-2.54.04-1.48-.58-2.73-1.33-3.91-.49-.77-.62-1.46-.06-2.22,1.21-1.65,2.45-3.29,3.63-4.97.69-.97,1.29-2.01,2.12-2.99.45,2.21,2.15,4.08,1.5,6.17.47.74.86,1.27,1.16,1.85.91,1.69,1.83,3.38,2.65,5.11.58,1.23,1.42,2.41,1.09,3.91-.04.18,0,.44.12.59,1.05,1.31,2.08,2.65,3.8,3.14Z" class="cls-3"/><path d="m985.46,1011.46c.03-.52,0-1.06.12-1.57.29-1.29.82-2.54,2.12-3.02,1.28-.47,2.68-.73,4.04-.85,1.91-.18,3.66.46,5.01,1.81.52.52.95,1.37.98,2.1.07,1.33.58,2.55.24,4.04-.41,1.73.13,3.68.25,5.54.11,1.68-.3,3.29-1.14,4.7-.93,1.57-2.66,2.16-4.32,2.37-1.28.17-2.7-.05-3.95-.45-2.76-.89-3.63-2.61-3.5-5.58.1-2.45-.12-4.92-.14-7.38,0-.53.26-1.06.4-1.6-.03-.04-.07-.07-.1-.11Zm8.78,2.31s-.03,0-.04,0c0-.59-.06-1.18.01-1.76.22-1.74-1.3-2.73-2.67-2.84-1.19-.1-2.36,1.14-2.43,2.64-.07,1.46-.02,2.93-.01,4.4,0,1.61-.03,3.22.06,4.83.08,1.48.62,2.09,1.8,2.27,1.5.23,2.54-.28,2.99-1.62.22-.64.27-1.37.28-2.06.04-1.95.01-3.9.01-5.86Z" class="cls-3"/><path d="m820.33,1011.26c0,3.06.06,5.62-.03,8.17-.05,1.35-.2,2.73-.59,4.01-.45,1.5-1.55,2.45-3.2,2.7-1.08.17-2.14.67-3.2.65-.94-.01-1.86-.54-2.8-.83-.33-.1-.69-.26-1.01-.21-.75.11-.67-.51-.83-.88-.36-.84-.66-1.71-.96-2.57-.11-.3-.17-.63-.24-.94-.08-.32-.3-.73-.18-.94.78-1.38,0-2.77.09-4.16.1-1.49-.14-3-.03-4.48.2-2.74,1.01-3.98,3.17-5,1.56-.74,3.1-.64,4.8-.45,1.74.19,3.09.73,3.95,2.12.6.96.82,2.15,1.06,2.8Zm-3.92,1.88s.04,0,.06,0c-.06-.62-.09-1.25-.19-1.87-.21-1.39-1.09-2.05-2.48-1.92-1.75.16-2.61,1.29-2.59,3.33.02,2.75.07,5.51.03,8.26-.01,1.02.5,1.73,1.26,2.13.94.51,2.1.88,2.91-.24.47-.64.93-1.46.97-2.22.12-2.49.05-4.98.05-7.48Z" class="cls-3"/><path d="m810.88,978.51c1.13,1.29,2.24,2.49,3.26,3.77.28.35.26.94.43,1.63,1.69.79,2.39,2.53,1.76,4.67-.48,1.62-.93,3.27-1.16,4.93-.29,2.13.23,4.01,2.32,5.21-.65-.2-1.29-.4-1.94-.6.02.09.03.18.05.27-.6.04-1.21.05-1.81.11-.62.06-1.24.17-1.9.27-.07-.08-.2-.36-.32-.36-1.57.02-3.14.15-4.7.11-.65-.02-1.29-.38-1.94-.58-.11-.03-.27-.06-.34,0-1.04.88-2.02.99-3.17.37-.73-.39-.29-.82,0-1.15.41-.46.88-.9,1.4-1.23.18-.12.66.02.86.2.25.23.36.62.65.92-1-2.31.23-3.94,1.54-5.56.37-.45.78-.91,1-1.44,1.01-2.51,1.98-5.05,2.92-7.59.14-.38.05-.85.03-1.28-.07-1.65-.08-1.65,1.06-2.67Z" class="cls-3"/><path d="m941.84,1006.65c1.32,0,2.65-.03,3.97.02.31.01.83.22.9.44.68,2.21,1.29,4.44,1.94,6.73-.48.09-.73.14-.68.13.37.67.88,1.32,1.08,2.05.89,3.29,1.69,6.61,2.59,10.21h-4.39c-.3-1.36.14-2.83-.8-4.12-1.1.45-2.37.64-3.14,1.37-.6.56-.57,1.79-.87,2.93h-4.91c.13-.45.17-.94.4-1.3.97-1.53,1.37-3.14,1.46-4.99.08-1.61.86-3.17,1.29-4.77.45-1.7.85-3.42,1.27-5.13.03-.14-.02-.34.06-.43.87-1.07,1.09-2.08-.53-2.97.13-.06.25-.12.38-.17Zm3.52,9.02c-.21-.02-.42-.03-.63-.05-.35,1.61-.71,3.23-1.1,5.01.8-.41,1.37-.67,1.9-1,.2-.13.44-.45.41-.65-.15-1.11-.38-2.21-.58-3.31Z" class="cls-3"/><path d="m890.49,1026.22c-.07-.7-.12-1.21-.88-1.7-.62-.39-1.03-1.54-1.03-2.35,0-.95.93-1.16,1.84-1.09.57.04,1.15-.05,1.46-.06.71.78,1.22,1.69,2,2.11.62.34,1.59.23,2.35.06,1.05-.24,1.2-1.11.82-2.99-2.46-1.74-4.78-3.27-6.96-4.99-.77-.61-1.54-1.55-.91-2.8.11-.21-.07-.57-.14-.86-.39-1.8.11-3.1,1.67-4.28,1.19-.89,2.37-1.25,3.74-1.29,1.53-.04,3.02.24,4.32,1.11.36.24.57.71.75,1.17,1.1.49,1.77,1.39,1.54,2.63-.06.33-.66.66-1.07.79-.48.15-1.02.11-1.54.09-.46-.02-.91-.12-1.4-.19-.15-.43-.22-1.03-.53-1.46-.65-.89-1.88-1.05-3.12-.52-1.09.47-.82,1.52-.81,2.32,0,.41.62.9,1.06,1.22,2.07,1.47,4.24,2.81,6.24,4.37.54.42.62,1.45.89,2.2.05.15-.06.37.01.49,1.36,2.05-.95,6.14-3.52,6.12-.46,0-.93.57-1.37.54-1.82-.15-3.63-.43-5.43-.65Z" class="cls-3"/><path d="m933.78,1018.73c-1.09.2-1.92.46-2.74.46-.85,0-1.11.28-1.09,1.09.05,1.59.02,3.17.06,4.76.02.71-.13,1.07-.94.81-.16-.05-.41.16-.62.26-.66.33-1.32.66-2,1-.61-1.45-.58-2.65-.27-3.93.22-.92.09-1.93.08-2.9-.03-3.09-.09-6.18-.11-9.26,0-.97.03-1.96.17-2.92.07-.46.43-.87.74-1.46.34,0,.83,0,1.33,0,.76,0,1.55.14,2.29.01,2.5-.42,4.8.24,6.38,2.04.89,1.02,1.01,2.77,1.29,4.23.13.69-.11,1.47-.25,2.19-.39,2-1.69,3.17-3.58,3.73-.32.09-.72-.1-.75-.11Zm-2.72-2.63c1.02-.21,2.39.02,2.92-1.26.5-1.18.56-2.45,0-3.7-.55-1.24-1.65-1.27-2.73-1.44-.81-.12-1.28.1-1.25,1.03.05,1.44.14,2.9.01,4.33-.08.9.29,1.02,1.04,1.04Z" class="cls-3"/><path d="m822.2,979.11c.08,1.27.16,2.55.24,3.82.07.08.14.15.21.23,2.97-3.64,6.81-6.27,10.48-9.61-.17.56-.26.81-.33,1.06-.34,1.29-.52,2.65-1.05,3.86-.77,1.79-1.55,3.63-3.57,4.5-1.04.45-2.01,1.07-2.9,1.83.94-.35,1.88-.71,2.99-1.13-.6,1.59-1.62,2.62-2.73,3.56-1.37,1.16-2.37,2.54-2.59,4.37-.04.32-.06.65-.06.98,0,.65,0,.64-.66,1.34-.1.11-.13.35-.11.52.16,1.7-.36,3.47.57,5.1.11.19-.08.68-.29.87-.15.14-.65.15-.81.01-.21-.19-.42-.7-.31-.87.92-1.41.44-3,.66-4.5.04-.3.53-1.23-.61-1.04-.03,0-.28-.74-.26-1.13.16-2.53-1.07-4.33-2.89-5.93-1.04-.91-1.84-2.08-2.75-3.13.07-.08.14-.17.21-.25.92.38,1.84.76,2.76,1.14.05-.08.09-.17.14-.25-.8-.45-1.57-.94-2.39-1.33-1.62-.76-2.81-1.83-3.33-3.64-.54-1.89-1.27-3.73-1.84-5.67,3.5,3.04,7.35,5.67,10.31,9.33.08-.05.15-.1.23-.15.08-1.29.17-2.58.25-3.88l.44-.02Zm-.61,11.19c-.12,0-.24-.01-.36-.02l.24,3.23.47-.04c-.12-1.06-.24-2.12-.36-3.17Zm1.09-.01c-.1,0-.2-.02-.3-.02l-.3,3.18c.15.01.3.02.46.03.05-1.06.1-2.12.15-3.19Z" class="cls-3"/><path d="m865.13,1022.78h5.59v3.43c-1.06-.1-2.18-.2-3.3-.3-.21-.02-.45-.09-.63-.02-1.5.61-3.04.32-4.58.31-.76,0-.91-.35-.86-1.05.09-1.21.05-2.42.1-3.63.01-.27.2-.53.28-.73-.16-.25-.46-.49-.47-.75-.08-1.73-.54-3.61-.02-5.16.56-1.67.1-3.01-.06-4.53-.14-1.3.13-2.65-1.36-3.77,1.81,0,3.19.01,4.57,0,1.87-.02,3.75-.1,5.62-.07.28,0,.76.43.8.72.11.75.04,1.54.04,2.42-1.85.09-3.62.18-5.56.28v4.91h4.69c.08.62.12,1.11.2,1.6.15.91-.4,1.55-1.35,1.56-.89,0-1.78.03-2.67.02-.8,0-1.09.35-1.05,1.16.06,1.2.02,2.41.02,3.59Z" class="cls-3"/><path d="m842.92,1026.26v-16.3c-.8,0-1.67-.03-2.55,0-1.76.08-1.91-.04-2.01-1.77-.03-.47-.13-.94-.22-1.63h13.57c0,.64.04,1.47-.01,2.29-.07,1.08-.45,1.26-1.52,1.15-.99-.11-2-.02-2.86-.02-.24,1.71-.56,3.19-.61,4.67-.04,1.25.27,2.51.36,3.77.06.87.36,1.85-.48,2.4.15.5.39.95.41,1.41.05,1.1-.01,2.2,0,3.29,0,.77-.52.74-1.06.74-1.05,0-2.1,0-3.01,0Z" class="cls-3"/><path d="m853.49,1006.47c1.13,0,2.3-.04,3.48.01.77.04,1.35.29,1.12,1.31-.36,1.66-.67,3.34-.9,5.03-.07.54.26,1.12.28,1.68.11,2.66.16,5.32.25,7.98.03.91.12,1.81.16,2.72.03.73-.14,1.16-1.08.98-.67-.13-1.4.1-2.1.13-.35.01-.71-.06-.78-.07-.5-6.58.54-13.07-.43-19.77Z" class="cls-3"/><path d="m910.38,1021.48c-1.97-.05-2.67-.92-2.53-2.96.06-.98-.09-1.96-.1-2.95-.02-1.6.97-2.66,2.45-2.68,2-.03,2.94.78,2.95,2.58,0,1.26-.02,2.51-.03,3.77-.01,1.88-1.21,2.2-2.74,2.25Zm1.15-4.21s0,0,0,0c0-.59,0-1.17,0-1.76,0-.64-.17-1.19-.95-1.22-.78-.03-1.17.45-1.2,1.15-.05,1.21-.11,2.43.04,3.62.05.42.69.76,1.06,1.14.35-.35.88-.65,1.01-1.07.17-.57.04-1.23.04-1.85Z" class="cls-3"/><path d="m914.32,1013.08h4.09c.06.44.12.83.19,1.32h-2.33v2.16h1.79c.41,1.87-1.09,1.14-1.89,1.5,0,.69.06,1.42-.02,2.14-.04.37-.26.82-.54,1.03-.72.55-1.06.36-1.06-.54,0-1.94.05-3.88.03-5.82,0-.58-.16-1.15-.26-1.79Z" class="cls-3"/><path d="m770.98,1015.78c-.86-.03-1.51-.74-1.46-1.61.05-.86.66-1.39,1.56-1.36.91.03,1.5.67,1.47,1.59-.03.79-.72,1.41-1.56,1.38Z" class="cls-3"/><path d="m969.79,964.94c-.02,1.2-1.11.95-1.68,1.4-.11-.08-.21-.16-.32-.24.31-.52.57-1.09.98-1.52.1-.11.69.25,1.05.39,0,0-.04-.04-.04-.04Z" class="cls-3"/><path d="m772.92,1017.98c-.56.42-.86.81-1.12.78-.28-.03-.52-.44-.78-.69.23-.23.44-.63.69-.66.28-.03.6.26,1.21.57Z" class="cls-3"/><path d="m924.4,1006.92c.77-.37,1.45-.43,2.23.14-.91.75-1.62,1.02-2.23-.14Z" class="cls-3"/><path d="m1035.08,1018.15c-.58.31-.91.63-1.19.6-.23-.02-.59-.48-.58-.72.02-.25.43-.66.65-.65.3.01.57.37,1.12.77Z" class="cls-3"/><path d="m818,956.18c.61-.27,1.23-.54,1.84-.82.07.16.15.33.22.49-.62.28-1.23.57-1.85.85-.07-.18-.15-.35-.22-.53Z" class="cls-3"/></g><rect width="1080" height="1080" class="cls-2"/></svg>