<svg xmlns="http://www.w3.org/2000/svg" xmlns:xlink="http://www.w3.org/1999/xlink" viewBox="0 0 1080.19 1244.29"><defs><style>.cls-1{fill:url(#Degradado_sin_nombre_17)}.cls-1,.cls-10,.cls-11,.cls-12,.cls-13,.cls-14,.cls-15,.cls-16,.cls-17,.cls-18,.cls-19,.cls-2,.cls-20,.cls-21,.cls-22,.cls-3,.cls-4,.cls-5,.cls-6,.cls-7,.cls-8,.cls-9{stroke-width:0}.cls-23{opacity:.15}.cls-23,.cls-24,.cls-25,.cls-26{mix-blend-mode:multiply}.cls-27{opacity:.37}.cls-27,.cls-28{mix-blend-mode:overlay}.cls-29{clip-path:url(#clippath-20)}.cls-2{fill:url(#Degradado_sin_nombre_14)}.cls-30{clip-path:url(#clippath-11)}.cls-31{clip-path:url(#clippath-16)}.cls-3{fill:url(#Degradado_sin_nombre_7-3)}.cls-32{clip-path:url(#clippath-33)}.cls-4{fill:url(#Degradado_sin_nombre_21-6)}.cls-5{fill:url(#Degradado_sin_nombre_7-2)}.cls-33{clip-path:url(#clippath-41)}.cls-34{clip-path:url(#clippath-32)}.cls-6{fill:url(#Degradado_sin_nombre_3)}.cls-35{stroke:#56f4f4;stroke-width:47px}.cls-10,.cls-35,.cls-36{fill:none}.cls-35,.cls-36,.cls-37{stroke-miterlimit:10}.cls-38{mask:url(#mask-2)}.cls-39{clip-path:url(#clippath-2)}.cls-40{clip-path:url(#clippath-13)}.cls-41{isolation:isolate}.cls-42{clip-path:url(#clippath-37)}.cls-43{clip-path:url(#clippath-25)}.cls-44{clip-path:url(#clippath-15)}.cls-45{clip-path:url(#clippath-6)}.cls-36{stroke:#9b43ef}.cls-46{mask:url(#mask-3)}.cls-47{clip-path:url(#clippath-40)}.cls-48{clip-path:url(#clippath-26)}.cls-8{fill:url(#Degradado_sin_nombre_21-4)}.cls-9{fill:url(#Degradado_sin_nombre_21)}.cls-49{clip-path:url(#clippath-7)}.cls-50{clip-path:url(#clippath-21)}.cls-51{mix-blend-mode:color-burn;opacity:.26}.cls-11{fill:url(#Degradado_sin_nombre_17-2)}.cls-52{clip-path:url(#clippath-34)}.cls-12{fill:#c6c6c5}.cls-53{clip-path:url(#clippath-1)}.cls-54{clip-path:url(#clippath-4)}.cls-55{clip-path:url(#clippath-38)}.cls-56{clip-path:url(#clippath-36)}.cls-57{clip-path:url(#clippath-27)}.cls-13{fill:url(#Degradado_sin_nombre_21-3)}.cls-14{fill:url(#Degradado_sin_nombre_21-5)}.cls-15{fill:#6139c8}.cls-58{clip-path:url(#clippath-12)}.cls-16,.cls-37{fill:#fff}.cls-59{filter:url(#luminosity-invert)}.cls-24{opacity:.25}.cls-17{fill:url(#Degradado_sin_nombre_4)}.cls-18{fill:url(#Degradado_sin_nombre_7)}.cls-60{clip-path:url(#clippath-24)}.cls-61{clip-path:url(#clippath-30)}.cls-19{fill:url(#Degradado_sin_nombre_18)}.cls-20{fill:url(#Degradado_sin_nombre_11)}.cls-62{clip-path:url(#clippath-22)}.cls-63{clip-path:url(#clippath-9)}.cls-64{clip-path:url(#clippath)}.cls-25{opacity:.2}.cls-65{clip-path:url(#clippath-39)}.cls-37{stroke:#000}.cls-66{clip-path:url(#clippath-19)}.cls-67{clip-path:url(#clippath-31)}.cls-68{clip-path:url(#clippath-3)}.cls-69{clip-path:url(#clippath-43)}.cls-70{clip-path:url(#clippath-8)}.cls-71{mask:url(#mask-1)}.cls-72{mask:url(#mask)}.cls-73{clip-path:url(#clippath-29)}.cls-74{clip-path:url(#clippath-18)}.cls-75{clip-path:url(#clippath-14)}.cls-76{clip-path:url(#clippath-17)}.cls-77{clip-path:url(#clippath-5)}.cls-78{clip-path:url(#clippath-42)}.cls-79{filter:url(#luminosity-invert-2)}.cls-21{fill:url(#Degradado_sin_nombre_21-2)}.cls-80{clip-path:url(#clippath-10)}.cls-81{clip-path:url(#clippath-23)}.cls-22{fill:url(#Degradado_sin_nombre_5)}.cls-82{clip-path:url(#clippath-28)}.cls-83{clip-path:url(#clippath-35)}</style><clipPath id="clippath"><rect width="122.3" height="1079.21" x=".19" y="80.83" class="cls-10"/></clipPath><clipPath id="clippath-1"><rect width="241.82" height="201.78" x="815.88" y="933.28" class="cls-10"/></clipPath><clipPath id="clippath-2"><rect width="241.82" height="242.41" x="815.88" y="933.28" class="cls-10"/></clipPath><clipPath id="clippath-3"><rect width="228.15" height="187.95" x="815.88" y="940.42" class="cls-10"/></clipPath><clipPath id="clippath-4"><path d="m821.88,1005.29l211.22-64.49c6.64-2.03,12.76,4.4,10.43,10.96l-60.6,170.96c-1.88,5.29-8.26,7.33-12.84,4.09l-150.62-106.48c-5.76-4.07-4.33-13,2.41-15.06" class="cls-10"/></clipPath><linearGradient id="Degradado_sin_nombre_7" x1="0" x2="1.46" y1="1161.86" y2="1161.86" data-name="Degradado sin nombre 7" gradientTransform="translate(151256.93 1128.91) rotate(-90) scale(129.39 -129.39)" gradientUnits="userSpaceOnUse"><stop offset="0" stop-color="#000"/><stop offset="1" stop-color="#fff"/></linearGradient><clipPath id="clippath-5"><path d="m1001,957.83l-12.73,3.87c-.95.29-1.75.86-2.34,1.59-.91-.28-1.9-.3-2.84-.02l-27.05,8.22c-2.1.64-3.51,2.61-3.44,4.81l.1,3.25c-1.01-.91-2.2-1.65-3.56-2.19-1.66-.66-3.58-1-5.72-1-.16,0-.32,0-.48,0-2.15.05-4.54.48-7.3,1.32l-14.03,4.26c-.34.1-.66.25-.96.42-.34.03-.69.08-1.03.18l-11.19,3.4c-1.4.43-2.54,1.47-3.09,2.83l-2.76,6.84-2.13-3.47c-1.15-1.88-3.42-2.74-5.53-2.1l-10.08,3.06c-1.49.45-2.67,1.59-3.18,3.07-.11.31-.18.64-.22.96-.18-.06-.35-.13-.53-.18-3.69-1.12-7.81-1.02-12.19.31-3.9,1.19-7.27,3.02-10.03,5.46-2.14,1.89-3.91,4.01-5.31,6.3.83-.12,1.69-.19,2.55-.19,9.68,0,17.76,8.11,17.76,17.82,0,7.42-4.72,13.9-11.26,16.55.6.22,1.21.42,1.83.58l-9.31,2.88c-1.33.41-2.42,1.38-2.99,2.66l-4.02,8.99-3.58-4.93c-1.22-1.68-3.36-2.39-5.34-1.79l-9.44,2.92c-2.09.65-3.49,2.62-3.41,4.82l1.33,36.62c.06,1.51.81,2.91,2.04,3.79.83.59,1.81.9,2.81.9.48,0,.96-.07,1.43-.22l9.24-2.86c2.09-.65,3.5-2.63,3.41-4.83l-.22-5.86c1.26,1.4,3.22,1.94,5.03,1.38l.19-.06c1.01-.32,1.89-.96,2.5-1.81l.06,1.4c.06,1.51.81,2.91,2.04,3.78,1.23.87,2.79,1.12,4.23.68l9.39-2.9c2.09-.65,3.49-2.62,3.41-4.82l-.27-7.41c1.59,1.69,3.42,3.06,5.47,4.09,2.39,1.2,5.04,1.91,7.87,2.12.51.04,1.04.06,1.56.06,2.32,0,4.72-.38,7.15-1.13.49-.15.97-.32,1.44-.49-1.77,1.64-3.19,3.5-4.2,5.55-1.05,2.13-1.69,4.4-1.89,6.76-.15,1.78-.05,3.53.29,5.22l-4.29,1.33c-2.1.65-3.5,2.63-3.41,4.83l.25,6.54c.06,1.51.81,2.91,2.04,3.78.83.59,1.81.89,2.8.89.48,0,.96-.07,1.43-.22l6.08-1.88c1.99-.62,3.33-2.43,3.4-4.49,1.66.73,3.45,1.15,5.35,1.23.22.01.45.01.67.01,1.72,0,3.49-.28,5.28-.84,2.79-.86,5.11-2.19,6.89-3.93,1.08-1.05,1.99-2.23,2.76-3.48,1.71.84,3.59,1.35,5.6,1.49.37.03.74.04,1.12.04,1.66,0,3.38-.27,5.1-.8,2.52-.78,4.75-2.02,6.62-3.67.34-.3.65-.6.96-.92.78.5,1.68.77,2.59.77.48,0,.96-.07,1.43-.21l5.93-1.84c2.09-.65,3.5-2.63,3.41-4.83l-.03-.95c.62.06,1.25,0,1.87-.19.35.74.89,1.38,1.57,1.87,1.23.87,2.79,1.12,4.23.68l6.02-1.86c.41-.13.79-.32,1.14-.54.43-.01.85-.08,1.27-.2l6.08-1.88c.08-.02.15-.06.22-.09.09-.02.18-.03.27-.06l6.51-2.02c1.54-.48,2.75-1.69,3.21-3.24l.66-2.19,1.83-.57c1.06,2.11,3.49,3.16,5.75,2.46l6.29-1.95c.1-.03.19-.07.28-.1.07-.02.14-.02.2-.05l6.02-1.86c1.45-.45,2.57-1.54,3.1-2.91,1.21.84,2.75,1.1,4.19.65l6.6-2.04c1.58-.49,2.8-1.75,3.24-3.34.44-1.59.05-3.3-1.05-4.54l-2.39-2.68c.74-.96,1.31-2,1.73-3.09,1.01-2.7,1.08-5.52.2-8.38-.43-1.39-1.06-2.66-1.89-3.78-.93-1.25-2.1-2.26-3.48-3-1.62-.87-3.52-1.32-5.62-1.35h-.17c-1.81,0-3.79.34-6.03,1.03l-6.01,1.86c.44-.51.78-1.11.98-1.77l1.44-4.81,6.49-2.01.89,1.93c1.02,2.21,3.5,3.32,5.82,2.6l9.82-3.04c1.35-.42,2.45-1.41,3.02-2.71.56-1.3.53-2.78-.09-4.06l.28-.63c.05,1.51.81,2.91,2.04,3.79.83.59,1.81.9,2.81.9.48,0,.96-.07,1.43-.21l9.39-2.9c2.09-.65,3.5-2.63,3.41-4.83l-.44-11.95,11.7-26.53c.77-1.74.45-3.77-.81-5.2-1.26-1.42-3.23-1.98-5.05-1.41l-11.17,3.45c-1.4.43-2.53,1.48-3.07,2.85l-2.72,6.86-2.15-3.46c-1.16-1.88-3.44-2.73-5.54-2.08h0c0-1.18-.41-2.33-1.21-3.24l-5.28-6c1.73-1.75,3-3.69,3.79-5.78,1.38-3.62,1.49-7.43.32-11.31-.56-1.88-1.41-3.59-2.5-5.08-1.2-1.63-2.72-2.95-4.51-3.92-2.14-1.16-4.67-1.77-7.52-1.82h-.34c-2.53,0-5.31.47-8.51,1.44" class="cls-10"/></clipPath><linearGradient id="Degradado_sin_nombre_3" x1="5.07" x2="6.52" y1="1168.66" y2="1168.66" data-name="Degradado sin nombre 3" gradientTransform="translate(15.66 187928.7) scale(159.92 -159.92)" gradientUnits="userSpaceOnUse"><stop offset="0" stop-color="#8134fb"/><stop offset=".12" stop-color="#773cfb"/><stop offset=".31" stop-color="#5e53fb"/><stop offset=".55" stop-color="#3579fb"/><stop offset=".57" stop-color="#327dfb"/><stop offset=".99" stop-color="#2bd1f5"/><stop offset="1" stop-color="#2bd1f5"/></linearGradient><clipPath id="clippath-6"><path d="m1001,957.83l-12.73,3.87c-.95.29-1.75.86-2.34,1.59-.91-.28-1.9-.3-2.84-.02l-27.05,8.22c-2.1.64-3.51,2.61-3.44,4.81l.1,3.25c-1.01-.91-2.2-1.65-3.56-2.19-1.66-.66-3.58-1-5.72-1-.16,0-.32,0-.48,0-2.15.05-4.54.48-7.3,1.32l-14.03,4.26c-.34.1-.66.25-.96.42-.34.03-.69.08-1.03.18l-11.19,3.4c-1.4.43-2.54,1.47-3.09,2.83l-2.76,6.84-2.13-3.47c-1.15-1.88-3.42-2.74-5.53-2.1l-10.08,3.06c-1.49.45-2.67,1.59-3.18,3.07-.11.31-.18.64-.22.96-.18-.06-.35-.13-.53-.18-3.69-1.12-7.81-1.02-12.19.31-3.9,1.19-7.27,3.02-10.03,5.46-2.14,1.89-3.91,4.01-5.31,6.3.83-.12,1.69-.19,2.55-.19,9.68,0,17.76,8.11,17.76,17.82,0,7.42-4.72,13.9-11.26,16.55.6.22,1.21.42,1.83.58l-9.31,2.88c-1.33.41-2.42,1.38-2.99,2.66l-4.02,8.99-3.58-4.93c-1.22-1.68-3.36-2.39-5.34-1.79l-9.44,2.92c-2.09.65-3.49,2.62-3.41,4.82l1.33,36.62c.06,1.51.81,2.91,2.04,3.79.83.59,1.81.9,2.81.9.48,0,.96-.07,1.43-.22l9.24-2.86c2.09-.65,3.5-2.63,3.41-4.83l-.22-5.86c1.26,1.4,3.22,1.94,5.03,1.38l.19-.06c1.01-.32,1.89-.96,2.5-1.81l.06,1.4c.06,1.51.81,2.91,2.04,3.78,1.23.87,2.79,1.12,4.23.68l9.39-2.9c2.09-.65,3.49-2.62,3.41-4.82l-.27-7.41c1.59,1.69,3.42,3.06,5.47,4.09,2.39,1.2,5.04,1.91,7.87,2.12.51.04,1.04.06,1.56.06,2.32,0,4.72-.38,7.15-1.13.49-.15.97-.32,1.44-.49-1.77,1.64-3.19,3.5-4.2,5.55-1.05,2.13-1.69,4.4-1.89,6.76-.15,1.78-.05,3.53.29,5.22l-4.29,1.33c-2.1.65-3.5,2.63-3.41,4.83l.25,6.54c.06,1.51.81,2.91,2.04,3.78.83.59,1.81.89,2.8.89.48,0,.96-.07,1.43-.22l6.08-1.88c1.99-.62,3.33-2.43,3.4-4.49,1.66.73,3.45,1.15,5.35,1.23.22.01.45.01.67.01,1.72,0,3.49-.28,5.28-.84,2.79-.86,5.11-2.19,6.89-3.93,1.08-1.05,1.99-2.23,2.76-3.48,1.71.84,3.59,1.35,5.6,1.49.37.03.74.04,1.12.04,1.66,0,3.38-.27,5.1-.8,2.52-.78,4.75-2.02,6.62-3.67.34-.3.65-.6.96-.92.78.5,1.68.77,2.59.77.48,0,.96-.07,1.43-.21l5.93-1.84c2.09-.65,3.5-2.63,3.41-4.83l-.03-.95c.62.06,1.25,0,1.87-.19.35.74.89,1.38,1.57,1.87,1.23.87,2.79,1.12,4.23.68l6.02-1.86c.41-.13.79-.32,1.14-.54.43-.01.85-.08,1.27-.2l6.08-1.88c.08-.02.15-.06.22-.09.09-.02.18-.03.27-.06l6.51-2.02c1.54-.48,2.75-1.69,3.21-3.24l.66-2.19,1.83-.57c1.06,2.11,3.49,3.16,5.75,2.46l6.29-1.95c.1-.03.19-.07.28-.1.07-.02.14-.02.2-.05l6.02-1.86c1.45-.45,2.57-1.54,3.1-2.91,1.21.84,2.75,1.1,4.19.65l6.6-2.04c1.58-.49,2.8-1.75,3.24-3.34.44-1.59.05-3.3-1.05-4.54l-2.39-2.68c.74-.96,1.31-2,1.73-3.09,1.01-2.7,1.08-5.52.2-8.38-.43-1.39-1.06-2.66-1.89-3.78-.93-1.25-2.1-2.26-3.48-3-1.62-.87-3.52-1.32-5.62-1.35h-.17c-1.81,0-3.79.34-6.03,1.03l-6.01,1.86c.44-.51.78-1.11.98-1.77l1.44-4.81,6.49-2.01.89,1.93c1.02,2.21,3.5,3.32,5.82,2.6l9.82-3.04c1.35-.42,2.45-1.41,3.02-2.71.56-1.3.53-2.78-.09-4.06l.28-.63c.05,1.51.81,2.91,2.04,3.79.83.59,1.81.9,2.81.9.48,0,.96-.07,1.43-.21l9.39-2.9c2.09-.65,3.5-2.63,3.41-4.83l-.44-11.95,11.7-26.53c.77-1.74.45-3.77-.81-5.2-1.26-1.42-3.23-1.98-5.05-1.41l-11.17,3.45c-1.4.43-2.53,1.48-3.07,2.85l-2.72,6.86-2.15-3.46c-1.16-1.88-3.44-2.73-5.54-2.08h0c0-1.18-.41-2.33-1.21-3.24l-5.28-6c1.73-1.75,3-3.69,3.79-5.78,1.38-3.62,1.49-7.43.32-11.31-.56-1.88-1.41-3.59-2.5-5.08-1.2-1.63-2.72-2.95-4.51-3.92-2.14-1.16-4.67-1.77-7.52-1.82h-.34c-2.53,0-5.31.47-8.51,1.44" class="cls-10"/></clipPath><clipPath id="clippath-7"><rect width="241.82" height="242.41" x="815.88" y="933.28" class="cls-10"/></clipPath><clipPath id="clippath-8"><path d="m854.98,1046.67c-1.33.41-2.42,1.38-2.99,2.66l-4.02,8.99-3.58-4.93c-1.22-1.68-3.36-2.39-5.34-1.79l-9.44,2.92c-2.09.65-3.49,2.62-3.41,4.82l1.33,36.62c.06,1.51.81,2.91,2.04,3.79.83.59,1.81.9,2.81.9.48,0,.96-.07,1.43-.22l9.24-2.86c2.09-.65,3.5-2.63,3.41-4.83l-.22-5.86c1.26,1.4,3.22,1.94,5.03,1.38l.19-.06c1.01-.32,1.89-.96,2.5-1.81l.06,1.4c.06,1.51.81,2.91,2.04,3.78,1.23.87,2.79,1.12,4.23.68l9.39-2.9c2.09-.65,3.49-2.62,3.41-4.82l-.27-7.41c1.59,1.69,3.42,3.06,5.47,4.09,2.39,1.2,5.04,1.91,7.87,2.12.51.04,1.04.06,1.56.06,2.32,0,4.72-.38,7.15-1.13.49-.15.97-.32,1.44-.49-1.77,1.64-3.19,3.5-4.2,5.55-1.05,2.13-1.69,4.4-1.89,6.76-.15,1.78-.05,3.53.29,5.22l-4.29,1.33c-2.1.65-3.5,2.63-3.41,4.83l.25,6.54c.06,1.51.81,2.91,2.04,3.78.83.59,1.81.89,2.8.89.48,0,.96-.07,1.43-.22l6.08-1.88c1.99-.62,3.33-2.43,3.4-4.49,1.66.73,3.45,1.15,5.35,1.23.22.01.45.01.67.01,1.72,0,3.49-.28,5.28-.84,2.79-.86,5.11-2.19,6.89-3.93,1.08-1.05,1.99-2.23,2.76-3.48,1.71.84,3.59,1.35,5.6,1.49.37.03.74.04,1.12.04,1.66,0,3.38-.27,5.1-.8,2.52-.78,4.75-2.02,6.62-3.67.34-.3.65-.6.96-.92.78.5,1.68.77,2.59.77.48,0,.96-.07,1.43-.22l5.93-1.83c.64-.2,1.21-.53,1.7-.95-3.45-1.69-6.59-3.57-9.9-5.9-7.14-5.01-15.76-7.43-22.69-12.74-5.5-4.21-9.22-8.62-13.38-14.11,0-.01-.02-.02-.03-.03-.66-.81-1.31-1.6-2.06-2.32-1.03-.98-2.08-1.93-3.17-2.84-.65-.48-1.7-1.27-2.13-1.57-.9-.61-1.79-1.23-2.71-1.81-1.83-1.17-3.68-2.31-5.57-3.37-1.84-1.03-3.7-2.03-5.6-2.95-.79-.38-1.59-.76-2.39-1.13-4.2-1.57-8.92-1.89-13.3-2.62-1.91-.32-3.85-.68-5.77-1.11l-7.11,2.2Z" class="cls-10"/></clipPath><linearGradient id="Degradado_sin_nombre_4" x1="9.67" x2="11.12" y1="1164.07" y2="1164.07" data-name="Degradado sin nombre 4" gradientTransform="translate(38108.88 82811.97) rotate(-25) scale(77.15 -77.15)" gradientUnits="userSpaceOnUse"><stop offset="0" stop-color="#4d43b5"/><stop offset="1" stop-color="#297ab6"/></linearGradient><clipPath id="clippath-9"><path d="m1036.45,933.28c-.81,0-1.64.12-2.48.38l-211.22,64.49c-6.74,2.06-8.16,10.99-2.41,15.06l150.62,106.48c4.57,3.23,10.96,1.2,12.84-4.1l60.6-170.96c2.03-5.71-2.34-11.32-7.89-11.35h-.06Z" class="cls-10"/></clipPath><linearGradient id="Degradado_sin_nombre_5" x1="5.13" x2="6.57" y1="1168.68" y2="1168.68" data-name="Degradado sin nombre 5" gradientTransform="translate(9.01 185219.27) scale(157.61 -157.61)" gradientUnits="userSpaceOnUse"><stop offset="0" stop-color="#2bd1f5"/><stop offset="0" stop-color="#2bd1f5"/><stop offset=".43" stop-color="#327dfb"/><stop offset=".45" stop-color="#3579fb"/><stop offset=".69" stop-color="#5e53fb"/><stop offset=".88" stop-color="#773cfb"/><stop offset="1" stop-color="#8134fb"/></linearGradient><clipPath id="clippath-10"><rect width="241.82" height="242.41" x="815.88" y="933.28" class="cls-10"/></clipPath><clipPath id="clippath-11"><rect width="228.15" height="187.95" x="816.75" y="933.28" class="cls-10"/></clipPath><clipPath id="clippath-12"><path d="m822.75,998.15l211.22-64.49c6.64-2.03,12.76,4.4,10.43,10.96l-60.6,170.96c-1.88,5.29-8.26,7.33-12.84,4.1l-150.62-106.48c-5.76-4.07-4.33-13,2.41-15.06" class="cls-10"/></clipPath><linearGradient id="Degradado_sin_nombre_7-2" x1=".02" x2="1.47" y1="1161.85" y2="1161.85" data-name="Degradado sin nombre 7" gradientTransform="translate(151257.53 1124) rotate(-90) scale(129.39 -129.39)" xlink:href="#Degradado_sin_nombre_7"/><clipPath id="clippath-13"><rect width="228.15" height="187.95" x="816.75" y="933.28" class="cls-10"/></clipPath><clipPath id="clippath-14"><path d="m822.75,998.15l211.22-64.49c6.64-2.03,12.76,4.4,10.43,10.96l-60.6,170.96c-1.88,5.29-8.26,7.33-12.84,4.1l-150.62-106.48c-5.76-4.07-4.33-13,2.41-15.06" class="cls-10"/></clipPath><linearGradient id="Degradado_sin_nombre_7-3" x1=".02" x2="1.47" y1="1161.85" y2="1161.85" data-name="Degradado sin nombre 7" gradientTransform="translate(151257.53 1124) rotate(-90) scale(129.39 -129.39)" xlink:href="#Degradado_sin_nombre_7"/><clipPath id="clippath-15"><rect width="157.75" height="144.84" x="826.2" y="969.2" class="cls-10"/></clipPath><clipPath id="clippath-16"><rect width="158.08" height="144.84" x="825.87" y="969.2" class="cls-10"/></clipPath><clipPath id="clippath-17"><polygon points="816.14 977.06 925.54 947.9 972.24 1124.36 862.84 1153.52 816.14 977.06" class="cls-10"/></clipPath><linearGradient id="Degradado_sin_nombre_11" x1="10.21" x2="11.66" y1="1167.01" y2="1167.01" data-name="Degradado sin nombre 11" gradientTransform="translate(38935.4 147611.49) rotate(-14.87) scale(78.19 -129.75)" gradientUnits="userSpaceOnUse"><stop offset="0" stop-color="#fff"/><stop offset=".64" stop-color="#000"/><stop offset="1" stop-color="#000"/></linearGradient><mask id="mask" width="257.77" height="283.34" x="765.3" y="909.04" maskUnits="userSpaceOnUse"><g class="cls-44"><rect width="158.08" height="144.84" x="825.87" y="969.2" class="cls-7"/><g class="cls-41"><g class="cls-31"><g class="cls-76"><polygon points="765.3 961.45 961.95 909.04 1023.07 1139.97 826.42 1192.38 765.3 961.45" class="cls-20"/></g></g></g></g></mask><clipPath id="clippath-18"><rect width="157.75" height="144.84" x="826.2" y="969.2" class="cls-10"/></clipPath><clipPath id="clippath-19"><rect width="157.75" height="144.84" x="826.2" y="969.2" class="cls-10"/></clipPath><clipPath id="clippath-20"><path d="m972.56,1114.04c-2.12,0-4.21-.67-5.97-1.95l-58.63-42.66-78.55-56.06c-2.34-1.67-3.55-4.49-3.14-7.34.41-2.86,2.34-5.23,5.06-6.18l.12-.04,97.71-30.6,2.31,7.42-22.93,7.18c-30.55,9.57-36.98,50.1-10.9,68.72l14.83,10.59,58.66,42.68c.8.58,1.61.5,2.03.39.41-.1,1.17-.41,1.6-1.31l2.2-4.58,6.98,3.38-2.09,4.35c-1.12,2.34-3.02,4.27-5.42,5.25-1.26.51-2.58.76-3.88.76" class="cls-10"/></clipPath><linearGradient id="Degradado_sin_nombre_21" x1="7.46" x2="8.91" y1="1168.75" y2="1168.75" data-name="Degradado sin nombre 21" gradientTransform="translate(12.93 128403.7) scale(108.97 -108.97)" gradientUnits="userSpaceOnUse"><stop offset="0" stop-color="#2bd1f5"/><stop offset="0" stop-color="#2bd1f5"/><stop offset=".61" stop-color="#327dfb"/><stop offset=".62" stop-color="#3579fb"/><stop offset=".79" stop-color="#5e53fb"/><stop offset=".92" stop-color="#773cfb"/><stop offset="1" stop-color="#8134fb"/></linearGradient><clipPath id="clippath-21"><rect width="157.75" height="144.84" x="826.2" y="969.2" class="cls-10"/></clipPath><clipPath id="clippath-22"><rect width="158.08" height="144.84" x="825.87" y="969.2" class="cls-10"/></clipPath><clipPath id="clippath-23"><polygon points="816.14 977.06 925.54 947.9 972.24 1124.36 862.84 1153.52 816.14 977.06" class="cls-10"/></clipPath><mask id="mask-1" width="257.77" height="283.34" x="765.3" y="909.04" maskUnits="userSpaceOnUse"><g class="cls-50"><rect width="158.08" height="144.84" x="825.87" y="969.2" class="cls-7"/><g class="cls-41"><g class="cls-62"><g class="cls-81"><polygon points="765.3 961.45 961.95 909.04 1023.07 1139.97 826.42 1192.38 765.3 961.45" class="cls-20"/></g></g></g></g></mask><clipPath id="clippath-24"><rect width="157.75" height="144.84" x="826.2" y="969.2" class="cls-10"/></clipPath><clipPath id="clippath-25"><rect width="157.75" height="144.84" x="826.2" y="969.2" class="cls-10"/></clipPath><clipPath id="clippath-26"><path d="m972.56,1114.04c-2.12,0-4.21-.67-5.97-1.95l-58.63-42.66-78.55-56.06c-2.34-1.67-3.55-4.49-3.14-7.34.41-2.86,2.34-5.23,5.06-6.18l.12-.04,97.71-30.6,2.31,7.42-22.93,7.18c-30.55,9.57-36.98,50.1-10.9,68.72l14.83,10.59,58.66,42.68c.8.58,1.61.5,2.03.39.41-.1,1.17-.41,1.6-1.31l2.2-4.58,6.98,3.38-2.09,4.35c-1.12,2.34-3.02,4.27-5.42,5.25-1.26.51-2.58.76-3.88.76" class="cls-10"/></clipPath><filter id="luminosity-invert" width="483.3" height="488.03" x="693.06" y="804.91" color-interpolation-filters="sRGB" filterUnits="userSpaceOnUse"><feColorMatrix result="cm" values="-1 0 0 0 1 0 -1 0 0 1 0 0 -1 0 1 0 0 0 1 0"/></filter><clipPath id="clippath-27"><polygon points="1066.47 1105.96 899.01 1188.39 802.96 991.87 970.42 909.45 1066.47 1105.96" class="cls-10"/></clipPath><linearGradient id="Degradado_sin_nombre_17" x1="5.77" x2="7.22" y1="1166.45" y2="1166.45" data-name="Degradado sin nombre 17" gradientTransform="translate(90105.27 184749.94) rotate(-26.13) scale(128.84 -175.06)" gradientUnits="userSpaceOnUse"><stop offset="0" stop-color="#000"/><stop offset="1" stop-color="#fff"/></linearGradient><clipPath id="clippath-28"><path d="m956.68,1059.99c0,33.47-27.04,60.6-60.39,60.6s-60.39-27.13-60.39-60.6,27.04-60.6,60.39-60.6,60.39,27.13,60.39,60.6" class="cls-10"/></clipPath><linearGradient id="Degradado_sin_nombre_14" x1="9.8" x2="11.25" y1="1168.78" y2="1168.78" data-name="Degradado sin nombre 14" gradientTransform="translate(18.26 98572.57) scale(83.43 -83.43)" gradientUnits="userSpaceOnUse"><stop offset="0" stop-color="#000"/><stop offset=".57" stop-color="#fff"/><stop offset="1" stop-color="#fff"/></linearGradient><mask id="mask-2" width="483.3" height="488.03" x="693.06" y="804.91" maskUnits="userSpaceOnUse"><g class="cls-59"><g class="cls-41"><g class="cls-57"><polygon points="693.06 963.54 1015.37 804.91 1176.37 1134.29 854.06 1292.93 693.06 963.54" class="cls-1"/></g><g class="cls-82"><rect width="120.78" height="121.2" x="835.9" y="999.4" class="cls-2"/></g></g></g></mask><clipPath id="clippath-29"><rect width="172.78" height="148.2" x="822.25" y="969.2" class="cls-10"/></clipPath><clipPath id="clippath-30"><path d="m973.75,1117.4c-2.12,0-5.88-3.71-7.64-5l-58.34-42.97-78.55-56.06c-2.34-1.67-7.73-4.65-6.89-8.14,1.03-4.28,6.09-4.43,8.8-5.38l.12-.04,97.71-30.6,3.8,12.05-58.13,16.2c-18.08,5.83-17.08,28.03-15.5,29.17l53.14,36.5,58.65,42.68c.8.58,1.61.5,2.03.39.41-.1,1.17-.41,1.6-1.31l2.09-4.35,11-33.3,7.36,2.45-11.16,33.78s-4.41,12.54-6.24,13.18c-1.28.45-2.57.76-3.88.76" class="cls-10"/></clipPath><linearGradient id="Degradado_sin_nombre_21-2" x1="6.8" x2="8.25" y1="1168.72" y2="1168.72" data-name="Degradado sin nombre 21" gradientTransform="translate(10.76 140534.59) scale(119.35 -119.35)" xlink:href="#Degradado_sin_nombre_21"/><clipPath id="clippath-31"><rect width="16.65" height="16.36" x="1019.33" y="942.36" class="cls-10"/></clipPath><filter id="luminosity-invert-2" width="349.79" height="351.64" x="753.08" y="859.58" color-interpolation-filters="sRGB" filterUnits="userSpaceOnUse"><feColorMatrix result="cm" values="-1 0 0 0 1 0 -1 0 0 1 0 0 -1 0 1 0 0 0 1 0"/></filter><clipPath id="clippath-32"><polygon points="1043.07 1101.36 863.39 1151.54 812.88 969.44 992.56 919.25 1043.07 1101.36" class="cls-10"/></clipPath><linearGradient id="Degradado_sin_nombre_17-2" x1="6.16" x2="7.61" y1="1167.16" y2="1167.16" data-name="Degradado sin nombre 17" gradientTransform="translate(47389.99 171266.33) rotate(-15.55) scale(128.84 -151.18)" xlink:href="#Degradado_sin_nombre_17"/><clipPath id="clippath-33"><path d="m958.73,1056.04c0,32-25.85,57.94-57.74,57.94s-57.74-25.94-57.74-57.94,25.85-57.94,57.74-57.94,57.74,25.94,57.74,57.94" class="cls-10"/></clipPath><radialGradient id="Degradado_sin_nombre_18" cx="21.06" cy="1169.45" r="1.45" data-name="Degradado sin nombre 18" fx="21.06" fy="1169.45" gradientTransform="translate(60.88 47864.56) scale(39.89 -40.03)" gradientUnits="userSpaceOnUse"><stop offset="0" stop-color="#fff"/><stop offset="1" stop-color="#000"/></radialGradient><mask id="mask-3" width="349.79" height="351.64" x="753.08" y="859.58" maskUnits="userSpaceOnUse"><g class="cls-79"><g class="cls-41"><g class="cls-34"><polygon points="753.08 935.96 1026.52 859.58 1102.87 1134.84 829.43 1211.22 753.08 935.96" class="cls-11"/></g><g class="cls-32"><rect width="115.48" height="115.89" x="843.25" y="998.09" class="cls-19"/></g></g></g></mask><clipPath id="clippath-34"><rect width="171.63" height="148.31" x="823.21" y="969.08" class="cls-10"/></clipPath><clipPath id="clippath-35"><path d="m973.8,1117.4c-2.12,0-6.06-3.85-7.82-5.13l-58.39-42.96-78.55-56.06c-2.35-1.67-6.22-4.69-5.8-8.08.43-3.45,2.77-4.25,7.71-5.45l.12-.04,97.71-30.6.3,5.1-95.25,29.83c-1.24.39-1.51,2.04-.44,2.8l78.71,56.18,58.65,42.68c.8.58,1.61.49,2.03.39.41-.1,1.17-.41,1.6-1.31l2.09-4.35,11.01-33.3,7.36,2.45-11.16,33.78-1.54,4.73c-1.12,2.34-2.06,7.6-4.46,8.58-1.26.51-2.58.76-3.88.76" class="cls-10"/></clipPath><linearGradient id="Degradado_sin_nombre_21-3" x1="6.85" x2="8.3" y1="1168.72" y2="1168.72" data-name="Degradado sin nombre 21" gradientTransform="translate(11.38 139607.19) scale(118.56 -118.56)" xlink:href="#Degradado_sin_nombre_21"/><clipPath id="clippath-36"><rect width="167.54" height="78.39" x="856.79" y="960.81" class="cls-10"/></clipPath><clipPath id="clippath-37"><rect width="130.72" height="61.04" x="886.84" y="1052.85" class="cls-10"/></clipPath><clipPath id="clippath-38"><rect width="221.82" height="105.21" x="830.24" y="993.39" class="cls-10"/></clipPath><clipPath id="clippath-39"><path d="m826.62,1011.58l10.56,7.46,33.58-10.25c2.16-2.86,5.07-5.06,8.47-5.71.53-2.8,1.73-5.38,3.41-7.57l-56.03,16.07Z" class="cls-10"/></clipPath><linearGradient id="Degradado_sin_nombre_21-4" x1="15.04" x2="16.49" y1="1169.27" y2="1169.27" data-name="Degradado sin nombre 21" gradientTransform="translate(10.28 64478.73) scale(54.28 -54.28)" xlink:href="#Degradado_sin_nombre_21"/><clipPath id="clippath-40"><path d="m842.06,1022.39l9.19,6.58,15.99-4.71c-.32-1.32-.49-2.68-.49-4.08,0-1.63.28-3.35.8-5.05l-25.49,7.26Z" class="cls-10"/></clipPath><linearGradient id="Degradado_sin_nombre_21-5" x1="13.71" x2="15.16" y1="1169.11" y2="1169.11" data-name="Degradado sin nombre 21" gradientTransform="translate(21.25 71002.79) scale(59.86 -59.86)" xlink:href="#Degradado_sin_nombre_21"/><clipPath id="clippath-41"><path d="m855.91,1032.49l7.33,5.16,11.23-2.82c-2.17-1.52-4-3.52-5.33-5.82l-13.23,3.49Z" class="cls-10"/></clipPath><linearGradient id="Degradado_sin_nombre_21-6" x1="14.16" x2="15.61" y1="1169.07" y2="1169.07" data-name="Degradado sin nombre 21" gradientTransform="translate(30.73 69164.97) scale(58.28 -58.28)" xlink:href="#Degradado_sin_nombre_21"/><clipPath id="clippath-42"><rect width="118.67" height="77.2" x="819.07" y="965.11" class="cls-10"/></clipPath><clipPath id="clippath-43"><rect width="39.62" height="25.38" x="947.68" y="1092.45" class="cls-10"/></clipPath></defs><g class="cls-41"><g id="Capa_1" data-name="Capa 1"><g><rect width="1033" height="1032.25" x="23.69" y="104.31" class="cls-35"/><g class="cls-64"><line x1="122.18" x2=".32" y1=".38" y2="101.41" class="cls-36"/><line x1="122.18" x2=".32" y1="21.54" y2="122.57" class="cls-36"/><line x1="122.18" x2=".32" y1="42.7" y2="143.73" class="cls-36"/><line x1="122.18" x2=".32" y1="63.86" y2="164.89" class="cls-36"/><line x1="122.18" x2=".32" y1="85.01" y2="186.04" class="cls-36"/><line x1="122.18" x2=".32" y1="106.17" y2="207.2" class="cls-36"/><line x1="122.18" x2=".32" y1="127.33" y2="228.36" class="cls-36"/><line x1="122.18" x2=".32" y1="148.49" y2="249.52" class="cls-36"/><line x1="122.18" x2=".32" y1="169.64" y2="270.67" class="cls-36"/><line x1="122.18" x2=".32" y1="190.8" y2="291.83" class="cls-36"/><line x1="122.18" x2=".32" y1="211.96" y2="312.99" class="cls-36"/><line x1="122.18" x2=".32" y1="233.11" y2="334.14" class="cls-36"/><line x1="122.18" x2=".32" y1="254.27" y2="355.3" class="cls-36"/><line x1="122.18" x2=".32" y1="275.43" y2="376.46" class="cls-36"/><line x1="122.18" x2=".32" y1="296.59" y2="397.62" class="cls-36"/><line x1="122.18" x2=".32" y1="317.74" y2="418.77" class="cls-36"/><line x1="122.18" x2=".32" y1="338.9" y2="439.93" class="cls-36"/><line x1="122.18" x2=".32" y1="360.06" y2="461.09" class="cls-36"/><line x1="122.18" x2=".32" y1="381.22" y2="482.24" class="cls-36"/><line x1="122.18" x2=".32" y1="402.37" y2="503.4" class="cls-36"/><line x1="122.18" x2=".32" y1="423.53" y2="524.56" class="cls-36"/><line x1="122.18" x2=".32" y1="444.69" y2="545.72" class="cls-36"/><line x1="122.18" x2=".32" y1="465.84" y2="566.87" class="cls-36"/><line x1="122.18" x2=".32" y1="487" y2="588.03" class="cls-36"/><line x1="122.18" x2=".32" y1="508.16" y2="609.19" class="cls-36"/><line x1="122.18" x2=".32" y1="529.32" y2="630.35" class="cls-36"/><line x1="122.18" x2=".32" y1="550.47" y2="651.5" class="cls-36"/><line x1="122.18" x2=".32" y1="571.63" y2="672.66" class="cls-36"/><line x1="122.18" x2=".32" y1="592.79" y2="693.82" class="cls-36"/><line x1="122.18" x2=".32" y1="613.95" y2="714.97" class="cls-36"/><line x1="122.18" x2=".32" y1="635.1" y2="736.13" class="cls-36"/><line x1="122.18" x2=".32" y1="656.26" y2="757.29" class="cls-36"/><line x1="122.18" x2=".32" y1="677.42" y2="778.45" class="cls-36"/><line x1="122.18" x2=".32" y1="698.57" y2="799.6" class="cls-36"/><line x1="122.18" x2=".32" y1="719.73" y2="820.76" class="cls-36"/><line x1="122.18" x2=".32" y1="740.89" y2="841.92" class="cls-36"/><line x1="122.18" x2=".32" y1="762.05" y2="863.08" class="cls-36"/><line x1="122.18" x2=".32" y1="783.2" y2="884.23" class="cls-36"/><line x1="122.18" x2=".32" y1="804.36" y2="905.39" class="cls-36"/><line x1="122.18" x2=".32" y1="825.52" y2="926.55" class="cls-36"/><line x1="122.18" x2=".32" y1="846.67" y2="947.7" class="cls-36"/><line x1="122.18" x2=".32" y1="867.83" y2="968.86" class="cls-36"/><line x1="122.18" x2=".32" y1="888.99" y2="990.02" class="cls-36"/><line x1="122.18" x2=".32" y1="910.15" y2="1011.18" class="cls-36"/><line x1="122.18" x2=".32" y1="931.3" y2="1032.33" class="cls-36"/><line x1="122.18" x2=".32" y1="952.46" y2="1053.49" class="cls-36"/><line x1="122.18" x2=".32" y1="973.62" y2="1074.65" class="cls-36"/><line x1="122.18" x2=".32" y1="994.78" y2="1095.8" class="cls-36"/><line x1="122.18" x2=".32" y1="1015.93" y2="1116.96" class="cls-36"/><line x1="122.18" x2=".32" y1="1037.09" y2="1138.12" class="cls-36"/><line x1="122.18" x2=".32" y1="1058.25" y2="1159.28" class="cls-36"/><line x1="122.18" x2=".32" y1="1079.4" y2="1180.43" class="cls-36"/><line x1="122.18" x2=".32" y1="1100.56" y2="1201.59" class="cls-36"/><line x1="122.18" x2=".32" y1="1121.72" y2="1222.75" class="cls-36"/><line x1="122.18" x2=".32" y1="1142.88" y2="1243.91" class="cls-36"/></g><g class="cls-53"><g class="cls-39"><g class="cls-23"><g class="cls-68"><g class="cls-54"><rect width="232.14" height="191.28" x="813.71" y="938.77" class="cls-18"/></g></g></g></g><g class="cls-77"><rect width="231.93" height="160.25" x="826.12" y="956.38" class="cls-6"/></g><g class="cls-45"><rect width="231.93" height="160.25" x="826.12" y="956.38" class="cls-6"/></g><g class="cls-49"><path d="m1019.59,1065.47c.74-.96,1.31-1.99,1.73-3.09,1.01-2.7,1.08-5.52.2-8.38-.43-1.39-1.06-2.66-1.89-3.78-.93-1.25-2.1-2.26-3.48-3-1.62-.87-3.52-1.32-5.62-1.35h-.17c-1.81,0-3.79.34-6.03,1.03l-5.58,1.73c-1.67,4.49-3.08,9.05-3.8,13.93-1.11,7.54-2.15,14.64-4.93,21.64.97.36,2.06.42,3.11.09l6.3-1.95c.1-.03.19-.07.28-.1.07-.02.14-.02.2-.05l6.02-1.86c1.45-.45,2.58-1.54,3.1-2.91,1.2.84,2.75,1.1,4.19.65l6.6-2.05c1.58-.49,2.8-1.75,3.24-3.34.44-1.59.04-3.3-1.05-4.54l-2.39-2.68Z" class="cls-15"/><path d="m1056.48,987.34c-1.26-1.42-3.23-1.98-5.05-1.42l-11.17,3.45c-1.4.43-2.53,1.48-3.07,2.85l-2.72,6.86-2.14-3.46c-1.16-1.87-3.44-2.73-5.54-2.08h0c0-1.18-.41-2.33-1.21-3.24l-1.38-1.57c-1.04.83-2.13,1.62-3.24,2.39-1.19.83-2.41,1.62-3.62,2.43-.32.22-.65.44-.97.66-.45.46-.98,1.07-1.3,1.44-.1.17-.21.34-.31.51-.11.19-.22.42-.33.66-.1.33-.2.67-.29,1.01-.94,3.89-1.41,7.87-2.22,11.79-2.04,9.88-5.42,19.38-9.13,28.74-.48,1.22-.97,2.43-1.46,3.64l5.88-1.82.89,1.93c1.02,2.21,3.5,3.32,5.82,2.6l9.82-3.04c1.35-.42,2.45-1.41,3.02-2.71.56-1.3.53-2.78-.09-4.06l.28-.63c.05,1.51.81,2.91,2.03,3.79.83.59,1.81.9,2.81.9.48,0,.96-.07,1.43-.22l9.39-2.9c2.09-.65,3.49-2.63,3.41-4.83l-.44-11.95,11.7-26.53c.77-1.74.45-3.77-.81-5.2" class="cls-15"/></g><g class="cls-70"><polygon points="798.58 1057.36 928.53 996.55 978.35 1103.74 848.39 1164.56 798.58 1057.36" class="cls-17"/></g><g class="cls-63"><rect width="231.84" height="189.64" x="814.58" y="933.28" class="cls-22"/></g><g class="cls-80"><g class="cls-24"><g class="cls-30"><g class="cls-58"><rect width="232.14" height="191.28" x="814.58" y="931.63" class="cls-5"/></g></g></g><g class="cls-25"><g class="cls-40"><g class="cls-75"><rect width="232.14" height="191.28" x="814.58" y="931.63" class="cls-3"/></g></g></g><g class="cls-72"><g class="cls-28"><g class="cls-74"><g class="cls-51"><g class="cls-66"><g class="cls-29"><rect width="158.08" height="144.84" x="825.87" y="969.2" class="cls-9"/></g></g></g></g></g></g><g class="cls-71"><g class="cls-28"><g class="cls-60"><g class="cls-51"><g class="cls-43"><g class="cls-48"><rect width="158.08" height="144.84" x="825.87" y="969.2" class="cls-9"/></g></g></g></g></g></g><g class="cls-38"><g class="cls-73"><g class="cls-61"><rect width="173.53" height="148.2" x="821.49" y="969.2" class="cls-21"/></g></g></g><g class="cls-26"><g class="cls-67"><path d="m1035.77,948.67c1.01,4.45-1.76,8.79-6.29,9.82-4.53,1.03-8.94-1.67-9.95-6.12-1.01-4.45,1.82-8.75,6.39-9.8,4.48-1.02,8.83,1.65,9.84,6.1m-14.21,3.24c.8,3.53,4.08,5.73,7.6,4.92,3.43-.73,5.39-4.18,4.6-7.66-.8-3.53-4.05-5.79-7.56-4.99-3.42.78-5.43,4.24-4.64,7.72m5.79,3l-1.83.42-1.8-7.93c.7-.26,1.68-.64,2.98-.93,1.49-.34,2.22-.26,2.84.01.56.23,1.03.73,1.2,1.51.22.97-.36,1.76-1.21,2.26l.02.1c.83.06,1.35.61,1.84,1.61.51,1.16.8,1.55,1.02,1.8l-1.93.44c-.31-.23-.6-.88-1.06-1.79-.33-.79-.9-1.06-1.91-.83l-.87.2.71,3.14Zm-.96-4.46l.87-.2c1.01-.23,1.75-.76,1.57-1.58-.17-.73-.8-1.09-1.96-.82-.48.11-.81.24-.99.33l.51,2.27Z" class="cls-12"/></g></g><path d="m1036.55,946.93c1.01,4.45-1.76,8.79-6.29,9.82-4.53,1.03-8.94-1.67-9.95-6.12-1.01-4.45,1.82-8.75,6.39-9.8,4.48-1.02,8.83,1.65,9.84,6.1m-14.21,3.24c.8,3.53,4.08,5.73,7.6,4.92,3.43-.73,5.39-4.18,4.6-7.66-.8-3.53-4.05-5.79-7.56-4.99-3.42.78-5.43,4.24-4.64,7.72m5.79,3l-1.83.42-1.8-7.93c.7-.26,1.68-.64,2.98-.93,1.49-.34,2.22-.26,2.84.01.56.23,1.03.73,1.2,1.51.22.97-.36,1.76-1.21,2.26l.02.1c.83.06,1.35.61,1.84,1.61.51,1.16.8,1.55,1.02,1.8l-1.93.44c-.31-.23-.6-.88-1.06-1.79-.33-.79-.9-1.06-1.91-.83l-.87.2.71,3.14Zm-.96-4.46l.87-.2c1.01-.23,1.75-.76,1.57-1.58-.17-.73-.8-1.09-1.96-.82-.48.11-.81.24-.99.33l.51,2.27Z" class="cls-16"/><g class="cls-46"><g class="cls-52"><g class="cls-83"><rect width="172.02" height="148.31" x="822.82" y="969.08" class="cls-13"/></g></g></g><g class="cls-26"><g class="cls-56"><path d="m878.08,1038.26c-2.35.71-4.6,1.02-6.75.92-2.16-.1-4.13-.58-5.94-1.45-1.8-.86-3.38-2.08-4.71-3.67-1.34-1.58-2.35-3.5-3.03-5.76-.76-2.52-1.02-5.14-.77-7.87.24-2.73.99-5.34,2.22-7.81,1.24-2.47,2.98-4.7,5.22-6.68,2.24-1.98,4.99-3.47,8.23-4.46,3.47-1.05,6.6-1.16,9.38-.32,2.78.85,5.08,2.42,6.9,4.72l-6.78,6.82c-1.09-1.18-2.3-1.99-3.62-2.41-1.32-.43-2.82-.38-4.49.12-1.42.43-2.64,1.14-3.68,2.12-1.04.98-1.85,2.13-2.44,3.43-.59,1.31-.95,2.71-1.07,4.21-.13,1.5.03,2.99.48,4.47.65,2.16,1.8,3.67,3.45,4.53,1.64.86,3.45.98,5.41.39,1.48-.45,2.69-1.14,3.63-2.08.95-.94,1.8-2.12,2.56-3.55l8.01,3.69c-1.08,2.37-2.58,4.49-4.5,6.36-1.93,1.87-4.5,3.29-7.71,4.27" class="cls-12"/><polygon points="901.74 1016.02 888.68 997.33 898.75 994.27 905.9 1005.94 912.25 990.17 923.44 986.77 911.16 1014.27 911.57 1027.35 902.17 1030.2 901.74 1016.02" class="cls-12"/><path d="m925.42,986.17l14.03-4.26c2.31-.7,4.32-1.07,6.01-1.11,1.69-.04,3.12.18,4.3.65,1.18.47,2.11,1.14,2.81,2,.7.86,1.21,1.83,1.53,2.89.65,2.16.54,4.2-.34,6.12-.88,1.92-2.42,3.53-4.62,4.84,1.68.09,3.16.55,4.44,1.37,1.28.83,2.19,2.11,2.71,3.85.44,1.45.54,2.9.31,4.34-.23,1.44-.84,2.82-1.84,4.12-.99,1.31-2.37,2.52-4.14,3.63-1.77,1.12-3.95,2.07-6.56,2.86l-17.5,5.32-1.15-36.62Zm15.93,9.9c1.67-.51,2.85-1.2,3.53-2.07.68-.87.87-1.83.55-2.89-.23-.77-.73-1.28-1.49-1.54-.76-.26-1.87-.17-3.31.27l-5.84,1.77.24,6.37,6.32-1.92Zm1.15,13.59c1.64-.5,2.82-1.21,3.54-2.15.72-.93.92-1.93.6-2.98-.53-1.76-2.18-2.22-4.94-1.38l-6.46,1.96.18,6.71,7.09-2.15Z" class="cls-12"/><polygon points="959.84 975.71 986.89 967.49 987.13 976.13 969.39 981.52 969.54 987.08 985.64 982.18 985.9 990.19 969.8 995.08 969.97 1000.89 988 995.41 988.29 1004.04 961 1012.33 959.84 975.71" class="cls-12"/><path d="m992.08,965.92l12.73-3.87c2.83-.86,5.28-1.27,7.36-1.23,2.08.04,3.85.45,5.31,1.24,1.17.63,2.14,1.47,2.91,2.52.77,1.05,1.36,2.25,1.77,3.61.86,2.84.79,5.56-.21,8.17-.99,2.61-3.08,4.91-6.27,6.9l8.65,9.84-10.32,3.13-7.58-8.89-4.15,1.26.35,11.09-9.4,2.86-1.16-36.62Zm15.3,13.1c2.12-.64,3.68-1.58,4.68-2.8,1-1.22,1.28-2.57.84-4.03-.26-.88-.78-1.55-1.56-2.02-1.01-.54-2.51-.51-4.5.09l-5.06,1.54.25,8.85,5.35-1.63Z" class="cls-12"/></g></g><g class="cls-26"><g class="cls-42"><polygon points="886.84 1107.35 892.95 1105.46 893.17 1112 887.09 1113.88 886.84 1107.35" class="cls-12"/><path d="m907.88,1107.92c-1.5.46-2.94.67-4.32.61-1.38-.06-2.65-.36-3.81-.91-1.16-.54-2.17-1.32-3.03-2.33-.86-1.01-1.52-2.24-1.96-3.68-.5-1.61-.67-3.29-.52-5.05.15-1.75.62-3.42,1.4-5.01.78-1.59,1.89-3.02,3.32-4.3,1.43-1.28,3.19-2.24,5.26-2.88,2.22-.69,4.23-.77,6.01-.23,1.79.53,3.26,1.53,4.44,3l-4.33,4.39c-.7-.75-1.48-1.27-2.33-1.53-.85-.27-1.81-.24-2.88.09-.9.28-1.69.74-2.35,1.37-.66.63-1.18,1.37-1.55,2.21-.37.84-.6,1.74-.67,2.7-.08.96.03,1.92.33,2.87.42,1.38,1.17,2.35,2.22,2.89,1.06.54,2.21.62,3.47.23.95-.29,1.72-.74,2.32-1.35s1.15-1.37,1.63-2.28l5.15,2.34c-.68,1.52-1.64,2.89-2.86,4.09-1.23,1.21-2.87,2.13-4.93,2.76" class="cls-12"/><path d="m929.35,1101.24c-1.54.48-3.02.67-4.44.56-1.42-.1-2.71-.45-3.88-1.04-1.17-.59-2.19-1.4-3.05-2.43-.86-1.03-1.5-2.24-1.93-3.62-.51-1.65-.68-3.35-.51-5.08.17-1.73.64-3.37,1.42-4.9s1.85-2.9,3.2-4.1c1.35-1.2,2.97-2.09,4.84-2.67,1.54-.48,3.02-.67,4.44-.56,1.42.1,2.71.45,3.88,1.04,1.17.59,2.19,1.4,3.05,2.43.86,1.03,1.5,2.24,1.93,3.63.51,1.65.68,3.34.52,5.08-.17,1.74-.64,3.37-1.42,4.9-.78,1.53-1.85,2.9-3.2,4.09-1.35,1.2-2.97,2.09-4.84,2.67m-1.13-5.55c.94-.29,1.73-.76,2.37-1.41.64-.65,1.12-1.39,1.45-2.23.33-.84.51-1.71.56-2.61.05-.91-.06-1.76-.3-2.57-.21-.68-.51-1.28-.89-1.81-.39-.52-.84-.94-1.38-1.25-.53-.31-1.13-.49-1.78-.55-.66-.06-1.36.03-2.12.27-.94.29-1.73.76-2.36,1.41-.63.65-1.11,1.39-1.45,2.23-.33.84-.53,1.71-.57,2.62-.05.91.06,1.76.3,2.57.21.68.51,1.29.89,1.81.39.52.84.94,1.38,1.25.53.31,1.13.49,1.78.55.66.06,1.36-.03,2.12-.27" class="cls-12"/><polygon points="940.09 1073.74 946.14 1071.87 951.58 1079.37 956.35 1068.7 963.08 1066.62 963.94 1090.09 957.92 1091.96 957.4 1078.49 952.26 1089.37 952.14 1089.41 946.37 1081.97 946.87 1095.38 940.95 1097.21 940.09 1073.74" class="cls-12"/><polygon points="966.1 1082.81 972.21 1080.92 972.43 1087.47 966.35 1089.35 966.1 1082.81" class="cls-12"/><path d="m981.24,1060.83l5.86-1.82,10.07,20.79-6.3,1.95-1.71-3.71-8.33,2.58-1.4,4.67-6.51,2.02,8.32-26.48Zm6,12.69l-2.68-5.98-2.13,7.48,4.81-1.49Z" class="cls-12"/><path d="m996.79,1056.18l8.15-2.52c1.81-.56,3.38-.83,4.72-.82,1.33.02,2.47.28,3.41.78.75.4,1.38.94,1.87,1.61.5.67.88,1.44,1.15,2.31.56,1.82.52,3.56-.1,5.24-.63,1.68-1.96,3.16-4,4.44l5.58,6.28-6.6,2.05-4.89-5.68-2.65.82.26,7.11-6.02,1.86-.86-23.47Zm9.85,8.35c1.36-.42,2.35-1.02,2.99-1.81.64-.79.81-1.65.52-2.58-.17-.56-.51-.99-1.01-1.29-.65-.35-1.61-.32-2.88.07l-3.24,1,.19,5.67,3.43-1.06Z" class="cls-12"/></g></g><g class="cls-26"><g class="cls-55"><polygon points="830.24 1061.98 839.68 1059.06 848.17 1070.77 855.61 1054.14 866.11 1050.89 867.44 1087.51 858.05 1090.41 857.24 1069.4 849.22 1086.37 849.03 1086.43 840.03 1074.82 840.82 1095.74 831.57 1098.6 830.24 1061.98" class="cls-12"/><path d="m892.63,1080.41c-2.41.74-4.72,1.03-6.93.87-2.21-.16-4.23-.7-6.06-1.62-1.83-.92-3.41-2.18-4.75-3.79-1.34-1.61-2.34-3.5-3-5.66-.79-2.58-1.06-5.22-.8-7.93.26-2.71,1-5.25,2.21-7.64,1.22-2.39,2.88-4.51,5-6.39,2.11-1.87,4.63-3.26,7.55-4.16,2.41-.74,4.72-1.03,6.93-.87,2.21.16,4.23.7,6.06,1.62,1.83.92,3.41,2.18,4.75,3.79,1.34,1.61,2.34,3.5,3,5.66.79,2.58,1.06,5.22.8,7.93-.26,2.71-1,5.25-2.21,7.64-1.22,2.39-2.88,4.52-5,6.39-2.11,1.87-4.63,3.26-7.55,4.16m-1.76-8.66c1.47-.45,2.7-1.19,3.7-2.2,1-1.01,1.75-2.17,2.26-3.48.51-1.3.8-2.66.87-4.08.07-1.41-.09-2.75-.47-4.01-.33-1.06-.79-2-1.39-2.82-.6-.82-1.32-1.47-2.15-1.96-.83-.48-1.76-.77-2.78-.86-1.02-.09-2.13.05-3.31.41-1.47.45-2.69,1.19-3.68,2.19-.98,1.01-1.74,2.17-2.26,3.48-.52,1.31-.82,2.67-.89,4.09-.07,1.42.08,2.75.47,4.01.33,1.06.79,2,1.39,2.82.6.82,1.32,1.47,2.15,1.95.83.49,1.76.77,2.78.86,1.02.09,2.13-.05,3.31-.41" class="cls-12"/><polygon points="911.08 1036.98 919.79 1034.29 934.28 1050.39 933.56 1030.03 942.85 1027.16 944.19 1063.77 936 1066.31 920.93 1049.65 921.7 1070.73 912.41 1073.6 911.08 1036.98" class="cls-12"/><path d="m948.68,1025.36l10.88-3.36c3.27-1.01,6.09-1.44,8.46-1.29,2.37.15,4.39.67,6.07,1.56,3.19,1.69,5.42,4.62,6.7,8.77.78,2.54,1.05,5.09.82,7.63-.24,2.54-.99,5.01-2.26,7.42-1.4,2.65-3.4,4.97-5.99,6.93-2.6,1.97-5.85,3.55-9.77,4.76l-13.58,4.2-1.33-36.62Zm13.47,23.77c1.96-.6,3.68-1.46,5.17-2.55,1.49-1.1,2.62-2.38,3.4-3.86.62-1.18,1-2.46,1.14-3.84.14-1.38,0-2.75-.42-4.1-.32-1.03-.74-1.88-1.26-2.55-.52-.67-1.14-1.19-1.85-1.57-.84-.45-1.85-.69-3.02-.73-1.17-.04-2.58.19-4.22.7l-2.7.83.66,18.63,3.08-.95Z" class="cls-12"/><path d="m996.67,1010.25l9.15-2.83,15.71,32.44-9.82,3.04-2.67-5.78-13,4.02-2.19,7.29-10.16,3.14,12.99-41.31Zm9.35,19.8l-4.19-9.34-3.32,11.66,7.51-2.32Z" class="cls-12"/><polygon points="1030.5 1022.75 1017.34 1004.12 1027.41 1001.01 1034.61 1012.64 1040.89 996.84 1052.06 993.39 1039.91 1020.95 1040.39 1034.03 1031 1036.93 1030.5 1022.75" class="cls-12"/></g></g><polygon points="887.79 1103.9 893.9 1102.01 894.12 1108.55 888.04 1110.44 887.79 1103.9" class="cls-16"/><path d="m908.83,1104.47c-1.5.46-2.94.67-4.32.61-1.38-.06-2.65-.36-3.81-.91-1.16-.54-2.17-1.32-3.03-2.33-.86-1.01-1.52-2.24-1.96-3.68-.5-1.61-.67-3.29-.52-5.05.15-1.75.62-3.42,1.4-5.01.78-1.59,1.89-3.02,3.32-4.3,1.43-1.28,3.19-2.24,5.26-2.88,2.22-.69,4.23-.77,6.01-.23,1.79.53,3.26,1.53,4.44,3l-4.33,4.39c-.7-.75-1.48-1.27-2.33-1.53s-1.81-.24-2.88.09c-.9.28-1.69.74-2.35,1.37-.66.63-1.18,1.37-1.55,2.21-.37.84-.6,1.74-.67,2.7-.08.96.03,1.92.33,2.87.42,1.38,1.17,2.35,2.22,2.89,1.06.54,2.21.62,3.47.23.95-.29,1.72-.74,2.32-1.35.6-.6,1.15-1.37,1.63-2.28l5.15,2.34c-.68,1.52-1.64,2.89-2.86,4.09-1.23,1.21-2.87,2.13-4.93,2.76" class="cls-16"/><path d="m930.3,1097.79c-1.54.48-3.02.67-4.44.56-1.42-.1-2.71-.45-3.88-1.04-1.17-.59-2.19-1.4-3.05-2.43-.86-1.03-1.5-2.24-1.93-3.62-.51-1.65-.68-3.35-.51-5.08.17-1.73.64-3.37,1.42-4.9.78-1.53,1.85-2.9,3.2-4.1,1.35-1.2,2.97-2.09,4.84-2.67,1.54-.48,3.02-.67,4.44-.56,1.42.1,2.71.45,3.88,1.04,1.17.59,2.19,1.4,3.05,2.43.86,1.03,1.5,2.24,1.93,3.63.51,1.65.68,3.34.52,5.08-.17,1.74-.64,3.37-1.42,4.9-.78,1.53-1.85,2.9-3.2,4.09-1.35,1.2-2.97,2.09-4.84,2.67m-1.13-5.55c.94-.29,1.73-.76,2.37-1.41.64-.65,1.12-1.39,1.45-2.23.33-.84.51-1.71.56-2.61.05-.91-.06-1.76-.3-2.57-.21-.68-.51-1.28-.89-1.81-.39-.52-.84-.94-1.38-1.25-.53-.31-1.13-.49-1.78-.55-.66-.06-1.36.03-2.12.27-.94.29-1.73.76-2.36,1.41-.63.65-1.11,1.39-1.45,2.23-.33.84-.53,1.71-.57,2.62-.05.91.06,1.76.3,2.57.21.68.51,1.29.89,1.81.39.52.84.94,1.38,1.25.53.31,1.13.49,1.78.55.66.06,1.36-.03,2.12-.27" class="cls-16"/><polygon points="941.04 1070.29 947.09 1068.42 952.53 1075.92 957.3 1065.26 964.03 1063.17 964.89 1086.64 958.87 1088.51 958.35 1075.04 953.21 1085.92 953.09 1085.96 947.32 1078.52 947.82 1091.93 941.9 1093.76 941.04 1070.29" class="cls-16"/><polygon points="967.05 1079.36 973.16 1077.47 973.38 1084.02 967.3 1085.9 967.05 1079.36" class="cls-16"/><path d="m982.19,1057.38l5.86-1.82,10.07,20.79-6.3,1.95-1.71-3.71-8.33,2.58-1.4,4.67-6.51,2.02,8.32-26.48Zm6,12.69l-2.68-5.98-2.13,7.48,4.81-1.49Z" class="cls-16"/><path d="m997.74,1052.74l8.15-2.52c1.81-.56,3.38-.83,4.72-.82,1.33.02,2.47.28,3.41.78.75.4,1.38.94,1.87,1.61.5.67.88,1.44,1.15,2.31.56,1.82.52,3.56-.1,5.24-.63,1.68-1.96,3.16-4,4.44l5.58,6.28-6.6,2.05-4.89-5.68-2.65.82.26,7.11-6.02,1.86-.86-23.47Zm9.85,8.35c1.36-.42,2.35-1.02,2.99-1.81.64-.79.81-1.65.52-2.58-.17-.56-.51-.99-1.01-1.29-.65-.35-1.61-.32-2.88.07l-3.24,1,.19,5.67,3.43-1.06Z" class="cls-16"/><polygon points="831.19 1058.53 840.63 1055.62 849.12 1067.32 856.56 1050.69 867.06 1047.44 868.39 1084.06 859 1086.96 858.19 1065.95 850.17 1082.92 849.98 1082.98 840.98 1071.37 841.77 1092.29 832.52 1095.15 831.19 1058.53" class="cls-16"/><path d="m893.58,1076.96c-2.41.74-4.72,1.03-6.93.87s-4.23-.7-6.06-1.62c-1.83-.92-3.41-2.18-4.75-3.79-1.34-1.61-2.34-3.5-3-5.66-.79-2.58-1.06-5.22-.8-7.93.26-2.71,1-5.25,2.21-7.64,1.22-2.39,2.88-4.51,5-6.39,2.11-1.87,4.63-3.26,7.55-4.16,2.41-.74,4.72-1.03,6.93-.87,2.21.16,4.23.7,6.06,1.62,1.83.92,3.41,2.18,4.75,3.79,1.34,1.61,2.34,3.5,3,5.66.79,2.58,1.06,5.22.8,7.93-.26,2.71-1,5.25-2.21,7.64-1.22,2.39-2.88,4.52-5,6.39-2.11,1.87-4.63,3.26-7.55,4.16m-1.76-8.66c1.47-.45,2.7-1.19,3.7-2.2,1-1.01,1.75-2.17,2.26-3.48.51-1.3.8-2.66.87-4.08.07-1.41-.09-2.75-.47-4.01-.33-1.06-.79-2-1.39-2.82-.6-.82-1.32-1.47-2.15-1.96-.83-.48-1.76-.77-2.78-.86-1.02-.09-2.13.05-3.31.41-1.47.45-2.69,1.19-3.68,2.19-.98,1.01-1.74,2.17-2.26,3.48-.52,1.31-.82,2.67-.89,4.09-.07,1.42.08,2.75.47,4.01.33,1.06.79,2,1.39,2.82.6.82,1.32,1.47,2.15,1.96.83.48,1.76.77,2.78.86,1.02.09,2.13-.05,3.31-.41" class="cls-16"/><polygon points="912.03 1033.54 920.74 1030.84 935.23 1046.94 934.51 1026.58 943.8 1023.71 945.14 1060.33 936.95 1062.86 921.87 1046.2 922.65 1067.28 913.36 1070.15 912.03 1033.54" class="cls-16"/><path d="m949.63,1021.91l10.88-3.37c3.27-1.01,6.09-1.44,8.46-1.29,2.37.15,4.39.67,6.07,1.56,3.19,1.69,5.42,4.62,6.7,8.77.78,2.54,1.05,5.09.82,7.63-.24,2.54-.99,5.01-2.26,7.42-1.4,2.65-3.4,4.97-5.99,6.93-2.6,1.97-5.85,3.55-9.77,4.76l-13.58,4.2-1.33-36.62Zm13.47,23.77c1.96-.6,3.68-1.46,5.17-2.55,1.49-1.1,2.62-2.38,3.4-3.86.62-1.18,1-2.46,1.14-3.84.14-1.38,0-2.75-.42-4.1-.32-1.03-.74-1.88-1.26-2.55-.52-.67-1.14-1.19-1.85-1.57-.84-.45-1.85-.69-3.02-.73-1.17-.04-2.58.19-4.22.69l-2.7.83.66,18.63,3.08-.95Z" class="cls-16"/><path d="m997.62,1006.8l9.15-2.83,15.71,32.44-9.82,3.04-2.67-5.78-13,4.02-2.19,7.29-10.16,3.14,12.99-41.31Zm9.35,19.8l-4.19-9.34-3.32,11.66,7.51-2.32Z" class="cls-16"/><polygon points="1031.45 1019.3 1018.29 1000.68 1028.35 997.56 1035.56 1009.2 1041.83 993.4 1053 989.94 1040.86 1017.5 1041.34 1030.58 1031.95 1033.48 1031.45 1019.3" class="cls-16"/></g><g class="cls-65"><rect width="56.03" height="23.53" x="826.62" y="995.52" class="cls-8"/></g><g class="cls-47"><rect width="25.49" height="13.84" x="842.06" y="1015.13" class="cls-14"/></g><g class="cls-33"><rect width="18.56" height="8.64" x="855.91" y="1029" class="cls-4"/></g><g><path d="m879.03,1034.82c-2.35.71-4.6,1.02-6.75.92-2.16-.1-4.13-.58-5.94-1.45-1.8-.86-3.38-2.08-4.71-3.67-1.34-1.58-2.35-3.5-3.03-5.76-.76-2.52-1.02-5.14-.77-7.87.24-2.73.99-5.34,2.22-7.81,1.24-2.47,2.98-4.7,5.22-6.68,2.24-1.98,4.99-3.47,8.23-4.46,3.47-1.05,6.6-1.16,9.38-.32,2.78.85,5.08,2.42,6.9,4.72l-6.78,6.82c-1.09-1.18-2.3-1.99-3.62-2.41-1.32-.43-2.82-.38-4.49.12-1.42.43-2.64,1.14-3.68,2.12-1.04.98-1.85,2.13-2.44,3.43-.59,1.31-.95,2.71-1.07,4.21-.13,1.5.03,2.99.48,4.47.65,2.16,1.8,3.67,3.45,4.53,1.64.86,3.45.98,5.41.39,1.48-.45,2.69-1.14,3.63-2.08.95-.94,1.8-2.12,2.56-3.55l8.01,3.69c-1.08,2.37-2.58,4.49-4.5,6.36-1.93,1.87-4.5,3.29-7.71,4.27" class="cls-16"/><polygon points="902.69 1012.57 889.63 993.88 899.7 990.82 906.85 1002.49 913.2 986.72 924.39 983.32 912.11 1010.82 912.52 1023.9 903.12 1026.76 902.69 1012.57" class="cls-16"/><path d="m926.37,982.72l14.03-4.26c2.31-.7,4.32-1.07,6.01-1.11,1.69-.04,3.12.18,4.3.65,1.18.47,2.11,1.14,2.81,2,.7.86,1.21,1.83,1.53,2.89.65,2.16.54,4.2-.34,6.12-.88,1.92-2.42,3.53-4.62,4.84,1.68.09,3.16.55,4.44,1.37,1.28.83,2.19,2.11,2.71,3.85.44,1.45.54,2.9.31,4.34-.23,1.44-.84,2.82-1.84,4.12-.99,1.31-2.37,2.52-4.14,3.63-1.77,1.12-3.95,2.07-6.56,2.86l-17.5,5.32-1.15-36.62Zm15.93,9.9c1.67-.51,2.85-1.2,3.53-2.07.68-.87.87-1.83.55-2.89-.23-.77-.73-1.28-1.49-1.54-.76-.26-1.87-.17-3.31.27l-5.84,1.77.24,6.37,6.32-1.92Zm1.15,13.59c1.64-.5,2.82-1.21,3.54-2.15.72-.93.92-1.93.6-2.98-.53-1.76-2.18-2.22-4.94-1.38l-6.46,1.96.18,6.71,7.09-2.15Z" class="cls-16"/><polygon points="960.79 972.26 987.84 964.04 988.08 972.68 970.34 978.07 970.49 983.63 986.59 978.74 986.85 986.74 970.74 991.63 970.92 997.44 988.95 991.96 989.24 1000.59 961.95 1008.88 960.79 972.26" class="cls-16"/><path d="m993.03,962.47l12.73-3.87c2.83-.86,5.28-1.27,7.36-1.23,2.08.04,3.85.45,5.31,1.24,1.17.63,2.14,1.47,2.91,2.52.77,1.05,1.36,2.25,1.77,3.61.86,2.84.79,5.56-.21,8.17-.99,2.61-3.08,4.91-6.27,6.9l8.65,9.84-10.32,3.13-7.58-8.89-4.15,1.26.35,11.09-9.4,2.86-1.16-36.62Zm15.3,13.1c2.12-.64,3.68-1.58,4.68-2.8,1-1.22,1.28-2.57.84-4.03-.26-.88-.78-1.55-1.56-2.02-1.01-.54-2.51-.51-4.5.09l-5.06,1.54.25,8.85,5.35-1.63Z" class="cls-16"/><g class="cls-27"><g class="cls-78"><path d="m937.44,965.94l-54.99,18.84-55.01,18.8s-.04.01-.06.02l-.11.03c-1.02.27-1.88.77-2.32,1.28-.22.26-.34.5-.38.71-.05.21-.04.4.02.65.06.24.2.54.43.85.23.31.55.64.94.94l3.28,2.48,13.37,10.09c2.23,1.68,4.45,3.38,6.67,5.07l6.66,5.08c2.22,1.69,4.43,3.4,6.64,5.11,2.21,1.71,4.42,3.41,6.62,5.13.31.24.36.69.12,1-.23.29-.64.36-.94.16-2.36-1.5-4.71-3.01-7.05-4.52-2.35-1.51-4.7-3.02-7.04-4.55l-7.02-4.57c-2.34-1.53-4.68-3.04-7.01-4.58l-13.99-9.21-1.75-1.15-.87-.58-.44-.29-.22-.14-.27-.19c-.73-.53-1.44-1.16-2.06-1.96-.61-.8-1.14-1.76-1.41-2.88-.28-1.11-.25-2.36.09-3.5.35-1.13.99-2.12,1.73-2.87.74-.77,1.58-1.31,2.42-1.73.84-.42,1.7-.7,2.54-.89l-.17.05,55.65-16.78,55.67-16.74c.22-.07.46.06.53.29.07.22-.06.45-.27.52" class="cls-16"/></g></g><g class="cls-27"><g class="cls-69"><path d="m947.99,1098.2c1.12.66,2.23,1.32,3.33,2,1.1.67,2.2,1.36,3.3,2.05,1.1.69,2.19,1.37,3.28,2.08l3.26,2.1,3.24,2.13c1.08.71,2.16,1.41,3.23,2.14l3.21,2.17c1.07.73,2.15,1.44,3.21,2.18l-.08-.05c.06.03.12.06.19.1l.19.08.2.06.2.03.21.02h.21s.21-.03.21-.03l.2-.05.2-.07.19-.09.18-.1.17-.12.15-.14.14-.15.12-.17c.03-.06.07-.12.11-.18l-.05.11,1.16-2.79c.4-.93.78-1.86,1.19-2.78.4-.92.81-1.84,1.23-2.76.41-.92.84-1.83,1.27-2.75.43-.91.87-1.82,1.31-2.72.44-.91.91-1.8,1.37-2.7.46-.9.94-1.79,1.42-2.68.49-.89.98-1.77,1.51-2.64.01-.02.04-.03.06-.01.02.01.02.03.02.05-.25.99-.53,1.96-.82,2.93-.3.97-.59,1.94-.91,2.9-.32.96-.63,1.92-.96,2.87-.33.95-.67,1.9-1.01,2.85-.35.94-.7,1.89-1.06,2.83-.36.94-.73,1.88-1.1,2.82-.37.94-.76,1.87-1.13,2.8l-1.17,2.79-.02.04s-.02.05-.03.07l-.24.4c-.09.13-.18.25-.28.37-.1.12-.21.23-.32.34-.11.11-.23.21-.35.31-.12.1-.25.18-.38.27-.13.08-.27.16-.4.23-.14.07-.28.13-.42.19-.14.05-.29.1-.44.15-.15.03-.3.07-.45.1-.15.02-.31.04-.46.06-.15,0-.31.01-.46,0-.15-.01-.31-.02-.46-.04-.15-.03-.31-.05-.46-.08-.15-.04-.3-.08-.45-.13-.14-.06-.29-.11-.43-.17l-.41-.21s-.03-.02-.04-.03l-.03-.02c-1.06-.74-2.1-1.5-3.15-2.25l-3.15-2.26c-1.05-.75-2.09-1.53-3.13-2.29l-3.12-2.3-3.1-2.33c-1.04-.77-2.06-1.56-3.09-2.35-1.03-.79-2.05-1.58-3.06-2.38-1.02-.8-2.03-1.61-3.03-2.43-.09-.07-.1-.2-.03-.29.07-.08.18-.1.27-.05" class="cls-16"/></g></g></g></g><path d="m790.01,1043.01c-44.42,44.07-44.82,44.07-89.24,0,43.92,44.57,43.92,44.98,0,89.55,44.42-44.07,44.82-44.07,89.24,0-43.92-44.57-43.92-44.98,0-89.55" class="cls-37"/><path d="m1056.18,846.97c-25.22,25.02-25.45,25.02-50.67,0,24.94,25.31,24.94,25.54,0,50.85,25.22-25.02,25.45-25.02,50.67,0-24.94-25.31-24.94-25.54,0-50.85" class="cls-37"/><path d="m871.51,911c-17.43,17.22-17.59,17.22-35.01,0,17.23,17.41,17.23,17.57,0,34.99,17.43-17.22,17.59-17.22,35.01,0-17.23-17.41-17.23-17.57,0-34.99" class="cls-37"/></g></g></g></svg>