<svg xmlns="http://www.w3.org/2000/svg" xmlns:xlink="http://www.w3.org/1999/xlink" id="Capa_1" data-name="Capa 1" viewBox="0 0 1080 1095.66"><defs><style>.cls-1{fill:url(#Degradado_sin_nombre_17)}.cls-1,.cls-10,.cls-11,.cls-12,.cls-13,.cls-14,.cls-15,.cls-16,.cls-17,.cls-18,.cls-2,.cls-3,.cls-4,.cls-5,.cls-6,.cls-7,.cls-8,.cls-9{stroke-width:0}.cls-2{fill:url(#Degradado_sin_nombre_12)}.cls-19{clip-path:url(#clippath-20)}.cls-3{fill:url(#Degradado_sin_nombre_14)}.cls-20{clip-path:url(#clippath-11)}.cls-21{clip-path:url(#clippath-16)}.cls-22{opacity:.26}.cls-4{fill:url(#Degradado_sin_nombre_8)}.cls-5{fill:url(#Degradado_sin_nombre_13)}.cls-23{opacity:.37}.cls-6{fill:url(#Degradado_sin_nombre_19)}.cls-24{clip-path:url(#clippath-32)}.cls-25{stroke:#56f4f4;stroke-width:47px}.cls-25,.cls-7{fill:none}.cls-25,.cls-26{stroke-miterlimit:10}.cls-27{clip-path:url(#clippath-2)}.cls-28{clip-path:url(#clippath-13)}.cls-29{clip-path:url(#clippath-25)}.cls-30{clip-path:url(#clippath-15)}.cls-31{clip-path:url(#clippath-6)}.cls-32{clip-path:url(#clippath-26)}.cls-33{clip-path:url(#clippath-7)}.cls-34{clip-path:url(#clippath-21)}.cls-8{fill:#c6c6c5}.cls-35{clip-path:url(#clippath-1)}.cls-36{clip-path:url(#clippath-4)}.cls-37{clip-path:url(#clippath-27)}.cls-9{fill:#6139c8}.cls-38{clip-path:url(#clippath-12)}.cls-10,.cls-26{fill:#fff}.cls-11{fill:url(#Degradado_sin_nombre_15)}.cls-12{fill:url(#Degradado_sin_nombre_16)}.cls-13{fill:url(#Degradado_sin_nombre_7)}.cls-39{clip-path:url(#clippath-24)}.cls-14{fill:url(#Degradado_sin_nombre_9)}.cls-40{clip-path:url(#clippath-30)}.cls-15{fill:url(#Degradado_sin_nombre_18)}.cls-16{fill:url(#Degradado_sin_nombre_11)}.cls-41{clip-path:url(#clippath-22)}.cls-42{clip-path:url(#clippath-9)}.cls-43{clip-path:url(#clippath)}.cls-26{stroke:#000}.cls-44{clip-path:url(#clippath-19)}.cls-45{clip-path:url(#clippath-31)}.cls-17{fill:url(#Degradado_sin_nombre_20)}.cls-46{clip-path:url(#clippath-3)}.cls-47{clip-path:url(#clippath-8)}.cls-48{clip-path:url(#clippath-29)}.cls-49{opacity:.2}.cls-50{clip-path:url(#clippath-18)}.cls-51{clip-path:url(#clippath-14)}.cls-52{clip-path:url(#clippath-17)}.cls-53{clip-path:url(#clippath-5)}.cls-18{fill:url(#Degradado_sin_nombre_10)}.cls-54{opacity:.15}.cls-55{clip-path:url(#clippath-10)}.cls-56{clip-path:url(#clippath-23)}.cls-57{opacity:.25}.cls-58{clip-path:url(#clippath-28)}</style><clipPath id="clippath"><rect width="241.82" height="242.59" x="815.69" y="853.07" class="cls-7"/></clipPath><clipPath id="clippath-1"><rect width="241.82" height="242.59" x="815.69" y="853.07" class="cls-7"/></clipPath><clipPath id="clippath-2"><rect width="228.15" height="188.09" x="815.69" y="860.21" class="cls-7"/></clipPath><clipPath id="clippath-3"><path d="m821.69,925.13l211.22-64.53c6.64-2.03,12.76,4.4,10.43,10.97l-60.6,171.09c-1.88,5.3-8.26,7.33-12.84,4.1l-150.62-106.55c-5.76-4.07-4.33-13.01,2.41-15.07" class="cls-7"/></clipPath><linearGradient id="Degradado_sin_nombre_7" x1="244.55" x2="246.01" y1="-195.15" y2="-195.15" data-name="Degradado sin nombre 7" gradientTransform="translate(26179.68 32691.48) rotate(-90) scale(129.39)" gradientUnits="userSpaceOnUse"><stop offset="0" stop-color="#000"/><stop offset="1" stop-color="#fff"/></linearGradient><clipPath id="clippath-4"><path d="m1000.81,877.64l-12.73,3.87c-.95.29-1.75.86-2.34,1.59-.91-.28-1.9-.3-2.84-.02l-27.05,8.23c-2.1.64-3.51,2.61-3.44,4.81l.1,3.25c-1.01-.91-2.2-1.65-3.56-2.19-1.66-.66-3.58-1-5.72-1h-.48c-2.15.05-4.54.48-7.3,1.32l-14.03,4.27c-.34.1-.66.25-.96.42-.34.03-.69.08-1.03.18l-11.19,3.4c-1.4.43-2.54,1.47-3.09,2.83l-2.76,6.85-2.13-3.47c-1.15-1.88-3.42-2.75-5.53-2.11l-10.08,3.06c-1.49.45-2.67,1.59-3.18,3.07-.11.31-.18.64-.22.96-.18-.06-.35-.13-.53-.18-3.69-1.12-7.81-1.02-12.19.31-3.9,1.19-7.27,3.03-10.03,5.47-2.14,1.89-3.91,4.01-5.31,6.3.83-.12,1.69-.19,2.55-.19,9.68,0,17.76,8.11,17.76,17.84,0,7.43-4.72,13.91-11.26,16.56.6.22,1.21.42,1.83.58l-9.31,2.88c-1.33.41-2.42,1.38-2.99,2.66l-4.02,9-3.58-4.94c-1.22-1.68-3.36-2.39-5.34-1.79l-9.44,2.92c-2.09.65-3.49,2.63-3.41,4.83l1.33,36.64c.06,1.51.81,2.91,2.04,3.79.83.59,1.81.9,2.81.9.48,0,.96-.07,1.43-.22l9.24-2.86c2.09-.65,3.5-2.63,3.41-4.83l-.22-5.87c1.26,1.4,3.22,1.95,5.03,1.38l.19-.06c1.01-.32,1.89-.96,2.5-1.81l.06,1.4c.06,1.51.81,2.91,2.04,3.78s2.79,1.12,4.23.68l9.39-2.9c2.09-.65,3.49-2.63,3.41-4.83l-.27-7.41c1.59,1.69,3.42,3.06,5.47,4.09,2.39,1.2,5.04,1.91,7.87,2.12.51.04,1.04.06,1.56.06,2.32,0,4.72-.38,7.15-1.13.49-.15.97-.32,1.44-.49-1.77,1.64-3.19,3.5-4.2,5.55-1.05,2.13-1.69,4.41-1.89,6.76-.15,1.78-.05,3.53.29,5.22l-4.29,1.33c-2.1.65-3.5,2.63-3.41,4.84l.25,6.54c.06,1.51.81,2.91,2.04,3.78.83.59,1.81.9,2.8.9.48,0,.96-.07,1.43-.22l6.08-1.88c1.99-.62,3.33-2.43,3.4-4.5,1.66.73,3.45,1.16,5.35,1.24.22.01.45.01.67.01,1.72,0,3.49-.28,5.28-.84,2.79-.86,5.11-2.19,6.89-3.93,1.08-1.06,1.99-2.23,2.76-3.48,1.71.84,3.59,1.35,5.6,1.49.37.03.74.04,1.12.04,1.66,0,3.38-.27,5.1-.8,2.52-.78,4.75-2.02,6.62-3.67.34-.3.65-.6.96-.92.78.5,1.68.77,2.59.77.48,0,.96-.07,1.43-.22l5.93-1.84c2.09-.65,3.5-2.63,3.41-4.83l-.03-.95c.62.06,1.25,0,1.87-.19.35.74.89,1.38,1.57,1.87,1.23.87,2.79,1.13,4.23.68l6.02-1.86c.41-.13.79-.32,1.14-.54.43-.01.85-.08,1.27-.2l6.08-1.88c.08-.02.15-.06.22-.09.09-.02.18-.03.27-.06l6.51-2.02c1.54-.48,2.75-1.69,3.21-3.24l.66-2.2,1.83-.57c1.06,2.11,3.49,3.16,5.75,2.46l6.29-1.95c.1-.03.19-.07.28-.1.07-.02.14-.02.2-.05l6.02-1.86c1.45-.45,2.57-1.54,3.1-2.91,1.21.84,2.75,1.1,4.19.65l6.6-2.05c1.58-.49,2.8-1.75,3.24-3.34s.05-3.31-1.05-4.54l-2.39-2.68c.74-.97,1.31-2,1.73-3.09,1.01-2.7,1.08-5.53.2-8.39-.43-1.39-1.06-2.66-1.89-3.78-.93-1.25-2.1-2.26-3.48-3-1.62-.87-3.52-1.32-5.62-1.35h-.17c-1.81,0-3.79.34-6.03,1.03l-6.01,1.86c.44-.51.78-1.11.98-1.77l1.44-4.81,6.49-2.01.89,1.94c1.02,2.21,3.5,3.32,5.82,2.6l9.82-3.04c1.35-.42,2.45-1.41,3.02-2.71.56-1.3.53-2.79-.09-4.06l.28-.63c.05,1.51.81,2.91,2.04,3.79.83.59,1.81.9,2.81.9.48,0,.96-.07,1.43-.22l9.39-2.91c2.09-.65,3.5-2.63,3.41-4.83l-.44-11.96,11.7-26.55c.77-1.74.45-3.78-.81-5.2s-3.23-1.98-5.05-1.42l-11.17,3.46c-1.4.43-2.53,1.48-3.07,2.85l-2.72,6.86-2.15-3.46c-1.16-1.88-3.44-2.73-5.54-2.08h0c0-1.18-.41-2.34-1.21-3.24l-5.28-6.01c1.73-1.75,3-3.69,3.79-5.79,1.38-3.63,1.49-7.44.32-11.32-.56-1.88-1.41-3.59-2.5-5.09-1.2-1.63-2.72-2.95-4.51-3.92-2.14-1.16-4.67-1.77-7.52-1.82h-.34c-2.53,0-5.31.47-8.51,1.44" class="cls-7"/></clipPath><linearGradient id="Degradado_sin_nombre_8" x1="246.61" x2="248.05" y1="-201.32" y2="-201.32" data-name="Degradado sin nombre 8" gradientTransform="translate(-38610.78 33152.18) scale(159.92)" gradientUnits="userSpaceOnUse"><stop offset="0" stop-color="#8134fb"/><stop offset=".12" stop-color="#773cfb"/><stop offset=".31" stop-color="#5e53fb"/><stop offset=".55" stop-color="#3579fb"/><stop offset=".57" stop-color="#327dfb"/><stop offset=".99" stop-color="#2bd1f5"/><stop offset="1" stop-color="#2bd1f5"/></linearGradient><clipPath id="clippath-5"><path d="m1000.81,877.64l-12.73,3.87c-.95.29-1.75.86-2.34,1.59-.91-.28-1.9-.3-2.84-.02l-27.05,8.23c-2.1.64-3.51,2.61-3.44,4.81l.1,3.25c-1.01-.91-2.2-1.65-3.56-2.19-1.66-.66-3.58-1-5.72-1h-.48c-2.15.05-4.54.48-7.3,1.32l-14.03,4.27c-.34.1-.66.25-.96.42-.34.03-.69.08-1.03.18l-11.19,3.4c-1.4.43-2.54,1.47-3.09,2.83l-2.76,6.85-2.13-3.47c-1.15-1.88-3.42-2.75-5.53-2.11l-10.08,3.06c-1.49.45-2.67,1.59-3.18,3.07-.11.31-.18.64-.22.96-.18-.06-.35-.13-.53-.18-3.69-1.12-7.81-1.02-12.19.31-3.9,1.19-7.27,3.03-10.03,5.47-2.14,1.89-3.91,4.01-5.31,6.3.83-.12,1.69-.19,2.55-.19,9.68,0,17.76,8.11,17.76,17.84,0,7.43-4.72,13.91-11.26,16.56.6.22,1.21.42,1.83.58l-9.31,2.88c-1.33.41-2.42,1.38-2.99,2.66l-4.02,9-3.58-4.94c-1.22-1.68-3.36-2.39-5.34-1.79l-9.44,2.92c-2.09.65-3.49,2.63-3.41,4.83l1.33,36.64c.06,1.51.81,2.91,2.04,3.79.83.59,1.81.9,2.81.9.48,0,.96-.07,1.43-.22l9.24-2.86c2.09-.65,3.5-2.63,3.41-4.83l-.22-5.87c1.26,1.4,3.22,1.95,5.03,1.38l.19-.06c1.01-.32,1.89-.96,2.5-1.81l.06,1.4c.06,1.51.81,2.91,2.04,3.78s2.79,1.12,4.23.68l9.39-2.9c2.09-.65,3.49-2.63,3.41-4.83l-.27-7.41c1.59,1.69,3.42,3.06,5.47,4.09,2.39,1.2,5.04,1.91,7.87,2.12.51.04,1.04.06,1.56.06,2.32,0,4.72-.38,7.15-1.13.49-.15.97-.32,1.44-.49-1.77,1.64-3.19,3.5-4.2,5.55-1.05,2.13-1.69,4.41-1.89,6.76-.15,1.78-.05,3.53.29,5.22l-4.29,1.33c-2.1.65-3.5,2.63-3.41,4.84l.25,6.54c.06,1.51.81,2.91,2.04,3.78.83.59,1.81.9,2.8.9.48,0,.96-.07,1.43-.22l6.08-1.88c1.99-.62,3.33-2.43,3.4-4.5,1.66.73,3.45,1.16,5.35,1.24.22.01.45.01.67.01,1.72,0,3.49-.28,5.28-.84,2.79-.86,5.11-2.19,6.89-3.93,1.08-1.06,1.99-2.23,2.76-3.48,1.71.84,3.59,1.35,5.6,1.49.37.03.74.04,1.12.04,1.66,0,3.38-.27,5.1-.8,2.52-.78,4.75-2.02,6.62-3.67.34-.3.65-.6.96-.92.78.5,1.68.77,2.59.77.48,0,.96-.07,1.43-.22l5.93-1.84c2.09-.65,3.5-2.63,3.41-4.83l-.03-.95c.62.06,1.25,0,1.87-.19.35.74.89,1.38,1.57,1.87,1.23.87,2.79,1.13,4.23.68l6.02-1.86c.41-.13.79-.32,1.14-.54.43-.01.85-.08,1.27-.2l6.08-1.88c.08-.02.15-.06.22-.09.09-.02.18-.03.27-.06l6.51-2.02c1.54-.48,2.75-1.69,3.21-3.24l.66-2.2,1.83-.57c1.06,2.11,3.49,3.16,5.75,2.46l6.29-1.95c.1-.03.19-.07.28-.1.07-.02.14-.02.2-.05l6.02-1.86c1.45-.45,2.57-1.54,3.1-2.91,1.21.84,2.75,1.1,4.19.65l6.6-2.05c1.58-.49,2.8-1.75,3.24-3.34s.05-3.31-1.05-4.54l-2.39-2.68c.74-.97,1.31-2,1.73-3.09,1.01-2.7,1.08-5.53.2-8.39-.43-1.39-1.06-2.66-1.89-3.78-.93-1.25-2.1-2.26-3.48-3-1.62-.87-3.52-1.32-5.62-1.35h-.17c-1.81,0-3.79.34-6.03,1.03l-6.01,1.86c.44-.51.78-1.11.98-1.77l1.44-4.81,6.49-2.01.89,1.94c1.02,2.21,3.5,3.32,5.82,2.6l9.82-3.04c1.35-.42,2.45-1.41,3.02-2.71.56-1.3.53-2.79-.09-4.06l.28-.63c.05,1.51.81,2.91,2.04,3.79.83.59,1.81.9,2.81.9.48,0,.96-.07,1.43-.22l9.39-2.91c2.09-.65,3.5-2.63,3.41-4.83l-.44-11.96,11.7-26.55c.77-1.74.45-3.78-.81-5.2s-3.23-1.98-5.05-1.42l-11.17,3.46c-1.4.43-2.53,1.48-3.07,2.85l-2.72,6.86-2.15-3.46c-1.16-1.88-3.44-2.73-5.54-2.08h0c0-1.18-.41-2.34-1.21-3.24l-5.28-6.01c1.73-1.75,3-3.69,3.79-5.79,1.38-3.63,1.49-7.44.32-11.32-.56-1.88-1.41-3.59-2.5-5.09-1.2-1.63-2.72-2.95-4.51-3.92-2.14-1.16-4.67-1.77-7.52-1.82h-.34c-2.53,0-5.31.47-8.51,1.44" class="cls-7"/></clipPath><linearGradient id="Degradado_sin_nombre_9" x1="246.61" x2="248.05" y1="-201.32" y2="-201.32" data-name="Degradado sin nombre 9" gradientTransform="translate(-38610.78 33152.18) scale(159.92)" gradientUnits="userSpaceOnUse"><stop offset="0" stop-color="#8134fb"/><stop offset=".12" stop-color="#773cfb"/><stop offset=".31" stop-color="#5e53fb"/><stop offset=".55" stop-color="#3579fb"/><stop offset=".57" stop-color="#327dfb"/><stop offset=".99" stop-color="#2bd1f5"/><stop offset="1" stop-color="#2bd1f5"/></linearGradient><clipPath id="clippath-6"><rect width="241.82" height="242.59" x="815.69" y="853.07" class="cls-7"/></clipPath><clipPath id="clippath-7"><path d="m854.8,966.54c-1.33.41-2.42,1.38-2.99,2.66l-4.02,9-3.58-4.94c-1.22-1.68-3.36-2.39-5.34-1.79l-9.44,2.92c-2.09.65-3.49,2.63-3.41,4.83l1.33,36.64c.06,1.51.81,2.91,2.04,3.79.83.59,1.81.9,2.81.9.48,0,.96-.07,1.43-.22l9.24-2.86c2.09-.65,3.5-2.63,3.41-4.83l-.22-5.87c1.26,1.4,3.22,1.95,5.03,1.38l.19-.06c1.01-.32,1.89-.96,2.5-1.81l.06,1.4c.06,1.51.81,2.91,2.04,3.78s2.79,1.12,4.23.68l9.39-2.91c2.09-.65,3.49-2.63,3.41-4.83l-.27-7.41c1.59,1.69,3.42,3.06,5.47,4.09,2.39,1.2,5.04,1.91,7.87,2.12.51.04,1.04.06,1.56.06,2.32,0,4.72-.38,7.15-1.13.49-.15.97-.32,1.44-.49-1.77,1.64-3.19,3.5-4.2,5.55-1.05,2.13-1.69,4.41-1.89,6.76-.15,1.78-.05,3.53.29,5.22l-4.29,1.33c-2.1.65-3.5,2.63-3.41,4.84l.25,6.54c.06,1.51.81,2.91,2.04,3.78.83.59,1.81.9,2.8.9.48,0,.96-.07,1.43-.22l6.08-1.88c1.99-.62,3.33-2.43,3.4-4.5,1.66.73,3.45,1.16,5.35,1.24.22.01.45.01.67.01,1.72,0,3.49-.28,5.28-.84,2.79-.86,5.11-2.19,6.89-3.93,1.08-1.06,1.99-2.23,2.76-3.48,1.71.84,3.59,1.35,5.6,1.49.37.03.74.04,1.12.04,1.66,0,3.38-.27,5.1-.81,2.52-.78,4.75-2.02,6.62-3.67.34-.3.65-.6.96-.92.78.5,1.68.77,2.59.77.48,0,.96-.07,1.43-.22l5.93-1.84c.64-.2,1.21-.53,1.7-.95-3.45-1.69-6.59-3.57-9.9-5.9-7.14-5.01-15.76-7.44-22.69-12.74-5.5-4.21-9.22-8.63-13.38-14.12,0-.01-.02-.02-.03-.03-.66-.81-1.31-1.6-2.06-2.32-1.03-.98-2.08-1.93-3.17-2.84-.65-.48-1.7-1.27-2.13-1.57-.9-.61-1.79-1.23-2.71-1.82-1.83-1.17-3.68-2.31-5.57-3.37-1.84-1.03-3.7-2.03-5.6-2.95-.79-.38-1.59-.76-2.39-1.13-4.2-1.57-8.92-1.89-13.3-2.63-1.91-.32-3.85-.68-5.77-1.11l-7.11,2.2-.02.02Z" class="cls-7"/></clipPath><linearGradient id="Degradado_sin_nombre_10" x1="250.93" x2="252.38" y1="-199.08" y2="-199.08" data-name="Degradado sin nombre 10" gradientTransform="translate(-10222.41 23127.97) rotate(-25) scale(77.15)" gradientUnits="userSpaceOnUse"><stop offset="0" stop-color="#4d43b5"/><stop offset="1" stop-color="#297ab6"/></linearGradient><clipPath id="clippath-8"><path d="m1036.26,853.07c-.81,0-1.64.13-2.48.38l-211.22,64.53c-6.74,2.06-8.16,11-2.41,15.07l150.62,106.56c4.57,3.24,10.96,1.2,12.84-4.1l60.6-171.09c2.03-5.72-2.34-11.33-7.89-11.35h-.06Z" class="cls-7"/></clipPath><linearGradient id="Degradado_sin_nombre_11" x1="246.63" x2="248.08" y1="-201.33" y2="-201.33" data-name="Degradado sin nombre 11" gradientTransform="translate(-38055.97 32680.11) scale(157.61)" gradientUnits="userSpaceOnUse"><stop offset="0" stop-color="#2bd1f5"/><stop offset="0" stop-color="#2bd1f5"/><stop offset=".43" stop-color="#327dfb"/><stop offset=".45" stop-color="#3579fb"/><stop offset=".69" stop-color="#5e53fb"/><stop offset=".88" stop-color="#773cfb"/><stop offset="1" stop-color="#8134fb"/></linearGradient><clipPath id="clippath-9"><rect width="241.82" height="242.59" x="815.69" y="853.07" class="cls-7"/></clipPath><clipPath id="clippath-10"><rect width="228.15" height="188.09" x="816.56" y="853.07" class="cls-7"/></clipPath><clipPath id="clippath-11"><path d="m822.56,917.98l211.22-64.53c6.64-2.03,12.76,4.4,10.43,10.97l-60.6,171.09c-1.88,5.3-8.26,7.33-12.84,4.1l-150.62-106.56c-5.76-4.07-4.33-13.01,2.41-15.07" class="cls-7"/></clipPath><linearGradient id="Degradado_sin_nombre_12" x1="244.57" x2="246.02" y1="-195.15" y2="-195.15" data-name="Degradado sin nombre 12" gradientTransform="translate(26180.28 32686.56) rotate(-90) scale(129.39)" gradientUnits="userSpaceOnUse"><stop offset="0" stop-color="#000"/><stop offset="1" stop-color="#fff"/></linearGradient><clipPath id="clippath-12"><rect width="228.15" height="188.09" x="816.56" y="853.07" class="cls-7"/></clipPath><clipPath id="clippath-13"><path d="m822.56,917.98l211.22-64.53c6.64-2.03,12.76,4.4,10.43,10.97l-60.6,171.09c-1.88,5.3-8.26,7.33-12.84,4.1l-150.62-106.56c-5.76-4.07-4.33-13.01,2.41-15.07" class="cls-7"/></clipPath><linearGradient id="Degradado_sin_nombre_13" x1="244.57" x2="246.02" y1="-195.15" y2="-195.15" data-name="Degradado sin nombre 13" gradientTransform="translate(26180.28 32686.56) rotate(-90) scale(129.39)" gradientUnits="userSpaceOnUse"><stop offset="0" stop-color="#000"/><stop offset="1" stop-color="#fff"/></linearGradient><clipPath id="clippath-14"><rect width="157.75" height="144.94" x="826.01" y="889.02" class="cls-7"/></clipPath><clipPath id="clippath-15"><rect width="157.75" height="144.94" x="826.01" y="889.02" class="cls-7"/></clipPath><clipPath id="clippath-16"><path d="m972.37,1033.96c-2.12,0-4.21-.67-5.97-1.95l-58.63-42.69-78.55-56.1c-2.34-1.67-3.55-4.49-3.14-7.35s2.34-5.23,5.06-6.18l.12-.04,97.71-30.63,2.31,7.43-22.93,7.19c-30.55,9.58-36.98,50.14-10.9,68.77l14.83,10.59,58.66,42.71c.8.58,1.61.5,2.03.39.41-.1,1.17-.41,1.6-1.31l2.2-4.58,6.98,3.38-2.09,4.35c-1.12,2.34-3.02,4.28-5.42,5.26-1.26.51-2.58.76-3.88.76" class="cls-7"/></clipPath><linearGradient id="Degradado_sin_nombre_14" x1="248.29" x2="249.74" y1="-202.01" y2="-202.01" data-name="Degradado sin nombre 14" gradientTransform="translate(-26229.83 22974.64) scale(108.97)" gradientUnits="userSpaceOnUse"><stop offset="0" stop-color="#2bd1f5"/><stop offset="0" stop-color="#2bd1f5"/><stop offset=".61" stop-color="#327dfb"/><stop offset=".62" stop-color="#3579fb"/><stop offset=".79" stop-color="#5e53fb"/><stop offset=".92" stop-color="#773cfb"/><stop offset="1" stop-color="#8134fb"/></linearGradient><clipPath id="clippath-17"><rect width="157.75" height="144.94" x="826.01" y="889.02" class="cls-7"/></clipPath><clipPath id="clippath-18"><rect width="157.75" height="144.94" x="826.01" y="889.02" class="cls-7"/></clipPath><clipPath id="clippath-19"><path d="m972.37,1033.96c-2.12,0-4.21-.67-5.97-1.95l-58.63-42.69-78.55-56.1c-2.34-1.67-3.55-4.49-3.14-7.35s2.34-5.23,5.06-6.18l.12-.04,97.71-30.63,2.31,7.43-22.93,7.19c-30.55,9.58-36.98,50.14-10.9,68.77l14.83,10.59,58.66,42.71c.8.58,1.61.5,2.03.39.41-.1,1.17-.41,1.6-1.31l2.2-4.58,6.98,3.38-2.09,4.35c-1.12,2.34-3.02,4.28-5.42,5.26-1.26.51-2.58.76-3.88.76" class="cls-7"/></clipPath><linearGradient id="Degradado_sin_nombre_15" x1="248.29" x2="249.74" y1="-202.01" y2="-202.01" data-name="Degradado sin nombre 15" gradientTransform="translate(-26229.83 22974.64) scale(108.97)" gradientUnits="userSpaceOnUse"><stop offset="0" stop-color="#2bd1f5"/><stop offset="0" stop-color="#2bd1f5"/><stop offset=".61" stop-color="#327dfb"/><stop offset=".62" stop-color="#3579fb"/><stop offset=".79" stop-color="#5e53fb"/><stop offset=".92" stop-color="#773cfb"/><stop offset="1" stop-color="#8134fb"/></linearGradient><clipPath id="clippath-20"><rect width="172.78" height="148.3" x="822.06" y="889.02" class="cls-7"/></clipPath><clipPath id="clippath-21"><path d="m973.56,1037.32c-2.12,0-5.88-3.72-7.64-5l-58.34-43-78.55-56.1c-2.34-1.67-7.73-4.65-6.89-8.15,1.03-4.28,6.09-4.43,8.8-5.38l.12-.04,97.71-30.63,3.8,12.06-58.13,16.21c-18.08,5.84-17.08,28.05-15.5,29.19l53.14,36.52,58.65,42.71c.8.58,1.61.5,2.03.39.41-.1,1.17-.41,1.6-1.31l2.09-4.36,11-33.33,7.36,2.45-11.16,33.8s-4.41,12.55-6.24,13.19c-1.28.46-2.57.76-3.88.76" class="cls-7"/></clipPath><linearGradient id="Degradado_sin_nombre_16" x1="247.81" x2="249.26" y1="-201.83" y2="-201.83" data-name="Degradado sin nombre 16" gradientTransform="translate(-28754.91 25051.99) scale(119.35)" gradientUnits="userSpaceOnUse"><stop offset="0" stop-color="#2bd1f5"/><stop offset="0" stop-color="#2bd1f5"/><stop offset=".61" stop-color="#327dfb"/><stop offset=".62" stop-color="#3579fb"/><stop offset=".79" stop-color="#5e53fb"/><stop offset=".92" stop-color="#773cfb"/><stop offset="1" stop-color="#8134fb"/></linearGradient><clipPath id="clippath-22"><rect width="16.65" height="16.37" x="1019.14" y="862.16" class="cls-7"/></clipPath><clipPath id="clippath-23"><rect width="171.63" height="148.42" x="823.02" y="888.9" class="cls-7"/></clipPath><clipPath id="clippath-24"><path d="m973.61,1037.32c-2.12,0-6.06-3.85-7.82-5.13l-58.39-42.99-78.55-56.1c-2.35-1.67-6.22-4.69-5.8-8.08.43-3.45,2.77-4.25,7.71-5.45l.12-.04,97.71-30.63.3,5.1-95.25,29.86c-1.24.39-1.51,2.04-.44,2.8l78.71,56.22,58.65,42.71c.8.58,1.61.49,2.03.39.41-.1,1.17-.41,1.6-1.31l2.09-4.36,11.01-33.33,7.36,2.45-11.16,33.8-1.54,4.73c-1.12,2.35-2.06,7.6-4.46,8.58-1.26.51-2.58.76-3.88.76" class="cls-7"/></clipPath><linearGradient id="Degradado_sin_nombre_17" x1="247.85" x2="249.3" y1="-201.81" y2="-201.81" data-name="Degradado sin nombre 17" gradientTransform="translate(-28562.27 24889.79) scale(118.56)" gradientUnits="userSpaceOnUse"><stop offset="0" stop-color="#2bd1f5"/><stop offset="0" stop-color="#2bd1f5"/><stop offset=".61" stop-color="#327dfb"/><stop offset=".62" stop-color="#3579fb"/><stop offset=".79" stop-color="#5e53fb"/><stop offset=".92" stop-color="#773cfb"/><stop offset="1" stop-color="#8134fb"/></linearGradient><clipPath id="clippath-25"><rect width="167.54" height="78.44" x="856.6" y="880.62" class="cls-7"/></clipPath><clipPath id="clippath-26"><rect width="130.72" height="61.08" x="886.65" y="972.72" class="cls-7"/></clipPath><clipPath id="clippath-27"><rect width="221.82" height="105.28" x="830.05" y="913.23" class="cls-7"/></clipPath><clipPath id="clippath-28"><path d="m826.43,931.43l10.56,7.47,33.58-10.25c2.16-2.87,5.07-5.07,8.47-5.71.53-2.8,1.73-5.38,3.41-7.58l-56.03,16.08h.01Z" class="cls-7"/></clipPath><linearGradient id="Degradado_sin_nombre_18" x1="253.61" x2="255.06" y1="-204.36" y2="-204.36" data-name="Degradado sin nombre 18" gradientTransform="translate(-12939.75 12019.53) scale(54.28)" gradientUnits="userSpaceOnUse"><stop offset="0" stop-color="#2bd1f5"/><stop offset="0" stop-color="#2bd1f5"/><stop offset=".61" stop-color="#327dfb"/><stop offset=".62" stop-color="#3579fb"/><stop offset=".79" stop-color="#5e53fb"/><stop offset=".92" stop-color="#773cfb"/><stop offset="1" stop-color="#8134fb"/></linearGradient><clipPath id="clippath-29"><path d="m841.87,942.25l9.19,6.58,15.99-4.71c-.32-1.32-.49-2.68-.49-4.08,0-1.63.28-3.35.8-5.06l-25.49,7.27Z" class="cls-7"/></clipPath><linearGradient id="Degradado_sin_nombre_19" x1="252.71" x2="254.16" y1="-203.76" y2="-203.76" data-name="Degradado sin nombre 19" gradientTransform="translate(-14285.03 13139.12) scale(59.86)" gradientUnits="userSpaceOnUse"><stop offset="0" stop-color="#2bd1f5"/><stop offset="0" stop-color="#2bd1f5"/><stop offset=".61" stop-color="#327dfb"/><stop offset=".62" stop-color="#3579fb"/><stop offset=".79" stop-color="#5e53fb"/><stop offset=".92" stop-color="#773cfb"/><stop offset="1" stop-color="#8134fb"/></linearGradient><clipPath id="clippath-30"><path d="m855.72,952.35l7.33,5.16,11.23-2.83c-2.17-1.52-4-3.52-5.33-5.83l-13.23,3.49h0Z" class="cls-7"/></clipPath><linearGradient id="Degradado_sin_nombre_20" x1="253.04" x2="254.49" y1="-203.82" y2="-203.82" data-name="Degradado sin nombre 20" gradientTransform="translate(-13891.52 12831.61) scale(58.28)" gradientUnits="userSpaceOnUse"><stop offset="0" stop-color="#2bd1f5"/><stop offset="0" stop-color="#2bd1f5"/><stop offset=".61" stop-color="#327dfb"/><stop offset=".62" stop-color="#3579fb"/><stop offset=".79" stop-color="#5e53fb"/><stop offset=".92" stop-color="#773cfb"/><stop offset="1" stop-color="#8134fb"/></linearGradient><clipPath id="clippath-31"><rect width="118.67" height="77.26" x="818.88" y="884.93" class="cls-7"/></clipPath><clipPath id="clippath-32"><rect width="39.62" height="25.4" x="947.49" y="1012.35" class="cls-7"/></clipPath></defs><rect width="1033" height="1033" x="23.5" y="23.5" class="cls-25"/><g class="cls-43"><g><g class="cls-35"><g class="cls-54"><g class="cls-27"><g class="cls-46"><rect width="232.14" height="191.42" x="813.52" y="858.57" class="cls-13"/></g></g></g></g><g class="cls-36"><rect width="231.93" height="160.37" x="825.93" y="876.19" class="cls-4"/></g><g class="cls-53"><rect width="231.93" height="160.37" x="825.93" y="876.19" class="cls-14"/></g><g class="cls-31"><g><path d="m1019.4,985.35c.74-.96,1.31-2,1.73-3.09,1.01-2.7,1.08-5.52.2-8.39-.43-1.39-1.06-2.66-1.89-3.78-.93-1.25-2.1-2.26-3.48-3-1.62-.87-3.52-1.32-5.62-1.35h-.17c-1.81,0-3.79.34-6.03,1.03l-5.58,1.73c-1.67,4.5-3.08,9.06-3.8,13.94-1.11,7.54-2.15,14.65-4.93,21.65.97.36,2.06.42,3.11.09l6.3-1.95c.1-.03.19-.07.28-.1.07-.02.14-.02.2-.05l6.02-1.86c1.45-.45,2.58-1.54,3.1-2.91,1.2.84,2.75,1.1,4.19.65l6.6-2.05c1.58-.49,2.8-1.75,3.24-3.34s.04-3.31-1.05-4.54l-2.39-2.69h-.03Z" class="cls-9"/><path d="m1056.29,907.17c-1.26-1.42-3.23-1.98-5.05-1.42l-11.17,3.46c-1.4.43-2.53,1.48-3.07,2.85l-2.72,6.86-2.14-3.46c-1.16-1.88-3.44-2.73-5.54-2.08h0c0-1.18-.41-2.33-1.21-3.24l-1.38-1.57c-1.04.83-2.13,1.62-3.24,2.39-1.19.83-2.41,1.62-3.62,2.44-.32.22-.65.44-.97.66-.45.46-.98,1.08-1.3,1.44-.1.17-.21.34-.31.51-.11.19-.22.42-.33.66-.1.33-.2.67-.29,1.01-.94,3.89-1.41,7.88-2.22,11.8-2.04,9.89-5.42,19.4-9.13,28.76-.48,1.22-.97,2.43-1.46,3.64l5.88-1.82.89,1.94c1.02,2.21,3.5,3.32,5.82,2.6l9.82-3.04c1.35-.42,2.45-1.41,3.02-2.71.56-1.3.53-2.79-.09-4.06l.28-.63c.05,1.51.81,2.91,2.03,3.79.83.59,1.81.9,2.81.9.48,0,.96-.07,1.43-.22l9.39-2.9c2.09-.65,3.49-2.63,3.41-4.83l-.44-11.96,11.7-26.55c.77-1.74.45-3.78-.81-5.2" class="cls-9"/></g></g><g class="cls-33"><polygon points="798.39 977.24 928.35 916.38 978.16 1023.66 848.2 1084.52 798.39 977.24" class="cls-18"/></g><g class="cls-47"><rect width="231.84" height="189.77" x="814.39" y="853.07" class="cls-16"/></g><g class="cls-42"><g><g class="cls-57"><g class="cls-55"><g class="cls-20"><rect width="232.14" height="191.42" x="814.39" y="851.42" class="cls-2"/></g></g></g><g class="cls-49"><g class="cls-38"><g class="cls-28"><rect width="232.14" height="191.42" x="814.39" y="851.42" class="cls-5"/></g></g></g><g class="cls-51"><g class="cls-22"><g class="cls-30"><g class="cls-21"><rect width="158.08" height="144.94" x="825.68" y="889.02" class="cls-3"/></g></g></g></g><g class="cls-52"><g class="cls-22"><g class="cls-50"><g class="cls-44"><rect width="158.08" height="144.94" x="825.68" y="889.02" class="cls-11"/></g></g></g></g><g class="cls-19"><g class="cls-34"><rect width="173.53" height="148.3" x="821.3" y="889.02" class="cls-12"/></g></g><g class="cls-41"><path d="m1035.58,868.48c1.01,4.45-1.76,8.8-6.29,9.83s-8.94-1.67-9.95-6.13c-1.01-4.45,1.82-8.76,6.39-9.8,4.48-1.02,8.83,1.65,9.84,6.1m-14.21,3.24c.8,3.53,4.08,5.73,7.6,4.93,3.43-.73,5.39-4.18,4.6-7.66-.8-3.53-4.05-5.79-7.56-4.99-3.42.78-5.43,4.24-4.64,7.73m5.79,3l-1.83.42-1.8-7.93c.7-.26,1.68-.64,2.98-.93,1.49-.34,2.22-.26,2.84.01.56.23,1.03.73,1.2,1.51.22.97-.36,1.76-1.21,2.26l.02.1c.83.06,1.35.61,1.84,1.61.51,1.16.8,1.55,1.02,1.81l-1.93.44c-.31-.23-.6-.88-1.06-1.79-.33-.79-.9-1.06-1.91-.83l-.87.2.71,3.14v-.02Zm-.96-4.46l.87-.2c1.01-.23,1.75-.76,1.57-1.58-.17-.73-.8-1.09-1.96-.82-.48.11-.81.24-.99.33l.51,2.28h0Z" class="cls-8"/></g><path d="m1036.36,866.73c1.01,4.45-1.76,8.8-6.29,9.83s-8.94-1.67-9.95-6.13c-1.01-4.45,1.82-8.76,6.39-9.8,4.48-1.02,8.83,1.65,9.84,6.1m-14.21,3.24c.8,3.53,4.08,5.73,7.6,4.93,3.43-.73,5.39-4.18,4.6-7.66-.8-3.53-4.05-5.79-7.56-4.99-3.42.78-5.43,4.24-4.64,7.73m5.79,3l-1.83.42-1.8-7.93c.7-.26,1.68-.64,2.98-.93,1.49-.34,2.22-.26,2.84.01.56.23,1.03.73,1.2,1.51.22.97-.36,1.76-1.21,2.26l.02.1c.83.06,1.35.61,1.84,1.61.51,1.16.8,1.55,1.02,1.81l-1.93.44c-.31-.23-.6-.88-1.06-1.79-.33-.79-.9-1.06-1.91-.83l-.87.2.71,3.14v-.02Zm-.96-4.46l.87-.2c1.01-.23,1.75-.76,1.57-1.58-.17-.73-.8-1.09-1.96-.82-.48.11-.81.24-.99.33l.51,2.28h0Z" class="cls-10"/><g class="cls-56"><g class="cls-39"><rect width="172.02" height="148.42" x="822.63" y="888.9" class="cls-1"/></g></g><g class="cls-29"><g><path d="m877.89,958.13c-2.35.71-4.6,1.02-6.75.92-2.16-.1-4.13-.58-5.94-1.45-1.8-.86-3.38-2.08-4.71-3.67-1.34-1.58-2.35-3.51-3.03-5.77-.76-2.52-1.02-5.14-.77-7.88.24-2.74.99-5.34,2.22-7.81,1.24-2.47,2.98-4.7,5.22-6.69,2.24-1.98,4.99-3.47,8.23-4.46,3.47-1.06,6.6-1.16,9.38-.32,2.78.85,5.08,2.42,6.9,4.72l-6.78,6.82c-1.09-1.18-2.3-1.99-3.62-2.41-1.32-.43-2.82-.39-4.49.12-1.42.43-2.64,1.14-3.68,2.12s-1.85,2.13-2.44,3.44-.95,2.71-1.07,4.21c-.13,1.5.03,2.99.48,4.48.65,2.16,1.8,3.67,3.45,4.53,1.64.86,3.45.99,5.41.39,1.48-.45,2.69-1.14,3.63-2.08.95-.94,1.8-2.12,2.56-3.55l8.01,3.7c-1.08,2.37-2.58,4.49-4.5,6.36-1.93,1.87-4.5,3.3-7.71,4.27" class="cls-8"/><polygon points="901.55 935.87 888.49 917.17 898.56 914.11 905.71 925.78 912.06 910 923.25 906.6 910.97 934.12 911.38 947.21 901.98 950.07 901.55 935.87" class="cls-8"/><path d="m925.23,906l14.03-4.27c2.31-.7,4.32-1.07,6.01-1.11s3.12.18,4.3.65c1.18.47,2.11,1.14,2.81,2s1.21,1.83,1.53,2.89c.65,2.16.54,4.21-.34,6.13s-2.42,3.54-4.62,4.84c1.68.09,3.16.55,4.44,1.37,1.28.83,2.19,2.11,2.71,3.85.44,1.45.54,2.9.31,4.35-.23,1.45-.84,2.82-1.84,4.13-.99,1.31-2.37,2.52-4.14,3.64s-3.95,2.07-6.56,2.87l-17.5,5.32-1.15-36.65h.01Zm15.93,9.9c1.67-.51,2.85-1.2,3.53-2.07.68-.87.87-1.84.55-2.89-.23-.77-.73-1.28-1.49-1.54-.76-.26-1.87-.17-3.31.27l-5.84,1.77.24,6.38,6.32-1.92h0Zm1.15,13.6c1.64-.5,2.82-1.22,3.54-2.15.72-.93.92-1.93.6-2.99-.53-1.76-2.18-2.22-4.94-1.38l-6.46,1.97.18,6.71,7.09-2.16h0Z" class="cls-8"/><polygon points="959.65 895.53 986.7 887.3 986.94 895.95 969.2 901.35 969.35 906.91 985.45 902.01 985.71 910.02 969.61 914.92 969.78 920.73 987.81 915.25 988.1 923.88 960.81 932.18 959.65 895.53" class="cls-8"/><path d="m991.89,885.73l12.73-3.87c2.83-.86,5.28-1.27,7.36-1.24,2.08.04,3.85.45,5.31,1.24,1.17.63,2.14,1.47,2.91,2.53.77,1.05,1.36,2.25,1.77,3.61.86,2.84.79,5.57-.21,8.18-.99,2.61-3.08,4.91-6.27,6.9l8.65,9.84-10.32,3.14-7.58-8.9-4.15,1.26.35,11.1-9.4,2.86-1.16-36.65h.01Zm15.3,13.11c2.12-.65,3.68-1.58,4.68-2.81s1.28-2.57.84-4.03c-.26-.88-.78-1.55-1.56-2.03-1.01-.55-2.51-.51-4.5.09l-5.06,1.54.25,8.86,5.35-1.63h0Z" class="cls-8"/></g></g><g class="cls-32"><g><polygon points="886.65 1027.27 892.76 1025.37 892.98 1031.92 886.9 1033.81 886.65 1027.27" class="cls-8"/><path d="m907.69,1027.84c-1.5.47-2.94.67-4.32.61s-2.65-.36-3.81-.91-2.17-1.32-3.03-2.34c-.86-1.01-1.52-2.24-1.96-3.69-.5-1.61-.67-3.29-.52-5.05.15-1.75.62-3.42,1.4-5.02.78-1.59,1.89-3.02,3.32-4.3s3.19-2.24,5.26-2.89c2.22-.69,4.23-.77,6.01-.23,1.79.53,3.26,1.53,4.44,3l-4.33,4.4c-.7-.75-1.48-1.27-2.33-1.54-.85-.27-1.81-.24-2.88.09-.9.28-1.69.74-2.35,1.37-.66.64-1.18,1.37-1.55,2.21s-.6,1.74-.67,2.7c-.08.96.03,1.92.33,2.87.42,1.38,1.17,2.35,2.22,2.89,1.06.55,2.21.62,3.47.23.95-.29,1.72-.74,2.32-1.35s1.15-1.37,1.63-2.29l5.15,2.34c-.68,1.52-1.64,2.89-2.86,4.09-1.23,1.21-2.87,2.13-4.93,2.77" class="cls-8"/><path d="m929.16,1021.16c-1.54.48-3.02.67-4.44.56-1.42-.1-2.71-.45-3.88-1.04-1.17-.59-2.19-1.4-3.05-2.43s-1.5-2.24-1.93-3.63c-.51-1.65-.68-3.35-.51-5.09s.64-3.37,1.42-4.9,1.85-2.9,3.2-4.1c1.35-1.2,2.97-2.09,4.84-2.67,1.54-.48,3.02-.67,4.44-.56,1.42.1,2.71.45,3.88,1.04,1.17.59,2.19,1.4,3.05,2.43.86,1.04,1.5,2.24,1.93,3.63.51,1.65.68,3.35.52,5.08-.17,1.74-.64,3.37-1.42,4.9-.78,1.53-1.85,2.9-3.2,4.1-1.35,1.2-2.97,2.09-4.84,2.67m-1.13-5.56c.94-.29,1.73-.76,2.37-1.41s1.12-1.39,1.45-2.23.51-1.71.56-2.62-.06-1.76-.3-2.57c-.21-.68-.51-1.29-.89-1.81-.39-.52-.84-.94-1.38-1.25-.53-.31-1.13-.49-1.78-.55-.66-.06-1.36.03-2.12.27-.94.29-1.73.76-2.36,1.41s-1.11,1.39-1.45,2.23c-.33.84-.53,1.71-.57,2.62-.05.91.06,1.77.3,2.57.21.68.51,1.29.89,1.81.39.52.84.94,1.38,1.25.53.31,1.13.49,1.78.55.66.06,1.36-.03,2.12-.27" class="cls-8"/><polygon points="939.9 993.63 945.95 991.76 951.39 999.27 956.16 988.59 962.89 986.51 963.75 1010 957.73 1011.86 957.21 998.38 952.07 1009.27 951.95 1009.31 946.18 1001.87 946.68 1015.29 940.76 1017.12 939.9 993.63" class="cls-8"/><polygon points="965.91 1002.71 972.02 1000.82 972.24 1007.37 966.16 1009.25 965.91 1002.71" class="cls-8"/><path d="m981.05,980.71l5.86-1.82,10.07,20.81-6.3,1.95-1.71-3.71-8.33,2.58-1.4,4.68-6.51,2.02,8.32-26.5h0Zm6,12.7l-2.68-5.99-2.13,7.48,4.81-1.49Z" class="cls-8"/><path d="m996.6,976.06l8.15-2.52c1.81-.56,3.38-.83,4.72-.82,1.33.02,2.47.28,3.41.78.75.4,1.38.94,1.87,1.61.5.67.88,1.44,1.15,2.31.56,1.82.52,3.57-.1,5.24-.63,1.68-1.96,3.16-4,4.45l5.58,6.28-6.6,2.05-4.89-5.68-2.65.82.26,7.11-6.02,1.86-.86-23.49h-.02Zm9.85,8.35c1.36-.42,2.35-1.02,2.99-1.81s.81-1.65.52-2.59c-.17-.56-.51-.99-1.01-1.29-.65-.35-1.61-.32-2.88.07l-3.24,1,.19,5.68,3.43-1.06h0Z" class="cls-8"/></g></g><g class="cls-37"><g><polygon points="830.05 981.87 839.49 978.95 847.98 990.66 855.42 974.01 865.92 970.77 867.25 1007.41 857.86 1010.32 857.05 989.29 849.03 1006.27 848.84 1006.33 839.84 994.72 840.63 1015.65 831.38 1018.51 830.05 981.87" class="cls-8"/><path d="m892.44,1000.3c-2.41.74-4.72,1.04-6.93.87-2.21-.16-4.23-.7-6.06-1.62s-3.41-2.18-4.75-3.8c-1.34-1.61-2.34-3.5-3-5.66-.79-2.58-1.06-5.22-.8-7.93.26-2.71,1-5.26,2.21-7.65,1.22-2.39,2.88-4.52,5-6.39,2.11-1.87,4.63-3.26,7.55-4.16,2.41-.74,4.72-1.04,6.93-.87,2.21.16,4.23.7,6.06,1.62s3.41,2.18,4.75,3.8,2.34,3.5,3,5.66c.79,2.58,1.06,5.22.8,7.93-.26,2.71-1,5.26-2.21,7.65-1.22,2.39-2.88,4.52-5,6.39-2.11,1.87-4.63,3.26-7.55,4.16m-1.76-8.67c1.47-.45,2.7-1.19,3.7-2.2s1.75-2.17,2.26-3.48c.51-1.3.8-2.66.87-4.08.07-1.42-.09-2.75-.47-4.01-.33-1.06-.79-2.01-1.39-2.82-.6-.82-1.32-1.47-2.15-1.96-.83-.48-1.76-.77-2.78-.86s-2.13.05-3.31.41c-1.47.46-2.69,1.19-3.68,2.2-.98,1.01-1.74,2.17-2.26,3.48-.52,1.31-.82,2.67-.89,4.09-.07,1.42.08,2.75.47,4.01.33,1.06.79,2,1.39,2.82.6.82,1.32,1.47,2.15,1.96s1.76.77,2.78.86,2.13-.05,3.31-.41" class="cls-8"/><polygon points="910.89 956.85 919.6 954.15 934.09 970.26 933.37 949.89 942.66 947.02 944 983.66 935.81 986.19 920.74 969.53 921.51 990.62 912.22 993.49 910.89 956.85" class="cls-8"/><path d="m948.5,945.21l10.88-3.37c3.27-1.01,6.09-1.44,8.46-1.3,2.37.15,4.39.67,6.07,1.56,3.19,1.7,5.42,4.62,6.7,8.78.78,2.55,1.05,5.09.82,7.63-.24,2.55-.99,5.02-2.26,7.42-1.4,2.66-3.4,4.97-5.99,6.94-2.6,1.97-5.85,3.56-9.77,4.77l-13.58,4.2-1.33-36.64h0Zm13.47,23.78c1.96-.6,3.68-1.46,5.17-2.55,1.49-1.1,2.62-2.38,3.4-3.86.62-1.18,1-2.46,1.14-3.85.14-1.38,0-2.75-.42-4.11-.32-1.03-.74-1.88-1.26-2.55s-1.14-1.19-1.85-1.57c-.84-.45-1.85-.69-3.02-.73-1.17-.04-2.58.19-4.22.7l-2.7.83.66,18.64,3.08-.96h.02Z" class="cls-8"/><path d="m996.48,930.1l9.15-2.83,15.71,32.46-9.82,3.04-2.67-5.79-13,4.02-2.19,7.29-10.16,3.14,12.99-41.34h-.01Zm9.35,19.82l-4.19-9.35-3.32,11.67,7.51-2.32h0Z" class="cls-8"/><polygon points="1030.31 942.61 1017.15 923.97 1027.22 920.85 1034.42 932.49 1040.7 916.68 1051.87 913.23 1039.72 940.81 1040.2 953.89 1030.81 956.8 1030.31 942.61" class="cls-8"/></g></g><polygon points="887.6 1023.82 893.71 1021.92 893.93 1028.47 887.85 1030.36 887.6 1023.82" class="cls-10"/><path d="m908.64,1024.39c-1.5.47-2.94.67-4.32.61s-2.65-.36-3.81-.91-2.17-1.32-3.03-2.34c-.86-1.01-1.52-2.24-1.96-3.69-.5-1.61-.67-3.29-.52-5.05.15-1.75.62-3.42,1.4-5.02.78-1.59,1.89-3.02,3.32-4.3s3.19-2.24,5.26-2.89c2.22-.69,4.23-.77,6.01-.23,1.79.53,3.26,1.53,4.44,3l-4.33,4.4c-.7-.75-1.48-1.27-2.33-1.54-.85-.27-1.81-.24-2.88.09-.9.28-1.69.74-2.35,1.37-.66.64-1.18,1.37-1.55,2.21s-.6,1.74-.67,2.7c-.08.96.03,1.92.33,2.87.42,1.38,1.17,2.35,2.22,2.89,1.06.55,2.21.62,3.47.23.95-.29,1.72-.74,2.32-1.35.6-.6,1.15-1.37,1.63-2.29l5.15,2.34c-.68,1.52-1.64,2.89-2.86,4.09-1.23,1.21-2.87,2.13-4.93,2.77" class="cls-10"/><path d="m930.11,1017.71c-1.54.48-3.02.67-4.44.56-1.42-.1-2.71-.45-3.88-1.04-1.17-.59-2.19-1.4-3.05-2.43s-1.5-2.24-1.93-3.63c-.51-1.65-.68-3.35-.51-5.09s.64-3.37,1.42-4.9c.78-1.53,1.85-2.9,3.2-4.1,1.35-1.2,2.97-2.09,4.84-2.67,1.54-.48,3.02-.67,4.44-.56,1.42.1,2.71.45,3.88,1.04,1.17.59,2.19,1.4,3.05,2.43.86,1.04,1.5,2.24,1.93,3.63.51,1.65.68,3.35.52,5.08-.17,1.74-.64,3.37-1.42,4.9-.78,1.53-1.85,2.9-3.2,4.1-1.35,1.2-2.97,2.09-4.84,2.67m-1.13-5.56c.94-.29,1.73-.76,2.37-1.41s1.12-1.39,1.45-2.23.51-1.71.56-2.62-.06-1.76-.3-2.57c-.21-.68-.51-1.29-.89-1.81-.39-.52-.84-.94-1.38-1.25-.53-.31-1.13-.49-1.78-.55-.66-.06-1.36.03-2.12.27-.94.29-1.73.76-2.36,1.41s-1.11,1.39-1.45,2.23c-.33.84-.53,1.71-.57,2.62-.05.91.06,1.77.3,2.57.21.68.51,1.29.89,1.81.39.52.84.94,1.38,1.25.53.31,1.13.49,1.78.55.66.06,1.36-.03,2.12-.27" class="cls-10"/><polygon points="940.85 990.18 946.9 988.31 952.34 995.82 957.11 985.14 963.84 983.06 964.7 1006.55 958.68 1008.41 958.16 994.93 953.02 1005.82 952.9 1005.86 947.13 998.42 947.63 1011.83 941.71 1013.67 940.85 990.18" class="cls-10"/><polygon points="966.86 999.26 972.97 997.37 973.19 1003.92 967.11 1005.8 966.86 999.26" class="cls-10"/><path d="m982,977.26l5.86-1.82,10.07,20.81-6.3,1.95-1.71-3.71-8.33,2.58-1.4,4.68-6.51,2.02,8.32-26.5h0Zm6,12.7l-2.68-5.99-2.13,7.48,4.81-1.49Z" class="cls-10"/><path d="m997.55,972.61l8.15-2.52c1.81-.56,3.38-.83,4.72-.82,1.33.02,2.47.28,3.41.78.75.4,1.38.94,1.87,1.61.5.67.88,1.44,1.15,2.31.56,1.82.52,3.57-.1,5.24-.63,1.68-1.96,3.16-4,4.45l5.58,6.28-6.6,2.05-4.89-5.68-2.65.82.26,7.11-6.02,1.86-.86-23.49h-.02Zm9.85,8.35c1.36-.42,2.35-1.02,2.99-1.81s.81-1.65.52-2.59c-.17-.56-.51-.99-1.01-1.29-.65-.35-1.61-.32-2.88.07l-3.24,1,.19,5.68,3.43-1.06h0Z" class="cls-10"/><polygon points="831 978.42 840.44 975.5 848.93 987.21 856.37 970.56 866.87 967.32 868.2 1003.96 858.81 1006.87 858 985.84 849.98 1002.82 849.79 1002.88 840.79 991.27 841.58 1012.2 832.33 1015.06 831 978.42" class="cls-10"/><path d="m893.39,996.85c-2.41.74-4.72,1.04-6.93.87-2.21-.16-4.23-.7-6.06-1.62s-3.41-2.18-4.75-3.8c-1.34-1.61-2.34-3.5-3-5.66-.79-2.58-1.06-5.22-.8-7.93.26-2.71,1-5.26,2.21-7.65,1.22-2.39,2.88-4.52,5-6.39,2.11-1.87,4.63-3.26,7.55-4.16,2.41-.74,4.72-1.04,6.93-.87,2.21.16,4.23.7,6.06,1.62s3.41,2.18,4.75,3.8,2.34,3.5,3,5.66c.79,2.58,1.06,5.22.8,7.93-.26,2.71-1,5.26-2.21,7.65-1.22,2.39-2.88,4.52-5,6.39-2.11,1.87-4.63,3.26-7.55,4.16m-1.76-8.67c1.47-.45,2.7-1.19,3.7-2.2s1.75-2.17,2.26-3.48c.51-1.3.8-2.66.87-4.08.07-1.42-.09-2.75-.47-4.01-.33-1.06-.79-2-1.39-2.82-.6-.82-1.32-1.47-2.15-1.96-.83-.48-1.76-.77-2.78-.86s-2.13.05-3.31.41c-1.47.46-2.69,1.19-3.68,2.2-.98,1.01-1.74,2.17-2.26,3.48-.52,1.31-.82,2.67-.89,4.09-.07,1.42.08,2.75.47,4.01.33,1.06.79,2,1.39,2.82.6.82,1.32,1.47,2.15,1.96.83.48,1.76.77,2.78.86s2.13-.05,3.31-.41" class="cls-10"/><polygon points="911.84 953.4 920.55 950.7 935.04 966.81 934.32 946.44 943.61 943.57 944.95 980.21 936.76 982.74 921.69 966.08 922.46 987.17 913.17 990.04 911.84 953.4" class="cls-10"/><path d="m949.45,941.76l10.88-3.37c3.27-1.01,6.09-1.44,8.46-1.29s4.39.67,6.07,1.56c3.19,1.7,5.42,4.62,6.7,8.78.78,2.55,1.05,5.09.82,7.63-.24,2.55-.99,5.02-2.26,7.42-1.4,2.66-3.4,4.97-5.99,6.94-2.6,1.97-5.85,3.56-9.77,4.77l-13.58,4.2-1.33-36.64Zm13.47,23.78c1.96-.6,3.68-1.46,5.17-2.55,1.49-1.1,2.62-2.38,3.4-3.86.62-1.18,1-2.46,1.14-3.85.14-1.38,0-2.75-.42-4.11-.32-1.03-.74-1.88-1.26-2.55s-1.14-1.19-1.85-1.57c-.84-.45-1.85-.69-3.02-.73-1.17-.04-2.58.19-4.22.69l-2.7.83.66,18.64,3.08-.96.02.02Z" class="cls-10"/><path d="m997.43,926.65l9.15-2.83,15.71,32.46-9.82,3.04-2.67-5.79-13,4.02-2.19,7.29-10.16,3.14,12.99-41.34h-.01Zm9.35,19.82l-4.19-9.35-3.32,11.67,7.51-2.32h0Z" class="cls-10"/><polygon points="1031.26 939.16 1018.1 920.52 1028.16 917.4 1035.37 929.04 1041.65 913.23 1052.81 909.78 1040.67 937.36 1041.15 950.44 1031.76 953.35 1031.26 939.16" class="cls-10"/></g></g><g class="cls-58"><rect width="56.03" height="23.54" x="826.43" y="915.36" class="cls-15"/></g><g class="cls-48"><rect width="25.49" height="13.85" x="841.87" y="934.98" class="cls-6"/></g><g class="cls-40"><rect width="18.56" height="8.65" x="855.72" y="948.86" class="cls-17"/></g><g><path d="m878.84,954.68c-2.35.71-4.6,1.02-6.75.92-2.16-.1-4.13-.58-5.94-1.45-1.8-.86-3.38-2.08-4.71-3.67-1.34-1.58-2.35-3.51-3.03-5.77-.76-2.52-1.02-5.14-.77-7.88.24-2.74.99-5.34,2.22-7.81,1.24-2.47,2.98-4.7,5.22-6.69,2.24-1.98,4.99-3.47,8.23-4.46,3.47-1.06,6.6-1.16,9.38-.32,2.78.85,5.08,2.42,6.9,4.72l-6.78,6.82c-1.09-1.18-2.3-1.99-3.62-2.41-1.32-.43-2.82-.39-4.49.12-1.42.43-2.64,1.14-3.68,2.12s-1.85,2.13-2.44,3.44-.95,2.71-1.07,4.21c-.13,1.5.03,2.99.48,4.48.65,2.16,1.8,3.67,3.45,4.53,1.64.86,3.45.99,5.41.39,1.48-.45,2.69-1.14,3.63-2.08.95-.94,1.8-2.12,2.56-3.55l8.01,3.7c-1.08,2.37-2.58,4.49-4.5,6.36-1.93,1.87-4.5,3.3-7.71,4.27" class="cls-10"/><polygon points="902.5 932.42 889.44 913.72 899.51 910.66 906.66 922.33 913.01 906.55 924.2 903.15 911.92 930.67 912.33 943.76 902.93 946.61 902.5 932.42" class="cls-10"/><path d="m926.18,902.55l14.03-4.27c2.31-.7,4.32-1.07,6.01-1.11s3.12.18,4.3.65c1.18.47,2.11,1.14,2.81,2s1.21,1.83,1.53,2.89c.65,2.16.54,4.21-.34,6.13s-2.42,3.54-4.62,4.84c1.68.09,3.16.55,4.44,1.37,1.28.83,2.19,2.11,2.71,3.85.44,1.45.54,2.9.31,4.35-.23,1.45-.84,2.82-1.84,4.13-.99,1.31-2.37,2.52-4.14,3.64s-3.95,2.07-6.56,2.87l-17.5,5.32-1.15-36.65h.01Zm15.93,9.9c1.67-.51,2.85-1.2,3.53-2.07.68-.87.87-1.84.55-2.89-.23-.77-.73-1.28-1.49-1.54-.76-.26-1.87-.17-3.31.27l-5.84,1.77.24,6.38,6.32-1.92h0Zm1.15,13.6c1.64-.5,2.82-1.22,3.54-2.15.72-.93.92-1.93.6-2.99-.53-1.76-2.18-2.22-4.94-1.38l-6.46,1.97.18,6.71,7.09-2.16h0Z" class="cls-10"/><polygon points="960.6 892.08 987.65 883.85 987.89 892.5 970.15 897.9 970.3 903.46 986.4 898.56 986.66 906.57 970.56 911.46 970.73 917.28 988.76 911.8 989.05 920.43 961.76 928.73 960.6 892.08" class="cls-10"/><path d="m992.84,882.28l12.73-3.87c2.83-.86,5.28-1.27,7.36-1.24,2.08.04,3.85.45,5.31,1.24,1.17.63,2.14,1.47,2.91,2.53.77,1.05,1.36,2.25,1.77,3.61.86,2.84.79,5.57-.21,8.18-.99,2.61-3.08,4.91-6.27,6.9l8.65,9.84-10.32,3.14-7.58-8.9-4.15,1.26.35,11.1-9.4,2.86-1.16-36.65h.01Zm15.3,13.11c2.12-.65,3.68-1.58,4.68-2.81s1.28-2.57.84-4.03c-.26-.88-.78-1.55-1.56-2.03-1.01-.55-2.51-.51-4.5.09l-5.06,1.54.25,8.86,5.35-1.63h0Z" class="cls-10"/><g class="cls-23"><g class="cls-45"><path d="m937.25,885.76l-54.99,18.85-55.01,18.82s-.04.01-.06.02l-.11.03c-1.02.27-1.88.77-2.32,1.28-.22.26-.34.5-.38.71-.05.21-.04.4.02.65.06.24.2.54.43.85s.55.64.94.94l3.28,2.49,13.37,10.1c2.23,1.68,4.45,3.38,6.67,5.08l6.66,5.09c2.22,1.69,4.43,3.41,6.64,5.11,2.21,1.71,4.42,3.41,6.62,5.14.31.24.36.69.12,1-.23.29-.64.36-.94.16-2.36-1.5-4.71-3.01-7.05-4.52-2.35-1.51-4.7-3.02-7.04-4.55l-7.02-4.57c-2.34-1.53-4.68-3.04-7.01-4.58l-13.99-9.22-1.75-1.15-.87-.58-.44-.29-.22-.14-.27-.19c-.73-.53-1.44-1.16-2.06-1.97-.61-.8-1.14-1.76-1.41-2.89-.28-1.11-.25-2.37.09-3.5.35-1.14.99-2.12,1.73-2.87.74-.77,1.58-1.31,2.42-1.73.84-.42,1.7-.7,2.54-.89l-.17.05,55.65-16.79,55.67-16.75c.22-.07.46.06.53.29.07.22-.06.45-.27.52" class="cls-10"/></g></g><g class="cls-23"><g class="cls-24"><path d="m947.8,1018.11c1.12.66,2.23,1.32,3.33,2,1.1.67,2.2,1.36,3.3,2.05,1.1.69,2.19,1.38,3.28,2.08l3.26,2.1,3.24,2.13c1.08.72,2.16,1.41,3.23,2.14l3.21,2.17c1.07.73,2.15,1.44,3.21,2.18l-.08-.05c.06.03.12.06.19.1l.19.08.2.06.2.03.21.02h.21l.21-.03.2-.05.2-.07.19-.09.18-.1.17-.12.15-.14.14-.15.12-.17c.03-.06.07-.12.11-.18l-.05.11,1.16-2.79c.4-.93.78-1.86,1.19-2.78.4-.92.81-1.84,1.23-2.76.41-.92.84-1.83,1.27-2.75.43-.91.87-1.82,1.31-2.73s.91-1.8,1.37-2.71c.46-.9.94-1.79,1.42-2.68.49-.89.98-1.77,1.51-2.64.01-.02.04-.03.06-.01.02.01.02.03.02.05-.25.99-.53,1.96-.82,2.94-.3.97-.59,1.94-.91,2.9-.32.96-.63,1.92-.96,2.88s-.67,1.9-1.01,2.85c-.35.94-.7,1.89-1.06,2.83s-.73,1.88-1.1,2.82-.76,1.87-1.13,2.8l-1.17,2.79-.02.04s-.02.05-.03.07l-.24.4c-.09.13-.18.25-.28.37-.1.12-.21.23-.32.34s-.23.21-.35.31c-.12.1-.25.18-.38.27-.13.08-.27.16-.4.23-.14.07-.28.13-.42.19-.14.05-.29.1-.44.15-.15.03-.3.07-.45.1-.15.02-.31.04-.46.06-.15,0-.31.01-.46,0s-.31-.02-.46-.04c-.15-.03-.31-.05-.46-.08-.15-.04-.3-.08-.45-.13-.14-.06-.29-.11-.43-.17l-.41-.22s-.03-.02-.04-.03l-.03-.02c-1.06-.74-2.1-1.5-3.15-2.25l-3.15-2.26c-1.05-.75-2.09-1.53-3.13-2.29l-3.12-2.3-3.1-2.33c-1.04-.77-2.06-1.56-3.09-2.36-1.03-.79-2.05-1.58-3.06-2.38-1.02-.8-2.03-1.61-3.03-2.43-.09-.07-.1-.2-.03-.3.07-.08.18-.1.27-.05" class="cls-10"/></g></g></g></g></g><path d="m789.82,962.88c-44.42,44.1-44.82,44.1-89.24,0,43.92,44.6,43.92,45.01,0,89.61,44.42-44.1,44.82-44.1,89.24,0-43.92-44.6-43.92-45.01,0-89.61" class="cls-26"/><path d="m1055.99,766.7c-25.22,25.04-25.45,25.04-50.67,0,24.94,25.33,24.94,25.56,0,50.88,25.22-25.04,25.45-25.04,50.67,0-24.94-25.33-24.94-25.56,0-50.88" class="cls-26"/><path d="m871.32,830.77c-17.43,17.23-17.59,17.23-35.01,0,17.23,17.43,17.23,17.59,0,35.01,17.43-17.23,17.59-17.23,35.01,0-17.23-17.43-17.23-17.59,0-35.01" class="cls-26"/></svg>