<svg xmlns="http://www.w3.org/2000/svg" id="Capa_1" data-name="Capa 1" viewBox="0 0 1079 878.85"><defs><style>.cls-1{fill:#fff}.cls-1,.cls-2,.cls-3,.cls-4{stroke-width:0}.cls-2{fill:#fc5226}.cls-3{fill:#2e334d}.cls-4{opacity:.15}</style></defs><path d="m912.7,1.52L246.59,203.18c-.06.07-3.09,1.02-3.22,1.02-20.83,6.58-49.42,15.63-72.79,50.51L7.69,497.23c-7.49,11.15-9.64,25.06-5.87,37.96l56.34,192.73c3.82,13.07,13.32,23.73,25.87,29.02l266.4,112.38c40.92,17.35,72.87,6.92,92.06.7-.43.09,301.12-90.93,503.73-152.58l132.79-263.52L956.61,25.46c-5.38-18.84-25.15-29.62-43.9-23.94ZM183.25,612.17c-8.16,15.08-27.06,20.72-42.18,12.53-15.09-8.19-20.69-27.09-12.54-42.17,8.19-15.12,27.06-20.76,42.18-12.54,15.11,8.19,20.72,27.05,12.53,42.18Z" class="cls-2"/><g><path d="m833.66,229.11c-.15,16.06-13.16,28.69-29.58,28.55-16.42-.15-29.37-13.01-29.22-29.07.16-16.06,13.33-28.48,29.92-28.36,16.2.12,29,12.82,28.89,28.89Zm-51.48-.48c-.13,12.76,9.4,22.93,22.16,23.05,12.39.29,21.89-9.92,22-22.49.11-12.72-9.22-23.11-21.95-23.23-12.44-.11-22.1,10.09-22.21,22.66Zm17.48,14.99l-6.64-.06.26-28.63c2.62-.35,6.31-.8,11.01-.78,5.41.04,7.84.95,9.76,2.35,1.72,1.25,2.95,3.35,2.92,6.13-.05,3.49-2.66,5.75-6,6.75v.36c2.8.91,4.17,3.16,5.01,7.01.84,4.37,1.5,5.97,2.01,7l-7-.05c-.87-1.07-1.35-3.49-2.22-6.99-.48-2.94-2.23-4.36-5.89-4.42l-3.15-.02-.09,11.34Zm.32-16.05l3.14.02c3.66.02,6.66-1.16,6.66-4.11.02-2.63-1.88-4.37-6.08-4.44-1.75-.03-2.96.16-3.68.29l-.03,8.24Z" class="cls-1"/><g><path d="m451.37,367.39v116.62h-59.34v-100.16c0-21.61-12.35-34.99-32.59-34.99-23.33,0-37.73,18.52-37.73,43.91v91.24h-59.34v-235.87l59.34-17.39v98.91c13.03-21.95,34.65-32.93,62.09-33.27,40.82,0,67.57,27.78,67.57,71Z" class="cls-1"/><path d="m653.13,391.4c0,56.94-40.48,94.67-100.85,94.67s-101.19-37.73-101.19-94.67,40.48-94.33,101.19-94.33,100.85,37.39,100.85,94.33Zm-142.35.69c0,28.81,16.81,48.02,41.51,48.02s41.16-19.21,41.16-48.02-16.81-48.02-41.16-48.02-41.51,19.55-41.51,48.02Z" class="cls-1"/><path d="m777.72,474.06c-13.38,7.89-31.56,12.69-49.4,12.69-35.67,0-61.4-20.24-61.4-58.66v-81.64h-25.73v-38.76h25.73v-51.45h59v51.11h48.37v39.1h-48.37v72.37c0,14.41,6.17,20.58,17.15,20.24,6.17,0,14.06-2.4,22.98-6.17l11.66,41.16Z" class="cls-1"/></g><g><path d="m412.45,673.43l-28.13-94.08-28.13,94.08h-45.65l-52.29-148.26h46.71l29.46,102.6,28.66-102.6h43.79l29.46,102.6,28.93-102.6h44.85l-52.29,148.26h-45.38Z" class="cls-1"/><path d="m634.56,612.09h-104.25c4.68,17.6,17.33,27.51,34.93,27.51,12.93,0,25.58-5.23,35.48-15.13l25.03,24.48c-15.13,16.5-37.41,26.13-64.64,26.13-48.41,0-78.67-30.26-78.67-75.37s31.36-76.2,77.3-76.2c52.26,0,78.12,34.39,74.82,88.57Zm-45.66-25.58c0-18.15-11.55-29.98-28.61-29.98s-27.78,12.1-30.81,29.98h59.42Z" class="cls-1"/><path d="m769.53,612.09h-104.25c4.68,17.6,17.33,27.51,34.93,27.51,12.93,0,25.58-5.23,35.48-15.13l25.03,24.48c-15.13,16.5-37.41,26.13-64.64,26.13-48.41,0-78.67-30.26-78.67-75.37s31.36-76.2,77.3-76.2c52.26,0,78.12,34.39,74.82,88.57Zm-45.66-25.58c0-18.15-11.55-29.98-28.61-29.98s-27.78,12.1-30.81,29.98h59.42Z" class="cls-1"/><path d="m812.53,632.99v40.44h-47.59v-177.82c12.77-1,30.68-10.72,34.84-17.86l-3.18-8.42h15.92v107.83l48.96-51.99h53.91l-54.46,56.94,56.11,91.32h-56.39l-32.18-57.22-15.95,16.78Z" class="cls-1"/></g></g><path d="m872.86,552.92c7.25-11.74,36.07-42.18,36.07-42.18l37.29,206.7-70.83-120.86c-11.69-18.32-7.4-35.75-2.52-43.66Z" class="cls-4"/><path d="m1079,453.92c-12.63,3.81-92.29,27.65-151.75,45.6-22.15,6.69-34.84,29.89-28.53,52.15l47.5,165.76,132.79-263.52Z" class="cls-3"/></svg>