<svg xmlns="http://www.w3.org/2000/svg" id="Capa_1" version="1.1" viewBox="0 0 1080 1080"><defs><style>.st0{fill:#6cd3ec}.st1{fill:#323c6b}.st2{fill:#2d2956}.st3{fill:#554a95}.st4{fill:#29387d}.st5{fill:#306aac}.st6{fill:#465d9f}.st7{fill:#414287}.st8{fill:#52b1c8}.st9{fill:#474895}.st10{fill:#2b5775}.st11{fill:#353a6a}.st12{fill:#fff}.st13{fill:#30406d}.st14{fill:#314271}.st15{fill:#3b7c9f}.st16{fill:#3f5692}.st17{fill:#3a6ba0}.st18{fill:#3a5992}.st19{fill:#2e3f6a}.st20{fill:#3061a1}.st21{fill:#495598}.st22{fill:#484484}.st23{fill:#4388c1}.st24{fill:#4596cc}.st25{fill:#3c528d}.st26{fill:#2b4b73}.st27{fill:#4684bf}.st28{fill:#424d8b}.st29{fill:#6367b7}.st30{fill:#ddd}.st31{fill:#333966}.st32{fill:#463d78}.st33{fill:#568ec7}.st34{fill:#413970}.st35{fill:#3c366c}.st36{fill:#4a4080}.st37{fill:#2e2f61}.st38{fill:#373565}.st39{fill:#325886}.st40{fill:#2e2a57}.st41{fill:#294d70}.st42{fill:#2c537a}.st43{fill:#3d609d}.st44{fill:#5bbcd4}.st45{fill:#4963aa}.st46{fill:#59abce}.st47{fill:#356395}.st48{fill:#e9eae9}.st49{fill:#4aa2d3}.st50{fill:#4c478a}.st51{fill:#3a3f81}.st52{fill:#383b6e}</style></defs><path d="M853.91,137.05c4.97-1.4,9.87-2.43,14.7-3.11,1.88,9.63,2.02,17.93-1.83,26.92,1.93,7.56,5.26,24.05-7.51,20.1-1.64-.07-3.15.06-3.45,1.88.49,27.36-.39,55.04-2.63,83.03,2.11,9.34-1.21,11.16-9.86,11.74-3.62.53-1.02,1.32,7.79,2.38,4.5,2.17,2.23,17.18,1.3,22.06l-1.71,1c.06,1.44-1.05,2.37-3.31,2.79-2.43,3.11-4.81,4.59-7.12,4.43-1.74,1.09-2.09-.3-2.39-1.95.57-9.89.16-19.48-1.23-28.75l-122.89,37.26c-.44,4.43-.53,8.88-.26,13.36l-1.6.93c-.55.93-1.6,1.66-3.15,2.2.19,3.31-.36,5.78-1.66,7.42l.8,7.22c2.35,6.48,2.29,13.56,0,20.05l.8,7.22c2.49,5.59,2.58,12.88,0,18.44-.32,6.17-.05,12.05.8,17.64,2.2,1.51,2.17,3.28,0,4.81-.7,3.66-4.03,4.94-9.98,3.86-.23,4-3.08,6.87-6.41,8.74.9,2.02,1.57,4.19-1.26,4.24h-1.91c-4.44-5.8-10.89-9.95-17.64-12.59l-.51-1.85c5.3-5.63,7.86-13.38,9.63-20.85l-.53-2.46c10.25-20.51.76-46.25-22.01-52.44l-1.53-2.04-3.21-.8c-.5,2.15-1.41,1.95-2.41,0-3.95-.78-8.07-.81-12.03,0-.59,2.28-2.58,2.22-3.21,0l-3.21.8c-.76.86-1.62,1.66-2.72,2.04-4.93,1.68-15.23,4.23-20.4,5.09-1.15.19-2.3-.27-3.35-.71-3.82.46-2.97-3.01-1.95-5.73-1.37-3.05.97-4.78,7.01-5.18.67-2.25,1.66-3.69,2.96-4.32.47-5.3.69-10.64.67-16.02,2.17-2.42,5.42-3.21,9.77-2.4.73-.11,6.16-7.75,6.11-8.28-6.27-8.51-.73-10.07,7.36-10.29,1.38-.3,2.85-.63,3.99-1.54.8-.64,4.39-8.37,2.91-9.25-1.21-4.05-.56-6.9,1.95-8.53l13.79-3.15c.58-11,2.87-18.33,15.44-17.84l1.15-2.23c.01-7.75,3.52-11.74,10.52-11.98.93-3.26,2.84-6.25,5.75-8.99-5.42-19.58,9.2-23.68,25.06-28.07-.65-7.28,2.79-10.54,10.33-9.76-2.82-14.23-2.94-18.29,11.57-20.81l5.88-.4c-.35-1.51-.04-2.59.93-3.25,33.67-10.16,72.05-25.19,105.9-32.08Z" class="st21"/><path d="M1027.2,270.17l-1.22,6.59c-11.23,31.45-22.05,62.37-32.48,92.77l-1.59.88c-4.51-1.32-9.73-6.6-10.43-11.23l.88-2.82c9.57-8.13,16.5-19.67,19.18-31.66-.51-2.4,0-4.89,1.51-7.47,13.83-46.69-19.93-79.69-65.93-67.18-24.13,6.49-48.08,13.47-71.83,20.95-.48,4.13-.53,8.34-.14,12.64l-1.6.96c-.19,1.19-1.19,2.08-3.02,2.69,0,2.68-.59,4.46-1.79,5.33l-.82,14.32c-2.04,3.53-4.45,2.23-7.2-3.9l1.67-17.24c.02-.93-.3-3.29-.78-3.94-.44-.6-10.04-1.61-11.66-2.08-2.35-4.77,8.79-3.89,10.79-5.18,2.61-1.67.76-6.78.85-8.77,1.04-22.41,2.14-44.39,3.17-66.61.23-5.02-.93-11.65-.6-15.97.55-6.99,9.74-2.12,11.71-3.8.98-.84,1.07-10.43.89-12.35-.22-2.29-1.65-4.3-1.57-6.34.12-2.9,2.88-6.97,3.19-11.27.36-5.03-1.12-9.79-.89-14.79-2.57-1.13-5.01,1.23-7.92,1.94-2.06.51-4.48.15-5.65.38,57.69-18.65,116.04-35.64,174.08-53.34,26.76-6.89,52.5,16.78,48.73,43.89-15.68,47.71-32.66,95.2-49.52,142.57Z" class="st3"/><path d="M904.45,654.3l-113.91,320.38c-10.61,21.84-37.45,29.57-58.02,16.28l-280.55-197.92c-.7-.23-.69-.5,0-.8l.98-1.62c7.59-1.76,15.05-4.1,22.37-7.02,2.18-1.02,3.75-.81,4.73.62l.59-.89c37.44,25.64,74.77,51.83,111.99,78.56l3.75,1.71c46.55,30.78,92.56,62.31,138.01,94.57,20.01,10.48,45.18.71,53.31-20.26l98.33-278.28c.93-2.01,3.07-4.32,4.78-2.13l.49-1.85c.48-.5,12.5-3.4,13.15-1.36Z" class="st30"/><path d="M1027.2,270.17c11.02,29,3.97,61.8-16.79,84.49,8.17,11.47,28.13,25.9,29.54,40.29.38,3.9-.48,8.69-1.93,12.34-.69,1.75-4.1,6.33-4.13,6.83-.05.77,2.55,5,2.86,7.28.87,6.24-.03,13.41-3.61,18.71l-49.82,75.04,51.73,66.72c7.29,13.47,1.99,28.04-11.08,35.13-19.68,5.43-39.65,13.55-59.37,18.44-21.33,5.29-27.32-4.71-38.49-20.44-.65,7.88.43,18.31-3.07,25.4-3.56,7.22-11.29,11.36-18.6,13.89-3.63,1.26-10.07,1.92-13.64,3.21-.79.27-2.01.37-2.17-.17-.95-3.13,4.3-15.81,6.99-18.28-.08-1.08.46-1.83,1.64-2.25l-.03-11.84,1.6-1.15c-.49-.99-.21-1.85.85-2.58l.74-47.81,1.62-.94c1.39,1.11,1.92,3.02,1.6,5.71l8.37-12.67c1.19-1.33,2.76-1.4,4.05-.15l37.74,54.2,54.86-16.74c.46-.59-6.15-8.09-7.06-8.54l-.07-1.76c2.17-3.1,7.27-5.02,10.87-4.49-19.19-22.66-37.47-46.02-54.83-70.08l-.96-3.22-.77-1.71,50.75-74.2c-2.26,1.02-4.21.93-5.86-.27l-.86-1.64,8.28-13.01-31.57,9.01c-1.84.33-3.69.34-5.54.03-5.17,1.39-2.87-5.47,0-7.22l2.17-1.72c11.49-4.06,22.99-7.91,34.52-11.55-3.23-3.16-5.83-6.49-7.82-9.99,3.34-3.51,9.36-5.55,14.14-5.38-.62-.19-1.22-.41-1.74-.75-3.16-2.05-18.5-20.24-19.77-23.57-.29-.76-.48-1.56-.64-2.37-.16-2.43.83-4.61,1.59-6.83,10.73-31.29,22.62-62.26,33.71-93.41Z" class="st4"/><path d="M748.01,169.12c.3,1.27,1.51,3.48.04,4.45-3.31,2.17-12.96-1.66-17.25,5.21-3.78,6.04,1.95,10.34.25,15.49-.84,2.55-8.33.46-9.4,2.23-.76,1.25.87,6.86-1.7,8.32-1.29.73-3.07.13-4.25.57-6.05,2.24-9.98,5.27-16.04,7.22-1.57.51-4.25,4.23-4.55,5.87-.7,3.81,1.18,11.41.64,13.41-.37,1.39-3.99,4.71-5.03,6.26-.54.79-.35,2.26-.9,3.11-1.54,2.41-6.57,1.02-8.2,2.63-1.33,1.31-.99,10.29-4.19,12.25-1.77,1.08-5.24-.1-7.47.55-.63.19-5.06,4.38-5.42,5.01-2.06,3.58.85,8.78-2.36,12.08l-14.9,3.55c-.8,1.13-.45,6.47.36,7.61,1.12,1.58,5.66-1.17,4.91,2.07-7.38-.85-5.88,3.15-7.98,6.67-2.32,3.89-13.17,3.26-13.69,3.76-1.69,1.62.96,9.53,5.63,7.22v2.4c-7.12-2.37-6.88,6.31-9.63,7.62-2.19,1.05-5.26,0-7.6.42-6.63,1.2-1.81,12.54-4.43,16.82l-1.42-2.98c.24-5.74-.16-11.49-1.19-17.14-3.16-.7-6.49-1.9-9.72-3.16-10.88,1.72-15.11.82-12.31-11.78l-17.35-.24c-3.84-.3-5.2-2.65-5.27-6.26-.38-10.81-.12-21.66.77-32.55-.29-3.24-1.23-6.42-2.4-9.45-5.81.31-11.56,1.08-17.26,2.33l-1.24-1.37c-.7-1.55.17-2.7,2.61-3.44l18.41-6.38c5.53-1,8.53-7.08,2.56-9.57-29.56,7.21-59.03,14.71-88.41,22.48-2.14.4-3.63-.16-2.57-2.29,89.27-27.13,178.63-54.04,267.96-81Z" class="st6"/><path d="M232.96,325.5c1.42,4.11,1.65,11.63-2.04,14.81,38.87-10.71,77.92-22.18,117.14-34.4,13.65-3.88,27.71-7.85,41.85-8.81,3.44,6.9.12,11.73-9.98,14.48l-.95,1.09c-1.57,3.08-4.81,4.41-8.02,3.21-14.54,8.26-30.98,14.95-47.33,18.44l-5.81,3.34c-40.69,14.78-80.19,29.88-118.52,45.29l-2.42-.52c-13.28,6.73-27.52,11.84-41.58,16.87-1,.36-2.09.51-3.18.64s-2.24.15-3.38.13l-.14-2.12c7.83-5.89,16.6-10.36,26.31-13.41,14.1-4.22,27.74-9.54,40.91-15.94l3.52-.2c-.62-.08-1.53-.25-1.6-.72-.25-1.59-.31-14.01,0-15.37l1.6-1.15-1.81,2.04c-21.81,1.98-43.43,8.6-64.51,15.64-31.83,11.91-64.16,22.08-96.98,30.51-28.43,8.99-34.8,27.16-9.73,46.32,22.19,16.28,44.52,32.32,67,48.1l1.73,2.54-.94,1.69-9.27-2.45c-3.07,4.38-7.57,7.3-13.5,8.78,1.78,1.38,2.19,2.72,1.24,4.02l-75.35-52.59c-23.78-20.14-16.7-58.12,12.34-68.53,67.82-20.53,135.64-41.05,203.41-61.72Z" class="st44"/><path d="M283.5,643.87c.11.81.12,1.64-.63,2.01l3.49,13.32-1.26,1.52c-2.15-.6-3.57-.29-4.27.93l40.85,151.78,53.03-15.94,2.46-12.82,1.79-1.25c-.72-6.08.53-12.01,1.91-17.91,2.93-15.98,6.25-32.69,11.73-47.85,4.35,3.95,9.68,7.51,15.07,10.51l1.78,3.12c5.43,17.22,9.2,34.86,11.3,52.9,2.96-2.63,10.41-4.64,14.37-3.18l2.76.17c4.03,3.74,8.46,6.84,13.3,9.3l.78,1.76v.8c-16.76,3.74-33.74,15-48.54.02-3.51,10.03-7.48,16.09-17.62,20.07-19.15,7.52-42.18,11.84-61.93,18.34-11.83.11-22.29-6.73-25.72-18.2l-42.75-158.15c-3.26-3.53-1.41-10.56.36-14.76,1.5-3.57,5.11-10.23,9.27-9.3.15-.57.4-1.23.93-1.36,1.82-.46,16.38,10.23,17.17,12.47.19.55.29,1.13.35,1.72Z" class="st9"/><path d="M123.04,530.8c10.99,4.65,22.43,12.05,30.49,20.85,34.14,21.35,67.29,44.58,98.68,69.77,4.78.28,10.91,5.23,12.84,9.62-7.71,5.59-10.62,14.76-9.63,24.06L18.74,487.9c-4.27-3.93-7.85-8.64-10.01-14.06-6.28-15.82,4.2-4.25,10.08-.46,28.56,18.4,63.58,36.87,93.78,53.01,3.19,1.7,6.84,3.87,10.45,4.39Z" class="st48"/><path d="M394.21,276.58c2.73,5.06-.99,9.1-6.6,9.28-2.04.22-5.15,4.43-5.02,6.17.28,3.84,68.66-18.13,74.08-20.1,4.12-1.21,33.78-9.49,35.89-6.66.85,1.14,1.07,2,.19,3.17l-10.29,4.94c-33.61,15.27-68.19,28.51-103.49,39.29-.37-1.73.9-1.76,1.98-2.39,5.98-3.51,9.91-3.15,8.44-12.04-13.88,1.9-27.44,5.49-40.91,9.22-35.55,9.86-70.16,22.7-106.08,31.1-4,.94-9.97,3.59-13.85,3.81s2.07-3.72,2.34-4.09c2.51-3.45.12-9.01,2.06-12.77,53.72-16.38,107.53-32.55,161.26-48.92Z" class="st46"/><path d="M115.02,496.31c32.7,20.89,64.78,43.04,96.04,66.05,4.48,3.3,8.63,7.05,12.68,10.93-2.12-1.19-3.94-17.13-3.49-17.94.34-.61.78-1.06,1.48-1.3.23-.7.5-.69.8,0,1.62-.94,5.71,3.33,5.1,4.47l1.32-.46,1.75.38,3.45,10.29-1.19,1.36c-1.08,1.55-3.31,2.48-6.69,2.78,1.34,5.9,3.27,11.69,5.8,17.38.31,2.05-.98,3.34-3.07,3.01-25.76-12.82-50.92-26.69-75.46-41.62-10.02-7.09-20.55-13.77-30.49-20.85-8.06-5.75-24.27-16.09-30.49-22.45-.12-.12-1.15-1.53-1.96-2.41-3.59-3.9,5.6-4.67,8.65-6.54,2.19-1.34,4.37-5.19,4.68-5.37,1.31-.77,8.72,3.02,11.1,2.29Z" class="st8"/><path d="M547.44,249.32c-3,3.22-10.15,5.88-14.44,4.81-.7.69-1.42,1.36-2.2,1.95-4.04,3.01-28.55,12.9-33.34,13.31-.98.08-1.97.05-2.96-.02-2.98,1.65-6.02,3.21-9.14,4.69l-2.89-.68c7.53-5.17,17.09-9.12-.03-6.04-28.77,5.17-55.92,17.36-84.16,24.14-5.18,1.24-11.29,1.46-16.52,2.63-2.29-.29.47-5.64,1.23-6.7,3.16-4.47,7.9-3.03,9.45-4.58,1.18-1.18.68-4.68,1.78-6.24,28.63-8.72,57.21-17.76,85.84-26.46.77,1.52,2.71.53,3.88.28,28.98-6.37,57.28-16.09,86.4-22.01,5.08-.72,7.06,6.82,4.05,9.75-4.1,4-21.64,6.7-26.93,11.18Z" class="st33"/><path d="M858.72,292.62c2.28,6.76,2.6,13.84,2.77,20.91.81,47.78,2.39,95.13,4.74,142.06l40.28-11.81c.43-4.41.8-10.43.35-13.23.38-1.46,2.02-2.77,4.9-3.92l-1.65-46.39,1.57-1.01c1.57-.61,1.95-.31,2.33,1.16l.05,8.01c4.35-1.25,8.74-2.24,13.18-2.99,12.03,13.32,23.7,27.01,35.01,41.07l7.4-1.99,1.4,1.26c.48,2.29-3.78,7.71,0,7.22l-.19,1.74-19.04,6.53c-15.79,27.74-31.41,55.54-46.87,83.38-.74,1.58-1.67,1.92-2.9.57l-1.6-.56v-69.04l1.6-.98-.7,1.89-47.2,14.32c-.42,4.15-.5,8.32-.24,12.51l-1.6.95-1.25,3.07c0,38.97-.27,77.95-.55,116.92-.03,4.16-.46,8.27-1.42,12.33l-.92,2.04c-7.34,1.06-14.74,1.6-22.21,1.63l-1.74-1.26c-1.92-2.46-2.26-5.18-.55-7.79-23.62,7.51-47.33,14.85-71.15,22.03-2.73,1.41-3.99.82-5.3-1.19-.8-1.21.48-25.51.76-28.99l1.63-.9,1.62.65.36,10.84,60.19-18.32c.34-3.93.5-7.96.48-12.1l1.53-1.13c1.01-3.98,1.6-33.56.12-34.52l-63.88,19.17c-1.19-.32-1.51-.56-2.25-1.49-1.1-1.37-1.09-12.55,1.84-12.83l.48-1.78c22.23-6.8,44.5-13.43,66.81-19.87.32-5.06.36-9.34.1-12.83-.51-1.35.31-2.29,2.46-2.82l-.47-33.52-117.93,35.91c-.68,29.93-1.07,59.96-1.19,90.09l-1.61.96c-1.05-12.73-1.34-25.44-.87-38.13l-.33,69.91c.19,5.22-.22,10.4-1.21,15.54-1.4,9.78-3.51,10.51-13,9.43-1.53,5.83-4.78,7.22-10.5,6.6l.33,21.54c-.37,2.49-3.55,4.29-4.9,1.72-.22.71-.48.7-.8,0-1.21-1.55.44-2.98,1.82-3.27-.25-10.97-.27-21.92-.07-32.84l-71.35,22.11c-2.02-.13-2.2-.15-3.05-2.05-1.13-2.54-.98-13.73,1.25-16.03l.47-1.81,62.54-18.62c.35-3.98.48-8.01.36-12.11l1.61-1.13c.97-11.34,1.23-22.98.8-34.93-21.6,5.73-43.28,11.96-65.03,18.68-1.3-.09-1.99-.93-2.33-2.16l.74-24.58,1.64-1.12,1.68,1.38c-.28,3.92-.24,7.61.11,11.08l64.53-20.03c.87-.72,1.78-10.75.27-12.48.33-1.98,1.94-3.45,4.81-4.41-.62,0-1.58-.15-1.6-.55-.47-8.49-.6-20.29,0-28.68-.52-2.66.02-4.28,1.6-4.85-4.15,3.41-9.95,4.92-15.24,4.01l-4.21.66c-5.44,3.04-6.04-1.02-3.06-5.03,5.63-1.55,11.3-3.04,17-4.49,1.44-2.11,1.38-3.72-1.52-3.17l-.98-1.6.86-2.36c14.24-8.5,27.26-21.07,30.42-37.74l-.53-2.31c5.95-12.15,6.46-27.15.76-39.48l.57-2.31c1.51-1.6-1.35-5.06-.8-5.6.09-.09,1.57.13,2.32-.46.34-.27,3.5-3.4,3.64-3.62.73-1.16.83-4.3,1.37-4.65,1.67-1.09,8.81,1.56,11.13-2.51l1.14,2.31c1.96,27.53,3.19,55.18,3.68,82.94l124.87-37.49c1.13-4.16.38-8.43-.53-12.47-.14-1.71,1.61-2.86,5.25-3.44-.08-12.51-.48-25.07-1.22-37.7l-82.01,25.06c-.77.12-1.48-.05-2.12-.49-1.47-1-2.13-13.2.67-13.9l.48-1.82,68.24-20.21c.83-.77.51-10.41-.53-12.46.51-1.93,2.38-3.35,5.61-4.26l-1.51-33.7-73.21,21.89c-3.94-1.71-3.56-14.78-3.06-19.17l1.56-1.65c2.24-.3,3.03,1.74,2.37,6.12l73.89-22.37c.5-3.99.74-8.11.72-12.36l1.64-1.06c-.36-1.49.72-2.44,3.24-2.85-.52-2.89,0-5.15,1.58-6.77l5.99-5.64c.75-.47,3.71-1.54,4.44-1.58,4.97-.23,1.73,4.57,5.61,4.81.12-5.22,1.01-10.26,2.41-15.23Z" class="st22"/><path d="M639.7,339.94c3.96-.81,8.08-.78,12.03,0,.8.04,1.62-.07,2.41,0l3.21.8c25.87,5.84,36.49,34.24,24.07,56.94-2.24,7.62-7.44,13.76-15.59,18.42,3.54-.24,5.53.57,5.96,2.43,6.56,1.95,16.56,8.49,20.06,14.43,7.11,12.09,6.44,32.21-.8,44.11-1.14,7.73-9.85,14.41-16.15,18.91-11.06,7.9-23.77,12.83-36.47,17.3-26.88,9.47-54.51,18.26-82.13,24.71l-2.68-.94c-1.93-49.84-3.48-99.81-4.67-149.9l.91-7.12c-2.01-4.97-2.33-10.31-.96-16.02,16.82-5.75,33.74-11.24,50.74-16.43,1.11-.34,2.3-.41,3.51-.48s2.44-.02,3.66.06c8.71-2.47,17.47-5.21,26.47-6.42l3.21-.8c1.06-.09,2.15.06,3.21,0Z" class="st12"/><path d="M840.27,310.26c.13,2.62,0,5.32-.08,7.94l-4.74,1.68c-.12.97-.44,1.62-.99,1.97l-75.77,22.46c.04,2.69-.58,4.43-1.87,5.24.24,5.98-.66,12.19.82,18.05.26,1.02-.63,1.4,1.16,1.19l74.23-22.44,1.67,37.21c-2.48.55-4.99,2.16-7.28,2.88l-2.72,1.97c-19.12,6.32-38.68,12.06-58.12,17.58-2.12.6-4.36.56-6.55.5-1.35,3.72-1.62,8-.8,12.83,1.49.37,1.38,1.02,0,1.6.02,3.54-.46,8.35,0,11.65.15,1.12-.45,1.38,1.18,1.17l83.86-25.65,1.62,40.89-7.23,2.41-.08,1.7-120.47,35.65c-4.13-.25-3.82-5.55-1.4-8.47l-.8-16.04c-1.58-2.65-1.57-5.37,0-8.02l-.8-16.84c-1.58-3.18-1.57-6.44,0-9.62l-.8-16.04c-1.58-2.65-1.57-5.37,0-8.02l-.8-17.64c-1.58-2.38-1.57-4.84,0-7.22l-.8-17.64c-1.58-2.38-1.57-4.84,0-7.22l-.8-18.44c-2.02-2.23-2.02-4.21,0-6.42.04-2.74-.64-14.6.78-15.66l125.59-38.06c2.29,9.81.79,20.12,1.13,30.16.05,1.43.85,2.55.86,2.71Z" class="st12"/><path d="M547.44,249.32c3.08-.73,18.21-3.42,19.95-2.3.87,3.4,2.38,7.19,2.55,10.7.2,4.18-.74,9.54-.8,14.42-.05,3.98-.77,19.36.82,21.62,2.29,3.25,19.98-.24,21.49,2.18,1.63,2.61-3.08,10.29,1.66,11.58,3.18.86,6.44-1.03,10.05-.43,3.37.56,5.11,3.96,10.06,1.56,1.67,7.53,2.24,15.51,1.61,23.26s-3.19,5.78-9.63,7.23c3.5,3.08-1.88,4.88,1.6,8.01-19.05,5.4-37.83,12.22-56.85,17.76-.15,5.02-.22,10.1-.11,15.12-.76,2.15-1.73,2.15-2.41,0-3-2.24-4.22,3.47-2.41,5.61,2.02.92,2.02,1.49,0,2.41-1.4,3.68-11.32,4.08-9.6-2.2-1.42-.06-2.23-.66-2.44-1.81.58-4.98,1.97-9.58,4.17-13.79l-48.35,15.3-28.59,71.16c-.84,2.12-2.94,2.65-4.58.93-7.72-12.11-15.05-24.6-22.11-37.16-.34-.6-.49-1.32-.63-2.05s-.18-1.54-.19-2.32c-2.88-4.13-3.67-8.41-2.35-12.85-2.68-11.18-.18-15.52,10.6-19.8l2.16-10.84c-.81-5.39,1.32-7.66,5.3-10.78-.21-5.14,3.13-12.03,8.18-13.82-.84-6.28,1.25-9.52,6.28-9.72-.15-5.66,1.91-7.43,7.12-8.92l16.13-5.65c19.13-4.66,37.65-10.77,55.57-18.34-.42-5.14-.74-10.29-.94-15.47l-9.09-34.48,1.31-1.32c4.77-1.72,9.48-3.64,14.44-4.81Z" class="st43"/><path d="M711.91,331.12c-.03,2.13,0,4.28,0,6.42l.8,18.44c0,2.4,0,4.82,0,7.22l.8,17.64c0,2.4,0,4.82,0,7.22l.8,17.64c0,2.67,0,5.35,0,8.02l.8,16.04c0,3.2,0,6.42,0,9.62l.8,16.84c0,2.67,0,5.35,0,8.02l.8,16.04c.04,2.4-.04,4.82,0,7.21l121.94-36.08c3.95-.45,2.53,13.3,1.93,13.72l-127.88,38.4c-1.39-18.83-1-37.7-1.58-56.57-.31-10.16-1.38-20.67-1.64-30.84-.04-1.6.05-3.21,0-4.81-.77-5.68-1.04-11.56-.8-17.64.15-6.12.04-12.32,0-18.44l-.8-7.22c-.05-6.67.04-13.38,0-20.05l-.8-7.22c-.05-5.13-1.93-10.38,4.81-9.62Z" class="st31"/><path d="M671.79,418.53c-2.19-.65-5.58-.54-8.05-1.19-.74-.2-1.81-.2-1.57-1.2,7.42-3.51,15.33-11.3,19.25-18.45,1.53.78.52,2.7.28,3.87-1.09,5.17-3.93,16.04-9.9,16.98Z" class="st22"/><path d="M709.5,411.31c-1.84-.56-1.55-2.07-1.65-3.57-.34-4.99.73-9.45.85-14.08,1.6,5.43.64,11.92.8,17.64Z" class="st22"/><path d="M651.74,339.94c-3.71-.2-8.33-.22-12.03,0,2.97-1.34,8.9-1.36,12.03,0Z" class="st6"/><path d="M708.7,375.22c-1.45-1.58-.79-4.96-.8-7.22,1.45,1.58.79,4.96.8,7.22Z" class="st22"/><path d="M707.9,347.96c-1.46-1.59-.78-4.95-.8-7.22,1.45,1.58.79,4.96.8,7.22Z" class="st22"/><path d="M657.35,340.74l-3.21-.8c1.78.17,2.23.58,3.21.8Z" class="st6"/><path d="M636.5,339.94c-.32.03-1.93.63-3.21.8l3.21-.8Z" class="st6"/><path d="M1001.53,324.7c-1.79,7.07-6.03,13.1-12.71,18.08l-11.58,9.38c3.1,2.48,4.51,4.82,4.23,7.02,3.33,3.87,7.12,7.45,10.43,11.23,7.79,8.89,15.07,18.3,23.26,26.87-5,1.77-10.16,3.66-15.24,5.21-9.56,4.94-22.58,9.19-33.37,10.94-10.43-9.92-20.01-20.67-28.73-32.25-3.48-3.25-6.31-6.57-8.5-9.96l-2.41.8c-.56,2.44-3.87,3.48-5.62,1.6l-2.41.8c0,1.58-1.52,2.55-4.56,2.91l-2.66,1.9,1.63,47.71c-.41,2.13-4.22,2.85-6.44,3.61-.53.61-1.08,1.2-1.7,1.7-2.89,2.31-31.46,10.28-36.21,10.55-.51.03-1.35-.92-1.84-1.49-1.16-1.36-1.44-29.16-1.12-33.26l1.56-2.35-.8-16.04c-1.58-2.65-1.57-5.37,0-8.02l-.8-16.84c-1.58-2.91-1.57-5.91,0-8.82l-.8-16.84c-1.58-2.38-1.57-4.84,0-7.22l-.8-17.64c-1.58-2.65-1.57-5.37,0-8.02l-.8-17.64c-1.57-1.29-1.58-2.72,0-4.01.05-3.75-.62-9.98,0-13.24.18-.94.34-1.56,1.35-1.86,37.89-8.26,107.51-46.95,134.58-1.67,10.12,16.93,11.28,39.32,2.07,56.87Z" class="st12"/><path d="M1029.61,180.35c-12.91,21.5-46.26,18.83-61.56.6-4.01-4.77-9.89-13.99-7.44-19.85-.66-3.82-.66-7.57,0-11.23-1.05-.03-.85-1.11,0-1.6,2.6-16.49,20.27-30.18,36.47-31.3,34.5-2.38,54.8,37.57,32.52,63.38Z" class="st12"/><path d="M863.54,284.6c-.02,1.34,0,2.67,0,4.01l.8,17.64c0,2.67,0,5.35,0,8.02l.8,17.64c0,2.4,0,4.82,0,7.22l.8,16.84c0,2.93,0,5.89,0,8.82l.8,16.84c0,2.67,0,5.35,0,8.02l.8,16.04c.22,10.25-.18,23.5.76,33.32.09.89-.01,1.8.83,2.41,12.29-3.76,25.62-6.72,37.72-10.87,2.43-.45,1.54,1.23,1.6,2.77.15,3.84-.02,7.75-.08,11.58l-44.04,12.91c.67-4.21-.66-8.43-.84-12.39-2.28-50.85-1.41-102.18-4.78-152.8-.32-4.87-.85-7.48,4.81-8.02Z" class="st38"/><path d="M960.61,148.27c-.08.5.05,1.08,0,1.6-.66,3.66-.66,7.4,0,11.23,5.69,33.14,47.55,44.09,68.99,19.25,1.58.54-.19,3.01-.65,3.77-22.29,36.53-85.8,13.25-69.73-34.43.18-.53.61-3.43,1.38-1.42Z" class="st34"/><path d="M981.47,359.18c-1.11-1.29-6.56-6.7-6.38-7.53,10.3-7.8,20.27-15.19,26.44-26.95,1.61,1.46.12,4.72-.4,6.42-3.46,11.32-10.52,20.71-19.66,28.06Z" class="st4"/><path d="M849.1,616.6c1.5,12.01,2,24.21.89,36.26,2.1-2.16,4.84-3.51,8.24-4.04,9.74-3.63,22.9-7.23,33.11-9.9,1.41-.37,2.88-.14,4.29.13-1.16,5.04-3.4,9.78-4.98,14.67-.38,1.17-1.45,2.92.17,3.77-1.19.43-2.98,1.44-3.29,2.73l-97.98,277.36c-8.33,23.14-36.2,33.65-57.59,21.06-45.24-31.61-90.46-63.27-135.57-95.04-23.59-14.9-46.87-30.94-68.19-48.92l-1.82-1.93c-20.3-13.04,3.55-19.26,15.46-10.1l3.93,1.6c17.3,11.3,34.08,23.29,50.35,35.98l2.67,3.32c3.4.04,5.44,1.55,6.42,4.81,2.45-.82,11.45,5.49,12.52,7.23l.31,2.4c2.04-1.33,3.06.14,2.41,2.41l18.67,15.54c28.25,26.14,57.45,53.05,89.18,74.17,29.77,19.82,47.49-1.79,56.53-30.45,10.53-27.53,17.23-56.31,20.94-85.72-1.53-.25-1.43-.88,0-1.6.59-1.46.39-2.55-.6-3.27l35.07-105.62c.07-1.77-28.91-9.89-32.77-10.7-15.32,45.38-30.13,91.05-44.45,137.01-2.54,7.63-13.1,36.42-19.61,41.93-2.34,1.98-8.78,4.62-11.51,2.85-25.76-16.63-51.46-34.95-74.57-54.99-11.65-5.34-22.51-13.11-31.29-22.45-2.16,1.3-4.69-.86-4.01-3.21-25.84-15.87-50.51-33.52-73.81-52.93-12.67-6.46-23.59-14.64-32.75-24.53-9.6-6.02-13.92-12.35,1.31-11.65.42-3.62,1.56-11.66,5.77-11.13l1.66.88c-.89,6.01,8.14,5.36,8.81.74-1.06-6.84.98-11.37,6.13-13.61l1.18-9.77c.28-1.22,1.07-1.17,2.27-.69l1.07,3.74c-.13,16.77.19,33.51.95,50.23l121.07-37.11c.67-3.86.79-7.81.36-11.84l1.71-1.02c.84-.22,3.02-.41,3.24-1.34.58-3.08-.87-22.69-.04-23.53.29-.29,5.28.45,7.21-.41,2.58-1.15,2.73-5.79,3.75-6.04,2.6-.63,7.38.92,9.92-.35s1.15-6.39,4-7.63c1.24,14.03,1.78,28.11,1.63,42.25l122.03-37.16-.26-12.21,1.75-.9c2.48-.28,3.55-2.68,3.21-7.22-2.29-6.64-2.37-15.04,0-21.65,8.19-2.05,16.92.82,24.87-2.41Z" class="st1"/><path d="M480.05,784.21c-7.82.91-20.8,8.19-28.08,8.02-4.06-.09-13.29-8.47-16.85-11.23.84-1.01,1.75-2.1,2.99-2.62,4.5-1.89,21.22-8.06,24.64-7.56.7.1,1.38.32,2.06.56,5.75,3.66,11.15,7.69,16.18,12.11l-.93.72Z" class="st51"/><path d="M466.41,771.38c7.86,3.77,15.29,8.5,22.29,14.19,13.87,8.81,27.03,18.51,39.48,29.12,22.87,16.05,45.35,32.83,68.19,48.92-2.97.42-5.17-1.85-7.47-3.35-34.34-22.37-68.53-48.87-102.18-72.68-1.97-1.39-6.04-2.89-6.67-3.35-.1-.07-.09-1.41-.84-1.94-4.83-3.44-10.35-6.51-14.41-10.89.26-2.13.99-2.04,1.6,0Z" class="st18"/><path d="M971.04,432.96c13.5-4.3,27.44-7.6,40.91-12.03l-11.23,17.64,1.03,1.35-46.61,70.09c1.25,1.87,1.74,3.45,1.46,4.75,17.6,25.21,38.96,48.39,56.95,73.39-3.91,1.57-8.01,3.13-12.03,4.4-12.63,6.45-27.81,10.39-41.79,13.8-1.35.33-2.72.58-4.09.81-13.36-17.74-26.47-35.65-39.34-53.71-4.53,5.98-8.67,12.2-12.45,18.67l-1.81.38-.77,49.98-2.44,1.34-.68,1.88-45.27,13.8c-4.04-.61-4.34-4.04-2.52-9.35l.76-137.78,1.17-8.1c.04-2.67-.64-13.8.78-14.86l48.96-14.82v70.57c1.21-.18,1.5-1.51,2.02-2.39,16.12-27.11,30.09-55.64,46.55-82.58,1.3-1.35,17.14-6.21,20.42-7.25Z" class="st12"/><path d="M1001.53,592.55c1.94.01,10.08,10.62,9.63,11.22l-58.05,17.72-38.22-55.01c-.8-.82-.96-.73-1.66.11-3.68,4.44-6.54,11.28-10.79,15.54-.43-2.94-.8-6.69-.4-9.62.37-2.68,10.99-17.24,13.43-20.64.4-.55-.16-1.37,1.4-1l38.94,54.96c15.18-4.4,30.64-8.49,45.71-13.27Z" class="st2"/><path d="M999.92,402.49c1.82-.07,2.14,1.12,3.06,2.15s7.84,8.45,7.37,9.07c-13.19,3.63-26.12,8.44-39.31,12.04-2.07.57-8.23,2.92-9.61,2.04l-34.52-40.99-14.43,3.66c-.11-3.08.13-6.2.03-9.28-.04-1.06-.82-1.76-.84-1.94-.43-3.92,4.25-3.83,7.22-4.81l2.41-.8c1.84-.55,3.74-1.24,5.62-1.6l2.41-.8c1.77-.11,3.95,2.67,5.23,4,11.04,11.51,20.28,25.88,32.24,36.78,10.97-3.34,22.17-6.16,33.13-9.5Z" class="st37"/><path d="M852.3,484.29c-.72,51.34.16,102.66-.8,153.97l47.33-14.43.04,13.9c-.24.99-2.4,1.01-3.24,1.33-14.88,5.72-31.44,9.08-46.53,14.43-.03-12.28.02-24.6,0-36.89-.08-43.2,1.45-86.29.76-129.55l2.45-2.77Z" class="st40"/><path d="M1000.72,438.57c2.37-.38,4.82-1.71,7.14-2.1,1.18-.19,1.95-1.01,1.68.88l-52.94,77.4c-1.03-1.47-4.14-3.05-2.83-5.56l46.95-70.62Z" class="st2"/><path d="M115.02,496.31c-22.58-16.1-48.28-32.36-69.73-49.39-26.87-21.34-18.93-39.84,11.35-49.46,47.57-10.15,96.29-33.73,143.38-43.53,6.32-1.32,12.99-1.2,19.29-2.77v17.24c-16.25,9.95-35.32,13.67-52.69,21.11-5.78,2.47-13.74,6.1-17.91,10.57-18.05,9.37-37.26,16.6-56.96,21.65-4.02,2.48-8.1,4.74-12.46,6.5l15.78,13.7,2.29,3.86c2.26,1.38,4.49,2.78,6.66,4.28s4.33,3,6.32,4.69c33.92,28.79,67.84,57.67,100.82,87.54,1.94,1.76,3.7,3.7,5.47,5.67s3.44,4.01,5.09,6.08l2.01,19.24c-36.24-25.64-72.57-51.2-108.71-76.98Z" class="st0"/><path d="M196.85,382.44c2.7,2.07-1.17,3.13-3.23,3.47-.91,6.59-1.21,13.33-.9,20.22l-.75,1.42c-10.44,4.55-20.82,9.2-31.13,13.94l-1.7-.16c.63.07,1.58.29,1.6.73.5,10.91.3,23.32,0,34.32.61,3.66.07,6.14-1.6,7.46,7.88-.72,15.8-2.08,23.76-4.07,5.17-1.15,7.36-.12,6.59,3.1-5.76,6.27-10.97,12.92-15.64,19.95.48,1.9,22.99-5.34,25.27-6.13l1.73,1.18c.63-.6,1.27-1.17,1.98-1.66,4.36-2.99,29.93-9.81,36.31-10.63.97-.13,1.96-.16,2.94-.13,2.61.08,1,11.79.49,14.02l.13,2.81c-5.68,9.46-10.02,19.78-12.53,30.54l-2.04,1.94c-4.64.88-9.61,2.35-14.91,4.41,4.35,2.81,8.4,5.91,12.17,9.31l-1.68,17.52c.5,3.45.1,6.13-1.2,8.05h-.8c-40.56-37.09-82.57-72.57-124.35-108.26-2.26-4.36-4.84-8.46-7.73-12.31-4.48-2.38-6.03-5.02-4.65-7.94l6.76-3.82c18.93-7.36,37.96-14.5,56.96-21.65,15.98-6.02,31.86-12.42,48.14-17.64Z" class="st49"/><path d="M305.16,375.22c-.58,2.57-2.8,3.27-4.81,1.6-9.47,3.78-19.37,7.27-29.24,10.08,1.28.21,1.93.83,2.6,1.89,1.38,2.19.02,37.91-.65,43.38-2.24,2.65-5.14,4.58-8.68,5.8l-56.45,16.42c-.32,1.02-1.24.68-2.24.21-2.5,1.29-8.77,2.55-9.63-.8l-1.6-.74v-41.21l1.6-.96c-.36-2.02.99-3.61,4.05-4.75,16.32-5.67,32.78-11.11,49.38-16.33,5-1.31,7.3-5.14,6.88-11.51l3.11-5.5c-1.93-6.72-.4-11.66,4.6-14.82,18.65-7.02,37.21-14.07,55.7-21.16l3.84-2.52c15.68-5.95,31.53-12.45,47.33-18.44,3.72,2.13-.16,8.04-3.35,9.7-16,5.69-31.62,11.99-46.85,18.89,1.54,8.48.84,15.54-.75,23.94l-2.16,2.07c-4.35,1.33-8.57,2.91-12.68,4.74Z" class="st23"/><path d="M494.49,269.37l.58,2.08c-3.98,1.51-6.42,3.68-7.33,6.52.57,4.91-.79,8.67-4.07,11.29l-48.1,19.09c-1.91,1.49-1.92,18.61-1.31,21.61-.38,4.52-1.8,5.32-5.96,6.5-1.52,5.27-10.65,8.86-15.72,10.38-26.72,8.04-53.28,15.85-80.31,22.89-.84.22-1.74.22-2.66.2s-1.86-.15-2.79-.31c-3.53,3.52-9.54,5.07-14.44,4.01-.08,2.61-5.8,3.54-7.22,1.6,1.72-3.37,12.58-4.81,13.52-7.74.45-1.4-.12-3.18.19-4.62.5-2.3,1.43-3.92,1.58-6.46.21-3.58-2.45-10.85-.91-12.91.78-1.04,10.81-5.45,12.92-6.35,9-3.83,19.37-6.41,28.29-10.22,5.95-2.54,10.45-3.59,10.21-11.05,2.68-1.02,5.34-2.19,8.02-3.21,34.51-13.05,68.98-26.28,103.49-39.29,3.91-1.48,8.13-2.54,12.03-4.01Z" class="st27"/><path d="M323.61,334.32c-2.34,3.95-7.36,5.58-11.49,7.36-10.79,4.66-41.74,12.85-48.65,18.73-5.88,5.01-1.72,7.99-2.44,12.73-.28,1.82-2.44,3.54-3.16,5.72-.93,2.8-.34,5.93-.98,7.85-1.99,5.97-42.69,15.23-50.62,18.37-3.44,1.36-7.55,3.32-10.22,5.82v42.9c3.42,1.39,6.6-.91,9.63.8.6.2,1.47.58,1.42,1.03-.2,2.16-3.73,19.99-4.32,20.87l-1.92,1.35c-6.8,1.86-17.77,5.99-24.21,6.68-1.63.18-3.06-.25-4.68-.27-2.21-2.2,15.12-20.34,16.85-23.24-7.98-.44-16.78,3.53-24.49,4-1.09.07-5.19.25-5.19-1.2v-42.5c0-3.29,28.08-11.85,31.92-15,1.04-4.15-1.3-19.1,1.36-21.5,1.07-.97,2.68-.62,3.6-1.23.58-.39.73-1.11.83-1.16,8.94-5.02,23.4-9.52,33.49-13.43,30.9-11.97,62.36-22.95,93.26-34.68Z" class="st24"/><path d="M472.83,590.14c-2.81-1.09-1.83-4.94.69-6.15l49.18-14.63c1.13-.2,1.92.15,2.65,1.03,1.1,1.31-1.61,15.09-4.39,15.75-14.08,55.95-28.49,111.99-43.26,168.12l-54.02,16.78c-1.36.43-2.44-.36-3.07-1.52l-17.76-101.28c.31,3.16-.44,5.2-2.23,6.12-.39,14.62-2.4,29.8-8.02,43.3-4.32,21.95-9.54,43.71-13.64,65.76l-1.26,2.05-53.48,16.03c-1.32.43-2.4-.27-3.08-1.38l-37.34-138.02,1.29-1.37-4.07-15.54c.08-.53,1.92-1.14,2.47-1.3l.8-1.71c14.76-4.26,29.67-8.7,44.74-13.32l6.7-.7c4.73,20.24,8.88,40.69,10.33,61.45,2.19.28,1.98.74,0,1.6l.8,2.41c2.17.74,2.17,1.67,0,2.41l.8,2.41,1.82,3.05c1.57,11.54,3.4,23.04,5.47,34.5l4.99-32.15c.45-1.19,1.18-2.18,2.16-2.99-.08-1.85-.12-3.69-.04-5.53s.17-3.66.51-5.43c4.8-24.98,9.7-50.03,14.94-74.93.37-1.74,23.67-9.22,26.88-9.7l5.05.16.43-1.81c7.19-2.48,14.49-4.55,21.89-6.21l.95,1.6c.52.61.79,1.41.8,2.41,2.21.7,2.17,1.73,0,2.41l.8,2.41c2.19.28,1.98.74,0,1.6l.8,2.41c2.19.29,1.97.74,0,1.6l.8,3.21c2.19.29,1.97.74,0,1.6l.8,2.41c2.19.29,1.97.74,0,1.6l.8,3.21c2.19.29,1.97.74,0,1.6l.8,2.41c2.19.29,1.97.74,0,1.6l.8,3.21c2.19.29,1.97.74,0,1.6l.8,2.41c2.19.29,1.97.74,0,1.6l.8,2.41c2.2.72,2.16,1.72,0,2.41l.8,2.41c2.19.29,1.97.74,0,1.6l.8,2.41c2.29.34,2.14,1.66,0,2.41l.8,2.41c2.19.29,1.97.74,0,1.6l.8,2.41c2.19.29,1.97.74,0,1.6l.8,3.21c2.19.29,1.97.74,0,1.6l.8,3.21c2.19.29,1.97.73,0,1.6l.8,3.21c2.14.33,2.03.96,0,1.6l.8,3.21c2.28.34,2.14,1.66,0,2.41l.8,3.21c2.14.33,2.03.96,0,1.6l.8,3.21c2.28.35,2.14,1.65,0,2.41l.8,3.21c2.05.91,2.05,1.53,0,2.41l.8,3.21c2.05.91,2.05,1.52,0,2.41-.02,1.41.25,2.75.8,4.01.7.27.7.53,0,.8,1.26.76,2.06-.31,2.41-3.21-1.53-.45-1.54-1.15,0-1.6l.8-3.21c-2.05-.88-2.05-1.5,0-2.41l.8-3.21c-2.13-.29-2.01-.91,0-1.6l.8-3.21c-2.13-.28-2-.91,0-1.6l.8-3.21c-2.24-.37-2.12-1.65,0-2.41l.8-2.41c-2.24-.37-2.12-1.65,0-2.41l.8-2.41c-2.24-.37-2.12-1.65,0-2.41l.8-2.41c-2.24-.37-2.12-1.65,0-2.41l.8-2.41c-2.24-.37-2.12-1.65,0-2.41l.8-3.21c-2.15-.27-1.92-.69,0-1.6l.8-3.21c-2.15-.27-1.92-.69,0-1.6l.8-3.21c-2.15-.26-1.92-.69,0-1.6l.8-2.41c-2.24-.37-2.12-1.65,0-2.41l.8-2.41c-2.15-.26-1.92-.69,0-1.6l.8-3.21c-2.15-.26-1.92-.69,0-1.6l.8-2.41c-2.24-.37-2.12-1.65,0-2.41l.8-2.41c-2.15-.26-1.92-.69,0-1.6l.8-3.21c-2.15-.26-1.92-.69,0-1.6l.8-2.41c-2.16-.69-2.2-1.69,0-2.41l.8-2.41c-2.15-.26-1.92-.69,0-1.6l.8-3.21c-2.15-.26-1.92-.69,0-1.6l.8-2.41c-2.17-.69-2.2-1.69,0-2.41l.8-2.41c-2.15-.26-1.92-.69,0-1.6l.8-3.21c-2.15-.25-1.92-.69,0-1.6l.8-2.41Z" class="st12"/><path d="M433.52,532.4c-.66,3.56-1.59,7.05-3.06,10.38l-1.75.45c2.4-.23,1.93,11.79,1.6,12.51-.27.59-.98.88-1.6,1.12,1.81,1.43.71,2.69-3.31,3.79,4.13,1.22-.52,8.99-3.15,10.56.2,2.18-1.24,13.45-2.22,14.85-.54.76-1.28,1.31-2.2,1.51-5.11-1.73-6.54,1.62-8.11,6.26.34,4.41-.92,7.33-3.78,8.77,2.31.25,3.48,1.17,3.51,2.78-3.88,1.17-29.71,8.78-30.55,10.16-5.11,28.49-11.46,56.84-16.78,85.27-5.33-3.72-10.68-7.46-16.05-11.23-3.75-20.18-7.41-40.42-11.2-60.6-16.28,4.03-32.12,9.67-48.16,14.53-1.17.35-2.44.14-3.21.36-4.79-4.25-10.5-8.29-15.78-11.93-.91-.63-2.27-.63-2.67-.9-4.34-2.99-8.48-6.59-12.84-9.62-2.75-2.51-3.29-4.38-1.6-5.61l3.21.34c12.63,8.61,28.19,12.85,43.39,11.76l-20.13-14.93.02-1.99,3.46-.85c15.81,3.35,32.24,1.95,47.59-2.89l3.51.53c3.03.4,4.77,5.74,4.59,8.81,18.98-3.73,33.1-23.92,41.64-40.15-1.01-.44-1.52-1.07-1.3-2.35l-.98-1.45c2.48-4.09,4.61-8.34,6.39-12.76l-35.67-16.02-.22-1.86c-2.53-2.21-.99-5.14,4.63-8.78-.92-9.5,3.05-11.25,11.35-13.75-.88-7.98,1.3-9.81,8.55-12.47.47-3.16,1.83-6.09,4.06-8.81-.01-5.74,2.43-7.63,7.74-8.87,1.1-5.95,4.87-10.51,11.32-13.68,0-5.4-1.96-10.7-5.87-15.9l.74-1.95c1.53-1.26,2.37-.69,3.27.79,14.57,19.63,28.85,40.71,42.63,61.08.99,1.47,1.55,11.87-.97,12.71Z" class="st47"/><path d="M285.1,660.71l37.74,139.52,56.12-16.82c-.4,2.13-2.23,14.89-2.87,15.33l-55.66,16.73-41.72-155.53,5.2-1.62,1.19,2.4Z" class="st2"/><path d="M478.45,756.14c2.12,1.26-1.18,11.64-2.34,12.96-1.49,1.7-7.48,3.16-9.7,2.27h-1.6c-10.06,2.56-19.79,6.62-29.68,9.62-4.77,1.45-10.38,2.52-15.24,4.01-3.38-17.92-7.18-35.79-10.43-53.73-4.49-10.46-6.29-23.37-7.76-34.89-1.46-7.3-1.66-14.64-1.07-22.04.45-2.76.46-6.17.93-9.09.21-1.32.29-4.83,1.47-5.34l19.27,109.86,54.83-16.77c14.92-54.16,27.71-108.94,42.31-163.19.35-1.29.4-2.76,1.53-3.68,1.74-.78,2.7.54,2.28,2.2-13.6,53.63-27.72,107.54-41.91,161.12l-2.89,6.69Z" class="st2"/><path d="M409.45,731.28c-4.26-3.1-11.54-6.63-15.2-10.06-1.22-1.14-1.9-1.7-1.64-3.57,2.82-14.32,5.66-28.91,8.02-43.3,1.62,19.18,5.4,38.06,8.82,56.94Z" class="st39"/><path d="M153.53,551.65l75.83,40.08c1.19.18,1.42.1,1.14-1.13-1.04-4.51-6.69-13.93-5.61-18.37.27-1.12,6.59-2.51,8.07-2.13l2.27,1.26c4.1,9.11,9.93,17.49,17.3,24.26l.49,2.54c-2.89,5.49-12.21,1.38-16.65-1.09,3.18,6.22,8.1,11.45,13.37,16l.87,2.74,1.6,5.61c-33.05-23-65.8-46.52-98.68-69.77Z" class="st15"/><path d="M366.93,468.25c-.23.82-.49,1.63-.86,2.38-1.43,2.97-17.19,18.22-20.23,19.68l-2.54-1.04c-10.69-9.99-22.57-13.52-36.85-8.85-17.77,5.81-25.09,21.5-31.78,37.55l1.26,2.1c-5.05,27.3,12.38,58.36,43.45,46.13l2.63.69,1.16-2.28c9.18-4.44,16.29-12.27,20.63-21.42l2.28-1.16,37.65,16.91c.78,1.08-5.92,13.33-7.17,15.17.07.62.11,1.23.04,1.83-.54,4.56-13.9,16.18-18.22,19.44-4.45,3.36-20.38,13.62-24.99,12.92-.6-.09-1.18-.29-1.75-.51-17.61,6.08-36.35,7.79-54.55,3.21l-2.8.63c-7.16-2.81-14.19-6.08-20.37-10.71l-.9-2.76c-8.38-6.97-16-17.94-20.06-28.07-1.21-3.03-3.29-8.96-4.01-12.03-.48-.3-.94-.61-1.33-1-3.23-3.29-3.71-37.96-.76-41.24.37-.41.81-.74,1.28-1.06,2.23-11.71,7.98-25.3,14.44-35.29l.39-3.42c9.75-14.04,23.09-25.43,38.25-33.29,4.92-2.55,21.83-10.16,26.23-8.93.59.17,1.16.44,1.72.74l2.41-.8c.32-2.3,1.65-2.15,2.41,0,1.08-.16,1.8-.8,2.21-1.85,18.64-2.52,36.95,1.75,51.71,13.6,2.32,1.86,11.17,9.67,10.64,12.1-.5,2.3-8.55,10.39-11.61,10.64Z" class="st12"/><path d="M222.53,554.05c-1.51-6.52.85-18.28,1.66-25.11-1.05-1.09-15.25-10.23-14.5-10.97,5.55-.6,10.63-3.25,16-4.47,1.56-.35,2.81-1.21,2.45,1.25-2.49,13.04-2.26,30.38.8,43.3.9,4.51-6.11-2.69-6.42-4.01Z" class="st15"/><path d="M533,254.13l9.46,35.92c-1.44,4.14,2.42,13.17.57,16.22-2.77,4.56-48.28,16.37-56.39,19.01-2.95.96-19.95,6.7-21.06,7.82-1.42,1.43-.4,4.83-1.49,6.36-.69.97-4.27.3-5.32,2.07-1.11,1.86.29,5.14-.77,7.25-.76,1.49-3.26,1.32-4.36,2.86-.24.34-3.6,7.13-3.72,7.53-.3,1.05.5,2.17.05,3.2-.69,1.59-4.53,3.55-5.06,5.4-.49,1.72.09,3.64-.24,5.37-.43,2.25-1.68,10.09-2.41,11.23-1.07,1.68-9.24,3.77-10.62,7.08-1.69,4.05.33,7.79.34,11.44,0,2.82-1.33,5.57-.93,8.88.15,1.29,2.77,1.65,1.67,4.36l-2.19-.41c-2.53-3.57-5.02-7.11-7.47-10.63-14.58,4.24-29.15,8.57-43.7,13l5.51,9.21-.29,2.47-1.07,2.03c-3.25.58-6.15,1.52-8.68,2.8,4.61,6.49,9.18,12.99,13.53,19.66.28.43.32,1.02.36,1.65s-.03,1.28-.13,1.93c1.43,2.55,5.11,8.97,6,11.24,4.06,10.26-3.72,9.07-7.97,13.66-2.03,2.2-2.27,6.78-3,7.82-.53.75-5.06,1.09-6.33,2.9-1.13,1.61-.5,3.58-1.11,5.3-.8,2.25-2.34,3.24-3.18,4.84-.72,1.36-.19,3.14-1.17,4.44-1.04,1.39-7.17,2.49-7.97,4.86-.72,2.12.61,5.61-.52,7.5-.85,1.43-8.91,2.44-10.45,5.59-1.05,2.16.12,5.16-.56,7.46s-4.69,3.85-5.5,5.14c-.75,1.19-.41,2.64-.75,3.44-4.6,10.84-13.08,20.27-24.07,24.86-4.54-6.1-7.22-15.35-9.36-22.93-3.86-13.66-7.59-31.61-7.25-45.78.04-1.52.69-2.94,1.37-4.27,1.89-3.11,7.92-2.62,11.45-2.29,9.49.91,15.85,5.65,22.73,11.67l29.88-29.44c-.31-1.82-2.06-3.03-3.64-3.82l-.26-1.78c3.46-3.53,6.71-7.37,10.29-10.82-6.38-8.9-16.74-16.31-26.92-20.27-12.6-4.9-23.08-4.92-36.31-3.4.01-8.03,4.75-15.62,9.3-21.92,1.13-4.97.42-10.42-2.12-16.36-.11-2.27,1.34-3.54,3.23-4.46-.06-4.59-1.07-9.26-3.01-14.03l.63-2.05c2.47-1.6,3.44-2.98,4.81-5.34,27.39-7.92,58.83-14.77,85.22-24.28,2.63-.95,12.21-4.93,13.48-6.58.8-1.04.94-2.93,1.92-3.69,1.62-1.27,3.94-.01,4.94-3.11.9-2.75-.6-4.41-.49-6.81.06-1.37.77-2.68.83-4.06.19-4.13-1.2-11.2,1.99-14.05l47.7-18.88c6.68-4.03.95-10.58,6.05-14.8,1.96-1.62,4.92-1.29,6.04-3.99,12.87-4.83,25.59-10.57,38.51-15.24Z" class="st17"/><path d="M533,384.04l3.64-.04c.82,1.45.11,4.6.37,4.86.63.64,6.56-.62,8.03-.81,1.11,6.05,2.06,12.13,2.43,18.28,2.97,48.59,3.49,97.69,3.82,145.09,29.57-9.65,59.34-18.66,89.31-27.05h3.91c2.08-.45,3.95-1.25,5.62-2.4,1.22-3.16,6.37-5.72,9.63-4.81h4.82c.79,8.45-3.3,6.11-8.24,7.4-1.16.3-2.09,1.72-3.55,2.06-4.24.98-8.17-1.44-7.45,5.77,2.2-1.96,4.39-1.77,7.21-1.6l-5.31,2.7c-32.97,11.22-66.35,21.44-99.7,31.51l-.88,65.08-1.62.94c-.87-11.95-1.13-23.91-.79-35.88-.02,24.48-.19,49.25-.52,74.32l-1.09,7.27c-1.06,8.37-2.25,16.77-3.58,25.19l-3.76,2.04c-3.22,7.39-7.46,10.61-12.72,9.66-1.32,1.18-2.96,5.17-3.64,7.19-.51,1.52-.09,3.94-.72,4.89-1.32,1.97-10.85-.89-10.07,2.74,2.35,2.8,5.82,4.36,8.46,6.79,1.56,1.45,2.34,3.44,3.98,4.84,8.76,7.5,19.11,13.1,27.67,20.86-1.15,1.6-3.44,1.36-6.88-.73-1.11-.62-2.07.03-2.88,1.94l-6.52,3.3c-1.32,4-2.8,6.26-7.12,7.07-1.51,4.11-3.74,6.39-8.36,6.1l1.13,1.63c3.95,2.77,5.07,4.88,3.35,6.35l-1.54.87-40.7-29.17-.28-2.17c14.96-55.67,27.61-112.06,43.03-167.64.78-1-.53-2.25-.51-2.37.84-4.59,2.67-9.92,3.18-14.08.16-1.29.16-1.29-1.13-1.13l-48.86,14.53c-2.17.81-.97,3.26-1.33,4.69l-.8,2.41c-.1.48.1,1.11,0,1.6l-.8,3.21c-.09.49.09,1.11,0,1.6l-.8,2.41c-.13.73.13,1.67,0,2.41l-.8,2.41c-.09.5.09,1.1,0,1.6l-.8,3.21c-.09.5.09,1.1,0,1.6l-.8,2.41c-.13.74.13,1.67,0,2.41l-.8,2.41c-.09.5.09,1.1,0,1.6l-.8,3.21c-.09.5.09,1.1,0,1.6l-.8,2.41c-.13.74.13,1.66,0,2.41l-.8,2.41c-.09.5.09,1.1,0,1.6l-.8,3.21c-.09.5.09,1.1,0,1.6l-.8,2.41c-.13.74.13,1.66,0,2.41l-.8,2.41c-.09.5.08,1.1,0,1.6l-.8,3.21c-.08.5.08,1.1,0,1.6l-.8,3.21c-.08.51.08,1.1,0,1.6l-.8,3.21c-.12.75.12,1.66,0,2.41l-.8,2.41c-.12.75.12,1.65,0,2.41l-.8,2.41c-.12.75.12,1.65,0,2.41l-.8,2.41c-.12.75.12,1.65,0,2.41l-.8,2.41c-.12.75.12,1.65,0,2.41l-.8,3.21c-.08.51.08,1.09,0,1.6l-.8,3.21c-.08.51.07,1.09,0,1.6l-.8,3.21c-.11.77.1,1.64,0,2.41l-.8,3.21c-.06.52.06,1.08,0,1.6-.79,4.47-1.59,5.54-2.41,3.21-.03-.26.03-.54,0-.8l-.8-4.01c-.1-.77.1-1.63,0-2.41l-.8-3.21c-.11-.77.11-1.64,0-2.41l-.8-3.21c-.11-.77.11-1.64,0-2.41l-.8-3.21c-.08-.51.08-1.09,0-1.6l-.8-3.21c-.12-.76.12-1.65,0-2.41l-.8-3.21c-.08-.51.08-1.1,0-1.6l-.8-3.21c-.08-.51.08-1.1,0-1.6l-.8-3.21c-.08-.51.08-1.1,0-1.6l-.8-3.21c-.08-.5.09-1.1,0-1.6l-.8-2.41c-.09-.5.09-1.1,0-1.6l-.8-2.41c-.13-.74.13-1.66,0-2.41l-.8-2.41c-.09-.5.09-1.1,0-1.6l-.8-2.41c-.13-.74.13-1.67,0-2.41l-.8-2.41c-.09-.5.09-1.1,0-1.6l-.8-2.41c-.09-.5.09-1.11,0-1.6l-.8-3.21c-.09-.5.09-1.11,0-1.6l-.8-2.41c-.09-.5.09-1.11,0-1.6l-.8-3.21c-.09-.5.09-1.11,0-1.6l-.8-2.41c-.09-.49.09-1.11,0-1.6l-.8-3.21c-.1-.49.09-1.11,0-1.6l-.8-2.41c-.09-.49.1-1.12,0-1.6l-.8-2.41c-.14-.72.15-1.7,0-2.41-.01-.99-.28-1.8-.8-2.41-1.81-.56-19.85,5.38-23.27,6.42l-6.4-2c.39-2.54,3.3-2.14,4.07-3.34,1.06-1.64.47-4.68,1.09-6.73.15-.51,3.32-6.51,3.61-6.83,2.37-2.56,4.55.98,6.91-1.11-.1-3.41,1.33-6.28,1.9-9.32.32-1.73-.33-3.87.19-5.45.35-1.07,1.84-1.06,2.32-1.86.99-1.65.86-4.19,3.16-5.45.02-1.48-6.88-1.94-4.8-3.6.31-.25,7.22-.86,7.22-2.81v-13.63c0-1.01,3.55-9.5,4.81-10.83l1.21,2.46c.77,16.98,1.57,33.93,2.41,50.83l41.09-12.65c.51-4.15.73-8.66-.59-12.57.43-1.48,2.06-2.78,4.88-3.9l-1.4-60.89c16.27-37.7,33.57-74.91,51.87-111.63Z" class="st18"/><path d="M698.27,608.59l.88-92.15,121.45-36.98.43,35.71c-.11,2.25-2.58,1.68-4.03,2.79.19.6.3,1.57-.07,1.7-21.4,6.94-45.19,13.68-66.05,19.15,1.04,3.33.84,10.84-1.27,13.64-.05,2.19-2.13,12.61.39,12.8l66.19-20.02.03,35.55c-.16.68-1.72,1.07-2.44,1.34l-1.65,1.75c-20.26,6.9-40.56,13.24-60.91,19.03l-1.62-.73-.8,30.47c25.21-7.11,50.07-16.13,75.4-22.45.04,2.93-.04,5.89,0,8.82.1,7.17.21,14.49,0,21.65.3,4.54-.77,6.94-3.21,7.22l-2.39,1.63c-34.57,10.79-69.1,21.85-103.57,33.19-2.88.86-17.8,5.22-17.85,2.64-.43-25.58-.66-51.23,1.06-76.75Z" class="st12"/><path d="M652.54,530.8c5-1.48,10.16-2.82,15.24-4.01v34.08c0,2.95-2.9,3.14-4.81,4.41l-.25,1.75s-21.65,6.52-64.96,19.56l-1.38-1.26-.8,26.47,67.38-20.05.04,36.37-2.45,1.31c-.09,1.16-.42,1.81-.98,1.96l-62.54,18.62c.9,3.72.41,8.09-1.47,13.1-.06,5.57-.28,11.3.39,16.83l75.02-23.24c-1.11,11.86-.8,23.77-.78,35.7l-3.23,2.79-3.95,2.15c-36.31,11.43-72.68,22.74-109.11,33.92l-9.79,1.47c-.88-33.93-.58-67.83.9-101.7l.91-67.26c35.71-10.32,70.98-22.41,106.6-32.99Z" class="st12"/><path d="M549.85,380.03c.79,37.85,2.78,75.68,4.04,113.44.48,14.32.52,28.61.77,42.94,1.12.14,2.16-.12,3.24-.36,24.17-5.4,56.1-16.24,80-24.28,19.36-6.52,42.08-16.54,53.14-34.7,1.47.77.73,2.82.45,4.05-3.65,15.69-18.29,28.4-31.74,36.05-3.01,1.71-6.45,3.42-9.63,4.81-1.6,1.13-3.47,1.94-5.62,2.41-31.39,8.72-62.32,20.08-93.86,28.07-1.42-18.01-1-36.1-1.57-54.17-1.16-36.68-2.28-73.57-4.04-110.23-.04-.79-.01-1.61,0-2.41-1.88-2.12-.66-7.71,2.41-5.61.67-.16,1.65.11,2.41,0Z" class="st19"/><path d="M695.86,655.9c-.1-41.44.98-82.86.81-124.3l1.6,1.18c.02,25.26-.04,50.54,0,75.8s-.03,50.8,0,76.19c1.12.15,2.16-.12,3.24-.36,39.18-8.69,79.99-27.95,119.5-36.53-.78,2.24.77,13.37-.08,14.36l-123.92,37.74-1.16-1.15c-.02-14.31.04-28.63,0-42.92Z" class="st2"/><path d="M835.46,319.89l-.47,14.53-76.25,23.08c-2.07.49-.9-4.43-1.08-6-.11-1.01-.83-1.84-.83-1.94-.08-1.25-.42-5.86.48-6.5l78.14-23.17Z" class="st52"/><path d="M827.43,386.45c1.98-.45,2.16,1.52,2.33,2.86.21,1.69.47,10.24-.4,10.86l-70.12,20.76c0-.53,0-1.07,0-1.6-.29-3.96-.35-7.91-.19-11.87l.99-.96c22.11-7.61,45.21-13.03,67.39-20.05Z" class="st11"/><path d="M817.01,517.97c2.43-.45,1.54,1.23,1.6,2.77.09,2.31.53,10.17-.79,11.28l-68.21,20.44c.12-4.77-.17-9.59.08-14.36l67.31-20.13Z" class="st2"/><path d="M662.97,565.28c2.84-.1,2.2-.48,2.41,1.96.15,1.73-.41,11.14-1.27,11.77l-66.61,20.67c-1.53.35-.98-.03-1.11-1.11-.49-4.13.36-9.02,0-13.25l66.59-20.05Z" class="st2"/><path d="M660.56,629.44l-.08,14.36-64.9,19.33c.05-4.77-.12-9.58.08-14.36l64.9-19.33Z" class="st2"/><path d="M813.8,582.12l-.11,14.32-63.66,19.37-.41-13.64c.27-.88,5.34-2.21,6.6-2.62,18.59-6.03,39.56-10.66,57.58-17.43Z" class="st2"/><path d="M645.32,465.84l-2.26.1c-4.76-6.18-11.85-7.4-21.28-3.66l-23.27,7.21c-.94.37-1.57-.36-2.13-1.24-.05-4.84.13-9.56-.73-14.36,10.32-2.52,20.8-7.01,31.05-9.47,8.18-1.97,19.07-4.22,22.45,5.97,2.36,7.09.65,10.33-3.83,15.45Z" class="st13"/><path d="M639.7,403.29l-2.09-.08c-5.08-6.29-13.27-5.6-20.33-3.53-7.23,2.65-14.56,4.87-22,6.66-1.07-3.68-1.51-7.64-1.31-11.87.04-1.16-.47-3.42.48-4.1,10.54-1.76,28.16-10.98,38.32-10.28,12.59.87,15.24,14.84,6.94,23.2Z" class="st14"/><path d="M645.32,465.84c-10.45,11.95-34.11,13.26-48.53,19.26-.79-5.54-.36-11.26-.41-16.85,11.54-1.73,32.21-13.1,43.11-8.21,2.65,1.19,3.62,4.18,5.83,5.8Z" class="st25"/><path d="M593.97,394.47l.81,10.42c13.96-2.06,34.19-16.54,44.92-1.6-9.49,9.56-32.3,12.05-44.92,16.84.32-8.6-1.07-17.05-.81-25.66Z" class="st16"/><path d="M712.71,355.98c-1.48-5.68-.8-12.49-.8-18.44,1.48,5.68.8,12.49.8,18.44Z" class="st22"/><path d="M714.31,405.7c-1.48-5.4-.8-11.96-.8-17.64,1.48,5.4.8,11.96.8,17.64Z" class="st22"/><path d="M713.51,380.84c-1.48-5.4-.8-11.96-.8-17.64,1.48,5.4.8,11.96.8,17.64Z" class="st22"/><path d="M715.92,456.22c-1.48-5.11-.8-11.43-.8-16.84,1.48,5.11.8,11.43.8,16.84Z" class="st22"/><path d="M715.12,429.75c-1.48-4.83-.8-10.9-.8-16.04,1.48,4.83.8,10.9.8,16.04Z" class="st22"/><path d="M716.72,480.28c-1.48-4.83-.8-10.9-.8-16.04,1.55,4.86.71,10.87.8,16.04Z" class="st22"/><path d="M760.04,406.5c-1.42,3.87-.78,8.64-.8,12.83l-.84-12.35,1.65-.48Z" class="st22"/><path d="M432.72,416.12c8.11,12.87,15.18,27.22,23.88,39.85.49.71-.13,1.48,1.78,1.05l29.31-72.96,51.32-16.07,1.2.4c-2.51,5.16-4.89,10.41-7.21,15.64-16.63,37.41-33.5,74.74-50.36,112.05l1.43,60.78c-.38,2.13-4.23,2.86-6.43,3.6-.47.59-.97,1.16-1.53,1.63s-1.1.92-1.71,1.11c-11.43,3.53-23.14,6.66-34.67,9.52l-1.4-1.54-1.8-65.51c-16.92-23.84-33.69-47.75-50.33-71.73l-1.62-4.2c-2.67-3.87-5.19-8.89-8.02-12.82,6.14-.36,45.82-14.78,47.99-13.5,1.94,4.69,5.53,8.5,8.17,12.69Z" class="st12"/><path d="M545.04,385.65c-2.78-.84-1.55-5.88-.03-6.85,1.23-.79,2.87-1.02,2.44,1.23-3.46.81-2.36,2.65-2.41,5.61Z" class="st18"/><path d="M909.27,303.85c1.62.73,2.59,2.71,2.92,5.94,9.71-3.73,19.61-6.06,29.71-6.99,8.32-.45,15.99,6.17,16.3,13.88-9.85,15.01-32.6,16.32-48.13,22.45.55-11.79-1.18-23.5-.81-35.28Z" class="st50"/><path d="M958.2,316.68c-2.59-2.19-3.07-5.9-5.63-8.41-9.64-9.46-30.95,1.08-42.1,3.61l-1.21-8.03c.05-1.46-.49-5.86.47-6.51,13.55-2.24,38.9-17.64,49.28-2.72,5.17,7.43,3.85,14.96-.81,22.06Z" class="st35"/><path d="M864.34,306.26c-1.48-5.4-.8-11.96-.8-17.64,1.48,5.4.8,11.96.8,17.64Z" class="st22"/><path d="M865.14,331.92c-1.48-5.4-.8-11.96-.8-17.64,1.48,5.4.8,11.96.8,17.64Z" class="st22"/><path d="M866.75,381.64c-1.48-5.11-.8-11.43-.8-16.84,1.48,5.11.8,11.43.8,16.84Z" class="st22"/><path d="M865.94,355.98c-1.48-5.11-.8-11.43-.8-16.84,1.48,5.11.8,11.43.8,16.84Z" class="st22"/><path d="M867.55,405.7c-1.48-4.83-.8-10.9-.8-16.04,1.56,4.86.69,10.86.8,16.04Z" class="st22"/><path d="M929.32,371.21c-.13,0-1.42.61-2.41.8l2.41-.8Z" class="st22"/><path d="M921.3,373.62c-.68.2-1.66.55-2.41.8l2.41-.8Z" class="st22"/><path d="M994.11,125.22c39.08-5.35,47.79,52.24,12.42,59.73-41.04,8.7-49.62-54.64-12.42-59.73Z" class="st36"/><path d="M960.61,161.1c-.59-3.46-1.93-7.97,0-11.23-.35,3.58.25,7.59,0,11.23Z" class="st3"/><path d="M805.77,832.33l-1.75-.25c-23.39,25.51-39.83,56.32-53.75,87.78l-3.27,5.08c-24.72-15-49.5-29.91-74.34-44.72l-3.28-2.97c-10.01-5.75-9.77-18.6-7.31-28.59l-1.75-3.41c-3.61-2.16-4.61-4.06-2.98-5.69,24.94,17.97,49.48,36.78,75.2,53.55,5.25.88,9.61-1.26,12.4-5.68,2.98-4.71,7.89-15.76,10.08-21.19,19.41-48.13,31.16-102.23,49.71-150.79.36-.94,1.68-4.96,2.32-5.06,5.07,2.44,31.85,8.87,34.08,11.63.4.5.74.96.71,1.64l-36.09,108.68Z" class="st22"/><path d="M669.39,877.23c26.58,14.14,52.16,30.17,77.42,46.49,14.81-33.97,32.16-67.47,57.77-94.6,1.97-.42,1.14,2.02,1.19,3.2.02.53-.01,1.07,0,1.6l-1.96,9.23c-6.8,23.16-15.63,48.45-24.34,70.95-8.58,22.16-14.96,36.97-41.85,32.63-12.1-6.09-23.36-14.07-33.78-23.94-28.56-19.84-56.36-40.64-83.39-62.41-.83-.79-1.71-1.77-2.41-2.41-3.13-2.55.98-6.61,3.83-5.41,16.26,6.83,33.48,14.18,47.51,24.65Z" class="st29"/><path d="M548.25,760.95c24.6,17.63,49.24,35.26,73.81,52.93l.81,1.57c-7.4,9.44-14.81,18.88-22.22,28.33l-1.86-.23c-18.69-13.98-38.32-26.87-56.96-40.9-7.6-3.25-14.25-7.97-20.41-13.46l-.45-2.58c-.14-.14-.03-1.06-.51-1.55-1.19-1.21-7.82-6.13-5.14-7.7,1.33-.78,3.39.07,5.3-1.12,1.8-1.13,2.17-3.98,3.15-4.87,1.17-1.07,2.99-.59,4.46-1.95,1.29-1.19,1.58-4.03,2.57-5.05s5.06-2.33,6.65-3.41c.82-.55.88-2.25,1.71-2.46,2.82-.7,6.23,2.27,9.07,2.45Z" class="st45"/><path d="M620.45,860.39l82.09,59.49c9.15,6.36,17.16,14.82,26.6,20.72,8.29,5.18,11.59,6.42,21.58,4.7,10.12-1.75,14.94-4.93,19.65-14.04,6.34-12.25,12.91-32.84,17.76-46.4,6.04-16.89,10.6-34.5,17.63-50.94.47,22.62-7.85,52.69-15.23,74.19-4.52,13.17-12.5,38.13-24.15,45.63-20.17,12.98-34.47,1.17-50.39-10.44-35.35-25.79-64.24-52.97-95.56-82.91Z" class="st28"/><path d="M542.63,676.75c.03-21.83.41-43.61.84-65.32.21-10.82-.23-21.69-.03-32.51l1.6,1.18c.02,16.98-.03,33.97,0,50.94.06,33.67-.05,67.37,0,101.04,40.84-11.14,81.01-26.21,121.94-36.89.25-.07.55.06.8,0-.61,3.31,1.42,12.64-1.33,14.3l-123.41,37.83c-.77-18.67-.39-37.45-.41-56.15-1.55-4.76-1.11-9.61,0-14.43Z" class="st2"/><path d="M626.07,817.09c10.4,7.48,20.99,15.04,31.29,22.45.29,2.53,2.88,2.88,4.37,4.86,4.17,5.55.55,6.97.41,11.61-.08,2.41,1.13,12.89,2.11,14.75,1.17,2.23,4.86,3.49,5.15,6.48-15.65-8.33-31.65-16.07-47.94-23.14-2.27-.43-3.65,1.75-3.41,3.89-3.64-3.32-8.8-6.54-12.84-9.62l-.92-1.51c6.64-9.95,13.28-19.9,19.92-29.86l1.87.09Z" class="st45"/><path d="M520.97,786.62c5.84,5.5,14.39,11.17,20.86,16.04-5.65-2.33-11.1-3.06-17.26-2.41-3.11.33-4.39,1.03-4.44,4.44-.09,5.31,6.57,5.37,8.07,10-20.57-14.43-41.75-28.09-61.77-43.3,1.54-1.95,7.38-1.81,8.44-3.2.38-.5,3.14-10.33,3.6-12.04l42.52,30.47Z" class="st51"/><path d="M626.07,817.09l-20.86,31.28c-2.11-1.61-4.29-3.22-6.42-4.81l23.27-29.67c1.4,1,2.64,2.22,4.01,3.21Z" class="st22"/><path d="M542.63,691.18c-2.44,2.87-1.5,8.02-2.99,11.04-1.19,2.42-3.67.53-4.67,5.76-.86,4.54,1.45,10.64-4.14,11.89-6.26,1.4-7.97-.06-8.25-6.24,2.4-2.14,4.58-1.1,6.1-2.32.86-.69,3.07-6.65,6.42-8.83,1.03-.67,3.24-.74,3.43-.97.4-.45-.04-7.26.18-9.05.33-2.78,1.79-4.95,2.27-7.35.53-2.67-1.06-6.36,1.65-8.37,0,4.8,0,9.63,0,14.43Z" class="st22"/><path d="M821.02,647.88c.34-.98,2.23-.45,2.46-1.29.44-1.57-1.02-4.77.75-5.93-.06,2.15.36,4.38-.36,6.47-.67,1.04-2,.56-2.85.75Z" class="st22"/><path d="M91.76,421.73l-6.25,5.2c.83,3.13,4.02,4.02,5.89,5.99,3.34,3.52,5.02,8.16,5.98,12.87-6.98-5.96-14.18-11.72-20.85-18.05,4.82-2.6,10.17-4.04,15.24-6.01Z" class="st44"/><path d="M326.82,369.61c1.42,4.6-2.63,4.82-3.65,6.42-1.36,2.14,4.56,10.14,2.72,15.51-.49,1.44-2.92,1.27-3.12,3.33-.28,2.96,3.61,9.83,3.1,14.22-.48,4.15-4.05,7-5.79,10.32s-3.64,8.17-4.47,11.59c-.32,1.34.23,2.01-1.63,2.76-.77.09-1.66-.12-2.41,0l-2.41.8c-26.72,5.33-51.77,22.03-66.59,44.91-1.96-1.8-.05-12.07-.81-12.83-13.83,3-27.29,7.5-40.91,11.23l4.81-23.26,1.44-1.56,56.95-16.65c2.98-1.69,7.87-3.02,8.23-7.01v-40.01c-.41-1.73-7.89-.7-5.65-2.93l33.69-9.63c1.71.99.96,1.95-.61,2.81-6.2,2.14-12.15,4.54-17.85,7.22.63.07,1.59.29,1.6.73.47,11.22.85,26.32,0,37.35.5,2.45-.04,3.92-1.6,4.42,10.1-1.98,20.54-4.2,30.31-7.76l-1.4-46.97,1.57-1c4.81-1.47,9.63-2.62,14.44-4.01Z" class="st5"/><path d="M312.38,373.62l1.54,48.45c-.55,1.02-1.56,1.13-2.49,1.52-4.03,1.68-22.69,6.42-26.95,6.82-.95.09-2.58-.17-2.58-1.06v-42.5c0-3.29,13.95-7.39,17.09-8.62.87-.34,1.27-1.37,1.37-1.41,1.59-.59,3.21-1.05,4.81-1.6,2.29-.79,5.06-.95,7.22-1.6Z" class="st17"/><path d="M362.12,700.81c-2.42,12.9-3.55,27.71-6.65,40.27-.2.81-.23,2.42-1.36,2.23-1-14.88-5.66-30.08-6.43-44.9l-.8-2.41c-.04-.8.03-1.61,0-2.41l-.8-2.41c-.08-.5.09-1.11,0-1.6-.44-2.79,1.36-.99,2.32-.32,3.56,2.45,8.55,5.65,11.71,8.34,1.06.91,1.97,1.67,2.01,3.2Z" class="st7"/><path d="M453.58,703.21c-.34,2.93-1.04,5.83-.81,8.82-2.39-.86-1.41-3.78-1.6-5.61,2.67.66.84-1.9,2.41-3.21Z" class="st47"/><path d="M451.17,705.62c-1.3-.69-.76-2.72-.8-4.01.1.8.62,2.32.8,4.01Z" class="st47"/><path d="M468.82,610.99c.23-1.28.67-2.51.8-3.21l-.8,3.21Z" class="st47"/><path d="M454.38,696c.2-1.4.73-2.73.8-3.21l-.8,3.21Z" class="st47"/><path d="M471.23,597.36c.25-1.27.64-2.4.8-3.21l-.8,3.21Z" class="st47"/><path d="M439.14,632.64l-.8-3.21c.13.71.57,1.93.8,3.21Z" class="st47"/><path d="M466.41,624.62c.23-1.3.68-2.53.8-3.21l-.8,3.21Z" class="st47"/><path d="M461.6,651.89c.22-1.32.7-2.6.8-3.21l-.8,3.21Z" class="st47"/><path d="M464.01,638.26c.23-1.31.69-2.56.8-3.21l-.8,3.21Z" class="st47"/><path d="M437.53,623.82l-.8-3.21c.13.72.57,1.94.8,3.21Z" class="st47"/><path d="M449.57,693.59l-.8-3.21c.07.46.61,1.8.8,3.21Z" class="st47"/><path d="M460.8,656.7c.22-1.33.7-2.6.8-3.21l-.8,3.21Z" class="st47"/><path d="M460,661.51c.22-1.33.7-2.61.8-3.21l-.8,3.21Z" class="st47"/><path d="M444.75,663.12l-.8-3.21c.1.61.58,1.88.8,3.21Z" class="st47"/><path d="M445.56,667.93l-.8-3.21c.1.6.58,1.87.8,3.21Z" class="st47"/><path d="M446.36,672.74l-.8-3.21c.1.58.59,1.86.8,3.21Z" class="st47"/><path d="M447.16,677.55l-.8-3.21c.09.56.59,1.85.8,3.21Z" class="st47"/><path d="M447.96,683.17l-.8-3.21c.08.53.6,1.83.8,3.21Z" class="st47"/><path d="M455.99,686.37c.21-1.35.72-2.68.8-3.21l-.8,3.21Z" class="st47"/><path d="M448.76,687.98l-.8-3.21c.07.49.6,1.82.8,3.21Z" class="st47"/><path d="M455.18,691.18c.21-1.37.72-2.69.8-3.21l-.8,3.21Z" class="st47"/><path d="M435.93,615l-.8-3.21c.15.76.56,1.95.8,3.21Z" class="st47"/><path d="M450.37,699.2l-.8-3.21c.06.42.62,1.78.8,3.21Z" class="st47"/><path d="M453.58,701.61c.18-1.47.75-2.79.8-3.21l-.8,3.21Z" class="st47"/><path d="M456.79,680.76c.21-1.35.78-2.28.8-2.41l-.8,2.41Z" class="st47"/><path d="M443.15,654.3l-.8-2.41c.02.12.58,1.13.8,2.41Z" class="st47"/><path d="M467.22,619.81c.22-1.23.78-2.28.8-2.41l-.8,2.41Z" class="st47"/><path d="M459.19,666.32c.21-1.32.78-2.28.8-2.41l-.8,2.41Z" class="st47"/><path d="M442.35,649.48l-.8-2.41c.02.12.58,1.15.8,2.41Z" class="st47"/><path d="M443.95,658.31l-.8-2.41c.02.12.58,1.12.8,2.41Z" class="st47"/><path d="M462.4,647.08c.22-1.29.78-2.28.8-2.41l-.8,2.41Z" class="st47"/><path d="M346.88,693.59c-1.13-.4-.67-1.58-.8-2.41,1.05.39.76,1.53.8,2.41Z" class="st47"/><path d="M468.02,615c.22-1.23.78-2.28.8-2.41l-.8,2.41Z" class="st47"/><path d="M458.39,671.14c.21-1.33.78-2.28.8-2.41l-.8,2.41Z" class="st47"/><path d="M347.68,698.4c-1.05-.39-.76-1.53-.8-2.41,1.06.38.76,1.53.8,2.41Z" class="st47"/><path d="M436.73,619.01l-.8-2.41c.02.12.58,1.22.8,2.41Z" class="st47"/><path d="M457.59,675.95c.21-1.34.78-2.28.8-2.41l-.8,2.41Z" class="st47"/><path d="M441.54,645.47l-.8-2.41c.02.12.58,1.17.8,2.41Z" class="st47"/><path d="M438.34,627.83l-.8-2.41c.02.12.58,1.2.8,2.41Z" class="st47"/><path d="M463.21,642.27c.22-1.27.78-2.28.8-2.41l-.8,2.41Z" class="st47"/><path d="M439.94,636.65l-.8-2.41c.02.12.58,1.19.8,2.41Z" class="st47"/><path d="M440.74,640.66l-.8-2.41c.02.12.58,1.18.8,2.41Z" class="st47"/><path d="M464.81,633.45c.22-1.26.78-2.28.8-2.41l-.8,2.41Z" class="st47"/><path d="M465.61,628.63c.22-1.25.78-2.28.8-2.41l-.8,2.41Z" class="st47"/><path d="M433.52,601.37l-.8-2.41c1.27.1.63,1.58.8,2.41Z" class="st47"/><path d="M435.13,610.19l-.8-2.41c.02.12.58,1.23.8,2.41Z" class="st47"/><path d="M469.62,606.18c.22-1.21.78-2.28.8-2.41l-.8,2.41Z" class="st47"/><path d="M472.03,592.55c.26-1.21.69-1.97.8-2.41l-.8,2.41Z" class="st47"/><path d="M434.32,606.18l-.8-2.41c.03.15.57,1.27.8,2.41Z" class="st47"/><path d="M470.43,601.37c.22-1.21.78-2.28.8-2.41l-.8,2.41Z" class="st47"/><path d="M384.58,429.75c17.37,25.14,36.43,49.72,53.39,75.35l1.98,66.6c12.28-4.46,25.35-7.05,37.7-11.23,1.98-.45,2.16,1.52,2.33,2.86.26,2.12.58,10.11-.71,11.18l-43.32,13.23c-.37-1.48-.75-2.82-.85-4.38-1.14-16.56-.55-34.24-1.56-50.96-.24-3.97.55-8.07-.44-12-14.33-19.73-27.7-40.16-41.9-59.96-.74-1.03-1.3-2.14-2.59-2.62-4.68-8.32-10.76-15.76-16.01-23.7-.34-1.67.27-.91,1.07-1.23,3.47-1.38,7.4-1.89,10.92-3.14Z" class="st26"/><path d="M253.01,598.16c7.02,5.84,15.59,9.59,24.07,12.83l24.87,18.44c-18.21,1.66-36.62-2.49-51.34-13.62-7.7-5.83-14-13.81-18.45-22.45,7.46,2.87,12.08,7.98,20.86,4.8Z" class="st10"/><path d="M376.56,574.1c.86.91,3.59.05,3.14,1.92-.6,2.44-5.19,9.95-6.82,12.44-5.25,8.06-14.24,18.04-22.06,23.66-5.39,3.87-10,6.38-16.77,6.08,1.98-4.82-1.28-6.24-2.41-10.42,17.95-6.2,34.24-17.91,44.93-33.68Z" class="st41"/><path d="M306.76,493.91c.71,13.96,1.87,27.42,5.06,41.05,2.57,10.96,6.94,21.21,10.18,31.93-34.81,14.55-53.26-18.1-47.33-48.92,2.57-7.47,7.73-13.16,14.18-17.87,4.56-3.33,12.66-8.53,17.91-6.19Z" class="st20"/><path d="M306.76,493.91c-10.67,1.94-19.1,8.01-26.08,16.03l-6.01,8.03c4.57-23.77,23.35-43.87,49.25-40.81,8.59,1.01,15.25,6.67,21.64,11.88,6.9-7.12,14.44-13.73,21.37-20.79,2.38.58,6.43,3.89,5.24,6.4l-30.67,30.4c-1.69.44-6.95-5.27-9.13-6.67-8.38-5.35-15.86-6.25-25.61-4.48Z" class="st42"/><path d="M311.58,433.76l-2.41.8c.19-.04,1.06-.59,2.41-.8Z" class="st17"/><path d="M650.13,521.98c-1.09,2.74-3.79,1.9-5.62,2.41,1.5-1.46,3.85-1.63,5.62-2.41Z" class="st22"/><path d="M1008.75,154.68c2.81-.09,4.72,1.61,6.42,3.62l6.42,12.42c-2.69-.14-6.56,2.34-9.08,1.51-1.97-.65-4.3-9.15-6.38-10.9-2.98-2.5-7.62-1.21-10.95-.17-.84,1.21,3.36,13.6,2.82,14.41-.88,1.32-6.71,1.7-8.48,2.37l-7.93-37.59c8.01-3.06,26.16-9.66,31.52-.04,3.66,6.57-.22,9.88-4.35,14.36Z" class="st12"/><path d="M1003.7,151.26c-1.06,1.28-9.53,4.03-10.19,3.44l-2.41-10.41c3.43-1,7.64-2.71,11.22-1.2,2.84,1.2,3.21,5.95,1.39,8.17Z" class="st32"/></svg>