<svg xmlns="http://www.w3.org/2000/svg" id="Capa_1" data-name="Capa 1" viewBox="0 0 1080 1080"><defs><style>.cls-1{fill:#2d4d19}.cls-2{fill:#d6bcd5}.cls-3{fill:#ffebd2}.cls-4{fill:#fc5b31}</style></defs><path d="M-2.48-2.48v1084.96h1084.96V-2.48H-2.48ZM1032.02,1032.68H43.01V43.67h989.01v989.01Z" class="cls-4"/><g><g><path d="M569.39,904.62h27.2v46.3h9.13v-46.3h27.39v120.9h-27.39v-49.24h-9.13v49.24h-27.2v-120.9Z" class="cls-2"/><path d="M642.26,964.52c0-45.2,8.4-61.18,31.04-61.18s31.04,15.99,31.04,61.18-8.22,62.29-31.04,62.29-31.04-14.33-31.04-62.29ZM677.13,964.52c0-32.52-1.1-35.65-3.83-35.65-2.92,0-3.83,3.12-3.83,35.65,0,34.18.91,36.75,3.83,36.75,2.74,0,3.83-2.57,3.83-36.75Z" class="cls-2"/><path d="M721.67,930.16h-12.23v-25.54h51.67v25.54h-12.23v95.36h-27.2v-95.36Z" class="cls-2"/><path d="M795.79,983.08h23.73c0,19.29.73,22.42,4.2,22.42,2.74,0,3.65-1.84,3.65-12.68,0-7.35-.73-9.92-2.56-11.94-1.83-1.84-5.48-3.86-9.31-6.06-3.47-1.84-8.76-4.96-12.41-9.19-4.02-4.41-7.3-12.86-7.3-26.09,0-25.17,10.41-36.2,28.85-36.2,22.64,0,27.93,10.11,27.93,44.65h-22.64c0-20.95-.55-23.33-3.1-23.33-2.74,0-3.83,2.39-3.83,11.94,0,8.45.73,11.94,2.74,13.78,1.64,1.84,5.84,4.23,10.41,6.61,4.75,2.57,9.68,5.88,12.41,9.74,4.02,5.7,5.84,12.86,5.84,24.07,0,26.46-8.58,36.01-29.76,36.01-23.37,0-28.85-13.05-28.85-43.73Z" class="cls-2"/><path d="M895.56,1003.84h-8.03l-1.1,21.68h-27.2l16.25-120.9h37.61l16.43,120.9h-32.86l-1.1-21.68ZM894.65,985.28l-2.56-53.65h-1.1l-2.56,53.65h6.21Z" class="cls-2"/><path d="M936.75,904.62h27.2v95.36h12.96v25.54h-40.17v-120.9Z" class="cls-2"/><path d="M983.96,904.62h44.18v25.54h-16.98v25.91h13.88v17.45h-13.88v26.46h18.07v25.54h-45.28v-120.9Z" class="cls-2"/></g><g><g><path d="M521.43,1133.24c-1.6,0-3.13-.27-4.56-.76-1.43.49-2.97.76-4.56.76h-27.2c-7.76,0-14.05-6.29-14.05-14.05v-120.9c0-7.76,6.29-14.05,14.05-14.05h27.2c1.6,0,3.13.27,4.56.76,1.43-.49,2.97-.76,4.56-.76h27.39c7.76,0,14.05,6.29,14.05,14.05v120.9c0,7.76-6.29,14.05-14.05,14.05h-27.39Z" class="cls-1"/><path d="M588.99,1134.52c-41.6,0-45.09-39.4-45.09-76.34,0-25.71,2.64-42.34,8.57-53.93,7.22-14.13,19.51-21.3,36.52-21.3s29.3,7.17,36.52,21.3c5.93,11.59,8.57,28.23,8.57,53.93,0,26.98-2.54,43.49-8.48,55.21-7.11,14.02-19.43,21.13-36.6,21.13Z" class="cls-1"/><path d="M637.37,1133.24c-7.76,0-14.05-6.29-14.05-14.05v-81.43c-6.9-.89-12.23-6.79-12.23-13.93v-25.54c0-7.76,6.29-14.05,14.05-14.05h51.67c7.76,0,14.05,6.29,14.05,14.05v25.54c0,7.14-5.33,13.04-12.23,13.93v81.43c0,7.76-6.29,14.05-14.05,14.05h-27.2Z" class="cls-1"/><path d="M740.34,1134.52c-16.72,0-28.24-5.61-35.21-17.14-5.46-9.03-7.69-20.8-7.69-40.64,0-5.42,3.07-10.12,7.56-12.46-3.96-6.19-7.56-15.97-7.56-31.08,0-45.35,30-50.25,42.9-50.25,10.59,0,25.69,1.67,34.47,16.13,6.24,10.28,7.52,24.45,7.52,42.57,0,4.76-2.37,8.97-5.99,11.51,5.41,8.1,7.82,17.81,7.82,31.3,0,12.38,0,50.06-43.81,50.06Z" class="cls-1"/><path d="M812.36,1133.24c-1.8,0-3.53-.34-5.11-.96-1.59.62-3.31.96-5.11.96h-27.2c-4.05,0-7.91-1.75-10.58-4.8-2.67-3.05-3.89-7.1-3.35-11.12l16.25-120.9c.94-6.97,6.89-12.18,13.92-12.18h37.61c7.03,0,12.98,5.19,13.92,12.16l16.43,120.9c.55,4.02-.67,8.08-3.34,11.13-2.67,3.06-6.53,4.81-10.58,4.81h-32.86Z" class="cls-1"/><path d="M852.45,1133.24c-7.76,0-14.05-6.29-14.05-14.05v-120.9c0-7.76,6.29-14.05,14.05-14.05h27.2c7.76,0,14.05,6.29,14.05,14.05v81.35c7.25.55,12.96,6.61,12.96,14.01v25.54c0,7.76-6.29,14.05-14.05,14.05h-40.17Z" class="cls-1"/><path d="M899.66,1133.24c-7.76,0-14.05-6.29-14.05-14.05v-120.9c0-7.76,6.29-14.05,14.05-14.05h44.18c7.76,0,14.05,6.29,14.05,14.05v25.54c0,6.5-4.42,11.97-10.42,13.58,4.36,2.39,7.31,7.01,7.31,12.33v17.45c0,5.5-3.16,10.25-7.75,12.56,6.76,1.01,11.95,6.85,11.95,13.89v25.54c0,7.76-6.29,14.05-14.05,14.05h-45.28Z" class="cls-1"/></g><g><path d="M524.24,1130.11c-1.6,0-3.13-.27-4.56-.76-1.43.49-2.97.76-4.56.76h-27.2c-7.76,0-14.05-6.29-14.05-14.05v-120.9c0-7.76,6.29-14.05,14.05-14.05h27.2c1.6,0,3.13.27,4.56.76,1.43-.49,2.97-.76,4.56-.76h27.39c7.76,0,14.05,6.29,14.05,14.05v120.9c0,7.76-6.29,14.05-14.05,14.05h-27.39Z" class="cls-1"/><path d="M591.8,1131.4c-41.6,0-45.09-39.4-45.09-76.34,0-25.71,2.64-42.34,8.57-53.93,7.22-14.13,19.51-21.3,36.52-21.3s29.3,7.17,36.52,21.3c5.93,11.59,8.57,28.23,8.57,53.93,0,26.98-2.54,43.49-8.48,55.21-7.11,14.02-19.43,21.13-36.6,21.13Z" class="cls-1"/><path d="M640.18,1130.11c-7.76,0-14.05-6.29-14.05-14.05v-81.43c-6.9-.89-12.23-6.79-12.23-13.93v-25.54c0-7.76,6.29-14.05,14.05-14.05h51.67c7.76,0,14.05,6.29,14.05,14.05v25.54c0,7.14-5.33,13.04-12.23,13.93v81.43c0,7.76-6.29,14.05-14.05,14.05h-27.2Z" class="cls-1"/><path d="M743.15,1131.4c-16.72,0-28.24-5.61-35.21-17.14-5.46-9.03-7.69-20.8-7.69-40.64,0-5.42,3.07-10.12,7.56-12.46-3.96-6.19-7.56-15.97-7.56-31.08,0-45.35,30-50.25,42.9-50.25,10.59,0,25.69,1.67,34.47,16.13,6.24,10.28,7.52,24.45,7.52,42.57,0,4.76-2.37,8.97-5.99,11.51,5.41,8.1,7.82,17.81,7.82,31.3,0,12.38,0,50.06-43.81,50.06Z" class="cls-1"/><path d="M815.17,1130.11c-1.8,0-3.53-.34-5.11-.96-1.59.62-3.31.96-5.11.96h-27.2c-4.05,0-7.91-1.75-10.58-4.8-2.67-3.05-3.89-7.1-3.35-11.12l16.25-120.9c.94-6.97,6.89-12.18,13.92-12.18h37.61c7.03,0,12.98,5.19,13.92,12.16l16.43,120.9c.55,4.02-.67,8.08-3.34,11.13-2.67,3.06-6.53,4.81-10.58,4.81h-32.86Z" class="cls-1"/><path d="M855.26,1130.11c-7.76,0-14.05-6.29-14.05-14.05v-120.9c0-7.76,6.29-14.05,14.05-14.05h27.2c7.76,0,14.05,6.29,14.05,14.05v81.35c7.25.55,12.96,6.61,12.96,14.01v25.54c0,7.76-6.29,14.05-14.05,14.05h-40.17Z" class="cls-1"/><path d="M902.47,1130.11c-7.76,0-14.05-6.29-14.05-14.05v-120.9c0-7.76,6.29-14.05,14.05-14.05h44.18c7.76,0,14.05,6.29,14.05,14.05v25.54c0,6.5-4.42,11.97-10.42,13.58,4.36,2.39,7.31,7.01,7.31,12.33v17.45c0,5.5-3.16,10.25-7.75,12.56,6.76,1.01,11.95,6.85,11.95,13.89v25.54c0,7.76-6.29,14.05-14.05,14.05h-45.28Z" class="cls-1"/></g><g><path d="M527.05,1126.99c-1.6,0-3.13-.27-4.56-.76-1.43.49-2.97.76-4.56.76h-27.2c-7.76,0-14.05-6.29-14.05-14.05v-120.9c0-7.76,6.29-14.05,14.05-14.05h27.2c1.6,0,3.13.27,4.56.76,1.43-.49,2.97-.76,4.56-.76h27.39c7.76,0,14.05,6.29,14.05,14.05v120.9c0,7.76-6.29,14.05-14.05,14.05h-27.39Z" class="cls-1"/><path d="M594.61,1128.28c-41.6,0-45.09-39.4-45.09-76.34,0-25.71,2.64-42.34,8.57-53.93,7.22-14.13,19.51-21.3,36.52-21.3s29.3,7.17,36.52,21.3c5.93,11.59,8.57,28.23,8.57,53.93,0,26.98-2.54,43.49-8.48,55.21-7.11,14.02-19.43,21.13-36.6,21.13Z" class="cls-1"/><path d="M642.99,1126.99c-7.76,0-14.05-6.29-14.05-14.05v-81.43c-6.9-.89-12.23-6.79-12.23-13.93v-25.54c0-7.76,6.29-14.05,14.05-14.05h51.67c7.76,0,14.05,6.29,14.05,14.05v25.54c0,7.14-5.33,13.04-12.23,13.93v81.43c0,7.76-6.29,14.05-14.05,14.05h-27.2Z" class="cls-1"/><path d="M745.96,1128.28c-16.72,0-28.24-5.61-35.21-17.14-5.46-9.03-7.69-20.8-7.69-40.64,0-5.42,3.07-10.12,7.56-12.46-3.96-6.19-7.56-15.97-7.56-31.08,0-45.35,30-50.25,42.9-50.25,10.59,0,25.69,1.67,34.47,16.13,6.24,10.28,7.52,24.45,7.52,42.57,0,4.76-2.37,8.97-5.99,11.51,5.41,8.1,7.82,17.81,7.82,31.3,0,12.38,0,50.06-43.81,50.06Z" class="cls-1"/><path d="M817.98,1126.99c-1.8,0-3.53-.34-5.11-.96-1.59.62-3.31.96-5.11.96h-27.2c-4.05,0-7.91-1.75-10.58-4.8-2.67-3.05-3.89-7.1-3.35-11.12l16.25-120.9c.94-6.97,6.89-12.18,13.92-12.18h37.61c7.03,0,12.98,5.19,13.92,12.16l16.43,120.9c.55,4.02-.67,8.08-3.34,11.13-2.67,3.06-6.53,4.81-10.58,4.81h-32.86Z" class="cls-1"/><path d="M858.07,1126.99c-7.76,0-14.05-6.29-14.05-14.05v-120.9c0-7.76,6.29-14.05,14.05-14.05h27.2c7.76,0,14.05,6.29,14.05,14.05v81.35c7.25.55,12.96,6.61,12.96,14.01v25.54c0,7.76-6.29,14.05-14.05,14.05h-40.17Z" class="cls-1"/><path d="M905.28,1126.99c-7.76,0-14.05-6.29-14.05-14.05v-120.9c0-7.76,6.29-14.05,14.05-14.05h44.18c7.76,0,14.05,6.29,14.05,14.05v25.54c0,6.5-4.42,11.97-10.42,13.58,4.36,2.39,7.31,7.01,7.31,12.33v17.45c0,5.5-3.16,10.25-7.75,12.56,6.76,1.01,11.95,6.85,11.95,13.89v25.54c0,7.76-6.29,14.05-14.05,14.05h-45.28Z" class="cls-1"/></g><g><path d="M529.86,1123.87c-1.6,0-3.13-.27-4.56-.76-1.43.49-2.97.76-4.56.76h-27.2c-7.76,0-14.05-6.29-14.05-14.05v-120.9c0-7.76,6.29-14.05,14.05-14.05h27.2c1.6,0,3.13.27,4.56.76,1.43-.49,2.97-.76,4.56-.76h27.39c7.76,0,14.05,6.29,14.05,14.05v120.9c0,7.76-6.29,14.05-14.05,14.05h-27.39Z" class="cls-1"/><path d="M597.42,1125.16c-41.6,0-45.09-39.4-45.09-76.34,0-25.71,2.64-42.34,8.57-53.93,7.22-14.13,19.51-21.3,36.52-21.3s29.3,7.17,36.52,21.3c5.93,11.59,8.57,28.23,8.57,53.93,0,26.98-2.54,43.49-8.48,55.21-7.11,14.02-19.43,21.13-36.6,21.13Z" class="cls-1"/><path d="M645.8,1123.87c-7.76,0-14.05-6.29-14.05-14.05v-81.43c-6.9-.89-12.23-6.79-12.23-13.93v-25.54c0-7.76,6.29-14.05,14.05-14.05h51.67c7.76,0,14.05,6.29,14.05,14.05v25.54c0,7.14-5.33,13.04-12.23,13.93v81.43c0,7.76-6.29,14.05-14.05,14.05h-27.2Z" class="cls-1"/><path d="M748.77,1125.16c-16.72,0-28.24-5.61-35.21-17.14-5.46-9.03-7.69-20.8-7.69-40.64,0-5.42,3.07-10.12,7.56-12.46-3.96-6.19-7.56-15.97-7.56-31.08,0-45.35,30-50.25,42.9-50.25,10.59,0,25.69,1.67,34.47,16.13,6.24,10.28,7.52,24.45,7.52,42.57,0,4.76-2.37,8.97-5.99,11.51,5.41,8.1,7.82,17.81,7.82,31.3,0,12.38,0,50.06-43.81,50.06Z" class="cls-1"/><path d="M820.79,1123.87c-1.8,0-3.53-.34-5.11-.96-1.59.62-3.31.96-5.11.96h-27.2c-4.05,0-7.91-1.75-10.58-4.8-2.67-3.05-3.89-7.1-3.35-11.12l16.25-120.9c.94-6.97,6.89-12.18,13.92-12.18h37.61c7.03,0,12.98,5.19,13.92,12.16l16.43,120.9c.55,4.02-.67,8.08-3.34,11.13-2.67,3.06-6.53,4.81-10.58,4.81h-32.86Z" class="cls-1"/><path d="M860.88,1123.87c-7.76,0-14.05-6.29-14.05-14.05v-120.9c0-7.76,6.29-14.05,14.05-14.05h27.2c7.76,0,14.05,6.29,14.05,14.05v81.35c7.25.55,12.96,6.61,12.96,14.01v25.54c0,7.76-6.29,14.05-14.05,14.05h-40.17Z" class="cls-1"/><path d="M908.09,1123.87c-7.76,0-14.05-6.29-14.05-14.05v-120.9c0-7.76,6.29-14.05,14.05-14.05h44.18c7.76,0,14.05,6.29,14.05,14.05v25.54c0,6.5-4.42,11.97-10.42,13.58,4.36,2.39,7.31,7.01,7.31,12.33v17.45c0,5.5-3.16,10.25-7.75,12.56,6.76,1.01,11.95,6.85,11.95,13.89v25.54c0,7.76-6.29,14.05-14.05,14.05h-45.28Z" class="cls-1"/></g><g><path d="M532.67,1120.75c-1.6,0-3.13-.27-4.56-.76-1.43.49-2.97.76-4.56.76h-27.2c-7.76,0-14.05-6.29-14.05-14.05v-120.9c0-7.76,6.29-14.05,14.05-14.05h27.2c1.6,0,3.13.27,4.56.76,1.43-.49,2.97-.76,4.56-.76h27.39c7.76,0,14.05,6.29,14.05,14.05v120.9c0,7.76-6.29,14.05-14.05,14.05h-27.39Z" class="cls-1"/><path d="M600.23,1122.03c-41.6,0-45.09-39.4-45.09-76.34,0-25.71,2.64-42.34,8.57-53.93,7.22-14.13,19.51-21.3,36.52-21.3s29.3,7.17,36.52,21.3c5.93,11.59,8.57,28.23,8.57,53.93,0,26.98-2.54,43.49-8.48,55.21-7.11,14.02-19.43,21.13-36.6,21.13Z" class="cls-1"/><path d="M648.61,1120.75c-7.76,0-14.05-6.29-14.05-14.05v-81.43c-6.9-.89-12.23-6.79-12.23-13.93v-25.54c0-7.76,6.29-14.05,14.05-14.05h51.67c7.76,0,14.05,6.29,14.05,14.05v25.54c0,7.14-5.33,13.04-12.23,13.93v81.43c0,7.76-6.29,14.05-14.05,14.05h-27.2Z" class="cls-1"/><path d="M751.58,1122.03c-16.72,0-28.24-5.61-35.21-17.14-5.46-9.03-7.69-20.8-7.69-40.64,0-5.42,3.07-10.12,7.56-12.46-3.96-6.19-7.56-15.97-7.56-31.08,0-45.35,30-50.25,42.9-50.25,10.59,0,25.69,1.67,34.47,16.13,6.24,10.28,7.52,24.45,7.52,42.57,0,4.76-2.37,8.97-5.99,11.51,5.41,8.1,7.82,17.81,7.82,31.3,0,12.38,0,50.06-43.81,50.06Z" class="cls-1"/><path d="M823.6,1120.75c-1.8,0-3.53-.34-5.11-.96-1.59.62-3.31.96-5.11.96h-27.2c-4.05,0-7.91-1.75-10.58-4.8-2.67-3.05-3.89-7.1-3.35-11.12l16.25-120.9c.94-6.97,6.89-12.18,13.92-12.18h37.61c7.03,0,12.98,5.19,13.92,12.16l16.43,120.9c.55,4.02-.67,8.08-3.34,11.13-2.67,3.06-6.53,4.81-10.58,4.81h-32.86Z" class="cls-1"/><path d="M863.69,1120.75c-7.76,0-14.05-6.29-14.05-14.05v-120.9c0-7.76,6.29-14.05,14.05-14.05h27.2c7.76,0,14.05,6.29,14.05,14.05v81.35c7.25.55,12.96,6.61,12.96,14.01v25.54c0,7.76-6.29,14.05-14.05,14.05h-40.17Z" class="cls-1"/><path d="M910.9,1120.75c-7.76,0-14.05-6.29-14.05-14.05v-120.9c0-7.76,6.29-14.05,14.05-14.05h44.18c7.76,0,14.05,6.29,14.05,14.05v25.54c0,6.5-4.42,11.97-10.42,13.58,4.36,2.39,7.31,7.01,7.31,12.33v17.45c0,5.5-3.16,10.25-7.75,12.56,6.76,1.01,11.95,6.85,11.95,13.89v25.54c0,7.76-6.29,14.05-14.05,14.05h-45.28Z" class="cls-1"/></g><g><path d="M535.48,1117.63c-1.6,0-3.13-.27-4.56-.76-1.43.49-2.97.76-4.56.76h-27.2c-7.76,0-14.05-6.29-14.05-14.05v-120.9c0-7.76,6.29-14.05,14.05-14.05h27.2c1.6,0,3.13.27,4.56.76,1.43-.49,2.97-.76,4.56-.76h27.39c7.76,0,14.05,6.29,14.05,14.05v120.9c0,7.76-6.29,14.05-14.05,14.05h-27.39Z" class="cls-1"/><path d="M603.04,1118.91c-41.6,0-45.09-39.4-45.09-76.34,0-25.71,2.64-42.34,8.57-53.93,7.22-14.13,19.51-21.3,36.52-21.3s29.3,7.17,36.52,21.3c5.93,11.59,8.57,28.23,8.57,53.93,0,26.98-2.54,43.49-8.48,55.21-7.11,14.02-19.43,21.13-36.6,21.13Z" class="cls-1"/><path d="M651.42,1117.63c-7.76,0-14.05-6.29-14.05-14.05v-81.43c-6.9-.89-12.23-6.79-12.23-13.93v-25.54c0-7.76,6.29-14.05,14.05-14.05h51.67c7.76,0,14.05,6.29,14.05,14.05v25.54c0,7.14-5.33,13.04-12.23,13.93v81.43c0,7.76-6.29,14.05-14.05,14.05h-27.2Z" class="cls-1"/><path d="M754.39,1118.91c-16.72,0-28.24-5.61-35.21-17.14-5.46-9.03-7.69-20.8-7.69-40.64,0-5.42,3.07-10.12,7.56-12.46-3.96-6.19-7.56-15.97-7.56-31.08,0-45.35,30-50.25,42.9-50.25,10.59,0,25.69,1.67,34.47,16.13,6.24,10.28,7.52,24.45,7.52,42.57,0,4.76-2.37,8.97-5.99,11.51,5.41,8.1,7.82,17.81,7.82,31.3,0,12.38,0,50.06-43.81,50.06Z" class="cls-1"/><path d="M826.41,1117.63c-1.8,0-3.53-.34-5.11-.96-1.59.62-3.31.96-5.11.96h-27.2c-4.05,0-7.91-1.75-10.58-4.8-2.67-3.05-3.89-7.1-3.35-11.12l16.25-120.9c.94-6.97,6.89-12.18,13.92-12.18h37.61c7.03,0,12.98,5.19,13.92,12.16l16.43,120.9c.55,4.02-.67,8.08-3.34,11.13-2.67,3.06-6.53,4.81-10.58,4.81h-32.86Z" class="cls-1"/><path d="M866.5,1117.63c-7.76,0-14.05-6.29-14.05-14.05v-120.9c0-7.76,6.29-14.05,14.05-14.05h27.2c7.76,0,14.05,6.29,14.05,14.05v81.35c7.25.55,12.96,6.61,12.96,14.01v25.54c0,7.76-6.29,14.05-14.05,14.05h-40.17Z" class="cls-1"/><path d="M913.71,1117.63c-7.76,0-14.05-6.29-14.05-14.05v-120.9c0-7.76,6.29-14.05,14.05-14.05h44.18c7.76,0,14.05,6.29,14.05,14.05v25.54c0,6.5-4.42,11.97-10.42,13.58,4.36,2.39,7.31,7.01,7.31,12.33v17.45c0,5.5-3.16,10.25-7.75,12.56,6.76,1.01,11.95,6.85,11.95,13.89v25.54c0,7.76-6.29,14.05-14.05,14.05h-45.28Z" class="cls-1"/></g><g><path d="M538.29,1114.5c-1.6,0-3.13-.27-4.56-.76-1.43.49-2.97.76-4.56.76h-27.2c-7.76,0-14.05-6.29-14.05-14.05v-120.9c0-7.76,6.29-14.05,14.05-14.05h27.2c1.6,0,3.13.27,4.56.76,1.43-.49,2.97-.76,4.56-.76h27.39c7.76,0,14.05,6.29,14.05,14.05v120.9c0,7.76-6.29,14.05-14.05,14.05h-27.39Z" class="cls-1"/><path d="M605.85,1115.79c-41.6,0-45.09-39.4-45.09-76.34,0-25.71,2.64-42.34,8.57-53.93,7.22-14.13,19.51-21.3,36.52-21.3s29.3,7.17,36.52,21.3c5.93,11.59,8.57,28.23,8.57,53.93,0,26.98-2.54,43.49-8.48,55.21-7.11,14.02-19.43,21.13-36.6,21.13Z" class="cls-1"/><path d="M654.23,1114.5c-7.76,0-14.05-6.29-14.05-14.05v-81.43c-6.9-.89-12.23-6.79-12.23-13.93v-25.54c0-7.76,6.29-14.05,14.05-14.05h51.67c7.76,0,14.05,6.29,14.05,14.05v25.54c0,7.14-5.33,13.04-12.23,13.93v81.43c0,7.76-6.29,14.05-14.05,14.05h-27.2Z" class="cls-1"/><path d="M757.2,1115.79c-16.72,0-28.24-5.61-35.21-17.14-5.46-9.03-7.69-20.8-7.69-40.64,0-5.42,3.07-10.12,7.56-12.46-3.96-6.19-7.56-15.97-7.56-31.08,0-45.35,30-50.25,42.9-50.25,10.59,0,25.69,1.67,34.47,16.13,6.24,10.28,7.52,24.45,7.52,42.57,0,4.76-2.37,8.97-5.99,11.51,5.41,8.1,7.82,17.81,7.82,31.3,0,12.38,0,50.06-43.81,50.06Z" class="cls-1"/><path d="M829.22,1114.5c-1.8,0-3.53-.34-5.11-.96-1.59.62-3.31.96-5.11.96h-27.2c-4.05,0-7.91-1.75-10.58-4.8-2.67-3.05-3.89-7.1-3.35-11.12l16.25-120.9c.94-6.97,6.89-12.18,13.92-12.18h37.61c7.03,0,12.98,5.19,13.92,12.16l16.43,120.9c.55,4.02-.67,8.08-3.34,11.13-2.67,3.06-6.53,4.81-10.58,4.81h-32.86Z" class="cls-1"/><path d="M869.31,1114.5c-7.76,0-14.05-6.29-14.05-14.05v-120.9c0-7.76,6.29-14.05,14.05-14.05h27.2c7.76,0,14.05,6.29,14.05,14.05v81.35c7.25.55,12.96,6.61,12.96,14.01v25.54c0,7.76-6.29,14.05-14.05,14.05h-40.17Z" class="cls-1"/><path d="M916.52,1114.5c-7.76,0-14.05-6.29-14.05-14.05v-120.9c0-7.76,6.29-14.05,14.05-14.05h44.18c7.76,0,14.05,6.29,14.05,14.05v25.54c0,6.5-4.42,11.97-10.42,13.58,4.36,2.39,7.31,7.01,7.31,12.33v17.45c0,5.5-3.16,10.25-7.75,12.56,6.76,1.01,11.95,6.85,11.95,13.89v25.54c0,7.76-6.29,14.05-14.05,14.05h-45.28Z" class="cls-1"/></g><g><path d="M541.1,1111.38c-1.6,0-3.13-.27-4.56-.76-1.43.49-2.97.76-4.56.76h-27.2c-7.76,0-14.05-6.29-14.05-14.05v-120.9c0-7.76,6.29-14.05,14.05-14.05h27.2c1.6,0,3.13.27,4.56.76,1.43-.49,2.97-.76,4.56-.76h27.39c7.76,0,14.05,6.29,14.05,14.05v120.9c0,7.76-6.29,14.05-14.05,14.05h-27.39Z" class="cls-1"/><path d="M608.66,1112.67c-41.6,0-45.09-39.4-45.09-76.34,0-25.71,2.64-42.34,8.57-53.93,7.22-14.13,19.51-21.3,36.52-21.3s29.3,7.17,36.52,21.3c5.93,11.59,8.57,28.23,8.57,53.93,0,26.98-2.54,43.49-8.48,55.21-7.11,14.02-19.43,21.13-36.6,21.13Z" class="cls-1"/><path d="M657.04,1111.38c-7.76,0-14.05-6.29-14.05-14.05v-81.43c-6.9-.89-12.23-6.79-12.23-13.93v-25.54c0-7.76,6.29-14.05,14.05-14.05h51.67c7.76,0,14.05,6.29,14.05,14.05v25.54c0,7.14-5.33,13.04-12.23,13.93v81.43c0,7.76-6.29,14.05-14.05,14.05h-27.2Z" class="cls-1"/><path d="M760.01,1112.67c-16.72,0-28.24-5.61-35.21-17.14-5.46-9.03-7.69-20.8-7.69-40.64,0-5.42,3.07-10.12,7.56-12.46-3.96-6.19-7.56-15.97-7.56-31.08,0-45.35,30-50.25,42.9-50.25,10.59,0,25.69,1.67,34.47,16.13,6.24,10.28,7.52,24.45,7.52,42.57,0,4.76-2.37,8.97-5.99,11.51,5.41,8.1,7.82,17.81,7.82,31.3,0,12.38,0,50.06-43.81,50.06Z" class="cls-1"/><path d="M832.03,1111.38c-1.8,0-3.53-.34-5.11-.96-1.59.62-3.31.96-5.11.96h-27.2c-4.05,0-7.91-1.75-10.58-4.8-2.67-3.05-3.89-7.1-3.35-11.12l16.25-120.9c.94-6.97,6.89-12.18,13.92-12.18h37.61c7.03,0,12.98,5.19,13.92,12.16l16.43,120.9c.55,4.02-.67,8.08-3.34,11.13-2.67,3.06-6.53,4.81-10.58,4.81h-32.86Z" class="cls-1"/><path d="M872.12,1111.38c-7.76,0-14.05-6.29-14.05-14.05v-120.9c0-7.76,6.29-14.05,14.05-14.05h27.2c7.76,0,14.05,6.29,14.05,14.05v81.35c7.25.55,12.96,6.61,12.96,14.01v25.54c0,7.76-6.29,14.05-14.05,14.05h-40.17Z" class="cls-1"/><path d="M919.33,1111.38c-7.76,0-14.05-6.29-14.05-14.05v-120.9c0-7.76,6.29-14.05,14.05-14.05h44.18c7.76,0,14.05,6.29,14.05,14.05v25.54c0,6.5-4.42,11.97-10.42,13.58,4.36,2.39,7.31,7.01,7.31,12.33v17.45c0,5.5-3.16,10.25-7.75,12.56,6.76,1.01,11.95,6.85,11.95,13.89v25.54c0,7.76-6.29,14.05-14.05,14.05h-45.28Z" class="cls-1"/></g><g><path d="M543.91,1108.26c-1.6,0-3.13-.27-4.56-.76-1.43.49-2.97.76-4.56.76h-27.2c-7.76,0-14.05-6.29-14.05-14.05v-120.9c0-7.76,6.29-14.05,14.05-14.05h27.2c1.6,0,3.13.27,4.56.76,1.43-.49,2.97-.76,4.56-.76h27.39c7.76,0,14.05,6.29,14.05,14.05v120.9c0,7.76-6.29,14.05-14.05,14.05h-27.39Z" class="cls-1"/><path d="M611.47,1109.54c-41.6,0-45.09-39.4-45.09-76.34,0-25.71,2.64-42.34,8.57-53.93,7.22-14.13,19.51-21.3,36.52-21.3s29.3,7.17,36.52,21.3c5.93,11.59,8.57,28.23,8.57,53.93,0,26.98-2.54,43.49-8.48,55.21-7.11,14.02-19.43,21.13-36.6,21.13Z" class="cls-1"/><path d="M659.85,1108.26c-7.76,0-14.05-6.29-14.05-14.05v-81.43c-6.9-.89-12.23-6.79-12.23-13.93v-25.54c0-7.76,6.29-14.05,14.05-14.05h51.67c7.76,0,14.05,6.29,14.05,14.05v25.54c0,7.14-5.33,13.04-12.23,13.93v81.43c0,7.76-6.29,14.05-14.05,14.05h-27.2Z" class="cls-1"/><path d="M762.82,1109.54c-16.72,0-28.24-5.61-35.21-17.14-5.46-9.03-7.69-20.8-7.69-40.64,0-5.42,3.07-10.12,7.56-12.46-3.96-6.19-7.56-15.97-7.56-31.08,0-45.35,30-50.25,42.9-50.25,10.59,0,25.69,1.67,34.47,16.13,6.24,10.28,7.52,24.45,7.52,42.57,0,4.76-2.37,8.97-5.99,11.51,5.41,8.1,7.82,17.81,7.82,31.3,0,12.38,0,50.06-43.81,50.06Z" class="cls-1"/><path d="M834.84,1108.26c-1.8,0-3.53-.34-5.11-.96-1.59.62-3.31.96-5.11.96h-27.2c-4.05,0-7.91-1.75-10.58-4.8-2.67-3.05-3.89-7.1-3.35-11.12l16.25-120.9c.94-6.97,6.89-12.18,13.92-12.18h37.61c7.03,0,12.98,5.19,13.92,12.16l16.43,120.9c.55,4.02-.67,8.08-3.34,11.13-2.67,3.06-6.53,4.81-10.58,4.81h-32.86Z" class="cls-1"/><path d="M874.93,1108.26c-7.76,0-14.05-6.29-14.05-14.05v-120.9c0-7.76,6.29-14.05,14.05-14.05h27.2c7.76,0,14.05,6.29,14.05,14.05v81.35c7.25.55,12.96,6.61,12.96,14.01v25.54c0,7.76-6.29,14.05-14.05,14.05h-40.17Z" class="cls-1"/><path d="M922.14,1108.26c-7.76,0-14.05-6.29-14.05-14.05v-120.9c0-7.76,6.29-14.05,14.05-14.05h44.18c7.76,0,14.05,6.29,14.05,14.05v25.54c0,6.5-4.42,11.97-10.42,13.58,4.36,2.39,7.31,7.01,7.31,12.33v17.45c0,5.5-3.16,10.25-7.75,12.56,6.76,1.01,11.95,6.85,11.95,13.89v25.54c0,7.76-6.29,14.05-14.05,14.05h-45.28Z" class="cls-1"/></g><g><path d="M546.72,1105.14c-1.6,0-3.13-.27-4.56-.76-1.43.49-2.97.76-4.56.76h-27.2c-7.76,0-14.05-6.29-14.05-14.05v-120.9c0-7.76,6.29-14.05,14.05-14.05h27.2c1.6,0,3.13.27,4.56.76,1.43-.49,2.97-.76,4.56-.76h27.39c7.76,0,14.05,6.29,14.05,14.05v120.9c0,7.76-6.29,14.05-14.05,14.05h-27.39Z" class="cls-1"/><path d="M614.28,1106.42c-41.6,0-45.09-39.4-45.09-76.34,0-25.71,2.64-42.34,8.57-53.93,7.22-14.13,19.51-21.3,36.52-21.3s29.3,7.17,36.52,21.3c5.93,11.59,8.57,28.23,8.57,53.93,0,26.98-2.54,43.49-8.48,55.21-7.11,14.02-19.43,21.13-36.6,21.13Z" class="cls-1"/><path d="M662.66,1105.14c-7.76,0-14.05-6.29-14.05-14.05v-81.43c-6.9-.89-12.23-6.79-12.23-13.93v-25.54c0-7.76,6.29-14.05,14.05-14.05h51.67c7.76,0,14.05,6.29,14.05,14.05v25.54c0,7.14-5.33,13.04-12.23,13.93v81.43c0,7.76-6.29,14.05-14.05,14.05h-27.2Z" class="cls-1"/><path d="M765.63,1106.42c-16.72,0-28.24-5.61-35.21-17.14-5.46-9.03-7.69-20.8-7.69-40.64,0-5.42,3.07-10.12,7.56-12.46-3.96-6.19-7.56-15.97-7.56-31.08,0-45.35,30-50.25,42.9-50.25,10.59,0,25.69,1.67,34.47,16.13,6.24,10.28,7.52,24.45,7.52,42.57,0,4.76-2.37,8.97-5.99,11.51,5.41,8.1,7.82,17.81,7.82,31.3,0,12.38,0,50.06-43.81,50.06Z" class="cls-1"/><path d="M837.65,1105.14c-1.8,0-3.53-.34-5.11-.96-1.59.62-3.31.96-5.11.96h-27.2c-4.05,0-7.91-1.75-10.58-4.8-2.67-3.05-3.89-7.1-3.35-11.12l16.25-120.9c.94-6.97,6.89-12.18,13.92-12.18h37.61c7.03,0,12.98,5.19,13.92,12.16l16.43,120.9c.55,4.02-.67,8.08-3.34,11.13-2.67,3.06-6.53,4.81-10.58,4.81h-32.86Z" class="cls-1"/><path d="M877.74,1105.14c-7.76,0-14.05-6.29-14.05-14.05v-120.9c0-7.76,6.29-14.05,14.05-14.05h27.2c7.76,0,14.05,6.29,14.05,14.05v81.35c7.25.55,12.96,6.61,12.96,14.01v25.54c0,7.76-6.29,14.05-14.05,14.05h-40.17Z" class="cls-1"/><path d="M924.95,1105.14c-7.76,0-14.05-6.29-14.05-14.05v-120.9c0-7.76,6.29-14.05,14.05-14.05h44.18c7.76,0,14.05,6.29,14.05,14.05v25.54c0,6.5-4.42,11.97-10.42,13.58,4.36,2.39,7.31,7.01,7.31,12.33v17.45c0,5.5-3.16,10.25-7.75,12.56,6.76,1.01,11.95,6.85,11.95,13.89v25.54c0,7.76-6.29,14.05-14.05,14.05h-45.28Z" class="cls-1"/></g><g><path d="M549.53,1102.01c-1.6,0-3.13-.27-4.56-.76-1.43.49-2.97.76-4.56.76h-27.2c-7.76,0-14.05-6.29-14.05-14.05v-120.9c0-7.76,6.29-14.05,14.05-14.05h27.2c1.6,0,3.13.27,4.56.76,1.43-.49,2.97-.76,4.56-.76h27.39c7.76,0,14.05,6.29,14.05,14.05v120.9c0,7.76-6.29,14.05-14.05,14.05h-27.39Z" class="cls-1"/><path d="M617.09,1103.3c-41.6,0-45.09-39.4-45.09-76.34,0-25.71,2.64-42.34,8.57-53.93,7.22-14.13,19.51-21.3,36.52-21.3s29.3,7.17,36.52,21.3c5.93,11.59,8.57,28.23,8.57,53.93,0,26.98-2.54,43.49-8.48,55.21-7.11,14.02-19.43,21.13-36.6,21.13Z" class="cls-1"/><path d="M665.47,1102.01c-7.76,0-14.05-6.29-14.05-14.05v-81.43c-6.9-.89-12.23-6.79-12.23-13.93v-25.54c0-7.76,6.29-14.05,14.05-14.05h51.67c7.76,0,14.05,6.29,14.05,14.05v25.54c0,7.14-5.33,13.04-12.23,13.93v81.43c0,7.76-6.29,14.05-14.05,14.05h-27.2Z" class="cls-1"/><path d="M768.44,1103.3c-16.72,0-28.24-5.61-35.21-17.14-5.46-9.03-7.69-20.8-7.69-40.64,0-5.42,3.07-10.12,7.56-12.46-3.96-6.19-7.56-15.97-7.56-31.08,0-45.35,30-50.25,42.9-50.25,10.59,0,25.69,1.67,34.47,16.13,6.24,10.28,7.52,24.45,7.52,42.57,0,4.76-2.37,8.97-5.99,11.51,5.41,8.1,7.82,17.81,7.82,31.3,0,12.38,0,50.06-43.81,50.06Z" class="cls-1"/><path d="M840.46,1102.01c-1.8,0-3.53-.34-5.11-.96-1.59.62-3.31.96-5.11.96h-27.2c-4.05,0-7.91-1.75-10.58-4.8-2.67-3.05-3.89-7.1-3.35-11.12l16.25-120.9c.94-6.97,6.89-12.18,13.92-12.18h37.61c7.03,0,12.98,5.19,13.92,12.16l16.43,120.9c.55,4.02-.67,8.08-3.34,11.13-2.67,3.06-6.53,4.81-10.58,4.81h-32.86Z" class="cls-1"/><path d="M880.55,1102.01c-7.76,0-14.05-6.29-14.05-14.05v-120.9c0-7.76,6.29-14.05,14.05-14.05h27.2c7.76,0,14.05,6.29,14.05,14.05v81.35c7.25.55,12.96,6.61,12.96,14.01v25.54c0,7.76-6.29,14.05-14.05,14.05h-40.17Z" class="cls-1"/><path d="M927.76,1102.01c-7.76,0-14.05-6.29-14.05-14.05v-120.9c0-7.76,6.29-14.05,14.05-14.05h44.18c7.76,0,14.05,6.29,14.05,14.05v25.54c0,6.5-4.42,11.97-10.42,13.58,4.36,2.39,7.31,7.01,7.31,12.33v17.45c0,5.5-3.16,10.25-7.75,12.56,6.76,1.01,11.95,6.85,11.95,13.89v25.54c0,7.76-6.29,14.05-14.05,14.05h-45.28Z" class="cls-1"/></g><g><path d="M552.34,1098.89c-1.6,0-3.13-.27-4.56-.76-1.43.49-2.97.76-4.56.76h-27.2c-7.76,0-14.05-6.29-14.05-14.05v-120.9c0-7.76,6.29-14.05,14.05-14.05h27.2c1.6,0,3.13.27,4.56.76,1.43-.49,2.97-.76,4.56-.76h27.39c7.76,0,14.05,6.29,14.05,14.05v120.9c0,7.76-6.29,14.05-14.05,14.05h-27.39Z" class="cls-1"/><path d="M619.9,1100.18c-41.6,0-45.09-39.4-45.09-76.34,0-25.71,2.64-42.34,8.57-53.93,7.22-14.13,19.51-21.3,36.52-21.3s29.3,7.17,36.52,21.3c5.93,11.59,8.57,28.23,8.57,53.93,0,26.98-2.54,43.49-8.48,55.21-7.11,14.02-19.43,21.13-36.6,21.13Z" class="cls-1"/><path d="M668.28,1098.89c-7.76,0-14.05-6.29-14.05-14.05v-81.43c-6.9-.89-12.23-6.79-12.23-13.93v-25.54c0-7.76,6.29-14.05,14.05-14.05h51.67c7.76,0,14.05,6.29,14.05,14.05v25.54c0,7.14-5.33,13.04-12.23,13.93v81.43c0,7.76-6.29,14.05-14.05,14.05h-27.2Z" class="cls-1"/><path d="M771.25,1100.18c-16.72,0-28.24-5.61-35.21-17.14-5.46-9.03-7.69-20.8-7.69-40.64,0-5.42,3.07-10.12,7.56-12.46-3.96-6.19-7.56-15.97-7.56-31.08,0-45.35,30-50.25,42.9-50.25,10.59,0,25.69,1.67,34.47,16.13,6.24,10.28,7.52,24.45,7.52,42.57,0,4.76-2.37,8.97-5.99,11.51,5.41,8.1,7.82,17.81,7.82,31.3,0,12.38,0,50.06-43.81,50.06Z" class="cls-1"/><path d="M843.27,1098.89c-1.8,0-3.53-.34-5.11-.96-1.59.62-3.31.96-5.11.96h-27.2c-4.05,0-7.91-1.75-10.58-4.8-2.67-3.05-3.89-7.1-3.35-11.12l16.25-120.9c.94-6.97,6.89-12.18,13.92-12.18h37.61c7.03,0,12.98,5.19,13.92,12.16l16.43,120.9c.55,4.02-.67,8.08-3.34,11.13-2.67,3.06-6.53,4.81-10.58,4.81h-32.86Z" class="cls-1"/><path d="M883.36,1098.89c-7.76,0-14.05-6.29-14.05-14.05v-120.9c0-7.76,6.29-14.05,14.05-14.05h27.2c7.76,0,14.05,6.29,14.05,14.05v81.35c7.25.55,12.96,6.61,12.96,14.01v25.54c0,7.76-6.29,14.05-14.05,14.05h-40.17Z" class="cls-1"/><path d="M930.57,1098.89c-7.76,0-14.05-6.29-14.05-14.05v-120.9c0-7.76,6.29-14.05,14.05-14.05h44.18c7.76,0,14.05,6.29,14.05,14.05v25.54c0,6.5-4.42,11.97-10.42,13.58,4.36,2.39,7.31,7.01,7.31,12.33v17.45c0,5.5-3.16,10.25-7.75,12.56,6.76,1.01,11.95,6.85,11.95,13.89v25.54c0,7.76-6.29,14.05-14.05,14.05h-45.28Z" class="cls-1"/></g><g><path d="M555.15,1095.77c-1.6,0-3.13-.27-4.56-.76-1.43.49-2.97.76-4.56.76h-27.2c-7.76,0-14.05-6.29-14.05-14.05v-120.9c0-7.76,6.29-14.05,14.05-14.05h27.2c1.6,0,3.13.27,4.56.76,1.43-.49,2.97-.76,4.56-.76h27.39c7.76,0,14.05,6.29,14.05,14.05v120.9c0,7.76-6.29,14.05-14.05,14.05h-27.39Z" class="cls-1"/><path d="M622.71,1097.06c-41.6,0-45.09-39.4-45.09-76.34,0-25.71,2.64-42.34,8.57-53.93,7.22-14.13,19.51-21.3,36.52-21.3s29.3,7.17,36.52,21.3c5.93,11.59,8.57,28.23,8.57,53.93,0,26.98-2.54,43.49-8.48,55.21-7.11,14.02-19.43,21.13-36.6,21.13Z" class="cls-1"/><path d="M671.09,1095.77c-7.76,0-14.05-6.29-14.05-14.05v-81.43c-6.9-.89-12.23-6.79-12.23-13.93v-25.54c0-7.76,6.29-14.05,14.05-14.05h51.67c7.76,0,14.05,6.29,14.05,14.05v25.54c0,7.14-5.33,13.04-12.23,13.93v81.43c0,7.76-6.29,14.05-14.05,14.05h-27.2Z" class="cls-1"/><path d="M774.06,1097.06c-16.72,0-28.24-5.61-35.21-17.14-5.46-9.03-7.69-20.8-7.69-40.64,0-5.42,3.07-10.12,7.56-12.46-3.96-6.19-7.56-15.97-7.56-31.08,0-45.35,30-50.25,42.9-50.25,10.59,0,25.69,1.67,34.47,16.13,6.24,10.28,7.52,24.45,7.52,42.57,0,4.76-2.37,8.97-5.99,11.51,5.41,8.1,7.82,17.81,7.82,31.3,0,12.38,0,50.06-43.81,50.06Z" class="cls-1"/><path d="M846.08,1095.77c-1.8,0-3.53-.34-5.11-.96-1.59.62-3.31.96-5.11.96h-27.2c-4.05,0-7.91-1.75-10.58-4.8-2.67-3.05-3.89-7.1-3.35-11.12l16.25-120.9c.94-6.97,6.89-12.18,13.92-12.18h37.61c7.03,0,12.98,5.19,13.92,12.16l16.43,120.9c.55,4.02-.67,8.08-3.34,11.13-2.67,3.06-6.53,4.81-10.58,4.81h-32.86Z" class="cls-1"/><path d="M886.17,1095.77c-7.76,0-14.05-6.29-14.05-14.05v-120.9c0-7.76,6.29-14.05,14.05-14.05h27.2c7.76,0,14.05,6.29,14.05,14.05v81.35c7.25.55,12.96,6.61,12.96,14.01v25.54c0,7.76-6.29,14.05-14.05,14.05h-40.17Z" class="cls-1"/><path d="M933.38,1095.77c-7.76,0-14.05-6.29-14.05-14.05v-120.9c0-7.76,6.29-14.05,14.05-14.05h44.18c7.76,0,14.05,6.29,14.05,14.05v25.54c0,6.5-4.42,11.97-10.42,13.58,4.36,2.39,7.31,7.01,7.31,12.33v17.45c0,5.5-3.16,10.25-7.75,12.56,6.76,1.01,11.95,6.85,11.95,13.89v25.54c0,7.76-6.29,14.05-14.05,14.05h-45.28Z" class="cls-1"/></g><g><path d="M557.96,1092.65c-1.6,0-3.13-.27-4.56-.76-1.43.49-2.97.76-4.56.76h-27.2c-7.76,0-14.05-6.29-14.05-14.05v-120.9c0-7.76,6.29-14.05,14.05-14.05h27.2c1.6,0,3.13.27,4.56.76,1.43-.49,2.97-.76,4.56-.76h27.39c7.76,0,14.05,6.29,14.05,14.05v120.9c0,7.76-6.29,14.05-14.05,14.05h-27.39Z" class="cls-1"/><path d="M625.52,1093.93c-41.6,0-45.09-39.4-45.09-76.34,0-25.71,2.64-42.34,8.57-53.93,7.22-14.13,19.51-21.3,36.52-21.3s29.3,7.17,36.52,21.3c5.93,11.59,8.57,28.23,8.57,53.93,0,26.98-2.54,43.49-8.48,55.21-7.11,14.02-19.43,21.13-36.6,21.13Z" class="cls-1"/><path d="M673.9,1092.65c-7.76,0-14.05-6.29-14.05-14.05v-81.43c-6.9-.89-12.23-6.79-12.23-13.93v-25.54c0-7.76,6.29-14.05,14.05-14.05h51.67c7.76,0,14.05,6.29,14.05,14.05v25.54c0,7.14-5.33,13.04-12.23,13.93v81.43c0,7.76-6.29,14.05-14.05,14.05h-27.2Z" class="cls-1"/><path d="M776.87,1093.93c-16.72,0-28.24-5.61-35.21-17.14-5.46-9.03-7.69-20.8-7.69-40.64,0-5.42,3.07-10.12,7.56-12.46-3.96-6.19-7.56-15.97-7.56-31.08,0-45.35,30-50.25,42.9-50.25,10.59,0,25.69,1.67,34.47,16.13,6.24,10.28,7.52,24.45,7.52,42.57,0,4.76-2.37,8.97-5.99,11.51,5.41,8.1,7.82,17.81,7.82,31.3,0,12.38,0,50.06-43.81,50.06Z" class="cls-1"/><path d="M848.89,1092.65c-1.8,0-3.53-.34-5.11-.96-1.59.62-3.31.96-5.11.96h-27.2c-4.05,0-7.91-1.75-10.58-4.8-2.67-3.05-3.89-7.1-3.35-11.12l16.25-120.9c.94-6.97,6.89-12.18,13.92-12.18h37.61c7.03,0,12.98,5.19,13.92,12.16l16.43,120.9c.55,4.02-.67,8.08-3.34,11.13-2.67,3.06-6.53,4.81-10.58,4.81h-32.86Z" class="cls-1"/><path d="M888.98,1092.65c-7.76,0-14.05-6.29-14.05-14.05v-120.9c0-7.76,6.29-14.05,14.05-14.05h27.2c7.76,0,14.05,6.29,14.05,14.05v81.35c7.25.55,12.96,6.61,12.96,14.01v25.54c0,7.76-6.29,14.05-14.05,14.05h-40.17Z" class="cls-1"/><path d="M936.19,1092.65c-7.76,0-14.05-6.29-14.05-14.05v-120.9c0-7.76,6.29-14.05,14.05-14.05h44.18c7.76,0,14.05,6.29,14.05,14.05v25.54c0,6.5-4.42,11.97-10.42,13.58,4.36,2.39,7.31,7.01,7.31,12.33v17.45c0,5.5-3.16,10.25-7.75,12.56,6.76,1.01,11.95,6.85,11.95,13.89v25.54c0,7.76-6.29,14.05-14.05,14.05h-45.28Z" class="cls-1"/></g><g><path d="M560.77,1089.53c-1.6,0-3.13-.27-4.56-.76-1.43.49-2.97.76-4.56.76h-27.2c-7.76,0-14.05-6.29-14.05-14.05v-120.9c0-7.76,6.29-14.05,14.05-14.05h27.2c1.6,0,3.13.27,4.56.76,1.43-.49,2.97-.76,4.56-.76h27.39c7.76,0,14.05,6.29,14.05,14.05v120.9c0,7.76-6.29,14.05-14.05,14.05h-27.39Z" class="cls-1"/><path d="M628.33,1090.81c-41.6,0-45.09-39.4-45.09-76.34,0-25.71,2.64-42.34,8.57-53.93,7.22-14.13,19.51-21.3,36.52-21.3s29.3,7.17,36.52,21.3c5.93,11.59,8.57,28.23,8.57,53.93,0,26.98-2.54,43.49-8.48,55.21-7.11,14.02-19.43,21.13-36.6,21.13Z" class="cls-1"/><path d="M676.71,1089.53c-7.76,0-14.05-6.29-14.05-14.05v-81.43c-6.9-.89-12.23-6.79-12.23-13.93v-25.54c0-7.76,6.29-14.05,14.05-14.05h51.67c7.76,0,14.05,6.29,14.05,14.05v25.54c0,7.14-5.33,13.04-12.23,13.93v81.43c0,7.76-6.29,14.05-14.05,14.05h-27.2Z" class="cls-1"/><path d="M779.68,1090.81c-16.72,0-28.24-5.61-35.21-17.14-5.46-9.03-7.69-20.8-7.69-40.64,0-5.42,3.07-10.12,7.56-12.46-3.96-6.19-7.56-15.97-7.56-31.08,0-45.35,30-50.25,42.9-50.25,10.59,0,25.69,1.67,34.47,16.13,6.24,10.28,7.52,24.45,7.52,42.57,0,4.76-2.37,8.97-5.99,11.51,5.41,8.1,7.82,17.81,7.82,31.3,0,12.38,0,50.06-43.81,50.06Z" class="cls-1"/><path d="M851.7,1089.53c-1.8,0-3.53-.34-5.11-.96-1.59.62-3.31.96-5.11.96h-27.2c-4.05,0-7.91-1.75-10.58-4.8-2.67-3.05-3.89-7.1-3.35-11.12l16.25-120.9c.94-6.97,6.89-12.18,13.92-12.18h37.61c7.03,0,12.98,5.19,13.92,12.16l16.43,120.9c.55,4.02-.67,8.08-3.34,11.13-2.67,3.06-6.53,4.81-10.58,4.81h-32.86Z" class="cls-1"/><path d="M891.79,1089.53c-7.76,0-14.05-6.29-14.05-14.05v-120.9c0-7.76,6.29-14.05,14.05-14.05h27.2c7.76,0,14.05,6.29,14.05,14.05v81.35c7.25.55,12.96,6.61,12.96,14.01v25.54c0,7.76-6.29,14.05-14.05,14.05h-40.17Z" class="cls-1"/><path d="M939,1089.53c-7.76,0-14.05-6.29-14.05-14.05v-120.9c0-7.76,6.29-14.05,14.05-14.05h44.18c7.76,0,14.05,6.29,14.05,14.05v25.54c0,6.5-4.42,11.97-10.42,13.58,4.36,2.39,7.31,7.01,7.31,12.33v17.45c0,5.5-3.16,10.25-7.75,12.56,6.76,1.01,11.95,6.85,11.95,13.89v25.54c0,7.76-6.29,14.05-14.05,14.05h-45.28Z" class="cls-1"/></g><g><path d="M563.58,1086.4c-1.6,0-3.13-.27-4.56-.76-1.43.49-2.97.76-4.56.76h-27.2c-7.76,0-14.05-6.29-14.05-14.05v-120.9c0-7.76,6.29-14.05,14.05-14.05h27.2c1.6,0,3.13.27,4.56.76,1.43-.49,2.97-.76,4.56-.76h27.39c7.76,0,14.05,6.29,14.05,14.05v120.9c0,7.76-6.29,14.05-14.05,14.05h-27.39Z" class="cls-1"/><path d="M631.14,1087.69c-41.6,0-45.09-39.4-45.09-76.34,0-25.71,2.64-42.34,8.57-53.93,7.22-14.13,19.51-21.3,36.52-21.3s29.3,7.17,36.52,21.3c5.93,11.59,8.57,28.23,8.57,53.93,0,26.98-2.54,43.49-8.48,55.21-7.11,14.02-19.43,21.13-36.6,21.13Z" class="cls-1"/><path d="M679.52,1086.4c-7.76,0-14.05-6.29-14.05-14.05v-81.43c-6.9-.89-12.23-6.79-12.23-13.93v-25.54c0-7.76,6.29-14.05,14.05-14.05h51.67c7.76,0,14.05,6.29,14.05,14.05v25.54c0,7.14-5.33,13.04-12.23,13.93v81.43c0,7.76-6.29,14.05-14.05,14.05h-27.2Z" class="cls-1"/><path d="M782.49,1087.69c-16.72,0-28.24-5.61-35.21-17.14-5.46-9.03-7.69-20.8-7.69-40.64,0-5.42,3.07-10.12,7.56-12.46-3.96-6.19-7.56-15.97-7.56-31.08,0-45.35,30-50.25,42.9-50.25,10.59,0,25.69,1.67,34.47,16.13,6.24,10.28,7.52,24.45,7.52,42.57,0,4.76-2.37,8.97-5.99,11.51,5.41,8.1,7.82,17.81,7.82,31.3,0,12.38,0,50.06-43.81,50.06Z" class="cls-1"/><path d="M854.51,1086.4c-1.8,0-3.53-.34-5.11-.96-1.59.62-3.31.96-5.11.96h-27.2c-4.05,0-7.91-1.75-10.58-4.8-2.67-3.05-3.89-7.1-3.35-11.12l16.25-120.9c.94-6.97,6.89-12.18,13.92-12.18h37.61c7.03,0,12.98,5.19,13.92,12.16l16.43,120.9c.55,4.02-.67,8.08-3.34,11.13-2.67,3.06-6.53,4.81-10.58,4.81h-32.86Z" class="cls-1"/><path d="M894.6,1086.4c-7.76,0-14.05-6.29-14.05-14.05v-120.9c0-7.76,6.29-14.05,14.05-14.05h27.2c7.76,0,14.05,6.29,14.05,14.05v81.35c7.25.55,12.96,6.61,12.96,14.01v25.54c0,7.76-6.29,14.05-14.05,14.05h-40.17Z" class="cls-1"/><path d="M941.81,1086.4c-7.76,0-14.05-6.29-14.05-14.05v-120.9c0-7.76,6.29-14.05,14.05-14.05h44.18c7.76,0,14.05,6.29,14.05,14.05v25.54c0,6.5-4.42,11.97-10.42,13.58,4.36,2.39,7.31,7.01,7.31,12.33v17.45c0,5.5-3.16,10.25-7.75,12.56,6.76,1.01,11.95,6.85,11.95,13.89v25.54c0,7.76-6.29,14.05-14.05,14.05h-45.28Z" class="cls-1"/></g><g><path d="M566.39,1083.28c-1.6,0-3.13-.27-4.56-.76-1.43.49-2.97.76-4.56.76h-27.2c-7.76,0-14.05-6.29-14.05-14.05v-120.9c0-7.76,6.29-14.05,14.05-14.05h27.2c1.6,0,3.13.27,4.56.76,1.43-.49,2.97-.76,4.56-.76h27.39c7.76,0,14.05,6.29,14.05,14.05v120.9c0,7.76-6.29,14.05-14.05,14.05h-27.39Z" class="cls-1"/><path d="M633.95,1084.57c-41.6,0-45.09-39.4-45.09-76.34,0-25.71,2.64-42.34,8.57-53.93,7.22-14.13,19.51-21.3,36.52-21.3s29.3,7.17,36.52,21.3c5.93,11.59,8.57,28.23,8.57,53.93,0,26.98-2.54,43.49-8.48,55.21-7.11,14.02-19.43,21.13-36.6,21.13Z" class="cls-1"/><path d="M682.33,1083.28c-7.76,0-14.05-6.29-14.05-14.05v-81.43c-6.9-.89-12.23-6.79-12.23-13.93v-25.54c0-7.76,6.29-14.05,14.05-14.05h51.67c7.76,0,14.05,6.29,14.05,14.05v25.54c0,7.14-5.33,13.04-12.23,13.93v81.43c0,7.76-6.29,14.05-14.05,14.05h-27.2Z" class="cls-1"/><path d="M785.3,1084.57c-16.72,0-28.24-5.61-35.21-17.14-5.46-9.03-7.69-20.8-7.69-40.64,0-5.42,3.07-10.12,7.56-12.46-3.96-6.19-7.56-15.97-7.56-31.08,0-45.35,30-50.25,42.9-50.25,10.59,0,25.69,1.67,34.47,16.13,6.24,10.28,7.52,24.45,7.52,42.57,0,4.76-2.37,8.97-5.99,11.51,5.41,8.1,7.82,17.81,7.82,31.3,0,12.38,0,50.06-43.81,50.06Z" class="cls-1"/><path d="M857.32,1083.28c-1.8,0-3.53-.34-5.11-.96-1.59.62-3.31.96-5.11.96h-27.2c-4.05,0-7.91-1.75-10.58-4.8-2.67-3.05-3.89-7.1-3.35-11.12l16.25-120.9c.94-6.97,6.89-12.18,13.92-12.18h37.61c7.03,0,12.98,5.19,13.92,12.16l16.43,120.9c.55,4.02-.67,8.08-3.34,11.13-2.67,3.06-6.53,4.81-10.58,4.81h-32.86Z" class="cls-1"/><path d="M897.41,1083.28c-7.76,0-14.05-6.29-14.05-14.05v-120.9c0-7.76,6.29-14.05,14.05-14.05h27.2c7.76,0,14.05,6.29,14.05,14.05v81.35c7.25.55,12.96,6.61,12.96,14.01v25.54c0,7.76-6.29,14.05-14.05,14.05h-40.17Z" class="cls-1"/><path d="M944.62,1083.28c-7.76,0-14.05-6.29-14.05-14.05v-120.9c0-7.76,6.29-14.05,14.05-14.05h44.18c7.76,0,14.05,6.29,14.05,14.05v25.54c0,6.5-4.42,11.97-10.42,13.58,4.36,2.39,7.31,7.01,7.31,12.33v17.45c0,5.5-3.16,10.25-7.75,12.56,6.76,1.01,11.95,6.85,11.95,13.89v25.54c0,7.76-6.29,14.05-14.05,14.05h-45.28Z" class="cls-1"/></g><g><path d="M569.2,1080.16c-1.6,0-3.13-.27-4.56-.76-1.43.49-2.97.76-4.56.76h-27.2c-7.76,0-14.05-6.29-14.05-14.05v-120.9c0-7.76,6.29-14.05,14.05-14.05h27.2c1.6,0,3.13.27,4.56.76,1.43-.49,2.97-.76,4.56-.76h27.39c7.76,0,14.05,6.29,14.05,14.05v120.9c0,7.76-6.29,14.05-14.05,14.05h-27.39Z" class="cls-1"/><path d="M636.76,1081.45c-41.6,0-45.09-39.4-45.09-76.34,0-25.71,2.64-42.34,8.57-53.93,7.22-14.13,19.51-21.3,36.52-21.3s29.3,7.17,36.52,21.3c5.93,11.59,8.57,28.23,8.57,53.93,0,26.98-2.54,43.49-8.48,55.21-7.11,14.02-19.43,21.13-36.6,21.13Z" class="cls-1"/><path d="M685.14,1080.16c-7.76,0-14.05-6.29-14.05-14.05v-81.43c-6.9-.89-12.23-6.79-12.23-13.93v-25.54c0-7.76,6.29-14.05,14.05-14.05h51.67c7.76,0,14.05,6.29,14.05,14.05v25.54c0,7.14-5.33,13.04-12.23,13.93v81.43c0,7.76-6.29,14.05-14.05,14.05h-27.2Z" class="cls-1"/><path d="M788.11,1081.45c-16.72,0-28.24-5.61-35.21-17.14-5.46-9.03-7.69-20.8-7.69-40.64,0-5.42,3.07-10.12,7.56-12.46-3.96-6.19-7.56-15.97-7.56-31.08,0-45.35,30-50.25,42.9-50.25,10.59,0,25.69,1.67,34.47,16.13,6.24,10.28,7.52,24.45,7.52,42.57,0,4.76-2.37,8.97-5.99,11.51,5.41,8.1,7.82,17.81,7.82,31.3,0,12.38,0,50.06-43.81,50.06Z" class="cls-1"/><path d="M860.13,1080.16c-1.8,0-3.53-.34-5.11-.96-1.59.62-3.31.96-5.11.96h-27.2c-4.05,0-7.91-1.75-10.58-4.8-2.67-3.05-3.89-7.1-3.35-11.12l16.25-120.9c.94-6.97,6.89-12.18,13.92-12.18h37.61c7.03,0,12.98,5.19,13.92,12.16l16.43,120.9c.55,4.02-.67,8.08-3.34,11.13-2.67,3.06-6.53,4.81-10.58,4.81h-32.86Z" class="cls-1"/><path d="M900.22,1080.16c-7.76,0-14.05-6.29-14.05-14.05v-120.9c0-7.76,6.29-14.05,14.05-14.05h27.2c7.76,0,14.05,6.29,14.05,14.05v81.35c7.25.55,12.96,6.61,12.96,14.01v25.54c0,7.76-6.29,14.05-14.05,14.05h-40.17Z" class="cls-1"/><path d="M947.43,1080.16c-7.76,0-14.05-6.29-14.05-14.05v-120.9c0-7.76,6.29-14.05,14.05-14.05h44.18c7.76,0,14.05,6.29,14.05,14.05v25.54c0,6.5-4.42,11.97-10.42,13.58,4.36,2.39,7.31,7.01,7.31,12.33v17.45c0,5.5-3.16,10.25-7.75,12.56,6.76,1.01,11.95,6.85,11.95,13.89v25.54c0,7.76-6.29,14.05-14.05,14.05h-45.28Z" class="cls-1"/></g><g><path d="M572.01,1077.04c-1.6,0-3.13-.27-4.56-.76-1.43.49-2.97.76-4.56.76h-27.2c-7.76,0-14.05-6.29-14.05-14.05v-120.9c0-7.76,6.29-14.05,14.05-14.05h27.2c1.6,0,3.13.27,4.56.76,1.43-.49,2.97-.76,4.56-.76h27.39c7.76,0,14.05,6.29,14.05,14.05v120.9c0,7.76-6.29,14.05-14.05,14.05h-27.39Z" class="cls-1"/><path d="M639.57,1078.32c-41.6,0-45.09-39.4-45.09-76.34,0-25.71,2.64-42.34,8.57-53.93,7.22-14.13,19.51-21.3,36.52-21.3s29.3,7.17,36.52,21.3c5.93,11.59,8.57,28.23,8.57,53.93,0,26.98-2.54,43.49-8.48,55.21-7.11,14.02-19.43,21.13-36.6,21.13Z" class="cls-1"/><path d="M687.95,1077.04c-7.76,0-14.05-6.29-14.05-14.05v-81.43c-6.9-.89-12.23-6.79-12.23-13.93v-25.54c0-7.76,6.29-14.05,14.05-14.05h51.67c7.76,0,14.05,6.29,14.05,14.05v25.54c0,7.14-5.33,13.04-12.23,13.93v81.43c0,7.76-6.29,14.05-14.05,14.05h-27.2Z" class="cls-1"/><path d="M790.92,1078.32c-16.72,0-28.24-5.61-35.21-17.14-5.46-9.03-7.69-20.8-7.69-40.64,0-5.42,3.07-10.12,7.56-12.46-3.96-6.19-7.56-15.97-7.56-31.08,0-45.35,30-50.25,42.9-50.25,10.59,0,25.69,1.67,34.47,16.13,6.24,10.28,7.52,24.45,7.52,42.57,0,4.76-2.37,8.97-5.99,11.51,5.41,8.1,7.82,17.81,7.82,31.3,0,12.38,0,50.06-43.81,50.06Z" class="cls-1"/><path d="M862.94,1077.04c-1.8,0-3.53-.34-5.11-.96-1.59.62-3.31.96-5.11.96h-27.2c-4.05,0-7.91-1.75-10.58-4.8-2.67-3.05-3.89-7.1-3.35-11.12l16.25-120.9c.94-6.97,6.89-12.18,13.92-12.18h37.61c7.03,0,12.98,5.19,13.92,12.16l16.43,120.9c.55,4.02-.67,8.08-3.34,11.13-2.67,3.06-6.53,4.81-10.58,4.81h-32.86Z" class="cls-1"/><path d="M903.03,1077.04c-7.76,0-14.05-6.29-14.05-14.05v-120.9c0-7.76,6.29-14.05,14.05-14.05h27.2c7.76,0,14.05,6.29,14.05,14.05v81.35c7.25.55,12.96,6.61,12.96,14.01v25.54c0,7.76-6.29,14.05-14.05,14.05h-40.17Z" class="cls-1"/><path d="M950.24,1077.04c-7.76,0-14.05-6.29-14.05-14.05v-120.9c0-7.76,6.29-14.05,14.05-14.05h44.18c7.76,0,14.05,6.29,14.05,14.05v25.54c0,6.5-4.42,11.97-10.42,13.58,4.36,2.39,7.31,7.01,7.31,12.33v17.45c0,5.5-3.16,10.25-7.75,12.56,6.76,1.01,11.95,6.85,11.95,13.89v25.54c0,7.76-6.29,14.05-14.05,14.05h-45.28Z" class="cls-1"/></g><g><path d="M574.81,1073.91c-1.6,0-3.13-.27-4.56-.76-1.43.49-2.97.76-4.56.76h-27.2c-7.76,0-14.05-6.29-14.05-14.05v-120.9c0-7.76,6.29-14.05,14.05-14.05h27.2c1.6,0,3.13.27,4.56.76,1.43-.49,2.97-.76,4.56-.76h27.39c7.76,0,14.05,6.29,14.05,14.05v120.9c0,7.76-6.29,14.05-14.05,14.05h-27.39Z" class="cls-1"/><path d="M642.38,1075.2c-41.6,0-45.09-39.4-45.09-76.34,0-25.71,2.64-42.34,8.57-53.93,7.22-14.13,19.51-21.3,36.52-21.3s29.3,7.17,36.52,21.3c5.93,11.59,8.57,28.23,8.57,53.93,0,26.98-2.54,43.49-8.48,55.21-7.11,14.02-19.43,21.13-36.6,21.13Z" class="cls-1"/><path d="M690.76,1073.91c-7.76,0-14.05-6.29-14.05-14.05v-81.43c-6.9-.89-12.23-6.79-12.23-13.93v-25.54c0-7.76,6.29-14.05,14.05-14.05h51.67c7.76,0,14.05,6.29,14.05,14.05v25.54c0,7.14-5.33,13.04-12.23,13.93v81.43c0,7.76-6.29,14.05-14.05,14.05h-27.2Z" class="cls-1"/><path d="M793.73,1075.2c-16.72,0-28.24-5.61-35.21-17.14-5.46-9.03-7.69-20.8-7.69-40.64,0-5.42,3.07-10.12,7.56-12.46-3.96-6.19-7.56-15.97-7.56-31.08,0-45.35,30-50.25,42.9-50.25,10.59,0,25.69,1.67,34.47,16.13,6.24,10.28,7.52,24.45,7.52,42.57,0,4.76-2.37,8.97-5.99,11.51,5.41,8.1,7.82,17.81,7.82,31.3,0,12.38,0,50.06-43.81,50.06Z" class="cls-1"/><path d="M865.75,1073.91c-1.8,0-3.53-.34-5.11-.96-1.59.62-3.31.96-5.11.96h-27.2c-4.05,0-7.91-1.75-10.58-4.8-2.67-3.05-3.89-7.1-3.35-11.12l16.25-120.9c.94-6.97,6.89-12.18,13.92-12.18h37.61c7.03,0,12.98,5.19,13.92,12.16l16.43,120.9c.55,4.02-.67,8.08-3.34,11.13-2.67,3.06-6.53,4.81-10.58,4.81h-32.86Z" class="cls-1"/><path d="M905.84,1073.91c-7.76,0-14.05-6.29-14.05-14.05v-120.9c0-7.76,6.29-14.05,14.05-14.05h27.2c7.76,0,14.05,6.29,14.05,14.05v81.35c7.25.55,12.96,6.61,12.96,14.01v25.54c0,7.76-6.29,14.05-14.05,14.05h-40.17Z" class="cls-1"/><path d="M953.05,1073.91c-7.76,0-14.05-6.29-14.05-14.05v-120.9c0-7.76,6.29-14.05,14.05-14.05h44.18c7.76,0,14.05,6.29,14.05,14.05v25.54c0,6.5-4.42,11.97-10.42,13.58,4.36,2.39,7.31,7.01,7.31,12.33v17.45c0,5.5-3.16,10.25-7.75,12.56,6.76,1.01,11.95,6.85,11.95,13.89v25.54c0,7.76-6.29,14.05-14.05,14.05h-45.28Z" class="cls-1"/></g><g><path d="M577.62,1070.79c-1.6,0-3.13-.27-4.56-.76-1.43.49-2.97.76-4.56.76h-27.2c-7.76,0-14.05-6.29-14.05-14.05v-120.9c0-7.76,6.29-14.05,14.05-14.05h27.2c1.6,0,3.13.27,4.56.76,1.43-.49,2.97-.76,4.56-.76h27.39c7.76,0,14.05,6.29,14.05,14.05v120.9c0,7.76-6.29,14.05-14.05,14.05h-27.39Z" class="cls-1"/><path d="M645.19,1072.08c-41.6,0-45.09-39.4-45.09-76.34,0-25.71,2.64-42.34,8.57-53.93,7.22-14.13,19.51-21.3,36.52-21.3s29.3,7.17,36.52,21.3c5.93,11.59,8.57,28.23,8.57,53.93,0,26.98-2.54,43.49-8.48,55.21-7.11,14.02-19.43,21.13-36.6,21.13Z" class="cls-1"/><path d="M693.57,1070.79c-7.76,0-14.05-6.29-14.05-14.05v-81.43c-6.9-.89-12.23-6.79-12.23-13.93v-25.54c0-7.76,6.29-14.05,14.05-14.05h51.67c7.76,0,14.05,6.29,14.05,14.05v25.54c0,7.14-5.33,13.04-12.23,13.93v81.43c0,7.76-6.29,14.05-14.05,14.05h-27.2Z" class="cls-1"/><path d="M796.54,1072.08c-16.72,0-28.24-5.61-35.21-17.14-5.46-9.03-7.69-20.8-7.69-40.64,0-5.42,3.07-10.12,7.56-12.46-3.96-6.19-7.56-15.97-7.56-31.08,0-45.35,30-50.25,42.9-50.25,10.59,0,25.69,1.67,34.47,16.13,6.24,10.28,7.52,24.45,7.52,42.57,0,4.76-2.37,8.97-5.99,11.51,5.41,8.1,7.82,17.81,7.82,31.3,0,12.38,0,50.06-43.81,50.06Z" class="cls-1"/><path d="M868.56,1070.79c-1.8,0-3.53-.34-5.11-.96-1.59.62-3.31.96-5.11.96h-27.2c-4.05,0-7.91-1.75-10.58-4.8-2.67-3.05-3.89-7.1-3.35-11.12l16.25-120.9c.94-6.97,6.89-12.18,13.92-12.18h37.61c7.03,0,12.98,5.19,13.92,12.16l16.43,120.9c.55,4.02-.67,8.08-3.34,11.13-2.67,3.06-6.53,4.81-10.58,4.81h-32.86Z" class="cls-1"/><path d="M908.65,1070.79c-7.76,0-14.05-6.29-14.05-14.05v-120.9c0-7.76,6.29-14.05,14.05-14.05h27.2c7.76,0,14.05,6.29,14.05,14.05v81.35c7.25.55,12.96,6.61,12.96,14.01v25.54c0,7.76-6.29,14.05-14.05,14.05h-40.17Z" class="cls-1"/><path d="M955.86,1070.79c-7.76,0-14.05-6.29-14.05-14.05v-120.9c0-7.76,6.29-14.05,14.05-14.05h44.18c7.76,0,14.05,6.29,14.05,14.05v25.54c0,6.5-4.42,11.97-10.42,13.58,4.36,2.39,7.31,7.01,7.31,12.33v17.45c0,5.5-3.16,10.25-7.75,12.56,6.76,1.01,11.95,6.85,11.95,13.89v25.54c0,7.76-6.29,14.05-14.05,14.05h-45.28Z" class="cls-1"/></g><g><path d="M580.43,1067.67c-1.6,0-3.13-.27-4.56-.76-1.43.49-2.97.76-4.56.76h-27.2c-7.76,0-14.05-6.29-14.05-14.05v-120.9c0-7.76,6.29-14.05,14.05-14.05h27.2c1.6,0,3.13.27,4.56.76,1.43-.49,2.97-.76,4.56-.76h27.39c7.76,0,14.05,6.29,14.05,14.05v120.9c0,7.76-6.29,14.05-14.05,14.05h-27.39Z" class="cls-1"/><path d="M648,1068.96c-41.6,0-45.09-39.4-45.09-76.34,0-25.71,2.64-42.34,8.57-53.93,7.22-14.13,19.51-21.3,36.52-21.3s29.3,7.17,36.52,21.3c5.93,11.59,8.57,28.23,8.57,53.93,0,26.98-2.54,43.49-8.48,55.21-7.11,14.02-19.43,21.13-36.6,21.13Z" class="cls-1"/><path d="M696.38,1067.67c-7.76,0-14.05-6.29-14.05-14.05v-81.43c-6.9-.89-12.23-6.79-12.23-13.93v-25.54c0-7.76,6.29-14.05,14.05-14.05h51.67c7.76,0,14.05,6.29,14.05,14.05v25.54c0,7.14-5.33,13.04-12.23,13.93v81.43c0,7.76-6.29,14.05-14.05,14.05h-27.2Z" class="cls-1"/><path d="M799.35,1068.96c-16.72,0-28.24-5.61-35.21-17.14-5.46-9.03-7.69-20.8-7.69-40.64,0-5.42,3.07-10.12,7.56-12.46-3.96-6.19-7.56-15.97-7.56-31.08,0-45.35,30-50.25,42.9-50.25,10.59,0,25.69,1.67,34.47,16.13,6.24,10.28,7.52,24.45,7.52,42.57,0,4.76-2.37,8.97-5.99,11.51,5.41,8.1,7.82,17.81,7.82,31.3,0,12.38,0,50.06-43.81,50.06Z" class="cls-1"/><path d="M871.37,1067.67c-1.8,0-3.53-.34-5.11-.96-1.59.62-3.31.96-5.11.96h-27.2c-4.05,0-7.91-1.75-10.58-4.8-2.67-3.05-3.89-7.1-3.35-11.12l16.25-120.9c.94-6.97,6.89-12.18,13.92-12.18h37.61c7.03,0,12.98,5.19,13.92,12.16l16.43,120.9c.55,4.02-.67,8.08-3.34,11.13-2.67,3.06-6.53,4.81-10.58,4.81h-32.86Z" class="cls-1"/><path d="M911.46,1067.67c-7.76,0-14.05-6.29-14.05-14.05v-120.9c0-7.76,6.29-14.05,14.05-14.05h27.2c7.76,0,14.05,6.29,14.05,14.05v81.35c7.25.55,12.96,6.61,12.96,14.01v25.54c0,7.76-6.29,14.05-14.05,14.05h-40.17Z" class="cls-1"/><path d="M958.67,1067.67c-7.76,0-14.05-6.29-14.05-14.05v-120.9c0-7.76,6.29-14.05,14.05-14.05h44.18c7.76,0,14.05,6.29,14.05,14.05v25.54c0,6.5-4.42,11.97-10.42,13.58,4.36,2.39,7.31,7.01,7.31,12.33v17.45c0,5.5-3.16,10.25-7.75,12.56,6.76,1.01,11.95,6.85,11.95,13.89v25.54c0,7.76-6.29,14.05-14.05,14.05h-45.28Z" class="cls-1"/></g><g><path d="M583.24,1064.55c-1.6,0-3.13-.27-4.56-.76-1.43.49-2.97.76-4.56.76h-27.2c-7.76,0-14.05-6.29-14.05-14.05v-120.9c0-7.76,6.29-14.05,14.05-14.05h27.2c1.6,0,3.13.27,4.56.76,1.43-.49,2.97-.76,4.56-.76h27.39c7.76,0,14.05,6.29,14.05,14.05v120.9c0,7.76-6.29,14.05-14.05,14.05h-27.39Z" class="cls-1"/><path d="M650.81,1065.83c-41.6,0-45.09-39.4-45.09-76.34,0-25.71,2.64-42.34,8.57-53.93,7.22-14.13,19.51-21.3,36.52-21.3s29.3,7.17,36.52,21.3c5.93,11.59,8.57,28.23,8.57,53.93,0,26.98-2.54,43.49-8.48,55.21-7.11,14.02-19.43,21.13-36.6,21.13Z" class="cls-1"/><path d="M699.19,1064.55c-7.76,0-14.05-6.29-14.05-14.05v-81.43c-6.9-.89-12.23-6.79-12.23-13.93v-25.54c0-7.76,6.29-14.05,14.05-14.05h51.67c7.76,0,14.05,6.29,14.05,14.05v25.54c0,7.14-5.33,13.04-12.23,13.93v81.43c0,7.76-6.29,14.05-14.05,14.05h-27.2Z" class="cls-1"/><path d="M802.16,1065.83c-16.72,0-28.24-5.61-35.21-17.14-5.46-9.03-7.69-20.8-7.69-40.64,0-5.42,3.07-10.12,7.56-12.46-3.96-6.19-7.56-15.97-7.56-31.08,0-45.35,30-50.25,42.9-50.25,10.59,0,25.69,1.67,34.47,16.13,6.24,10.28,7.52,24.45,7.52,42.57,0,4.76-2.37,8.97-5.99,11.51,5.41,8.1,7.82,17.81,7.82,31.3,0,12.38,0,50.06-43.81,50.06Z" class="cls-1"/><path d="M874.18,1064.55c-1.8,0-3.53-.34-5.11-.96-1.59.62-3.31.96-5.11.96h-27.2c-4.05,0-7.91-1.75-10.58-4.8-2.67-3.05-3.89-7.1-3.35-11.12l16.25-120.9c.94-6.97,6.89-12.18,13.92-12.18h37.61c7.03,0,12.98,5.19,13.92,12.16l16.43,120.9c.55,4.02-.67,8.08-3.34,11.13-2.67,3.06-6.53,4.81-10.58,4.81h-32.86Z" class="cls-1"/><path d="M914.27,1064.55c-7.76,0-14.05-6.29-14.05-14.05v-120.9c0-7.76,6.29-14.05,14.05-14.05h27.2c7.76,0,14.05,6.29,14.05,14.05v81.35c7.25.55,12.96,6.61,12.96,14.01v25.54c0,7.76-6.29,14.05-14.05,14.05h-40.17Z" class="cls-1"/><path d="M961.48,1064.55c-7.76,0-14.05-6.29-14.05-14.05v-120.9c0-7.76,6.29-14.05,14.05-14.05h44.18c7.76,0,14.05,6.29,14.05,14.05v25.54c0,6.5-4.42,11.97-10.42,13.58,4.36,2.39,7.31,7.01,7.31,12.33v17.45c0,5.5-3.16,10.25-7.75,12.56,6.76,1.01,11.95,6.85,11.95,13.89v25.54c0,7.76-6.29,14.05-14.05,14.05h-45.28Z" class="cls-1"/></g><g><path d="M586.05,1061.43c-1.6,0-3.13-.27-4.56-.76-1.43.49-2.97.76-4.56.76h-27.2c-7.76,0-14.05-6.29-14.05-14.05v-120.9c0-7.76,6.29-14.05,14.05-14.05h27.2c1.6,0,3.13.27,4.56.76,1.43-.49,2.97-.76,4.56-.76h27.39c7.76,0,14.05,6.29,14.05,14.05v120.9c0,7.76-6.29,14.05-14.05,14.05h-27.39Z" class="cls-1"/><path d="M653.62,1062.71c-41.6,0-45.09-39.4-45.09-76.34,0-25.71,2.64-42.34,8.57-53.93,7.22-14.13,19.51-21.3,36.52-21.3s29.3,7.17,36.52,21.3c5.93,11.59,8.57,28.23,8.57,53.93,0,26.98-2.54,43.49-8.48,55.21-7.11,14.02-19.43,21.13-36.6,21.13Z" class="cls-1"/><path d="M702,1061.43c-7.76,0-14.05-6.29-14.05-14.05v-81.43c-6.9-.89-12.23-6.79-12.23-13.93v-25.54c0-7.76,6.29-14.05,14.05-14.05h51.67c7.76,0,14.05,6.29,14.05,14.05v25.54c0,7.14-5.33,13.04-12.23,13.93v81.43c0,7.76-6.29,14.05-14.05,14.05h-27.2Z" class="cls-1"/><path d="M804.97,1062.71c-16.72,0-28.24-5.61-35.21-17.14-5.46-9.03-7.69-20.8-7.69-40.64,0-5.42,3.07-10.12,7.56-12.46-3.96-6.19-7.56-15.97-7.56-31.08,0-45.35,30-50.25,42.9-50.25,10.59,0,25.69,1.67,34.47,16.13,6.24,10.28,7.52,24.45,7.52,42.57,0,4.76-2.37,8.97-5.99,11.51,5.41,8.1,7.82,17.81,7.82,31.3,0,12.38,0,50.06-43.81,50.06Z" class="cls-1"/><path d="M876.99,1061.43c-1.8,0-3.53-.34-5.11-.96-1.59.62-3.31.96-5.11.96h-27.2c-4.05,0-7.91-1.75-10.58-4.8-2.67-3.05-3.89-7.1-3.35-11.12l16.25-120.9c.94-6.97,6.89-12.18,13.92-12.18h37.61c7.03,0,12.98,5.19,13.92,12.16l16.43,120.9c.55,4.02-.67,8.08-3.34,11.13-2.67,3.06-6.53,4.81-10.58,4.81h-32.86Z" class="cls-1"/><path d="M917.08,1061.43c-7.76,0-14.05-6.29-14.05-14.05v-120.9c0-7.76,6.29-14.05,14.05-14.05h27.2c7.76,0,14.05,6.29,14.05,14.05v81.35c7.25.55,12.96,6.61,12.96,14.01v25.54c0,7.76-6.29,14.05-14.05,14.05h-40.17Z" class="cls-1"/><path d="M964.29,1061.43c-7.76,0-14.05-6.29-14.05-14.05v-120.9c0-7.76,6.29-14.05,14.05-14.05h44.18c7.76,0,14.05,6.29,14.05,14.05v25.54c0,6.5-4.42,11.97-10.42,13.58,4.36,2.39,7.31,7.01,7.31,12.33v17.45c0,5.5-3.16,10.25-7.75,12.56,6.76,1.01,11.95,6.85,11.95,13.89v25.54c0,7.76-6.29,14.05-14.05,14.05h-45.28Z" class="cls-1"/></g><g><path d="M588.86,1058.3c-1.6,0-3.13-.27-4.56-.76-1.43.49-2.97.76-4.56.76h-27.2c-7.76,0-14.05-6.29-14.05-14.05v-120.9c0-7.76,6.29-14.05,14.05-14.05h27.2c1.6,0,3.13.27,4.56.76,1.43-.49,2.97-.76,4.56-.76h27.39c7.76,0,14.05,6.29,14.05,14.05v120.9c0,7.76-6.29,14.05-14.05,14.05h-27.39Z" class="cls-1"/><path d="M656.43,1059.59c-41.6,0-45.09-39.4-45.09-76.34,0-25.71,2.64-42.34,8.57-53.93,7.22-14.13,19.51-21.3,36.52-21.3s29.3,7.17,36.52,21.3c5.93,11.59,8.57,28.23,8.57,53.93,0,26.98-2.54,43.49-8.48,55.21-7.11,14.02-19.43,21.13-36.6,21.13Z" class="cls-1"/><path d="M704.81,1058.3c-7.76,0-14.05-6.29-14.05-14.05v-81.43c-6.9-.89-12.23-6.79-12.23-13.93v-25.54c0-7.76,6.29-14.05,14.05-14.05h51.67c7.76,0,14.05,6.29,14.05,14.05v25.54c0,7.14-5.33,13.04-12.23,13.93v81.43c0,7.76-6.29,14.05-14.05,14.05h-27.2Z" class="cls-1"/><path d="M807.78,1059.59c-16.72,0-28.24-5.61-35.21-17.14-5.46-9.03-7.69-20.8-7.69-40.64,0-5.42,3.07-10.12,7.56-12.46-3.96-6.19-7.56-15.97-7.56-31.08,0-45.35,30-50.25,42.9-50.25,10.59,0,25.69,1.67,34.47,16.13,6.24,10.28,7.52,24.45,7.52,42.57,0,4.76-2.37,8.97-5.99,11.51,5.41,8.1,7.82,17.81,7.82,31.3,0,12.38,0,50.06-43.81,50.06Z" class="cls-1"/><path d="M879.8,1058.3c-1.8,0-3.53-.34-5.11-.96-1.59.62-3.31.96-5.11.96h-27.2c-4.05,0-7.91-1.75-10.58-4.8-2.67-3.05-3.89-7.1-3.35-11.12l16.25-120.9c.94-6.97,6.89-12.18,13.92-12.18h37.61c7.03,0,12.98,5.19,13.92,12.16l16.43,120.9c.55,4.02-.67,8.08-3.34,11.13-2.67,3.06-6.53,4.81-10.58,4.81h-32.86Z" class="cls-1"/><path d="M919.89,1058.3c-7.76,0-14.05-6.29-14.05-14.05v-120.9c0-7.76,6.29-14.05,14.05-14.05h27.2c7.76,0,14.05,6.29,14.05,14.05v81.35c7.25.55,12.96,6.61,12.96,14.01v25.54c0,7.76-6.29,14.05-14.05,14.05h-40.17Z" class="cls-1"/><path d="M967.1,1058.3c-7.76,0-14.05-6.29-14.05-14.05v-120.9c0-7.76,6.29-14.05,14.05-14.05h44.18c7.76,0,14.05,6.29,14.05,14.05v25.54c0,6.5-4.42,11.97-10.42,13.58,4.36,2.39,7.31,7.01,7.31,12.33v17.45c0,5.5-3.16,10.25-7.75,12.56,6.76,1.01,11.95,6.85,11.95,13.89v25.54c0,7.76-6.29,14.05-14.05,14.05h-45.28Z" class="cls-1"/></g><g><path d="M591.67,1055.18c-1.6,0-3.13-.27-4.56-.76-1.43.49-2.97.76-4.56.76h-27.2c-7.76,0-14.05-6.29-14.05-14.05v-120.9c0-7.76,6.29-14.05,14.05-14.05h27.2c1.6,0,3.13.27,4.56.76,1.43-.49,2.97-.76,4.56-.76h27.39c7.76,0,14.05,6.29,14.05,14.05v120.9c0,7.76-6.29,14.05-14.05,14.05h-27.39Z" class="cls-1"/><path d="M659.24,1056.47c-41.6,0-45.09-39.4-45.09-76.34,0-25.71,2.64-42.34,8.57-53.93,7.22-14.13,19.51-21.3,36.52-21.3s29.3,7.17,36.52,21.3c5.93,11.59,8.57,28.23,8.57,53.93,0,26.98-2.54,43.49-8.48,55.21-7.11,14.02-19.43,21.13-36.6,21.13Z" class="cls-1"/><path d="M707.62,1055.18c-7.76,0-14.05-6.29-14.05-14.05v-81.43c-6.9-.89-12.23-6.79-12.23-13.93v-25.54c0-7.76,6.29-14.05,14.05-14.05h51.67c7.76,0,14.05,6.29,14.05,14.05v25.54c0,7.14-5.33,13.04-12.23,13.93v81.43c0,7.76-6.29,14.05-14.05,14.05h-27.2Z" class="cls-1"/><path d="M810.59,1056.47c-16.72,0-28.24-5.61-35.21-17.14-5.46-9.03-7.69-20.8-7.69-40.64,0-5.42,3.07-10.12,7.56-12.46-3.96-6.19-7.56-15.97-7.56-31.08,0-45.35,30-50.25,42.9-50.25,10.59,0,25.69,1.67,34.47,16.13,6.24,10.28,7.52,24.45,7.52,42.57,0,4.76-2.37,8.97-5.99,11.51,5.41,8.1,7.82,17.81,7.82,31.3,0,12.38,0,50.06-43.81,50.06Z" class="cls-1"/><path d="M882.61,1055.18c-1.8,0-3.53-.34-5.11-.96-1.59.62-3.31.96-5.11.96h-27.2c-4.05,0-7.91-1.75-10.58-4.8-2.67-3.05-3.89-7.1-3.35-11.12l16.25-120.9c.94-6.97,6.89-12.18,13.92-12.18h37.61c7.03,0,12.98,5.19,13.92,12.16l16.43,120.9c.55,4.02-.67,8.08-3.34,11.13-2.67,3.06-6.53,4.81-10.58,4.81h-32.86Z" class="cls-1"/><path d="M922.7,1055.18c-7.76,0-14.05-6.29-14.05-14.05v-120.9c0-7.76,6.29-14.05,14.05-14.05h27.2c7.76,0,14.05,6.29,14.05,14.05v81.35c7.25.55,12.96,6.61,12.96,14.01v25.54c0,7.76-6.29,14.05-14.05,14.05h-40.17Z" class="cls-1"/><path d="M969.91,1055.18c-7.76,0-14.05-6.29-14.05-14.05v-120.9c0-7.76,6.29-14.05,14.05-14.05h44.18c7.76,0,14.05,6.29,14.05,14.05v25.54c0,6.5-4.42,11.97-10.42,13.58,4.36,2.39,7.31,7.01,7.31,12.33v17.45c0,5.5-3.16,10.25-7.75,12.56,6.76,1.01,11.95,6.85,11.95,13.89v25.54c0,7.76-6.29,14.05-14.05,14.05h-45.28Z" class="cls-1"/></g><g><path d="M594.48,1052.06c-1.6,0-3.13-.27-4.56-.76-1.43.49-2.97.76-4.56.76h-27.2c-7.76,0-14.05-6.29-14.05-14.05v-120.9c0-7.76,6.29-14.05,14.05-14.05h27.2c1.6,0,3.13.27,4.56.76,1.43-.49,2.97-.76,4.56-.76h27.39c7.76,0,14.05,6.29,14.05,14.05v120.9c0,7.76-6.29,14.05-14.05,14.05h-27.39Z" class="cls-1"/><path d="M662.05,1053.35c-41.6,0-45.09-39.4-45.09-76.34,0-25.71,2.64-42.34,8.57-53.93,7.22-14.13,19.51-21.3,36.52-21.3s29.3,7.17,36.52,21.3c5.93,11.59,8.57,28.23,8.57,53.93,0,26.98-2.54,43.49-8.48,55.21-7.11,14.02-19.43,21.13-36.6,21.13Z" class="cls-1"/><path d="M710.43,1052.06c-7.76,0-14.05-6.29-14.05-14.05v-81.43c-6.9-.89-12.23-6.79-12.23-13.93v-25.54c0-7.76,6.29-14.05,14.05-14.05h51.67c7.76,0,14.05,6.29,14.05,14.05v25.54c0,7.14-5.33,13.04-12.23,13.93v81.43c0,7.76-6.29,14.05-14.05,14.05h-27.2Z" class="cls-1"/><path d="M813.4,1053.35c-16.72,0-28.24-5.61-35.21-17.14-5.46-9.03-7.69-20.8-7.69-40.64,0-5.42,3.07-10.12,7.56-12.46-3.96-6.19-7.56-15.97-7.56-31.08,0-45.35,30-50.25,42.9-50.25,10.59,0,25.69,1.67,34.47,16.13,6.24,10.28,7.52,24.45,7.52,42.57,0,4.76-2.37,8.97-5.99,11.51,5.41,8.1,7.82,17.81,7.82,31.3,0,12.38,0,50.06-43.81,50.06Z" class="cls-1"/><path d="M885.42,1052.06c-1.8,0-3.53-.34-5.11-.96-1.59.62-3.31.96-5.11.96h-27.2c-4.05,0-7.91-1.75-10.58-4.8-2.67-3.05-3.89-7.1-3.35-11.12l16.25-120.9c.94-6.97,6.89-12.18,13.92-12.18h37.61c7.03,0,12.98,5.19,13.92,12.16l16.43,120.9c.55,4.02-.67,8.08-3.34,11.13-2.67,3.06-6.53,4.81-10.58,4.81h-32.86Z" class="cls-1"/><path d="M925.51,1052.06c-7.76,0-14.05-6.29-14.05-14.05v-120.9c0-7.76,6.29-14.05,14.05-14.05h27.2c7.76,0,14.05,6.29,14.05,14.05v81.35c7.25.55,12.96,6.61,12.96,14.01v25.54c0,7.76-6.29,14.05-14.05,14.05h-40.17Z" class="cls-1"/><path d="M972.72,1052.06c-7.76,0-14.05-6.29-14.05-14.05v-120.9c0-7.76,6.29-14.05,14.05-14.05h44.18c7.76,0,14.05,6.29,14.05,14.05v25.54c0,6.5-4.42,11.97-10.42,13.58,4.36,2.39,7.31,7.01,7.31,12.33v17.45c0,5.5-3.16,10.25-7.75,12.56,6.76,1.01,11.95,6.85,11.95,13.89v25.54c0,7.76-6.29,14.05-14.05,14.05h-45.28Z" class="cls-1"/></g><g><path d="M597.29,1048.94c-1.6,0-3.13-.27-4.56-.76-1.43.49-2.97.76-4.56.76h-27.2c-7.76,0-14.05-6.29-14.05-14.05v-120.9c0-7.76,6.29-14.05,14.05-14.05h27.2c1.6,0,3.13.27,4.56.76,1.43-.49,2.97-.76,4.56-.76h27.39c7.76,0,14.05,6.29,14.05,14.05v120.9c0,7.76-6.29,14.05-14.05,14.05h-27.39Z" class="cls-1"/><path d="M664.86,1050.22c-41.6,0-45.09-39.4-45.09-76.34,0-25.71,2.64-42.34,8.57-53.93,7.22-14.13,19.51-21.3,36.52-21.3s29.3,7.17,36.52,21.3c5.93,11.59,8.57,28.23,8.57,53.93,0,26.98-2.54,43.49-8.48,55.21-7.11,14.02-19.43,21.13-36.6,21.13Z" class="cls-1"/><path d="M713.24,1048.94c-7.76,0-14.05-6.29-14.05-14.05v-81.43c-6.9-.89-12.23-6.79-12.23-13.93v-25.54c0-7.76,6.29-14.05,14.05-14.05h51.67c7.76,0,14.05,6.29,14.05,14.05v25.54c0,7.14-5.33,13.04-12.23,13.93v81.43c0,7.76-6.29,14.05-14.05,14.05h-27.2Z" class="cls-1"/><path d="M816.21,1050.22c-16.72,0-28.24-5.61-35.21-17.14-5.46-9.03-7.69-20.8-7.69-40.64,0-5.42,3.07-10.12,7.56-12.46-3.96-6.19-7.56-15.97-7.56-31.08,0-45.35,30-50.25,42.9-50.25,10.59,0,25.69,1.67,34.47,16.13,6.24,10.28,7.52,24.45,7.52,42.57,0,4.76-2.37,8.97-5.99,11.51,5.41,8.1,7.82,17.81,7.82,31.3,0,12.38,0,50.06-43.81,50.06Z" class="cls-1"/><path d="M888.23,1048.94c-1.8,0-3.53-.34-5.11-.96-1.59.62-3.31.96-5.11.96h-27.2c-4.05,0-7.91-1.75-10.58-4.8-2.67-3.05-3.89-7.1-3.35-11.12l16.25-120.9c.94-6.97,6.89-12.18,13.92-12.18h37.61c7.03,0,12.98,5.19,13.92,12.16l16.43,120.9c.55,4.02-.67,8.08-3.34,11.13-2.67,3.06-6.53,4.81-10.58,4.81h-32.86Z" class="cls-1"/><path d="M928.32,1048.94c-7.76,0-14.05-6.29-14.05-14.05v-120.9c0-7.76,6.29-14.05,14.05-14.05h27.2c7.76,0,14.05,6.29,14.05,14.05v81.35c7.25.55,12.96,6.61,12.96,14.01v25.54c0,7.76-6.29,14.05-14.05,14.05h-40.17Z" class="cls-1"/><path d="M975.53,1048.94c-7.76,0-14.05-6.29-14.05-14.05v-120.9c0-7.76,6.29-14.05,14.05-14.05h44.18c7.76,0,14.05,6.29,14.05,14.05v25.54c0,6.5-4.42,11.97-10.42,13.58,4.36,2.39,7.31,7.01,7.31,12.33v17.45c0,5.5-3.16,10.25-7.75,12.56,6.76,1.01,11.95,6.85,11.95,13.89v25.54c0,7.76-6.29,14.05-14.05,14.05h-45.28Z" class="cls-1"/></g><g><path d="M600.1,1045.82c-1.6,0-3.13-.27-4.56-.76-1.43.49-2.97.76-4.56.76h-27.2c-7.76,0-14.05-6.29-14.05-14.05v-120.9c0-7.76,6.29-14.05,14.05-14.05h27.2c1.6,0,3.13.27,4.56.76,1.43-.49,2.97-.76,4.56-.76h27.39c7.76,0,14.05,6.29,14.05,14.05v120.9c0,7.76-6.29,14.05-14.05,14.05h-27.39Z" class="cls-1"/><path d="M667.67,1047.1c-41.6,0-45.09-39.4-45.09-76.34,0-25.71,2.64-42.34,8.57-53.93,7.22-14.13,19.51-21.3,36.52-21.3s29.3,7.17,36.52,21.3c5.93,11.59,8.57,28.23,8.57,53.93,0,26.98-2.54,43.49-8.48,55.21-7.11,14.02-19.43,21.13-36.6,21.13Z" class="cls-1"/><path d="M716.05,1045.82c-7.76,0-14.05-6.29-14.05-14.05v-81.43c-6.9-.89-12.23-6.79-12.23-13.93v-25.54c0-7.76,6.29-14.05,14.05-14.05h51.67c7.76,0,14.05,6.29,14.05,14.05v25.54c0,7.14-5.33,13.04-12.23,13.93v81.43c0,7.76-6.29,14.05-14.05,14.05h-27.2Z" class="cls-1"/><path d="M819.02,1047.1c-16.72,0-28.24-5.61-35.21-17.14-5.46-9.03-7.69-20.8-7.69-40.64,0-5.42,3.07-10.12,7.56-12.46-3.96-6.19-7.56-15.97-7.56-31.08,0-45.35,30-50.25,42.9-50.25,10.59,0,25.69,1.67,34.47,16.13,6.24,10.28,7.52,24.45,7.52,42.57,0,4.76-2.37,8.97-5.99,11.51,5.41,8.1,7.82,17.81,7.82,31.3,0,12.38,0,50.06-43.81,50.06Z" class="cls-1"/><path d="M891.04,1045.82c-1.8,0-3.53-.34-5.11-.96-1.59.62-3.31.96-5.11.96h-27.2c-4.05,0-7.91-1.75-10.58-4.8-2.67-3.05-3.89-7.1-3.35-11.12l16.25-120.9c.94-6.97,6.89-12.18,13.92-12.18h37.61c7.03,0,12.98,5.19,13.92,12.16l16.43,120.9c.55,4.02-.67,8.08-3.34,11.13-2.67,3.06-6.53,4.81-10.58,4.81h-32.86Z" class="cls-1"/><path d="M931.13,1045.82c-7.76,0-14.05-6.29-14.05-14.05v-120.9c0-7.76,6.29-14.05,14.05-14.05h27.2c7.76,0,14.05,6.29,14.05,14.05v81.35c7.25.55,12.96,6.61,12.96,14.01v25.54c0,7.76-6.29,14.05-14.05,14.05h-40.17Z" class="cls-1"/><path d="M978.34,1045.82c-7.76,0-14.05-6.29-14.05-14.05v-120.9c0-7.76,6.29-14.05,14.05-14.05h44.18c7.76,0,14.05,6.29,14.05,14.05v25.54c0,6.5-4.42,11.97-10.42,13.58,4.36,2.39,7.31,7.01,7.31,12.33v17.45c0,5.5-3.16,10.25-7.75,12.56,6.76,1.01,11.95,6.85,11.95,13.89v25.54c0,7.76-6.29,14.05-14.05,14.05h-45.28Z" class="cls-1"/></g><g><path d="M602.91,1042.69c-1.6,0-3.13-.27-4.56-.76-1.43.49-2.97.76-4.56.76h-27.2c-7.76,0-14.05-6.29-14.05-14.05v-120.9c0-7.76,6.29-14.05,14.05-14.05h27.2c1.6,0,3.13.27,4.56.76,1.43-.49,2.97-.76,4.56-.76h27.39c7.76,0,14.05,6.29,14.05,14.05v120.9c0,7.76-6.29,14.05-14.05,14.05h-27.39Z" class="cls-1"/><path d="M670.48,1043.98c-41.6,0-45.09-39.4-45.09-76.34,0-25.71,2.64-42.34,8.57-53.93,7.22-14.13,19.51-21.3,36.52-21.3s29.3,7.17,36.52,21.3c5.93,11.59,8.57,28.23,8.57,53.93,0,26.98-2.54,43.49-8.48,55.21-7.11,14.02-19.43,21.13-36.6,21.13Z" class="cls-1"/><path d="M718.86,1042.69c-7.76,0-14.05-6.29-14.05-14.05v-81.43c-6.9-.89-12.23-6.79-12.23-13.93v-25.54c0-7.76,6.29-14.05,14.05-14.05h51.67c7.76,0,14.05,6.29,14.05,14.05v25.54c0,7.14-5.33,13.04-12.23,13.93v81.43c0,7.76-6.29,14.05-14.05,14.05h-27.2Z" class="cls-1"/><path d="M821.83,1043.98c-16.72,0-28.24-5.61-35.21-17.14-5.46-9.03-7.69-20.8-7.69-40.64,0-5.42,3.07-10.12,7.56-12.46-3.96-6.19-7.56-15.97-7.56-31.08,0-45.35,30-50.25,42.9-50.25,10.59,0,25.69,1.67,34.47,16.13,6.24,10.28,7.52,24.45,7.52,42.57,0,4.76-2.37,8.97-5.99,11.51,5.41,8.1,7.82,17.81,7.82,31.3,0,12.38,0,50.06-43.81,50.06Z" class="cls-1"/><path d="M893.85,1042.69c-1.8,0-3.53-.34-5.11-.96-1.59.62-3.31.96-5.11.96h-27.2c-4.05,0-7.91-1.75-10.58-4.8-2.67-3.05-3.89-7.1-3.35-11.12l16.25-120.9c.94-6.97,6.89-12.18,13.92-12.18h37.61c7.03,0,12.98,5.19,13.92,12.16l16.43,120.9c.55,4.02-.67,8.08-3.34,11.13-2.67,3.06-6.53,4.81-10.58,4.81h-32.86Z" class="cls-1"/><path d="M933.94,1042.69c-7.76,0-14.05-6.29-14.05-14.05v-120.9c0-7.76,6.29-14.05,14.05-14.05h27.2c7.76,0,14.05,6.29,14.05,14.05v81.35c7.25.55,12.96,6.61,12.96,14.01v25.54c0,7.76-6.29,14.05-14.05,14.05h-40.17Z" class="cls-1"/><path d="M981.15,1042.69c-7.76,0-14.05-6.29-14.05-14.05v-120.9c0-7.76,6.29-14.05,14.05-14.05h44.18c7.76,0,14.05,6.29,14.05,14.05v25.54c0,6.5-4.42,11.97-10.42,13.58,4.36,2.39,7.31,7.01,7.31,12.33v17.45c0,5.5-3.16,10.25-7.75,12.56,6.76,1.01,11.95,6.85,11.95,13.89v25.54c0,7.76-6.29,14.05-14.05,14.05h-45.28Z" class="cls-1"/></g><g><path d="M605.72,1039.57c-1.6,0-3.13-.27-4.56-.76-1.43.49-2.97.76-4.56.76h-27.2c-7.76,0-14.05-6.29-14.05-14.05v-120.9c0-7.76,6.29-14.05,14.05-14.05h27.2c1.6,0,3.13.27,4.56.76,1.43-.49,2.97-.76,4.56-.76h27.39c7.76,0,14.05,6.29,14.05,14.05v120.9c0,7.76-6.29,14.05-14.05,14.05h-27.39Z" class="cls-1"/><path d="M673.29,1040.86c-41.6,0-45.09-39.4-45.09-76.34,0-25.71,2.64-42.34,8.57-53.93,7.22-14.13,19.51-21.3,36.52-21.3s29.3,7.17,36.52,21.3c5.93,11.59,8.57,28.23,8.57,53.93,0,26.98-2.54,43.49-8.48,55.21-7.11,14.02-19.43,21.13-36.6,21.13Z" class="cls-1"/><path d="M721.67,1039.57c-7.76,0-14.05-6.29-14.05-14.05v-81.43c-6.9-.89-12.23-6.79-12.23-13.93v-25.54c0-7.76,6.29-14.05,14.05-14.05h51.67c7.76,0,14.05,6.29,14.05,14.05v25.54c0,7.14-5.33,13.04-12.23,13.93v81.43c0,7.76-6.29,14.05-14.05,14.05h-27.2Z" class="cls-1"/><path d="M824.64,1040.86c-16.72,0-28.24-5.61-35.21-17.14-5.46-9.03-7.69-20.8-7.69-40.64,0-5.42,3.07-10.12,7.56-12.46-3.96-6.19-7.56-15.97-7.56-31.08,0-45.35,30-50.25,42.9-50.25,10.59,0,25.69,1.67,34.47,16.13,6.24,10.28,7.52,24.45,7.52,42.57,0,4.76-2.37,8.97-5.99,11.51,5.41,8.1,7.82,17.81,7.82,31.3,0,12.38,0,50.06-43.81,50.06Z" class="cls-1"/><path d="M896.66,1039.57c-1.8,0-3.53-.34-5.11-.96-1.59.62-3.31.96-5.11.96h-27.2c-4.05,0-7.91-1.75-10.58-4.8-2.67-3.05-3.89-7.1-3.35-11.12l16.25-120.9c.94-6.97,6.89-12.18,13.92-12.18h37.61c7.03,0,12.98,5.19,13.92,12.16l16.43,120.9c.55,4.02-.67,8.08-3.34,11.13-2.67,3.06-6.53,4.81-10.58,4.81h-32.86Z" class="cls-1"/><path d="M936.75,1039.57c-7.76,0-14.05-6.29-14.05-14.05v-120.9c0-7.76,6.29-14.05,14.05-14.05h27.2c7.76,0,14.05,6.29,14.05,14.05v81.35c7.25.55,12.96,6.61,12.96,14.01v25.54c0,7.76-6.29,14.05-14.05,14.05h-40.17Z" class="cls-1"/><path d="M983.96,1039.57c-7.76,0-14.05-6.29-14.05-14.05v-120.9c0-7.76,6.29-14.05,14.05-14.05h44.18c7.76,0,14.05,6.29,14.05,14.05v25.54c0,6.5-4.42,11.97-10.42,13.58,4.36,2.39,7.31,7.01,7.31,12.33v17.45c0,5.5-3.16,10.25-7.75,12.56,6.76,1.01,11.95,6.85,11.95,13.89v25.54c0,7.76-6.29,14.05-14.05,14.05h-45.28Z" class="cls-1"/></g></g><g><path d="M569.39,904.62h27.2v46.3h9.13v-46.3h27.39v120.9h-27.39v-49.24h-9.13v49.24h-27.2v-120.9Z" class="cls-3"/><path d="M642.26,964.52c0-45.2,8.4-61.18,31.04-61.18s31.04,15.99,31.04,61.18-8.22,62.29-31.04,62.29-31.04-14.33-31.04-62.29ZM677.13,964.52c0-32.52-1.1-35.65-3.83-35.65-2.92,0-3.83,3.12-3.83,35.65,0,34.18.91,36.75,3.83,36.75,2.74,0,3.83-2.57,3.83-36.75Z" class="cls-3"/><path d="M721.67,930.16h-12.23v-25.54h51.67v25.54h-12.23v95.36h-27.2v-95.36Z" class="cls-3"/><path d="M795.79,983.08h23.73c0,19.29.73,22.42,4.2,22.42,2.74,0,3.65-1.84,3.65-12.68,0-7.35-.73-9.92-2.56-11.94-1.83-1.84-5.48-3.86-9.31-6.06-3.47-1.84-8.76-4.96-12.41-9.19-4.02-4.41-7.3-12.86-7.3-26.09,0-25.17,10.41-36.2,28.85-36.2,22.64,0,27.93,10.11,27.93,44.65h-22.64c0-20.95-.55-23.33-3.1-23.33-2.74,0-3.83,2.39-3.83,11.94,0,8.45.73,11.94,2.74,13.78,1.64,1.84,5.84,4.23,10.41,6.61,4.75,2.57,9.68,5.88,12.41,9.74,4.02,5.7,5.84,12.86,5.84,24.07,0,26.46-8.58,36.01-29.76,36.01-23.37,0-28.85-13.05-28.85-43.73Z" class="cls-3"/><path d="M895.56,1003.84h-8.03l-1.1,21.68h-27.2l16.25-120.9h37.61l16.43,120.9h-32.86l-1.1-21.68ZM894.65,985.28l-2.56-53.65h-1.1l-2.56,53.65h6.21Z" class="cls-3"/><path d="M936.75,904.62h27.2v95.36h12.96v25.54h-40.17v-120.9Z" class="cls-3"/><path d="M983.96,904.62h44.18v25.54h-16.98v25.91h13.88v17.45h-13.88v26.46h18.07v25.54h-45.28v-120.9Z" class="cls-3"/></g></g></svg>