<svg xmlns="http://www.w3.org/2000/svg" id="Capa_1" data-name="Capa 1" viewBox="0 0 1080 1080"><defs><style>.cls-1{fill:#2d4d19}.cls-2{fill:#d6bcd5}.cls-3{fill:#3ec7f4}.cls-4{fill:#ffebd2}</style></defs><path d="M-2.5-2.5v1085h1085V-2.5H-2.5ZM1032,1032.7H43V43.7h989v989Z" class="cls-3"/><g><g><path d="M569.4,902.6h25.1v42.8h8.4v-42.8h25.3v111.7h-25.3v-45.5h-8.4v45.5h-25.1v-111.7Z" class="cls-2"/><path d="M636.7,957.9c0-41.8,7.8-56.5,28.7-56.5s28.7,14.8,28.7,56.5-7.6,57.5-28.7,57.5-28.7-13.2-28.7-57.5ZM668.9,957.9c0-30-1-32.9-3.5-32.9s-3.5,2.9-3.5,32.9.8,33.9,3.5,33.9,3.5-2.4,3.5-33.9Z" class="cls-2"/><path d="M710.1,926.2h-11.3v-23.6h47.7v23.6h-11.3v88.1h-25.1v-88.1Z" class="cls-2"/><path d="M777.5,902.6h28.7l3.5,71h.7l4-71h22.8l4.2,71h.7l3.9-71h23.4l-14,111.7h-28.8l-3.4-63.3h-.7l-4,63.3h-27l-14-111.7Z" class="cls-2"/><path d="M876.3,902.6h40.8v23.6h-15.7v23.9h12.8v16.1h-12.8v24.4h16.7v23.6h-41.8v-111.7Z" class="cls-2"/><path d="M925.3,902.6h40.8v23.6h-15.7v23.9h12.8v16.1h-12.8v24.4h16.7v23.6h-41.8v-111.7Z" class="cls-2"/><path d="M974.2,902.6h25.1v53h.2l9.8-53h26l-13,49.4,15.2,62.3h-28.7l-6.7-41.9-2.7,10.5v31.4h-25.1v-111.7Z" class="cls-2"/></g><g><g><path d="M518.7,1122c-1.5,0-2.9-.2-4.2-.6-1.3.4-2.7.6-4.2.6h-25.1c-7.8,0-14-6.3-14-14v-111.7c0-7.8,6.3-14,14-14h25.1c1.5,0,2.9.2,4.2.6,1.3-.4,2.7-.6,4.2-.6h25.3c7.8,0,14,6.3,14,14v111.7c0,7.8-6.3,14-14,14h-25.3Z" class="cls-1"/><path d="M581.1,1123.2c-16.3,0-27.9-6.7-34.7-19.8-5.6-11-8.1-26.5-8.1-51.8s2.5-39.4,8-50.3c6.9-13.4,18.5-20.3,34.7-20.3s27.8,6.8,34.7,20.3c5.6,10.9,8,26.4,8,50.3s-2.4,40.5-8,51.5c-6.8,13.3-18.5,20.1-34.8,20.1Z" class="cls-1"/><path d="M625.8,1122c-7.8,0-14-6.3-14-14v-74.3c-6.4-1.3-11.3-7-11.3-13.8v-23.6c0-7.8,6.3-14,14-14h47.7c7.8,0,14,6.3,14,14v23.6c0,6.8-4.9,12.5-11.3,13.8v74.3c0,7.8-6.3,14-14,14h-25.1Z" class="cls-1"/><path d="M742.3,1122c-1.4,0-2.8-.2-4-.6-1.3.4-2.6.6-4,.6h-27c-7.1,0-13.1-5.3-13.9-12.3l-14-111.7c-.5-4,.7-8,3.4-11,2.7-3,6.5-4.8,10.5-4.8h28.7c1.4,0,2.8.2,4.1.6,1.3-.4,2.7-.6,4.1-.6h22.8c1.5,0,3,.2,4.4.7,1.4-.5,2.9-.7,4.4-.7h23.4c4,0,7.9,1.7,10.5,4.8,2.7,3,3.9,7,3.4,11l-14,111.7c-.9,7-6.9,12.3-13.9,12.3h-28.8Z" class="cls-1"/><path d="M792,1122c-7.8,0-14-6.3-14-14v-111.7c0-7.8,6.3-14,14-14h40.8c7.8,0,14,6.3,14,14v23.6c0,5.7-3.4,10.6-8.3,12.8,3.3,2.6,5.4,6.6,5.4,11.1v16.1c0,4.6-2.2,8.6-5.5,11.2,5.5,1.9,9.4,7.1,9.4,13.3v23.6c0,7.8-6.3,14-14,14h-41.8Z" class="cls-1"/><path d="M841,1122c-7.8,0-14-6.3-14-14v-111.7c0-7.8,6.3-14,14-14h40.8c7.8,0,14,6.3,14,14v23.6c0,5.7-3.4,10.6-8.3,12.8,3.3,2.6,5.4,6.6,5.4,11.1v16.1c0,4.6-2.2,8.6-5.5,11.2,5.5,1.9,9.4,7.1,9.4,13.3v23.6c0,7.8-6.3,14-14,14h-41.8Z" class="cls-1"/><path d="M924.5,1122c-1.6,0-3.2-.3-4.7-.8-1.5.5-3.1.8-4.7.8h-25.1c-7.8,0-14-6.3-14-14v-111.7c0-7.8,6.3-14,14-14h25.1c1.8,0,3.4.3,5,.9,1.6-.6,3.2-.9,5-.9h26c4.4,0,8.5,2,11.1,5.5,2.7,3.5,3.6,7.9,2.5,12.2l-12.1,46,14.3,58.8c1,4.2,0,8.6-2.6,12s-6.7,5.4-11,5.4h-28.7Z" class="cls-1"/></g><g><path d="M521.5,1118.9c-1.5,0-2.9-.2-4.2-.6-1.3.4-2.7.6-4.2.6h-25.1c-7.8,0-14-6.3-14-14v-111.7c0-7.8,6.3-14,14-14h25.1c1.5,0,2.9.2,4.2.6,1.3-.4,2.7-.6,4.2-.6h25.3c7.8,0,14,6.3,14,14v111.7c0,7.8-6.3,14-14,14h-25.3Z" class="cls-1"/><path d="M583.9,1120.1c-16.3,0-27.9-6.7-34.7-19.8-5.6-11-8.1-26.5-8.1-51.8s2.5-39.4,8-50.3c6.9-13.4,18.5-20.3,34.7-20.3s27.8,6.8,34.7,20.3c5.6,10.9,8,26.4,8,50.3s-2.4,40.5-8,51.5c-6.8,13.3-18.5,20.1-34.8,20.1Z" class="cls-1"/><path d="M628.6,1118.9c-7.8,0-14-6.3-14-14v-74.3c-6.4-1.3-11.3-7-11.3-13.8v-23.6c0-7.8,6.3-14,14-14h47.7c7.8,0,14,6.3,14,14v23.6c0,6.8-4.9,12.5-11.3,13.8v74.3c0,7.8-6.3,14-14,14h-25.1Z" class="cls-1"/><path d="M745.1,1118.9c-1.4,0-2.8-.2-4-.6-1.3.4-2.6.6-4,.6h-27c-7.1,0-13.1-5.3-13.9-12.3l-14-111.7c-.5-4,.7-8,3.4-11,2.7-3,6.5-4.8,10.5-4.8h28.7c1.4,0,2.8.2,4.1.6,1.3-.4,2.7-.6,4.1-.6h22.8c1.5,0,3,.2,4.4.7,1.4-.5,2.9-.7,4.4-.7h23.4c4,0,7.9,1.7,10.5,4.8,2.7,3,3.9,7,3.4,11l-14,111.7c-.9,7-6.9,12.3-13.9,12.3h-28.8Z" class="cls-1"/><path d="M794.8,1118.9c-7.8,0-14-6.3-14-14v-111.7c0-7.8,6.3-14,14-14h40.8c7.8,0,14,6.3,14,14v23.6c0,5.7-3.4,10.6-8.3,12.8,3.3,2.6,5.4,6.6,5.4,11.1v16.1c0,4.6-2.2,8.6-5.5,11.2,5.5,1.9,9.4,7.1,9.4,13.3v23.6c0,7.8-6.3,14-14,14h-41.8Z" class="cls-1"/><path d="M843.8,1118.9c-7.8,0-14-6.3-14-14v-111.7c0-7.8,6.3-14,14-14h40.8c7.8,0,14,6.3,14,14v23.6c0,5.7-3.4,10.6-8.3,12.8,3.3,2.6,5.4,6.6,5.4,11.1v16.1c0,4.6-2.2,8.6-5.5,11.2,5.5,1.9,9.4,7.1,9.4,13.3v23.6c0,7.8-6.3,14-14,14h-41.8Z" class="cls-1"/><path d="M927.3,1118.9c-1.6,0-3.2-.3-4.7-.8-1.5.5-3.1.8-4.7.8h-25.1c-7.8,0-14-6.3-14-14v-111.7c0-7.8,6.3-14,14-14h25.1c1.8,0,3.4.3,5,.9,1.6-.6,3.2-.9,5-.9h26c4.4,0,8.5,2,11.1,5.5,2.7,3.5,3.6,7.9,2.5,12.2l-12.1,46,14.3,58.8c1,4.2,0,8.6-2.6,12s-6.7,5.4-11,5.4h-28.7Z" class="cls-1"/></g><g><path d="M524.3,1115.8c-1.5,0-2.9-.2-4.2-.6-1.3.4-2.7.6-4.2.6h-25.1c-7.8,0-14-6.3-14-14v-111.7c0-7.8,6.3-14,14-14h25.1c1.5,0,2.9.2,4.2.6,1.3-.4,2.7-.6,4.2-.6h25.3c7.8,0,14,6.3,14,14v111.7c0,7.8-6.3,14-14,14h-25.3Z" class="cls-1"/><path d="M586.7,1117c-16.3,0-27.9-6.7-34.7-19.8-5.6-11-8.1-26.5-8.1-51.8s2.5-39.4,8-50.3c6.9-13.4,18.5-20.3,34.7-20.3s27.8,6.8,34.7,20.3c5.6,10.9,8,26.4,8,50.3s-2.4,40.5-8,51.5c-6.8,13.3-18.5,20.1-34.8,20.1Z" class="cls-1"/><path d="M631.4,1115.8c-7.8,0-14-6.3-14-14v-74.3c-6.4-1.3-11.3-7-11.3-13.8v-23.6c0-7.8,6.3-14,14-14h47.7c7.8,0,14,6.3,14,14v23.6c0,6.8-4.9,12.5-11.3,13.8v74.3c0,7.8-6.3,14-14,14h-25.1Z" class="cls-1"/><path d="M747.9,1115.8c-1.4,0-2.8-.2-4-.6-1.3.4-2.6.6-4,.6h-27c-7.1,0-13.1-5.3-13.9-12.3l-14-111.7c-.5-4,.7-8,3.4-11,2.7-3,6.5-4.8,10.5-4.8h28.7c1.4,0,2.8.2,4.1.6,1.3-.4,2.7-.6,4.1-.6h22.8c1.5,0,3,.2,4.4.7,1.4-.5,2.9-.7,4.4-.7h23.4c4,0,7.9,1.7,10.5,4.8,2.7,3,3.9,7,3.4,11l-14,111.7c-.9,7-6.9,12.3-13.9,12.3h-28.8Z" class="cls-1"/><path d="M797.6,1115.8c-7.8,0-14-6.3-14-14v-111.7c0-7.8,6.3-14,14-14h40.8c7.8,0,14,6.3,14,14v23.6c0,5.7-3.4,10.6-8.3,12.8,3.3,2.6,5.4,6.6,5.4,11.1v16.1c0,4.6-2.2,8.6-5.5,11.2,5.5,1.9,9.4,7.1,9.4,13.3v23.6c0,7.8-6.3,14-14,14h-41.8Z" class="cls-1"/><path d="M846.6,1115.8c-7.8,0-14-6.3-14-14v-111.7c0-7.8,6.3-14,14-14h40.8c7.8,0,14,6.3,14,14v23.6c0,5.7-3.4,10.6-8.3,12.8,3.3,2.6,5.4,6.6,5.4,11.1v16.1c0,4.6-2.2,8.6-5.5,11.2,5.5,1.9,9.4,7.1,9.4,13.3v23.6c0,7.8-6.3,14-14,14h-41.8Z" class="cls-1"/><path d="M930.1,1115.8c-1.6,0-3.2-.3-4.7-.8-1.5.5-3.1.8-4.7.8h-25.1c-7.8,0-14-6.3-14-14v-111.7c0-7.8,6.3-14,14-14h25.1c1.8,0,3.4.3,5,.9,1.6-.6,3.2-.9,5-.9h26c4.4,0,8.5,2,11.1,5.5,2.7,3.5,3.6,7.9,2.5,12.2l-12.1,46,14.3,58.8c1,4.2,0,8.6-2.6,12s-6.7,5.4-11,5.4h-28.7Z" class="cls-1"/></g><g><path d="M527.1,1112.7c-1.5,0-2.9-.2-4.2-.6-1.3.4-2.7.6-4.2.6h-25.1c-7.8,0-14-6.3-14-14v-111.7c0-7.8,6.3-14,14-14h25.1c1.5,0,2.9.2,4.2.6,1.3-.4,2.7-.6,4.2-.6h25.3c7.8,0,14,6.3,14,14v111.7c0,7.8-6.3,14-14,14h-25.3Z" class="cls-1"/><path d="M589.5,1113.8c-16.3,0-27.9-6.7-34.7-19.8-5.6-11-8.1-26.5-8.1-51.8s2.5-39.4,8-50.3c6.9-13.4,18.5-20.3,34.7-20.3s27.8,6.8,34.7,20.3c5.6,10.9,8,26.4,8,50.3s-2.4,40.5-8,51.5c-6.8,13.3-18.5,20.1-34.8,20.1Z" class="cls-1"/><path d="M634.2,1112.7c-7.8,0-14-6.3-14-14v-74.3c-6.4-1.3-11.3-7-11.3-13.8v-23.6c0-7.8,6.3-14,14-14h47.7c7.8,0,14,6.3,14,14v23.6c0,6.8-4.9,12.5-11.3,13.8v74.3c0,7.8-6.3,14-14,14h-25.1Z" class="cls-1"/><path d="M750.7,1112.7c-1.4,0-2.8-.2-4-.6-1.3.4-2.6.6-4,.6h-27c-7.1,0-13.1-5.3-13.9-12.3l-14-111.7c-.5-4,.7-8,3.4-11,2.7-3,6.5-4.8,10.5-4.8h28.7c1.4,0,2.8.2,4.1.6,1.3-.4,2.7-.6,4.1-.6h22.8c1.5,0,3,.2,4.4.7,1.4-.5,2.9-.7,4.4-.7h23.4c4,0,7.9,1.7,10.5,4.8,2.7,3,3.9,7,3.4,11l-14,111.7c-.9,7-6.9,12.3-13.9,12.3h-28.8Z" class="cls-1"/><path d="M800.4,1112.7c-7.8,0-14-6.3-14-14v-111.7c0-7.8,6.3-14,14-14h40.8c7.8,0,14,6.3,14,14v23.6c0,5.7-3.4,10.6-8.3,12.8,3.3,2.6,5.4,6.6,5.4,11.1v16.1c0,4.6-2.2,8.6-5.5,11.2,5.5,1.9,9.4,7.1,9.4,13.3v23.6c0,7.8-6.3,14-14,14h-41.8Z" class="cls-1"/><path d="M849.4,1112.7c-7.8,0-14-6.3-14-14v-111.7c0-7.8,6.3-14,14-14h40.8c7.8,0,14,6.3,14,14v23.6c0,5.7-3.4,10.6-8.3,12.8,3.3,2.6,5.4,6.6,5.4,11.1v16.1c0,4.6-2.2,8.6-5.5,11.2,5.5,1.9,9.4,7.1,9.4,13.3v23.6c0,7.8-6.3,14-14,14h-41.8Z" class="cls-1"/><path d="M932.9,1112.7c-1.6,0-3.2-.3-4.7-.8-1.5.5-3.1.8-4.7.8h-25.1c-7.8,0-14-6.3-14-14v-111.7c0-7.8,6.3-14,14-14h25.1c1.8,0,3.4.3,5,.9,1.6-.6,3.2-.9,5-.9h26c4.4,0,8.5,2,11.1,5.5,2.7,3.5,3.6,7.9,2.5,12.2l-12.1,46,14.3,58.8c1,4.2,0,8.6-2.6,12s-6.7,5.4-11,5.4h-28.7Z" class="cls-1"/></g><g><path d="M529.9,1109.5c-1.5,0-2.9-.2-4.2-.6-1.3.4-2.7.6-4.2.6h-25.1c-7.8,0-14-6.3-14-14v-111.7c0-7.8,6.3-14,14-14h25.1c1.5,0,2.9.2,4.2.6,1.3-.4,2.7-.6,4.2-.6h25.3c7.8,0,14,6.3,14,14v111.7c0,7.8-6.3,14-14,14h-25.3Z" class="cls-1"/><path d="M592.3,1110.7c-16.3,0-27.9-6.7-34.7-19.8-5.6-11-8.1-26.5-8.1-51.8s2.5-39.4,8-50.3c6.9-13.4,18.5-20.3,34.7-20.3s27.8,6.8,34.7,20.3c5.6,10.9,8,26.4,8,50.3s-2.4,40.5-8,51.5c-6.8,13.3-18.5,20.1-34.8,20.1Z" class="cls-1"/><path d="M637,1109.5c-7.8,0-14-6.3-14-14v-74.3c-6.4-1.3-11.3-7-11.3-13.8v-23.6c0-7.8,6.3-14,14-14h47.7c7.8,0,14,6.3,14,14v23.6c0,6.8-4.9,12.5-11.3,13.8v74.3c0,7.8-6.3,14-14,14h-25.1Z" class="cls-1"/><path d="M753.6,1109.5c-1.4,0-2.8-.2-4-.6-1.3.4-2.6.6-4,.6h-27c-7.1,0-13.1-5.3-13.9-12.3l-14-111.7c-.5-4,.7-8,3.4-11,2.7-3,6.5-4.8,10.5-4.8h28.7c1.4,0,2.8.2,4.1.6,1.3-.4,2.7-.6,4.1-.6h22.8c1.5,0,3,.2,4.4.7,1.4-.5,2.9-.7,4.4-.7h23.4c4,0,7.9,1.7,10.5,4.8,2.7,3,3.9,7,3.4,11l-14,111.7c-.9,7-6.9,12.3-13.9,12.3h-28.8Z" class="cls-1"/><path d="M803.2,1109.5c-7.8,0-14-6.3-14-14v-111.7c0-7.8,6.3-14,14-14h40.8c7.8,0,14,6.3,14,14v23.6c0,5.7-3.4,10.6-8.3,12.8,3.3,2.6,5.4,6.6,5.4,11.1v16.1c0,4.6-2.2,8.6-5.5,11.2,5.5,1.9,9.4,7.1,9.4,13.3v23.6c0,7.8-6.3,14-14,14h-41.8Z" class="cls-1"/><path d="M852.2,1109.5c-7.8,0-14-6.3-14-14v-111.7c0-7.8,6.3-14,14-14h40.8c7.8,0,14,6.3,14,14v23.6c0,5.7-3.4,10.6-8.3,12.8,3.3,2.6,5.4,6.6,5.4,11.1v16.1c0,4.6-2.2,8.6-5.5,11.2,5.5,1.9,9.4,7.1,9.4,13.3v23.6c0,7.8-6.3,14-14,14h-41.8Z" class="cls-1"/><path d="M935.7,1109.5c-1.6,0-3.2-.3-4.7-.8-1.5.5-3.1.8-4.7.8h-25.1c-7.8,0-14-6.3-14-14v-111.7c0-7.8,6.3-14,14-14h25.1c1.8,0,3.4.3,5,.9,1.6-.6,3.2-.9,5-.9h26c4.4,0,8.5,2,11.1,5.5,2.7,3.5,3.6,7.9,2.5,12.2l-12.1,46,14.3,58.8c1,4.2,0,8.6-2.6,12s-6.7,5.4-11,5.4h-28.7Z" class="cls-1"/></g><g><path d="M532.7,1106.4c-1.5,0-2.9-.2-4.2-.6-1.3.4-2.7.6-4.2.6h-25.1c-7.8,0-14-6.3-14-14v-111.7c0-7.8,6.3-14,14-14h25.1c1.5,0,2.9.2,4.2.6,1.3-.4,2.7-.6,4.2-.6h25.3c7.8,0,14,6.3,14,14v111.7c0,7.8-6.3,14-14,14h-25.3Z" class="cls-1"/><path d="M595.1,1107.6c-16.3,0-27.9-6.7-34.7-19.8-5.6-11-8.1-26.5-8.1-51.8s2.5-39.4,8-50.3c6.9-13.4,18.5-20.3,34.7-20.3s27.8,6.8,34.7,20.3c5.6,10.9,8,26.4,8,50.3s-2.4,40.5-8,51.5c-6.8,13.3-18.5,20.1-34.8,20.1Z" class="cls-1"/><path d="M639.8,1106.4c-7.8,0-14-6.3-14-14v-74.3c-6.4-1.3-11.3-7-11.3-13.8v-23.6c0-7.8,6.3-14,14-14h47.7c7.8,0,14,6.3,14,14v23.6c0,6.8-4.9,12.5-11.3,13.8v74.3c0,7.8-6.3,14-14,14h-25.1Z" class="cls-1"/><path d="M756.4,1106.4c-1.4,0-2.8-.2-4-.6-1.3.4-2.6.6-4,.6h-27c-7.1,0-13.1-5.3-13.9-12.3l-14-111.7c-.5-4,.7-8,3.4-11,2.7-3,6.5-4.8,10.5-4.8h28.7c1.4,0,2.8.2,4.1.6,1.3-.4,2.7-.6,4.1-.6h22.8c1.5,0,3,.2,4.4.7,1.4-.5,2.9-.7,4.4-.7h23.4c4,0,7.9,1.7,10.5,4.8,2.7,3,3.9,7,3.4,11l-14,111.7c-.9,7-6.9,12.3-13.9,12.3h-28.8Z" class="cls-1"/><path d="M806.1,1106.4c-7.8,0-14-6.3-14-14v-111.7c0-7.8,6.3-14,14-14h40.8c7.8,0,14,6.3,14,14v23.6c0,5.7-3.4,10.6-8.3,12.8,3.3,2.6,5.4,6.6,5.4,11.1v16.1c0,4.6-2.2,8.6-5.5,11.2,5.5,1.9,9.4,7.1,9.4,13.3v23.6c0,7.8-6.3,14-14,14h-41.8Z" class="cls-1"/><path d="M855,1106.4c-7.8,0-14-6.3-14-14v-111.7c0-7.8,6.3-14,14-14h40.8c7.8,0,14,6.3,14,14v23.6c0,5.7-3.4,10.6-8.3,12.8,3.3,2.6,5.4,6.6,5.4,11.1v16.1c0,4.6-2.2,8.6-5.5,11.2,5.5,1.9,9.4,7.1,9.4,13.3v23.6c0,7.8-6.3,14-14,14h-41.8Z" class="cls-1"/><path d="M938.5,1106.4c-1.6,0-3.2-.3-4.7-.8-1.5.5-3.1.8-4.7.8h-25.1c-7.8,0-14-6.3-14-14v-111.7c0-7.8,6.3-14,14-14h25.1c1.8,0,3.4.3,5,.9,1.6-.6,3.2-.9,5-.9h26c4.4,0,8.5,2,11.1,5.5,2.7,3.5,3.6,7.9,2.5,12.2l-12.1,46,14.3,58.8c1,4.2,0,8.6-2.6,12s-6.7,5.4-11,5.4h-28.7Z" class="cls-1"/></g><g><path d="M535.5,1103.3c-1.5,0-2.9-.2-4.2-.6-1.3.4-2.7.6-4.2.6h-25.1c-7.8,0-14-6.3-14-14v-111.7c0-7.8,6.3-14,14-14h25.1c1.5,0,2.9.2,4.2.6,1.3-.4,2.7-.6,4.2-.6h25.3c7.8,0,14,6.3,14,14v111.7c0,7.8-6.3,14-14,14h-25.3Z" class="cls-1"/><path d="M597.9,1104.5c-16.3,0-27.9-6.7-34.7-19.8-5.6-11-8.1-26.5-8.1-51.8s2.5-39.4,8-50.3c6.9-13.4,18.5-20.3,34.7-20.3s27.8,6.8,34.7,20.3c5.6,10.9,8,26.4,8,50.3s-2.4,40.5-8,51.5c-6.8,13.3-18.5,20.1-34.8,20.1Z" class="cls-1"/><path d="M642.6,1103.3c-7.8,0-14-6.3-14-14v-74.3c-6.4-1.3-11.3-7-11.3-13.8v-23.6c0-7.8,6.3-14,14-14h47.7c7.8,0,14,6.3,14,14v23.6c0,6.8-4.9,12.5-11.3,13.8v74.3c0,7.8-6.3,14-14,14h-25.1Z" class="cls-1"/><path d="M759.2,1103.3c-1.4,0-2.8-.2-4-.6-1.3.4-2.6.6-4,.6h-27c-7.1,0-13.1-5.3-13.9-12.3l-14-111.7c-.5-4,.7-8,3.4-11,2.7-3,6.5-4.8,10.5-4.8h28.7c1.4,0,2.8.2,4.1.6,1.3-.4,2.7-.6,4.1-.6h22.8c1.5,0,3,.2,4.4.7,1.4-.5,2.9-.7,4.4-.7h23.4c4,0,7.9,1.7,10.5,4.8,2.7,3,3.9,7,3.4,11l-14,111.7c-.9,7-6.9,12.3-13.9,12.3h-28.8Z" class="cls-1"/><path d="M808.9,1103.3c-7.8,0-14-6.3-14-14v-111.7c0-7.8,6.3-14,14-14h40.8c7.8,0,14,6.3,14,14v23.6c0,5.7-3.4,10.6-8.3,12.8,3.3,2.6,5.4,6.6,5.4,11.1v16.1c0,4.6-2.2,8.6-5.5,11.2,5.5,1.9,9.4,7.1,9.4,13.3v23.6c0,7.8-6.3,14-14,14h-41.8Z" class="cls-1"/><path d="M857.8,1103.3c-7.8,0-14-6.3-14-14v-111.7c0-7.8,6.3-14,14-14h40.8c7.8,0,14,6.3,14,14v23.6c0,5.7-3.4,10.6-8.3,12.8,3.3,2.6,5.4,6.6,5.4,11.1v16.1c0,4.6-2.2,8.6-5.5,11.2,5.5,1.9,9.4,7.1,9.4,13.3v23.6c0,7.8-6.3,14-14,14h-41.8Z" class="cls-1"/><path d="M941.3,1103.3c-1.6,0-3.2-.3-4.7-.8-1.5.5-3.1.8-4.7.8h-25.1c-7.8,0-14-6.3-14-14v-111.7c0-7.8,6.3-14,14-14h25.1c1.8,0,3.4.3,5,.9,1.6-.6,3.2-.9,5-.9h26c4.4,0,8.5,2,11.1,5.5,2.7,3.5,3.6,7.9,2.5,12.2l-12.1,46,14.3,58.8c1,4.2,0,8.6-2.6,12s-6.7,5.4-11,5.4h-28.7Z" class="cls-1"/></g><g><path d="M538.3,1100.2c-1.5,0-2.9-.2-4.2-.6-1.3.4-2.7.6-4.2.6h-25.1c-7.8,0-14-6.3-14-14v-111.7c0-7.8,6.3-14,14-14h25.1c1.5,0,2.9.2,4.2.6,1.3-.4,2.7-.6,4.2-.6h25.3c7.8,0,14,6.3,14,14v111.7c0,7.8-6.3,14-14,14h-25.3Z" class="cls-1"/><path d="M600.8,1101.4c-16.3,0-27.9-6.7-34.7-19.8-5.6-11-8.1-26.5-8.1-51.8s2.5-39.4,8-50.3c6.9-13.4,18.5-20.3,34.7-20.3s27.8,6.8,34.7,20.3c5.6,10.9,8,26.4,8,50.3s-2.4,40.5-8,51.5c-6.8,13.3-18.5,20.1-34.8,20.1Z" class="cls-1"/><path d="M645.4,1100.2c-7.8,0-14-6.3-14-14v-74.3c-6.4-1.3-11.3-7-11.3-13.8v-23.6c0-7.8,6.3-14,14-14h47.7c7.8,0,14,6.3,14,14v23.6c0,6.8-4.9,12.5-11.3,13.8v74.3c0,7.8-6.3,14-14,14h-25.1Z" class="cls-1"/><path d="M762,1100.2c-1.4,0-2.8-.2-4-.6-1.3.4-2.6.6-4,.6h-27c-7.1,0-13.1-5.3-13.9-12.3l-14-111.7c-.5-4,.7-8,3.4-11,2.7-3,6.5-4.8,10.5-4.8h28.7c1.4,0,2.8.2,4.1.6,1.3-.4,2.7-.6,4.1-.6h22.8c1.5,0,3,.2,4.4.7,1.4-.5,2.9-.7,4.4-.7h23.4c4,0,7.9,1.7,10.5,4.8,2.7,3,3.9,7,3.4,11l-14,111.7c-.9,7-6.9,12.3-13.9,12.3h-28.8Z" class="cls-1"/><path d="M811.7,1100.2c-7.8,0-14-6.3-14-14v-111.7c0-7.8,6.3-14,14-14h40.8c7.8,0,14,6.3,14,14v23.6c0,5.7-3.4,10.6-8.3,12.8,3.3,2.6,5.4,6.6,5.4,11.1v16.1c0,4.6-2.2,8.6-5.5,11.2,5.5,1.9,9.4,7.1,9.4,13.3v23.6c0,7.8-6.3,14-14,14h-41.8Z" class="cls-1"/><path d="M860.6,1100.2c-7.8,0-14-6.3-14-14v-111.7c0-7.8,6.3-14,14-14h40.8c7.8,0,14,6.3,14,14v23.6c0,5.7-3.4,10.6-8.3,12.8,3.3,2.6,5.4,6.6,5.4,11.1v16.1c0,4.6-2.2,8.6-5.5,11.2,5.5,1.9,9.4,7.1,9.4,13.3v23.6c0,7.8-6.3,14-14,14h-41.8Z" class="cls-1"/><path d="M944.1,1100.2c-1.6,0-3.2-.3-4.7-.8-1.5.5-3.1.8-4.7.8h-25.1c-7.8,0-14-6.3-14-14v-111.7c0-7.8,6.3-14,14-14h25.1c1.8,0,3.4.3,5,.9,1.6-.6,3.2-.9,5-.9h26c4.4,0,8.5,2,11.1,5.5,2.7,3.5,3.6,7.9,2.5,12.2l-12.1,46,14.3,58.8c1,4.2,0,8.6-2.6,12s-6.7,5.4-11,5.4h-28.7Z" class="cls-1"/></g><g><path d="M541.1,1097c-1.5,0-2.9-.2-4.2-.6-1.3.4-2.7.6-4.2.6h-25.1c-7.8,0-14-6.3-14-14v-111.7c0-7.8,6.3-14,14-14h25.1c1.5,0,2.9.2,4.2.6,1.3-.4,2.7-.6,4.2-.6h25.3c7.8,0,14,6.3,14,14v111.7c0,7.8-6.3,14-14,14h-25.3Z" class="cls-1"/><path d="M603.6,1098.2c-16.3,0-27.9-6.7-34.7-19.8-5.6-11-8.1-26.5-8.1-51.8s2.5-39.4,8-50.3c6.9-13.4,18.5-20.3,34.7-20.3s27.8,6.8,34.7,20.3c5.6,10.9,8,26.4,8,50.3s-2.4,40.5-8,51.5c-6.8,13.3-18.5,20.1-34.8,20.1Z" class="cls-1"/><path d="M648.3,1097c-7.8,0-14-6.3-14-14v-74.3c-6.4-1.3-11.3-7-11.3-13.8v-23.6c0-7.8,6.3-14,14-14h47.7c7.8,0,14,6.3,14,14v23.6c0,6.8-4.9,12.5-11.3,13.8v74.3c0,7.8-6.3,14-14,14h-25.1Z" class="cls-1"/><path d="M764.8,1097c-1.4,0-2.8-.2-4-.6-1.3.4-2.6.6-4,.6h-27c-7.1,0-13.1-5.3-13.9-12.3l-14-111.7c-.5-4,.7-8,3.4-11,2.7-3,6.5-4.8,10.5-4.8h28.7c1.4,0,2.8.2,4.1.6,1.3-.4,2.7-.6,4.1-.6h22.8c1.5,0,3,.2,4.4.7,1.4-.5,2.9-.7,4.4-.7h23.4c4,0,7.9,1.7,10.5,4.8,2.7,3,3.9,7,3.4,11l-14,111.7c-.9,7-6.9,12.3-13.9,12.3h-28.8Z" class="cls-1"/><path d="M814.5,1097c-7.8,0-14-6.3-14-14v-111.7c0-7.8,6.3-14,14-14h40.8c7.8,0,14,6.3,14,14v23.6c0,5.7-3.4,10.6-8.3,12.8,3.3,2.6,5.4,6.6,5.4,11.1v16.1c0,4.6-2.2,8.6-5.5,11.2,5.5,1.9,9.4,7.1,9.4,13.3v23.6c0,7.8-6.3,14-14,14h-41.8Z" class="cls-1"/><path d="M863.4,1097c-7.8,0-14-6.3-14-14v-111.7c0-7.8,6.3-14,14-14h40.8c7.8,0,14,6.3,14,14v23.6c0,5.7-3.4,10.6-8.3,12.8,3.3,2.6,5.4,6.6,5.4,11.1v16.1c0,4.6-2.2,8.6-5.5,11.2,5.5,1.9,9.4,7.1,9.4,13.3v23.6c0,7.8-6.3,14-14,14h-41.8Z" class="cls-1"/><path d="M947,1097c-1.6,0-3.2-.3-4.7-.8-1.5.5-3.1.8-4.7.8h-25.1c-7.8,0-14-6.3-14-14v-111.7c0-7.8,6.3-14,14-14h25.1c1.8,0,3.4.3,5,.9,1.6-.6,3.2-.9,5-.9h26c4.4,0,8.5,2,11.1,5.5,2.7,3.5,3.6,7.9,2.5,12.2l-12.1,46,14.3,58.8c1,4.2,0,8.6-2.6,12s-6.7,5.4-11,5.4h-28.7Z" class="cls-1"/></g><g><path d="M543.9,1093.9c-1.5,0-2.9-.2-4.2-.6-1.3.4-2.7.6-4.2.6h-25.1c-7.8,0-14-6.3-14-14v-111.7c0-7.8,6.3-14,14-14h25.1c1.5,0,2.9.2,4.2.6,1.3-.4,2.7-.6,4.2-.6h25.3c7.8,0,14,6.3,14,14v111.7c0,7.8-6.3,14-14,14h-25.3Z" class="cls-1"/><path d="M606.4,1095.1c-16.3,0-27.9-6.7-34.7-19.8-5.6-11-8.1-26.5-8.1-51.8s2.5-39.4,8-50.3c6.9-13.4,18.5-20.3,34.7-20.3s27.8,6.8,34.7,20.3c5.6,10.9,8,26.4,8,50.3s-2.4,40.5-8,51.5c-6.8,13.3-18.5,20.1-34.8,20.1Z" class="cls-1"/><path d="M651.1,1093.9c-7.8,0-14-6.3-14-14v-74.3c-6.4-1.3-11.3-7-11.3-13.8v-23.6c0-7.8,6.3-14,14-14h47.7c7.8,0,14,6.3,14,14v23.6c0,6.8-4.9,12.5-11.3,13.8v74.3c0,7.8-6.3,14-14,14h-25.1Z" class="cls-1"/><path d="M767.6,1093.9c-1.4,0-2.8-.2-4-.6-1.3.4-2.6.6-4,.6h-27c-7.1,0-13.1-5.3-13.9-12.3l-14-111.7c-.5-4,.7-8,3.4-11,2.7-3,6.5-4.8,10.5-4.8h28.7c1.4,0,2.8.2,4.1.6,1.3-.4,2.7-.6,4.1-.6h22.8c1.5,0,3,.2,4.4.7,1.4-.5,2.9-.7,4.4-.7h23.4c4,0,7.9,1.7,10.5,4.8,2.7,3,3.9,7,3.4,11l-14,111.7c-.9,7-6.9,12.3-13.9,12.3h-28.8Z" class="cls-1"/><path d="M817.3,1093.9c-7.8,0-14-6.3-14-14v-111.7c0-7.8,6.3-14,14-14h40.8c7.8,0,14,6.3,14,14v23.6c0,5.7-3.4,10.6-8.3,12.8,3.3,2.6,5.4,6.6,5.4,11.1v16.1c0,4.6-2.2,8.6-5.5,11.2,5.5,1.9,9.4,7.1,9.4,13.3v23.6c0,7.8-6.3,14-14,14h-41.8Z" class="cls-1"/><path d="M866.2,1093.9c-7.8,0-14-6.3-14-14v-111.7c0-7.8,6.3-14,14-14h40.8c7.8,0,14,6.3,14,14v23.6c0,5.7-3.4,10.6-8.3,12.8,3.3,2.6,5.4,6.6,5.4,11.1v16.1c0,4.6-2.2,8.6-5.5,11.2,5.5,1.9,9.4,7.1,9.4,13.3v23.6c0,7.8-6.3,14-14,14h-41.8Z" class="cls-1"/><path d="M949.8,1093.9c-1.6,0-3.2-.3-4.7-.8-1.5.5-3.1.8-4.7.8h-25.1c-7.8,0-14-6.3-14-14v-111.7c0-7.8,6.3-14,14-14h25.1c1.8,0,3.4.3,5,.9,1.6-.6,3.2-.9,5-.9h26c4.4,0,8.5,2,11.1,5.5,2.7,3.5,3.6,7.9,2.5,12.2l-12.1,46,14.3,58.8c1,4.2,0,8.6-2.6,12s-6.7,5.4-11,5.4h-28.7Z" class="cls-1"/></g><g><path d="M546.8,1090.8c-1.5,0-2.9-.2-4.2-.6-1.3.4-2.7.6-4.2.6h-25.1c-7.8,0-14-6.3-14-14v-111.7c0-7.8,6.3-14,14-14h25.1c1.5,0,2.9.2,4.2.6,1.3-.4,2.7-.6,4.2-.6h25.3c7.8,0,14,6.3,14,14v111.7c0,7.8-6.3,14-14,14h-25.3Z" class="cls-1"/><path d="M609.2,1092c-16.3,0-27.9-6.7-34.7-19.8-5.6-11-8.1-26.5-8.1-51.8s2.5-39.4,8-50.3c6.9-13.4,18.5-20.3,34.7-20.3s27.8,6.8,34.7,20.3c5.6,10.9,8,26.4,8,50.3s-2.4,40.5-8,51.5c-6.8,13.3-18.5,20.1-34.8,20.1Z" class="cls-1"/><path d="M653.9,1090.8c-7.8,0-14-6.3-14-14v-74.3c-6.4-1.3-11.3-7-11.3-13.8v-23.6c0-7.8,6.3-14,14-14h47.7c7.8,0,14,6.3,14,14v23.6c0,6.8-4.9,12.5-11.3,13.8v74.3c0,7.8-6.3,14-14,14h-25.1Z" class="cls-1"/><path d="M770.4,1090.8c-1.4,0-2.8-.2-4-.6-1.3.4-2.6.6-4,.6h-27c-7.1,0-13.1-5.3-13.9-12.3l-14-111.7c-.5-4,.7-8,3.4-11,2.7-3,6.5-4.8,10.5-4.8h28.7c1.4,0,2.8.2,4.1.6,1.3-.4,2.7-.6,4.1-.6h22.8c1.5,0,3,.2,4.4.7,1.4-.5,2.9-.7,4.4-.7h23.4c4,0,7.9,1.7,10.5,4.8,2.7,3,3.9,7,3.4,11l-14,111.7c-.9,7-6.9,12.3-13.9,12.3h-28.8Z" class="cls-1"/><path d="M820.1,1090.8c-7.8,0-14-6.3-14-14v-111.7c0-7.8,6.3-14,14-14h40.8c7.8,0,14,6.3,14,14v23.6c0,5.7-3.4,10.6-8.3,12.8,3.3,2.6,5.4,6.6,5.4,11.1v16.1c0,4.6-2.2,8.6-5.5,11.2,5.5,1.9,9.4,7.1,9.4,13.3v23.6c0,7.8-6.3,14-14,14h-41.8Z" class="cls-1"/><path d="M869.1,1090.8c-7.8,0-14-6.3-14-14v-111.7c0-7.8,6.3-14,14-14h40.8c7.8,0,14,6.3,14,14v23.6c0,5.7-3.4,10.6-8.3,12.8,3.3,2.6,5.4,6.6,5.4,11.1v16.1c0,4.6-2.2,8.6-5.5,11.2,5.5,1.9,9.4,7.1,9.4,13.3v23.6c0,7.8-6.3,14-14,14h-41.8Z" class="cls-1"/><path d="M952.6,1090.8c-1.6,0-3.2-.3-4.7-.8-1.5.5-3.1.8-4.7.8h-25.1c-7.8,0-14-6.3-14-14v-111.7c0-7.8,6.3-14,14-14h25.1c1.8,0,3.4.3,5,.9,1.6-.6,3.2-.9,5-.9h26c4.4,0,8.5,2,11.1,5.5,2.7,3.5,3.6,7.9,2.5,12.2l-12.1,46,14.3,58.8c1,4.2,0,8.6-2.6,12s-6.7,5.4-11,5.4h-28.7Z" class="cls-1"/></g><g><path d="M549.6,1087.7c-1.5,0-2.9-.2-4.2-.6-1.3.4-2.7.6-4.2.6h-25.1c-7.8,0-14-6.3-14-14v-111.7c0-7.8,6.3-14,14-14h25.1c1.5,0,2.9.2,4.2.6,1.3-.4,2.7-.6,4.2-.6h25.3c7.8,0,14,6.3,14,14v111.7c0,7.8-6.3,14-14,14h-25.3Z" class="cls-1"/><path d="M612,1088.9c-16.3,0-27.9-6.7-34.7-19.8-5.6-11-8.1-26.5-8.1-51.8s2.5-39.4,8-50.3c6.9-13.4,18.5-20.3,34.7-20.3s27.8,6.8,34.7,20.3c5.6,10.9,8,26.4,8,50.3s-2.4,40.5-8,51.5c-6.8,13.3-18.5,20.1-34.8,20.1Z" class="cls-1"/><path d="M656.7,1087.7c-7.8,0-14-6.3-14-14v-74.3c-6.4-1.3-11.3-7-11.3-13.8v-23.6c0-7.8,6.3-14,14-14h47.7c7.8,0,14,6.3,14,14v23.6c0,6.8-4.9,12.5-11.3,13.8v74.3c0,7.8-6.3,14-14,14h-25.1Z" class="cls-1"/><path d="M773.2,1087.7c-1.4,0-2.8-.2-4-.6-1.3.4-2.6.6-4,.6h-27c-7.1,0-13.1-5.3-13.9-12.3l-14-111.7c-.5-4,.7-8,3.4-11,2.7-3,6.5-4.8,10.5-4.8h28.7c1.4,0,2.8.2,4.1.6,1.3-.4,2.7-.6,4.1-.6h22.8c1.5,0,3,.2,4.4.7,1.4-.5,2.9-.7,4.4-.7h23.4c4,0,7.9,1.7,10.5,4.8,2.7,3,3.9,7,3.4,11l-14,111.7c-.9,7-6.9,12.3-13.9,12.3h-28.8Z" class="cls-1"/><path d="M822.9,1087.7c-7.8,0-14-6.3-14-14v-111.7c0-7.8,6.3-14,14-14h40.8c7.8,0,14,6.3,14,14v23.6c0,5.7-3.4,10.6-8.3,12.8,3.3,2.6,5.4,6.6,5.4,11.1v16.1c0,4.6-2.2,8.6-5.5,11.2,5.5,1.9,9.4,7.1,9.4,13.3v23.6c0,7.8-6.3,14-14,14h-41.8Z" class="cls-1"/><path d="M871.9,1087.7c-7.8,0-14-6.3-14-14v-111.7c0-7.8,6.3-14,14-14h40.8c7.8,0,14,6.3,14,14v23.6c0,5.7-3.4,10.6-8.3,12.8,3.3,2.6,5.4,6.6,5.4,11.1v16.1c0,4.6-2.2,8.6-5.5,11.2,5.5,1.9,9.4,7.1,9.4,13.3v23.6c0,7.8-6.3,14-14,14h-41.8Z" class="cls-1"/><path d="M955.4,1087.7c-1.6,0-3.2-.3-4.7-.8-1.5.5-3.1.8-4.7.8h-25.1c-7.8,0-14-6.3-14-14v-111.7c0-7.8,6.3-14,14-14h25.1c1.8,0,3.4.3,5,.9,1.6-.6,3.2-.9,5-.9h26c4.4,0,8.5,2,11.1,5.5,2.7,3.5,3.6,7.9,2.5,12.2l-12.1,46,14.3,58.8c1,4.2,0,8.6-2.6,12s-6.7,5.4-11,5.4h-28.7Z" class="cls-1"/></g><g><path d="M552.4,1084.6c-1.5,0-2.9-.2-4.2-.6-1.3.4-2.7.6-4.2.6h-25.1c-7.8,0-14-6.3-14-14v-111.7c0-7.8,6.3-14,14-14h25.1c1.5,0,2.9.2,4.2.6,1.3-.4,2.7-.6,4.2-.6h25.3c7.8,0,14,6.3,14,14v111.7c0,7.8-6.3,14-14,14h-25.3Z" class="cls-1"/><path d="M614.8,1085.7c-16.3,0-27.9-6.7-34.7-19.8-5.6-11-8.1-26.5-8.1-51.8s2.5-39.4,8-50.3c6.9-13.4,18.5-20.3,34.7-20.3s27.8,6.8,34.7,20.3c5.6,10.9,8,26.4,8,50.3s-2.4,40.5-8,51.5c-6.8,13.3-18.5,20.1-34.8,20.1Z" class="cls-1"/><path d="M659.5,1084.6c-7.8,0-14-6.3-14-14v-74.3c-6.4-1.3-11.3-7-11.3-13.8v-23.6c0-7.8,6.3-14,14-14h47.7c7.8,0,14,6.3,14,14v23.6c0,6.8-4.9,12.5-11.3,13.8v74.3c0,7.8-6.3,14-14,14h-25.1Z" class="cls-1"/><path d="M776,1084.6c-1.4,0-2.8-.2-4-.6-1.3.4-2.6.6-4,.6h-27c-7.1,0-13.1-5.3-13.9-12.3l-14-111.7c-.5-4,.7-8,3.4-11,2.7-3,6.5-4.8,10.5-4.8h28.7c1.4,0,2.8.2,4.1.6,1.3-.4,2.7-.6,4.1-.6h22.8c1.5,0,3,.2,4.4.7,1.4-.5,2.9-.7,4.4-.7h23.4c4,0,7.9,1.7,10.5,4.8,2.7,3,3.9,7,3.4,11l-14,111.7c-.9,7-6.9,12.3-13.9,12.3h-28.8Z" class="cls-1"/><path d="M825.7,1084.6c-7.8,0-14-6.3-14-14v-111.7c0-7.8,6.3-14,14-14h40.8c7.8,0,14,6.3,14,14v23.6c0,5.7-3.4,10.6-8.3,12.8,3.3,2.6,5.4,6.6,5.4,11.1v16.1c0,4.6-2.2,8.6-5.5,11.2,5.5,1.9,9.4,7.1,9.4,13.3v23.6c0,7.8-6.3,14-14,14h-41.8Z" class="cls-1"/><path d="M874.7,1084.6c-7.8,0-14-6.3-14-14v-111.7c0-7.8,6.3-14,14-14h40.8c7.8,0,14,6.3,14,14v23.6c0,5.7-3.4,10.6-8.3,12.8,3.3,2.6,5.4,6.6,5.4,11.1v16.1c0,4.6-2.2,8.6-5.5,11.2,5.5,1.9,9.4,7.1,9.4,13.3v23.6c0,7.8-6.3,14-14,14h-41.8Z" class="cls-1"/><path d="M958.2,1084.6c-1.6,0-3.2-.3-4.7-.8-1.5.5-3.1.8-4.7.8h-25.1c-7.8,0-14-6.3-14-14v-111.7c0-7.8,6.3-14,14-14h25.1c1.8,0,3.4.3,5,.9,1.6-.6,3.2-.9,5-.9h26c4.4,0,8.5,2,11.1,5.5,2.7,3.5,3.6,7.9,2.5,12.2l-12.1,46,14.3,58.8c1,4.2,0,8.6-2.6,12s-6.7,5.4-11,5.4h-28.7Z" class="cls-1"/></g><g><path d="M555.2,1081.4c-1.5,0-2.9-.2-4.2-.6-1.3.4-2.7.6-4.2.6h-25.1c-7.8,0-14-6.3-14-14v-111.7c0-7.8,6.3-14,14-14h25.1c1.5,0,2.9.2,4.2.6,1.3-.4,2.7-.6,4.2-.6h25.3c7.8,0,14,6.3,14,14v111.7c0,7.8-6.3,14-14,14h-25.3Z" class="cls-1"/><path d="M617.6,1082.6c-16.3,0-27.9-6.7-34.7-19.8-5.6-11-8.1-26.5-8.1-51.8s2.5-39.4,8-50.3c6.9-13.4,18.5-20.3,34.7-20.3s27.8,6.8,34.7,20.3c5.6,10.9,8,26.4,8,50.3s-2.4,40.5-8,51.5c-6.8,13.3-18.5,20.1-34.8,20.1Z" class="cls-1"/><path d="M662.3,1081.4c-7.8,0-14-6.3-14-14v-74.3c-6.4-1.3-11.3-7-11.3-13.8v-23.6c0-7.8,6.3-14,14-14h47.7c7.8,0,14,6.3,14,14v23.6c0,6.8-4.9,12.5-11.3,13.8v74.3c0,7.8-6.3,14-14,14h-25.1Z" class="cls-1"/><path d="M778.8,1081.4c-1.4,0-2.8-.2-4-.6-1.3.4-2.6.6-4,.6h-27c-7.1,0-13.1-5.3-13.9-12.3l-14-111.7c-.5-4,.7-8,3.4-11,2.7-3,6.5-4.8,10.5-4.8h28.7c1.4,0,2.8.2,4.1.6,1.3-.4,2.7-.6,4.1-.6h22.8c1.5,0,3,.2,4.4.7,1.4-.5,2.9-.7,4.4-.7h23.4c4,0,7.9,1.7,10.5,4.8,2.7,3,3.9,7,3.4,11l-14,111.7c-.9,7-6.9,12.3-13.9,12.3h-28.8Z" class="cls-1"/><path d="M828.5,1081.4c-7.8,0-14-6.3-14-14v-111.7c0-7.8,6.3-14,14-14h40.8c7.8,0,14,6.3,14,14v23.6c0,5.7-3.4,10.6-8.3,12.8,3.3,2.6,5.4,6.6,5.4,11.1v16.1c0,4.6-2.2,8.6-5.5,11.2,5.5,1.9,9.4,7.1,9.4,13.3v23.6c0,7.8-6.3,14-14,14h-41.8Z" class="cls-1"/><path d="M877.5,1081.4c-7.8,0-14-6.3-14-14v-111.7c0-7.8,6.3-14,14-14h40.8c7.8,0,14,6.3,14,14v23.6c0,5.7-3.4,10.6-8.3,12.8,3.3,2.6,5.4,6.6,5.4,11.1v16.1c0,4.6-2.2,8.6-5.5,11.2,5.5,1.9,9.4,7.1,9.4,13.3v23.6c0,7.8-6.3,14-14,14h-41.8Z" class="cls-1"/><path d="M961,1081.4c-1.6,0-3.2-.3-4.7-.8-1.5.5-3.1.8-4.7.8h-25.1c-7.8,0-14-6.3-14-14v-111.7c0-7.8,6.3-14,14-14h25.1c1.8,0,3.4.3,5,.9,1.6-.6,3.2-.9,5-.9h26c4.4,0,8.5,2,11.1,5.5,2.7,3.5,3.6,7.9,2.5,12.2l-12.1,46,14.3,58.8c1,4.2,0,8.6-2.6,12s-6.7,5.4-11,5.4h-28.7Z" class="cls-1"/></g><g><path d="M558,1078.3c-1.5,0-2.9-.2-4.2-.6-1.3.4-2.7.6-4.2.6h-25.1c-7.8,0-14-6.3-14-14v-111.7c0-7.8,6.3-14,14-14h25.1c1.5,0,2.9.2,4.2.6,1.3-.4,2.7-.6,4.2-.6h25.3c7.8,0,14,6.3,14,14v111.7c0,7.8-6.3,14-14,14h-25.3Z" class="cls-1"/><path d="M620.4,1079.5c-16.3,0-27.9-6.7-34.7-19.8-5.6-11-8.1-26.5-8.1-51.8s2.5-39.4,8-50.3c6.9-13.4,18.5-20.3,34.7-20.3s27.8,6.8,34.7,20.3c5.6,10.9,8,26.4,8,50.3s-2.4,40.5-8,51.5c-6.8,13.3-18.5,20.1-34.8,20.1Z" class="cls-1"/><path d="M665.1,1078.3c-7.8,0-14-6.3-14-14v-74.3c-6.4-1.3-11.3-7-11.3-13.8v-23.6c0-7.8,6.3-14,14-14h47.7c7.8,0,14,6.3,14,14v23.6c0,6.8-4.9,12.5-11.3,13.8v74.3c0,7.8-6.3,14-14,14h-25.1Z" class="cls-1"/><path d="M781.7,1078.3c-1.4,0-2.8-.2-4-.6-1.3.4-2.6.6-4,.6h-27c-7.1,0-13.1-5.3-13.9-12.3l-14-111.7c-.5-4,.7-8,3.4-11,2.7-3,6.5-4.8,10.5-4.8h28.7c1.4,0,2.8.2,4.1.6,1.3-.4,2.7-.6,4.1-.6h22.8c1.5,0,3,.2,4.4.7,1.4-.5,2.9-.7,4.4-.7h23.4c4,0,7.9,1.7,10.5,4.8,2.7,3,3.9,7,3.4,11l-14,111.7c-.9,7-6.9,12.3-13.9,12.3h-28.8Z" class="cls-1"/><path d="M831.3,1078.3c-7.8,0-14-6.3-14-14v-111.7c0-7.8,6.3-14,14-14h40.8c7.8,0,14,6.3,14,14v23.6c0,5.7-3.4,10.6-8.3,12.8,3.3,2.6,5.4,6.6,5.4,11.1v16.1c0,4.6-2.2,8.6-5.5,11.2,5.5,1.9,9.4,7.1,9.4,13.3v23.6c0,7.8-6.3,14-14,14h-41.8Z" class="cls-1"/><path d="M880.3,1078.3c-7.8,0-14-6.3-14-14v-111.7c0-7.8,6.3-14,14-14h40.8c7.8,0,14,6.3,14,14v23.6c0,5.7-3.4,10.6-8.3,12.8,3.3,2.6,5.4,6.6,5.4,11.1v16.1c0,4.6-2.2,8.6-5.5,11.2,5.5,1.9,9.4,7.1,9.4,13.3v23.6c0,7.8-6.3,14-14,14h-41.8Z" class="cls-1"/><path d="M963.8,1078.3c-1.6,0-3.2-.3-4.7-.8-1.5.5-3.1.8-4.7.8h-25.1c-7.8,0-14-6.3-14-14v-111.7c0-7.8,6.3-14,14-14h25.1c1.8,0,3.4.3,5,.9,1.6-.6,3.2-.9,5-.9h26c4.4,0,8.5,2,11.1,5.5,2.7,3.5,3.6,7.9,2.5,12.2l-12.1,46,14.3,58.8c1,4.2,0,8.6-2.6,12s-6.7,5.4-11,5.4h-28.7Z" class="cls-1"/></g><g><path d="M560.8,1075.2c-1.5,0-2.9-.2-4.2-.6-1.3.4-2.7.6-4.2.6h-25.1c-7.8,0-14-6.3-14-14v-111.7c0-7.8,6.3-14,14-14h25.1c1.5,0,2.9.2,4.2.6,1.3-.4,2.7-.6,4.2-.6h25.3c7.8,0,14,6.3,14,14v111.7c0,7.8-6.3,14-14,14h-25.3Z" class="cls-1"/><path d="M623.2,1076.4c-16.3,0-27.9-6.7-34.7-19.8-5.6-11-8.1-26.5-8.1-51.8s2.5-39.4,8-50.3c6.9-13.4,18.5-20.3,34.7-20.3s27.8,6.8,34.7,20.3c5.6,10.9,8,26.4,8,50.3s-2.4,40.5-8,51.5c-6.8,13.3-18.5,20.1-34.8,20.1Z" class="cls-1"/><path d="M667.9,1075.2c-7.8,0-14-6.3-14-14v-74.3c-6.4-1.3-11.3-7-11.3-13.8v-23.6c0-7.8,6.3-14,14-14h47.7c7.8,0,14,6.3,14,14v23.6c0,6.8-4.9,12.5-11.3,13.8v74.3c0,7.8-6.3,14-14,14h-25.1Z" class="cls-1"/><path d="M784.5,1075.2c-1.4,0-2.8-.2-4-.6-1.3.4-2.6.6-4,.6h-27c-7.1,0-13.1-5.3-13.9-12.3l-14-111.7c-.5-4,.7-8,3.4-11,2.7-3,6.5-4.8,10.5-4.8h28.7c1.4,0,2.8.2,4.1.6,1.3-.4,2.7-.6,4.1-.6h22.8c1.5,0,3,.2,4.4.7,1.4-.5,2.9-.7,4.4-.7h23.4c4,0,7.9,1.7,10.5,4.8,2.7,3,3.9,7,3.4,11l-14,111.7c-.9,7-6.9,12.3-13.9,12.3h-28.8Z" class="cls-1"/><path d="M834.2,1075.2c-7.8,0-14-6.3-14-14v-111.7c0-7.8,6.3-14,14-14h40.8c7.8,0,14,6.3,14,14v23.6c0,5.7-3.4,10.6-8.3,12.8,3.3,2.6,5.4,6.6,5.4,11.1v16.1c0,4.6-2.2,8.6-5.5,11.2,5.5,1.9,9.4,7.1,9.4,13.3v23.6c0,7.8-6.3,14-14,14h-41.8Z" class="cls-1"/><path d="M883.1,1075.2c-7.8,0-14-6.3-14-14v-111.7c0-7.8,6.3-14,14-14h40.8c7.8,0,14,6.3,14,14v23.6c0,5.7-3.4,10.6-8.3,12.8,3.3,2.6,5.4,6.6,5.4,11.1v16.1c0,4.6-2.2,8.6-5.5,11.2,5.5,1.9,9.4,7.1,9.4,13.3v23.6c0,7.8-6.3,14-14,14h-41.8Z" class="cls-1"/><path d="M966.6,1075.2c-1.6,0-3.2-.3-4.7-.8-1.5.5-3.1.8-4.7.8h-25.1c-7.8,0-14-6.3-14-14v-111.7c0-7.8,6.3-14,14-14h25.1c1.8,0,3.4.3,5,.9,1.6-.6,3.2-.9,5-.9h26c4.4,0,8.5,2,11.1,5.5,2.7,3.5,3.6,7.9,2.5,12.2l-12.1,46,14.3,58.8c1,4.2,0,8.6-2.6,12s-6.7,5.4-11,5.4h-28.7Z" class="cls-1"/></g><g><path d="M563.6,1072.1c-1.5,0-2.9-.2-4.2-.6-1.3.4-2.7.6-4.2.6h-25.1c-7.8,0-14-6.3-14-14v-111.7c0-7.8,6.3-14,14-14h25.1c1.5,0,2.9.2,4.2.6,1.3-.4,2.7-.6,4.2-.6h25.3c7.8,0,14,6.3,14,14v111.7c0,7.8-6.3,14-14,14h-25.3Z" class="cls-1"/><path d="M626,1073.3c-16.3,0-27.9-6.7-34.7-19.8-5.6-11-8.1-26.5-8.1-51.8s2.5-39.4,8-50.3c6.9-13.4,18.5-20.3,34.7-20.3s27.8,6.8,34.7,20.3c5.6,10.9,8,26.4,8,50.3s-2.4,40.5-8,51.5c-6.8,13.3-18.5,20.1-34.8,20.1Z" class="cls-1"/><path d="M670.7,1072.1c-7.8,0-14-6.3-14-14v-74.3c-6.4-1.3-11.3-7-11.3-13.8v-23.6c0-7.8,6.3-14,14-14h47.7c7.8,0,14,6.3,14,14v23.6c0,6.8-4.9,12.5-11.3,13.8v74.3c0,7.8-6.3,14-14,14h-25.1Z" class="cls-1"/><path d="M787.3,1072.1c-1.4,0-2.8-.2-4-.6-1.3.4-2.6.6-4,.6h-27c-7.1,0-13.1-5.3-13.9-12.3l-14-111.7c-.5-4,.7-8,3.4-11,2.7-3,6.5-4.8,10.5-4.8h28.7c1.4,0,2.8.2,4.1.6,1.3-.4,2.7-.6,4.1-.6h22.8c1.5,0,3,.2,4.4.7,1.4-.5,2.9-.7,4.4-.7h23.4c4,0,7.9,1.7,10.5,4.8,2.7,3,3.9,7,3.4,11l-14,111.7c-.9,7-6.9,12.3-13.9,12.3h-28.8Z" class="cls-1"/><path d="M837,1072.1c-7.8,0-14-6.3-14-14v-111.7c0-7.8,6.3-14,14-14h40.8c7.8,0,14,6.3,14,14v23.6c0,5.7-3.4,10.6-8.3,12.8,3.3,2.6,5.4,6.6,5.4,11.1v16.1c0,4.6-2.2,8.6-5.5,11.2,5.5,1.9,9.4,7.1,9.4,13.3v23.6c0,7.8-6.3,14-14,14h-41.8Z" class="cls-1"/><path d="M885.9,1072.1c-7.8,0-14-6.3-14-14v-111.7c0-7.8,6.3-14,14-14h40.8c7.8,0,14,6.3,14,14v23.6c0,5.7-3.4,10.6-8.3,12.8,3.3,2.6,5.4,6.6,5.4,11.1v16.1c0,4.6-2.2,8.6-5.5,11.2,5.5,1.9,9.4,7.1,9.4,13.3v23.6c0,7.8-6.3,14-14,14h-41.8Z" class="cls-1"/><path d="M969.4,1072.1c-1.6,0-3.2-.3-4.7-.8-1.5.5-3.1.8-4.7.8h-25.1c-7.8,0-14-6.3-14-14v-111.7c0-7.8,6.3-14,14-14h25.1c1.8,0,3.4.3,5,.9,1.6-.6,3.2-.9,5-.9h26c4.4,0,8.5,2,11.1,5.5,2.7,3.5,3.6,7.9,2.5,12.2l-12.1,46,14.3,58.8c1,4.2,0,8.6-2.6,12s-6.7,5.4-11,5.4h-28.7Z" class="cls-1"/></g><g><path d="M566.4,1068.9c-1.5,0-2.9-.2-4.2-.6-1.3.4-2.7.6-4.2.6h-25.1c-7.8,0-14-6.3-14-14v-111.7c0-7.8,6.3-14,14-14h25.1c1.5,0,2.9.2,4.2.6,1.3-.4,2.7-.6,4.2-.6h25.3c7.8,0,14,6.3,14,14v111.7c0,7.8-6.3,14-14,14h-25.3Z" class="cls-1"/><path d="M628.9,1070.1c-16.3,0-27.9-6.7-34.7-19.8-5.6-11-8.1-26.5-8.1-51.8s2.5-39.4,8-50.3c6.9-13.4,18.5-20.3,34.7-20.3s27.8,6.8,34.7,20.3c5.6,10.9,8,26.4,8,50.3s-2.4,40.5-8,51.5c-6.8,13.3-18.5,20.1-34.8,20.1Z" class="cls-1"/><path d="M673.5,1068.9c-7.8,0-14-6.3-14-14v-74.3c-6.4-1.3-11.3-7-11.3-13.8v-23.6c0-7.8,6.3-14,14-14h47.7c7.8,0,14,6.3,14,14v23.6c0,6.8-4.9,12.5-11.3,13.8v74.3c0,7.8-6.3,14-14,14h-25.1Z" class="cls-1"/><path d="M790.1,1068.9c-1.4,0-2.8-.2-4-.6-1.3.4-2.6.6-4,.6h-27c-7.1,0-13.1-5.3-13.9-12.3l-14-111.7c-.5-4,.7-8,3.4-11,2.7-3,6.5-4.8,10.5-4.8h28.7c1.4,0,2.8.2,4.1.6,1.3-.4,2.7-.6,4.1-.6h22.8c1.5,0,3,.2,4.4.7,1.4-.5,2.9-.7,4.4-.7h23.4c4,0,7.9,1.7,10.5,4.8,2.7,3,3.9,7,3.4,11l-14,111.7c-.9,7-6.9,12.3-13.9,12.3h-28.8Z" class="cls-1"/><path d="M839.8,1068.9c-7.8,0-14-6.3-14-14v-111.7c0-7.8,6.3-14,14-14h40.8c7.8,0,14,6.3,14,14v23.6c0,5.7-3.4,10.6-8.3,12.8,3.3,2.6,5.4,6.6,5.4,11.1v16.1c0,4.6-2.2,8.6-5.5,11.2,5.5,1.9,9.4,7.1,9.4,13.3v23.6c0,7.8-6.3,14-14,14h-41.8Z" class="cls-1"/><path d="M888.7,1068.9c-7.8,0-14-6.3-14-14v-111.7c0-7.8,6.3-14,14-14h40.8c7.8,0,14,6.3,14,14v23.6c0,5.7-3.4,10.6-8.3,12.8,3.3,2.6,5.4,6.6,5.4,11.1v16.1c0,4.6-2.2,8.6-5.5,11.2,5.5,1.9,9.4,7.1,9.4,13.3v23.6c0,7.8-6.3,14-14,14h-41.8Z" class="cls-1"/><path d="M972.2,1068.9c-1.6,0-3.2-.3-4.7-.8-1.5.5-3.1.8-4.7.8h-25.1c-7.8,0-14-6.3-14-14v-111.7c0-7.8,6.3-14,14-14h25.1c1.8,0,3.4.3,5,.9,1.6-.6,3.2-.9,5-.9h26c4.4,0,8.5,2,11.1,5.5,2.7,3.5,3.6,7.9,2.5,12.2l-12.1,46,14.3,58.8c1,4.2,0,8.6-2.6,12s-6.7,5.4-11,5.4h-28.7Z" class="cls-1"/></g><g><path d="M569.2,1065.8c-1.5,0-2.9-.2-4.2-.6-1.3.4-2.7.6-4.2.6h-25.1c-7.8,0-14-6.3-14-14v-111.7c0-7.8,6.3-14,14-14h25.1c1.5,0,2.9.2,4.2.6,1.3-.4,2.7-.6,4.2-.6h25.3c7.8,0,14,6.3,14,14v111.7c0,7.8-6.3,14-14,14h-25.3Z" class="cls-1"/><path d="M631.7,1067c-16.3,0-27.9-6.7-34.7-19.8-5.6-11-8.1-26.5-8.1-51.8s2.5-39.4,8-50.3c6.9-13.4,18.5-20.3,34.7-20.3s27.8,6.8,34.7,20.3c5.6,10.9,8,26.4,8,50.3s-2.4,40.5-8,51.5c-6.8,13.3-18.5,20.1-34.8,20.1Z" class="cls-1"/><path d="M676.4,1065.8c-7.8,0-14-6.3-14-14v-74.3c-6.4-1.3-11.3-7-11.3-13.8v-23.6c0-7.8,6.3-14,14-14h47.7c7.8,0,14,6.3,14,14v23.6c0,6.8-4.9,12.5-11.3,13.8v74.3c0,7.8-6.3,14-14,14h-25.1Z" class="cls-1"/><path d="M792.9,1065.8c-1.4,0-2.8-.2-4-.6-1.3.4-2.6.6-4,.6h-27c-7.1,0-13.1-5.3-13.9-12.3l-14-111.7c-.5-4,.7-8,3.4-11,2.7-3,6.5-4.8,10.5-4.8h28.7c1.4,0,2.8.2,4.1.6,1.3-.4,2.7-.6,4.1-.6h22.8c1.5,0,3,.2,4.4.7,1.4-.5,2.9-.7,4.4-.7h23.4c4,0,7.9,1.7,10.5,4.8,2.7,3,3.9,7,3.4,11l-14,111.7c-.9,7-6.9,12.3-13.9,12.3h-28.8Z" class="cls-1"/><path d="M842.6,1065.8c-7.8,0-14-6.3-14-14v-111.7c0-7.8,6.3-14,14-14h40.8c7.8,0,14,6.3,14,14v23.6c0,5.7-3.4,10.6-8.3,12.8,3.3,2.6,5.4,6.6,5.4,11.1v16.1c0,4.6-2.2,8.6-5.5,11.2,5.5,1.9,9.4,7.1,9.4,13.3v23.6c0,7.8-6.3,14-14,14h-41.8Z" class="cls-1"/><path d="M891.5,1065.8c-7.8,0-14-6.3-14-14v-111.7c0-7.8,6.3-14,14-14h40.8c7.8,0,14,6.3,14,14v23.6c0,5.7-3.4,10.6-8.3,12.8,3.3,2.6,5.4,6.6,5.4,11.1v16.1c0,4.6-2.2,8.6-5.5,11.2,5.5,1.9,9.4,7.1,9.4,13.3v23.6c0,7.8-6.3,14-14,14h-41.8Z" class="cls-1"/><path d="M975.1,1065.8c-1.6,0-3.2-.3-4.7-.8-1.5.5-3.1.8-4.7.8h-25.1c-7.8,0-14-6.3-14-14v-111.7c0-7.8,6.3-14,14-14h25.1c1.8,0,3.4.3,5,.9,1.6-.6,3.2-.9,5-.9h26c4.4,0,8.5,2,11.1,5.5,2.7,3.5,3.6,7.9,2.5,12.2l-12.1,46,14.3,58.8c1,4.2,0,8.6-2.6,12s-6.7,5.4-11,5.4h-28.7Z" class="cls-1"/></g><g><path d="M572,1062.7c-1.5,0-2.9-.2-4.2-.6-1.3.4-2.7.6-4.2.6h-25.1c-7.8,0-14-6.3-14-14v-111.7c0-7.8,6.3-14,14-14h25.1c1.5,0,2.9.2,4.2.6,1.3-.4,2.7-.6,4.2-.6h25.3c7.8,0,14,6.3,14,14v111.7c0,7.8-6.3,14-14,14h-25.3Z" class="cls-1"/><path d="M634.5,1063.9c-16.3,0-27.9-6.7-34.7-19.8-5.6-11-8.1-26.5-8.1-51.8s2.5-39.4,8-50.3c6.9-13.4,18.5-20.3,34.7-20.3s27.8,6.8,34.7,20.3c5.6,10.9,8,26.4,8,50.3s-2.4,40.5-8,51.5c-6.8,13.3-18.5,20.1-34.8,20.1Z" class="cls-1"/><path d="M679.2,1062.7c-7.8,0-14-6.3-14-14v-74.3c-6.4-1.3-11.3-7-11.3-13.8v-23.6c0-7.8,6.3-14,14-14h47.7c7.8,0,14,6.3,14,14v23.6c0,6.8-4.9,12.5-11.3,13.8v74.3c0,7.8-6.3,14-14,14h-25.1Z" class="cls-1"/><path d="M795.7,1062.7c-1.4,0-2.8-.2-4-.6-1.3.4-2.6.6-4,.6h-27c-7.1,0-13.1-5.3-13.9-12.3l-14-111.7c-.5-4,.7-8,3.4-11,2.7-3,6.5-4.8,10.5-4.8h28.7c1.4,0,2.8.2,4.1.6,1.3-.4,2.7-.6,4.1-.6h22.8c1.5,0,3,.2,4.4.7,1.4-.5,2.9-.7,4.4-.7h23.4c4,0,7.9,1.7,10.5,4.8,2.7,3,3.9,7,3.4,11l-14,111.7c-.9,7-6.9,12.3-13.9,12.3h-28.8Z" class="cls-1"/><path d="M845.4,1062.7c-7.8,0-14-6.3-14-14v-111.7c0-7.8,6.3-14,14-14h40.8c7.8,0,14,6.3,14,14v23.6c0,5.7-3.4,10.6-8.3,12.8,3.3,2.6,5.4,6.6,5.4,11.1v16.1c0,4.6-2.2,8.6-5.5,11.2,5.5,1.9,9.4,7.1,9.4,13.3v23.6c0,7.8-6.3,14-14,14h-41.8Z" class="cls-1"/><path d="M894.3,1062.7c-7.8,0-14-6.3-14-14v-111.7c0-7.8,6.3-14,14-14h40.8c7.8,0,14,6.3,14,14v23.6c0,5.7-3.4,10.6-8.3,12.8,3.3,2.6,5.4,6.6,5.4,11.1v16.1c0,4.6-2.2,8.6-5.5,11.2,5.5,1.9,9.4,7.1,9.4,13.3v23.6c0,7.8-6.3,14-14,14h-41.8Z" class="cls-1"/><path d="M977.9,1062.7c-1.6,0-3.2-.3-4.7-.8-1.5.5-3.1.8-4.7.8h-25.1c-7.8,0-14-6.3-14-14v-111.7c0-7.8,6.3-14,14-14h25.1c1.8,0,3.4.3,5,.9,1.6-.6,3.2-.9,5-.9h26c4.4,0,8.5,2,11.1,5.5,2.7,3.5,3.6,7.9,2.5,12.2l-12.1,46,14.3,58.8c1,4.2,0,8.6-2.6,12s-6.7,5.4-11,5.4h-28.7Z" class="cls-1"/></g><g><path d="M574.9,1059.6c-1.5,0-2.9-.2-4.2-.6-1.3.4-2.7.6-4.2.6h-25.1c-7.8,0-14-6.3-14-14v-111.7c0-7.8,6.3-14,14-14h25.1c1.5,0,2.9.2,4.2.6,1.3-.4,2.7-.6,4.2-.6h25.3c7.8,0,14,6.3,14,14v111.7c0,7.8-6.3,14-14,14h-25.3Z" class="cls-1"/><path d="M637.3,1060.8c-16.3,0-27.9-6.7-34.7-19.8-5.6-11-8.1-26.5-8.1-51.8s2.5-39.4,8-50.3c6.9-13.4,18.5-20.3,34.7-20.3s27.8,6.8,34.7,20.3c5.6,10.9,8,26.4,8,50.3s-2.4,40.5-8,51.5c-6.8,13.3-18.5,20.1-34.8,20.1Z" class="cls-1"/><path d="M682,1059.6c-7.8,0-14-6.3-14-14v-74.3c-6.4-1.3-11.3-7-11.3-13.8v-23.6c0-7.8,6.3-14,14-14h47.7c7.8,0,14,6.3,14,14v23.6c0,6.8-4.9,12.5-11.3,13.8v74.3c0,7.8-6.3,14-14,14h-25.1Z" class="cls-1"/><path d="M798.5,1059.6c-1.4,0-2.8-.2-4-.6-1.3.4-2.6.6-4,.6h-27c-7.1,0-13.1-5.3-13.9-12.3l-14-111.7c-.5-4,.7-8,3.4-11,2.7-3,6.5-4.8,10.5-4.8h28.7c1.4,0,2.8.2,4.1.6,1.3-.4,2.7-.6,4.1-.6h22.8c1.5,0,3,.2,4.4.7,1.4-.5,2.9-.7,4.4-.7h23.4c4,0,7.9,1.7,10.5,4.8,2.7,3,3.9,7,3.4,11l-14,111.7c-.9,7-6.9,12.3-13.9,12.3h-28.8Z" class="cls-1"/><path d="M848.2,1059.6c-7.8,0-14-6.3-14-14v-111.7c0-7.8,6.3-14,14-14h40.8c7.8,0,14,6.3,14,14v23.6c0,5.7-3.4,10.6-8.3,12.8,3.3,2.6,5.4,6.6,5.4,11.1v16.1c0,4.6-2.2,8.6-5.5,11.2,5.5,1.9,9.4,7.1,9.4,13.3v23.6c0,7.8-6.3,14-14,14h-41.8Z" class="cls-1"/><path d="M897.2,1059.6c-7.8,0-14-6.3-14-14v-111.7c0-7.8,6.3-14,14-14h40.8c7.8,0,14,6.3,14,14v23.6c0,5.7-3.4,10.6-8.3,12.8,3.3,2.6,5.4,6.6,5.4,11.1v16.1c0,4.6-2.2,8.6-5.5,11.2,5.5,1.9,9.4,7.1,9.4,13.3v23.6c0,7.8-6.3,14-14,14h-41.8Z" class="cls-1"/><path d="M980.7,1059.6c-1.6,0-3.2-.3-4.7-.8-1.5.5-3.1.8-4.7.8h-25.1c-7.8,0-14-6.3-14-14v-111.7c0-7.8,6.3-14,14-14h25.1c1.8,0,3.4.3,5,.9,1.6-.6,3.2-.9,5-.9h26c4.4,0,8.5,2,11.1,5.5,2.7,3.5,3.6,7.9,2.5,12.2l-12.1,46,14.3,58.8c1,4.2,0,8.6-2.6,12s-6.7,5.4-11,5.4h-28.7Z" class="cls-1"/></g><g><path d="M577.7,1056.5c-1.5,0-2.9-.2-4.2-.6-1.3.4-2.7.6-4.2.6h-25.1c-7.8,0-14-6.3-14-14v-111.7c0-7.8,6.3-14,14-14h25.1c1.5,0,2.9.2,4.2.6,1.3-.4,2.7-.6,4.2-.6h25.3c7.8,0,14,6.3,14,14v111.7c0,7.8-6.3,14-14,14h-25.3Z" class="cls-1"/><path d="M640.1,1057.6c-16.3,0-27.9-6.7-34.7-19.8-5.6-11-8.1-26.5-8.1-51.8s2.5-39.4,8-50.3c6.9-13.4,18.5-20.3,34.7-20.3s27.8,6.8,34.7,20.3c5.6,10.9,8,26.4,8,50.3s-2.4,40.5-8,51.5c-6.8,13.3-18.5,20.1-34.8,20.1Z" class="cls-1"/><path d="M684.8,1056.5c-7.8,0-14-6.3-14-14v-74.3c-6.4-1.3-11.3-7-11.3-13.8v-23.6c0-7.8,6.3-14,14-14h47.7c7.8,0,14,6.3,14,14v23.6c0,6.8-4.9,12.5-11.3,13.8v74.3c0,7.8-6.3,14-14,14h-25.1Z" class="cls-1"/><path d="M801.3,1056.5c-1.4,0-2.8-.2-4-.6-1.3.4-2.6.6-4,.6h-27c-7.1,0-13.1-5.3-13.9-12.3l-14-111.7c-.5-4,.7-8,3.4-11,2.7-3,6.5-4.8,10.5-4.8h28.7c1.4,0,2.8.2,4.1.6,1.3-.4,2.7-.6,4.1-.6h22.8c1.5,0,3,.2,4.4.7,1.4-.5,2.9-.7,4.4-.7h23.4c4,0,7.9,1.7,10.5,4.8,2.7,3,3.9,7,3.4,11l-14,111.7c-.9,7-6.9,12.3-13.9,12.3h-28.8Z" class="cls-1"/><path d="M851,1056.5c-7.8,0-14-6.3-14-14v-111.7c0-7.8,6.3-14,14-14h40.8c7.8,0,14,6.3,14,14v23.6c0,5.7-3.4,10.6-8.3,12.8,3.3,2.6,5.4,6.6,5.4,11.1v16.1c0,4.6-2.2,8.6-5.5,11.2,5.5,1.9,9.4,7.1,9.4,13.3v23.6c0,7.8-6.3,14-14,14h-41.8Z" class="cls-1"/><path d="M900,1056.5c-7.8,0-14-6.3-14-14v-111.7c0-7.8,6.3-14,14-14h40.8c7.8,0,14,6.3,14,14v23.6c0,5.7-3.4,10.6-8.3,12.8,3.3,2.6,5.4,6.6,5.4,11.1v16.1c0,4.6-2.2,8.6-5.5,11.2,5.5,1.9,9.4,7.1,9.4,13.3v23.6c0,7.8-6.3,14-14,14h-41.8Z" class="cls-1"/><path d="M983.5,1056.5c-1.6,0-3.2-.3-4.7-.8-1.5.5-3.1.8-4.7.8h-25.1c-7.8,0-14-6.3-14-14v-111.7c0-7.8,6.3-14,14-14h25.1c1.8,0,3.4.3,5,.9,1.6-.6,3.2-.9,5-.9h26c4.4,0,8.5,2,11.1,5.5,2.7,3.5,3.6,7.9,2.5,12.2l-12.1,46,14.3,58.8c1,4.2,0,8.6-2.6,12s-6.7,5.4-11,5.4h-28.7Z" class="cls-1"/></g><g><path d="M580.5,1053.3c-1.5,0-2.9-.2-4.2-.6-1.3.4-2.7.6-4.2.6h-25.1c-7.8,0-14-6.3-14-14v-111.7c0-7.8,6.3-14,14-14h25.1c1.5,0,2.9.2,4.2.6,1.3-.4,2.7-.6,4.2-.6h25.3c7.8,0,14,6.3,14,14v111.7c0,7.8-6.3,14-14,14h-25.3Z" class="cls-1"/><path d="M642.9,1054.5c-16.3,0-27.9-6.7-34.7-19.8-5.6-11-8.1-26.5-8.1-51.8s2.5-39.4,8-50.3c6.9-13.4,18.5-20.3,34.7-20.3s27.8,6.8,34.7,20.3c5.6,10.9,8,26.4,8,50.3s-2.4,40.5-8,51.5c-6.8,13.3-18.5,20.1-34.8,20.1Z" class="cls-1"/><path d="M687.6,1053.3c-7.8,0-14-6.3-14-14v-74.3c-6.4-1.3-11.3-7-11.3-13.8v-23.6c0-7.8,6.3-14,14-14h47.7c7.8,0,14,6.3,14,14v23.6c0,6.8-4.9,12.5-11.3,13.8v74.3c0,7.8-6.3,14-14,14h-25.1Z" class="cls-1"/><path d="M804.1,1053.3c-1.4,0-2.8-.2-4-.6-1.3.4-2.6.6-4,.6h-27c-7.1,0-13.1-5.3-13.9-12.3l-14-111.7c-.5-4,.7-8,3.4-11,2.7-3,6.5-4.8,10.5-4.8h28.7c1.4,0,2.8.2,4.1.6,1.3-.4,2.7-.6,4.1-.6h22.8c1.5,0,3,.2,4.4.7,1.4-.5,2.9-.7,4.4-.7h23.4c4,0,7.9,1.7,10.5,4.8,2.7,3,3.9,7,3.4,11l-14,111.7c-.9,7-6.9,12.3-13.9,12.3h-28.8Z" class="cls-1"/><path d="M853.8,1053.3c-7.8,0-14-6.3-14-14v-111.7c0-7.8,6.3-14,14-14h40.8c7.8,0,14,6.3,14,14v23.6c0,5.7-3.4,10.6-8.3,12.8,3.3,2.6,5.4,6.6,5.4,11.1v16.1c0,4.6-2.2,8.6-5.5,11.2,5.5,1.9,9.4,7.1,9.4,13.3v23.6c0,7.8-6.3,14-14,14h-41.8Z" class="cls-1"/><path d="M902.8,1053.3c-7.8,0-14-6.3-14-14v-111.7c0-7.8,6.3-14,14-14h40.8c7.8,0,14,6.3,14,14v23.6c0,5.7-3.4,10.6-8.3,12.8,3.3,2.6,5.4,6.6,5.4,11.1v16.1c0,4.6-2.2,8.6-5.5,11.2,5.5,1.9,9.4,7.1,9.4,13.3v23.6c0,7.8-6.3,14-14,14h-41.8Z" class="cls-1"/><path d="M986.3,1053.3c-1.6,0-3.2-.3-4.7-.8-1.5.5-3.1.8-4.7.8h-25.1c-7.8,0-14-6.3-14-14v-111.7c0-7.8,6.3-14,14-14h25.1c1.8,0,3.4.3,5,.9,1.6-.6,3.2-.9,5-.9h26c4.4,0,8.5,2,11.1,5.5,2.7,3.5,3.6,7.9,2.5,12.2l-12.1,46,14.3,58.8c1,4.2,0,8.6-2.6,12s-6.7,5.4-11,5.4h-28.7Z" class="cls-1"/></g><g><path d="M583.3,1050.2c-1.5,0-2.9-.2-4.2-.6-1.3.4-2.7.6-4.2.6h-25.1c-7.8,0-14-6.3-14-14v-111.7c0-7.8,6.3-14,14-14h25.1c1.5,0,2.9.2,4.2.6,1.3-.4,2.7-.6,4.2-.6h25.3c7.8,0,14,6.3,14,14v111.7c0,7.8-6.3,14-14,14h-25.3Z" class="cls-1"/><path d="M645.7,1051.4c-16.3,0-27.9-6.7-34.7-19.8-5.6-11-8.1-26.5-8.1-51.8s2.5-39.4,8-50.3c6.9-13.4,18.5-20.3,34.7-20.3s27.8,6.8,34.7,20.3c5.6,10.9,8,26.4,8,50.3s-2.4,40.5-8,51.5c-6.8,13.3-18.5,20.1-34.8,20.1Z" class="cls-1"/><path d="M690.4,1050.2c-7.8,0-14-6.3-14-14v-74.3c-6.4-1.3-11.3-7-11.3-13.8v-23.6c0-7.8,6.3-14,14-14h47.7c7.8,0,14,6.3,14,14v23.6c0,6.8-4.9,12.5-11.3,13.8v74.3c0,7.8-6.3,14-14,14h-25.1Z" class="cls-1"/><path d="M806.9,1050.2c-1.4,0-2.8-.2-4-.6-1.3.4-2.6.6-4,.6h-27c-7.1,0-13.1-5.3-13.9-12.3l-14-111.7c-.5-4,.7-8,3.4-11,2.7-3,6.5-4.8,10.5-4.8h28.7c1.4,0,2.8.2,4.1.6,1.3-.4,2.7-.6,4.1-.6h22.8c1.5,0,3,.2,4.4.7,1.4-.5,2.9-.7,4.4-.7h23.4c4,0,7.9,1.7,10.5,4.8,2.7,3,3.9,7,3.4,11l-14,111.7c-.9,7-6.9,12.3-13.9,12.3h-28.8Z" class="cls-1"/><path d="M856.6,1050.2c-7.8,0-14-6.3-14-14v-111.7c0-7.8,6.3-14,14-14h40.8c7.8,0,14,6.3,14,14v23.6c0,5.7-3.4,10.6-8.3,12.8,3.3,2.6,5.4,6.6,5.4,11.1v16.1c0,4.6-2.2,8.6-5.5,11.2,5.5,1.9,9.4,7.1,9.4,13.3v23.6c0,7.8-6.3,14-14,14h-41.8Z" class="cls-1"/><path d="M905.6,1050.2c-7.8,0-14-6.3-14-14v-111.7c0-7.8,6.3-14,14-14h40.8c7.8,0,14,6.3,14,14v23.6c0,5.7-3.4,10.6-8.3,12.8,3.3,2.6,5.4,6.6,5.4,11.1v16.1c0,4.6-2.2,8.6-5.5,11.2,5.5,1.9,9.4,7.1,9.4,13.3v23.6c0,7.8-6.3,14-14,14h-41.8Z" class="cls-1"/><path d="M989.1,1050.2c-1.6,0-3.2-.3-4.7-.8-1.5.5-3.1.8-4.7.8h-25.1c-7.8,0-14-6.3-14-14v-111.7c0-7.8,6.3-14,14-14h25.1c1.8,0,3.4.3,5,.9,1.6-.6,3.2-.9,5-.9h26c4.4,0,8.5,2,11.1,5.5,2.7,3.5,3.6,7.9,2.5,12.2l-12.1,46,14.3,58.8c1,4.2,0,8.6-2.6,12s-6.7,5.4-11,5.4h-28.7Z" class="cls-1"/></g><g><path d="M586.1,1047.1c-1.5,0-2.9-.2-4.2-.6-1.3.4-2.7.6-4.2.6h-25.1c-7.8,0-14-6.3-14-14v-111.7c0-7.8,6.3-14,14-14h25.1c1.5,0,2.9.2,4.2.6,1.3-.4,2.7-.6,4.2-.6h25.3c7.8,0,14,6.3,14,14v111.7c0,7.8-6.3,14-14,14h-25.3Z" class="cls-1"/><path d="M648.5,1048.3c-16.3,0-27.9-6.7-34.7-19.8-5.6-11-8.1-26.5-8.1-51.8s2.5-39.4,8-50.3c6.9-13.4,18.5-20.3,34.7-20.3s27.8,6.8,34.7,20.3c5.6,10.9,8,26.4,8,50.3s-2.4,40.5-8,51.5c-6.8,13.3-18.5,20.1-34.8,20.1Z" class="cls-1"/><path d="M693.2,1047.1c-7.8,0-14-6.3-14-14v-74.3c-6.4-1.3-11.3-7-11.3-13.8v-23.6c0-7.8,6.3-14,14-14h47.7c7.8,0,14,6.3,14,14v23.6c0,6.8-4.9,12.5-11.3,13.8v74.3c0,7.8-6.3,14-14,14h-25.1Z" class="cls-1"/><path d="M809.8,1047.1c-1.4,0-2.8-.2-4-.6-1.3.4-2.6.6-4,.6h-27c-7.1,0-13.1-5.3-13.9-12.3l-14-111.7c-.5-4,.7-8,3.4-11,2.7-3,6.5-4.8,10.5-4.8h28.7c1.4,0,2.8.2,4.1.6,1.3-.4,2.7-.6,4.1-.6h22.8c1.5,0,3,.2,4.4.7,1.4-.5,2.9-.7,4.4-.7h23.4c4,0,7.9,1.7,10.5,4.8,2.7,3,3.9,7,3.4,11l-14,111.7c-.9,7-6.9,12.3-13.9,12.3h-28.8Z" class="cls-1"/><path d="M859.4,1047.1c-7.8,0-14-6.3-14-14v-111.7c0-7.8,6.3-14,14-14h40.8c7.8,0,14,6.3,14,14v23.6c0,5.7-3.4,10.6-8.3,12.8,3.3,2.6,5.4,6.6,5.4,11.1v16.1c0,4.6-2.2,8.6-5.5,11.2,5.5,1.9,9.4,7.1,9.4,13.3v23.6c0,7.8-6.3,14-14,14h-41.8Z" class="cls-1"/><path d="M908.4,1047.1c-7.8,0-14-6.3-14-14v-111.7c0-7.8,6.3-14,14-14h40.8c7.8,0,14,6.3,14,14v23.6c0,5.7-3.4,10.6-8.3,12.8,3.3,2.6,5.4,6.6,5.4,11.1v16.1c0,4.6-2.2,8.6-5.5,11.2,5.5,1.9,9.4,7.1,9.4,13.3v23.6c0,7.8-6.3,14-14,14h-41.8Z" class="cls-1"/><path d="M991.9,1047.1c-1.6,0-3.2-.3-4.7-.8-1.5.5-3.1.8-4.7.8h-25.1c-7.8,0-14-6.3-14-14v-111.7c0-7.8,6.3-14,14-14h25.1c1.8,0,3.4.3,5,.9,1.6-.6,3.2-.9,5-.9h26c4.4,0,8.5,2,11.1,5.5,2.7,3.5,3.6,7.9,2.5,12.2l-12.1,46,14.3,58.8c1,4.2,0,8.6-2.6,12s-6.7,5.4-11,5.4h-28.7Z" class="cls-1"/></g><g><path d="M588.9,1044c-1.5,0-2.9-.2-4.2-.6-1.3.4-2.7.6-4.2.6h-25.1c-7.8,0-14-6.3-14-14v-111.7c0-7.8,6.3-14,14-14h25.1c1.5,0,2.9.2,4.2.6,1.3-.4,2.7-.6,4.2-.6h25.3c7.8,0,14,6.3,14,14v111.7c0,7.8-6.3,14-14,14h-25.3Z" class="cls-1"/><path d="M651.3,1045.2c-16.3,0-27.9-6.7-34.7-19.8-5.6-11-8.1-26.5-8.1-51.8s2.5-39.4,8-50.3c6.9-13.4,18.5-20.3,34.7-20.3s27.8,6.8,34.7,20.3c5.6,10.9,8,26.4,8,50.3s-2.4,40.5-8,51.5c-6.8,13.3-18.5,20.1-34.8,20.1Z" class="cls-1"/><path d="M696,1044c-7.8,0-14-6.3-14-14v-74.3c-6.4-1.3-11.3-7-11.3-13.8v-23.6c0-7.8,6.3-14,14-14h47.7c7.8,0,14,6.3,14,14v23.6c0,6.8-4.9,12.5-11.3,13.8v74.3c0,7.8-6.3,14-14,14h-25.1Z" class="cls-1"/><path d="M812.6,1044c-1.4,0-2.8-.2-4-.6-1.3.4-2.6.6-4,.6h-27c-7.1,0-13.1-5.3-13.9-12.3l-14-111.7c-.5-4,.7-8,3.4-11,2.7-3,6.5-4.8,10.5-4.8h28.7c1.4,0,2.8.2,4.1.6,1.3-.4,2.7-.6,4.1-.6h22.8c1.5,0,3,.2,4.4.7,1.4-.5,2.9-.7,4.4-.7h23.4c4,0,7.9,1.7,10.5,4.8,2.7,3,3.9,7,3.4,11l-14,111.7c-.9,7-6.9,12.3-13.9,12.3h-28.8Z" class="cls-1"/><path d="M862.3,1044c-7.8,0-14-6.3-14-14v-111.7c0-7.8,6.3-14,14-14h40.8c7.8,0,14,6.3,14,14v23.6c0,5.7-3.4,10.6-8.3,12.8,3.3,2.6,5.4,6.6,5.4,11.1v16.1c0,4.6-2.2,8.6-5.5,11.2,5.5,1.9,9.4,7.1,9.4,13.3v23.6c0,7.8-6.3,14-14,14h-41.8Z" class="cls-1"/><path d="M911.2,1044c-7.8,0-14-6.3-14-14v-111.7c0-7.8,6.3-14,14-14h40.8c7.8,0,14,6.3,14,14v23.6c0,5.7-3.4,10.6-8.3,12.8,3.3,2.6,5.4,6.6,5.4,11.1v16.1c0,4.6-2.2,8.6-5.5,11.2,5.5,1.9,9.4,7.1,9.4,13.3v23.6c0,7.8-6.3,14-14,14h-41.8Z" class="cls-1"/><path d="M994.7,1044c-1.6,0-3.2-.3-4.7-.8-1.5.5-3.1.8-4.7.8h-25.1c-7.8,0-14-6.3-14-14v-111.7c0-7.8,6.3-14,14-14h25.1c1.8,0,3.4.3,5,.9,1.6-.6,3.2-.9,5-.9h26c4.4,0,8.5,2,11.1,5.5,2.7,3.5,3.6,7.9,2.5,12.2l-12.1,46,14.3,58.8c1,4.2,0,8.6-2.6,12s-6.7,5.4-11,5.4h-28.7Z" class="cls-1"/></g><g><path d="M591.7,1040.8c-1.5,0-2.9-.2-4.2-.6-1.3.4-2.7.6-4.2.6h-25.1c-7.8,0-14-6.3-14-14v-111.7c0-7.8,6.3-14,14-14h25.1c1.5,0,2.9.2,4.2.6,1.3-.4,2.7-.6,4.2-.6h25.3c7.8,0,14,6.3,14,14v111.7c0,7.8-6.3,14-14,14h-25.3Z" class="cls-1"/><path d="M654.1,1042c-16.3,0-27.9-6.7-34.7-19.8-5.6-11-8.1-26.5-8.1-51.8s2.5-39.4,8-50.3c6.9-13.4,18.5-20.3,34.7-20.3s27.8,6.8,34.7,20.3c5.6,10.9,8,26.4,8,50.3s-2.4,40.5-8,51.5c-6.8,13.3-18.5,20.1-34.8,20.1Z" class="cls-1"/><path d="M698.8,1040.8c-7.8,0-14-6.3-14-14v-74.3c-6.4-1.3-11.3-7-11.3-13.8v-23.6c0-7.8,6.3-14,14-14h47.7c7.8,0,14,6.3,14,14v23.6c0,6.8-4.9,12.5-11.3,13.8v74.3c0,7.8-6.3,14-14,14h-25.1Z" class="cls-1"/><path d="M815.4,1040.8c-1.4,0-2.8-.2-4-.6-1.3.4-2.6.6-4,.6h-27c-7.1,0-13.1-5.3-13.9-12.3l-14-111.7c-.5-4,.7-8,3.4-11,2.7-3,6.5-4.8,10.5-4.8h28.7c1.4,0,2.8.2,4.1.6,1.3-.4,2.7-.6,4.1-.6h22.8c1.5,0,3,.2,4.4.7,1.4-.5,2.9-.7,4.4-.7h23.4c4,0,7.9,1.7,10.5,4.8,2.7,3,3.9,7,3.4,11l-14,111.7c-.9,7-6.9,12.3-13.9,12.3h-28.8Z" class="cls-1"/><path d="M865.1,1040.8c-7.8,0-14-6.3-14-14v-111.7c0-7.8,6.3-14,14-14h40.8c7.8,0,14,6.3,14,14v23.6c0,5.7-3.4,10.6-8.3,12.8,3.3,2.6,5.4,6.6,5.4,11.1v16.1c0,4.6-2.2,8.6-5.5,11.2,5.5,1.9,9.4,7.1,9.4,13.3v23.6c0,7.8-6.3,14-14,14h-41.8Z" class="cls-1"/><path d="M914,1040.8c-7.8,0-14-6.3-14-14v-111.7c0-7.8,6.3-14,14-14h40.8c7.8,0,14,6.3,14,14v23.6c0,5.7-3.4,10.6-8.3,12.8,3.3,2.6,5.4,6.6,5.4,11.1v16.1c0,4.6-2.2,8.6-5.5,11.2,5.5,1.9,9.4,7.1,9.4,13.3v23.6c0,7.8-6.3,14-14,14h-41.8Z" class="cls-1"/><path d="M997.5,1040.8c-1.6,0-3.2-.3-4.7-.8-1.5.5-3.1.8-4.7.8h-25.1c-7.8,0-14-6.3-14-14v-111.7c0-7.8,6.3-14,14-14h25.1c1.8,0,3.4.3,5,.9,1.6-.6,3.2-.9,5-.9h26c4.4,0,8.5,2,11.1,5.5,2.7,3.5,3.6,7.9,2.5,12.2l-12.1,46,14.3,58.8c1,4.2,0,8.6-2.6,12s-6.7,5.4-11,5.4h-28.7Z" class="cls-1"/></g><g><path d="M594.5,1037.7c-1.5,0-2.9-.2-4.2-.6-1.3.4-2.7.6-4.2.6h-25.1c-7.8,0-14-6.3-14-14v-111.7c0-7.8,6.3-14,14-14h25.1c1.5,0,2.9.2,4.2.6,1.3-.4,2.7-.6,4.2-.6h25.3c7.8,0,14,6.3,14,14v111.7c0,7.8-6.3,14-14,14h-25.3Z" class="cls-1"/><path d="M657,1038.9c-16.3,0-27.9-6.7-34.7-19.8-5.6-11-8.1-26.5-8.1-51.8s2.5-39.4,8-50.3c6.9-13.4,18.5-20.3,34.7-20.3s27.8,6.8,34.7,20.3c5.6,10.9,8,26.4,8,50.3s-2.4,40.5-8,51.5c-6.8,13.3-18.5,20.1-34.8,20.1Z" class="cls-1"/><path d="M701.6,1037.7c-7.8,0-14-6.3-14-14v-74.3c-6.4-1.3-11.3-7-11.3-13.8v-23.6c0-7.8,6.3-14,14-14h47.7c7.8,0,14,6.3,14,14v23.6c0,6.8-4.9,12.5-11.3,13.8v74.3c0,7.8-6.3,14-14,14h-25.1Z" class="cls-1"/><path d="M818.2,1037.7c-1.4,0-2.8-.2-4-.6-1.3.4-2.6.6-4,.6h-27c-7.1,0-13.1-5.3-13.9-12.3l-14-111.7c-.5-4,.7-8,3.4-11,2.7-3,6.5-4.8,10.5-4.8h28.7c1.4,0,2.8.2,4.1.6,1.3-.4,2.7-.6,4.1-.6h22.8c1.5,0,3,.2,4.4.7,1.4-.5,2.9-.7,4.4-.7h23.4c4,0,7.9,1.7,10.5,4.8,2.7,3,3.9,7,3.4,11l-14,111.7c-.9,7-6.9,12.3-13.9,12.3h-28.8Z" class="cls-1"/><path d="M867.9,1037.7c-7.8,0-14-6.3-14-14v-111.7c0-7.8,6.3-14,14-14h40.8c7.8,0,14,6.3,14,14v23.6c0,5.7-3.4,10.6-8.3,12.8,3.3,2.6,5.4,6.6,5.4,11.1v16.1c0,4.6-2.2,8.6-5.5,11.2,5.5,1.9,9.4,7.1,9.4,13.3v23.6c0,7.8-6.3,14-14,14h-41.8Z" class="cls-1"/><path d="M916.8,1037.7c-7.8,0-14-6.3-14-14v-111.7c0-7.8,6.3-14,14-14h40.8c7.8,0,14,6.3,14,14v23.6c0,5.7-3.4,10.6-8.3,12.8,3.3,2.6,5.4,6.6,5.4,11.1v16.1c0,4.6-2.2,8.6-5.5,11.2,5.5,1.9,9.4,7.1,9.4,13.3v23.6c0,7.8-6.3,14-14,14h-41.8Z" class="cls-1"/><path d="M1000.3,1037.7c-1.6,0-3.2-.3-4.7-.8-1.5.5-3.1.8-4.7.8h-25.1c-7.8,0-14-6.3-14-14v-111.7c0-7.8,6.3-14,14-14h25.1c1.8,0,3.4.3,5,.9,1.6-.6,3.2-.9,5-.9h26c4.4,0,8.5,2,11.1,5.5,2.7,3.5,3.6,7.9,2.5,12.2l-12.1,46,14.3,58.8c1,4.2,0,8.6-2.6,12s-6.7,5.4-11,5.4h-28.7Z" class="cls-1"/></g><g><path d="M597.3,1034.6c-1.5,0-2.9-.2-4.2-.6-1.3.4-2.7.6-4.2.6h-25.1c-7.8,0-14-6.3-14-14v-111.7c0-7.8,6.3-14,14-14h25.1c1.5,0,2.9.2,4.2.6,1.3-.4,2.7-.6,4.2-.6h25.3c7.8,0,14,6.3,14,14v111.7c0,7.8-6.3,14-14,14h-25.3Z" class="cls-1"/><path d="M659.8,1035.8c-16.3,0-27.9-6.7-34.7-19.8-5.6-11-8.1-26.5-8.1-51.8s2.5-39.4,8-50.3c6.9-13.4,18.5-20.3,34.7-20.3s27.8,6.8,34.7,20.3c5.6,10.9,8,26.4,8,50.3s-2.4,40.5-8,51.5c-6.8,13.3-18.5,20.1-34.8,20.1Z" class="cls-1"/><path d="M704.5,1034.6c-7.8,0-14-6.3-14-14v-74.3c-6.4-1.3-11.3-7-11.3-13.8v-23.6c0-7.8,6.3-14,14-14h47.7c7.8,0,14,6.3,14,14v23.6c0,6.8-4.9,12.5-11.3,13.8v74.3c0,7.8-6.3,14-14,14h-25.1Z" class="cls-1"/><path d="M821,1034.6c-1.4,0-2.8-.2-4-.6-1.3.4-2.6.6-4,.6h-27c-7.1,0-13.1-5.3-13.9-12.3l-14-111.7c-.5-4,.7-8,3.4-11,2.7-3,6.5-4.8,10.5-4.8h28.7c1.4,0,2.8.2,4.1.6,1.3-.4,2.7-.6,4.1-.6h22.8c1.5,0,3,.2,4.4.7,1.4-.5,2.9-.7,4.4-.7h23.4c4,0,7.9,1.7,10.5,4.8,2.7,3,3.9,7,3.4,11l-14,111.7c-.9,7-6.9,12.3-13.9,12.3h-28.8Z" class="cls-1"/><path d="M870.7,1034.6c-7.8,0-14-6.3-14-14v-111.7c0-7.8,6.3-14,14-14h40.8c7.8,0,14,6.3,14,14v23.6c0,5.7-3.4,10.6-8.3,12.8,3.3,2.6,5.4,6.6,5.4,11.1v16.1c0,4.6-2.2,8.6-5.5,11.2,5.5,1.9,9.4,7.1,9.4,13.3v23.6c0,7.8-6.3,14-14,14h-41.8Z" class="cls-1"/><path d="M919.6,1034.6c-7.8,0-14-6.3-14-14v-111.7c0-7.8,6.3-14,14-14h40.8c7.8,0,14,6.3,14,14v23.6c0,5.7-3.4,10.6-8.3,12.8,3.3,2.6,5.4,6.6,5.4,11.1v16.1c0,4.6-2.2,8.6-5.5,11.2,5.5,1.9,9.4,7.1,9.4,13.3v23.6c0,7.8-6.3,14-14,14h-41.8Z" class="cls-1"/><path d="M1003.2,1034.6c-1.6,0-3.2-.3-4.7-.8-1.5.5-3.1.8-4.7.8h-25.1c-7.8,0-14-6.3-14-14v-111.7c0-7.8,6.3-14,14-14h25.1c1.8,0,3.4.3,5,.9,1.6-.6,3.2-.9,5-.9h26c4.4,0,8.5,2,11.1,5.5,2.7,3.5,3.6,7.9,2.5,12.2l-12.1,46,14.3,58.8c1,4.2,0,8.6-2.6,12s-6.7,5.4-11,5.4h-28.7Z" class="cls-1"/></g><g><path d="M600.1,1031.5c-1.5,0-2.9-.2-4.2-.6-1.3.4-2.7.6-4.2.6h-25.1c-7.8,0-14-6.3-14-14v-111.7c0-7.8,6.3-14,14-14h25.1c1.5,0,2.9.2,4.2.6,1.3-.4,2.7-.6,4.2-.6h25.3c7.8,0,14,6.3,14,14v111.7c0,7.8-6.3,14-14,14h-25.3Z" class="cls-1"/><path d="M662.6,1032.7c-16.3,0-27.9-6.7-34.7-19.8-5.6-11-8.1-26.5-8.1-51.8s2.5-39.4,8-50.3c6.9-13.4,18.5-20.3,34.7-20.3s27.8,6.8,34.7,20.3c5.6,10.9,8,26.4,8,50.3s-2.4,40.5-8,51.5c-6.8,13.3-18.5,20.1-34.8,20.1Z" class="cls-1"/><path d="M707.3,1031.5c-7.8,0-14-6.3-14-14v-74.3c-6.4-1.3-11.3-7-11.3-13.8v-23.6c0-7.8,6.3-14,14-14h47.7c7.8,0,14,6.3,14,14v23.6c0,6.8-4.9,12.5-11.3,13.8v74.3c0,7.8-6.3,14-14,14h-25.1Z" class="cls-1"/><path d="M823.8,1031.5c-1.4,0-2.8-.2-4-.6-1.3.4-2.6.6-4,.6h-27c-7.1,0-13.1-5.3-13.9-12.3l-14-111.7c-.5-4,.7-8,3.4-11,2.7-3,6.5-4.8,10.5-4.8h28.7c1.4,0,2.8.2,4.1.6,1.3-.4,2.7-.6,4.1-.6h22.8c1.5,0,3,.2,4.4.7,1.4-.5,2.9-.7,4.4-.7h23.4c4,0,7.9,1.7,10.5,4.8,2.7,3,3.9,7,3.4,11l-14,111.7c-.9,7-6.9,12.3-13.9,12.3h-28.8Z" class="cls-1"/><path d="M873.5,1031.5c-7.8,0-14-6.3-14-14v-111.7c0-7.8,6.3-14,14-14h40.8c7.8,0,14,6.3,14,14v23.6c0,5.7-3.4,10.6-8.3,12.8,3.3,2.6,5.4,6.6,5.4,11.1v16.1c0,4.6-2.2,8.6-5.5,11.2,5.5,1.9,9.4,7.1,9.4,13.3v23.6c0,7.8-6.3,14-14,14h-41.8Z" class="cls-1"/><path d="M922.4,1031.5c-7.8,0-14-6.3-14-14v-111.7c0-7.8,6.3-14,14-14h40.8c7.8,0,14,6.3,14,14v23.6c0,5.7-3.4,10.6-8.3,12.8,3.3,2.6,5.4,6.6,5.4,11.1v16.1c0,4.6-2.2,8.6-5.5,11.2,5.5,1.9,9.4,7.1,9.4,13.3v23.6c0,7.8-6.3,14-14,14h-41.8Z" class="cls-1"/><path d="M1006,1031.5c-1.6,0-3.2-.3-4.7-.8-1.5.5-3.1.8-4.7.8h-25.1c-7.8,0-14-6.3-14-14v-111.7c0-7.8,6.3-14,14-14h25.1c1.8,0,3.4.3,5,.9,1.6-.6,3.2-.9,5-.9h26c4.4,0,8.5,2,11.1,5.5,2.7,3.5,3.6,7.9,2.5,12.2l-12.1,46,14.3,58.8c1,4.2,0,8.6-2.6,12s-6.7,5.4-11,5.4h-28.7Z" class="cls-1"/></g><g><path d="M603,1028.4c-1.5,0-2.9-.2-4.2-.6-1.3.4-2.7.6-4.2.6h-25.1c-7.8,0-14-6.3-14-14v-111.7c0-7.8,6.3-14,14-14h25.1c1.5,0,2.9.2,4.2.6,1.3-.4,2.7-.6,4.2-.6h25.3c7.8,0,14,6.3,14,14v111.7c0,7.8-6.3,14-14,14h-25.3Z" class="cls-1"/><path d="M665.4,1029.5c-16.3,0-27.9-6.7-34.7-19.8-5.6-11-8.1-26.5-8.1-51.8s2.5-39.4,8-50.3c6.9-13.4,18.5-20.3,34.7-20.3s27.8,6.8,34.7,20.3c5.6,10.9,8,26.4,8,50.3s-2.4,40.5-8,51.5c-6.8,13.3-18.5,20.1-34.8,20.1Z" class="cls-1"/><path d="M710.1,1028.4c-7.8,0-14-6.3-14-14v-74.3c-6.4-1.3-11.3-7-11.3-13.8v-23.6c0-7.8,6.3-14,14-14h47.7c7.8,0,14,6.3,14,14v23.6c0,6.8-4.9,12.5-11.3,13.8v74.3c0,7.8-6.3,14-14,14h-25.1Z" class="cls-1"/><path d="M826.6,1028.4c-1.4,0-2.8-.2-4-.6-1.3.4-2.6.6-4,.6h-27c-7.1,0-13.1-5.3-13.9-12.3l-14-111.7c-.5-4,.7-8,3.4-11,2.7-3,6.5-4.8,10.5-4.8h28.7c1.4,0,2.8.2,4.1.6,1.3-.4,2.7-.6,4.1-.6h22.8c1.5,0,3,.2,4.4.7,1.4-.5,2.9-.7,4.4-.7h23.4c4,0,7.9,1.7,10.5,4.8,2.7,3,3.9,7,3.4,11l-14,111.7c-.9,7-6.9,12.3-13.9,12.3h-28.8Z" class="cls-1"/><path d="M876.3,1028.4c-7.8,0-14-6.3-14-14v-111.7c0-7.8,6.3-14,14-14h40.8c7.8,0,14,6.3,14,14v23.6c0,5.7-3.4,10.6-8.3,12.8,3.3,2.6,5.4,6.6,5.4,11.1v16.1c0,4.6-2.2,8.6-5.5,11.2,5.5,1.9,9.4,7.1,9.4,13.3v23.6c0,7.8-6.3,14-14,14h-41.8Z" class="cls-1"/><path d="M925.3,1028.4c-7.8,0-14-6.3-14-14v-111.7c0-7.8,6.3-14,14-14h40.8c7.8,0,14,6.3,14,14v23.6c0,5.7-3.4,10.6-8.3,12.8,3.3,2.6,5.4,6.6,5.4,11.1v16.1c0,4.6-2.2,8.6-5.5,11.2,5.5,1.9,9.4,7.1,9.4,13.3v23.6c0,7.8-6.3,14-14,14h-41.8Z" class="cls-1"/><path d="M1008.8,1028.4c-1.6,0-3.2-.3-4.7-.8-1.5.5-3.1.8-4.7.8h-25.1c-7.8,0-14-6.3-14-14v-111.7c0-7.8,6.3-14,14-14h25.1c1.8,0,3.4.3,5,.9,1.6-.6,3.2-.9,5-.9h26c4.4,0,8.5,2,11.1,5.5,2.7,3.5,3.6,7.9,2.5,12.2l-12.1,46,14.3,58.8c1,4.2,0,8.6-2.6,12s-6.7,5.4-11,5.4h-28.7Z" class="cls-1"/></g></g><g><path d="M569.4,902.6h25.1v42.8h8.4v-42.8h25.3v111.7h-25.3v-45.5h-8.4v45.5h-25.1v-111.7Z" class="cls-4"/><path d="M636.7,957.9c0-41.8,7.8-56.5,28.7-56.5s28.7,14.8,28.7,56.5-7.6,57.5-28.7,57.5-28.7-13.2-28.7-57.5ZM668.9,957.9c0-30-1-32.9-3.5-32.9s-3.5,2.9-3.5,32.9.8,33.9,3.5,33.9,3.5-2.4,3.5-33.9Z" class="cls-4"/><path d="M710.1,926.2h-11.3v-23.6h47.7v23.6h-11.3v88.1h-25.1v-88.1Z" class="cls-4"/><path d="M777.5,902.6h28.7l3.5,71h.7l4-71h22.8l4.2,71h.7l3.9-71h23.4l-14,111.7h-28.8l-3.4-63.3h-.7l-4,63.3h-27l-14-111.7Z" class="cls-4"/><path d="M876.3,902.6h40.8v23.6h-15.7v23.9h12.8v16.1h-12.8v24.4h16.7v23.6h-41.8v-111.7Z" class="cls-4"/><path d="M925.3,902.6h40.8v23.6h-15.7v23.9h12.8v16.1h-12.8v24.4h16.7v23.6h-41.8v-111.7Z" class="cls-4"/><path d="M974.2,902.6h25.1v53h.2l9.8-53h26l-13,49.4,15.2,62.3h-28.7l-6.7-41.9-2.7,10.5v31.4h-25.1v-111.7Z" class="cls-4"/></g></g></svg>