<svg xmlns="http://www.w3.org/2000/svg" id="Capa_2" data-name="Capa 2" viewBox="0 0 1080 1080"><defs><style>.cls-1{fill:none}.cls-1,.cls-2,.cls-3,.cls-4{stroke-width:0}.cls-2{fill:#681fb5}.cls-3{fill:#00ce00}.cls-4{fill:#fff}</style></defs><g id="Capa_1-2" data-name="Capa 1"><g><path d="M819.3,948.69c1.45-11.2,4.83-33.61,6.28-44.81.49-3.79-2.46-7.15-6.29-7.15h-99.59c-3.16,0-5.84,2.33-6.28,5.46-3.37,23.94-14.25,122.45-18.34,150.19-.57,3.84,2.41,7.28,6.29,7.26,102.63-.31,237.23-.62,339.86-.93,3.48-.01,6.31-2.83,6.32-6.32l.16-90.18c.01-3.51-2.83-6.37-6.34-6.37h-215.78c-3.82,0-6.78-3.36-6.29-7.15Z" class="cls-2"/><g><path d="M779.74,991.19l-4.73,32.82c-2.04,14.03-12.46,21.16-26.09,21.15h-1.61c-13.2,0-22.22-7.35-20.18-21.17l4.73-32.82c2.04-14.04,13.1-21.59,26.2-21.59h1.72c12.77,0,21.9,8.1,19.96,21.6ZM766.32,991.62c.97-6.59-2.57-10.15-8.26-10.15h-1.72c-5.37,0-10.31,3.67-11.17,10.04l-4.73,32.17c-.86,6.48,2.47,9.61,8.48,9.61h1.61c5.58,0,10.31-3.34,11.17-9.61l4.62-32.06Z" class="cls-4"/><path d="M828.05,982.57h-20.93s-2.69,18.35-2.69,18.35h14.92s-1.72,11.56-1.72,11.56h-14.82s-4.52,31.63-4.52,31.63h-13.42s10.65-73.42,10.65-73.42h34.25s-1.72,11.88-1.72,11.88Z" class="cls-4"/><path d="M846.62,1012.48l-2.8,19.76h23.3s-1.72,11.88-1.72,11.88h-36.72s10.65-73.42,10.65-73.42h34.35s-1.72,11.88-1.72,11.88h-20.93s-2.69,18.46-2.69,18.46h14.92s-1.72,11.45-1.72,11.45h-14.92Z" class="cls-4"/><path d="M915.32,1012.82l6.22,31.31h-14.28s-4.72-28.18-4.72-28.18h-8.48s-4.09,28.18-4.09,28.18h-13.42s10.65-73.42,10.65-73.42h21.79c12.13,0,19.86,6.6,17.92,20.09l-.75,4.75c-1.4,9.61-5.69,15.01-10.85,17.27ZM895.57,1005.04h9.34c3.76-.32,6.87-2.8,7.73-8.31l.86-5.94c.75-5.29-2.14-8.21-7.19-8.21h-7.41s-3.33,22.45-3.33,22.45Z" class="cls-4"/><path d="M933.69,982.59l1.72-11.88h47.13s-1.72,11.89-1.72,11.89h-16.64s-8.93,61.53-8.93,61.53h-13.42s8.93-61.54,8.93-61.54h-17.07Z" class="cls-4"/><path d="M1013.24,970.08l7.71,74.07h-14.17s-.85-17.6-.85-17.6h-16.85s-6.23,17.59-6.23,17.59h-14.39s30.08-74.06,30.08-74.06h14.71ZM1005.07,1015.43l-1.71-28.07-10.21,28.07h11.92Z" class="cls-4"/></g><g><path d="M747.66,934.64l-1.61,11.37h13.41s-.99,6.84-.99,6.84h-21.13s6.13-42.26,6.13-42.26h19.77s-.99,6.84-.99,6.84h-12.05s-1.55,10.62-1.55,10.62h8.59s-.99,6.59-.99,6.59h-8.59Z" class="cls-4"/><path d="M791.47,910.6h7.11s-6.13,42.25-6.13,42.25h-7.35s-9.07-28.46-9.07-28.46l-4.08,28.46h-7.04s6.13-42.25,6.13-42.25h7.35s8.89,28.77,8.89,28.77l4.21-28.77Z" class="cls-4"/></g><g><path d="M873.5,953.28v3.86l-15.18,6.3v-4.63l9.4-3.19,1.17-.43-1.17-.41-9.4-3.14v-4.65l15.18,6.3Z" class="cls-3"/><path d="M850.66,953.28v3.86l-15.18,6.3v-4.63l9.4-3.19,1.17-.43-1.17-.41-9.4-3.14v-4.65l15.18,6.3Z" class="cls-3"/><path d="M919.54,953.28v3.86l-15.18,6.3v-4.63l9.4-3.19,1.17-.43-1.17-.41-9.4-3.14v-4.65l15.18,6.3Z" class="cls-3"/><path d="M896.7,953.28v3.86l-15.18,6.3v-4.63l9.4-3.19,1.17-.43-1.17-.41-9.4-3.14v-4.65l15.18,6.3Z" class="cls-3"/><path d="M827.82,953.28v3.86l-15.18,6.3v-4.63l9.4-3.19,1.17-.43-1.17-.41-9.4-3.14v-4.65l15.18,6.3Z" class="cls-3"/></g><g><path d="M989.6,1061.48v-3.86l15.18-6.3v4.63l-9.4,3.19-1.17.43,1.17.41,9.4,3.14v4.65l-15.18-6.3Z" class="cls-3"/><path d="M966.99,1061.48v-3.86l15.18-6.3v4.63l-9.4,3.19-1.17.43,1.17.41,9.4,3.14v4.65l-15.18-6.3Z" class="cls-3"/><path d="M1012.44,1061.48v-3.86l15.18-6.3v4.63l-9.4,3.19-1.17.43,1.17.41,9.4,3.14v4.65l-15.18-6.3Z" class="cls-3"/><path d="M1035.28,1061.48v-3.86l15.18-6.3v4.63l-9.4,3.19-1.17.43,1.17.41,9.4,3.14v4.65l-15.18-6.3Z" class="cls-3"/></g></g><rect width="1080" height="1080" y="0" class="cls-1"/></g></svg>