<svg xmlns="http://www.w3.org/2000/svg" xmlns:xlink="http://www.w3.org/1999/xlink" id="Capa_1" x="0" y="0" version="1.1" viewBox="0 0 1080 1080" style="enable-background:new 0 0 1080 1080" xml:space="preserve"><style type="text/css">.st0{fill:#ffc107}.st1,.st2{stroke:#000;stroke-miterlimit:10}.st1{fill:#ffc107;stroke-width:6}.st2{stroke-width:8}.st2,.st3{fill:#fff}</style><path d="M1030.3,49.6v981.9H48.7V49.6H1030.3 M1080,0H-1v1081h1081V0L1080,0z" class="st0"/><path d="M1023.1,52V1024H55.9V52H1023.1 M1030,45H49v986h981V45L1030,45z"/><path d="M1008.1,1048.8H692.6c-16.9,0-30-14.8-27.9-31.6l12.8-102c1.8-14.1,13.7-24.6,27.9-24.6h315.5	c16.9,0,30,14.8,27.9,31.6l-12.8,102C1034.2,1038.2,1022.2,1048.8,1008.1,1048.8z" class="st1"/><g><g><path d="M746.1,960c-1.2,6.7-6.5,10.1-13.2,10.1h-18.4c-6.6,0-10.7-4-9.5-10.7l5.5-31c1.2-6.7,6.7-10.7,13.3-10.7 h18.4c6.6,0,10.7,4,9.5,10.7L746.1,960z M717.6,954.7c-0.5,3,0.4,4.5,3.3,4.5H731c2.4,0,3.9-1.5,4.4-4.5l3.9-21.6 c0.5-3-0.5-4.4-2.9-4.4h-10.1c-2.9,0-4.4,1.5-4.9,4.4L717.6,954.7z" class="st2"/><path d="M767.9,949.4l-3.7,20.8h-11.7l7.4-41.7c1.2-6.7,6.7-10.7,13.3-10.7h25l-2,10.9h-21.1c-2.4,0-3.9,1.5-4.4,4.4 l-1,5.3h24l-2,10.9H767.9z" class="st2"/><path d="M811,949.4l-1,5.3c-0.5,3,0.4,4.5,2.8,4.5h21.1l-1.9,10.9h-25c-6.6,0-10.8-3.4-9.6-10.1l5.7-31.6 c1.2-6.7,6.7-10.7,13.3-10.7h25l-2,10.9h-21.1c-2.4,0-3.9,1.5-4.4,4.4l-1,5.3h24l-2,10.9H811z" class="st2"/><path d="M856.2,950c-0.3-0.5-0.6-0.9-0.8-1.4l-3.8,21.6h-11.7l9.3-52.4h30c6.6,0,10.7,4,9.5,10.7l-1.9,10.7 c-1.4,7.9-4.3,12.2-15.9,12.2h-0.3l12.5,18.8h-14L856.2,950z M856.6,942c1.2-1.1,3.1-1.6,4.8-1.6h10c2.4,0,3.9-1.5,4.4-4.4 l0.5-2.8c0.5-3-0.5-4.4-2.9-4.4h-14.5L856.6,942z" class="st2"/><path d="M917.1,928.7l-7.4,41.4H898l7.4-41.4h-13.1l2-10.9h37.5l-2,10.9H917.1z" class="st2"/><path d="M915.6,970.2l23.2-45.9c2.7-5.4,6.5-7.1,10.1-7.1c3.6,0,7,1.7,7.7,7.1l6.3,45.9h-12.2l-1.5-9h-16.8l-4.6,9 H915.6z M945.6,934.5l-7.9,15.7h10.2L945.6,934.5z" class="st2"/><path d="M998.7,938.1c6.6,0,10.6,4,9.5,10.7l-2,11.2c-1.2,6.7-6.5,10.1-13.2,10.1h-26l1.9-10.9H991 c2.4,0,3.9-1.5,4.4-4.5l0.2-1.1c0.5-3-0.4-4.4-2.8-4.4h-11.4c-6.6,0-10.7-4-9.5-10.7l1.8-10.5c1.2-6.7,6.6-10.1,13.2-10.1h26 l-2,10.9H989c-2.4,0-3.9,1.5-4.4,4.5l-0.1,0.5c-0.5,3,0.5,4.4,2.9,4.4H998.7z" class="st2"/></g></g><g><g><path d="M746.1,960c-1.2,6.7-6.5,10.1-13.2,10.1h-18.4c-6.6,0-10.7-4-9.5-10.7l5.5-31c1.2-6.7,6.7-10.7,13.3-10.7 h18.4c6.6,0,10.7,4,9.5,10.7L746.1,960z M717.6,954.7c-0.5,3,0.4,4.5,3.3,4.5H731c2.4,0,3.9-1.5,4.4-4.5l3.9-21.6 c0.5-3-0.5-4.4-2.9-4.4h-10.1c-2.9,0-4.4,1.5-4.9,4.4L717.6,954.7z" class="st3"/><path d="M767.9,949.4l-3.7,20.8h-11.7l7.4-41.7c1.2-6.7,6.7-10.7,13.3-10.7h25l-2,10.9h-21.1c-2.4,0-3.9,1.5-4.4,4.4 l-1,5.3h24l-2,10.9H767.9z" class="st3"/><path d="M811,949.4l-1,5.3c-0.5,3,0.4,4.5,2.8,4.5h21.1l-1.9,10.9h-25c-6.6,0-10.8-3.4-9.6-10.1l5.7-31.6 c1.2-6.7,6.7-10.7,13.3-10.7h25l-2,10.9h-21.1c-2.4,0-3.9,1.5-4.4,4.4l-1,5.3h24l-2,10.9H811z" class="st3"/><path d="M856.2,950c-0.3-0.5-0.6-0.9-0.8-1.4l-3.8,21.6h-11.7l9.3-52.4h30c6.6,0,10.7,4,9.5,10.7l-1.9,10.7 c-1.4,7.9-4.3,12.2-15.9,12.2h-0.3l12.5,18.8h-14L856.2,950z M856.6,942c1.2-1.1,3.1-1.6,4.8-1.6h10c2.4,0,3.9-1.5,4.4-4.4 l0.5-2.8c0.5-3-0.5-4.4-2.9-4.4h-14.5L856.6,942z" class="st3"/><path d="M917.1,928.7l-7.4,41.4H898l7.4-41.4h-13.1l2-10.9h37.5l-2,10.9H917.1z" class="st3"/><path d="M915.6,970.2l23.2-45.9c2.7-5.4,6.5-7.1,10.1-7.1c3.6,0,7,1.7,7.7,7.1l6.3,45.9h-12.2l-1.5-9h-16.8l-4.6,9 H915.6z M945.6,934.5l-7.9,15.7h10.2L945.6,934.5z" class="st3"/><path d="M998.7,938.1c6.6,0,10.6,4,9.5,10.7l-2,11.2c-1.2,6.7-6.5,10.1-13.2,10.1h-26l1.9-10.9H991 c2.4,0,3.9-1.5,4.4-4.5l0.2-1.1c0.5-3-0.4-4.4-2.8-4.4h-11.4c-6.6,0-10.7-4-9.5-10.7l1.8-10.5c1.2-6.7,6.6-10.1,13.2-10.1h26 l-2,10.9H989c-2.4,0-3.9,1.5-4.4,4.5l-0.1,0.5c-0.5,3,0.5,4.4,2.9,4.4H998.7z" class="st3"/></g></g><g><g><path d="M733.6,1015.1c-0.9,5-4.9,7.6-9.9,7.6h-22.2l7-39.3h22.2c5,0,8,3,7.1,8l-1.3,7.3c-0.5,2.7-2.2,3.7-3.6,4.7 c0.9,1,2.4,2.2,1.9,4.7L733.6,1015.1z M713.1,1006.9l-1.4,7.6h10.6c1.8,0,2.9-1.1,3.3-3.4l0.1-0.6c0.4-2.2-0.3-3.6-2-3.6H713.1z M715.8,991.6l-1.2,7.1h10.6c1.8,0,2.9-1.1,3.3-3.4l0.1-0.4c0.4-2.2-0.4-3.3-2.1-3.3H715.8z" class="st2"/><path d="M747.4,1022.7h-8.7l7-39.3h8.7L747.4,1022.7z" class="st2"/><path d="M771.1,991.6c-1.8,0-2.9,1.1-3.3,3.3l-2.9,16.2c-0.4,2.3,0.3,3.4,2.1,3.4h16l-1.4,8.2h-18.9 c-5,0-8.1-2.6-7.2-7.6l4.2-23.7c0.9-5,5-8,10-8h18.9l-1.5,8.2H771.1z" class="st2"/><path d="M817.9,1022.7h-8.7l2.7-15.3h-13.2l-2.7,15.3h-8.7l7-39.3h8.7l-2.9,15.9h13.2l2.9-15.9h8.7L817.9,1022.7z" class="st2"/><path d="M863.4,1018.9c-1.5,3.1-3.9,4.3-7.1,4.3c-3.5,0-5.4-1.4-5.8-4.3l-5.3-35.5h9.2l3.9,27.6l13.8-27.6h9.1 L863.4,1018.9z" class="st2"/><path d="M868.3,1022.7l17.4-34.4c2-4,4.9-5.3,7.6-5.3c2.7,0,5.2,1.3,5.8,5.3l4.8,34.4h-9.1l-1.1-6.7h-12.6l-3.5,6.7 H868.3z M890.7,995.9l-5.9,11.8h7.7L890.7,995.9z" class="st2"/><path d="M914.3,983.4H937c5,0,8,3,7.1,8l-4.2,23.7c-0.9,5-4.9,7.6-9.9,7.6h-22.6L914.3,983.4z M921.6,991.6l-4.1,22.9 h11c1.8,0,2.9-1.1,3.3-3.4l2.9-16.2c0.4-2.2-0.4-3.3-2.1-3.3H921.6z" class="st2"/><path d="M956.1,1007.1l-0.7,4c-0.4,2.3,0.3,3.4,2.1,3.4h15.8l-1.4,8.2h-18.7c-5,0-8.1-2.6-7.2-7.6l4.2-23.7 c0.9-5,5-8,10-8h18.7l-1.5,8.2h-15.8c-1.8,0-2.9,1.1-3.3,3.3l-0.7,4h18l-1.5,8.2H956.1z" class="st2"/><path d="M990,1007.5c-0.3-0.4-0.5-0.7-0.6-1.1l-2.9,16.2h-8.7l7-39.3h22.5c5,0,8,3,7.1,8l-1.4,8.1 c-1.1,5.9-3.2,9.1-11.9,9.1h-0.3l9.4,14.1h-10.5L990,1007.5z M990.3,1001.5c0.9-0.8,2.3-1.2,3.6-1.2h7.5c1.8,0,2.9-1.1,3.3-3.3 l0.4-2.1c0.4-2.2-0.4-3.3-2.1-3.3H992L990.3,1001.5z" class="st2"/></g></g><g><g><path d="M733.6,1015.1c-0.9,5-4.9,7.6-9.9,7.6h-22.2l7-39.3h22.2c5,0,8,3,7.1,8l-1.3,7.3c-0.5,2.7-2.2,3.7-3.6,4.7 c0.9,1,2.4,2.2,1.9,4.7L733.6,1015.1z M713.1,1006.9l-1.4,7.6h10.6c1.8,0,2.9-1.1,3.3-3.4l0.1-0.6c0.4-2.2-0.3-3.6-2-3.6H713.1z M715.8,991.6l-1.2,7.1h10.6c1.8,0,2.9-1.1,3.3-3.4l0.1-0.4c0.4-2.2-0.4-3.3-2.1-3.3H715.8z" class="st3"/><path d="M747.4,1022.7h-8.7l7-39.3h8.7L747.4,1022.7z" class="st3"/><path d="M771.1,991.6c-1.8,0-2.9,1.1-3.3,3.3l-2.9,16.2c-0.4,2.3,0.3,3.4,2.1,3.4h16l-1.4,8.2h-18.9 c-5,0-8.1-2.6-7.2-7.6l4.2-23.7c0.9-5,5-8,10-8h18.9l-1.5,8.2H771.1z" class="st3"/><path d="M817.9,1022.7h-8.7l2.7-15.3h-13.2l-2.7,15.3h-8.7l7-39.3h8.7l-2.9,15.9h13.2l2.9-15.9h8.7L817.9,1022.7z" class="st3"/><path d="M863.4,1018.9c-1.5,3.1-3.9,4.3-7.1,4.3c-3.5,0-5.4-1.4-5.8-4.3l-5.3-35.5h9.2l3.9,27.6l13.8-27.6h9.1 L863.4,1018.9z" class="st3"/><path d="M868.3,1022.7l17.4-34.4c2-4,4.9-5.3,7.6-5.3c2.7,0,5.2,1.3,5.8,5.3l4.8,34.4h-9.1l-1.1-6.7h-12.6l-3.5,6.7 H868.3z M890.7,995.9l-5.9,11.8h7.7L890.7,995.9z" class="st3"/><path d="M914.3,983.4H937c5,0,8,3,7.1,8l-4.2,23.7c-0.9,5-4.9,7.6-9.9,7.6h-22.6L914.3,983.4z M921.6,991.6l-4.1,22.9 h11c1.8,0,2.9-1.1,3.3-3.4l2.9-16.2c0.4-2.2-0.4-3.3-2.1-3.3H921.6z" class="st3"/><path d="M956.1,1007.1l-0.7,4c-0.4,2.3,0.3,3.4,2.1,3.4h15.8l-1.4,8.2h-18.7c-5,0-8.1-2.6-7.2-7.6l4.2-23.7 c0.9-5,5-8,10-8h18.7l-1.5,8.2h-15.8c-1.8,0-2.9,1.1-3.3,3.3l-0.7,4h18l-1.5,8.2H956.1z" class="st3"/><path d="M990,1007.5c-0.3-0.4-0.5-0.7-0.6-1.1l-2.9,16.2h-8.7l7-39.3h22.5c5,0,8,3,7.1,8l-1.4,8.1 c-1.1,5.9-3.2,9.1-11.9,9.1h-0.3l9.4,14.1h-10.5L990,1007.5z M990.3,1001.5c0.9-0.8,2.3-1.2,3.6-1.2h7.5c1.8,0,2.9-1.1,3.3-3.3 l0.4-2.1c0.4-2.2-0.4-3.3-2.1-3.3H992L990.3,1001.5z" class="st3"/></g></g></svg>