<svg xmlns="http://www.w3.org/2000/svg" xmlns:xlink="http://www.w3.org/1999/xlink" id="Capa_1" viewBox="0 0 1080 1080"><defs><style>.cls-1{fill:#ff7f00}.cls-2{fill:#7814ed}.cls-3{fill:none}.cls-4{fill:#00ce00}.cls-5{clip-path:url(#clippath)}</style><clipPath id="clippath"><rect width="1080" height="1080" class="cls-3"/></clipPath></defs><g class="cls-5"><rect width="1082" height="40" y="1041" class="cls-2"/><rect width="1082" height="40" x="519" y="521" class="cls-2" transform="translate(519 1601) rotate(-90)"/><rect width="1082" height="40" x="-521" y="521" class="cls-2" transform="translate(561 521) rotate(90)"/><rect width="1082" height="40" class="cls-2" transform="translate(1082 40) rotate(180)"/><g><path d="M1053.35,998.99c8.32-29.55-17.54-16.18-32.99-30.73-5.32-5.01-12.79-7.2-19.96-5.75-.06.01-.12.02-.18.04,7.45-6.25,5.23-17.1-1.78-20.08-6.53-2.78-12.2-7.26-16.33-13.04-15.8-22.12-25.67-23.82-44.2-19.61-26.52,6.03-54.08,6.11-80.47-.45-10.77-2.68-21.58-5.07-32.53-6.02-12.01-1.04-24.07.4-35.72,3.49-26.68,7.08-52.67,5.67-78.56.28-7.11-1.48-14.44,2.37-16.75,9.25-1.03,3.07-.94,6.34.8,9.2-1.86,6.51-9.86,7.9-15.96,11.33-2.34,1.32-4.35,3.19-5.79,5.46-2.63,4.17-2.39,7.88-.64,11.22,3.13,5.98-2.62,12.8-9.13,11.03-15.54-4.22-31.31-8.2-29.69,8.88-.41.2-.81.41-1.21.63-13.26,7.43-13.68,26.38-1.17,35.01,6.44,4.44,11.09,8.61,7.07,18.81-2.28,5.77-2.02,12.36,1.25,17.63,11.92,19.24,49.13-1.52,68.79.83,3.91.62,7.66,1.97,11.34,3.56,12.03,5.17,25.27,7.01,38.15,4.69,6.09-1.1,12.31-1.21,18.52-1.06,15.28.37,30.63-2.17,44.49-8.64s25.04,14.14,39.7,17.73c30.46,9.71,37.65-37.07,71.78-16.29,17.39,9.07,34.11,10.18,50.82,1.24,3.87-.45,7.74.86,11.54,2.52,8.36,3.65,18.09,3.32,25.84-1.5,12.07-7.51,30.85-.65,39.28-15.54,4.14-6.66,2.55-16.51-2.88-21.45-3.48-3.17-4.7-8.14-3.42-12.67Z" class="cls-4"/><g><g><path d="M732.53,932.48h2.03c3.23.03,6.73.88,10.48,2.55,1.15,0,2.42.8,3.82,2.39.13.98,1.02,2.3,2.69,3.96.1,0,.24.6.44,1.81.6,1.08,1.3,3.56,2.11,7.46.75.27,1.12,1.32,1.11,3.17.52,1.73.78,2.86.77,3.39v.68c0,.79-.69,1.76-2.05,2.92-.44.66-.83,3.06-1.17,7.22,0,1.39-.35,2.82-1.04,4.28,0,1.58-.43,2.37-1.25,2.36-.41-.17-.94-.78-1.57-1.81v-.34s.12-1.13.12-1.13h-.34s-1.14,2.02-1.14,2.02c0,.13-1.28,1.14-3.85,3.03-.93,1.2-1.68,1.8-2.27,1.79h-.11c-.43,0-1.15-.38-2.14-1.14-.11-.08-.34-.11-.68-.12-.55,0-.96.48-1.25,1.46-.68.35-1.02.84-1.02,1.46-.13,2.48-.51,3.72-1.15,3.72h-.9c-1.2-.01-1.8-1.41-1.78-4.19-.07-.72-.1-1.43-.1-2.15h-1.02c-.93,1.27-1.76,1.9-2.49,1.9-1.22,0-2.72-1.03-4.5-3.07l-.56-1.47-.91,1.69c-.53.45-1.06.67-1.58.67h-.22c-1.19,0-2.23-1.1-3.14-3.29.01-2.58-.77-4.24-2.34-4.98-1.86-3.94-2.79-6.09-2.79-6.45.08-.51.12-.92.12-1.24v-.45c0-.26-.41-1.24-1.22-2.94-.15-.3-.22-.72-.22-1.24v-.68c0-.96.51-2.46,1.5-4.51.02-4.12,1.55-8.32,4.58-12.62,3.73-4.12,8.74-6.16,15.04-6.13ZM727.84,944.76c-.78.82-1.62,3.19-2.52,7.1l-.12,1.58c-.03,6.55,1.45,10.58,4.45,12.1v-.11c-.14-2.2-.21-3.59-.2-4.18,0-1.37.05-2.27.13-2.71-.07-1.77-.09-3.46-.09-5.08l.02-3.84c.02-3.16-.31-4.74-.99-4.75-.06,0-.28-.04-.68-.12ZM731.65,950.31c0,.43.03,1.34.1,2.71-.08,1.13-.35,3.05-.82,5.75.03,5.04.17,7.56.41,7.56.68.15,1.58.23,2.71.24h.45c3.5.02,5.73-1.77,6.69-5.38v-.11c.04-6.71-.47-11.12-1.51-13.21-.09-.68-.28-1.02-.56-1.02-.45.3-.87.45-1.24.44-1.73-.76-2.59-1.59-2.58-2.5-.54-.83-.88-1.25-1.01-1.25h-.79c-.6,0-.91.56-.91,1.68-.61,2.01-.92,3.7-.93,5.07Z" class="cls-1"/><path d="M762.95,930.78c.22,0,1.5.46,3.83,1.37.4.08.62.12.68.12,7.75.12,13.47.18,17.15.2.9,0,1.35.27,1.35.8,0,.41.22,1.92.66,4.52v.9c-.17,3.16-.56,4.74-1.16,4.73h-.45c-1-.4-1.71-.82-2.14-1.26-1.34.52-2.32.78-2.94.77-.19,0-.68-.19-1.46-.57-.63,1.46-1.5,2.36-2.61,2.7-.45.67-1.02,1.01-1.7,1.01h-1.58s-.01,2.93-.01,2.93l1.13.12,10.83.06c.21,0,.43.08.67.23l.18,8.24c0,.28-.65,1.14-1.93,2.58-.61,1.5-1.33,2.25-2.16,2.25h-.34c-.49,0-1.31-.95-2.47-2.84-.13,0-.62-.34-1.46-1.02-2.03.89-3.06,1.87-3.06,2.92-.76,1.75-1.14,2.8-1.14,3.15.05,3.76.08,6.51.07,8.24,0,.32-.08.66-.23,1.01l.11.68v.11c-.65.83-1.17,1.24-1.59,1.23h-1.47c-.17,0-.32.03-.45.1-.39,0-1.18-.53-2.36-1.59h-.34c-1.66.5-2.49,1.21-2.49,2.13-.15.45-.45.67-.91.67h-1.02c-.79,0-1.31-.69-1.57-2.05l.26-7.67c-.44-1.07-.67-2.02-.66-2.82v-1.24c.24-1.65.36-2.67.36-3.05-.59-2.9-.88-4.71-.87-5.42v-.34c.46-1.99.7-3.42.7-4.29,0-.54.24-1.9.7-4.06v-1.69c.01-.34-.32-1.62-.99-3.84-.44-2.3-.92-4.41-1.43-6.33v-.56c.65-2.1,1.83-3.15,3.52-3.14h.79Z" class="cls-1"/><path d="M792.47,931.11h.34c.26,0,.83.38,1.69,1.14.11.08.53.15,1.24.23,1.49-.07,2.46-.1,2.93-.1,1.03.08,1.67.12,1.92.12.24,0,1.11-.41,2.6-1.23h.11c3.01.19,4.51.53,4.51,1.04.28.15.58.23.9.23l5.98.03c.68,0,1.01.27,1.01.8l-.04,7.9c-1.06,1.2-1.63,1.8-1.7,1.8h-.11c-.24,0-.73-.31-1.46-.91-.42,1.35-1.1,2.02-2.04,2.02-.19,0-.75-.38-1.69-1.14-.47,0-1.3-.42-2.48-1.25-.41-.08-.75-.12-1.02-.12h-.11c-1.02.9-1.89,1.38-2.6,1.45.07.41.14,1.47.21,3.16h.11c1.22,0,3.03.54,5.41,1.61l5.3.03c.53,0,.94.08,1.24.23.06,3.12.08,5.46.08,7v2.6c-.02.6-.62,1.28-1.83,2.02,0,.23-.04.34-.11.34l.11.56v2.82c0,.75.07,1.13.21,1.13,1.81,0,2.71.13,2.71.35l.11.68-.04,8.13c-.46,1.75-.69,3.03-.7,3.83v.9s.1.79.1.79c-.3.15-.72.22-1.24.22-.5-.72-.84-1.89-1-3.51-.28-1.05-.54-1.58-.78-1.58-.87,0-2.11.93-3.74,2.8-.24.15-.47.22-.68.22-1.35,0-2.59-.8-3.71-2.39h-.11c-.41,0-1.21.6-2.38,1.79-.38.22-.75.33-1.13.33h-.11c-.47,0-1.48-.5-3.04-1.48h-.11c-.51,1.35-1.05,2.02-1.59,2.02-.13.07-.28.11-.45.11-.51-.1-1.18-.93-2.02-2.49h-.11c-.38.22-.68.34-.9.33h-.34c-1.32,0-2.25-.84-2.81-2.5-.07-.51-.11-.92-.11-1.24v-.22c0-.73.46-2.01,1.38-3.83l.05-9.14c0-1.86-.01-4.46-.07-7.79-.82-.93-1.23-1.68-1.23-2.26v-.79c.55-3.98.83-6.35.83-7.11,0-.21-.1-2.09-.31-5.64,0-.15.08-.41.23-.79-.07-.51-.11-.92-.11-1.24,0-.81.91-1.48,2.72-2.02ZM802.15,956.89l-.02,4.85c0,1.88,1.19,2.83,3.6,2.84l5.64.03c.16-1.45.24-2.54.24-3.27.01-2.26-.36-3.39-1.11-3.39,0-.17-.37-.44-1.12-.8-1.38,1.05-2.43,1.57-3.17,1.56-.96,0-1.9-.61-2.81-1.82h-1.24Z" class="cls-1"/><path d="M820.5,932.44h1.58c13.34.08,20.37.49,21.1,1.25,3.04.82,5.29,2.19,6.75,4.1,1.72,1.97,2.57,4.72,2.55,8.25,0,1.81-.66,4.1-1.95,6.87-.24,2.48-.36,4.74-.37,6.77l-.03,4.85c0,.7,1.6,3.34,4.81,7.92,1.57,2.28,2.35,3.57,2.35,3.85v.34c0,.75-.35,1.13-1.02,1.12,0,.49-.95,1.01-2.83,1.56-.41,0-.84,1.61-1.27,4.85l-.45.34h-.9c-.6-.67-.9-1.35-.89-2.04,0-.28.04-1.33.13-3.16,0-1.15-.4-1.94-1.23-2.38-.43-.23-.81-.38-1.12-.46-1.07,2.57-1.72,4-1.94,4.28h-.79c-.9-.23-1.35-1.37-1.34-3.4,0-.55-.37-1.19-1.12-1.93v-1.24s-.56-.12-.56-.12c0,.09-.19.24-.57.45h-.79c-1.35-.88-2.02-2.61-2-5.21-.29-2.03-.7-3.05-1.22-3.05-.36-.38-.91-1.43-1.68-3.17-.99-.61-1.78-1.33-2.36-2.16-.24,2.65-.4,4.12-.47,4.4.22,1.22.33,2.43.32,3.61-.53.99-.8,2.23-.81,3.72.59,2.3.88,3.76.88,4.4v.45c-.27.45-.61.67-1.02.67-.38,0-.83-.16-1.35-.46-1.16,3-1.96,4.5-2.39,4.5h-.45c-.71-.33-1.2-.93-1.46-1.82-1.27-1.19-2.24-2.29-2.92-3.29-.55,1.05-1.12,1.57-1.7,1.57-.53,0-1.2-.65-2.02-1.93,0-.43-.37-1.34-1.11-2.71v-.45c.54-2.03.81-3.19.81-3.5-.14-1.32-.21-2.71-.2-4.18v-.56c0-.13.19-.62.58-1.46-.59-1.64-.89-2.62-.89-2.94l.47-3.05c-.67-1.21-1.01-2.04-1-2.49,0-.4.68-1.14,2.04-2.25v-2.03c-.73-2.51-1.1-3.86-1.1-4.07-.07-.75-.11-1.32-.1-1.69,0-.36.12-1.15.35-2.37-.22-1.22-.33-2.01-.33-2.37.08-1.02.24-1.84.46-2.48-.68-.42-1.05-.72-1.12-.91v-.11c0-.41.23-1.01.69-1.8,0-.11-.15-.38-.45-.79v-.23c0-.6.5-1.24,1.48-1.91ZM832.86,943.22v.11c0,.24-.16,1.11-.47,2.59,0,.17.37.59,1.12,1.25l.11.45c-.23.88-.35,1.45-.35,1.69,0,.75.74,1.43,2.25,2.04h.11c.73,0,1.19-.26,1.36-.78-.14-2.35-.2-4.16-.2-5.42l.12-1.02h-.11c-.49.15-.83.22-1.02.22-.24,0-1.18-.38-2.82-1.14h-.11ZM838.93,947.32v.79c0,.4.03,1.04.1,1.92.45-.24.68-.65.68-1.24v-.68c.01-2.03-.09-3.35-.31-3.95-.3,0-.46,1.05-.47,3.16ZM846.33,956.84v.79c-.01,1.62.69,3.2,2.11,4.75l.12-1.02c0-.58-.03-1.11-.1-1.58.08-1,.12-2.05.13-3.16v-.56s.12-1.13.12-1.13c-1.27.88-2.06,1.51-2.38,1.91Z" class="cls-1"/><path d="M867.06,931.44h.9c.26,0,1.09.42,2.48,1.26l23.92.13c.23,0,.34.42.33,1.24v2.6c-.02.36.39,1.26,1.21,2.71l.11,1.13v2.37c-.02.75-.32,1.13-.92,1.12h-.34c-.77,0-1.48-.35-2.14-1.03-.34.22-.57.34-.68.33-.08,1.13-.12,1.96-.13,2.48,0,1.11.03,2.09.1,2.93-.4,3.35-.6,6.65-.62,9.93v.45c0,.11-.12.23-.34.34-.45-.15-.67-.45-.67-.91v-1.24c-.11-6.47-.17-10.08-.16-10.84,0-1.28-.4-1.92-1.23-1.93l-.9-.46c-1.66,1.27-2.5,2.36-2.5,3.26-.53,1.45-1.03,2.38-1.48,2.81,0,.23-.04.34-.11.34l.11.22v2.14c-.02,1.15.53,3.9,1.64,8.25.14,1.77.21,3.2.2,4.29-.29.68-.85,1.01-1.7,1.01.17,4.06.46,6.1.87,6.1,1.12,1.02,1.68,2.19,1.67,3.51-.2,2.48-.85,3.72-1.94,3.71h-.23c-.79-.16-1.2-.23-1.24-.23-.08,1.02-.12,1.77-.13,2.26,0,.39.03,1.03.1,1.92-.31.86-.46,1.35-.46,1.47.07.77.11,1.22.11,1.35l-.57.45h-.68c-1.51-.01-2.25-1.3-2.24-3.85.01-2.11-.21-3.16-.66-3.16-.47-.15-.77-.23-.9-.23-.44.6-.89.9-1.36.9h-.11c-.4,0-1.26-.31-2.59-.92v2.37c-.02,1.73-.55,2.59-1.61,2.59-1.65-.18-2.48-.9-2.47-2.16v-.11c.16-.75.23-1.43.24-2.03,0-.23-.41-.94-1.23-2.15-.29-1.6-.44-3.11-.43-4.52,1.39-7.22,2.09-11.42,2.1-12.63v-.11c.02-4.1,0-8.39-.04-12.87.08-1.28.13-2.56.13-3.84,0-.43-.41-.77-1.24-1.02-.49.22-.83.33-1.02.33h-.11c-.17,0-.77-.23-1.8-.69-.66.9-1.49,1.35-2.49,1.34-.68,0-1.8-.54-3.38-1.6-.3-.49-.45-.87-.45-1.13.02-2.99.41-5.85,1.17-8.57l.34-.22h1.35s4.18-1.21,4.18-1.21Z" class="cls-1"/><path d="M914.17,932.99h.56c.41,0,1.17.12,2.26.35,5.94-.04,9.71-.06,11.29-.05.3.28,1.63,4.58,4,12.89.15.32,1.22,3.86,3.22,10.63,1.5.61,2.25,1.97,2.24,4.07,0,.43.03,1.04.1,1.81-.08.41-.12.83-.12,1.24.07.58,1.18,4.43,3.32,11.53v.45c0,1.43-.5,2.14-1.48,2.14l-.57.11c-.21,0-.92-.79-2.13-2.38-.66-.3-1.37-.46-2.14-.46-.09,0-.77.18-2.03.55h-.56s0,.9,0,.9c0,.79-.72,1.73-2.16,2.81h-.45c-.79,0-1.39-1.03-1.79-3.06v-.56c0-.32.08-1.15.24-2.48,0-.43-.29-1.3-.89-2.6v-1.69c.01-.66-.59-1.41-1.78-2.27-1.73.2-2.6.57-2.6,1.11-.53.67-1.32,1.16-2.38,1.46-.55,0-1.41-.72-2.59-2.16l-.22-.11c-1.66,0-2.49.74-2.49,2.24,0,.98-.46,1.47-1.36,1.46-.83,0-1.7,1.68-2.62,5.06,0,1.43-.43,2.14-1.25,2.14h-.56c-.98,0-1.65-.95-2.02-2.84-1.34.97-2.28,1.46-2.83,1.45h-.11c-.64-.04-1.58-.69-2.81-1.93h-.22c-.24,0-.63.94-1.14,2.81l-.57.34c-.6,0-.98-.57-1.12-1.7v-1.92c1.08-2.23,4.85-12.41,11.35-30.53.23-.26.34-.64.34-1.13v-1.58c.02-1.67.48-3.85,1.4-6.54.74-1.05,1.64-1.57,2.72-1.57ZM919.87,944.87c-2.45,7.74-3.68,11.98-3.68,12.73l2.93.02c.64,0,1.13-.07,1.47-.22.09-2.39.14-4.16.14-5.3v-.68c.01-2.2-.24-3.63-.76-4.29v-.22c.23-1.07.35-1.71.35-1.92l-.22-.11h-.22ZM922.44,949.74l-.12,1.13c0,.7-.05,2.2-.14,4.51-.23.38-.34.75-.35,1.13v1.02c.65.08,1.07.12,1.24.12.9-.03,1.35-.14,1.36-.33-1.1-5.05-1.77-7.57-1.99-7.57Z" class="cls-1"/><path d="M960.73,933.69h1.58c4.53.03,9.08,1.11,13.64,3.24v.11l-.91,2.14c.22.49.34.83.33,1.02v.23c0,.38-.57,1.35-1.71,2.93l-.02,3.61c-.01,2.48-.32,3.72-.92,3.72h-.11c-1.24,0-2.1-1.52-2.57-4.53-.13-.9-.58-1.36-1.35-1.36-1.15,0-2.5-.46-4.06-1.38h-.68c-.49.67-.83,1.05-1.02,1.12h-.34c-.19,0-.87-.19-2.03-.58-2.11.65-3.17,1.28-3.17,1.9v.34c0,1.39,3.07,3.4,9.22,6.03,4.75,2.41,7.52,4.99,8.31,7.72.7,2.49,1.26,3.81,1.67,3.96.22.28.34.55.33.79v.34c0,.38-.46,1.24-1.37,2.59,0,.68-.4,4.74-1.19,12.18.07.51.11.92.11,1.24l-.57.45h-.22c-.67-.21-1.12-1.91-1.33-5.09h-.11c0,.23-.08.34-.23.34h-.34c-.23-.08-.34-.3-.34-.68v-.34s-.22,0-.22,0c0,1.67-.35,2.72-1.03,3.15-.38,0-.8,1.09-1.26,3.27-.29.66-.51.99-.68,1.01h-.34c-.75-.59-1.12-1.16-1.12-1.7l.35-1.8c0-.66-.33-1.34-1.01-2.04-1.52.24-2.81.72-3.84,1.45-.64.15-1.96.52-3.96,1.11-2.35-.01-3.82-.25-4.4-.7-.52-.83-.82-1.25-.9-1.25-2.56.57-3.84,1.28-3.85,2.12.07.94.1,1.47.1,1.58-.23.53-.61.79-1.13.78-.62,0-1.22-.76-1.79-2.27.01-2.3-.58-4.03-1.78-5.2-.22-.28-.34-.62-.33-1.02v-1.81c.01-.28-.18-.62-.55-1.02.44-.77.74-1.37.91-1.8-.44-1.22-.67-1.94-.67-2.15v-.45c0-.54.42-.92,1.25-1.12,0-.45.15-.68.45-.67,4.39,1.98,7.25,2.97,8.56,2.98,0,.09.22.17.67.23v-.11c0-.64.05-2.93.15-6.88,0-.79-.37-1.47-1.12-2.04h-.45c-1.47,0-2.7-.84-3.71-2.5-.28-.32-.88-.63-1.8-.91-.02-.17-.54-.51-1.57-1.02-1.34-1.89-2.01-3.4-2.01-4.53l.12-1.02-.22-.45c.64-3.63,1.63-6.59,2.98-8.9,1.31-2.36,3.95-4.23,7.93-5.6,2.2-.51,4.08-.77,5.65-.76ZM957.2,960.76c-.08.62-.28,3.25-.61,7.9l2.37.24c2.75.01,4.33-.84,4.75-2.57,0-.17.04-.32.11-.45,0-1.2-.59-2.11-1.79-2.72l-.23.11h-.11c-.37-.72-.9-1.13-1.57-1.25-1.41-.84-2.38-1.25-2.93-1.26Z" class="cls-1"/><path d="M659.48,985.15h.9c.26,0,1.09.42,2.48,1.26l23.93.13c.23,0,.34.42.33,1.24v2.6c-.02.36.39,1.26,1.21,2.72l.11,1.13v2.37c-.02.75-.32,1.13-.92,1.12h-.34c-.77,0-1.48-.35-2.14-1.03-.34.22-.57.34-.68.33-.08,1.13-.12,1.96-.13,2.48,0,1.11.03,2.09.1,2.94-.39,3.35-.6,6.65-.62,9.93v.45c0,.11-.12.22-.34.34-.45-.15-.67-.45-.67-.91v-1.24c-.11-6.47-.17-10.08-.16-10.84,0-1.28-.4-1.92-1.23-1.92l-.9-.46c-1.66,1.27-2.5,2.36-2.5,3.26-.53,1.45-1.03,2.38-1.48,2.81,0,.23-.04.34-.12.34l.11.23v2.14c-.02,1.15.53,3.9,1.64,8.25.14,1.77.21,3.2.2,4.29-.29.68-.85,1.01-1.7,1.01.17,4.06.46,6.1.87,6.1,1.12,1.02,1.68,2.19,1.67,3.51-.2,2.48-.85,3.72-1.94,3.71h-.22c-.79-.16-1.2-.23-1.24-.23-.08,1.02-.12,1.77-.12,2.26,0,.39.03,1.03.1,1.92-.31.86-.46,1.35-.46,1.47.07.77.11,1.22.11,1.35l-.57.45h-.68c-1.51-.01-2.25-1.3-2.24-3.85.01-2.11-.21-3.16-.66-3.16-.47-.15-.77-.23-.9-.23-.44.6-.89.9-1.36.9h-.11c-.4,0-1.26-.31-2.59-.92v2.37c-.02,1.73-.55,2.59-1.61,2.59-1.65-.18-2.48-.9-2.47-2.16v-.11c.16-.75.23-1.43.24-2.03,0-.23-.41-.94-1.23-2.15-.29-1.6-.43-3.11-.43-4.52,1.39-7.22,2.09-11.42,2.1-12.63v-.11c.02-4.1,0-8.39-.04-12.86.08-1.28.13-2.56.13-3.84,0-.43-.41-.77-1.24-1.02-.49.22-.83.33-1.02.33h-.11c-.17,0-.77-.23-1.8-.69-.66.9-1.49,1.35-2.49,1.34-.68,0-1.8-.54-3.38-1.6-.3-.49-.45-.87-.44-1.13.02-2.99.41-5.85,1.17-8.57l.34-.22h1.35s4.18-1.21,4.18-1.21Z" class="cls-1"/><path d="M694.3,985.39h.34c.26,0,.83.38,1.69,1.14.11.08.53.15,1.24.23,1.49-.07,2.46-.1,2.93-.1,1.03.08,1.67.12,1.92.12.24,0,1.11-.41,2.6-1.23h.11c3.01.19,4.51.53,4.51,1.04.28.15.58.23.9.23l5.98.03c.68,0,1.02.27,1.01.8l-.04,7.9c-1.06,1.2-1.63,1.8-1.7,1.8h-.11c-.24,0-.73-.31-1.46-.91-.42,1.35-1.1,2.02-2.04,2.02-.19,0-.75-.38-1.69-1.14-.47,0-1.3-.42-2.48-1.25-.41-.08-.75-.12-1.02-.12h-.11c-1.02.9-1.89,1.38-2.6,1.45.07.41.14,1.47.21,3.16h.11c1.22,0,3.03.54,5.41,1.61l5.3.03c.53,0,.94.08,1.24.23.06,3.12.08,5.46.08,7v2.6c-.02.6-.62,1.28-1.83,2.02,0,.23-.04.34-.12.34l.11.56v2.82c0,.75.07,1.13.21,1.13,1.81,0,2.71.13,2.71.35l.11.68-.04,8.13c-.46,1.75-.69,3.03-.7,3.83v.9s.1.79.1.79c-.3.15-.72.22-1.24.22-.51-.72-.84-1.89-1-3.51-.28-1.05-.54-1.58-.78-1.58-.87,0-2.11.93-3.74,2.8-.24.15-.47.22-.68.22-1.35,0-2.59-.8-3.71-2.39h-.11c-.41,0-1.21.6-2.38,1.79-.38.22-.75.33-1.13.33h-.11c-.47,0-1.48-.5-3.04-1.48h-.11c-.51,1.35-1.05,2.02-1.59,2.02-.13.07-.28.11-.45.11-.51-.1-1.18-.93-2.02-2.49h-.11c-.38.22-.68.34-.91.33h-.34c-1.32,0-2.25-.84-2.81-2.5-.07-.51-.11-.92-.11-1.24v-.22c0-.73.46-2.01,1.38-3.83l.05-9.14c0-1.86-.01-4.46-.07-7.79-.82-.93-1.23-1.68-1.23-2.26v-.79c.55-3.98.83-6.35.83-7.11,0-.21-.1-2.09-.31-5.65,0-.15.08-.41.23-.79-.07-.51-.11-.92-.11-1.24,0-.81.91-1.48,2.72-2.02ZM703.98,1011.18l-.03,4.85c0,1.88,1.19,2.83,3.6,2.84l5.64.03c.16-1.45.24-2.54.24-3.27.01-2.26-.36-3.39-1.11-3.39,0-.17-.37-.44-1.12-.8-1.38,1.05-2.43,1.57-3.17,1.56-.96,0-1.9-.61-2.81-1.82h-1.24Z" class="cls-1"/><path d="M759.82,985.62c2.86.77,4.28,1.6,4.27,2.51-.16,1.33-.24,2.16-.24,2.48v.79c0,.62.06,1.75.2,3.39,0,.36-.16,1.15-.46,2.37.97,1.11,1.46,1.95,1.45,2.49v.34c-.92,2.1-1.37,3.68-1.38,4.73v1.02c.29,1.68.43,2.65.43,2.94v1.47c-.02,3.07-.3,5.1-.83,6.09l-.12.56c0,1.24.33,2.41,1,3.5.15.34.22.83.22,1.47l-.02,4.18c.15.53.22.83.22.9v.34c0,.53-.31,1.43-.92,2.7-.3,5.94-.84,9.21-1.63,9.81h-.11c-1.17,0-1.87-2-2.11-5.99,0-.45-.71-1.06-2.14-1.82-.38.94-.95,1.61-1.7,2.02h-.34c-.88,0-1.93-.73-3.15-2.16-.41-.08-.71-.12-.9-.12-.39,0-.7.18-.91.56v1.13c-.4.52-.74.79-1.03.78-1.5-.89-2.25-1.72-2.24-2.49-.83-.61-1.53-1.96-2.12-4.07-1.42-2.26-2.12-3.55-2.12-3.85,0-.62-.82-1.72-2.47-3.29,0-.13-.45-.81-1.34-2.04-.3.39-.45.81-.46,1.24l-.03,5.08c0,.55-.12.85-.34.9h-.45c-.49,0-.82-1.1-1-3.28.16-1.41.24-2.31.24-2.71v-.23s-.63-8.92-.63-8.92c-.52-1.32-.78-2.52-.77-3.61-2.09-3.85-3.28-6.15-3.57-6.9h-.23s0,.11,0,.11c.12,5.19.49,7.79,1.09,7.79.15.3.22.57.22.79-.01,2.18-.18,6.17-.51,11.96.3,4.06.55,6.1.76,6.1.21.13.58,1.11,1.11,2.94-.53,1.26-1.22,2.08-2.04,2.47l-.45.11v1.35c0,.4-.31.85-.92,1.35-.83,0-1.31-.57-1.46-1.7v-.34s-.11,0-.11,0c-.98,0-1.47,1.05-1.48,3.15-.33,1.88-.94,2.82-1.82,2.81-1.5-.8-2.24-2.57-2.23-5.32v-.56s-.11-.79-.11-.79c-.96.67-1.64,1.01-2.04,1.01h-.23c-.9-.33-1.35-1.31-1.34-2.94v-2.6c.02-1.02.48-2.86,1.4-5.52v-.56c-.67-1.39-1-2.49-.99-3.28.31-2.5.47-3.93.47-4.29-.44-1.94-.66-3.29-.66-4.07v-.34c0-.51.12-1.18.35-2.03-.44-1.98-.66-3.11-.66-3.39v-1.13c.54-1.37.81-2.2.81-2.48,0-.34-.03-1.47-.1-3.39,0-.24.31-1.03.92-2.37l.04-7.67c.02-.15.09-.22.23-.22l14.22.08c.85,0,1.56.87,2.13,2.61.09.02,3.3,6.06,9.61,18.11l1.57,1.7h.79c.53,0,.79-.14.79-.44,0-.96.39-2.12,1.15-3.49v-.23c.02-3.16-.2-4.74-.65-4.74v-.11l.12-1.58c-.6-.85-.89-1.45-.89-1.81l.35-2.48c-.07-.9-.14-1.39-.22-1.47,0-.23.42-.83,1.25-1.8l.02-3.84c.02-.15.09-.22.23-.22l4.51.02c.56,0,1.39-.52,2.49-1.57Z" class="cls-1"/><path d="M770.93,985.8h.34c.26,0,.83.38,1.69,1.14.11.08.53.15,1.24.23,1.49-.07,2.46-.1,2.94-.1,1.03.08,1.67.12,1.92.12.24,0,1.11-.41,2.6-1.23h.11c3.01.19,4.51.53,4.51,1.04.28.15.58.23.9.23l5.98.03c.68,0,1.01.27,1.01.8l-.04,7.9c-1.06,1.2-1.63,1.8-1.7,1.8h-.11c-.24,0-.73-.3-1.46-.91-.42,1.35-1.1,2.02-2.04,2.02-.19,0-.75-.38-1.69-1.14-.47,0-1.3-.42-2.48-1.25-.41-.08-.75-.12-1.02-.12h-.11c-1.02.9-1.89,1.38-2.6,1.45.07.41.14,1.47.21,3.16h.11c1.22,0,3.03.54,5.41,1.61l5.3.03c.53,0,.94.08,1.24.23.06,3.12.08,5.46.08,7v2.6c-.02.6-.62,1.28-1.83,2.02,0,.23-.04.34-.11.34l.11.56v2.82c0,.75.07,1.13.21,1.13,1.81,0,2.71.13,2.71.35l.11.68-.04,8.13c-.46,1.75-.69,3.03-.7,3.83v.9s.1.79.1.79c-.3.15-.72.22-1.24.22-.5-.72-.84-1.89-1-3.51-.28-1.05-.54-1.58-.78-1.58-.86,0-2.11.93-3.74,2.8-.24.15-.47.22-.68.22-1.35,0-2.59-.8-3.71-2.39h-.11c-.41,0-1.21.6-2.38,1.79-.38.22-.75.33-1.13.33h-.11c-.47,0-1.48-.5-3.04-1.48h-.11c-.51,1.35-1.04,2.02-1.59,2.02-.13.07-.28.11-.45.11-.51-.1-1.18-.93-2.02-2.49h-.11c-.38.22-.68.34-.9.33h-.34c-1.32,0-2.25-.84-2.81-2.5-.07-.51-.11-.92-.11-1.24v-.22c0-.73.46-2.01,1.38-3.83l.05-9.14c0-1.86-.01-4.46-.07-7.79-.82-.93-1.23-1.68-1.23-2.26v-.79c.55-3.98.83-6.35.83-7.11,0-.21-.1-2.09-.31-5.64,0-.15.08-.41.23-.79-.07-.51-.11-.92-.11-1.24,0-.81.91-1.48,2.72-2.02ZM780.61,1011.58l-.02,4.85c0,1.88,1.19,2.83,3.6,2.84l5.64.03c.16-1.45.24-2.54.24-3.27.01-2.26-.36-3.39-1.11-3.39,0-.17-.37-.44-1.12-.8-1.38,1.05-2.43,1.57-3.17,1.56-.96,0-1.9-.61-2.81-1.82h-1.24Z" class="cls-1"/><path d="M815.56,987.28c6.98.04,11.48,2.13,13.51,6.28.32.6.53,2.07.65,4.4-.02,3.27-.44,5.53-1.28,6.77-.53,1.43-1.14,2.14-1.82,2.13h-.23s-2.03-.69-2.03-.69c-.75.3-1.21.44-1.36.44v.23c2.4.62,4.17,1.68,5.29,3.19,1.2,1.57,1.79,3.45,1.78,5.65v1.13c-.01,1.45-.51,3.33-1.5,5.63,0,1.62-.5,2.67-1.48,3.15-1.36.95-2.04,1.59-2.04,1.91-1.3,2.95-1.94,4.52-1.94,4.73-.21,1.05-.71,1.58-1.48,1.57h-.45c-.98,0-1.73-.84-2.24-2.5.08-.88.12-1.52.12-1.92-.15-.24-.22-.43-.22-.57h-.34c0,.77-.57,1.29-1.7,1.57h-.56c-1.22,0-2.31-.32-3.27-.92h-.11c-.11,0-1.02.56-2.72,1.68l-.56.11c-2.64-1.44-4.3-2.17-4.95-2.17-1.3,0-2.17.51-2.6,1.57-.36.9-1.01,1.35-1.93,1.34h-.79c-.87,0-1.5-.84-1.9-2.5l.57-23.13c-.15-.81-.22-1.34-.22-1.58v-.34s.47-3.05.47-3.05c-.59-2.94-.88-4.9-.87-5.87-.13,0-.21-.26-.22-.79v-.45c0-.28.42-1.3,1.26-3.04.08-1.13.12-1.96.13-2.48v-1.02s.23-.34.23-.34c5.57-.12,11.17-.17,16.82-.14ZM809.22,1012.86c-.09,2.29-.13,3.99-.14,5.08v1.92s4.05.02,4.05.02v-.11c0-.73.04-1.11.12-1.13-.07-.83-.1-1.54-.1-2.14v-2.82s-.55.11-.55.11h-.45c-.15,0-.83-.35-2.02-1.03h-.11l-.79.11ZM809.63,998.08l-.02,3.27c0,.38-.04.94-.12,1.69.41,0,.83.04,1.24.12,3.59.02,5.7-.5,6.33-1.55.53-.62.8-1.48.8-2.59,0-.75-.26-1.35-.78-1.81-.72.9-1.44,1.35-2.15,1.34h-.34c-.62,0-1.41-.84-2.36-2.5l-.22-.11h-.23c-.15,0-.45.52-.91,1.57-.42.37-.83.56-1.24.56ZM815.54,1013.01c-.53,1.29-.81,3.48-.82,6.54.07,0,.11.04.11.11,1.26,0,2.28-.78,3.06-2.35v-.11c-1.05-1.3-1.57-2.4-1.56-3.28-.3-.55-.56-.85-.79-.91Z" class="cls-1"/><path d="M834.58,987.32h1.58c13.34.08,20.37.49,21.1,1.25,3.04.82,5.29,2.19,6.75,4.1,1.72,1.97,2.57,4.72,2.55,8.25,0,1.81-.66,4.1-1.95,6.87-.24,2.48-.36,4.74-.37,6.77l-.03,4.85c0,.7,1.6,3.34,4.81,7.93,1.57,2.28,2.35,3.57,2.35,3.85v.34c0,.75-.35,1.13-1.02,1.12,0,.49-.95,1.01-2.83,1.56-.41,0-.84,1.61-1.27,4.85l-.45.34h-.9c-.6-.67-.9-1.35-.89-2.04,0-.28.04-1.33.13-3.16,0-1.15-.4-1.94-1.23-2.38-.43-.23-.81-.38-1.13-.46-1.07,2.57-1.71,4-1.94,4.28h-.79c-.9-.23-1.35-1.37-1.34-3.4,0-.55-.37-1.19-1.12-1.93v-1.24s-.56-.12-.56-.12c0,.09-.19.24-.57.45h-.79c-1.35-.88-2.02-2.61-2-5.21-.29-2.03-.7-3.05-1.23-3.05-.36-.38-.91-1.43-1.68-3.17-.99-.61-1.78-1.32-2.36-2.16-.24,2.65-.4,4.12-.47,4.4.22,1.22.33,2.43.32,3.61-.53.99-.8,2.23-.81,3.72.59,2.3.88,3.77.88,4.41v.45c-.27.45-.61.67-1.02.67-.38,0-.83-.16-1.35-.46-1.16,3-1.96,4.5-2.39,4.5h-.45c-.71-.33-1.2-.93-1.46-1.82-1.27-1.19-2.24-2.29-2.92-3.29-.55,1.05-1.12,1.57-1.7,1.57-.53,0-1.2-.65-2.02-1.93,0-.43-.37-1.34-1.11-2.71v-.45c.54-2.03.81-3.19.81-3.5-.14-1.32-.21-2.71-.2-4.18v-.56c0-.13.19-.62.57-1.46-.59-1.64-.89-2.62-.89-2.94l.47-3.05c-.67-1.21-1.01-2.04-1-2.49,0-.4.68-1.14,2.04-2.24v-2.03c-.73-2.51-1.1-3.86-1.1-4.07-.07-.75-.11-1.32-.1-1.69,0-.36.12-1.15.35-2.37-.22-1.22-.33-2.01-.33-2.37.08-1.01.24-1.84.46-2.48-.68-.42-1.05-.72-1.12-.91v-.11c0-.41.23-1.02.69-1.8,0-.11-.15-.38-.45-.79v-.23c0-.6.5-1.24,1.48-1.91ZM846.93,998.11v.11c0,.24-.16,1.11-.47,2.59,0,.17.37.59,1.12,1.25l.11.45c-.23.88-.35,1.45-.35,1.69,0,.75.74,1.43,2.25,2.04h.11c.73,0,1.19-.26,1.36-.78-.14-2.35-.2-4.16-.2-5.42l.12-1.02h-.11c-.49.15-.83.22-1.02.22-.24,0-1.18-.38-2.82-1.14h-.11ZM853.01,1002.2v.79c0,.4.03,1.04.1,1.92.45-.24.68-.66.68-1.24v-.68c.01-2.03-.09-3.35-.31-3.95-.3,0-.46,1.05-.47,3.16ZM860.41,1011.72v.79c-.01,1.62.69,3.2,2.11,4.75l.12-1.01c0-.58-.03-1.11-.1-1.58.08-1,.12-2.05.13-3.16v-.56s.12-1.13.12-1.13c-1.27.88-2.06,1.51-2.38,1.91Z" class="cls-1"/><path d="M895.12,988.15h2.03c3.24.03,6.73.88,10.48,2.55,1.15,0,2.42.8,3.82,2.39.13.98,1.02,2.3,2.69,3.96.09,0,.24.6.44,1.81.6,1.08,1.3,3.56,2.1,7.46.75.27,1.12,1.32,1.11,3.16.52,1.73.77,2.86.77,3.39v.68c0,.79-.69,1.76-2.05,2.92-.44.66-.83,3.06-1.17,7.22,0,1.39-.35,2.82-1.04,4.28,0,1.58-.43,2.37-1.26,2.36-.41-.17-.94-.78-1.57-1.81v-.34s.12-1.13.12-1.13h-.34s-1.14,2.02-1.14,2.02c0,.13-1.29,1.14-3.85,3.03-.93,1.2-1.68,1.8-2.27,1.79h-.11c-.43,0-1.14-.38-2.14-1.14-.11-.08-.34-.11-.68-.12-.55,0-.96.48-1.25,1.46-.68.35-1.02.84-1.02,1.46-.13,2.48-.51,3.72-1.15,3.72h-.9c-1.2-.01-1.8-1.41-1.78-4.19-.07-.72-.11-1.43-.1-2.15h-1.02c-.93,1.27-1.76,1.9-2.49,1.9-1.22,0-2.72-1.03-4.5-3.07l-.56-1.47-.91,1.69c-.53.45-1.06.67-1.58.67h-.23c-1.18,0-2.23-1.1-3.14-3.29.01-2.58-.77-4.24-2.34-4.98-1.86-3.94-2.79-6.09-2.79-6.45.08-.51.12-.92.12-1.24v-.45c0-.26-.41-1.24-1.22-2.94-.15-.3-.22-.72-.22-1.24v-.68c0-.96.51-2.46,1.5-4.51.02-4.12,1.55-8.32,4.58-12.62,3.73-4.12,8.74-6.16,15.04-6.13ZM890.43,1000.42c-.78.82-1.62,3.19-2.52,7.1l-.12,1.58c-.03,6.55,1.45,10.58,4.45,12.1v-.11c-.14-2.2-.21-3.59-.2-4.18,0-1.37.05-2.28.13-2.71-.06-1.77-.09-3.46-.09-5.08l.02-3.84c.02-3.16-.31-4.74-.99-4.75-.06,0-.28-.04-.68-.12ZM894.24,1005.97c0,.43.03,1.34.1,2.71-.08,1.13-.35,3.05-.82,5.75.03,5.04.17,7.56.41,7.56.68.15,1.58.23,2.71.24h.45c3.5.02,5.73-1.77,6.69-5.38v-.11c.04-6.71-.47-11.12-1.51-13.21-.09-.68-.28-1.02-.56-1.02-.45.3-.87.45-1.25.44-1.73-.76-2.59-1.59-2.58-2.5-.54-.83-.88-1.25-1.01-1.25h-.79c-.6,0-.91.56-.91,1.68-.61,2.01-.92,3.7-.93,5.07Z" class="cls-1"/><path d="M938.18,988.37h1.58c4.53.03,9.08,1.11,13.64,3.24v.11l-.91,2.14c.22.49.34.83.33,1.02v.23c0,.38-.57,1.35-1.71,2.93l-.02,3.61c-.01,2.48-.32,3.72-.92,3.72h-.11c-1.24,0-2.1-1.52-2.57-4.53-.13-.9-.58-1.36-1.35-1.36-1.15,0-2.5-.47-4.06-1.38h-.68c-.49.67-.83,1.05-1.02,1.12h-.34c-.19,0-.87-.19-2.03-.58-2.11.65-3.17,1.28-3.17,1.9v.34c0,1.39,3.07,3.4,9.22,6.03,4.75,2.41,7.52,4.99,8.31,7.72.7,2.49,1.26,3.81,1.67,3.96.22.28.34.55.33.79v.34c0,.38-.46,1.24-1.37,2.59,0,.68-.4,4.74-1.19,12.18.07.51.11.92.11,1.24l-.57.45h-.22c-.68-.21-1.12-1.91-1.33-5.09h-.11c0,.22-.08.34-.23.34h-.34c-.23-.08-.34-.3-.34-.68v-.34s-.22,0-.22,0c0,1.67-.35,2.73-1.03,3.15-.38,0-.8,1.09-1.26,3.27-.29.66-.51.99-.68,1.01h-.34c-.75-.59-1.12-1.16-1.12-1.7l.35-1.8c0-.66-.33-1.34-1.01-2.04-1.53.24-2.81.72-3.84,1.45-.64.15-1.96.52-3.96,1.11-2.35-.01-3.82-.25-4.4-.7-.52-.83-.82-1.25-.9-1.25-2.56.57-3.84,1.28-3.85,2.12.07.94.1,1.47.1,1.58-.23.53-.61.79-1.13.78-.62,0-1.22-.76-1.79-2.27.01-2.3-.58-4.03-1.78-5.2-.22-.28-.34-.62-.33-1.02v-1.81c.01-.28-.18-.62-.55-1.02.44-.77.74-1.37.91-1.8-.44-1.23-.67-1.94-.67-2.15v-.45c0-.54.42-.92,1.25-1.12,0-.45.15-.68.46-.68,4.39,1.98,7.25,2.97,8.56,2.98,0,.09.23.17.68.23v-.11c0-.64.05-2.93.15-6.88,0-.79-.37-1.47-1.12-2.04h-.45c-1.47,0-2.7-.84-3.71-2.5-.28-.32-.88-.63-1.8-.91-.02-.17-.54-.51-1.57-1.02-1.34-1.89-2.01-3.4-2.01-4.52l.12-1.02-.22-.45c.64-3.63,1.63-6.59,2.98-8.9,1.31-2.36,3.95-4.23,7.93-5.6,2.2-.51,4.09-.77,5.65-.76ZM934.65,1015.44c-.08.62-.28,3.25-.61,7.9l2.37.24c2.75.01,4.33-.84,4.75-2.57,0-.17.04-.32.11-.45,0-1.2-.59-2.11-1.79-2.72l-.23.11h-.11c-.37-.72-.9-1.13-1.57-1.25-1.41-.84-2.38-1.25-2.93-1.26Z" class="cls-1"/><path d="M972.66,988.11h.56c.41,0,1.17.12,2.26.35,5.94-.04,9.71-.06,11.29-.05.3.28,1.63,4.58,4,12.89.15.32,1.22,3.86,3.22,10.62,1.5.61,2.25,1.97,2.24,4.07,0,.43.03,1.04.1,1.81-.08.41-.12.83-.12,1.24.07.58,1.18,4.43,3.32,11.53v.45c0,1.43-.5,2.14-1.48,2.14l-.57.11c-.21,0-.92-.79-2.13-2.38-.66-.3-1.37-.46-2.14-.46-.09,0-.77.18-2.03.55h-.56s0,.9,0,.9c0,.79-.72,1.73-2.16,2.81h-.45c-.79,0-1.39-1.03-1.79-3.06v-.56c0-.32.08-1.15.24-2.48,0-.43-.29-1.3-.89-2.6v-1.69c.01-.66-.59-1.41-1.79-2.27-1.73.2-2.6.57-2.6,1.11-.53.67-1.32,1.16-2.38,1.46-.55,0-1.41-.72-2.59-2.16l-.22-.11c-1.66,0-2.49.74-2.49,2.24,0,.98-.46,1.46-1.36,1.46-.83,0-1.7,1.68-2.62,5.06,0,1.43-.43,2.14-1.25,2.14h-.56c-.98,0-1.65-.95-2.02-2.84-1.34.97-2.28,1.46-2.83,1.45h-.11c-.64-.04-1.58-.69-2.81-1.93h-.22c-.24,0-.63.93-1.14,2.81l-.57.34c-.6,0-.98-.57-1.12-1.7v-1.92c1.07-2.23,4.85-12.41,11.34-30.52.23-.26.34-.64.34-1.13v-1.58c.02-1.67.48-3.85,1.4-6.54.74-1.05,1.64-1.57,2.72-1.57ZM978.35,999.99c-2.45,7.74-3.67,11.98-3.68,12.73h2.93c.64.02,1.13-.05,1.47-.2.09-2.39.14-4.16.14-5.3v-.68c.01-2.2-.24-3.63-.76-4.29v-.22c.23-1.07.35-1.71.35-1.92l-.23-.11h-.22ZM980.92,1004.85l-.12,1.13c0,.7-.05,2.2-.14,4.51-.23.38-.34.75-.35,1.13v1.02c.65.08,1.07.12,1.24.12.9-.03,1.35-.14,1.35-.33-1.1-5.05-1.76-7.57-1.99-7.57Z" class="cls-1"/><path d="M1019.21,988.8h1.58c4.53.03,9.08,1.11,13.64,3.24v.11l-.91,2.14c.22.49.34.83.33,1.02v.23c0,.38-.57,1.35-1.71,2.93l-.02,3.61c-.01,2.48-.32,3.72-.92,3.72h-.11c-1.24,0-2.1-1.52-2.57-4.53-.13-.9-.58-1.36-1.35-1.36-1.15,0-2.5-.46-4.06-1.38h-.68c-.49.67-.83,1.05-1.02,1.12h-.34c-.19,0-.87-.19-2.03-.58-2.11.65-3.17,1.28-3.17,1.9v.34c0,1.39,3.07,3.4,9.22,6.03,4.74,2.41,7.51,4.99,8.31,7.72.7,2.49,1.26,3.81,1.67,3.96.22.28.34.55.33.79v.34c0,.38-.46,1.24-1.37,2.59,0,.68-.4,4.74-1.19,12.18.07.51.11.92.11,1.24l-.57.45h-.22c-.68-.21-1.12-1.91-1.33-5.09h-.11c0,.23-.08.34-.23.34h-.34c-.23-.08-.34-.3-.34-.68v-.34s-.22,0-.22,0c0,1.67-.35,2.72-1.03,3.15-.38,0-.8,1.09-1.26,3.27-.29.66-.51.99-.68,1.01h-.34c-.75-.59-1.12-1.16-1.12-1.7l.35-1.8c0-.66-.33-1.34-1.01-2.04-1.53.24-2.81.72-3.84,1.45-.64.15-1.96.52-3.96,1.11-2.35-.01-3.82-.25-4.4-.7-.52-.83-.82-1.25-.9-1.25-2.56.57-3.84,1.28-3.85,2.12.07.94.1,1.47.1,1.58-.23.53-.61.79-1.13.79-.62,0-1.22-.76-1.79-2.27.01-2.3-.58-4.03-1.78-5.2-.22-.28-.34-.62-.33-1.02v-1.81c.01-.28-.18-.62-.55-1.02.44-.77.74-1.37.91-1.8-.44-1.22-.67-1.94-.67-2.15v-.45c0-.54.42-.92,1.25-1.12,0-.45.15-.68.46-.67,4.39,1.98,7.25,2.97,8.56,2.98,0,.09.23.17.68.23v-.11c0-.64.05-2.93.15-6.88,0-.79-.37-1.47-1.12-2.04h-.45c-1.47,0-2.7-.84-3.71-2.5-.28-.32-.88-.63-1.8-.91-.02-.17-.54-.51-1.57-1.02-1.34-1.89-2.01-3.4-2.01-4.52l.12-1.02-.22-.45c.64-3.63,1.63-6.59,2.98-8.9,1.31-2.36,3.95-4.23,7.93-5.6,2.2-.51,4.09-.77,5.65-.76ZM1015.68,1015.87c-.08.62-.28,3.25-.61,7.9l2.37.24c2.75.01,4.33-.84,4.75-2.57,0-.17.04-.32.11-.45,0-1.2-.59-2.11-1.79-2.72l-.23.11h-.11c-.37-.72-.9-1.13-1.57-1.25-1.41-.84-2.38-1.25-2.93-1.26Z" class="cls-1"/></g><g><path d="M730.61,930.28h2.03c3.24.03,6.73.87,10.48,2.55,1.15,0,2.42.8,3.83,2.39.13.98,1.02,2.3,2.69,3.96.09,0,.24.6.44,1.81.6,1.08,1.3,3.56,2.11,7.46.75.27,1.12,1.32,1.11,3.17.52,1.73.77,2.86.77,3.39v.68c0,.79-.69,1.76-2.05,2.92-.44.66-.83,3.06-1.17,7.22,0,1.39-.35,2.82-1.04,4.28,0,1.58-.43,2.37-1.26,2.36-.41-.17-.94-.78-1.57-1.81v-.34s.12-1.13.12-1.13h-.34s-1.14,2.02-1.14,2.02c0,.13-1.29,1.14-3.85,3.03-.93,1.2-1.68,1.8-2.27,1.79h-.11c-.43,0-1.14-.38-2.14-1.14-.11-.08-.34-.11-.68-.12-.55,0-.96.48-1.25,1.46-.68.35-1.02.84-1.02,1.46-.13,2.48-.51,3.72-1.15,3.72h-.9c-1.2-.01-1.8-1.41-1.78-4.19-.07-.71-.11-1.43-.1-2.14h-1.02c-.93,1.27-1.76,1.9-2.49,1.9-1.22,0-2.72-1.03-4.5-3.07l-.56-1.47-.91,1.69c-.53.45-1.06.67-1.58.67h-.22c-1.18,0-2.23-1.1-3.14-3.29.01-2.58-.77-4.24-2.34-4.98-1.86-3.94-2.79-6.09-2.79-6.45.08-.51.12-.92.12-1.24v-.45c0-.26-.4-1.24-1.22-2.94-.15-.3-.22-.72-.22-1.24v-.68c0-.96.5-2.46,1.49-4.51.02-4.12,1.55-8.32,4.58-12.61,3.73-4.12,8.74-6.16,15.04-6.13ZM725.92,942.56c-.78.82-1.62,3.19-2.52,7.1l-.12,1.58c-.03,6.55,1.45,10.58,4.45,12.1v-.11c-.14-2.2-.21-3.59-.2-4.18,0-1.37.05-2.28.13-2.71-.07-1.77-.09-3.46-.09-5.08l.02-3.84c.02-3.16-.31-4.74-.99-4.75-.06,0-.28-.04-.68-.12ZM729.73,948.11c0,.43.03,1.34.1,2.71-.08,1.13-.35,3.05-.82,5.75.03,5.04.17,7.56.41,7.56.67.15,1.58.23,2.71.24h.45c3.5.02,5.73-1.77,6.69-5.38v-.11c.04-6.71-.47-11.12-1.51-13.21-.09-.68-.28-1.02-.56-1.02-.45.3-.87.45-1.24.44-1.73-.76-2.59-1.59-2.58-2.5-.54-.83-.88-1.25-1.01-1.25h-.79c-.6,0-.91.56-.91,1.68-.61,2.01-.92,3.7-.93,5.07Z" class="cls-2"/><path d="M761.03,928.58c.22,0,1.5.46,3.83,1.37.39.08.62.12.68.12,7.75.12,13.47.19,17.15.2.9,0,1.35.27,1.35.8,0,.41.22,1.92.65,4.52v.9c-.17,3.16-.56,4.74-1.16,4.73h-.45c-.99-.4-1.71-.82-2.14-1.26-1.34.52-2.32.78-2.94.77-.19,0-.68-.19-1.47-.57-.63,1.46-1.5,2.36-2.61,2.69-.45.67-1.02,1.01-1.7,1.01h-1.58s-.02,2.93-.02,2.93l1.13.12,10.83.06c.21,0,.43.08.68.23l.18,8.24c0,.28-.65,1.14-1.93,2.59-.61,1.5-1.33,2.25-2.16,2.25h-.34c-.49,0-1.31-.95-2.47-2.84-.13,0-.62-.34-1.46-1.02-2.04.89-3.06,1.87-3.06,2.92-.76,1.75-1.14,2.8-1.14,3.15.06,3.76.08,6.51.07,8.24,0,.32-.08.66-.23,1.02l.11.68v.11c-.65.82-1.17,1.24-1.59,1.23h-1.47c-.17,0-.32.03-.45.1-.4,0-1.18-.53-2.36-1.59h-.34c-1.66.5-2.49,1.21-2.49,2.13-.15.45-.45.67-.91.67h-1.02c-.79,0-1.31-.69-1.57-2.05l.27-7.67c-.44-1.07-.67-2.02-.66-2.82v-1.24c.24-1.65.36-2.67.36-3.05-.59-2.9-.88-4.71-.88-5.42v-.34c.46-1.99.7-3.42.7-4.29,0-.54.23-1.9.7-4.06v-1.69c0-.34-.32-1.62-.99-3.84-.44-2.3-.92-4.41-1.43-6.33v-.56c.65-2.1,1.83-3.15,3.52-3.14h.79Z" class="cls-2"/><path d="M790.55,928.91h.34c.26,0,.83.38,1.69,1.14.11.08.53.15,1.24.23,1.49-.07,2.46-.1,2.94-.1,1.03.08,1.67.12,1.92.12.24,0,1.11-.41,2.6-1.23h.11c3.01.19,4.51.53,4.51,1.04.28.15.58.23.9.23l5.98.03c.68,0,1.02.27,1.01.8l-.04,7.9c-1.06,1.2-1.63,1.8-1.7,1.8h-.11c-.24,0-.73-.31-1.46-.91-.42,1.35-1.1,2.02-2.04,2.02-.19,0-.75-.38-1.69-1.14-.47,0-1.3-.42-2.48-1.25-.41-.08-.75-.12-1.02-.12h-.11c-1.02.9-1.89,1.38-2.6,1.45.07.42.14,1.47.21,3.16h.11c1.22,0,3.03.54,5.41,1.61l5.3.03c.53,0,.94.08,1.24.23.06,3.12.08,5.46.08,7v2.6c-.02.6-.62,1.28-1.83,2.02,0,.23-.04.34-.11.34l.11.57v2.82c0,.75.07,1.13.21,1.13,1.81,0,2.71.13,2.71.35l.11.68-.04,8.13c-.46,1.75-.69,3.02-.7,3.83v.9s.1.79.1.79c-.3.15-.72.22-1.24.22-.5-.72-.84-1.89-1-3.5-.28-1.05-.54-1.58-.78-1.58-.87,0-2.11.93-3.74,2.8-.25.15-.47.22-.68.22-1.35,0-2.59-.8-3.71-2.39h-.11c-.41,0-1.21.6-2.38,1.79-.38.22-.75.33-1.13.33h-.11c-.47,0-1.48-.5-3.04-1.48h-.11c-.51,1.35-1.05,2.02-1.59,2.02-.13.07-.28.11-.45.11-.51-.1-1.18-.93-2.02-2.49h-.11c-.38.22-.68.33-.9.33h-.34c-1.32,0-2.25-.84-2.81-2.5-.07-.51-.11-.92-.11-1.24v-.22c0-.73.46-2.01,1.38-3.83l.05-9.14c0-1.86-.01-4.46-.07-7.79-.82-.92-1.23-1.68-1.23-2.26v-.79c.55-3.98.83-6.35.83-7.11,0-.21-.1-2.09-.31-5.64,0-.15.08-.41.23-.79-.07-.51-.11-.92-.11-1.24,0-.81.91-1.48,2.72-2.02ZM800.23,954.69l-.03,4.85c0,1.88,1.19,2.83,3.6,2.84l5.64.03c.16-1.45.24-2.54.24-3.27.01-2.26-.36-3.39-1.11-3.39,0-.17-.37-.44-1.12-.8-1.38,1.05-2.43,1.57-3.17,1.56-.96,0-1.9-.61-2.81-1.82h-1.24Z" class="cls-2"/><path d="M818.58,930.24h1.58c13.34.08,20.37.49,21.1,1.25,3.04.82,5.29,2.19,6.75,4.1,1.72,1.97,2.57,4.71,2.55,8.25,0,1.81-.66,4.1-1.96,6.87-.24,2.48-.36,4.74-.37,6.77l-.03,4.85c0,.7,1.6,3.34,4.81,7.93,1.57,2.28,2.35,3.57,2.35,3.85v.34c0,.75-.35,1.13-1.02,1.12,0,.49-.95,1.01-2.83,1.56-.41,0-.84,1.61-1.27,4.85l-.45.34h-.9c-.6-.67-.9-1.34-.89-2.04,0-.28.04-1.33.13-3.16,0-1.15-.4-1.94-1.23-2.38-.43-.23-.81-.38-1.13-.46-1.07,2.57-1.71,4-1.94,4.28h-.79c-.9-.23-1.35-1.37-1.34-3.4,0-.55-.37-1.19-1.12-1.93v-1.24s-.56-.12-.56-.12c0,.09-.19.24-.57.45h-.79c-1.35-.88-2.02-2.61-2-5.21-.29-2.03-.7-3.05-1.23-3.05-.36-.38-.91-1.43-1.68-3.17-.99-.61-1.78-1.33-2.36-2.16-.24,2.65-.4,4.12-.47,4.4.22,1.22.33,2.43.32,3.61-.53,1-.8,2.23-.81,3.72.59,2.3.88,3.77.88,4.41v.45c-.27.45-.61.67-1.02.67-.38,0-.83-.16-1.35-.46-1.16,3-1.96,4.5-2.39,4.5h-.45c-.71-.33-1.2-.93-1.46-1.82-1.27-1.19-2.24-2.29-2.92-3.29-.55,1.05-1.12,1.57-1.7,1.57-.53,0-1.2-.65-2.02-1.93,0-.43-.37-1.34-1.11-2.71v-.45c.54-2.03.81-3.19.81-3.49-.14-1.32-.21-2.71-.2-4.18v-.56c0-.13.2-.62.58-1.46-.59-1.64-.89-2.62-.89-2.94l.47-3.05c-.67-1.21-1.01-2.04-1-2.49,0-.4.68-1.14,2.04-2.25v-2.03c-.73-2.51-1.1-3.86-1.1-4.07-.07-.75-.11-1.32-.1-1.69,0-.36.12-1.15.35-2.37-.22-1.22-.33-2.01-.33-2.37.08-1.02.23-1.84.46-2.48-.68-.42-1.05-.72-1.12-.91v-.11c0-.41.23-1.02.69-1.8,0-.11-.15-.38-.45-.79v-.23c0-.6.5-1.24,1.48-1.91ZM830.94,941.03v.11c0,.24-.16,1.11-.46,2.59,0,.17.37.59,1.12,1.25l.11.45c-.23.88-.35,1.45-.35,1.69,0,.75.74,1.43,2.25,2.04h.11c.73,0,1.19-.26,1.36-.78-.14-2.35-.2-4.16-.2-5.42l.12-1.02h-.11c-.49.15-.83.22-1.02.22-.24,0-1.18-.38-2.82-1.14h-.11ZM837.01,945.12v.79c0,.4.03,1.04.1,1.92.45-.24.68-.65.68-1.24v-.68c.01-2.03-.09-3.35-.31-3.95-.3,0-.46,1.05-.47,3.16ZM844.41,954.64v.79c-.01,1.62.69,3.2,2.12,4.75l.12-1.01c0-.58-.03-1.11-.1-1.58.08-1,.12-2.05.13-3.16v-.56s.12-1.13.12-1.13c-1.27.88-2.06,1.51-2.38,1.91Z" class="cls-2"/><path d="M865.14,929.25h.9c.26,0,1.09.43,2.48,1.26l23.92.13c.23,0,.34.42.33,1.24v2.6c-.02.36.39,1.26,1.21,2.72l.11,1.13v2.37c-.02.75-.32,1.13-.92,1.12h-.34c-.77,0-1.48-.35-2.14-1.03-.34.22-.57.34-.68.34-.08,1.13-.12,1.96-.13,2.48,0,1.11.03,2.09.1,2.94-.4,3.35-.6,6.65-.62,9.93v.45c0,.11-.12.22-.34.34-.45-.15-.68-.46-.67-.91v-1.24c-.11-6.47-.17-10.08-.16-10.84,0-1.28-.4-1.92-1.23-1.92l-.9-.46c-1.66,1.27-2.5,2.36-2.5,3.26-.53,1.45-1.03,2.38-1.48,2.81,0,.23-.04.34-.12.34l.11.23v2.14c-.02,1.15.53,3.9,1.64,8.25.14,1.77.21,3.2.2,4.29-.28.68-.85,1.01-1.7,1.01.17,4.06.46,6.1.87,6.1,1.12,1.02,1.68,2.19,1.68,3.51-.2,2.48-.85,3.72-1.94,3.71h-.23c-.79-.16-1.2-.23-1.24-.23-.08,1.02-.12,1.77-.13,2.26,0,.39.03,1.03.1,1.92-.31.86-.46,1.35-.46,1.47.07.77.11,1.22.11,1.35l-.57.45h-.68c-1.51-.01-2.25-1.3-2.24-3.85.01-2.11-.21-3.16-.66-3.16-.47-.15-.77-.23-.9-.23-.44.6-.89.9-1.36.9h-.11c-.4,0-1.26-.31-2.59-.92v2.37c-.02,1.73-.55,2.59-1.61,2.59-1.65-.18-2.48-.9-2.47-2.16v-.11c.16-.75.23-1.43.24-2.03,0-.23-.41-.94-1.23-2.15-.29-1.6-.44-3.11-.43-4.52,1.39-7.22,2.09-11.42,2.1-12.63v-.11c.02-4.1,0-8.39-.04-12.87.08-1.28.13-2.56.13-3.84,0-.43-.41-.77-1.24-1.02-.49.22-.83.33-1.02.33h-.11c-.17,0-.77-.23-1.8-.69-.66.9-1.49,1.35-2.49,1.34-.68,0-1.8-.54-3.38-1.6-.3-.49-.45-.87-.45-1.13.02-2.99.41-5.85,1.17-8.57l.34-.22h1.35s4.18-1.21,4.18-1.21Z" class="cls-2"/><path d="M912.25,930.79h.56c.41,0,1.16.12,2.25.35,5.94-.04,9.71-.06,11.29-.05.3.28,1.63,4.58,4,12.89.15.32,1.22,3.86,3.22,10.63,1.5.61,2.25,1.97,2.24,4.07,0,.43.03,1.04.1,1.81-.08.41-.12.83-.12,1.24.07.58,1.18,4.43,3.32,11.53v.45c0,1.43-.5,2.14-1.48,2.14l-.56.11c-.21,0-.92-.79-2.13-2.38-.66-.3-1.37-.46-2.14-.46-.09,0-.77.18-2.03.55h-.56s0,.9,0,.9c0,.79-.72,1.73-2.16,2.81h-.45c-.79,0-1.39-1.03-1.79-3.06v-.56c0-.32.08-1.15.24-2.48,0-.43-.29-1.3-.89-2.6v-1.69c.01-.66-.59-1.41-1.78-2.27-1.73.2-2.6.57-2.6,1.11-.53.67-1.32,1.16-2.38,1.45-.55,0-1.41-.72-2.58-2.16l-.23-.11c-1.66,0-2.49.74-2.49,2.24,0,.98-.46,1.47-1.36,1.46-.83,0-1.7,1.68-2.62,5.06,0,1.43-.43,2.14-1.25,2.14h-.56c-.98,0-1.65-.95-2.02-2.84-1.34.97-2.28,1.46-2.83,1.45h-.11c-.64-.04-1.58-.69-2.81-1.93h-.22c-.24,0-.63.94-1.14,2.81l-.57.34c-.6,0-.98-.57-1.12-1.7v-1.92c1.08-2.23,4.85-12.41,11.35-30.53.23-.26.34-.64.34-1.13v-1.58c.02-1.67.48-3.85,1.4-6.54.74-1.05,1.64-1.57,2.72-1.56ZM917.95,942.67c-2.45,7.74-3.68,11.98-3.68,12.73l2.93.02c.64,0,1.13-.07,1.47-.22.09-2.39.14-4.16.14-5.3v-.68c.01-2.2-.24-3.63-.76-4.29v-.22c.23-1.07.35-1.71.35-1.92l-.23-.11h-.22ZM920.52,947.54l-.12,1.13c0,.7-.05,2.2-.14,4.51-.23.38-.34.75-.35,1.13v1.02c.65.08,1.07.12,1.24.12.9-.03,1.35-.14,1.36-.33-1.1-5.05-1.77-7.57-1.99-7.57Z" class="cls-2"/><path d="M958.81,931.49h1.58c4.53.03,9.08,1.11,13.64,3.24v.11s-.91,2.14-.91,2.14c.22.49.34.83.33,1.02v.23c0,.38-.57,1.35-1.71,2.93l-.02,3.61c-.01,2.48-.32,3.72-.92,3.72h-.11c-1.24,0-2.1-1.52-2.57-4.53-.13-.9-.58-1.36-1.35-1.36-1.15,0-2.5-.47-4.06-1.38h-.68c-.49.67-.83,1.05-1.02,1.12h-.34c-.19,0-.87-.19-2.03-.58-2.11.65-3.17,1.28-3.17,1.9v.34c0,1.39,3.06,3.4,9.22,6.03,4.75,2.41,7.52,4.99,8.31,7.72.7,2.49,1.26,3.81,1.67,3.96.22.28.34.55.33.79v.34c0,.38-.46,1.24-1.37,2.59,0,.68-.4,4.74-1.19,12.18.07.51.11.92.11,1.24l-.57.45h-.22c-.68-.21-1.12-1.91-1.33-5.09h-.11c0,.22-.08.34-.23.34h-.34c-.22-.08-.34-.3-.33-.68v-.34s-.22,0-.22,0c0,1.67-.35,2.73-1.03,3.15-.38,0-.8,1.09-1.26,3.27-.29.66-.51.99-.68,1.01h-.34c-.75-.59-1.12-1.16-1.12-1.7l.35-1.8c0-.66-.33-1.34-1.01-2.04-1.52.24-2.81.72-3.84,1.45-.64.15-1.96.52-3.95,1.11-2.35-.01-3.82-.25-4.4-.7-.52-.83-.82-1.25-.9-1.25-2.56.57-3.84,1.28-3.85,2.12.07.94.11,1.47.1,1.58-.23.53-.61.79-1.13.78-.62,0-1.22-.76-1.79-2.27.01-2.3-.58-4.03-1.78-5.2-.22-.28-.33-.62-.33-1.02v-1.81c.01-.28-.18-.62-.55-1.02.44-.77.74-1.37.91-1.8-.44-1.23-.67-1.94-.66-2.15v-.45c0-.54.42-.92,1.25-1.12,0-.45.15-.68.46-.68,4.39,1.98,7.24,2.97,8.56,2.98,0,.09.22.17.68.23v-.11c0-.64.05-2.93.15-6.88,0-.79-.37-1.47-1.12-2.04h-.45c-1.47,0-2.7-.84-3.71-2.5-.28-.32-.88-.63-1.8-.91-.02-.17-.54-.51-1.57-1.02-1.34-1.89-2.01-3.4-2.01-4.53l.12-1.02-.22-.45c.64-3.63,1.63-6.59,2.98-8.9,1.31-2.36,3.95-4.23,7.93-5.6,2.2-.51,4.09-.77,5.65-.76ZM955.28,958.56c-.08.62-.28,3.25-.61,7.9l2.37.24c2.75.01,4.33-.84,4.75-2.57,0-.17.04-.32.12-.45,0-1.2-.59-2.11-1.79-2.72l-.23.11h-.11c-.37-.72-.9-1.13-1.57-1.25-1.4-.84-2.38-1.25-2.93-1.26Z" class="cls-2"/><path d="M657.56,982.95h.9c.26,0,1.09.43,2.48,1.26l23.93.13c.22,0,.34.42.33,1.24v2.6c-.01.36.39,1.26,1.21,2.72l.11,1.13v2.37c-.02.75-.32,1.13-.92,1.12h-.34c-.77,0-1.49-.35-2.14-1.03-.34.22-.57.34-.68.34-.08,1.13-.12,1.96-.13,2.48,0,1.11.03,2.09.1,2.94-.39,3.35-.6,6.65-.62,9.93v.45c0,.11-.12.22-.34.34-.45-.15-.67-.46-.67-.91v-1.24c-.11-6.47-.17-10.08-.16-10.83,0-1.28-.4-1.92-1.23-1.92l-.9-.46c-1.66,1.27-2.49,2.36-2.5,3.26-.53,1.45-1.03,2.38-1.48,2.81,0,.23-.04.34-.11.34l.11.23v2.14c-.02,1.15.53,3.9,1.64,8.25.14,1.77.21,3.2.2,4.29-.28.67-.85,1.01-1.7,1.01.17,4.06.46,6.1.87,6.1,1.12,1.02,1.68,2.19,1.67,3.51-.2,2.48-.85,3.72-1.94,3.71h-.22c-.79-.16-1.2-.23-1.24-.23-.08,1.01-.12,1.77-.13,2.26,0,.39.03,1.03.1,1.92-.31.86-.46,1.35-.46,1.46.07.77.11,1.22.11,1.35l-.57.45h-.68c-1.51-.01-2.25-1.3-2.24-3.85,0-2.11-.21-3.16-.66-3.16-.47-.15-.77-.23-.9-.23-.44.6-.89.9-1.36.9h-.11c-.4,0-1.26-.31-2.59-.92v2.37c-.02,1.73-.55,2.59-1.61,2.59-1.65-.18-2.48-.9-2.47-2.16v-.11c.16-.75.23-1.43.24-2.03,0-.23-.41-.94-1.23-2.15-.29-1.6-.44-3.11-.43-4.52,1.39-7.22,2.09-11.42,2.1-12.63v-.11c.02-4.1,0-8.39-.05-12.87.08-1.28.13-2.56.13-3.84,0-.43-.41-.77-1.24-1.02-.49.22-.83.33-1.02.33h-.11c-.17,0-.77-.23-1.8-.69-.66.9-1.49,1.35-2.49,1.34-.68,0-1.8-.54-3.38-1.6-.3-.49-.45-.87-.45-1.13.02-2.99.41-5.85,1.17-8.57l.34-.22h1.35s4.18-1.21,4.18-1.21Z" class="cls-2"/><path d="M692.38,983.19h.34c.26,0,.83.38,1.69,1.14.11.08.53.15,1.24.23,1.49-.07,2.46-.1,2.93-.1,1.03.08,1.67.12,1.92.12.24,0,1.11-.41,2.6-1.23h.11c3.01.19,4.51.53,4.51,1.04.28.15.58.23.9.23l5.98.03c.68,0,1.01.27,1.01.8l-.04,7.9c-1.06,1.2-1.63,1.8-1.7,1.8h-.11c-.24,0-.73-.31-1.46-.91-.42,1.35-1.1,2.03-2.04,2.02-.19,0-.75-.38-1.69-1.14-.47,0-1.3-.42-2.48-1.26-.41-.08-.75-.12-1.01-.12h-.11c-1.02.9-1.89,1.38-2.6,1.45.07.41.14,1.47.21,3.16h.11c1.22,0,3.03.54,5.41,1.61l5.3.03c.53,0,.94.08,1.24.23.06,3.12.08,5.46.08,7v2.59c-.02.6-.62,1.28-1.83,2.02,0,.23-.04.34-.12.34l.11.57v2.82c0,.75.07,1.13.2,1.13,1.81,0,2.71.13,2.71.35l.11.68-.04,8.13c-.46,1.75-.69,3.03-.7,3.83v.9s.1.79.1.79c-.3.15-.72.22-1.24.22-.5-.72-.84-1.89-1-3.51-.28-1.05-.54-1.58-.78-1.58-.87,0-2.11.93-3.74,2.8-.24.15-.47.22-.68.22-1.35,0-2.59-.8-3.71-2.39h-.11c-.41,0-1.21.6-2.38,1.79-.38.22-.75.33-1.13.33h-.11c-.47,0-1.48-.5-3.04-1.48h-.11c-.51,1.35-1.05,2.02-1.59,2.02-.13.07-.28.11-.45.11-.51-.1-1.18-.93-2.02-2.49h-.11c-.38.22-.68.33-.9.33h-.34c-1.32,0-2.25-.84-2.81-2.5-.07-.51-.11-.92-.11-1.24v-.22c0-.73.46-2.01,1.38-3.83l.05-9.14c0-1.86-.01-4.46-.07-7.79-.82-.92-1.23-1.68-1.23-2.26v-.79c.55-3.98.83-6.35.83-7.11,0-.21-.1-2.09-.31-5.65,0-.15.08-.41.23-.79-.07-.51-.11-.92-.11-1.24,0-.81.91-1.48,2.72-2.02ZM702.06,1008.98l-.03,4.85c0,1.88,1.19,2.83,3.6,2.84l5.64.03c.16-1.45.24-2.54.24-3.27.01-2.26-.36-3.39-1.11-3.39,0-.17-.37-.44-1.12-.8-1.38,1.05-2.43,1.57-3.17,1.56-.96,0-1.9-.61-2.81-1.82h-1.24Z" class="cls-2"/><path d="M757.89,983.43c2.86.77,4.28,1.6,4.28,2.51-.16,1.33-.24,2.16-.24,2.48v.79c0,.62.06,1.75.2,3.39,0,.36-.16,1.15-.46,2.37.97,1.11,1.46,1.95,1.45,2.49v.34c-.92,2.1-1.38,3.68-1.38,4.73v1.02c.29,1.68.43,2.65.43,2.94v1.47c-.02,3.07-.3,5.1-.83,6.09l-.12.56c0,1.24.33,2.41,1,3.5.15.34.22.83.22,1.47l-.02,4.18c.15.53.22.83.22.9v.34c0,.53-.31,1.43-.92,2.7-.29,5.94-.84,9.21-1.63,9.81h-.11c-1.17,0-1.87-2-2.11-5.99,0-.45-.71-1.06-2.13-1.82-.38.94-.95,1.61-1.7,2.02h-.34c-.89,0-1.94-.73-3.15-2.16-.41-.08-.71-.12-.9-.12-.39,0-.7.18-.91.56v1.13c-.4.52-.74.79-1.03.78-1.5-.89-2.25-1.72-2.24-2.49-.83-.61-1.53-1.96-2.12-4.07-1.42-2.27-2.13-3.55-2.12-3.85,0-.62-.82-1.72-2.47-3.29,0-.13-.45-.81-1.34-2.04-.3.39-.45.81-.46,1.24l-.03,5.08c0,.55-.12.85-.34.9h-.45c-.49,0-.82-1.1-1-3.28.16-1.41.24-2.31.24-2.71v-.23s-.63-8.92-.63-8.92c-.52-1.32-.78-2.52-.77-3.61-2.09-3.85-3.28-6.15-3.58-6.9h-.22s0,.11,0,.11c.12,5.19.48,7.79,1.09,7.79.15.3.22.57.22.79-.01,2.18-.18,6.17-.52,11.96.3,4.06.55,6.1.76,6.1.21.13.58,1.11,1.11,2.94-.53,1.26-1.21,2.08-2.04,2.47l-.45.11v1.35c0,.4-.31.85-.92,1.35-.83,0-1.31-.57-1.46-1.7v-.34s-.11,0-.11,0c-.98,0-1.47,1.05-1.48,3.15-.33,1.88-.94,2.82-1.82,2.81-1.5-.8-2.24-2.57-2.23-5.32v-.56s-.11-.79-.11-.79c-.96.67-1.64,1.01-2.04,1.01h-.23c-.9-.33-1.35-1.31-1.34-2.94v-2.6c.02-1.02.48-2.86,1.4-5.52v-.56c-.67-1.4-1-2.49-1-3.28.31-2.5.47-3.93.47-4.29-.44-1.94-.66-3.29-.66-4.07v-.34c0-.51.12-1.18.35-2.03-.44-1.98-.66-3.11-.66-3.39v-1.13c.54-1.37.81-2.2.81-2.48,0-.34-.03-1.47-.09-3.39,0-.24.31-1.03.91-2.37l.04-7.67c.02-.15.1-.23.23-.22l14.22.08c.85,0,1.56.87,2.13,2.61.09.02,3.3,6.06,9.61,18.11l1.57,1.7h.79c.53,0,.79-.14.79-.44,0-.96.39-2.12,1.15-3.49v-.23c.02-3.16-.2-4.74-.65-4.74v-.11l.12-1.58c-.6-.85-.89-1.45-.89-1.81l.35-2.48c-.07-.9-.14-1.39-.22-1.47,0-.23.42-.83,1.25-1.8l.02-3.84c.02-.15.1-.22.23-.22l4.51.02c.56,0,1.39-.52,2.49-1.57Z" class="cls-2"/><path d="M769.01,983.6h.34c.26,0,.83.38,1.69,1.14.11.08.53.15,1.24.23,1.49-.07,2.46-.1,2.93-.1,1.03.08,1.67.12,1.92.12.24,0,1.11-.41,2.6-1.23h.11c3.01.19,4.51.53,4.51,1.04.28.15.58.23.9.23l5.98.03c.68,0,1.02.27,1.01.8l-.04,7.9c-1.06,1.2-1.63,1.8-1.7,1.8h-.11c-.24,0-.73-.31-1.46-.91-.42,1.35-1.1,2.03-2.04,2.02-.19,0-.75-.38-1.69-1.14-.47,0-1.3-.42-2.48-1.26-.41-.08-.75-.12-1.02-.12h-.11c-1.02.9-1.89,1.38-2.6,1.45.07.41.14,1.47.21,3.16h.11c1.22,0,3.03.54,5.41,1.61l5.3.03c.53,0,.94.08,1.24.23.06,3.12.08,5.46.07,7v2.59c-.02.6-.62,1.28-1.83,2.02,0,.23-.04.34-.11.34l.11.57v2.82c0,.75.07,1.13.21,1.13,1.81,0,2.71.13,2.71.35l.11.68-.04,8.13c-.46,1.75-.69,3.03-.7,3.83v.9s.1.79.1.79c-.3.15-.72.22-1.24.22-.5-.72-.84-1.89-1-3.51-.28-1.05-.54-1.58-.78-1.58-.87,0-2.11.93-3.74,2.8-.25.15-.47.22-.68.22-1.35,0-2.59-.8-3.71-2.39h-.11c-.41,0-1.21.6-2.38,1.79-.38.22-.75.33-1.13.33h-.11c-.47,0-1.48-.5-3.04-1.48h-.11c-.52,1.35-1.05,2.02-1.59,2.02-.13.07-.28.11-.45.11-.51-.1-1.18-.93-2.02-2.49h-.11c-.38.22-.68.33-.9.33h-.34c-1.32,0-2.25-.84-2.81-2.5-.07-.51-.11-.92-.11-1.24v-.22c0-.73.46-2.01,1.38-3.83l.05-9.14c0-1.86-.01-4.46-.07-7.79-.82-.92-1.23-1.68-1.23-2.26v-.79c.55-3.98.83-6.35.83-7.11,0-.21-.1-2.09-.31-5.65,0-.15.08-.41.23-.79-.07-.51-.11-.92-.11-1.24,0-.81.91-1.48,2.72-2.02ZM778.69,1009.38l-.03,4.85c0,1.88,1.19,2.83,3.6,2.84l5.64.03c.16-1.45.24-2.54.24-3.27.01-2.26-.36-3.39-1.11-3.39,0-.17-.37-.44-1.12-.8-1.38,1.05-2.43,1.57-3.17,1.56-.96,0-1.9-.61-2.81-1.82h-1.24Z" class="cls-2"/><path d="M813.64,985.08c6.98.04,11.48,2.13,13.51,6.28.32.6.53,2.07.65,4.41-.02,3.27-.44,5.53-1.28,6.76-.53,1.43-1.14,2.14-1.82,2.14h-.23s-2.03-.69-2.03-.69c-.75.3-1.21.44-1.36.44v.23c2.4.61,4.17,1.68,5.29,3.19,1.2,1.57,1.79,3.45,1.78,5.65v1.13c-.01,1.45-.51,3.33-1.5,5.64,0,1.62-.5,2.67-1.48,3.15-1.36.95-2.04,1.59-2.04,1.91-1.3,2.95-1.94,4.52-1.94,4.73-.21,1.05-.7,1.58-1.48,1.57h-.45c-.98,0-1.73-.84-2.24-2.5.08-.88.12-1.52.12-1.92-.15-.25-.22-.43-.22-.57h-.34c0,.77-.57,1.29-1.7,1.57h-.56c-1.22,0-2.31-.32-3.27-.92h-.11c-.11,0-1.02.56-2.72,1.68l-.57.11c-2.64-1.44-4.3-2.17-4.95-2.17-1.3,0-2.17.52-2.61,1.57-.36.9-1,1.35-1.93,1.34h-.79c-.87,0-1.5-.84-1.91-2.5l.57-23.13c-.15-.81-.22-1.34-.22-1.58v-.34s.47-3.04.47-3.04c-.59-2.94-.88-4.9-.87-5.87-.13,0-.21-.26-.22-.79v-.45c0-.28.42-1.3,1.26-3.04.08-1.13.12-1.96.13-2.48v-1.02s.23-.34.23-.34c5.57-.12,11.17-.17,16.82-.14ZM807.3,1010.66c-.09,2.3-.13,3.99-.14,5.08v1.92s4.05.02,4.05.02v-.11c0-.73.04-1.11.12-1.13-.07-.83-.1-1.54-.1-2.15v-2.82s-.55.11-.55.11h-.45c-.15,0-.83-.34-2.03-1.03h-.11l-.79.11ZM807.71,995.88l-.02,3.27c0,.38-.04.94-.12,1.69.41,0,.83.04,1.24.12,3.59.02,5.7-.5,6.33-1.55.53-.62.8-1.48.8-2.59,0-.75-.26-1.35-.78-1.81-.72.9-1.44,1.35-2.15,1.34h-.34c-.62,0-1.41-.84-2.36-2.5l-.22-.11h-.23c-.15,0-.45.52-.91,1.57-.42.37-.83.56-1.24.56ZM813.62,1010.81c-.53,1.29-.81,3.48-.82,6.54.07,0,.11.04.11.11,1.26,0,2.28-.78,3.06-2.35v-.11c-1.04-1.3-1.56-2.4-1.56-3.28-.3-.55-.56-.85-.79-.91Z" class="cls-2"/><path d="M832.65,985.12h1.58c13.34.08,20.37.49,21.1,1.25,3.04.82,5.29,2.19,6.75,4.1,1.72,1.97,2.57,4.72,2.55,8.25,0,1.81-.66,4.1-1.96,6.87-.24,2.48-.36,4.74-.37,6.77l-.02,4.85c0,.7,1.6,3.34,4.81,7.92,1.57,2.28,2.35,3.57,2.35,3.85v.34c0,.75-.35,1.13-1.02,1.12,0,.49-.95,1.01-2.83,1.56-.41,0-.84,1.61-1.27,4.85l-.45.34h-.9c-.6-.67-.89-1.35-.89-2.04,0-.28.04-1.33.13-3.16,0-1.15-.4-1.94-1.23-2.38-.43-.23-.81-.38-1.13-.46-1.07,2.57-1.71,4-1.94,4.28h-.79c-.9-.23-1.35-1.37-1.34-3.4,0-.55-.37-1.19-1.12-1.92v-1.24s-.56-.11-.56-.11c0,.09-.19.24-.57.45h-.79c-1.35-.88-2.02-2.61-2-5.21-.29-2.03-.7-3.05-1.23-3.05-.36-.38-.91-1.43-1.68-3.17-.99-.61-1.78-1.33-2.36-2.16-.24,2.65-.4,4.12-.47,4.4.22,1.22.33,2.43.32,3.61-.53.99-.8,2.23-.81,3.72.59,2.3.88,3.76.88,4.4v.45c-.27.45-.61.67-1.02.67-.38,0-.83-.16-1.35-.46-1.16,3-1.96,4.5-2.39,4.5h-.45c-.71-.33-1.2-.93-1.46-1.82-1.27-1.19-2.24-2.29-2.92-3.29-.55,1.05-1.12,1.57-1.7,1.57-.53,0-1.2-.65-2.02-1.93,0-.43-.37-1.34-1.11-2.71v-.45c.54-2.03.81-3.19.81-3.5-.14-1.32-.21-2.71-.2-4.18v-.56c0-.13.2-.62.58-1.46-.59-1.64-.89-2.62-.89-2.94l.47-3.05c-.67-1.21-1.01-2.04-1-2.49,0-.4.68-1.14,2.04-2.25v-2.03c-.73-2.51-1.1-3.86-1.1-4.07-.07-.75-.11-1.32-.1-1.69,0-.36.12-1.15.35-2.37-.22-1.22-.33-2.01-.33-2.37.08-1.02.23-1.84.46-2.48-.68-.42-1.05-.72-1.12-.91v-.11c0-.41.23-1.01.69-1.8,0-.11-.15-.38-.45-.79v-.23c0-.6.5-1.24,1.48-1.91ZM845.01,995.91v.11c0,.24-.16,1.11-.46,2.59,0,.17.37.59,1.12,1.25l.11.45c-.23.88-.35,1.45-.35,1.69,0,.75.74,1.43,2.25,2.04h.11c.73,0,1.19-.26,1.36-.78-.14-2.35-.2-4.16-.2-5.42l.12-1.02h-.11c-.49.15-.83.22-1.02.22-.24,0-1.18-.38-2.82-1.14h-.11ZM851.09,1000v.79c0,.4.03,1.04.1,1.92.45-.24.68-.65.68-1.24v-.68c.01-2.03-.09-3.35-.31-3.95-.3,0-.46,1.05-.47,3.16ZM858.48,1009.52v.79c-.01,1.62.69,3.2,2.12,4.75l.12-1.02c0-.58-.03-1.11-.1-1.58.08-1,.12-2.05.13-3.16v-.56s.12-1.13.12-1.13c-1.27.88-2.06,1.51-2.38,1.9Z" class="cls-2"/><path d="M893.2,985.95h2.03c3.24.03,6.73.88,10.48,2.55,1.15,0,2.42.8,3.83,2.39.13.98,1.02,2.3,2.69,3.96.09,0,.24.6.44,1.81.6,1.08,1.3,3.56,2.11,7.46.75.27,1.12,1.32,1.11,3.17.52,1.73.77,2.86.77,3.39v.68c0,.79-.69,1.76-2.05,2.92-.44.66-.83,3.06-1.17,7.22,0,1.39-.35,2.82-1.04,4.28,0,1.58-.43,2.37-1.26,2.36-.41-.17-.94-.78-1.57-1.81v-.34s.12-1.13.12-1.13h-.34s-1.14,2.02-1.14,2.02c0,.13-1.29,1.14-3.85,3.03-.93,1.2-1.68,1.8-2.27,1.79h-.11c-.43,0-1.14-.38-2.14-1.14-.11-.08-.34-.11-.68-.12-.55,0-.96.48-1.25,1.46-.68.35-1.02.84-1.02,1.46-.13,2.48-.51,3.72-1.15,3.72h-.9c-1.2-.01-1.8-1.41-1.78-4.19-.07-.72-.1-1.43-.1-2.15h-1.02c-.93,1.27-1.76,1.9-2.49,1.9-1.22,0-2.72-1.03-4.5-3.07l-.56-1.47-.91,1.69c-.53.45-1.06.67-1.58.67h-.23c-1.18,0-2.23-1.1-3.14-3.29.01-2.58-.77-4.24-2.34-4.98-1.86-3.94-2.79-6.09-2.79-6.45.08-.51.12-.92.12-1.24v-.45c0-.26-.41-1.24-1.22-2.94-.15-.3-.22-.72-.22-1.24v-.68c0-.96.51-2.46,1.49-4.51.02-4.12,1.55-8.32,4.58-12.62,3.73-4.12,8.74-6.16,15.04-6.13ZM888.51,998.23c-.78.82-1.62,3.19-2.52,7.1l-.12,1.58c-.03,6.55,1.45,10.58,4.45,12.1v-.11c-.14-2.2-.21-3.59-.2-4.18,0-1.37.05-2.27.13-2.71-.07-1.77-.09-3.46-.09-5.08l.02-3.84c.02-3.16-.31-4.74-.99-4.75-.06,0-.28-.04-.68-.12ZM892.31,1003.78c0,.43.03,1.34.1,2.71-.08,1.13-.35,3.05-.82,5.75.03,5.04.17,7.56.41,7.56.68.15,1.58.23,2.71.24h.45c3.5.02,5.73-1.77,6.69-5.38v-.11c.04-6.71-.47-11.12-1.51-13.21-.09-.68-.28-1.02-.56-1.02-.45.3-.87.45-1.24.44-1.73-.76-2.59-1.59-2.58-2.5-.54-.83-.88-1.25-1.01-1.25h-.79c-.6,0-.91.56-.91,1.68-.61,2.01-.92,3.7-.93,5.07Z" class="cls-2"/><path d="M936.25,986.18h1.58c4.53.03,9.08,1.11,13.64,3.24v.11s-.91,2.14-.91,2.14c.22.49.33.83.33,1.02v.23c0,.38-.57,1.35-1.71,2.93l-.02,3.61c-.01,2.48-.32,3.72-.92,3.72h-.11c-1.24,0-2.1-1.52-2.57-4.53-.13-.9-.58-1.36-1.35-1.36-1.15,0-2.5-.46-4.06-1.38h-.68c-.49.67-.83,1.05-1.02,1.12h-.34c-.19,0-.87-.2-2.03-.58-2.11.65-3.17,1.28-3.17,1.9v.34c0,1.39,3.07,3.4,9.22,6.03,4.75,2.41,7.52,4.99,8.31,7.72.7,2.49,1.26,3.81,1.67,3.96.22.28.34.55.33.79v.34c0,.38-.46,1.24-1.37,2.59,0,.68-.4,4.74-1.19,12.18.07.51.11.92.11,1.24l-.57.45h-.22c-.68-.21-1.12-1.91-1.33-5.09h-.11c0,.22-.08.34-.23.34h-.34c-.22-.08-.34-.3-.33-.68v-.34s-.22,0-.22,0c0,1.67-.35,2.72-1.03,3.15-.38,0-.8,1.09-1.26,3.27-.29.66-.51.99-.68,1.01h-.34c-.75-.59-1.12-1.16-1.12-1.7l.35-1.8c0-.66-.33-1.34-1.01-2.04-1.52.24-2.81.72-3.84,1.45-.64.15-1.96.52-3.96,1.11-2.35-.01-3.82-.25-4.4-.7-.52-.83-.82-1.25-.9-1.25-2.56.57-3.84,1.28-3.85,2.12.07.94.11,1.47.1,1.58-.23.53-.61.79-1.13.78-.62,0-1.22-.76-1.79-2.27.01-2.3-.58-4.03-1.78-5.2-.22-.28-.33-.62-.33-1.02v-1.81c.01-.28-.18-.62-.55-1.02.44-.77.74-1.37.91-1.8-.44-1.23-.67-1.94-.66-2.15v-.45c0-.54.42-.92,1.25-1.12,0-.45.15-.68.46-.68,4.39,1.98,7.24,2.97,8.56,2.98,0,.09.22.17.68.23v-.11c0-.64.05-2.93.15-6.88,0-.79-.37-1.47-1.12-2.04h-.45c-1.47,0-2.7-.84-3.71-2.5-.28-.32-.88-.63-1.8-.91-.02-.17-.54-.51-1.57-1.02-1.34-1.89-2.01-3.4-2.01-4.53l.12-1.02-.22-.45c.64-3.63,1.63-6.59,2.98-8.9,1.31-2.36,3.95-4.23,7.93-5.6,2.2-.52,4.09-.77,5.65-.76ZM932.73,1013.24c-.08.62-.28,3.25-.61,7.9l2.37.24c2.75.01,4.33-.84,4.75-2.57,0-.17.04-.32.12-.45,0-1.2-.59-2.11-1.79-2.72l-.23.11h-.11c-.37-.72-.9-1.13-1.57-1.25-1.41-.84-2.38-1.25-2.93-1.26Z" class="cls-2"/><path d="M970.73,985.91h.56c.41,0,1.16.12,2.25.35,5.94-.04,9.71-.06,11.29-.05.3.28,1.63,4.58,3.99,12.89.15.32,1.22,3.86,3.22,10.63,1.5.61,2.25,1.97,2.24,4.07,0,.43.03,1.04.1,1.81-.08.41-.12.83-.12,1.24.07.58,1.18,4.43,3.32,11.53v.45c0,1.43-.5,2.14-1.48,2.14l-.56.11c-.21,0-.92-.79-2.13-2.38-.66-.3-1.37-.46-2.14-.46-.09,0-.77.18-2.03.55h-.56s0,.9,0,.9c0,.79-.72,1.73-2.16,2.81h-.45c-.79,0-1.39-1.03-1.79-3.06v-.56c0-.32.08-1.15.24-2.48,0-.43-.29-1.3-.89-2.6v-1.69c.01-.66-.59-1.41-1.78-2.27-1.73.2-2.6.57-2.6,1.11-.53.67-1.32,1.16-2.38,1.45-.55,0-1.41-.72-2.58-2.16l-.23-.12c-1.66,0-2.49.74-2.49,2.24,0,.98-.46,1.47-1.36,1.46-.83,0-1.7,1.68-2.62,5.06,0,1.43-.43,2.14-1.25,2.14h-.56c-.98,0-1.65-.95-2.02-2.84-1.34.97-2.28,1.46-2.83,1.45h-.11c-.64-.04-1.58-.69-2.81-1.93h-.22c-.24,0-.63.94-1.14,2.81l-.57.34c-.6,0-.98-.57-1.12-1.7v-1.92c1.08-2.23,4.85-12.41,11.34-30.52.23-.26.34-.64.34-1.13v-1.58c.02-1.67.48-3.85,1.4-6.54.74-1.05,1.64-1.57,2.72-1.57ZM976.43,997.79c-2.45,7.74-3.68,11.98-3.68,12.73l2.93.02c.64,0,1.13-.07,1.47-.22.09-2.39.14-4.16.14-5.3v-.68c.01-2.2-.24-3.63-.76-4.29v-.22c.23-1.07.35-1.71.35-1.92l-.22-.11h-.22ZM979,1002.66l-.12,1.13c0,.7-.05,2.2-.14,4.51-.23.38-.34.75-.35,1.13v1.02c.65.08,1.07.12,1.24.12.9-.03,1.35-.14,1.36-.33-1.1-5.05-1.77-7.57-1.99-7.57Z" class="cls-2"/><path d="M1017.29,986.61h1.58c4.53.03,9.08,1.11,13.64,3.24v.11s-.91,2.14-.91,2.14c.22.49.33.83.33,1.02v.23c0,.38-.57,1.35-1.71,2.93l-.02,3.61c-.01,2.48-.32,3.72-.92,3.72h-.11c-1.24,0-2.1-1.52-2.57-4.53-.13-.9-.58-1.36-1.35-1.36-1.15,0-2.5-.47-4.06-1.38h-.68c-.49.67-.83,1.05-1.02,1.12h-.34c-.19,0-.87-.19-2.03-.58-2.11.65-3.17,1.28-3.17,1.9v.34c0,1.39,3.07,3.4,9.22,6.03,4.75,2.41,7.52,4.99,8.31,7.72.7,2.49,1.26,3.81,1.67,3.96.22.28.34.55.33.79v.34c0,.38-.46,1.24-1.37,2.59,0,.68-.4,4.74-1.19,12.18.07.51.11.92.11,1.24l-.57.45h-.22c-.68-.21-1.12-1.91-1.33-5.09h-.11c0,.23-.08.34-.23.34h-.34c-.22-.08-.34-.3-.33-.68v-.34s-.22,0-.22,0c0,1.67-.35,2.72-1.03,3.15-.38,0-.8,1.09-1.26,3.27-.29.66-.51.99-.68,1.01h-.34c-.75-.59-1.12-1.16-1.12-1.7l.35-1.8c0-.66-.33-1.34-1.01-2.04-1.52.23-2.81.72-3.84,1.45-.64.15-1.96.52-3.96,1.11-2.35-.01-3.82-.25-4.4-.7-.52-.83-.82-1.25-.9-1.25-2.56.57-3.84,1.28-3.85,2.12.07.94.11,1.47.1,1.58-.23.53-.61.79-1.13.78-.62,0-1.22-.76-1.79-2.27.01-2.3-.58-4.03-1.78-5.2-.22-.28-.33-.62-.33-1.02v-1.81c.01-.28-.18-.62-.55-1.02.44-.77.74-1.37.91-1.8-.44-1.22-.67-1.94-.66-2.15v-.45c0-.54.42-.92,1.25-1.12,0-.45.15-.68.46-.68,4.39,1.98,7.24,2.97,8.56,2.98,0,.09.22.17.68.23v-.11c0-.64.05-2.93.15-6.88,0-.79-.37-1.47-1.12-2.04h-.45c-1.47,0-2.7-.84-3.71-2.5-.28-.32-.88-.63-1.8-.91-.02-.17-.54-.51-1.57-1.02-1.34-1.89-2.01-3.4-2.01-4.53l.12-1.02-.22-.45c.64-3.63,1.63-6.59,2.98-8.9,1.31-2.36,3.95-4.23,7.93-5.6,2.2-.51,4.09-.77,5.65-.76ZM1013.76,1013.67c-.08.62-.28,3.25-.61,7.9l2.37.24c2.75.01,4.33-.84,4.75-2.57,0-.17.04-.32.12-.45,0-1.2-.59-2.11-1.79-2.72l-.23.11h-.11c-.37-.72-.9-1.13-1.57-1.25-1.41-.84-2.38-1.25-2.93-1.26Z" class="cls-2"/></g></g></g></g></svg>