<svg xmlns="http://www.w3.org/2000/svg" xmlns:xlink="http://www.w3.org/1999/xlink" id="Capa_2" viewBox="0 0 1081.61 1081.61"><defs><style>.cls-1{fill:#00ce00}.cls-1,.cls-2{opacity:.99}.cls-3{fill:#b276ff}.cls-4{fill:#e5d4ff}.cls-5{stroke:#40068c}.cls-2,.cls-5,.cls-6{fill:none}.cls-2,.cls-5{stroke-miterlimit:10}.cls-2{stroke:#1a1a1a;stroke-width:2px}.cls-7{fill:#40068c}.cls-8{opacity:.99}.cls-9{clip-path:url(#clippath)}</style><clipPath id="clippath"><rect width="1081.61" height="1081.61" x="0" class="cls-6"/></clipPath></defs><g id="Capa_1-2" data-name="Capa_1"><g class="cls-9"><g><path d="M-1.61-1.61v1083.22h1083.22V-1.61H-1.61ZM1018.47,1024.22H61.53V55.78h956.93v968.44Z" class="cls-7"/><path d="M-1.61,819.07c17.79-9.4,58.27-27.6,108.5-22.44,24.65,2.53,43.6,9.87,49.75,12.38,27.49,11.23,46.04,27,56.23,35.8,18.95,16.37,23.29,25.48,46.53,42.01,6.92,4.92,13.47,9.58,22.62,14.21,23.61,11.95,44.14,13.41,64.04,15.64,43.49,4.88,65.23,7.32,85.17,14.98,39.87,15.32,62.4,44.73,69.93,54.83,29.36,39.33,32.1,79.68,32.31,95.13H-.97c-.21-87.51-.42-175.03-.64-262.54Z" class="cls-4"/><g><g><path d="M171.83,859.01c.82-2.87-3.65-4.14-4.47-1.26-1.11,3.88-2.51,7.62-4.28,11.25-1.3,2.66,2.66,5.09,3.97,2.4,1.95-4,3.56-8.11,4.78-12.39Z" class="cls-7"/><path d="M186.05,869.02c-3.77,2.75-7.81,5.07-12.05,7.02-2.72,1.25-.49,5.33,2.22,4.08,4.62-2.13,8.92-4.73,13.02-7.72,2.41-1.76-.81-5.11-3.19-3.37Z" class="cls-7"/><path d="M192.26,887.83c-4.49-2.18-9.18-3.46-14.17-3.79-2.98-.2-3.05,4.44-.07,4.64,4.13.27,8.11,1.3,11.83,3.12,2.66,1.3,5.09-2.66,2.4-3.97Z" class="cls-7"/></g><g><path d="M51.41,895.21c-.09-4.54-2.41-10.66,6.21-10.66h30.68c4.91,0,5.65,2.22,5.65,5.65v4.63c.09,3.62-2.04,5.1-6.02,5-3.89-.09-10.66-.09-17.24-.09v9.82c5.19,0,12.05,0,14.09-.09,2.5-.09,4.63,1.11,4.63,4.17v4.63c0,3.61-1.02,4.17-4.17,4.26-2.6,0-9.64-.09-14.83,0-.09,3.8-.09,6.95,0,10.01,6.02,0,14.83-.09,17.79-.28,4.08-.28,5.84,1.48,5.84,5.1v5.93c0,3.52-.83,4.26-5.75,4.26h-30.86c-6.49,0-6.58-5.38-6.49-9.45.37-10.47.56-39.85.46-42.91Z" class="cls-1"/><path d="M105.9,894.65c-.09-4.54-2.04-10.1,6.3-10.1h10.1l20.85,28.82h.83c-.18-4.17-.93-22.8-.93-24.19-.09-2.22.19-4.63,6.49-4.63h6.77c6.49,0,6.58,5.28,6.49,9.36-.18,4.54-1.2,36.42-.74,43,.28,4.54,2.5,10.66-6.02,10.66h-6.86c-5.65,0-6.39-4.26-6.58-7.88,0-3.99-13.62-21.32-18.17-28.55h-.93c0,6.21,1.3,23.26,1.48,25.77.28,4.54,2.5,10.66-6.12,10.66h-7.14c-6.49,0-6.58-5.38-6.49-9.45.46-10.47.65-40.41.65-43.47Z" class="cls-1"/></g><g><path d="M48.44,990.63c0-18.26,8.25-32.44,26.97-32.44s25.95,14.18,25.95,32.44c.09,18.17-8.43,32.44-27.06,32.44s-25.86-14.09-25.86-32.44ZM83.57,990.54c.09-8.71-2.22-16.59-8.43-16.59-6.58,0-9.08,7.88-9.08,16.59s2.04,16.78,8.43,16.78,8.99-8.25,9.08-16.78Z" class="cls-1"/><path d="M111.74,1010.93c.28-12.7.56-38.18.56-41.15-.09-5-2.22-10.66,6.3-10.66h28.92c4.54,0,5.75,2.22,5.75,5.38v5.56c0,3.34-2.13,4.82-6.12,4.63h-15.48l-.28,12.6c4.26.09,11.4-.09,14.46-.09,4.26,0,4.63,1.76,4.63,5v4.26c0,3.52-1.02,4.45-4.45,4.17-2.6-.19-10.01-.19-15.01-.19,0,8.06.74,12.23.65,15.76-.18,4.91-3.52,5.93-7.14,5.93h-6.3c-5.19,0-6.3-2.97-6.49-6.77v-4.45Z" class="cls-1"/><path d="M164.2,969.78c-.09-4.54-2.41-10.66,6.21-10.66h30.68c4.91,0,5.65,2.22,5.65,5.65v4.63c.09,3.62-2.04,5.1-6.02,5-3.89-.09-10.66-.09-17.24-.09v9.82c5.19,0,12.05,0,14.09-.09,2.5-.09,4.63,1.11,4.63,4.17v4.63c0,3.61-1.02,4.17-4.17,4.26-2.6,0-9.64-.09-14.83,0-.09,3.8-.09,6.95,0,10.01,6.02,0,14.83-.09,17.79-.28,4.08-.28,5.84,1.48,5.84,5.1v5.93c0,3.52-.83,4.26-5.75,4.26h-30.86c-6.49,0-6.58-5.38-6.49-9.45.37-10.47.56-39.85.46-42.91Z" class="cls-1"/><path d="M218.69,969.68c0-4.45-2.22-10.57,6.3-10.57h19.18c16.5,0,25.3,9.08,24.93,21.97-.28,7.88-4.45,13.62-10.38,16.87l5.75,8.16c1.85,2.87,3.61,3.24,6.3,3.24,2.5,10.47-2.04,13.72-9.55,13.72-6.49,0-9.45-3.52-12.05-8.8l-6.95-12.98h-4.54c-.19,2.13-.37,9.82-.09,13.35.37,5.65-1.02,7.51-5.93,7.51h-7.04c-6.49,0-6.67-5.38-6.49-9.45.28-10.47.65-39.85.56-43ZM241.4,989.61c6.4,0,9.64-2.78,9.64-8.62,0-4.08-2.13-8.53-9.27-8.53h-4.63c-.19,4.45-.09,13.53-.09,17.15h4.36Z" class="cls-1"/><path d="M291.82,974.32c-2.97,0-9.08,0-11.03.19-3.99.37-5.28-1.48-5.19-5.1l.09-6.02c0-3.43.74-4.26,5.75-4.26,0,0,33.46.28,41.52-.28,4.08-.19,5.1,2.04,5,5.65l-.09,5.65c-.09,3.43-.74,4.26-5.75,4.26h-10.94c-.46,12.79-.56,34.48-.56,37.07.09,4.54,2.5,10.66-6.02,10.66h-7.14c-6.49,0-6.67-5.28-6.58-9.36.28-3.89,1.02-27.9.93-38.46Z" class="cls-1"/><path d="M329.72,1013.34c2.87-10.84,11.68-43.1,12.42-46.62,1.02-4.45,1.21-7.6,8.8-7.6h14.83c5.84,0,7.23,2.97,8.16,7.04.83,3.61,9.64,39.85,11.12,46.71.93,4.54,2.22,9.27-3.89,9.27h-6.4c-6.58,0-7.04-5-7.69-7.23-.37-1.02-.83-3.06-1.58-5.38h-15.29c-.74,2.59-1.3,4.63-1.39,5.28-.19,4.54-.93,7.32-6.58,7.32h-8.99c-4.54,0-4.54-4.91-3.52-8.8ZM363.37,996.93l-5.38-25.67h-.56c-.74,4.54-3.15,15.85-5.28,25.67h11.21Z" class="cls-1"/></g><g class="cls-8"><g><path d="M55.16,898.33c-.09-4.54-2.41-10.66,6.21-10.66h30.68c4.91,0,5.65,2.22,5.65,5.65v4.63c.09,3.62-2.04,5.1-6.02,5-3.89-.09-10.66-.09-17.24-.09v9.82c5.19,0,12.05,0,14.09-.09,2.5-.09,4.63,1.11,4.63,4.17v4.63c0,3.61-1.02,4.17-4.17,4.26-2.6,0-9.64-.09-14.83,0-.09,3.8-.09,6.95,0,10.01,6.02,0,14.83-.09,17.79-.28,4.08-.28,5.84,1.48,5.84,5.1v5.93c0,3.52-.83,4.26-5.75,4.26h-30.86c-6.49,0-6.58-5.38-6.49-9.45.37-10.47.56-39.85.46-42.91Z" class="cls-2"/><path d="M109.65,897.78c-.09-4.54-2.04-10.1,6.3-10.1h10.1l20.85,28.82h.83c-.18-4.17-.93-22.8-.93-24.19-.09-2.22.19-4.63,6.49-4.63h6.77c6.49,0,6.58,5.28,6.49,9.36-.18,4.54-1.2,36.42-.74,43,.28,4.54,2.5,10.66-6.02,10.66h-6.86c-5.65,0-6.39-4.26-6.58-7.88,0-3.99-13.62-21.32-18.17-28.55h-.93c0,6.21,1.3,23.26,1.48,25.77.28,4.54,2.5,10.66-6.12,10.66h-7.14c-6.49,0-6.58-5.38-6.49-9.45.46-10.47.65-40.41.65-43.47Z" class="cls-2"/></g></g><g class="cls-8"><g><path d="M52.19,993.75c0-18.26,8.25-32.44,26.97-32.44s25.95,14.18,25.95,32.44c.09,18.17-8.43,32.44-27.06,32.44s-25.86-14.09-25.86-32.44ZM87.32,993.66c.09-8.71-2.22-16.59-8.43-16.59-6.58,0-9.08,7.88-9.08,16.59s2.04,16.78,8.43,16.78,8.99-8.25,9.08-16.78Z" class="cls-2"/><path d="M115.49,1014.05c.28-12.7.56-38.18.56-41.15-.09-5-2.22-10.66,6.3-10.66h28.92c4.54,0,5.75,2.22,5.75,5.38v5.56c0,3.34-2.13,4.82-6.12,4.63h-15.48l-.28,12.6c4.26.09,11.4-.09,14.46-.09,4.26,0,4.63,1.76,4.63,5v4.26c0,3.52-1.02,4.45-4.45,4.17-2.6-.19-10.01-.19-15.01-.19,0,8.06.74,12.23.65,15.76-.18,4.91-3.52,5.93-7.14,5.93h-6.3c-5.19,0-6.3-2.97-6.49-6.77v-4.45Z" class="cls-2"/><path d="M167.95,972.9c-.09-4.54-2.41-10.66,6.21-10.66h30.68c4.91,0,5.65,2.22,5.65,5.65v4.63c.09,3.62-2.04,5.1-6.02,5-3.89-.09-10.66-.09-17.24-.09v9.82c5.19,0,12.05,0,14.09-.09,2.5-.09,4.63,1.11,4.63,4.17v4.63c0,3.61-1.02,4.17-4.17,4.26-2.6,0-9.64-.09-14.83,0-.09,3.8-.09,6.95,0,10.01,6.02,0,14.83-.09,17.79-.28,4.08-.28,5.84,1.48,5.84,5.1v5.93c0,3.52-.83,4.26-5.75,4.26h-30.86c-6.49,0-6.58-5.38-6.49-9.45.37-10.47.56-39.85.46-42.91Z" class="cls-2"/><path d="M222.44,972.81c0-4.45-2.22-10.57,6.3-10.57h19.18c16.5,0,25.3,9.08,24.93,21.97-.28,7.88-4.45,13.62-10.38,16.87l5.75,8.16c1.85,2.87,3.61,3.24,6.3,3.24,2.5,10.47-2.04,13.72-9.55,13.72-6.49,0-9.45-3.52-12.05-8.8l-6.95-12.98h-4.54c-.19,2.13-.37,9.82-.09,13.35.37,5.65-1.02,7.51-5.93,7.51h-7.04c-6.49,0-6.67-5.38-6.49-9.45.28-10.47.65-39.85.56-43ZM245.15,992.73c6.4,0,9.64-2.78,9.64-8.62,0-4.08-2.13-8.53-9.27-8.53h-4.63c-.19,4.45-.09,13.53-.09,17.15h4.36Z" class="cls-2"/><path d="M295.57,977.44c-2.97,0-9.08,0-11.03.19-3.99.37-5.28-1.48-5.19-5.1l.09-6.02c0-3.43.74-4.26,5.75-4.26,0,0,33.46.28,41.52-.28,4.08-.19,5.1,2.04,5,5.65l-.09,5.65c-.09,3.43-.74,4.26-5.75,4.26h-10.94c-.46,12.79-.56,34.48-.56,37.07.09,4.54,2.5,10.66-6.02,10.66h-7.14c-6.49,0-6.67-5.28-6.58-9.36.28-3.89,1.02-27.9.93-38.46Z" class="cls-2"/><path d="M333.47,1016.46c2.87-10.84,11.68-43.1,12.42-46.62,1.02-4.45,1.21-7.6,8.8-7.6h14.83c5.84,0,7.23,2.97,8.16,7.04.83,3.61,9.64,39.85,11.12,46.71.93,4.54,2.22,9.27-3.89,9.27h-6.4c-6.58,0-7.04-5-7.69-7.23-.37-1.02-.83-3.06-1.58-5.38h-15.29c-.74,2.59-1.3,4.63-1.39,5.28-.19,4.54-.93,7.32-6.58,7.32h-8.99c-4.54,0-4.54-4.91-3.52-8.8ZM367.12,1000.06l-5.38-25.67h-.56c-.74,4.54-3.15,15.85-5.28,25.67h11.21Z" class="cls-2"/></g></g><g><path d="M193.73,936.37l-8.47-4.89c-.99-.57-2.23.14-2.23,1.28v9.79c0,1.14,1.24,1.86,2.23,1.28l8.47-4.89c.99-.57.99-2,0-2.57Z" class="cls-3"/><path d="M218.37,936.37l-8.47-4.89c-.99-.57-2.23.14-2.23,1.28v9.79c0,1.14,1.24,1.86,2.23,1.28l8.47-4.89c.99-.57.99-2,0-2.57Z" class="cls-3"/><path d="M241.57,936.37l-8.47-4.89c-.99-.57-2.23.14-2.23,1.28v9.79c0,1.14,1.24,1.86,2.23,1.28l8.47-4.89c.99-.57.99-2,0-2.57Z" class="cls-3"/><path d="M266.21,936.37l-8.47-4.89c-.99-.57-2.23.14-2.23,1.28v9.79c0,1.14,1.24,1.86,2.23,1.28l8.47-4.89c.99-.57.99-2,0-2.57Z" class="cls-3"/><path d="M289.72,936.37l-8.47-4.89c-.99-.57-2.23.14-2.23,1.28v9.79c0,1.14,1.24,1.86,2.23,1.28l8.47-4.89c.99-.57.99-2,0-2.57Z" class="cls-3"/><path d="M196.48,936.37l-8.47-4.89c-.99-.57-2.23.14-2.23,1.28v9.79c0,1.14,1.24,1.86,2.23,1.28l8.47-4.89c.99-.57.99-2,0-2.57Z" class="cls-5"/><path d="M221.12,936.37l-8.47-4.89c-.99-.57-2.23.14-2.23,1.28v9.79c0,1.14,1.24,1.86,2.23,1.28l8.47-4.89c.99-.57.99-2,0-2.57Z" class="cls-5"/><path d="M244.36,936.37l-8.47-4.89c-.99-.57-2.23.14-2.23,1.28v9.79c0,1.14,1.24,1.86,2.23,1.28l8.47-4.89c.99-.57.99-2,0-2.57Z" class="cls-5"/><path d="M269,936.37l-8.47-4.89c-.99-.57-2.23.14-2.23,1.28v9.79c0,1.14,1.24,1.86,2.23,1.28l8.47-4.89c.99-.57.99-2,0-2.57Z" class="cls-5"/><path d="M292.51,936.37l-8.47-4.89c-.99-.57-2.23.14-2.23,1.28v9.79c0,1.14,1.24,1.86,2.23,1.28l8.47-4.89c.99-.57.99-2,0-2.57Z" class="cls-5"/><path d="M303.68,944.31l10.15-5.86c.62-.36.62-1.25,0-1.6l-10.15-5.86c-.62-.36-1.39.09-1.39.8v11.71c0,.71.77,1.16,1.39.8" class="cls-3"/><path d="M327.19,944.31l10.15-5.86c.62-.36.62-1.25,0-1.6l-10.15-5.86c-.62-.36-1.39.09-1.39.8v11.71c0,.71.77,1.16,1.39.8" class="cls-3"/><path d="M306.47,944.31l10.15-5.86c.62-.36.62-1.25,0-1.6l-10.15-5.86c-.62-.36-1.39.09-1.39.8v11.71c0,.71.77,1.16,1.39.8" class="cls-5"/><path d="M329.98,944.31l10.15-5.86c.62-.36.62-1.25,0-1.6l-10.15-5.86c-.62-.36-1.39.09-1.39.8v11.71c0,.71.77,1.16,1.39.8" class="cls-5"/></g></g></g></g></g></svg>