<svg xmlns="http://www.w3.org/2000/svg" xmlns:xlink="http://www.w3.org/1999/xlink" id="Capa_1" data-name="Capa 1" viewBox="0 0 400 400"><defs><style>.cls-1{fill:#fff}.cls-2,.cls-3{fill:none}.cls-4{opacity:.2}.cls-3{stroke:#fff;stroke-miterlimit:10;stroke-width:1.54px}.cls-5{fill:#029cfe}.cls-6{fill:#00ce00}.cls-7{clip-path:url(#clippath)}</style><clipPath id="clippath"><rect width="1500" height="605" x="-1859.79" y="-227.76" class="cls-2"/></clipPath></defs><g class="cls-4"><g class="cls-7"><g><g><line x1="48.54" x2="48.54" y1="-491.54" y2="641.02" class="cls-3"/><line x1="48.44" x2="48.44" y1="-491.54" y2="641.02" class="cls-3"/><line x1="103.61" x2="103.61" y1="-491.54" y2="641.02" class="cls-3"/><line x1="103.51" x2="103.51" y1="-491.54" y2="641.02" class="cls-3"/><line x1="158.68" x2="158.68" y1="-491.54" y2="641.02" class="cls-3"/></g><g><line x1="-2377.67" x2="158.68" y1="371.67" y2="371.67" class="cls-3"/><line x1="-2377.67" x2="158.68" y1="317.68" y2="317.68" class="cls-3"/><line x1="-2377.67" x2="158.68" y1="263.69" y2="263.69" class="cls-3"/><line x1="-2377.67" x2="158.68" y1="209.71" y2="209.71" class="cls-3"/><line x1="-2377.67" x2="158.68" y1="155.72" y2="155.72" class="cls-3"/><line x1="-2377.67" x2="158.68" y1="101.74" y2="101.74" class="cls-3"/><line x1="-2377.67" x2="158.68" y1="47.75" y2="47.75" class="cls-3"/></g></g></g></g><g><path d="M248.12,128.38l-37.36-37.36c-.59-.59-1.4-.93-2.24-.93H3.9c-1.75,0-3.17,1.42-3.17,3.17v217.92c0,1.75,1.42,3.17,3.17,3.17h393.67c1.75,0,3.17-1.42,3.17-3.17v-178.71h0c0-1.75-1.42-3.17-3.17-3.17h-147.22c-.84,0-1.64-.33-2.24-.93Z" class="cls-5"/><g><polygon points="303.93 98.02 325.5 129.31 303.93 160.6 325.26 160.6 346.83 129.31 325.26 98.02 303.93 98.02" class="cls-6"/><polygon points="356.24 98.02 377.82 129.31 356.24 160.6 377.58 160.6 399.15 129.31 377.58 98.02 356.24 98.02" class="cls-6"/></g><g><g><g><g><path d="M41.27,215.51h-14.92c-1.26,0-2.17-.28-2.74-.85-.56-.56-.85-1.47-.85-2.74v-64.45c0-1.26.28-2.17.85-2.74.56-.56,1.47-.85,2.74-.85h10.34c1.26,0,2.34.2,3.23.6s1.77,1.09,2.64,2.09l19.3,22.08v-21.19c0-1.26.28-2.17.85-2.74.56-.56,1.47-.85,2.74-.85h14.92c1.26,0,2.17.28,2.74.85.56.56.85,1.48.85,2.74v64.45c0,1.26-.28,2.17-.85,2.74-.56.56-1.48.85-2.74.85h-14.92c-1.26,0-2.17-.28-2.74-.85-.56-.56-.85-1.47-.85-2.74v-12.23l-17.01-20.59v32.82c0,1.26-.28,2.17-.85,2.74-.56.56-1.48.85-2.74.85Z" class="cls-6"/><path d="M80.36,216.24h-14.92c-1.46,0-2.55-.36-3.26-1.06-.7-.7-1.06-1.8-1.06-3.25v-11.97l-15.54-18.81v30.78c0,1.46-.36,2.55-1.06,3.25-.7.7-1.8,1.06-3.25,1.06h-14.92c-1.46,0-2.55-.36-3.26-1.06-.7-.7-1.06-1.8-1.06-3.25v-64.45c0-1.46.36-2.55,1.06-3.25.7-.7,1.8-1.06,3.25-1.06h10.34c1.36,0,2.55.22,3.53.66s1.96,1.21,2.89,2.28l18.01,20.61v-19.23c0-1.46.36-2.55,1.06-3.25.7-.7,1.8-1.06,3.25-1.06h14.92c1.45,0,2.55.36,3.25,1.06.7.71,1.06,1.8,1.06,3.26v64.45c0,1.46-.36,2.55-1.06,3.25-.7.7-1.8,1.06-3.25,1.06ZM44.12,177.06l18.48,22.37v12.5c0,1.05.21,1.8.63,2.22.42.42,1.16.63,2.22.63h14.92c1.05,0,1.8-.21,2.22-.63.42-.42.63-1.16.63-2.22v-64.45c0-1.05-.21-1.8-.63-2.22-.42-.42-1.16-.63-2.22-.63h-14.92c-1.05,0-1.8.21-2.22.63-.42.42-.63,1.16-.63,2.22v23.14l-20.58-23.55c-.79-.91-1.59-1.55-2.38-1.9-.8-.35-1.78-.53-2.93-.53h-10.34c-1.05,0-1.8.21-2.22.63-.42.42-.63,1.16-.63,2.22v64.45c0,1.05.21,1.8.63,2.22.42.42,1.16.63,2.22.63h14.92c1.05,0,1.8-.21,2.22-.63.42-.42.63-1.16.63-2.22v-34.86Z" class="cls-1"/></g><g><path d="M99.66,215.51c-1.26,0-2.17-.28-2.74-.85-.56-.56-.85-1.47-.85-2.74v-11.84c0-1.26.28-2.17.85-2.74.56-.56,1.47-.85,2.74-.85h9.85v-33.42h-9.85c-1.26,0-2.17-.28-2.74-.85-.56-.56-.85-1.47-.85-2.74v-12.03c0-1.26.28-2.17.85-2.74.56-.56,1.47-.85,2.74-.85h42.37c1.26,0,2.17.28,2.74.85.56.56.85,1.48.85,2.74v12.03c0,1.26-.28,2.17-.85,2.74-.56.56-1.48.85-2.74.85h-9.65v33.42h9.65c1.26,0,2.17.28,2.74.85.56.56.85,1.48.85,2.74v11.84c0,1.26-.28,2.17-.85,2.74-.56.56-1.48.85-2.74.85h-42.37Z" class="cls-6"/><path d="M142.03,216.24h-42.37c-1.46,0-2.55-.36-3.26-1.06-.7-.7-1.06-1.8-1.06-3.25v-11.84c0-1.46.36-2.55,1.06-3.25.7-.7,1.8-1.06,3.25-1.06h9.11v-31.95h-9.11c-1.46,0-2.55-.36-3.26-1.06-.7-.7-1.06-1.8-1.06-3.25v-12.03c0-1.46.36-2.55,1.06-3.25.7-.7,1.8-1.06,3.25-1.06h42.37c1.45,0,2.55.36,3.25,1.06.7.71,1.06,1.8,1.06,3.26v12.03c0,1.46-.36,2.55-1.06,3.25-.7.7-1.8,1.06-3.25,1.06h-8.91v31.95h8.91c1.45,0,2.55.36,3.25,1.06.7.71,1.06,1.8,1.06,3.26v11.84c0,1.46-.36,2.55-1.06,3.25-.7.7-1.8,1.06-3.25,1.06ZM99.66,197.25c-1.05,0-1.8.21-2.22.63-.42.42-.63,1.16-.63,2.22v11.84c0,1.05.21,1.8.63,2.22.42.42,1.16.63,2.22.63h42.37c1.05,0,1.8-.21,2.22-.63.42-.42.63-1.16.63-2.22v-11.84c0-1.05-.21-1.8-.63-2.22-.42-.42-1.16-.63-2.22-.63h-10.38v-34.89h10.38c1.05,0,1.8-.21,2.22-.63.42-.42.63-1.16.63-2.22v-12.03c0-1.05-.21-1.8-.63-2.22-.42-.42-1.16-.63-2.22-.63h-42.37c-1.05,0-1.8.21-2.22.63-.42.42-.63,1.16-.63,2.22v12.03c0,1.05.21,1.8.63,2.22.42.42,1.16.63,2.22.63h10.58v34.89h-10.58Z" class="cls-1"/></g><g><path d="M176.34,215.51h-14.92c-1.26,0-2.17-.28-2.74-.85-.56-.56-.85-1.47-.85-2.74v-64.45c0-1.26.28-2.17.85-2.74.56-.56,1.47-.85,2.74-.85h10.34c1.26,0,2.34.2,3.23.6s1.77,1.09,2.64,2.09l19.3,22.08v-21.19c0-1.26.28-2.17.85-2.74.56-.56,1.47-.85,2.74-.85h14.92c1.26,0,2.17.28,2.74.85.56.56.85,1.48.85,2.74v64.45c0,1.26-.28,2.17-.85,2.74-.56.56-1.48.85-2.74.85h-14.92c-1.26,0-2.17-.28-2.74-.85-.56-.56-.85-1.47-.85-2.74v-12.23l-17.01-20.59v32.82c0,1.26-.28,2.17-.85,2.74-.56.56-1.48.85-2.74.85ZM188.28,139.52l-2.78-.4c-1.86-.26-3.42-.45-4.67-.55-1.26-.1-2.39-.1-3.38,0s-1.97.27-2.93.5c-.96.23-2.11.55-3.43.94-1.19.33-2.09.3-2.69-.1s-.9-1.23-.9-2.49v-10.05c0-1.26.31-2.14.94-2.64.63-.5,1.51-.98,2.64-1.44,1.59-.46,2.92-.81,3.98-1.04,1.06-.23,2.1-.35,3.13-.35s2.19.08,3.48.25c1.29.17,2.93.38,4.92.65l1.69.2,2.19.3c2.19.33,3.93.56,5.22.7,1.29.13,2.42.17,3.38.1.96-.07,1.91-.23,2.83-.5.93-.26,2.12-.63,3.58-1.09,1.19-.33,2.09-.3,2.69.1s.9,1.23.9,2.49v10.05c0,1.26-.32,2.14-.94,2.64-.63.5-1.51.98-2.64,1.44-1.59.46-2.92.81-3.98,1.04-1.06.23-2.12.35-3.18.35s-2.24-.08-3.53-.25c-1.29-.16-2.93-.38-4.92-.65l-1.59-.2Z" class="cls-6"/><path d="M215.43,216.24h-14.92c-1.46,0-2.55-.36-3.25-1.06-.7-.7-1.06-1.8-1.06-3.25v-11.97l-15.54-18.81v30.78c0,1.46-.36,2.55-1.06,3.25-.7.7-1.8,1.06-3.25,1.06h-14.92c-1.46,0-2.55-.36-3.25-1.06-.7-.7-1.06-1.8-1.06-3.25v-64.45c0-1.46.36-2.55,1.06-3.25s1.8-1.06,3.25-1.06h10.34c1.36,0,2.55.22,3.53.66.99.44,1.96,1.21,2.89,2.28l18.01,20.61v-19.23c0-1.46.36-2.55,1.06-3.25s1.8-1.06,3.25-1.06h14.92c1.45,0,2.55.36,3.25,1.06.7.71,1.06,1.8,1.06,3.26v64.45c0,1.46-.36,2.55-1.06,3.25-.7.7-1.8,1.06-3.25,1.06ZM179.19,177.06l18.48,22.37v12.5c0,1.05.21,1.8.63,2.22.42.42,1.16.63,2.22.63h14.92c1.05,0,1.8-.21,2.22-.63.42-.42.63-1.16.63-2.22v-64.45c0-1.05-.21-1.8-.63-2.22-.42-.42-1.16-.63-2.21-.63h-14.92c-1.05,0-1.8.21-2.22.63-.42.42-.63,1.16-.63,2.22v23.14l-20.58-23.55c-.79-.91-1.59-1.55-2.38-1.9-.8-.35-1.78-.53-2.93-.53h-10.34c-1.05,0-1.8.21-2.22.63-.42.42-.63,1.16-.63,2.22v64.45c0,1.05.21,1.8.63,2.22.42.42,1.16.63,2.22.63h14.92c1.05,0,1.8-.21,2.22-.63.42-.42.63-1.16.63-2.22v-34.87ZM198.32,141.35c-1.09,0-2.31-.09-3.62-.25-1.29-.16-2.94-.38-4.93-.65l-1.6-.2-2.78-.4c-1.85-.26-3.41-.45-4.63-.54-1.21-.1-2.3-.1-3.25,0-.96.1-1.91.26-2.84.48-.96.23-2.1.55-3.39.93-1.44.4-2.51.34-3.3-.19-.81-.54-1.22-1.58-1.22-3.1v-10.05c0-1.49.41-2.57,1.22-3.21.69-.54,1.61-1.05,2.81-1.54l.07-.03c1.6-.47,2.96-.82,4.03-1.06,1.11-.24,2.22-.37,3.29-.37s2.25.09,3.57.25c1.29.17,2.94.38,4.93.65l1.68.2,2.2.3c2.17.33,3.91.56,5.2.69,1.24.13,2.34.16,3.26.1.9-.06,1.81-.22,2.68-.47.91-.26,2.1-.62,3.56-1.09,1.45-.4,2.53-.34,3.32.19.81.54,1.22,1.58,1.22,3.1v10.05c0,1.49-.41,2.57-1.22,3.21-.69.54-1.63,1.06-2.81,1.55l-.07.03c-1.6.47-2.95.82-4.03,1.06-1.1.24-2.23.36-3.34.36ZM188.37,138.79l1.58.2c1.99.27,3.63.48,4.92.65,1.25.16,2.41.24,3.44.24s2.03-.11,3.03-.33c1.03-.23,2.34-.57,3.89-1.02,1.04-.43,1.85-.87,2.42-1.32.44-.35.67-1.04.67-2.06v-10.05c0-.68-.1-1.56-.57-1.88-.4-.27-1.12-.27-2.08,0-1.46.47-2.64.83-3.58,1.09-.98.28-1.98.46-2.99.52-1,.07-2.18.04-3.51-.1-1.31-.13-3.08-.37-5.26-.7l-2.18-.3-1.68-.2c-2-.27-3.64-.48-4.93-.65-1.26-.16-2.4-.24-3.39-.24s-1.97.11-2.98.33c-1.03.23-2.34.57-3.89,1.02-1.04.43-1.86.88-2.42,1.32-.44.35-.67,1.04-.67,2.06v10.05c0,.68.1,1.56.57,1.88.4.27,1.12.27,2.08,0,1.3-.39,2.47-.71,3.46-.95.99-.24,2.01-.41,3.03-.51,1.03-.1,2.21-.1,3.51,0,1.25.1,2.84.28,4.72.55l2.78.4Z" class="cls-1"/></g><g><path d="M293.41,196.71c0,3.05-.45,5.82-1.34,8.31-.9,2.49-2.49,4.61-4.77,6.37-2.29,1.76-5.44,3.13-9.45,4.13-4.01.99-9.1,1.49-15.27,1.49s-11.27-.5-15.32-1.49c-4.05-.99-7.21-2.37-9.5-4.13-2.29-1.76-3.88-3.88-4.77-6.37s-1.34-5.25-1.34-8.31v-33.92c0-3.05.45-5.82,1.34-8.31s2.49-4.62,4.77-6.42c2.29-1.79,5.45-3.18,9.5-4.18,4.04-.99,9.15-1.49,15.32-1.49s11.25.5,15.27,1.49c4.01.99,7.16,2.39,9.45,4.18,2.29,1.79,3.88,3.93,4.77,6.42.9,2.49,1.34,5.26,1.34,8.31v33.92ZM254.22,193.13c0,1.33.5,2.44,1.49,3.33s3.28,1.34,6.86,1.34,5.87-.45,6.86-1.34,1.49-2,1.49-3.33v-26.76c0-1.26-.5-2.34-1.49-3.23s-3.28-1.34-6.86-1.34-5.87.45-6.86,1.34-1.49,1.97-1.49,3.23v26.76Z" class="cls-6"/><path d="M262.57,217.74c-6.2,0-11.41-.51-15.49-1.51-4.13-1.01-7.41-2.45-9.77-4.26-2.39-1.83-4.08-4.09-5.02-6.7-.92-2.55-1.39-5.43-1.39-8.55v-33.92c0-3.12.47-6,1.39-8.55.94-2.61,2.62-4.88,5.01-6.74,2.36-1.85,5.65-3.3,9.78-4.31,4.08-1,9.29-1.51,15.49-1.51s11.39.51,15.44,1.51c4.09,1.02,7.37,2.47,9.72,4.31,2.39,1.87,4.07,4.14,5.01,6.74.92,2.55,1.39,5.43,1.39,8.55v33.92c0,3.12-.47,6-1.39,8.55-.94,2.61-2.63,4.87-5.02,6.7-2.36,1.81-5.63,3.24-9.72,4.26-4.05,1-9.25,1.51-15.44,1.51ZM262.57,143.14c-6.08,0-11.17.49-15.14,1.47-3.92.96-7.03,2.33-9.22,4.04-2.17,1.7-3.69,3.74-4.54,6.09-.86,2.39-1.3,5.11-1.3,8.06v33.92c0,2.95.44,5.66,1.3,8.06.84,2.34,2.37,4.37,4.53,6.03,2.2,1.69,5.3,3.03,9.23,4,3.97.98,9.06,1.47,15.14,1.47s11.15-.49,15.09-1.47c3.9-.97,6.98-2.31,9.18-4,2.16-1.66,3.69-3.69,4.53-6.03.86-2.39,1.3-5.11,1.3-8.06v-33.92c0-2.95-.44-5.66-1.3-8.06-.84-2.34-2.37-4.39-4.54-6.09-2.19-1.72-5.28-3.08-9.17-4.04-3.94-.98-9.01-1.47-15.09-1.47ZM262.57,198.54c-3.8,0-6.21-.5-7.35-1.53-1.15-1.04-1.73-2.34-1.73-3.88v-26.76c0-1.47.58-2.74,1.73-3.78,1.15-1.03,3.55-1.53,7.35-1.53s6.21.5,7.35,1.53c1.15,1.04,1.73,2.31,1.73,3.78v26.76c0,1.54-.58,2.84-1.73,3.88-1.15,1.03-3.55,1.53-7.35,1.53ZM262.57,162.54c-4.21,0-5.79.63-6.37,1.15-.84.76-1.25,1.64-1.25,2.69v26.76c0,1.12.41,2.03,1.25,2.79.58.53,2.17,1.15,6.37,1.15s5.79-.63,6.37-1.15c.84-.76,1.25-1.67,1.25-2.79v-26.76c0-1.05-.41-1.93-1.25-2.69-.58-.53-2.17-1.15-6.37-1.15Z" class="cls-1"/></g></g><g><path d="M70.34,290.43h-27.32c-7.23,0-12.59-1.44-16.09-4.34-3.5-2.89-5.25-7.34-5.25-13.36v-27.06c0-6.01,1.75-10.47,5.25-13.36,3.5-2.89,8.86-4.34,16.09-4.34h21.69c1.1,0,1.89.25,2.39.74.49.49.74,1.29.74,2.39v10.5c0,1.1-.25,1.89-.74,2.39-.49.49-1.29.74-2.39.74h-18.04c-1.79,0-3.12.36-3.99,1.08-.87.72-1.3,1.81-1.3,3.25v20.73c0,1.45.33,2.52,1,3.21.66.69,1.66,1.04,2.99,1.04h8.41v-13.53c0-1.1.25-1.89.74-2.39.49-.49,1.29-.74,2.39-.74h13.45c1.1,0,1.89.25,2.39.74.49.49.74,1.29.74,2.39v26.8c0,1.1-.25,1.89-.74,2.39-.49.49-1.29.74-2.39.74Z" class="cls-1"/><path d="M101.74,287.3c0,1.1-.25,1.89-.74,2.39-.49.49-1.29.74-2.39.74h-12.75c-1.1,0-1.9-.25-2.39-.74-.49-.49-.74-1.29-.74-2.39v-22.9c0-1.73.27-3.73.82-5.99.55-2.26,1.4-4.89,2.56-7.89l7.55-19.69c.35-.98.88-1.71,1.6-2.17.72-.46,1.66-.69,2.82-.69h23.33c1.1,0,2.01.23,2.73.69.72.46,1.26,1.19,1.6,2.17l7.55,19.69c1.16,3.01,2.01,5.64,2.56,7.89.55,2.26.82,4.25.82,5.99v22.9c0,1.1-.25,1.89-.74,2.39-.49.49-1.29.74-2.39.74h-13.1c-1.16,0-2.01-.25-2.56-.74-.55-.49-.82-1.29-.82-2.39v-12.14h-15.35v12.14ZM106.69,246.19l-4.08,13.19h13.62l-4.08-13.19c-.23-.52-.48-.9-.74-1.13-.26-.23-.56-.35-.91-.35h-2.17c-.35,0-.65.12-.91.35-.26.23-.51.61-.74,1.13Z" class="cls-1"/><path d="M163.42,290.43h-12.93c-1.1,0-1.89-.25-2.39-.74-.49-.49-.74-1.29-.74-2.39v-56.21c0-1.1.25-1.89.74-2.39.49-.49,1.29-.74,2.39-.74h13.97c.92,0,1.69.2,2.3.61.61.41,1.17,1.07,1.69,2l7.81,14.14c.29.52.53.9.74,1.13.2.23.48.35.82.35h.78c.35,0,.62-.12.82-.35.2-.23.45-.61.74-1.13l7.72-14.14c.52-.92,1.08-1.59,1.69-2,.61-.4,1.37-.61,2.3-.61h14.05c1.1,0,1.89.25,2.39.74.49.49.74,1.29.74,2.39v56.21c0,1.1-.25,1.89-.74,2.39-.49.49-1.29.74-2.39.74h-13.36c-1.1,0-1.89-.25-2.39-.74-.49-.49-.74-1.29-.74-2.39v-30.53l-5.12,9.46c-.52.98-1.14,1.69-1.86,2.13-.72.43-1.63.65-2.73.65h-3.47c-1.1,0-2.01-.22-2.73-.65-.72-.43-1.34-1.14-1.86-2.13l-5.12-9.46v30.53c0,1.1-.25,1.89-.74,2.39-.49.49-1.29.74-2.39.74Z" class="cls-1"/><path d="M264.39,290.43h-40.25c-1.1,0-1.89-.25-2.39-.74-.49-.49-.74-1.29-.74-2.39v-56.21c0-1.1.25-1.89.74-2.39.49-.49,1.29-.74,2.39-.74h40.25c1.1,0,1.89.25,2.39.74.49.49.74,1.29.74,2.39v10.15c0,1.1-.25,1.89-.74,2.39-.49.49-1.29.74-2.39.74h-23.94v6.68h16.92c1.1,0,1.89.25,2.39.74.49.49.74,1.29.74,2.39v9.28c0,1.1-.25,1.89-.74,2.39-.49.49-1.29.74-2.39.74h-16.92v7.46h23.94c1.1,0,1.89.25,2.39.74.49.49.74,1.29.74,2.39v10.15c0,1.1-.25,1.89-.74,2.39-.49.49-1.29.74-2.39.74Z" class="cls-1"/><path d="M294.23,290.43h-13.36c-1.1,0-1.89-.25-2.39-.74-.49-.49-.74-1.29-.74-2.39v-56.21c0-1.1.25-1.89.74-2.39.49-.49,1.29-.74,2.39-.74h28.89c6.48,0,10.94,1.34,13.4,4.03,2.46,2.69,3.69,6.17,3.69,10.45v3.99c0,2.43-.36,4.5-1.08,6.2-.72,1.71-1.98,2.94-3.77,3.69,3.12.35,5.65,1.62,7.59,3.82,1.94,2.2,2.91,5.12,2.91,8.76v18.39c0,1.1-.25,1.89-.74,2.39-.49.49-1.29.74-2.39.74h-13.45c-1.1,0-1.89-.25-2.39-.74-.49-.49-.74-1.29-.74-2.39v-13.27c0-1.27-.25-2.21-.74-2.82-.49-.61-1.34-.91-2.56-.91h-12.14v17c0,1.1-.25,1.89-.74,2.39-.49.49-1.29.74-2.39.74ZM297.35,243.59v11.1h6.51c1.5,0,2.52-.39,3.04-1.17s.78-1.75.78-2.91v-2.95c0-1.16-.26-2.13-.78-2.91s-1.53-1.17-3.04-1.17h-6.51Z" class="cls-1"/></g><g><path d="M29.51,135.14h-4.59c-.39,0-.67-.09-.85-.26-.18-.17-.26-.46-.26-.85v-19.98c0-.39.09-.67.26-.85.17-.17.46-.26.85-.26h4.96c.33,0,.6.07.82.22.22.14.42.38.6.71l2.78,5.03c.1.19.19.32.26.4.07.08.17.12.29.12h.28c.12,0,.22-.04.29-.12.07-.08.16-.22.26-.4l2.74-5.03c.19-.33.39-.57.6-.71.22-.14.49-.22.82-.22h5c.39,0,.67.09.85.26.17.17.26.46.26.85v19.98c0,.39-.09.67-.26.85-.18.17-.46.26-.85.26h-4.75c-.39,0-.67-.09-.85-.26-.18-.17-.26-.46-.26-.85v-10.85l-1.82,3.36c-.19.35-.41.6-.66.76-.26.15-.58.23-.97.23h-1.23c-.39,0-.71-.08-.97-.23-.26-.15-.48-.41-.66-.76l-1.82-3.36v10.85c0,.39-.09.67-.26.85-.18.17-.46.26-.85.26Z" class="cls-1"/><path d="M65.4,135.14h-14.31c-.39,0-.67-.09-.85-.26-.18-.17-.26-.46-.26-.85v-19.98c0-.39.09-.67.26-.85.17-.17.46-.26.85-.26h14.31c.39,0,.67.09.85.26.17.17.26.46.26.85v3.61c0,.39-.09.67-.26.85-.18.17-.46.26-.85.26h-8.51v2.37h6.01c.39,0,.67.09.85.26.17.18.26.46.26.85v3.3c0,.39-.09.67-.26.85-.17.17-.46.26-.85.26h-6.01v2.65h8.51c.39,0,.67.09.85.26.17.17.26.46.26.85v3.61c0,.39-.09.67-.26.85-.18.17-.46.26-.85.26Z" class="cls-1"/><path d="M80.45,135.14h-9.74c-.39,0-.67-.09-.85-.26-.17-.17-.26-.46-.26-.85v-3.61c0-.39.09-.67.26-.85.17-.17.46-.26.85-.26h8.3c.27,0,.47-.09.6-.26.13-.17.2-.39.2-.63,0-.35-.07-.61-.2-.77-.13-.16-.33-.26-.6-.28l-4.63-.65c-1.44-.21-2.6-.68-3.47-1.42-.87-.74-1.31-1.97-1.31-3.7v-3.24c0-1.75.57-3.09,1.7-4.02,1.13-.94,2.69-1.4,4.69-1.4h8.63c.39,0,.67.09.85.26.17.17.26.46.26.85v3.67c0,.39-.09.67-.26.85-.18.17-.46.26-.85.26h-7.19c-.27,0-.47.09-.62.26-.14.17-.22.4-.22.66s.07.49.22.68.35.29.62.31l4.59.62c1.44.21,2.6.68,3.48,1.42.88.74,1.33,1.97,1.33,3.7v3.24c0,1.75-.57,3.09-1.71,4.02-1.14.94-2.7,1.4-4.67,1.4Z" class="cls-1"/><path d="M108.64,135.14h-10.39c-.39,0-.67-.09-.85-.26-.18-.17-.26-.46-.26-.85v-19.98c0-.39.09-.67.26-.85.17-.17.46-.26.85-.26h10.39c2.57,0,4.48.51,5.72,1.54,1.24,1.03,1.87,2.61,1.87,4.75v9.62c0,2.14-.62,3.72-1.87,4.75-1.24,1.03-3.15,1.54-5.72,1.54ZM104.13,118.83v10.48h3.67c.49,0,.86-.12,1.09-.37.24-.25.35-.63.35-1.14v-7.49c0-.51-.12-.89-.35-1.13-.24-.24-.6-.35-1.09-.35h-3.67Z" class="cls-1"/><path d="M135.56,135.14h-14.31c-.39,0-.67-.09-.85-.26-.18-.17-.26-.46-.26-.85v-19.98c0-.39.09-.67.26-.85.17-.17.46-.26.85-.26h14.31c.39,0,.67.09.85.26.17.17.26.46.26.85v3.61c0,.39-.09.67-.26.85-.17.17-.46.26-.85.26h-8.51v2.37h6.01c.39,0,.67.09.85.26.17.18.26.46.26.85v3.3c0,.39-.09.67-.26.85-.18.17-.46.26-.85.26h-6.01v2.65h8.51c.39,0,.67.09.85.26.17.17.26.46.26.85v3.61c0,.39-.09.67-.26.85-.17.17-.46.26-.85.26Z" class="cls-1"/><path d="M157.11,135.14h-15.7c-.39,0-.67-.09-.85-.26-.18-.17-.26-.46-.26-.85v-19.98c0-.39.09-.67.26-.85.17-.17.46-.26.85-.26h4.78c.39,0,.67.09.85.26.17.17.26.46.26.85v15.26h4.22v-5c0-.39.09-.67.26-.85.17-.17.46-.26.85-.26h4.47c.39,0,.67.09.85.26.17.17.26.46.26.85v9.71c0,.39-.09.67-.26.85-.18.17-.46.26-.85.26Z" class="cls-1"/></g></g><g><g><path d="M376.34,212.79c-.3-3.99-2.48-7.56-5.85-9.66l-26.22-16.3-26.22-16.3c-3.37-2.09-7.54-2.47-11.25-.97-8.98,3.62-25.79,12.5-37.84,31.4-3.8,5.97-2.09,13.86,3.85,17.55h0c5.01,3.11,11.52,2.26,15.67-2.02,5.71-5.9,13.75-13.06,18.86-12.75l19.06,11.84,19.06,11.84c2.54,4.44-.32,14.82-3.08,22.56-2.01,5.62.12,11.84,5.13,14.95h0c5.94,3.69,13.77,1.74,17.44-4.32,11.62-19.17,12.13-38.17,11.4-47.83Z" class="cls-5"/><path d="M354.02,267.5c-2.42,0-4.79-.67-6.89-1.97-5.32-3.31-7.54-9.79-5.41-15.76,3.84-10.74,4.97-18.48,3.21-21.84l-37.81-23.5s-.08,0-.12,0c-3.8,0-10.19,4.44-18.04,12.55-4.41,4.56-11.21,5.43-16.53,2.13-2.99-1.86-5.08-4.79-5.86-8.25-.8-3.53-.17-7.18,1.8-10.26,12.15-19.07,29.12-28.02,38.16-31.66,3.88-1.56,8.32-1.18,11.87,1.03l52.45,32.6c3.55,2.21,5.86,6.02,6.18,10.19h0c.74,9.71.22,28.9-11.5,48.23-1.89,3.12-4.88,5.31-8.4,6.15-1.03.25-2.07.37-3.1.37ZM307.02,203.05c.12,0,.24,0,.36.01.11,0,.22.04.32.1l38.11,23.69c.1.06.18.14.23.24,2.66,4.65-.18,15.14-3.03,23.13-1.92,5.36.08,11.17,4.84,14.13,2.68,1.67,5.86,2.18,8.95,1.44,3.17-.76,5.85-2.72,7.55-5.53,11.52-19.01,12.03-37.87,11.31-47.42h0c-.28-3.74-2.35-7.15-5.53-9.12l-52.45-32.6c-3.18-1.98-7.15-2.32-10.63-.92-8.88,3.58-25.57,12.38-37.51,31.13-1.76,2.77-2.34,6.04-1.62,9.21.7,3.1,2.57,5.72,5.25,7.39,4.77,2.96,10.86,2.17,14.82-1.92,5.77-5.96,13.69-12.97,19.04-12.97Z" class="cls-1"/></g><g><g><g><circle cx="311.58" cy="186.95" r="13.96" class="cls-5"/><path d="M311.55,201.61c-2.7,0-5.35-.75-7.71-2.21-3.32-2.07-5.64-5.3-6.53-9.11-.89-3.81-.24-7.74,1.82-11.06,4.26-6.86,13.32-8.97,20.18-4.71,3.32,2.07,5.64,5.3,6.53,9.11.89,3.81.24,7.74-1.82,11.06h0c-2.07,3.32-5.3,5.64-9.11,6.53-1.11.26-2.24.39-3.36.39ZM311.6,173.68c-4.44,0-8.79,2.22-11.3,6.27-1.87,3.01-2.46,6.57-1.65,10.03.81,3.45,2.91,6.39,5.92,8.26,3.01,1.87,6.57,2.46,10.03,1.65,3.45-.81,6.39-2.91,8.26-5.92h0c1.87-3.01,2.46-6.57,1.65-10.03-.81-3.45-2.91-6.39-5.92-8.26-2.18-1.35-4.6-2-6.99-2Z" class="cls-1"/></g><g><circle cx="311.58" cy="186.95" r="11.55" class="cls-5" transform="translate(-40.5 97.09) rotate(-16.65)"/><path d="M311.55,199.19c-2.26,0-4.47-.63-6.43-1.85-5.73-3.56-7.49-11.12-3.93-16.85,1.72-2.78,4.43-4.71,7.61-5.46,3.18-.74,6.46-.2,9.24,1.52,2.78,1.72,4.71,4.43,5.46,7.61.74,3.18.2,6.46-1.52,9.24-1.72,2.78-4.43,4.71-7.61,5.46-.93.22-1.87.32-2.8.32ZM311.6,176.09c-.83,0-1.66.1-2.49.29-2.82.66-5.22,2.38-6.75,4.84-3.16,5.09-1.6,11.8,3.49,14.96,2.46,1.53,5.37,2.01,8.2,1.35,2.82-.66,5.22-2.38,6.75-4.84h0c3.16-5.09,1.6-11.8-3.49-14.96-1.74-1.08-3.71-1.64-5.71-1.64Z" class="cls-1"/></g><g><path d="M317.31,187.46l-2.16-1.34,1.34-2.16c.75-1.21.38-2.83-.84-3.58-1.21-.75-2.83-.38-3.58.84l-1.34,2.16-2.16-1.34c-1.21-.75-2.83-.38-3.58.84-.75,1.21-.38,2.83.84,3.58l2.16,1.34-1.34,2.16c-.75,1.21-.38,2.83.84,3.58,1.21.75,2.83.38,3.58-.84l1.34-2.16,2.16,1.34c1.21.75,2.83.38,3.58-.84.75-1.21.38-2.83-.84-3.58Z" class="cls-6"/><path d="M308.86,194.6c-.59,0-1.19-.16-1.73-.49-1.54-.96-2.01-2.99-1.06-4.53l.98-1.57-1.57-.98c-1.54-.96-2.01-2.99-1.06-4.53.96-1.54,2.99-2.01,4.53-1.06l1.57.98.98-1.57c.46-.74,1.19-1.26,2.04-1.46.86-.2,1.74-.06,2.48.41.74.46,1.26,1.19,1.46,2.04.2.86.06,1.74-.41,2.48l-.98,1.57,1.57.98c1.54.96,2.01,2.99,1.06,4.53-.46.74-1.19,1.26-2.04,1.46-.86.2-1.74.06-2.48-.41l-1.57-.98-.98,1.57c-.62,1-1.7,1.55-2.8,1.55ZM307.22,182.33c-.64,0-1.27.32-1.63.9-.56.9-.28,2.08.61,2.63l2.74,1.7-1.7,2.74c-.56.9-.28,2.08.62,2.63.9.56,2.08.28,2.63-.62l1.7-2.74,2.74,1.7c.43.27.94.35,1.44.24.5-.12.92-.42,1.19-.85.56-.9.28-2.08-.61-2.63l-2.74-1.7,1.7-2.74c.27-.43.35-.94.24-1.44-.12-.5-.42-.92-.85-1.19-.43-.27-.94-.35-1.44-.24-.5.12-.92.42-1.19.85l-1.7,2.74-2.74-1.7c-.31-.19-.66-.29-1.01-.29Z" class="cls-1"/></g></g><g><g><circle cx="358.63" cy="216.2" r="13.96" class="cls-5"/><path d="M358.6,230.84c-2.64,0-5.31-.71-7.71-2.2-3.32-2.07-5.64-5.3-6.53-9.11-.89-3.81-.24-7.74,1.82-11.06,2.07-3.32,5.3-5.64,9.11-6.53s7.74-.24,11.06,1.82c3.32,2.07,5.64,5.3,6.53,9.11.89,3.81.24,7.74-1.82,11.06-2.77,4.46-7.57,6.91-12.47,6.91ZM358.65,202.91c-1.01,0-2.03.12-3.04.35-3.45.81-6.39,2.91-8.26,5.92h0c-1.87,3.01-2.46,6.57-1.65,10.03.81,3.45,2.91,6.39,5.92,8.26,6.22,3.86,14.42,1.95,18.29-4.27,1.87-3.01,2.46-6.57,1.65-10.03-.81-3.45-2.91-6.39-5.92-8.26-2.13-1.32-4.54-2.01-6.98-2.01Z" class="cls-1"/></g><g><circle cx="358.63" cy="216.2" r="11.55" class="cls-5" transform="translate(124.02 563.06) rotate(-87.01)"/><path d="M358.6,228.43c-2.26,0-4.47-.63-6.43-1.85-2.78-1.72-4.71-4.43-5.46-7.61s-.2-6.46,1.52-9.24c1.72-2.78,4.43-4.71,7.61-5.46,3.18-.74,6.46-.2,9.24,1.52,5.73,3.56,7.49,11.12,3.93,16.85-1.72,2.78-4.43,4.71-7.61,5.46-.93.22-1.87.32-2.8.32ZM358.65,205.33c-.83,0-1.66.1-2.49.29-2.82.66-5.22,2.38-6.75,4.84h0c-3.16,5.09-1.6,11.8,3.49,14.96,2.46,1.53,5.38,2.01,8.2,1.35,2.82-.66,5.22-2.38,6.75-4.84,3.16-5.09,1.6-11.8-3.49-14.96-1.74-1.08-3.71-1.64-5.71-1.64Z" class="cls-1"/></g><g><path d="M355.63,211.28l2.16,1.34,1.34-2.16c.75-1.21,2.37-1.59,3.58-.84,1.21.75,1.59,2.37.84,3.58l-1.34,2.16,2.16,1.34c1.21.75,1.59,2.37.84,3.58-.75,1.21-2.37,1.59-3.58.84l-2.16-1.34-1.34,2.16c-.75,1.21-2.37,1.59-3.58.84-1.21-.75-1.59-2.37-.84-3.58l1.34-2.16-2.16-1.34c-1.21-.75-1.59-2.37-.84-3.58.75-1.21,2.37-1.59,3.58-.84Z" class="cls-6"/><path d="M355.9,223.84c-.61,0-1.2-.17-1.72-.49-1.54-.96-2.01-2.99-1.06-4.53l.98-1.57-1.57-.98c-1.54-.96-2.01-2.99-1.06-4.53.96-1.54,2.99-2.01,4.53-1.06l1.57.98.98-1.57c.46-.74,1.19-1.26,2.04-1.46.86-.2,1.74-.06,2.48.41,1.54.96,2.01,2.99,1.06,4.53l-.98,1.57,1.57.98c1.54.96,2.01,2.99,1.06,4.53-.96,1.54-2.99,2.01-4.53,1.06l-1.57-.98-.98,1.57c-.46.74-1.19,1.26-2.04,1.46-.25.06-.51.09-.76.09ZM354.27,211.57c-.64,0-1.27.32-1.63.9-.56.9-.28,2.08.61,2.63l2.74,1.7-1.7,2.74c-.56.9-.28,2.08.62,2.63.43.27.95.35,1.44.24.5-.12.92-.42,1.19-.85l1.7-2.74,2.74,1.7c.9.56,2.08.28,2.63-.61.56-.9.28-2.08-.61-2.63l-2.74-1.7,1.7-2.74c.56-.9.28-2.08-.62-2.63-.43-.27-.95-.35-1.44-.24-.5.12-.92.42-1.19.85l-1.7,2.74-2.74-1.7c-.31-.19-.66-.29-1.01-.29Z" class="cls-1"/></g></g></g><g><rect width="19.59" height="12.94" x="328.31" y="190.28" class="cls-6" rx="6.37" ry="6.37" transform="translate(154.81 -148.83) rotate(31.86)"/><path d="M341.94,206.86c-.71,0-1.44-.19-2.09-.6l-11.07-6.88c-.9-.56-1.53-1.43-1.77-2.47-.24-1.03-.07-2.09.49-2.99l3.37-5.42c.56-.9,1.43-1.53,2.47-1.77,1.03-.24,2.09-.07,2.99.49l11.07,6.88c.9.56,1.53,1.43,1.77,2.47.24,1.03.07,2.09-.49,2.99l-3.37,5.42c-.75,1.21-2.05,1.87-3.37,1.87ZM340.58,205.1c1.21.75,2.81.38,3.57-.83l3.37-5.42c.37-.59.48-1.28.32-1.96s-.57-1.25-1.16-1.61l-11.07-6.88c-.59-.37-1.28-.48-1.96-.32-.67.16-1.25.57-1.61,1.16l-3.37,5.42c-.37.59-.48,1.28-.32,1.96s.57,1.25,1.16,1.61l11.07,6.88Z" class="cls-1"/></g><path d="M272.68,204.15c-.13,0-.26-.04-.38-.11-.32-.21-.41-.63-.2-.95.44-.67,10.8-16.37,22.21-22.33.34-.18.75-.05.93.29.18.34.05.75-.29.93-11.1,5.8-21.6,21.71-21.7,21.87-.13.2-.35.31-.57.31Z" class="cls-1"/><path d="M346.33,253.48c-.09,0-.18-.02-.27-.05-.35-.15-.51-.55-.37-.9.04-.1,4.23-10.13,4.51-17.74.01-.38.34-.68.71-.66.38.01.67.33.66.71-.28,7.87-4.44,17.81-4.61,18.23-.11.26-.36.42-.63.42Z" class="cls-1"/><g><path d="M323.64,207.63c-.47.76-1.48,1-2.24.52s-1-1.48-.52-2.24c.47-.76,1.48-1,2.24-.52s1,1.48.52,2.24Z" class="cls-6"/><path d="M322.25,209.08c-.42,0-.84-.11-1.22-.35-1.08-.67-1.42-2.1-.74-3.18.33-.52.84-.89,1.44-1.03.6-.14,1.22-.04,1.75.29,1.08.67,1.42,2.1.74,3.18h0c-.44.7-1.19,1.09-1.97,1.09ZM322.26,205.83c-.07,0-.14,0-.21.02-.24.06-.45.21-.58.42-.27.44-.14,1.02.3,1.29.44.27,1.02.14,1.29-.3h0c.27-.44.14-1.02-.3-1.29-.15-.09-.32-.14-.49-.14Z" class="cls-1"/></g><g><path d="M330.57,211.94c-.47.76-1.48,1-2.24.52s-1-1.48-.52-2.24c.47-.76,1.48-1,2.24-.52s1,1.48.52,2.24Z" class="cls-6"/><path d="M329.19,213.39c-.43,0-.84-.12-1.22-.35-.52-.33-.89-.84-1.03-1.44-.14-.6-.04-1.22.29-1.75.33-.52.84-.89,1.44-1.03.6-.14,1.22-.04,1.75.29,1.08.67,1.42,2.1.74,3.18h0c-.33.52-.84.89-1.44,1.03-.18.04-.35.06-.53.06ZM329.2,210.14c-.07,0-.14,0-.21.02-.24.06-.45.21-.58.42-.13.21-.17.46-.12.71.06.24.21.45.42.58.21.13.46.17.71.12.24-.06.45-.21.58-.42.27-.44.14-1.02-.3-1.29-.15-.09-.32-.14-.49-.14Z" class="cls-1"/></g><g><path d="M337.51,216.25c-.47.76-1.48,1-2.24.52s-1-1.48-.52-2.24c.47-.76,1.48-1,2.24-.52.76.47,1,1.48.52,2.24Z" class="cls-6"/><path d="M336.13,217.7c-.43,0-.84-.12-1.22-.35-1.08-.67-1.42-2.1-.74-3.18.33-.52.84-.89,1.44-1.03.6-.14,1.22-.04,1.75.29.52.33.89.84,1.03,1.44.14.6.04,1.22-.29,1.75-.33.52-.84.89-1.44,1.03-.18.04-.35.06-.53.06ZM336.13,214.45c-.07,0-.14,0-.21.02-.24.06-.45.21-.58.42-.27.44-.14,1.02.3,1.29.21.13.46.17.71.12.24-.06.45-.21.58-.42h0c.13-.21.17-.46.12-.71-.06-.24-.21-.45-.42-.58-.15-.09-.32-.14-.49-.14Z" class="cls-1"/></g></g></g></g></svg>