<svg xmlns="http://www.w3.org/2000/svg" xmlns:xlink="http://www.w3.org/1999/xlink" id="Capa_1" data-name="Capa 1" viewBox="0 0 1080 1080"><defs><style>.cls-1{fill:#fff}.cls-2{fill:url(#Degradado_sin_nombre_3)}</style><linearGradient id="Degradado_sin_nombre_3" x1="1105.79" x2="3.54" y1="1106.33" y2="4.07" data-name="Degradado sin nombre 3" gradientUnits="userSpaceOnUse"><stop offset="0" stop-color="#dc2670"/><stop offset=".02" stop-color="#cb2272"/><stop offset=".09" stop-color="#a11978"/><stop offset=".15" stop-color="#7d117c"/><stop offset=".22" stop-color="#600b80"/><stop offset=".3" stop-color="#490684"/><stop offset=".38" stop-color="#390286"/><stop offset=".47" stop-color="#2f0087"/><stop offset=".59" stop-color="#2d0088"/><stop offset=".63" stop-color="#2b0584"/><stop offset=".69" stop-color="#281579"/><stop offset=".76" stop-color="#222f68"/><stop offset=".83" stop-color="#1a5350"/><stop offset=".9" stop-color="#108231"/><stop offset=".98" stop-color="#04ba0c"/><stop offset="1" stop-color="#00ce00"/></linearGradient></defs><path d="M0,.53v1079.47h1079.47V.53H0ZM1029.21,917.05c0,9.78-7.93,17.71-17.71,17.71H68.5c-9.78,0-17.71-7.93-17.71-17.71V69.08c0-9.78,7.92-17.7,17.7-17.71l943.01-.57c9.79,0,17.72,7.92,17.72,17.71v848.54Z" class="cls-2"/><g><path d="M42.84,998.27h14.42c1.18,0,2.05.26,2.6.79.56.53.87,1.38.93,2.56l1.3,35.9c.06,1.18-.16,2.03-.65,2.56-.5.53-1.33.79-2.51.79h-17.76c-1.18,0-2.02-.26-2.51-.79-.5-.53-.71-1.38-.65-2.56l1.39-35.9c.06-1.18.36-2.03.88-2.56.53-.53,1.38-.79,2.56-.79ZM41.54,973.9h17.11c1.18,0,2.03.26,2.56.79.53.53.79,1.38.79,2.56v12.18c0,1.18-.26,2.03-.79,2.56s-1.38.79-2.56.79h-17.11c-1.18,0-2.03-.26-2.56-.79-.53-.53-.79-1.38-.79-2.56v-12.18c0-1.18.26-2.03.79-2.56.53-.53,1.38-.79,2.56-.79Z" class="cls-1"/><path d="M111.01,1049.23h-14.32c-1.18,0-2.03-.26-2.56-.79s-.79-1.38-.79-2.56v-5.12c-7.19-1.05-12.04-3.21-14.55-6.46-2.51-3.25-3.77-7.21-3.77-11.86v-30.88c0-2.85.42-5.44,1.26-7.77s2.33-4.32,4.46-6c2.14-1.67,5.1-2.98,8.88-3.91,3.78-.93,8.56-1.4,14.32-1.4s10.52.47,14.28,1.4c3.75.93,6.7,2.23,8.84,3.91,2.14,1.67,3.63,3.67,4.46,6s1.26,4.92,1.26,7.77v30.88c0,2.36-.28,4.54-.84,6.56-.56,2.02-1.52,3.8-2.88,5.35-1.36,1.55-3.24,2.88-5.63,4-2.39,1.12-5.41,1.92-9.07,2.42v5.12c0,1.18-.26,2.03-.79,2.56-.53.53-1.38.79-2.56.79ZM96.13,1020.4c0,1.24.47,2.28,1.4,3.12.93.84,3.07,1.26,6.42,1.26s5.49-.42,6.42-1.26c.93-.84,1.4-1.87,1.4-3.12v-25.39c0-1.18-.46-2.19-1.4-3.02-.93-.84-3.07-1.26-6.42-1.26s-5.49.42-6.42,1.26c-.93.84-1.4,1.84-1.4,3.02v25.39Z" class="cls-1"/><path d="M201.59,1023.28c0,2.85-.42,5.44-1.26,7.77s-2.32,4.31-4.46,5.95c-2.14,1.64-5.07,2.93-8.79,3.86-3.72.93-8.46,1.39-14.23,1.39s-10.51-.46-14.23-1.39c-3.72-.93-6.65-2.22-8.79-3.86-2.14-1.64-3.63-3.63-4.46-5.95s-1.26-4.91-1.26-7.77v-46.04c0-1.18.26-2.03.79-2.56.53-.53,1.38-.79,2.56-.79h14.6c1.18,0,2.03.26,2.56.79.53.53.79,1.38.79,2.56v42.41c0,1.24.46,2.28,1.4,3.12s3.01,1.26,6.23,1.26,5.39-.42,6.32-1.26c.93-.84,1.4-1.87,1.4-3.12v-42.41c0-1.18.26-2.03.79-2.56.53-.53,1.38-.79,2.56-.79h14.14c1.18,0,2.03.26,2.56.79.53.53.79,1.38.79,2.56v46.04Z" class="cls-1"/><path d="M260.46,1040.86h-43.15c-1.18,0-2.03-.26-2.56-.79-.53-.53-.79-1.38-.79-2.56v-60.26c0-1.18.26-2.03.79-2.56.53-.53,1.38-.79,2.56-.79h43.15c1.18,0,2.03.26,2.56.79.53.53.79,1.38.79,2.56v10.88c0,1.18-.26,2.03-.79,2.56-.53.53-1.38.79-2.56.79h-25.67v7.16h18.13c1.18,0,2.03.26,2.56.79.53.53.79,1.38.79,2.56v9.95c0,1.18-.26,2.03-.79,2.56s-1.38.79-2.56.79h-18.13v8h25.67c1.18,0,2.03.26,2.56.79.53.53.79,1.38.79,2.56v10.88c0,1.18-.26,2.03-.79,2.56-.53.53-1.38.79-2.56.79ZM256.83,966.83l-32.46,4c-1.06.12-1.85-.09-2.37-.65-.53-.56-.79-1.36-.79-2.42v-8.93c0-1.18.26-2,.79-2.46.53-.46,1.38-.76,2.56-.88l32.46-4c1.05-.12,1.84.09,2.37.65.53.56.79,1.36.79,2.42v8.93c0,1.18-.26,2-.79,2.46-.53.46-1.38.76-2.56.88Z" class="cls-1"/><path d="M352.43,1023.28c0,2.85-.42,5.44-1.26,7.77s-2.33,4.31-4.46,5.95c-2.14,1.64-5.08,2.93-8.84,3.86-3.75.93-8.51,1.39-14.28,1.39s-10.54-.46-14.32-1.39c-3.78-.93-6.74-2.22-8.88-3.86-2.14-1.64-3.63-3.63-4.46-5.95s-1.26-4.91-1.26-7.77v-31.71c0-2.85.42-5.44,1.26-7.77s2.33-4.32,4.46-6c2.14-1.67,5.1-2.98,8.88-3.91,3.78-.93,8.56-1.4,14.32-1.4s10.52.47,14.28,1.4c3.75.93,6.7,2.23,8.84,3.91,2.14,1.67,3.63,3.67,4.46,6s1.26,4.92,1.26,7.77v31.71ZM315.79,1019.93c0,1.24.47,2.28,1.4,3.12.93.84,3.07,1.26,6.42,1.26s5.49-.42,6.42-1.26c.93-.84,1.4-1.87,1.4-3.12v-25.02c0-1.18-.46-2.19-1.4-3.02-.93-.84-3.07-1.25-6.42-1.25s-5.49.42-6.42,1.25c-.93.84-1.4,1.85-1.4,3.02v25.02Z" class="cls-1"/><path d="M382.01,1040.86h-14.42c-1.18,0-2.03-.26-2.56-.79-.53-.53-.79-1.38-.79-2.56v-60.26c0-1.18.26-2.03.79-2.56.53-.53,1.38-.79,2.56-.79h41.48c1.18,0,2.03.26,2.56.79.53.53.79,1.38.79,2.56v11.07c0,1.18-.26,2.03-.79,2.56s-1.38.79-2.56.79h-23.72v9.67h16.18c1.18,0,2.03.26,2.56.79.53.53.79,1.38.79,2.56v11.16c0,1.18-.26,2.03-.79,2.56-.53.53-1.38.79-2.56.79h-16.18v18.32c0,1.18-.26,2.03-.79,2.56s-1.38.79-2.56.79Z" class="cls-1"/><path d="M468.22,1040.86h-43.15c-1.18,0-2.03-.26-2.56-.79-.53-.53-.79-1.38-.79-2.56v-60.26c0-1.18.26-2.03.79-2.56.53-.53,1.38-.79,2.56-.79h43.15c1.18,0,2.03.26,2.56.79.53.53.79,1.38.79,2.56v10.88c0,1.18-.26,2.03-.79,2.56-.53.53-1.38.79-2.56.79h-25.67v7.16h18.13c1.18,0,2.03.26,2.56.79.53.53.79,1.38.79,2.56v9.95c0,1.18-.26,2.03-.79,2.56s-1.38.79-2.56.79h-18.13v8h25.67c1.18,0,2.03.26,2.56.79.53.53.79,1.38.79,2.56v10.88c0,1.18-.26,2.03-.79,2.56-.53.53-1.38.79-2.56.79Z" class="cls-1"/><path d="M500.21,1040.86h-14.32c-1.18,0-2.03-.26-2.56-.79-.53-.53-.79-1.38-.79-2.56v-60.26c0-1.18.26-2.03.79-2.56.53-.53,1.38-.79,2.56-.79h30.97c6.94,0,11.73,1.44,14.37,4.32,2.63,2.88,3.95,6.62,3.95,11.21v4.28c0,2.6-.39,4.82-1.16,6.65-.78,1.83-2.12,3.15-4.05,3.95,3.35.37,6.06,1.74,8.14,4.09,2.08,2.36,3.12,5.49,3.12,9.39v19.72c0,1.18-.26,2.03-.79,2.56-.53.53-1.38.79-2.56.79h-14.42c-1.18,0-2.03-.26-2.56-.79-.53-.53-.79-1.38-.79-2.56v-14.23c0-1.36-.26-2.37-.79-3.02-.53-.65-1.44-.98-2.74-.98h-13.02v18.23c0,1.18-.26,2.03-.79,2.56-.53.53-1.38.79-2.56.79ZM503.56,990.64v11.9h6.98c1.61,0,2.7-.42,3.25-1.25s.84-1.88.84-3.12v-3.16c0-1.24-.28-2.28-.84-3.12s-1.64-1.25-3.25-1.25h-6.98Z" class="cls-1"/><path d="M580.47,1040.86h-15.07c-1.18,0-2.03-.26-2.56-.79-.53-.53-.79-1.38-.79-2.56v-45.66h-13.67c-1.18,0-2.03-.26-2.56-.79-.53-.53-.79-1.38-.79-2.56v-11.25c0-1.18.26-2.03.79-2.56.53-.53,1.38-.79,2.56-.79h49.1c1.18,0,2.03.26,2.56.79.53.53.79,1.38.79,2.56v11.25c0,1.18-.26,2.03-.79,2.56-.53.53-1.38.79-2.56.79h-13.67v45.66c0,1.18-.26,2.03-.79,2.56-.53.53-1.38.79-2.56.79Z" class="cls-1"/><path d="M625.11,1037.51c0,1.18-.26,2.03-.79,2.56-.53.53-1.38.79-2.56.79h-13.67c-1.18,0-2.03-.26-2.56-.79-.53-.53-.79-1.38-.79-2.56v-24.55c0-1.86.29-4,.88-6.42.59-2.42,1.5-5.24,2.74-8.46l8.09-21.11c.37-1.05.94-1.83,1.72-2.33.77-.5,1.78-.74,3.02-.74h25.02c1.18,0,2.15.25,2.93.74.77.5,1.35,1.27,1.72,2.33l8.09,21.11c1.24,3.22,2.15,6.04,2.74,8.46.59,2.42.88,4.56.88,6.42v24.55c0,1.18-.26,2.03-.79,2.56-.53.53-1.38.79-2.56.79h-14.04c-1.24,0-2.16-.26-2.74-.79-.59-.53-.88-1.38-.88-2.56v-13.02h-16.46v13.02ZM630.41,993.43l-4.37,14.14h14.6l-4.37-14.14c-.25-.56-.51-.96-.79-1.21-.28-.25-.6-.37-.98-.37h-2.33c-.37,0-.7.12-.98.37-.28.25-.54.65-.79,1.21Z" class="cls-1"/><path d="M705.09,1040.86h-29.39c-1.18,0-2.03-.26-2.56-.79-.53-.53-.79-1.38-.79-2.56v-10.88c0-1.18.26-2.03.79-2.56.53-.53,1.38-.79,2.56-.79h25.02c.81,0,1.41-.26,1.81-.79.4-.53.6-1.16.6-1.91,0-1.05-.2-1.83-.6-2.32-.4-.5-1.01-.77-1.81-.84l-13.95-1.95c-4.34-.62-7.83-2.05-10.46-4.28-2.64-2.23-3.95-5.95-3.95-11.16v-9.76c0-5.27,1.7-9.31,5.11-12.14,3.41-2.82,8.12-4.23,14.14-4.23h26.04c1.18,0,2.03.26,2.56.79.53.53.79,1.38.79,2.56v11.07c0,1.18-.26,2.03-.79,2.56s-1.38.79-2.56.79h-21.67c-.81,0-1.43.26-1.86.79-.43.53-.65,1.19-.65,2s.22,1.49.65,2.05c.43.56,1.05.87,1.86.93l13.86,1.86c4.34.62,7.84,2.05,10.51,4.28,2.67,2.23,4,5.95,4,11.16v9.76c0,5.27-1.72,9.32-5.16,12.14-3.44,2.82-8.14,4.23-14.09,4.23Z" class="cls-1"/><path d="M773.16,1040.86h-14.42c-1.18,0-2.03-.26-2.56-.79-.53-.53-.79-1.38-.79-2.56v-60.26c0-1.18.26-2.03.79-2.56.53-.53,1.38-.79,2.56-.79h28.46c8.43,0,14.2,1.67,17.3,5.02,3.1,3.35,4.65,7.72,4.65,13.11v11.9c0,5.39-1.55,9.76-4.65,13.11-3.1,3.35-8.87,5.02-17.3,5.02h-10.7v15.44c0,1.18-.26,2.03-.79,2.56s-1.38.79-2.56.79ZM776.32,991.29v14.04h8.37c1.8,0,2.98-.46,3.53-1.39s.84-1.98.84-3.16v-4.93c0-1.18-.28-2.23-.84-3.16s-1.74-1.4-3.53-1.4h-8.37Z" class="cls-1"/><path d="M836.87,1037.51c0,1.18-.26,2.03-.79,2.56-.53.53-1.38.79-2.56.79h-13.67c-1.18,0-2.03-.26-2.56-.79-.53-.53-.79-1.38-.79-2.56v-24.55c0-1.86.29-4,.88-6.42.59-2.42,1.5-5.24,2.74-8.46l8.09-21.11c.37-1.05.94-1.83,1.72-2.33.77-.5,1.78-.74,3.02-.74h25.02c1.18,0,2.15.25,2.93.74.77.5,1.35,1.27,1.72,2.33l8.09,21.11c1.24,3.22,2.15,6.04,2.74,8.46.59,2.42.88,4.56.88,6.42v24.55c0,1.18-.26,2.03-.79,2.56-.53.53-1.38.79-2.56.79h-14.04c-1.24,0-2.16-.26-2.74-.79-.59-.53-.88-1.38-.88-2.56v-13.02h-16.46v13.02ZM842.17,993.43l-4.37,14.14h14.6l-4.37-14.14c-.25-.56-.51-.96-.79-1.21-.28-.25-.6-.37-.98-.37h-2.33c-.37,0-.7.12-.98.37-.28.25-.54.65-.79,1.21Z" class="cls-1"/><path d="M903.55,1040.86h-14.42c-1.18,0-2.03-.26-2.56-.79-.53-.53-.79-1.38-.79-2.56v-60.26c0-1.18.26-2.03.79-2.56.53-.53,1.38-.79,2.56-.79h28.46c8.43,0,14.2,1.67,17.3,5.02,3.1,3.35,4.65,7.72,4.65,13.11v11.9c0,5.39-1.55,9.76-4.65,13.11-3.1,3.35-8.87,5.02-17.3,5.02h-10.7v15.44c0,1.18-.26,2.03-.79,2.56s-1.38.79-2.56.79ZM906.71,991.29v14.04h8.37c1.8,0,2.98-.46,3.53-1.39s.84-1.98.84-3.16v-4.93c0-1.18-.28-2.23-.84-3.16s-1.74-1.4-3.53-1.4h-8.37Z" class="cls-1"/><path d="M967.25,1037.51c0,1.18-.26,2.03-.79,2.56-.53.53-1.38.79-2.56.79h-13.67c-1.18,0-2.03-.26-2.56-.79-.53-.53-.79-1.38-.79-2.56v-24.55c0-1.86.29-4,.88-6.42.59-2.42,1.5-5.24,2.74-8.46l8.09-21.11c.37-1.05.94-1.83,1.72-2.33.77-.5,1.78-.74,3.02-.74h25.02c1.18,0,2.15.25,2.93.74.77.5,1.35,1.27,1.72,2.33l8.09,21.11c1.24,3.22,2.15,6.04,2.74,8.46.59,2.42.88,4.56.88,6.42v24.55c0,1.18-.26,2.03-.79,2.56-.53.53-1.38.79-2.56.79h-14.04c-1.24,0-2.16-.26-2.74-.79-.59-.53-.88-1.38-.88-2.56v-13.02h-16.46v13.02ZM991.9,966.83l-32.46,4c-1.06.12-1.85-.09-2.37-.65-.53-.56-.79-1.36-.79-2.42v-8.93c0-1.18.26-2,.79-2.46.53-.46,1.38-.76,2.56-.88l32.46-4c1.05-.12,1.84.09,2.37.65.53.56.79,1.36.79,2.42v8.93c0,1.18-.26,2-.79,2.46-.53.46-1.38.76-2.56.88ZM972.55,993.43l-4.37,14.14h14.6l-4.37-14.14c-.25-.56-.51-.96-.79-1.21-.28-.25-.6-.37-.98-.37h-2.33c-.37,0-.7.12-.98.37-.28.25-.54.65-.79,1.21Z" class="cls-1"/><path d="M1036.72,1016.49h-14.42c-1.18,0-2.03-.26-2.56-.79-.53-.53-.82-1.38-.88-2.56l-1.39-35.9c-.06-1.18.15-2.03.65-2.56.5-.53,1.33-.79,2.51-.79h17.76c1.18,0,2.01.26,2.51.79.5.53.71,1.38.65,2.56l-1.3,35.9c-.06,1.18-.37,2.03-.93,2.56-.56.53-1.43.79-2.6.79ZM1038.12,1040.86h-17.11c-1.18,0-2.03-.26-2.56-.79-.53-.53-.79-1.38-.79-2.56v-12.18c0-1.18.26-2.03.79-2.56.53-.53,1.38-.79,2.56-.79h17.11c1.18,0,2.03.26,2.56.79.53.53.79,1.38.79,2.56v12.18c0,1.18-.26,2.03-.79,2.56s-1.38.79-2.56.79Z" class="cls-1"/></g></svg>