<svg xmlns="http://www.w3.org/2000/svg" xmlns:xlink="http://www.w3.org/1999/xlink" viewBox="0 0 1080 1080"><defs><style>.cls-1{fill:#ff5574}.cls-2{fill:#ccc;mix-blend-mode:multiply}.cls-3{fill:#fff475}.cls-4{fill:#ffa231}.cls-5,.cls-6{fill:#fff}.cls-7{fill:#1e1e1e}.cls-8{fill:#8bb0cc}.cls-6{font-family:Orbitron-ExtraBold,Orbitron;font-size:112.2px;font-variation-settings:&apos;wght&apos; 800;font-weight:700;letter-spacing:.02em}.cls-9{fill:#ffca48}.cls-10{fill:none}.cls-11{fill:#ff95a2}.cls-12{fill:#f13617}.cls-13{isolation:isolate}.cls-14{fill:#1a1a1a}.cls-15{fill:#af0035}.cls-16{fill:#b9dae9}.cls-17{fill:#ff5a20}.cls-18{fill:#00ce00}.cls-19{clip-path:url(#clippath)}</style><clipPath id="clippath"><rect width="1392" height="491.39" x="1102.45" y="-761.43" class="cls-10"/></clipPath></defs><g class="cls-13"><g id="Capa_1" data-name="Capa 1"><path d="M0,0v1080h1080V0H0ZM1040,1040H40V40h1000v1000Z" class="cls-18"/><g class="cls-19"><polyline points="3631.64 -656.86 3631.64 -1246.9 1028.19 -1246.9 1028.19 238.88 3631.64 238.88 3631.64 -352.49" class="cls-7"/></g><rect width="649.68" height="162.45" x="15.35" y="892.09" class="cls-18" rx="21.52" ry="21.52"/><g><text class="cls-6" transform="translate(68.32 1011.52)"><tspan x="0" y="0">OFERTA</tspan></text><g><path d="M955.55,929.27s-.09,0-.14,0c-.01,0-.03,0-.04,0-.05,0-.1.01-.14.02-.05,0-.09.01-.14.02-.05,0-.09.02-.14.03-.04,0-.08.02-.12.03h-.02s-.03.01-.04.02c-.06.02-.12.04-.18.06-.04.02-.09.03-.13.05-.04.02-.09.04-.13.06-.04.02-.08.04-.12.07-.04.02-.08.05-.12.07-.04.02-.08.05-.12.08-.04.03-.08.05-.11.08-.04.03-.07.06-.11.09-.04.03-.07.06-.11.09-.03.03-.07.06-.1.1-.03.03-.06.07-.1.1-.03.04-.06.07-.09.11-.03.04-.06.07-.09.11-.03.04-.05.08-.08.12-.03.04-.05.08-.07.12-.02.04-.05.08-.07.13-.02.04-.04.08-.06.13-.02.04-.04.09-.05.13-.02.04-.03.09-.05.13-.02.05-.03.09-.04.14-.01.04-.02.09-.03.14,0,.05-.02.09-.03.14,0,.05-.01.09-.02.14,0,.05-.01.09-.02.14,0,.05,0,.09,0,.14v.05s0,.09,0,.14c0,.02,0,.03,0,.05,0,.05.01.09.02.14,0,.05.01.09.02.14,0,.05.02.09.03.14,0,.04.02.08.03.13v.02s.01.03.02.04c.02.06.04.12.06.18.02.04.03.09.05.13.02.04.04.09.06.13.02.04.04.08.07.12.02.04.05.08.07.12.03.04.05.08.08.12.03.04.05.08.08.11.03.04.06.07.09.11.03.04.06.07.09.11.03.03.06.07.1.1.03.03.07.06.1.1.04.03.07.06.11.09.04.03.07.06.11.09.04.03.08.05.12.08.04.03.08.05.12.07.04.02.08.05.12.07.04.02.08.04.13.06.04.02.09.04.13.05.04.02.09.03.13.05.04.01.09.03.14.04.05.01.09.02.14.04.05.01.09.02.14.03.05,0,.09.02.14.02.05,0,.09.01.14.02.05,0,.09,0,.14,0,.02,0,.04,0,.05,0,.05,0,.09,0,.14,0,.01,0,.03,0,.04,0,.05,0,.1-.01.14-.02.05,0,.09-.01.14-.02.05,0,.09-.02.14-.03.04,0,.08-.02.13-.03h.02s.03-.01.04-.02c.06-.02.13-.04.19-.06.04-.02.09-.03.13-.05.04-.02.09-.04.13-.06.04-.02.08-.04.12-.07.04-.02.08-.05.12-.07.04-.02.08-.05.12-.08.04-.03.08-.05.11-.08.04-.03.07-.06.11-.09.04-.03.07-.06.11-.09.03-.03.07-.07.1-.1.03-.03.06-.07.1-.1.03-.04.06-.07.09-.11.03-.04.06-.07.09-.11.03-.04.05-.08.08-.12.03-.04.05-.08.07-.12.02-.04.05-.08.07-.13.02-.04.04-.08.06-.13.02-.04.04-.09.05-.13.02-.04.03-.09.05-.13.01-.04.03-.09.04-.13.01-.05.02-.09.04-.14.01-.05.02-.09.03-.14,0-.05.02-.09.02-.14,0-.05.01-.09.02-.14,0-.05,0-.09,0-.14v-.05s0-.09,0-.14c0-.01,0-.03,0-.04,0-.05-.01-.1-.02-.14,0-.05-.01-.09-.02-.14,0-.05-.02-.09-.03-.14,0-.04-.02-.08-.03-.13v-.02s-.01-.03-.02-.04c-.02-.06-.04-.12-.06-.18-.02-.05-.03-.09-.05-.13-.02-.04-.04-.09-.06-.13-.02-.04-.04-.08-.07-.12-.02-.04-.05-.08-.07-.12-.02-.04-.05-.08-.08-.12-.03-.04-.05-.08-.08-.11-.03-.04-.06-.07-.09-.11-.03-.04-.06-.07-.09-.11-.03-.03-.06-.07-.1-.1-.03-.03-.07-.07-.1-.1-.04-.03-.07-.06-.11-.09-.04-.03-.07-.06-.11-.09-.04-.03-.08-.05-.12-.08-.04-.03-.08-.05-.12-.07-.04-.02-.08-.05-.12-.07-.04-.02-.09-.04-.13-.06-.04-.02-.09-.04-.13-.05-.04-.02-.09-.03-.13-.05-.04-.01-.09-.03-.14-.04-.05-.01-.09-.02-.14-.04-.05-.01-.09-.02-.14-.03-.05,0-.09-.02-.14-.02-.05,0-.09-.01-.14-.02-.05,0-.09,0-.14,0-.02,0-.04,0-.05,0h0ZM955.55,929.27" class="cls-5"/><path d="M955.55,929.27s-.09,0-.14,0c-.01,0-.03,0-.04,0-.05,0-.1.01-.14.02-.05,0-.09.01-.14.02-.05,0-.09.02-.14.03-.04,0-.08.02-.12.03h-.02s-.03.01-.04.02c-.06.02-.12.04-.18.06-.04.02-.09.03-.13.05-.04.02-.09.04-.13.06-.04.02-.08.04-.12.07-.04.02-.08.05-.12.07-.04.02-.08.05-.12.08-.04.03-.08.05-.11.08-.04.03-.07.06-.11.09-.04.03-.07.06-.11.09-.03.03-.07.06-.1.1-.03.03-.06.07-.1.1-.03.04-.06.07-.09.11-.03.04-.06.07-.09.11-.03.04-.05.08-.08.12-.03.04-.05.08-.07.12-.02.04-.05.08-.07.13-.02.04-.04.08-.06.13-.02.04-.04.09-.05.13-.02.04-.03.09-.05.13-.02.05-.03.09-.04.14-.01.04-.02.09-.03.14,0,.05-.02.09-.03.14,0,.05-.01.09-.02.14,0,.05-.01.09-.02.14,0,.05,0,.09,0,.14v.05s0,.09,0,.14c0,.02,0,.03,0,.05,0,.05.01.09.02.14,0,.05.01.1.02.14,0,.05.02.09.03.14,0,.04.02.08.03.12v.02s.01.03.02.04c.02.06.04.12.06.18.02.04.03.09.05.13.02.04.04.09.06.13.02.04.04.08.07.12.02.04.05.08.07.12.03.04.05.08.08.12.03.04.05.08.08.11.03.04.06.07.09.11.03.04.06.07.09.11.03.03.06.07.1.1.03.03.07.06.1.1.04.03.07.06.11.09.04.03.07.06.11.09.04.03.08.05.12.08.04.03.08.05.12.07.04.02.08.05.12.07.04.02.08.04.13.06.04.02.09.04.13.05.04.02.09.03.13.05.04.01.09.03.14.04.05.01.09.02.14.03.05,0,.09.02.14.03.05,0,.09.01.14.02.05,0,.09.01.14.02.05,0,.09,0,.14,0h.05s.09,0,.14,0c.01,0,.03,0,.04,0,.05,0,.1-.01.14-.02.05,0,.09-.01.14-.02.05,0,.09-.02.14-.03.04,0,.08-.02.13-.03h.02s.03-.01.04-.02c.06-.02.13-.04.19-.06.04-.02.09-.03.13-.05.04-.02.09-.04.13-.06.04-.02.08-.04.12-.07.04-.02.08-.05.12-.07.04-.02.08-.05.12-.08.04-.03.08-.05.11-.08.04-.03.07-.06.11-.09.04-.03.07-.06.11-.09.03-.03.07-.06.1-.1.03-.03.06-.07.1-.1.03-.04.06-.07.09-.11.03-.04.06-.07.09-.11.03-.04.05-.08.08-.12.03-.04.05-.08.07-.12.02-.04.05-.08.07-.13.02-.04.04-.08.06-.13.02-.04.04-.09.05-.13.02-.04.03-.09.05-.13.01-.04.03-.09.04-.13.01-.05.02-.09.04-.14.01-.05.02-.09.03-.14,0-.05.02-.09.02-.14,0-.05.01-.09.02-.14,0-.05,0-.09,0-.14v-.05s0-.1,0-.14c0-.01,0-.03,0-.04,0-.05-.01-.1-.02-.14,0-.05-.01-.09-.02-.14,0-.05-.02-.09-.03-.14,0-.04-.02-.08-.03-.12v-.02s-.01-.03-.02-.04c-.02-.06-.04-.12-.06-.18-.02-.04-.03-.09-.05-.13-.02-.04-.04-.09-.06-.13-.02-.04-.04-.08-.07-.12-.02-.04-.05-.08-.07-.12-.02-.04-.05-.08-.08-.12-.03-.04-.05-.08-.08-.11-.03-.04-.06-.07-.09-.11-.03-.04-.06-.07-.09-.11-.03-.03-.06-.07-.1-.1-.03-.03-.07-.06-.1-.1-.04-.03-.07-.06-.11-.09-.04-.03-.07-.06-.11-.09-.04-.03-.08-.05-.12-.08-.04-.03-.08-.05-.12-.07-.04-.02-.08-.05-.12-.07-.04-.02-.09-.04-.13-.06-.04-.02-.09-.04-.13-.05-.04-.02-.09-.03-.13-.05-.04-.01-.09-.03-.14-.04-.05-.01-.09-.02-.14-.04-.05-.01-.09-.02-.14-.03-.05,0-.09-.02-.14-.02-.05,0-.09-.01-.14-.02-.05,0-.09,0-.14,0h-.05ZM955.55,929.27" class="cls-5"/><path d="M955.55,929.27s-.09,0-.14,0c-.01,0-.03,0-.04,0-.05,0-.1.01-.14.02-.05,0-.09.01-.14.02-.05,0-.09.02-.14.03-.04,0-.08.02-.12.03h-.02s-.03.01-.04.02c-.06.02-.12.04-.18.06-.04.02-.09.03-.13.05-.04.02-.09.04-.13.06-.04.02-.08.04-.12.07-.04.02-.08.05-.12.07-.04.02-.08.05-.12.08-.04.03-.08.05-.11.08-.04.03-.07.06-.11.09-.04.03-.07.06-.11.09-.03.03-.07.06-.1.1-.03.03-.06.07-.1.1-.03.04-.06.07-.09.11-.03.04-.06.07-.09.11-.03.04-.05.08-.08.12-.03.04-.05.08-.07.12-.02.04-.05.08-.07.13-.02.04-.04.08-.06.13-.02.04-.04.09-.05.13-.02.04-.03.09-.05.13-.02.05-.03.09-.04.14-.01.04-.02.09-.03.14,0,.05-.02.09-.03.14,0,.05-.01.09-.02.14,0,.05-.01.09-.02.14,0,.05,0,.09,0,.14v.05s0,.09,0,.14c0,.02,0,.03,0,.05,0,.05.01.09.02.14,0,.05.01.1.02.14,0,.05.02.09.03.14,0,.04.02.08.03.12v.02s.01.03.02.04c.02.06.04.12.06.18.02.04.03.09.05.13.02.04.04.09.06.13.02.04.04.08.07.12.02.04.05.08.07.12.03.04.05.08.08.12.03.04.05.08.08.11.03.04.06.07.09.11.03.04.06.07.09.11.03.03.06.07.1.1.03.03.07.06.1.1.04.03.07.06.11.09.04.03.07.06.11.09.04.03.08.05.12.08.04.03.08.05.12.07.04.02.08.05.12.07.04.02.08.04.13.06.04.02.09.04.13.05.04.02.09.03.13.05.04.01.09.03.14.04.05.01.09.02.14.03.05,0,.09.02.14.03.05,0,.09.01.14.02.05,0,.09.01.14.02.05,0,.09,0,.14,0h.05s.09,0,.14,0c.01,0,.03,0,.04,0,.05,0,.1-.01.14-.02.05,0,.09-.01.14-.02.05,0,.09-.02.14-.03.04,0,.08-.02.13-.03h.02s.03-.01.04-.02c.06-.02.13-.04.19-.06.04-.02.09-.03.13-.05.04-.02.09-.04.13-.06.04-.02.08-.04.12-.07.04-.02.08-.05.12-.07.04-.02.08-.05.12-.08.04-.03.08-.05.11-.08.04-.03.07-.06.11-.09.04-.03.07-.06.11-.09.03-.03.07-.06.1-.1.03-.03.06-.07.1-.1.03-.04.06-.07.09-.11.03-.04.06-.07.09-.11.03-.04.05-.08.08-.12.03-.04.05-.08.07-.12.02-.04.05-.08.07-.13.02-.04.04-.08.06-.13.02-.04.04-.09.05-.13.02-.04.03-.09.05-.13.01-.04.03-.09.04-.13.01-.05.02-.09.04-.14.01-.05.02-.09.03-.14,0-.05.02-.09.02-.14,0-.05.01-.09.02-.14,0-.05,0-.09,0-.14v-.05s0-.1,0-.14c0-.01,0-.03,0-.04,0-.05-.01-.1-.02-.14,0-.05-.01-.09-.02-.14,0-.05-.02-.09-.03-.14,0-.04-.02-.08-.03-.12v-.02s-.01-.03-.02-.04c-.02-.06-.04-.12-.06-.18-.02-.04-.03-.09-.05-.13-.02-.04-.04-.09-.06-.13-.02-.04-.04-.08-.07-.12-.02-.04-.05-.08-.07-.12-.02-.04-.05-.08-.08-.12-.03-.04-.05-.08-.08-.11-.03-.04-.06-.07-.09-.11-.03-.04-.06-.07-.09-.11-.03-.03-.06-.07-.1-.1-.03-.03-.07-.06-.1-.1-.04-.03-.07-.06-.11-.09-.04-.03-.07-.06-.11-.09-.04-.03-.08-.05-.12-.08-.04-.03-.08-.05-.12-.07-.04-.02-.08-.05-.12-.07-.04-.02-.09-.04-.13-.06-.04-.02-.09-.04-.13-.05-.04-.02-.09-.03-.13-.05-.04-.01-.09-.03-.14-.04-.05-.01-.09-.02-.14-.04-.05-.01-.09-.02-.14-.03-.05,0-.09-.02-.14-.02-.05,0-.09-.01-.14-.02-.05,0-.09,0-.14,0h-.05ZM955.55,929.27" class="cls-5"/><path d="M955.55,929.27s-.09,0-.14,0c-.01,0-.03,0-.04,0-.05,0-.1.01-.14.02-.05,0-.09.01-.14.02-.05,0-.09.02-.14.03-.04,0-.08.02-.12.03h-.02s-.03.01-.04.02c-.06.02-.12.04-.18.06-.04.02-.09.03-.13.05-.04.02-.09.04-.13.06-.04.02-.08.04-.12.07-.04.02-.08.05-.12.07-.04.02-.08.05-.12.08-.04.03-.08.05-.11.08-.04.03-.07.06-.11.09-.04.03-.07.06-.11.09-.03.03-.07.06-.1.1-.03.03-.06.07-.1.1-.03.04-.06.07-.09.11-.03.04-.06.07-.09.11-.03.04-.05.08-.08.12-.03.04-.05.08-.07.12-.02.04-.05.08-.07.13-.02.04-.04.08-.06.13-.02.04-.04.09-.05.13-.02.04-.03.09-.05.13-.02.05-.03.09-.04.14-.01.04-.02.09-.03.14,0,.05-.02.09-.03.14,0,.05-.01.09-.02.14,0,.05-.01.09-.02.14,0,.05,0,.09,0,.14v.05s0,.09,0,.14c0,.02,0,.03,0,.05,0,.05.01.09.02.14,0,.05.01.1.02.14,0,.05.02.09.03.14,0,.04.02.08.03.12v.02s.01.03.02.04c.02.06.04.12.06.18.02.04.03.09.05.13.02.04.04.09.06.13.02.04.04.08.07.12.02.04.05.08.07.12.03.04.05.08.08.12.03.04.05.08.08.11.03.04.06.07.09.11.03.04.06.07.09.11.03.03.06.07.1.1.03.03.07.06.1.1.04.03.07.06.11.09.04.03.07.06.11.09.04.03.08.05.12.08.04.03.08.05.12.07.04.02.08.05.12.07.04.02.08.04.13.06.04.02.09.04.13.05.04.02.09.03.13.05.04.01.09.03.14.04.05.01.09.02.14.03.05,0,.09.02.14.03.05,0,.09.01.14.02.05,0,.09.01.14.02.05,0,.09,0,.14,0h.05s.09,0,.14,0c.01,0,.03,0,.04,0,.05,0,.1-.01.14-.02.05,0,.09-.01.14-.02.05,0,.09-.02.14-.03.04,0,.08-.02.13-.03h.02s.03-.01.04-.02c.06-.02.13-.04.19-.06.04-.02.09-.03.13-.05.04-.02.09-.04.13-.06.04-.02.08-.04.12-.07.04-.02.08-.05.12-.07.04-.02.08-.05.12-.08.04-.03.08-.05.11-.08.04-.03.07-.06.11-.09.04-.03.07-.06.11-.09.03-.03.07-.06.1-.1.03-.03.06-.07.1-.1.03-.04.06-.07.09-.11.03-.04.06-.07.09-.11.03-.04.05-.08.08-.12.03-.04.05-.08.07-.12.02-.04.05-.08.07-.13.02-.04.04-.08.06-.13.02-.04.04-.09.05-.13.02-.04.03-.09.05-.13.01-.04.03-.09.04-.13.01-.05.02-.09.04-.14.01-.05.02-.09.03-.14,0-.05.02-.09.02-.14,0-.05.01-.09.02-.14,0-.05,0-.09,0-.14v-.05s0-.1,0-.14c0-.01,0-.03,0-.04,0-.05-.01-.1-.02-.14,0-.05-.01-.09-.02-.14,0-.05-.02-.09-.03-.14,0-.04-.02-.08-.03-.12v-.02s-.01-.03-.02-.04c-.02-.06-.04-.12-.06-.18-.02-.04-.03-.09-.05-.13-.02-.04-.04-.09-.06-.13-.02-.04-.04-.08-.07-.12-.02-.04-.05-.08-.07-.12-.02-.04-.05-.08-.08-.12-.03-.04-.05-.08-.08-.11-.03-.04-.06-.07-.09-.11-.03-.04-.06-.07-.09-.11-.03-.03-.06-.07-.1-.1-.03-.03-.07-.06-.1-.1-.04-.03-.07-.06-.11-.09-.04-.03-.07-.06-.11-.09-.04-.03-.08-.05-.12-.08-.04-.03-.08-.05-.12-.07-.04-.02-.08-.05-.12-.07-.04-.02-.09-.04-.13-.06-.04-.02-.09-.04-.13-.05-.04-.02-.09-.03-.13-.05-.04-.01-.09-.03-.14-.04-.05-.01-.09-.02-.14-.04-.05-.01-.09-.02-.14-.03-.05,0-.09-.02-.14-.02-.05,0-.09-.01-.14-.02-.05,0-.09,0-.14,0h-.05ZM955.55,929.27" class="cls-5"/><path d="M955.55,929.27s-.09,0-.14,0c-.01,0-.03,0-.04,0-.05,0-.1.01-.14.02-.05,0-.09.01-.14.02-.05,0-.09.02-.14.03-.04,0-.08.02-.12.03h-.02s-.03.01-.04.02c-.06.02-.12.04-.18.06-.04.02-.09.03-.13.05-.04.02-.09.04-.13.06-.04.02-.08.04-.12.07-.04.02-.08.05-.12.07-.04.02-.08.05-.12.08-.04.03-.08.05-.11.08-.04.03-.07.06-.11.09-.04.03-.07.06-.11.09-.03.03-.07.06-.1.1-.03.03-.06.07-.1.1-.03.04-.06.07-.09.11-.03.04-.06.07-.09.11-.03.04-.05.08-.08.12-.03.04-.05.08-.07.12-.02.04-.05.08-.07.13-.02.04-.04.08-.06.13-.02.04-.04.09-.05.13-.02.04-.03.09-.05.13-.02.05-.03.09-.04.14-.01.04-.02.09-.03.14,0,.05-.02.09-.03.14,0,.05-.01.09-.02.14,0,.05-.01.09-.02.14,0,.05,0,.09,0,.14v.05s0,.09,0,.14c0,.02,0,.03,0,.05,0,.05.01.09.02.14,0,.05.01.1.02.14,0,.05.02.09.03.14,0,.04.02.08.03.12v.02s.01.03.02.04c.02.06.04.12.06.18.02.04.03.09.05.13.02.04.04.09.06.13.02.04.04.08.07.12.02.04.05.08.07.12.03.04.05.08.08.12.03.04.05.08.08.11.03.04.06.07.09.11.03.04.06.07.09.11.03.03.06.07.1.1.03.03.07.06.1.1.04.03.07.06.11.09.04.03.07.06.11.09.04.03.08.05.12.08.04.03.08.05.12.07.04.02.08.05.12.07.04.02.08.04.13.06.04.02.09.04.13.05.04.02.09.03.13.05.04.01.09.03.14.04.05.01.09.02.14.03.05,0,.09.02.14.03.05,0,.09.01.14.02.05,0,.09.01.14.02.05,0,.09,0,.14,0h.05s.09,0,.14,0c.01,0,.03,0,.04,0,.05,0,.1-.01.14-.02.05,0,.09-.01.14-.02.05,0,.09-.02.14-.03.04,0,.08-.02.13-.03h.02s.03-.01.04-.02c.06-.02.13-.04.19-.06.04-.02.09-.03.13-.05.04-.02.09-.04.13-.06.04-.02.08-.04.12-.07.04-.02.08-.05.12-.07.04-.02.08-.05.12-.08.04-.03.08-.05.11-.08.04-.03.07-.06.11-.09.04-.03.07-.06.11-.09.03-.03.07-.06.1-.1.03-.03.06-.07.1-.1.03-.04.06-.07.09-.11.03-.04.06-.07.09-.11.03-.04.05-.08.08-.12.03-.04.05-.08.07-.12.02-.04.05-.08.07-.13.02-.04.04-.08.06-.13.02-.04.04-.09.05-.13.02-.04.03-.09.05-.13.01-.04.03-.09.04-.13.01-.05.02-.09.04-.14.01-.05.02-.09.03-.14,0-.05.02-.09.02-.14,0-.05.01-.09.02-.14,0-.05,0-.09,0-.14v-.05s0-.1,0-.14c0-.01,0-.03,0-.04,0-.05-.01-.1-.02-.14,0-.05-.01-.09-.02-.14,0-.05-.02-.09-.03-.14,0-.04-.02-.08-.03-.12v-.02s-.01-.03-.02-.04c-.02-.06-.04-.12-.06-.18-.02-.04-.03-.09-.05-.13-.02-.04-.04-.09-.06-.13-.02-.04-.04-.08-.07-.12-.02-.04-.05-.08-.07-.12-.02-.04-.05-.08-.08-.12-.03-.04-.05-.08-.08-.11-.03-.04-.06-.07-.09-.11-.03-.04-.06-.07-.09-.11-.03-.03-.06-.07-.1-.1-.03-.03-.07-.06-.1-.1-.04-.03-.07-.06-.11-.09-.04-.03-.07-.06-.11-.09-.04-.03-.08-.05-.12-.08-.04-.03-.08-.05-.12-.07-.04-.02-.08-.05-.12-.07-.04-.02-.09-.04-.13-.06-.04-.02-.09-.04-.13-.05-.04-.02-.09-.03-.13-.05-.04-.01-.09-.03-.14-.04-.05-.01-.09-.02-.14-.04-.05-.01-.09-.02-.14-.03-.05,0-.09-.02-.14-.02-.05,0-.09-.01-.14-.02-.05,0-.09,0-.14,0h-.05ZM955.55,929.27" class="cls-5"/><path d="M955.55,929.27s-.09,0-.14,0c-.01,0-.03,0-.04,0-.05,0-.1.01-.14.02-.05,0-.09.01-.14.02-.05,0-.09.02-.14.03-.04,0-.08.02-.12.03h-.02s-.03.01-.04.02c-.06.02-.12.04-.18.06-.04.02-.09.03-.13.05-.04.02-.09.04-.13.06-.04.02-.08.04-.12.07-.04.02-.08.05-.12.07-.04.02-.08.05-.12.08-.04.03-.08.05-.11.08-.04.03-.07.06-.11.09-.04.03-.07.06-.11.09-.03.03-.07.06-.1.1-.03.03-.06.07-.1.1-.03.04-.06.07-.09.11-.03.04-.06.07-.09.11-.03.04-.05.08-.08.12-.03.04-.05.08-.07.12-.02.04-.05.08-.07.13-.02.04-.04.08-.06.13-.02.04-.04.09-.05.13-.02.04-.03.09-.05.13-.02.05-.03.09-.04.14-.01.04-.02.09-.03.14,0,.05-.02.09-.03.14,0,.05-.01.09-.02.14,0,.05-.01.09-.02.14,0,.05,0,.09,0,.14v.05s0,.09,0,.14c0,.02,0,.03,0,.05,0,.05.01.09.02.14,0,.05.01.1.02.14,0,.05.02.09.03.14,0,.04.02.08.03.12v.02s.01.03.02.04c.02.06.04.12.06.18.02.04.03.09.05.13.02.04.04.09.06.13.02.04.04.08.07.12.02.04.05.08.07.12.03.04.05.08.08.12.03.04.05.08.08.11.03.04.06.07.09.11.03.04.06.07.09.11.03.03.06.07.1.1.03.03.07.06.1.1.04.03.07.06.11.09.04.03.07.06.11.09.04.03.08.05.12.08.04.03.08.05.12.07.04.02.08.05.12.07.04.02.08.04.13.06.04.02.09.04.13.05.04.02.09.03.13.05.04.01.09.03.14.04.05.01.09.02.14.03.05,0,.09.02.14.03.05,0,.09.01.14.02.05,0,.09.01.14.02.05,0,.09,0,.14,0h.05s.09,0,.14,0c.01,0,.03,0,.04,0,.05,0,.1-.01.14-.02.05,0,.09-.01.14-.02.05,0,.09-.02.14-.03.04,0,.08-.02.13-.03h.02s.03-.01.04-.02c.06-.02.13-.04.19-.06.04-.02.09-.03.13-.05.04-.02.09-.04.13-.06.04-.02.08-.04.12-.07.04-.02.08-.05.12-.07.04-.02.08-.05.12-.08.04-.03.08-.05.11-.08.04-.03.07-.06.11-.09.04-.03.07-.06.11-.09.03-.03.07-.06.1-.1.03-.03.06-.07.1-.1.03-.04.06-.07.09-.11.03-.04.06-.07.09-.11.03-.04.05-.08.08-.12.03-.04.05-.08.07-.12.02-.04.05-.08.07-.13.02-.04.04-.08.06-.13.02-.04.04-.09.05-.13.02-.04.03-.09.05-.13.01-.04.03-.09.04-.13.01-.05.02-.09.04-.14.01-.05.02-.09.03-.14,0-.05.02-.09.02-.14,0-.05.01-.09.02-.14,0-.05,0-.09,0-.14v-.05s0-.1,0-.14c0-.01,0-.03,0-.04,0-.05-.01-.1-.02-.14,0-.05-.01-.09-.02-.14,0-.05-.02-.09-.03-.14,0-.04-.02-.08-.03-.12v-.02s-.01-.03-.02-.04c-.02-.06-.04-.12-.06-.18-.02-.04-.03-.09-.05-.13-.02-.04-.04-.09-.06-.13-.02-.04-.04-.08-.07-.12-.02-.04-.05-.08-.07-.12-.02-.04-.05-.08-.08-.12-.03-.04-.05-.08-.08-.11-.03-.04-.06-.07-.09-.11-.03-.04-.06-.07-.09-.11-.03-.03-.06-.07-.1-.1-.03-.03-.07-.06-.1-.1-.04-.03-.07-.06-.11-.09-.04-.03-.07-.06-.11-.09-.04-.03-.08-.05-.12-.08-.04-.03-.08-.05-.12-.07-.04-.02-.08-.05-.12-.07-.04-.02-.09-.04-.13-.06-.04-.02-.09-.04-.13-.05-.04-.02-.09-.03-.13-.05-.04-.01-.09-.03-.14-.04-.05-.01-.09-.02-.14-.04-.05-.01-.09-.02-.14-.03-.05,0-.09-.02-.14-.02-.05,0-.09-.01-.14-.02-.05,0-.09,0-.14,0h-.05ZM955.55,929.27" class="cls-5"/><path d="M955.55,929.27s-.09,0-.14,0c-.01,0-.03,0-.04,0-.05,0-.1.01-.14.02-.05,0-.09.01-.14.02-.05,0-.09.02-.14.03-.04,0-.08.02-.12.03h-.02s-.03.01-.04.02c-.06.02-.12.04-.18.06-.04.02-.09.03-.13.05-.04.02-.09.04-.13.06-.04.02-.08.04-.12.07-.04.02-.08.05-.12.07-.04.02-.08.05-.12.08-.04.03-.08.05-.11.08-.04.03-.07.06-.11.09-.04.03-.07.06-.11.09-.03.03-.07.06-.1.1-.03.03-.06.07-.1.1-.03.04-.06.07-.09.11-.03.04-.06.07-.09.11-.03.04-.05.08-.08.12-.03.04-.05.08-.07.12-.02.04-.05.08-.07.13-.02.04-.04.08-.06.13-.02.04-.04.09-.05.13-.02.04-.03.09-.05.13-.02.05-.03.09-.04.14-.01.04-.02.09-.03.14,0,.05-.02.09-.03.14,0,.05-.01.09-.02.14,0,.05-.01.09-.02.14,0,.05,0,.09,0,.14v.05s0,.09,0,.14c0,.02,0,.03,0,.05,0,.05.01.09.02.14,0,.05.01.1.02.14,0,.05.02.09.03.14,0,.04.02.08.03.12v.02s.01.03.02.04c.02.06.04.12.06.18.02.04.03.09.05.13.02.04.04.09.06.13.02.04.04.08.07.12.02.04.05.08.07.12.03.04.05.08.08.12.03.04.05.08.08.11.03.04.06.07.09.11.03.04.06.07.09.11.03.03.06.07.1.1.03.03.07.06.1.1.04.03.07.06.11.09.04.03.07.06.11.09.04.03.08.05.12.08.04.03.08.05.12.07.04.02.08.05.12.07.04.02.08.04.13.06.04.02.09.04.13.05.04.02.09.03.13.05.04.01.09.03.14.04.05.01.09.02.14.03.05,0,.09.02.14.03.05,0,.09.01.14.02.05,0,.09.01.14.02.05,0,.09,0,.14,0h.05s.09,0,.14,0c.01,0,.03,0,.04,0,.05,0,.1-.01.14-.02.05,0,.09-.01.14-.02.05,0,.09-.02.14-.03.04,0,.08-.02.13-.03h.02s.03-.01.04-.02c.06-.02.13-.04.19-.06.04-.02.09-.03.13-.05.04-.02.09-.04.13-.06.04-.02.08-.04.12-.07.04-.02.08-.05.12-.07.04-.02.08-.05.12-.08.04-.03.08-.05.11-.08.04-.03.07-.06.11-.09.04-.03.07-.06.11-.09.03-.03.07-.06.1-.1.03-.03.06-.07.1-.1.03-.04.06-.07.09-.11.03-.04.06-.07.09-.11.03-.04.05-.08.08-.12.03-.04.05-.08.07-.12.02-.04.05-.08.07-.13.02-.04.04-.08.06-.13.02-.04.04-.09.05-.13.02-.04.03-.09.05-.13.01-.04.03-.09.04-.13.01-.05.02-.09.04-.14.01-.05.02-.09.03-.14,0-.05.02-.09.02-.14,0-.05.01-.09.02-.14,0-.05,0-.09,0-.14v-.05s0-.1,0-.14c0-.01,0-.03,0-.04,0-.05-.01-.1-.02-.14,0-.05-.01-.09-.02-.14,0-.05-.02-.09-.03-.14,0-.04-.02-.08-.03-.12v-.02s-.01-.03-.02-.04c-.02-.06-.04-.12-.06-.18-.02-.04-.03-.09-.05-.13-.02-.04-.04-.09-.06-.13-.02-.04-.04-.08-.07-.12-.02-.04-.05-.08-.07-.12-.02-.04-.05-.08-.08-.12-.03-.04-.05-.08-.08-.11-.03-.04-.06-.07-.09-.11-.03-.04-.06-.07-.09-.11-.03-.03-.06-.07-.1-.1-.03-.03-.07-.06-.1-.1-.04-.03-.07-.06-.11-.09-.04-.03-.07-.06-.11-.09-.04-.03-.08-.05-.12-.08-.04-.03-.08-.05-.12-.07-.04-.02-.08-.05-.12-.07-.04-.02-.09-.04-.13-.06-.04-.02-.09-.04-.13-.05-.04-.02-.09-.03-.13-.05-.04-.01-.09-.03-.14-.04-.05-.01-.09-.02-.14-.04-.05-.01-.09-.02-.14-.03-.05,0-.09-.02-.14-.02-.05,0-.09-.01-.14-.02-.05,0-.09,0-.14,0h-.05ZM955.55,929.27" class="cls-5"/><path d="M955.55,929.27s-.09,0-.14,0c-.01,0-.03,0-.04,0-.05,0-.1.01-.14.02-.05,0-.09.01-.14.02-.05,0-.09.02-.14.03-.04,0-.08.02-.12.03h-.02s-.03.01-.04.02c-.06.02-.12.04-.18.06-.04.02-.09.03-.13.05-.04.02-.09.04-.13.06-.04.02-.08.04-.12.07-.04.02-.08.05-.12.07-.04.02-.08.05-.12.08-.04.03-.08.05-.11.08-.04.03-.07.06-.11.09-.04.03-.07.06-.11.09-.03.03-.07.06-.1.1-.03.03-.06.07-.1.1-.03.04-.06.07-.09.11-.03.04-.06.07-.09.11-.03.04-.05.08-.08.12-.03.04-.05.08-.07.12-.02.04-.05.08-.07.13-.02.04-.04.08-.06.13-.02.04-.04.09-.05.13-.02.04-.03.09-.05.13-.02.05-.03.09-.04.14-.01.04-.02.09-.03.14,0,.05-.02.09-.03.14,0,.05-.01.09-.02.14,0,.05-.01.09-.02.14,0,.05,0,.09,0,.14v.05s0,.09,0,.14c0,.02,0,.03,0,.05,0,.05.01.09.02.14,0,.05.01.1.02.14,0,.05.02.09.03.14,0,.04.02.08.03.12v.02s.01.03.02.04c.02.06.04.12.06.18.02.04.03.09.05.13.02.04.04.09.06.13.02.04.04.08.07.12.02.04.05.08.07.12.03.04.05.08.08.12.03.04.05.08.08.11.03.04.06.07.09.11.03.04.06.07.09.11.03.03.06.07.1.1.03.03.07.06.1.1.04.03.07.06.11.09.04.03.07.06.11.09.04.03.08.05.12.08.04.03.08.05.12.07.04.02.08.05.12.07.04.02.08.04.13.06.04.02.09.04.13.05.04.02.09.03.13.05.04.01.09.03.14.04.05.01.09.02.14.03.05,0,.09.02.14.03.05,0,.09.01.14.02.05,0,.09.01.14.02.05,0,.09,0,.14,0h.05s.09,0,.14,0c.01,0,.03,0,.04,0,.05,0,.1-.01.14-.02.05,0,.09-.01.14-.02.05,0,.09-.02.14-.03.04,0,.08-.02.13-.03h.02s.03-.01.04-.02c.06-.02.13-.04.19-.06.04-.02.09-.03.13-.05.04-.02.09-.04.13-.06.04-.02.08-.04.12-.07.04-.02.08-.05.12-.07.04-.02.08-.05.12-.08.04-.03.08-.05.11-.08.04-.03.07-.06.11-.09.04-.03.07-.06.11-.09.03-.03.07-.06.1-.1.03-.03.06-.07.1-.1.03-.04.06-.07.09-.11.03-.04.06-.07.09-.11.03-.04.05-.08.08-.12.03-.04.05-.08.07-.12.02-.04.05-.08.07-.13.02-.04.04-.08.06-.13.02-.04.04-.09.05-.13.02-.04.03-.09.05-.13.01-.04.03-.09.04-.13.01-.05.02-.09.04-.14.01-.05.02-.09.03-.14,0-.05.02-.09.02-.14,0-.05.01-.09.02-.14,0-.05,0-.09,0-.14v-.05s0-.1,0-.14c0-.01,0-.03,0-.04,0-.05-.01-.1-.02-.14,0-.05-.01-.09-.02-.14,0-.05-.02-.09-.03-.14,0-.04-.02-.08-.03-.12v-.02s-.01-.03-.02-.04c-.02-.06-.04-.12-.06-.18-.02-.04-.03-.09-.05-.13-.02-.04-.04-.09-.06-.13-.02-.04-.04-.08-.07-.12-.02-.04-.05-.08-.07-.12-.02-.04-.05-.08-.08-.12-.03-.04-.05-.08-.08-.11-.03-.04-.06-.07-.09-.11-.03-.04-.06-.07-.09-.11-.03-.03-.06-.07-.1-.1-.03-.03-.07-.06-.1-.1-.04-.03-.07-.06-.11-.09-.04-.03-.07-.06-.11-.09-.04-.03-.08-.05-.12-.08-.04-.03-.08-.05-.12-.07-.04-.02-.08-.05-.12-.07-.04-.02-.09-.04-.13-.06-.04-.02-.09-.04-.13-.05-.04-.02-.09-.03-.13-.05-.04-.01-.09-.03-.14-.04-.05-.01-.09-.02-.14-.04-.05-.01-.09-.02-.14-.03-.05,0-.09-.02-.14-.02-.05,0-.09-.01-.14-.02-.05,0-.09,0-.14,0h-.05ZM955.55,929.27" class="cls-5"/><path d="M955.55,929.27s-.09,0-.14,0c-.01,0-.03,0-.04,0-.05,0-.1.01-.14.02-.05,0-.09.01-.14.02-.05,0-.09.02-.14.03-.04,0-.08.02-.12.03h-.02s-.03.01-.04.02c-.06.02-.12.04-.18.06-.04.02-.09.03-.13.05-.04.02-.09.04-.13.06-.04.02-.08.04-.12.07-.04.02-.08.05-.12.07-.04.02-.08.05-.12.08-.04.03-.08.05-.11.08-.04.03-.07.06-.11.09-.04.03-.07.06-.11.09-.03.03-.07.06-.1.1-.03.03-.06.07-.1.1-.03.04-.06.07-.09.11-.03.04-.06.07-.09.11-.03.04-.05.08-.08.12-.03.04-.05.08-.07.12-.02.04-.05.08-.07.13-.02.04-.04.08-.06.13-.02.04-.04.09-.05.13-.02.04-.03.09-.05.13-.02.05-.03.09-.04.14-.01.04-.02.09-.03.14,0,.05-.02.09-.03.14,0,.05-.01.09-.02.14,0,.05-.01.09-.02.14,0,.05,0,.09,0,.14v.05s0,.09,0,.14c0,.02,0,.03,0,.05,0,.05.01.09.02.14,0,.05.01.1.02.14,0,.05.02.09.03.14,0,.04.02.08.03.12v.02s.01.03.02.04c.02.06.04.12.06.18.02.04.03.09.05.13.02.04.04.09.06.13.02.04.04.08.07.12.02.04.05.08.07.12.03.04.05.08.08.12.03.04.05.08.08.11.03.04.06.07.09.11.03.04.06.07.09.11.03.03.06.07.1.1.03.03.07.06.1.1.04.03.07.06.11.09.04.03.07.06.11.09.04.03.08.05.12.08.04.03.08.05.12.07.04.02.08.05.12.07.04.02.08.04.13.06.04.02.09.04.13.05.04.02.09.03.13.05.04.01.09.03.14.04.05.01.09.02.14.03.05,0,.09.02.14.03.05,0,.09.01.14.02.05,0,.09.01.14.02.05,0,.09,0,.14,0h.05s.09,0,.14,0c.01,0,.03,0,.04,0,.05,0,.1-.01.14-.02.05,0,.09-.01.14-.02.05,0,.09-.02.14-.03.04,0,.08-.02.13-.03h.02s.03-.01.04-.02c.06-.02.13-.04.19-.06.04-.02.09-.03.13-.05.04-.02.09-.04.13-.06.04-.02.08-.04.12-.07.04-.02.08-.05.12-.07.04-.02.08-.05.12-.08.04-.03.08-.05.11-.08.04-.03.07-.06.11-.09.04-.03.07-.06.11-.09.03-.03.07-.06.1-.1.03-.03.06-.07.1-.1.03-.04.06-.07.09-.11.03-.04.06-.07.09-.11.03-.04.05-.08.08-.12.03-.04.05-.08.07-.12.02-.04.05-.08.07-.13.02-.04.04-.08.06-.13.02-.04.04-.09.05-.13.02-.04.03-.09.05-.13.01-.04.03-.09.04-.13.01-.05.02-.09.04-.14.01-.05.02-.09.03-.14,0-.05.02-.09.02-.14,0-.05.01-.09.02-.14,0-.05,0-.09,0-.14v-.05s0-.1,0-.14c0-.01,0-.03,0-.04,0-.05-.01-.1-.02-.14,0-.05-.01-.09-.02-.14,0-.05-.02-.09-.03-.14,0-.04-.02-.08-.03-.12v-.02s-.01-.03-.02-.04c-.02-.06-.04-.12-.06-.18-.02-.04-.03-.09-.05-.13-.02-.04-.04-.09-.06-.13-.02-.04-.04-.08-.07-.12-.02-.04-.05-.08-.07-.12-.02-.04-.05-.08-.08-.12-.03-.04-.05-.08-.08-.11-.03-.04-.06-.07-.09-.11-.03-.04-.06-.07-.09-.11-.03-.03-.06-.07-.1-.1-.03-.03-.07-.06-.1-.1-.04-.03-.07-.06-.11-.09-.04-.03-.07-.06-.11-.09-.04-.03-.08-.05-.12-.08-.04-.03-.08-.05-.12-.07-.04-.02-.08-.05-.12-.07-.04-.02-.09-.04-.13-.06-.04-.02-.09-.04-.13-.05-.04-.02-.09-.03-.13-.05-.04-.01-.09-.03-.14-.04-.05-.01-.09-.02-.14-.04-.05-.01-.09-.02-.14-.03-.05,0-.09-.02-.14-.02-.05,0-.09-.01-.14-.02-.05,0-.09,0-.14,0h-.05ZM955.55,929.27" class="cls-5"/><path d="M955.55,929.27s-.09,0-.14,0c-.01,0-.03,0-.04,0-.05,0-.1.01-.14.02-.05,0-.09.01-.14.02-.05,0-.09.02-.14.03-.04,0-.08.02-.12.03h-.02s-.03.01-.04.02c-.06.02-.12.04-.18.06-.04.02-.09.03-.13.05-.04.02-.09.04-.13.06-.04.02-.08.04-.12.07-.04.02-.08.05-.12.07-.04.02-.08.05-.12.08-.04.03-.08.05-.11.08-.04.03-.07.06-.11.09-.04.03-.07.06-.11.09-.03.03-.07.06-.1.1-.03.03-.06.07-.1.1-.03.04-.06.07-.09.11-.03.04-.06.07-.09.11-.03.04-.05.08-.08.12-.03.04-.05.08-.07.12-.02.04-.05.08-.07.13-.02.04-.04.08-.06.13-.02.04-.04.09-.05.13-.02.04-.03.09-.05.13-.02.05-.03.09-.04.14-.01.04-.02.09-.03.14,0,.05-.02.09-.03.14,0,.05-.01.09-.02.14,0,.05-.01.09-.02.14,0,.05,0,.09,0,.14v.05s0,.09,0,.14c0,.02,0,.03,0,.05,0,.05.01.09.02.14,0,.05.01.1.02.14,0,.05.02.09.03.14,0,.04.02.08.03.12v.02s.01.03.02.04c.02.06.04.12.06.18.02.04.03.09.05.13.02.04.04.09.06.13.02.04.04.08.07.12.02.04.05.08.07.12.03.04.05.08.08.12.03.04.05.08.08.11.03.04.06.07.09.11.03.04.06.07.09.11.03.03.06.07.1.1.03.03.07.06.1.1.04.03.07.06.11.09.04.03.07.06.11.09.04.03.08.05.12.08.04.03.08.05.12.07.04.02.08.05.12.07.04.02.08.04.13.06.04.02.09.04.13.05.04.02.09.03.13.05.04.01.09.03.14.04.05.01.09.02.14.03.05,0,.09.02.14.03.05,0,.09.01.14.02.05,0,.09.01.14.02.05,0,.09,0,.14,0h.05s.09,0,.14,0c.01,0,.03,0,.04,0,.05,0,.1-.01.14-.02.05,0,.09-.01.14-.02.05,0,.09-.02.14-.03.04,0,.08-.02.13-.03h.02s.03-.01.04-.02c.06-.02.13-.04.19-.06.04-.02.09-.03.13-.05.04-.02.09-.04.13-.06.04-.02.08-.04.12-.07.04-.02.08-.05.12-.07.04-.02.08-.05.12-.08.04-.03.08-.05.11-.08.04-.03.07-.06.11-.09.04-.03.07-.06.11-.09.03-.03.07-.06.1-.1.03-.03.06-.07.1-.1.03-.04.06-.07.09-.11.03-.04.06-.07.09-.11.03-.04.05-.08.08-.12.03-.04.05-.08.07-.12.02-.04.05-.08.07-.13.02-.04.04-.08.06-.13.02-.04.04-.09.05-.13.02-.04.03-.09.05-.13.01-.04.03-.09.04-.13.01-.05.02-.09.04-.14.01-.05.02-.09.03-.14,0-.05.02-.09.02-.14,0-.05.01-.09.02-.14,0-.05,0-.09,0-.14v-.05s0-.1,0-.14c0-.01,0-.03,0-.04,0-.05-.01-.1-.02-.14,0-.05-.01-.09-.02-.14,0-.05-.02-.09-.03-.14,0-.04-.02-.08-.03-.12v-.02s-.01-.03-.02-.04c-.02-.06-.04-.12-.06-.18-.02-.04-.03-.09-.05-.13-.02-.04-.04-.09-.06-.13-.02-.04-.04-.08-.07-.12-.02-.04-.05-.08-.07-.12-.02-.04-.05-.08-.08-.12-.03-.04-.05-.08-.08-.11-.03-.04-.06-.07-.09-.11-.03-.04-.06-.07-.09-.11-.03-.03-.06-.07-.1-.1-.03-.03-.07-.06-.1-.1-.04-.03-.07-.06-.11-.09-.04-.03-.07-.06-.11-.09-.04-.03-.08-.05-.12-.08-.04-.03-.08-.05-.12-.07-.04-.02-.08-.05-.12-.07-.04-.02-.09-.04-.13-.06-.04-.02-.09-.04-.13-.05-.04-.02-.09-.03-.13-.05-.04-.01-.09-.03-.14-.04-.05-.01-.09-.02-.14-.04-.05-.01-.09-.02-.14-.03-.05,0-.09-.02-.14-.02-.05,0-.09-.01-.14-.02-.05,0-.09,0-.14,0h-.05ZM955.55,929.27" class="cls-5"/><path d="M1028.46,1058.04c0,4.34-6.9,8.51-19.19,11.58-12.29,3.07-28.95,4.8-46.33,4.8-17.38,0-34.04-1.73-46.33-4.8-12.29-3.07-19.19-7.24-19.19-11.58,0-9.05,29.33-16.38,65.52-16.38s65.52,7.33,65.52,16.38h0ZM1028.46,1058.04" class="cls-2"/><path d="M935.05,1012.07c4.35,16.22,5.12,40.74-1.56,42.52-6.67,1.79-18.26-19.82-22.61-36.05-4.35-16.22,1.93-21.38,6.87-22.7,4.94-1.32,12.95,0,17.3,16.23h0ZM935.05,1012.07" class="cls-17"/><path d="M916.84,992.47c-3.21.86-7.05,3.16-9.17,7.65-2.12,4.49-2.47,10.72-.17,19.33,2.27,8.49,6.33,18.11,10.8,25.66,2.24,3.77,4.55,7.01,7.01,9.4,2.46,2.39,5.46,4.43,9.07,3.46,3.61-.97,5.18-4.23,6.12-7.53.94-3.3,1.32-7.26,1.38-11.65.1-8.77-1.2-19.13-3.47-27.62-2.31-8.61-5.73-13.83-9.81-16.66-4.08-2.83-8.56-2.9-11.77-2.04h0ZM918.65,999.21c1.73-.46,3.73-.53,5.98,1.03,2.25,1.56,5,5.11,7.04,12.73,2.07,7.74,3.33,17.74,3.23,25.73-.05,4-.45,7.51-1.11,9.82-.49,1.73-1.08,2.43-1.23,2.64-.23-.11-1.09-.41-2.39-1.66-1.72-1.67-3.83-4.51-5.87-7.95-4.08-6.87-7.99-16.16-10.06-23.9-2.04-7.62-1.43-12.07-.26-14.54,1.17-2.47,2.93-3.42,4.66-3.88h0ZM918.65,999.21" class="cls-14"/><path d="M996.15,1009.42c8.4,14.55,15.49,38.02,9.5,41.48-5.98,3.46-22.77-14.42-31.17-28.97-8.4-14.55-3.67-21.15.76-23.71,4.43-2.56,12.51-3.35,20.91,11.2h0ZM996.15,1009.42" class="cls-17"/><path d="M973.5,995.2c-2.88,1.66-6,4.87-6.88,9.76-.88,4.89.39,11,4.84,18.72,4.39,7.61,10.8,15.86,17.07,21.99,3.14,3.06,6.21,5.6,9.21,7.26,3,1.67,6.42,2.86,9.66,1,3.24-1.87,3.91-5.43,3.97-8.86.05-3.43-.6-7.36-1.69-11.61-2.17-8.5-6.11-18.17-10.5-25.78-4.45-7.72-9.11-11.87-13.79-13.55-4.67-1.68-9.02-.58-11.89,1.08h0ZM976.99,1001.25c1.55-.9,3.47-1.48,6.04-.55,2.57.92,6.16,3.64,10.1,10.47,4.01,6.94,7.81,16.27,9.78,24.02.99,3.87,1.51,7.37,1.47,9.77-.03,1.8-.42,2.62-.51,2.86-.25-.04-1.16-.12-2.74-.99-2.1-1.17-4.87-3.37-7.72-6.16-5.72-5.58-11.9-13.54-15.91-20.48-3.94-6.83-4.51-11.29-4.02-13.98.49-2.69,1.95-4.06,3.5-4.96h0ZM976.99,1001.25" class="cls-14"/><path d="M866.89,944.58c-16.8,0-40.67-5.6-40.67-12.51s23.88-12.51,40.67-12.51,20.15,7.4,20.15,12.51-3.36,12.51-20.15,12.51h0ZM866.89,944.58" class="cls-17"/><path d="M890.53,932.07c0-3.32-1.22-7.63-5.01-10.84-3.79-3.21-9.72-5.16-18.63-5.16s-19.14,1.43-27.58,3.79c-4.22,1.18-7.95,2.58-10.89,4.34-2.94,1.76-5.69,4.13-5.69,7.87s2.75,6.1,5.69,7.87c2.94,1.76,6.67,3.16,10.89,4.34,8.44,2.37,18.79,3.79,27.58,3.79s14.84-1.96,18.63-5.16c3.79-3.21,5.01-7.52,5.01-10.84h0ZM883.55,932.07c0,1.79-.45,3.74-2.54,5.51-2.09,1.77-6.23,3.51-14.12,3.51s-18-1.38-25.69-3.53c-3.85-1.08-7.14-2.38-9.19-3.61-1.54-.92-2.06-1.68-2.23-1.87.16-.2.68-.95,2.23-1.87,2.06-1.23,5.35-2.53,9.19-3.61,7.69-2.16,17.68-3.53,25.69-3.53s12.03,1.74,14.12,3.51c2.09,1.77,2.54,3.72,2.54,5.51h0ZM883.55,932.07" class="cls-14"/><path d="M1055.6,921.5c10.22,13.32,20.32,35.68,14.83,39.88-5.48,4.21-24.46-11.33-34.68-24.65-10.22-13.33-6.4-20.49-2.34-23.6,4.06-3.11,11.97-4.95,22.19,8.37h0ZM1055.6,921.5" class="cls-17"/><path d="M1031.29,910.36c-2.63,2.02-5.31,5.61-5.55,10.57-.24,4.96,1.82,10.85,7.24,17.92,5.35,6.97,12.78,14.31,19.8,19.57,3.51,2.63,6.89,4.74,10.08,6,3.19,1.26,6.74,2,9.7-.27,2.97-2.28,3.17-5.9,2.78-9.3-.39-3.41-1.56-7.22-3.19-11.29-3.26-8.14-8.43-17.22-13.78-24.19-5.42-7.07-10.59-10.58-15.44-11.64-4.85-1.05-9.01.6-11.65,2.62h0ZM1035.54,915.9c1.42-1.09,3.25-1.92,5.92-1.34,2.67.58,6.58,2.81,11.38,9.06,4.88,6.36,9.86,15.12,12.84,22.53,1.49,3.71,2.46,7.11,2.73,9.49.21,1.79-.07,2.66-.13,2.91-.26-.01-1.17.04-2.84-.63-2.23-.88-5.26-2.7-8.46-5.1-6.4-4.79-13.57-11.88-18.44-18.23-4.8-6.26-5.94-10.6-5.81-13.34.13-2.73,1.4-4.28,2.82-5.37h0ZM1035.54,915.9" class="cls-14"/><path d="M932.54,783.25s10.95,12.98,15.39,19.13c5.28,7.32,7.3,13.17,7.55,17.25.35,5.87-2.1,8.62-5.61,10.25-3.51,1.63-8.16,1.31-11.05-.77-2.89-2.08-5.08-5.64-3.24-13.82l2.27-10.13-9.71,3.69s-10.58,3.89-19.04,12.43c-4.23,4.27-8.07,9.9-9.39,16.94-1.32,7.04.1,15.23,5.21,23.72,2.9,4.82,2.83,8.02,2.04,10.27-.8,2.26-2.64,3.93-4.63,4.56-10.73,3.42-8.17-22.57-8.17-22.57-5.84,6.51-9.96,11.7-13.92,17.55-8.47,12.5-22.66,37.86-22.66,67.05,0,54.05,44.42,91.27,97.98,91.27,53.56,0,97.98-37.23,97.98-91.27,0-28.64-12.48-50.85-35.27-80.55l-7.03-8.81s-1.17,16.59-7.5,21.45c-2,1.53-4.27,1.78-6.11,1.25-1.84-.54-3.19-1.66-3.81-3.91-.62-2.24-.44-6.12,2.89-11.79,11.25-19.18,6.69-38.86-5.17-52.29-8.5-9.63-20.45-16.49-33.17-19.8-11.96-3.11-25.83-1.1-25.83-1.1h0ZM956.86,795.66c10.15,2.85,19.8,8.5,26.3,15.88,9.46,10.72,12.94,23.84,3.91,39.25-4.38,7.48-5.65,14.52-4.03,20.42,1.63,5.9,6.22,10.14,11.46,11.67,5.23,1.52,11.18.54,15.95-3.05,2.1-1.58,3.87-3.73,5.33-6.23,17.95,24.51,26.58,42.33,26.58,65.21,0,48.01-38.31,80.1-86.8,80.1s-86.8-32.09-86.8-80.1c0-23.64,11.04-45.23,18.79-57.53.8,1.32,1.77,2.49,2.91,3.48,4.46,3.87,10.52,4.32,15.54,2.58,5.02-1.74,9.5-5.72,11.5-11.4,2.01-5.68,1.21-12.77-3-19.76-4.01-6.65-4.6-11.66-3.8-15.89.79-4.23,3.19-7.95,6.35-11.14,2.25-2.27,4.74-4.03,7.1-5.54.84,6.34,3.82,11.48,8.16,14.59,6.59,4.73,15.17,5.13,22.28,1.83,7.11-3.3,12.66-11.13,12.06-21.06-.42-6.95-3.5-14.68-9.78-23.29h0ZM956.86,795.66" class="cls-14"/><path d="M943.01,788.01c50.47,51.54-21.6,64.93-12.88,26.06,0,0-38.66,14.69-20.41,44.98,14.23,23.62-22.68,35.04-19.05,7.99,0,0-27.49,32.83-27.49,71.76,0,51.03,41.37,85.69,92.39,85.69s92.39-34.66,92.39-85.69c0-27.06-11.53-47.72-34.11-77.15-2.72,26.69-37.37,18.26-21.95-8.04,20.28-34.59-16.08-65.6-48.88-65.6h0ZM943.01,788.01" class="cls-17"/><path d="M875.14,891.81c-6.24,12.69-11.98,29.2-11.98,46.99,0,51.03,41.37,85.69,92.39,85.69s92.39-34.66,92.39-85.69c0-14.92-3.51-27.9-10.45-41.47,3.78,10.17,5.69,20.35,5.69,31.65,0,51.03-39.24,85.69-87.64,85.69s-87.64-34.66-87.64-85.69c0-13.49,3.13-26.25,7.23-37.17h0ZM875.14,891.81" class="cls-12"/><path d="M963.38,854.91s-37.05-2.62-32.23,37.84c2.79,23.44-25.46,19.01-16.2-.17-54.31,51.81-10.67,107.2,40.61,107.2s87.08-55.46,50.13-95.72c10.72,31.04-31.34,31.07-27.45,3.95,3.26-22.72-4.1-29.38-13.14-34.34,4,15.59-15.65,16.67-14.58,3.13,1.02-12.95,12.87-21.9,12.87-21.9h0ZM963.38,854.91" class="cls-9"/><path d="M1019.5,929.16c-2.08,29.38-29.44,55.48-63.95,55.48-32.68,0-62.2-23.38-64.26-53.97-8.67,37.67,25.63,69.12,64.27,69.11,41.15,0,72.33-35.71,63.95-70.63h0ZM1019.5,929.16" class="cls-4"/><path d="M939.68,786.61l2.32,2.37c12.48,12.74,17.21,23,17.66,30.39.45,7.39-3.17,12.04-8.03,14.3-4.86,2.26-10.98,1.91-15.26-1.17-4.28-3.07-6.98-8.8-4.89-18.14l.57-2.53-2.43.92s-9.9,3.73-17.55,11.46c-3.83,3.86-7.13,8.78-8.25,14.77-1.13,5.99-.02,12.98,4.69,20.78,3.39,5.63,3.65,10.29,2.4,13.83-1.25,3.54-4.09,6.04-7.21,7.13-3.12,1.08-6.39.73-8.68-1.26-2.29-1.99-3.85-5.78-2.98-12.25l.64-4.78-3.1,3.7s-27.82,33.07-27.82,72.66c0,51.78,42.13,87.08,93.79,87.08,51.66,0,93.79-35.3,93.79-87.08,0-27.45-11.77-48.5-34.4-78l-2.14-2.79-.36,3.5c-.65,6.37-3.15,10.43-6.19,12.73-3.04,2.29-6.69,2.83-9.8,1.93-3.11-.91-5.68-3.2-6.67-6.82-1-3.61-.41-8.68,3.32-15.03,10.42-17.76,6.26-34.98-4.69-47.4-10.96-12.42-28.55-20.3-45.39-20.3h-3.32ZM946.39,789.6c14.94.98,30.29,8.25,39.91,19.16,10.36,11.74,14.24,27.32,4.38,44.14-3.99,6.8-4.85,12.65-3.6,17.18,1.25,4.53,4.62,7.6,8.59,8.76,3.96,1.15,8.53.44,12.26-2.37,3.11-2.34,5.53-6.21,6.68-11.44,21.21,27.97,31.94,47.9,31.94,73.77,0,50.27-40.6,84.29-90.99,84.29s-91-34.02-91-84.29c0-32.23,18.41-59.18,24.49-67.27.19,4.6,1.73,7.97,4.14,10.06,3.16,2.74,7.55,3.13,11.43,1.79,3.88-1.35,7.37-4.44,8.93-8.83,1.55-4.4,1.08-10.03-2.64-16.2-4.42-7.34-5.33-13.54-4.33-18.83.99-5.28,3.93-9.72,7.49-13.32,5.02-5.07,11.05-8.27,14.26-9.77-1.21,8.7,1.69,14.97,6.42,18.37,5.2,3.74,12.31,4.11,18.07,1.43,5.76-2.67,10.15-8.6,9.64-17-.47-7.84-5.1-17.74-16.06-29.6h0ZM946.39,789.6" class="cls-14"/><path d="M931.08,949.21c0,13.52,10.96,22.11,24.47,22.11s24.47-8.59,24.47-22.11c0-17.02-22.39-21.18-17.46-39.59,0,0-31.49,17.46-31.49,39.59h0ZM931.08,949.21" class="cls-3"/><path d="M899.81,891.1c-1.95,2.46-3.12,5.56-3.12,8.95v7.21c0,7.97,6.42,14.39,14.39,14.39s14.39-6.42,14.39-14.39v-5.53s-25.66-10.63-25.66-10.63ZM899.81,891.1" class="cls-14"/><path d="M919.46,904.03c0,1.23-.49,2.41-1.36,3.28s-2.05,1.36-3.28,1.36-2.41-.49-3.28-1.36c-.87-.87-1.36-2.05-1.36-3.28s.49-2.41,1.36-3.28c.87-.87,2.05-1.36,3.28-1.36s2.41.49,3.28,1.36c.87.87,1.36,2.05,1.36,3.28h0ZM919.46,904.03" class="cls-5"/><path d="M981.73,891.1l-25.66,10.63v5.53c0,7.97,6.42,14.39,14.39,14.39,7.97,0,14.39-6.42,14.39-14.39v-7.21c0-3.39-1.17-6.5-3.12-8.95h0ZM981.73,891.1" class="cls-14"/><path d="M978.84,904.03c0,1.23-.49,2.41-1.36,3.28-.87.87-2.05,1.36-3.28,1.36s-2.41-.49-3.28-1.36c-.87-.87-1.36-2.05-1.36-3.28s.49-2.41,1.36-3.28c.87-.87,2.05-1.36,3.28-1.36s2.41.49,3.28,1.36c.87.87,1.36,2.05,1.36,3.28h0ZM978.84,904.03" class="cls-5"/><path d="M908.44,933.04c-3.74,0-6.74,3.01-6.74,6.74v7.61c0,21.58,17.5,39.08,39.08,39.08s39.08-17.5,39.08-39.08v-7.61c0-3.74-3.01-6.74-6.74-6.74h-64.67ZM908.44,933.04" class="cls-15"/><path d="M940.77,959.7c-11.75,0-22.28,5.18-29.44,13.39,7.16,8.2,17.7,13.38,29.44,13.38s22.28-5.18,29.44-13.38c-7.16-8.2-17.7-13.39-29.44-13.39h0ZM940.77,959.7" class="cls-1"/><path d="M908.43,933.04c-3.74,0-6.74,3.01-6.74,6.74v6.79c12.2,5.85,25.55,8.9,39.08,8.94,13.53-.03,26.88-3.08,39.08-8.91v-6.82c0-3.74-3.01-6.74-6.74-6.74h-64.67ZM908.43,933.04" class="cls-5"/><path d="M908.43,933.04c-3.74,0-6.74,3.01-6.74,6.74v6.79c4.41,2.07,8.97,3.79,13.66,5.13-2.66-1.8-3.18-4.29-3.18-8.2v-10.46h-3.74ZM908.43,933.04" class="cls-16"/><path d="M958.89,933.04v10.46c0,5.27-1.35,9.84-5.89,11.06,9.31-1.25,18.36-3.93,26.85-7.96v-6.82c0-3.74-3.01-6.74-6.74-6.74h-14.22ZM958.89,933.04" class="cls-16"/><path d="M973.11,933.04c3.74,0,6.74,3.01,6.74,6.74v6.79c-4.41,2.07-8.97,3.79-13.66,5.13,2.66-1.8,3.18-4.29,3.18-8.2v-10.46s3.74,0,3.74,0ZM973.11,933.04" class="cls-8"/><path d="M908.44,931.64c-4.49,0-8.14,3.66-8.14,8.14v7.61c0,22.34,18.14,40.48,40.48,40.48s40.48-18.14,40.48-40.48v-7.61c0-4.49-3.65-8.14-8.14-8.14h-64.67ZM908.44,934.43h64.67c2.99,0,5.35,2.36,5.35,5.35v7.61c0,20.83-16.85,37.68-37.68,37.68s-37.68-16.85-37.68-37.68v-7.61c0-2.99,2.36-5.35,5.35-5.35h0ZM908.44,934.43" class="cls-14"/><path d="M901.17,945.67l-.61,1.26c25.38,12.38,55.05,12.38,80.43,0l-.61-1.26c-25,12.19-54.21,12.19-79.21,0h0ZM901.17,945.67" class="cls-14"/><path d="M936.45,970.23c0,1.21-.68,2.38-1.9,3.24-1.22.86-2.87,1.34-4.59,1.34s-3.38-.48-4.6-1.34c-1.22-.86-1.9-2.02-1.9-3.24s.69-2.38,1.9-3.24c1.22-.86,2.87-1.34,4.6-1.34s3.38.48,4.59,1.34c1.22.86,1.9,2.02,1.9,3.24h0ZM936.45,970.23" class="cls-11"/></g></g></g></g></svg>