<svg xmlns="http://www.w3.org/2000/svg" xmlns:xlink="http://www.w3.org/1999/xlink" viewBox="0 0 1080 1080"><defs><style>.cls-1{fill:#ff5574}.cls-2{fill:#ccc;mix-blend-mode:multiply}.cls-3{fill:#fff475}.cls-4{fill:#ffa231}.cls-5{fill:#fff}.cls-6{fill:#1e1e1e}.cls-7{fill:#8bb0cc}.cls-8{fill:#ffca48}.cls-9{fill:none}.cls-10{fill:#ff95a2}.cls-11{fill:#f13617}.cls-12{isolation:isolate}.cls-13{fill:#1a1a1a}.cls-14{fill:#af0035}.cls-15{fill:#b9dae9}.cls-16{fill:#ff5a20}.cls-17{fill:#00ce00}.cls-18{clip-path:url(#clippath)}</style><clipPath id="clippath"><rect width="1392" height="491.4" x="1102.5" y="-761.4" class="cls-9"/></clipPath></defs><g class="cls-12"><g id="Capa_1" data-name="Capa 1"><path d="M0,0v1080h1080V0H0ZM1040,1040H40V40h1000v1000Z" class="cls-17"/><g class="cls-18"><polyline points="3631.6 -656.9 3631.6 -1246.9 1028.2 -1246.9 1028.2 238.9 3631.6 238.9 3631.6 -352.5" class="cls-6"/></g><rect width="649.7" height="162.5" x="15.3" y="892.1" class="cls-17" rx="21.5" ry="21.5"/><g><g><path d="M90.5,1011.5c-2.9,0-5.6-.7-8.1-2.2-2.5-1.5-4.4-3.4-5.9-5.9-1.5-2.5-2.2-5.2-2.2-8.1v-48.5c0-2.9.7-5.6,2.2-8.1s3.4-4.4,5.9-5.9c2.5-1.5,5.2-2.2,8.1-2.2h48.5c2.9,0,5.6.7,8,2.2,2.4,1.5,4.4,3.4,5.9,5.9,1.5,2.5,2.2,5.2,2.2,8.1v48.5c0,2.9-.7,5.6-2.2,8.1-1.5,2.5-3.5,4.4-5.9,5.9-2.4,1.5-5.1,2.2-8,2.2h-48.5ZM91.2,995.2h46.9c.1,0,.3,0,.4-.2.1-.1.2-.3.2-.4v-46.9c0-.1,0-.3-.2-.4-.2-.1-.3-.2-.4-.2h-46.9c-.2,0-.3,0-.4.2s-.2.3-.2.4v46.9c0,.2,0,.3.2.4.1.2.3.2.4.2Z" class="cls-5"/><path d="M170.5,1011.5v-80.8h74.5v16.3h-58.1v15.9h46.8v16.4h-46.8v32.2h-16.4Z" class="cls-5"/><path d="M254.5,1011.5v-80.8h74.5v16.3h-58.1v15.9h46.8v16.4h-46.8v15.9h58.1v16.3h-74.5Z" class="cls-5"/><path d="M343,1011.5v-80.7h64.5c2.9,0,5.6.7,8.1,2.2s4.4,3.4,5.9,5.9c1.5,2.5,2.2,5.2,2.2,8.1v21.3c0,2.9-.7,5.6-2.2,8-1.5,2.4-3.5,4.4-5.9,5.8s-5.2,2.2-8.1,2.2h-48.4v27.2h-16.2ZM359.8,968.1h46.9c.1,0,.3,0,.4-.2.1-.1.2-.2.2-.4v-19.9c0-.1,0-.3-.2-.4-.2-.1-.3-.2-.4-.2h-46.9c-.2,0-.3,0-.4.2-.2.2-.2.3-.2.4v19.9c0,.2,0,.3.2.4.1.1.3.2.4.2ZM406.5,1011.5l-23.9-28.5h21.2l19.7,23.4v5h-17.1Z" class="cls-5"/><path d="M466.6,1011.5v-64.5h-32.3v-16.3h80.8v16.3h-32.2v64.5h-16.3Z" class="cls-5"/><path d="M526.5,946.9c0-2.9.7-5.6,2.2-8.1,1.5-2.5,3.4-4.4,5.9-5.9,2.5-1.5,5.2-2.2,8.1-2.2h48.4c2.9,0,5.6.7,8.1,2.2,2.5,1.5,4.4,3.4,5.9,5.9,1.5,2.5,2.2,5.2,2.2,8.1v64.6h-16.4v-26.6h-48.2v26.6h-16.2v-64.6ZM590.9,968.8v-21.1c0-.1,0-.3-.2-.4-.2-.1-.3-.2-.4-.2h-46.9c-.2,0-.3,0-.4.2-.2.2-.2.3-.2.4v21.1h48.2Z" class="cls-5"/></g><g><path d="M955.5,929.3s0,0-.1,0c0,0,0,0,0,0,0,0,0,0-.1,0,0,0,0,0-.1,0,0,0,0,0-.1,0,0,0,0,0-.1,0h0s0,0,0,0c0,0-.1,0-.2,0,0,0,0,0-.1,0,0,0,0,0-.1,0,0,0,0,0-.1,0,0,0,0,0-.1,0,0,0,0,0-.1,0,0,0,0,0-.1,0,0,0,0,0-.1,0,0,0,0,0-.1,0,0,0,0,0,0,0,0,0,0,0,0,.1,0,0,0,0,0,.1,0,0,0,0,0,.1,0,0,0,0,0,.1,0,0,0,0,0,.1,0,0,0,0,0,.1,0,0,0,0,0,.1,0,0,0,0,0,.1,0,0,0,0,0,.1,0,0,0,0,0,.1,0,0,0,0,0,.1,0,0,0,0,0,.1,0,0,0,0,0,.1,0,0,0,0,0,.1,0,0,0,0,0,.1h0c0,.1,0,.1,0,.2,0,0,0,0,0,0,0,0,0,0,0,.1,0,0,0,0,0,.1,0,0,0,0,0,.1,0,0,0,0,0,.1h0s0,0,0,0c0,0,0,.1,0,.2,0,0,0,0,0,.1,0,0,0,0,0,.1,0,0,0,0,0,.1,0,0,0,0,0,.1,0,0,0,0,0,.1,0,0,0,0,0,.1,0,0,0,0,0,.1,0,0,0,0,0,.1,0,0,0,0,0,0,0,0,0,0,.1,0,0,0,0,0,.1,0,0,0,0,0,.1,0,0,0,0,0,.1,0,0,0,0,0,.1,0,0,0,0,0,.1,0,0,0,0,0,.1,0,0,0,0,0,.1,0,0,0,0,0,.1,0,0,0,0,0,.1,0,0,0,0,0,.1,0,0,0,0,0,.1,0,0,0,0,0,.1,0,0,0,0,0,.1,0,0,0,0,0,.1,0,0,0,0,0,0,0,0,0,0,0,.1,0,0,0,0,0,0,0,0,0,0,0,.1,0,0,0,0,0,.1,0,0,0,0,0,.1,0,0,0,0,0,.1,0h0s0,0,0,0c0,0,.1,0,.2,0,0,0,0,0,.1,0,0,0,0,0,.1,0,0,0,0,0,.1,0,0,0,0,0,.1,0,0,0,0,0,.1,0,0,0,0,0,.1,0,0,0,0,0,.1,0,0,0,0,0,.1,0,0,0,0,0,0,0,0,0,0,0,0-.1,0,0,0,0,0-.1,0,0,0,0,0-.1,0,0,0,0,0-.1,0,0,0,0,0-.1,0,0,0,0,0-.1,0,0,0,0,0-.1,0,0,0,0,0-.1,0,0,0,0,0-.1,0,0,0,0,0-.1,0,0,0,0,0-.1,0,0,0,0,0-.1,0,0,0,0,0-.1,0,0,0,0,0-.1,0,0,0,0,0-.1h0c0-.1,0-.1,0-.2,0,0,0,0,0,0,0,0,0,0,0-.1,0,0,0,0,0-.1,0,0,0,0,0-.1,0,0,0,0,0-.1h0s0,0,0,0c0,0,0-.1,0-.2,0,0,0,0,0-.1,0,0,0,0,0-.1,0,0,0,0,0-.1,0,0,0,0,0-.1,0,0,0,0,0-.1,0,0,0,0,0-.1,0,0,0,0,0-.1,0,0,0,0,0-.1,0,0,0,0,0,0,0,0,0,0-.1,0,0,0,0,0-.1,0,0,0,0,0-.1,0,0,0,0,0-.1,0,0,0,0,0-.1,0,0,0,0,0-.1,0,0,0,0,0-.1,0,0,0,0,0-.1,0,0,0,0,0-.1,0,0,0,0,0-.1,0,0,0,0,0-.1,0,0,0,0,0-.1,0,0,0,0,0-.1,0,0,0,0,0-.1,0,0,0,0,0-.1,0,0,0,0,0,0,0h0ZM955.5,929.3" class="cls-5"/><path d="M955.5,929.3s0,0-.1,0c0,0,0,0,0,0,0,0,0,0-.1,0,0,0,0,0-.1,0,0,0,0,0-.1,0,0,0,0,0-.1,0h0s0,0,0,0c0,0-.1,0-.2,0,0,0,0,0-.1,0,0,0,0,0-.1,0,0,0,0,0-.1,0,0,0,0,0-.1,0,0,0,0,0-.1,0,0,0,0,0-.1,0,0,0,0,0-.1,0,0,0,0,0-.1,0,0,0,0,0,0,0,0,0,0,0,0,.1,0,0,0,0,0,.1,0,0,0,0,0,.1,0,0,0,0,0,.1,0,0,0,0,0,.1,0,0,0,0,0,.1,0,0,0,0,0,.1,0,0,0,0,0,.1,0,0,0,0,0,.1,0,0,0,0,0,.1,0,0,0,0,0,.1,0,0,0,0,0,.1,0,0,0,0,0,.1,0,0,0,0,0,.1,0,0,0,0,0,.1h0c0,.1,0,.1,0,.2,0,0,0,0,0,0,0,0,0,0,0,.1,0,0,0,0,0,.1,0,0,0,0,0,.1,0,0,0,0,0,.1h0s0,0,0,0c0,0,0,.1,0,.2,0,0,0,0,0,.1,0,0,0,0,0,.1,0,0,0,0,0,.1,0,0,0,0,0,.1,0,0,0,0,0,.1,0,0,0,0,0,.1,0,0,0,0,0,.1,0,0,0,0,0,.1,0,0,0,0,0,0,0,0,0,0,.1,0,0,0,0,0,.1,0,0,0,0,0,.1,0,0,0,0,0,.1,0,0,0,0,0,.1,0,0,0,0,0,.1,0,0,0,0,0,.1,0,0,0,0,0,.1,0,0,0,0,0,.1,0,0,0,0,0,.1,0,0,0,0,0,.1,0,0,0,0,0,.1,0,0,0,0,0,.1,0,0,0,0,0,.1,0,0,0,0,0,.1,0h0s0,0,.1,0c0,0,0,0,0,0,0,0,0,0,.1,0,0,0,0,0,.1,0,0,0,0,0,.1,0,0,0,0,0,.1,0h0s0,0,0,0c0,0,.1,0,.2,0,0,0,0,0,.1,0,0,0,0,0,.1,0,0,0,0,0,.1,0,0,0,0,0,.1,0,0,0,0,0,.1,0,0,0,0,0,.1,0,0,0,0,0,.1,0,0,0,0,0,.1,0,0,0,0,0,0,0,0,0,0,0,0-.1,0,0,0,0,0-.1,0,0,0,0,0-.1,0,0,0,0,0-.1,0,0,0,0,0-.1,0,0,0,0,0-.1,0,0,0,0,0-.1,0,0,0,0,0-.1,0,0,0,0,0-.1,0,0,0,0,0-.1,0,0,0,0,0-.1,0,0,0,0,0-.1,0,0,0,0,0-.1,0,0,0,0,0-.1,0,0,0,0,0-.1h0c0-.1,0-.1,0-.2,0,0,0,0,0,0,0,0,0,0,0-.1,0,0,0,0,0-.1,0,0,0,0,0-.1,0,0,0,0,0-.1h0s0,0,0,0c0,0,0-.1,0-.2,0,0,0,0,0-.1,0,0,0,0,0-.1,0,0,0,0,0-.1,0,0,0,0,0-.1,0,0,0,0,0-.1,0,0,0,0,0-.1,0,0,0,0,0-.1,0,0,0,0,0-.1,0,0,0,0,0,0,0,0,0,0-.1,0,0,0,0,0-.1,0,0,0,0,0-.1,0,0,0,0,0-.1,0,0,0,0,0-.1,0,0,0,0,0-.1,0,0,0,0,0-.1,0,0,0,0,0-.1,0,0,0,0,0-.1,0,0,0,0,0-.1,0,0,0,0,0-.1,0,0,0,0,0-.1,0,0,0,0,0-.1,0,0,0,0,0-.1,0,0,0,0,0-.1,0h0ZM955.5,929.3" class="cls-5"/><path d="M955.5,929.3s0,0-.1,0c0,0,0,0,0,0,0,0,0,0-.1,0,0,0,0,0-.1,0,0,0,0,0-.1,0,0,0,0,0-.1,0h0s0,0,0,0c0,0-.1,0-.2,0,0,0,0,0-.1,0,0,0,0,0-.1,0,0,0,0,0-.1,0,0,0,0,0-.1,0,0,0,0,0-.1,0,0,0,0,0-.1,0,0,0,0,0-.1,0,0,0,0,0-.1,0,0,0,0,0,0,0,0,0,0,0,0,.1,0,0,0,0,0,.1,0,0,0,0,0,.1,0,0,0,0,0,.1,0,0,0,0,0,.1,0,0,0,0,0,.1,0,0,0,0,0,.1,0,0,0,0,0,.1,0,0,0,0,0,.1,0,0,0,0,0,.1,0,0,0,0,0,.1,0,0,0,0,0,.1,0,0,0,0,0,.1,0,0,0,0,0,.1,0,0,0,0,0,.1h0c0,.1,0,.1,0,.2,0,0,0,0,0,0,0,0,0,0,0,.1,0,0,0,0,0,.1,0,0,0,0,0,.1,0,0,0,0,0,.1h0s0,0,0,0c0,0,0,.1,0,.2,0,0,0,0,0,.1,0,0,0,0,0,.1,0,0,0,0,0,.1,0,0,0,0,0,.1,0,0,0,0,0,.1,0,0,0,0,0,.1,0,0,0,0,0,.1,0,0,0,0,0,.1,0,0,0,0,0,0,0,0,0,0,.1,0,0,0,0,0,.1,0,0,0,0,0,.1,0,0,0,0,0,.1,0,0,0,0,0,.1,0,0,0,0,0,.1,0,0,0,0,0,.1,0,0,0,0,0,.1,0,0,0,0,0,.1,0,0,0,0,0,.1,0,0,0,0,0,.1,0,0,0,0,0,.1,0,0,0,0,0,.1,0,0,0,0,0,.1,0,0,0,0,0,.1,0h0s0,0,.1,0c0,0,0,0,0,0,0,0,0,0,.1,0,0,0,0,0,.1,0,0,0,0,0,.1,0,0,0,0,0,.1,0h0s0,0,0,0c0,0,.1,0,.2,0,0,0,0,0,.1,0,0,0,0,0,.1,0,0,0,0,0,.1,0,0,0,0,0,.1,0,0,0,0,0,.1,0,0,0,0,0,.1,0,0,0,0,0,.1,0,0,0,0,0,.1,0,0,0,0,0,0,0,0,0,0,0,0-.1,0,0,0,0,0-.1,0,0,0,0,0-.1,0,0,0,0,0-.1,0,0,0,0,0-.1,0,0,0,0,0-.1,0,0,0,0,0-.1,0,0,0,0,0-.1,0,0,0,0,0-.1,0,0,0,0,0-.1,0,0,0,0,0-.1,0,0,0,0,0-.1,0,0,0,0,0-.1,0,0,0,0,0-.1,0,0,0,0,0-.1h0c0-.1,0-.1,0-.2,0,0,0,0,0,0,0,0,0,0,0-.1,0,0,0,0,0-.1,0,0,0,0,0-.1,0,0,0,0,0-.1h0s0,0,0,0c0,0,0-.1,0-.2,0,0,0,0,0-.1,0,0,0,0,0-.1,0,0,0,0,0-.1,0,0,0,0,0-.1,0,0,0,0,0-.1,0,0,0,0,0-.1,0,0,0,0,0-.1,0,0,0,0,0-.1,0,0,0,0,0,0,0,0,0,0-.1,0,0,0,0,0-.1,0,0,0,0,0-.1,0,0,0,0,0-.1,0,0,0,0,0-.1,0,0,0,0,0-.1,0,0,0,0,0-.1,0,0,0,0,0-.1,0,0,0,0,0-.1,0,0,0,0,0-.1,0,0,0,0,0-.1,0,0,0,0,0-.1,0,0,0,0,0-.1,0,0,0,0,0-.1,0,0,0,0,0-.1,0h0ZM955.5,929.3" class="cls-5"/><path d="M955.5,929.3s0,0-.1,0c0,0,0,0,0,0,0,0,0,0-.1,0,0,0,0,0-.1,0,0,0,0,0-.1,0,0,0,0,0-.1,0h0s0,0,0,0c0,0-.1,0-.2,0,0,0,0,0-.1,0,0,0,0,0-.1,0,0,0,0,0-.1,0,0,0,0,0-.1,0,0,0,0,0-.1,0,0,0,0,0-.1,0,0,0,0,0-.1,0,0,0,0,0-.1,0,0,0,0,0,0,0,0,0,0,0,0,.1,0,0,0,0,0,.1,0,0,0,0,0,.1,0,0,0,0,0,.1,0,0,0,0,0,.1,0,0,0,0,0,.1,0,0,0,0,0,.1,0,0,0,0,0,.1,0,0,0,0,0,.1,0,0,0,0,0,.1,0,0,0,0,0,.1,0,0,0,0,0,.1,0,0,0,0,0,.1,0,0,0,0,0,.1,0,0,0,0,0,.1h0c0,.1,0,.1,0,.2,0,0,0,0,0,0,0,0,0,0,0,.1,0,0,0,0,0,.1,0,0,0,0,0,.1,0,0,0,0,0,.1h0s0,0,0,0c0,0,0,.1,0,.2,0,0,0,0,0,.1,0,0,0,0,0,.1,0,0,0,0,0,.1,0,0,0,0,0,.1,0,0,0,0,0,.1,0,0,0,0,0,.1,0,0,0,0,0,.1,0,0,0,0,0,.1,0,0,0,0,0,0,0,0,0,0,.1,0,0,0,0,0,.1,0,0,0,0,0,.1,0,0,0,0,0,.1,0,0,0,0,0,.1,0,0,0,0,0,.1,0,0,0,0,0,.1,0,0,0,0,0,.1,0,0,0,0,0,.1,0,0,0,0,0,.1,0,0,0,0,0,.1,0,0,0,0,0,.1,0,0,0,0,0,.1,0,0,0,0,0,.1,0,0,0,0,0,.1,0h0s0,0,.1,0c0,0,0,0,0,0,0,0,0,0,.1,0,0,0,0,0,.1,0,0,0,0,0,.1,0,0,0,0,0,.1,0h0s0,0,0,0c0,0,.1,0,.2,0,0,0,0,0,.1,0,0,0,0,0,.1,0,0,0,0,0,.1,0,0,0,0,0,.1,0,0,0,0,0,.1,0,0,0,0,0,.1,0,0,0,0,0,.1,0,0,0,0,0,.1,0,0,0,0,0,0,0,0,0,0,0,0-.1,0,0,0,0,0-.1,0,0,0,0,0-.1,0,0,0,0,0-.1,0,0,0,0,0-.1,0,0,0,0,0-.1,0,0,0,0,0-.1,0,0,0,0,0-.1,0,0,0,0,0-.1,0,0,0,0,0-.1,0,0,0,0,0-.1,0,0,0,0,0-.1,0,0,0,0,0-.1,0,0,0,0,0-.1,0,0,0,0,0-.1h0c0-.1,0-.1,0-.2,0,0,0,0,0,0,0,0,0,0,0-.1,0,0,0,0,0-.1,0,0,0,0,0-.1,0,0,0,0,0-.1h0s0,0,0,0c0,0,0-.1,0-.2,0,0,0,0,0-.1,0,0,0,0,0-.1,0,0,0,0,0-.1,0,0,0,0,0-.1,0,0,0,0,0-.1,0,0,0,0,0-.1,0,0,0,0,0-.1,0,0,0,0,0-.1,0,0,0,0,0,0,0,0,0,0-.1,0,0,0,0,0-.1,0,0,0,0,0-.1,0,0,0,0,0-.1,0,0,0,0,0-.1,0,0,0,0,0-.1,0,0,0,0,0-.1,0,0,0,0,0-.1,0,0,0,0,0-.1,0,0,0,0,0-.1,0,0,0,0,0-.1,0,0,0,0,0-.1,0,0,0,0,0-.1,0,0,0,0,0-.1,0,0,0,0,0-.1,0h0ZM955.5,929.3" class="cls-5"/><path d="M955.5,929.3s0,0-.1,0c0,0,0,0,0,0,0,0,0,0-.1,0,0,0,0,0-.1,0,0,0,0,0-.1,0,0,0,0,0-.1,0h0s0,0,0,0c0,0-.1,0-.2,0,0,0,0,0-.1,0,0,0,0,0-.1,0,0,0,0,0-.1,0,0,0,0,0-.1,0,0,0,0,0-.1,0,0,0,0,0-.1,0,0,0,0,0-.1,0,0,0,0,0-.1,0,0,0,0,0,0,0,0,0,0,0,0,.1,0,0,0,0,0,.1,0,0,0,0,0,.1,0,0,0,0,0,.1,0,0,0,0,0,.1,0,0,0,0,0,.1,0,0,0,0,0,.1,0,0,0,0,0,.1,0,0,0,0,0,.1,0,0,0,0,0,.1,0,0,0,0,0,.1,0,0,0,0,0,.1,0,0,0,0,0,.1,0,0,0,0,0,.1,0,0,0,0,0,.1h0c0,.1,0,.1,0,.2,0,0,0,0,0,0,0,0,0,0,0,.1,0,0,0,0,0,.1,0,0,0,0,0,.1,0,0,0,0,0,.1h0s0,0,0,0c0,0,0,.1,0,.2,0,0,0,0,0,.1,0,0,0,0,0,.1,0,0,0,0,0,.1,0,0,0,0,0,.1,0,0,0,0,0,.1,0,0,0,0,0,.1,0,0,0,0,0,.1,0,0,0,0,0,.1,0,0,0,0,0,0,0,0,0,0,.1,0,0,0,0,0,.1,0,0,0,0,0,.1,0,0,0,0,0,.1,0,0,0,0,0,.1,0,0,0,0,0,.1,0,0,0,0,0,.1,0,0,0,0,0,.1,0,0,0,0,0,.1,0,0,0,0,0,.1,0,0,0,0,0,.1,0,0,0,0,0,.1,0,0,0,0,0,.1,0,0,0,0,0,.1,0,0,0,0,0,.1,0h0s0,0,.1,0c0,0,0,0,0,0,0,0,0,0,.1,0,0,0,0,0,.1,0,0,0,0,0,.1,0,0,0,0,0,.1,0h0s0,0,0,0c0,0,.1,0,.2,0,0,0,0,0,.1,0,0,0,0,0,.1,0,0,0,0,0,.1,0,0,0,0,0,.1,0,0,0,0,0,.1,0,0,0,0,0,.1,0,0,0,0,0,.1,0,0,0,0,0,.1,0,0,0,0,0,0,0,0,0,0,0,0-.1,0,0,0,0,0-.1,0,0,0,0,0-.1,0,0,0,0,0-.1,0,0,0,0,0-.1,0,0,0,0,0-.1,0,0,0,0,0-.1,0,0,0,0,0-.1,0,0,0,0,0-.1,0,0,0,0,0-.1,0,0,0,0,0-.1,0,0,0,0,0-.1,0,0,0,0,0-.1,0,0,0,0,0-.1,0,0,0,0,0-.1h0c0-.1,0-.1,0-.2,0,0,0,0,0,0,0,0,0,0,0-.1,0,0,0,0,0-.1,0,0,0,0,0-.1,0,0,0,0,0-.1h0s0,0,0,0c0,0,0-.1,0-.2,0,0,0,0,0-.1,0,0,0,0,0-.1,0,0,0,0,0-.1,0,0,0,0,0-.1,0,0,0,0,0-.1,0,0,0,0,0-.1,0,0,0,0,0-.1,0,0,0,0,0-.1,0,0,0,0,0,0,0,0,0,0-.1,0,0,0,0,0-.1,0,0,0,0,0-.1,0,0,0,0,0-.1,0,0,0,0,0-.1,0,0,0,0,0-.1,0,0,0,0,0-.1,0,0,0,0,0-.1,0,0,0,0,0-.1,0,0,0,0,0-.1,0,0,0,0,0-.1,0,0,0,0,0-.1,0,0,0,0,0-.1,0,0,0,0,0-.1,0,0,0,0,0-.1,0h0ZM955.5,929.3" class="cls-5"/><path d="M955.5,929.3s0,0-.1,0c0,0,0,0,0,0,0,0,0,0-.1,0,0,0,0,0-.1,0,0,0,0,0-.1,0,0,0,0,0-.1,0h0s0,0,0,0c0,0-.1,0-.2,0,0,0,0,0-.1,0,0,0,0,0-.1,0,0,0,0,0-.1,0,0,0,0,0-.1,0,0,0,0,0-.1,0,0,0,0,0-.1,0,0,0,0,0-.1,0,0,0,0,0-.1,0,0,0,0,0,0,0,0,0,0,0,0,.1,0,0,0,0,0,.1,0,0,0,0,0,.1,0,0,0,0,0,.1,0,0,0,0,0,.1,0,0,0,0,0,.1,0,0,0,0,0,.1,0,0,0,0,0,.1,0,0,0,0,0,.1,0,0,0,0,0,.1,0,0,0,0,0,.1,0,0,0,0,0,.1,0,0,0,0,0,.1,0,0,0,0,0,.1,0,0,0,0,0,.1h0c0,.1,0,.1,0,.2,0,0,0,0,0,0,0,0,0,0,0,.1,0,0,0,0,0,.1,0,0,0,0,0,.1,0,0,0,0,0,.1h0s0,0,0,0c0,0,0,.1,0,.2,0,0,0,0,0,.1,0,0,0,0,0,.1,0,0,0,0,0,.1,0,0,0,0,0,.1,0,0,0,0,0,.1,0,0,0,0,0,.1,0,0,0,0,0,.1,0,0,0,0,0,.1,0,0,0,0,0,0,0,0,0,0,.1,0,0,0,0,0,.1,0,0,0,0,0,.1,0,0,0,0,0,.1,0,0,0,0,0,.1,0,0,0,0,0,.1,0,0,0,0,0,.1,0,0,0,0,0,.1,0,0,0,0,0,.1,0,0,0,0,0,.1,0,0,0,0,0,.1,0,0,0,0,0,.1,0,0,0,0,0,.1,0,0,0,0,0,.1,0,0,0,0,0,.1,0h0s0,0,.1,0c0,0,0,0,0,0,0,0,0,0,.1,0,0,0,0,0,.1,0,0,0,0,0,.1,0,0,0,0,0,.1,0h0s0,0,0,0c0,0,.1,0,.2,0,0,0,0,0,.1,0,0,0,0,0,.1,0,0,0,0,0,.1,0,0,0,0,0,.1,0,0,0,0,0,.1,0,0,0,0,0,.1,0,0,0,0,0,.1,0,0,0,0,0,.1,0,0,0,0,0,0,0,0,0,0,0,0-.1,0,0,0,0,0-.1,0,0,0,0,0-.1,0,0,0,0,0-.1,0,0,0,0,0-.1,0,0,0,0,0-.1,0,0,0,0,0-.1,0,0,0,0,0-.1,0,0,0,0,0-.1,0,0,0,0,0-.1,0,0,0,0,0-.1,0,0,0,0,0-.1,0,0,0,0,0-.1,0,0,0,0,0-.1,0,0,0,0,0-.1h0c0-.1,0-.1,0-.2,0,0,0,0,0,0,0,0,0,0,0-.1,0,0,0,0,0-.1,0,0,0,0,0-.1,0,0,0,0,0-.1h0s0,0,0,0c0,0,0-.1,0-.2,0,0,0,0,0-.1,0,0,0,0,0-.1,0,0,0,0,0-.1,0,0,0,0,0-.1,0,0,0,0,0-.1,0,0,0,0,0-.1,0,0,0,0,0-.1,0,0,0,0,0-.1,0,0,0,0,0,0,0,0,0,0-.1,0,0,0,0,0-.1,0,0,0,0,0-.1,0,0,0,0,0-.1,0,0,0,0,0-.1,0,0,0,0,0-.1,0,0,0,0,0-.1,0,0,0,0,0-.1,0,0,0,0,0-.1,0,0,0,0,0-.1,0,0,0,0,0-.1,0,0,0,0,0-.1,0,0,0,0,0-.1,0,0,0,0,0-.1,0,0,0,0,0-.1,0h0ZM955.5,929.3" class="cls-5"/><path d="M955.5,929.3s0,0-.1,0c0,0,0,0,0,0,0,0,0,0-.1,0,0,0,0,0-.1,0,0,0,0,0-.1,0,0,0,0,0-.1,0h0s0,0,0,0c0,0-.1,0-.2,0,0,0,0,0-.1,0,0,0,0,0-.1,0,0,0,0,0-.1,0,0,0,0,0-.1,0,0,0,0,0-.1,0,0,0,0,0-.1,0,0,0,0,0-.1,0,0,0,0,0-.1,0,0,0,0,0,0,0,0,0,0,0,0,.1,0,0,0,0,0,.1,0,0,0,0,0,.1,0,0,0,0,0,.1,0,0,0,0,0,.1,0,0,0,0,0,.1,0,0,0,0,0,.1,0,0,0,0,0,.1,0,0,0,0,0,.1,0,0,0,0,0,.1,0,0,0,0,0,.1,0,0,0,0,0,.1,0,0,0,0,0,.1,0,0,0,0,0,.1,0,0,0,0,0,.1h0c0,.1,0,.1,0,.2,0,0,0,0,0,0,0,0,0,0,0,.1,0,0,0,0,0,.1,0,0,0,0,0,.1,0,0,0,0,0,.1h0s0,0,0,0c0,0,0,.1,0,.2,0,0,0,0,0,.1,0,0,0,0,0,.1,0,0,0,0,0,.1,0,0,0,0,0,.1,0,0,0,0,0,.1,0,0,0,0,0,.1,0,0,0,0,0,.1,0,0,0,0,0,.1,0,0,0,0,0,0,0,0,0,0,.1,0,0,0,0,0,.1,0,0,0,0,0,.1,0,0,0,0,0,.1,0,0,0,0,0,.1,0,0,0,0,0,.1,0,0,0,0,0,.1,0,0,0,0,0,.1,0,0,0,0,0,.1,0,0,0,0,0,.1,0,0,0,0,0,.1,0,0,0,0,0,.1,0,0,0,0,0,.1,0,0,0,0,0,.1,0,0,0,0,0,.1,0h0s0,0,.1,0c0,0,0,0,0,0,0,0,0,0,.1,0,0,0,0,0,.1,0,0,0,0,0,.1,0,0,0,0,0,.1,0h0s0,0,0,0c0,0,.1,0,.2,0,0,0,0,0,.1,0,0,0,0,0,.1,0,0,0,0,0,.1,0,0,0,0,0,.1,0,0,0,0,0,.1,0,0,0,0,0,.1,0,0,0,0,0,.1,0,0,0,0,0,.1,0,0,0,0,0,0,0,0,0,0,0,0-.1,0,0,0,0,0-.1,0,0,0,0,0-.1,0,0,0,0,0-.1,0,0,0,0,0-.1,0,0,0,0,0-.1,0,0,0,0,0-.1,0,0,0,0,0-.1,0,0,0,0,0-.1,0,0,0,0,0-.1,0,0,0,0,0-.1,0,0,0,0,0-.1,0,0,0,0,0-.1,0,0,0,0,0-.1,0,0,0,0,0-.1h0c0-.1,0-.1,0-.2,0,0,0,0,0,0,0,0,0,0,0-.1,0,0,0,0,0-.1,0,0,0,0,0-.1,0,0,0,0,0-.1h0s0,0,0,0c0,0,0-.1,0-.2,0,0,0,0,0-.1,0,0,0,0,0-.1,0,0,0,0,0-.1,0,0,0,0,0-.1,0,0,0,0,0-.1,0,0,0,0,0-.1,0,0,0,0,0-.1,0,0,0,0,0-.1,0,0,0,0,0,0,0,0,0,0-.1,0,0,0,0,0-.1,0,0,0,0,0-.1,0,0,0,0,0-.1,0,0,0,0,0-.1,0,0,0,0,0-.1,0,0,0,0,0-.1,0,0,0,0,0-.1,0,0,0,0,0-.1,0,0,0,0,0-.1,0,0,0,0,0-.1,0,0,0,0,0-.1,0,0,0,0,0-.1,0,0,0,0,0-.1,0,0,0,0,0-.1,0h0ZM955.5,929.3" class="cls-5"/><path d="M955.5,929.3s0,0-.1,0c0,0,0,0,0,0,0,0,0,0-.1,0,0,0,0,0-.1,0,0,0,0,0-.1,0,0,0,0,0-.1,0h0s0,0,0,0c0,0-.1,0-.2,0,0,0,0,0-.1,0,0,0,0,0-.1,0,0,0,0,0-.1,0,0,0,0,0-.1,0,0,0,0,0-.1,0,0,0,0,0-.1,0,0,0,0,0-.1,0,0,0,0,0-.1,0,0,0,0,0,0,0,0,0,0,0,0,.1,0,0,0,0,0,.1,0,0,0,0,0,.1,0,0,0,0,0,.1,0,0,0,0,0,.1,0,0,0,0,0,.1,0,0,0,0,0,.1,0,0,0,0,0,.1,0,0,0,0,0,.1,0,0,0,0,0,.1,0,0,0,0,0,.1,0,0,0,0,0,.1,0,0,0,0,0,.1,0,0,0,0,0,.1,0,0,0,0,0,.1h0c0,.1,0,.1,0,.2,0,0,0,0,0,0,0,0,0,0,0,.1,0,0,0,0,0,.1,0,0,0,0,0,.1,0,0,0,0,0,.1h0s0,0,0,0c0,0,0,.1,0,.2,0,0,0,0,0,.1,0,0,0,0,0,.1,0,0,0,0,0,.1,0,0,0,0,0,.1,0,0,0,0,0,.1,0,0,0,0,0,.1,0,0,0,0,0,.1,0,0,0,0,0,.1,0,0,0,0,0,0,0,0,0,0,.1,0,0,0,0,0,.1,0,0,0,0,0,.1,0,0,0,0,0,.1,0,0,0,0,0,.1,0,0,0,0,0,.1,0,0,0,0,0,.1,0,0,0,0,0,.1,0,0,0,0,0,.1,0,0,0,0,0,.1,0,0,0,0,0,.1,0,0,0,0,0,.1,0,0,0,0,0,.1,0,0,0,0,0,.1,0,0,0,0,0,.1,0h0s0,0,.1,0c0,0,0,0,0,0,0,0,0,0,.1,0,0,0,0,0,.1,0,0,0,0,0,.1,0,0,0,0,0,.1,0h0s0,0,0,0c0,0,.1,0,.2,0,0,0,0,0,.1,0,0,0,0,0,.1,0,0,0,0,0,.1,0,0,0,0,0,.1,0,0,0,0,0,.1,0,0,0,0,0,.1,0,0,0,0,0,.1,0,0,0,0,0,.1,0,0,0,0,0,0,0,0,0,0,0,0-.1,0,0,0,0,0-.1,0,0,0,0,0-.1,0,0,0,0,0-.1,0,0,0,0,0-.1,0,0,0,0,0-.1,0,0,0,0,0-.1,0,0,0,0,0-.1,0,0,0,0,0-.1,0,0,0,0,0-.1,0,0,0,0,0-.1,0,0,0,0,0-.1,0,0,0,0,0-.1,0,0,0,0,0-.1,0,0,0,0,0-.1h0c0-.1,0-.1,0-.2,0,0,0,0,0,0,0,0,0,0,0-.1,0,0,0,0,0-.1,0,0,0,0,0-.1,0,0,0,0,0-.1h0s0,0,0,0c0,0,0-.1,0-.2,0,0,0,0,0-.1,0,0,0,0,0-.1,0,0,0,0,0-.1,0,0,0,0,0-.1,0,0,0,0,0-.1,0,0,0,0,0-.1,0,0,0,0,0-.1,0,0,0,0,0-.1,0,0,0,0,0,0,0,0,0,0-.1,0,0,0,0,0-.1,0,0,0,0,0-.1,0,0,0,0,0-.1,0,0,0,0,0-.1,0,0,0,0,0-.1,0,0,0,0,0-.1,0,0,0,0,0-.1,0,0,0,0,0-.1,0,0,0,0,0-.1,0,0,0,0,0-.1,0,0,0,0,0-.1,0,0,0,0,0-.1,0,0,0,0,0-.1,0,0,0,0,0-.1,0h0ZM955.5,929.3" class="cls-5"/><path d="M955.5,929.3s0,0-.1,0c0,0,0,0,0,0,0,0,0,0-.1,0,0,0,0,0-.1,0,0,0,0,0-.1,0,0,0,0,0-.1,0h0s0,0,0,0c0,0-.1,0-.2,0,0,0,0,0-.1,0,0,0,0,0-.1,0,0,0,0,0-.1,0,0,0,0,0-.1,0,0,0,0,0-.1,0,0,0,0,0-.1,0,0,0,0,0-.1,0,0,0,0,0-.1,0,0,0,0,0,0,0,0,0,0,0,0,.1,0,0,0,0,0,.1,0,0,0,0,0,.1,0,0,0,0,0,.1,0,0,0,0,0,.1,0,0,0,0,0,.1,0,0,0,0,0,.1,0,0,0,0,0,.1,0,0,0,0,0,.1,0,0,0,0,0,.1,0,0,0,0,0,.1,0,0,0,0,0,.1,0,0,0,0,0,.1,0,0,0,0,0,.1,0,0,0,0,0,.1h0c0,.1,0,.1,0,.2,0,0,0,0,0,0,0,0,0,0,0,.1,0,0,0,0,0,.1,0,0,0,0,0,.1,0,0,0,0,0,.1h0s0,0,0,0c0,0,0,.1,0,.2,0,0,0,0,0,.1,0,0,0,0,0,.1,0,0,0,0,0,.1,0,0,0,0,0,.1,0,0,0,0,0,.1,0,0,0,0,0,.1,0,0,0,0,0,.1,0,0,0,0,0,.1,0,0,0,0,0,0,0,0,0,0,.1,0,0,0,0,0,.1,0,0,0,0,0,.1,0,0,0,0,0,.1,0,0,0,0,0,.1,0,0,0,0,0,.1,0,0,0,0,0,.1,0,0,0,0,0,.1,0,0,0,0,0,.1,0,0,0,0,0,.1,0,0,0,0,0,.1,0,0,0,0,0,.1,0,0,0,0,0,.1,0,0,0,0,0,.1,0,0,0,0,0,.1,0h0s0,0,.1,0c0,0,0,0,0,0,0,0,0,0,.1,0,0,0,0,0,.1,0,0,0,0,0,.1,0,0,0,0,0,.1,0h0s0,0,0,0c0,0,.1,0,.2,0,0,0,0,0,.1,0,0,0,0,0,.1,0,0,0,0,0,.1,0,0,0,0,0,.1,0,0,0,0,0,.1,0,0,0,0,0,.1,0,0,0,0,0,.1,0,0,0,0,0,.1,0,0,0,0,0,0,0,0,0,0,0,0-.1,0,0,0,0,0-.1,0,0,0,0,0-.1,0,0,0,0,0-.1,0,0,0,0,0-.1,0,0,0,0,0-.1,0,0,0,0,0-.1,0,0,0,0,0-.1,0,0,0,0,0-.1,0,0,0,0,0-.1,0,0,0,0,0-.1,0,0,0,0,0-.1,0,0,0,0,0-.1,0,0,0,0,0-.1,0,0,0,0,0-.1h0c0-.1,0-.1,0-.2,0,0,0,0,0,0,0,0,0,0,0-.1,0,0,0,0,0-.1,0,0,0,0,0-.1,0,0,0,0,0-.1h0s0,0,0,0c0,0,0-.1,0-.2,0,0,0,0,0-.1,0,0,0,0,0-.1,0,0,0,0,0-.1,0,0,0,0,0-.1,0,0,0,0,0-.1,0,0,0,0,0-.1,0,0,0,0,0-.1,0,0,0,0,0-.1,0,0,0,0,0,0,0,0,0,0-.1,0,0,0,0,0-.1,0,0,0,0,0-.1,0,0,0,0,0-.1,0,0,0,0,0-.1,0,0,0,0,0-.1,0,0,0,0,0-.1,0,0,0,0,0-.1,0,0,0,0,0-.1,0,0,0,0,0-.1,0,0,0,0,0-.1,0,0,0,0,0-.1,0,0,0,0,0-.1,0,0,0,0,0-.1,0,0,0,0,0-.1,0h0ZM955.5,929.3" class="cls-5"/><path d="M955.5,929.3s0,0-.1,0c0,0,0,0,0,0,0,0,0,0-.1,0,0,0,0,0-.1,0,0,0,0,0-.1,0,0,0,0,0-.1,0h0s0,0,0,0c0,0-.1,0-.2,0,0,0,0,0-.1,0,0,0,0,0-.1,0,0,0,0,0-.1,0,0,0,0,0-.1,0,0,0,0,0-.1,0,0,0,0,0-.1,0,0,0,0,0-.1,0,0,0,0,0-.1,0,0,0,0,0,0,0,0,0,0,0,0,.1,0,0,0,0,0,.1,0,0,0,0,0,.1,0,0,0,0,0,.1,0,0,0,0,0,.1,0,0,0,0,0,.1,0,0,0,0,0,.1,0,0,0,0,0,.1,0,0,0,0,0,.1,0,0,0,0,0,.1,0,0,0,0,0,.1,0,0,0,0,0,.1,0,0,0,0,0,.1,0,0,0,0,0,.1,0,0,0,0,0,.1h0c0,.1,0,.1,0,.2,0,0,0,0,0,0,0,0,0,0,0,.1,0,0,0,0,0,.1,0,0,0,0,0,.1,0,0,0,0,0,.1h0s0,0,0,0c0,0,0,.1,0,.2,0,0,0,0,0,.1,0,0,0,0,0,.1,0,0,0,0,0,.1,0,0,0,0,0,.1,0,0,0,0,0,.1,0,0,0,0,0,.1,0,0,0,0,0,.1,0,0,0,0,0,.1,0,0,0,0,0,0,0,0,0,0,.1,0,0,0,0,0,.1,0,0,0,0,0,.1,0,0,0,0,0,.1,0,0,0,0,0,.1,0,0,0,0,0,.1,0,0,0,0,0,.1,0,0,0,0,0,.1,0,0,0,0,0,.1,0,0,0,0,0,.1,0,0,0,0,0,.1,0,0,0,0,0,.1,0,0,0,0,0,.1,0,0,0,0,0,.1,0,0,0,0,0,.1,0h0s0,0,.1,0c0,0,0,0,0,0,0,0,0,0,.1,0,0,0,0,0,.1,0,0,0,0,0,.1,0,0,0,0,0,.1,0h0s0,0,0,0c0,0,.1,0,.2,0,0,0,0,0,.1,0,0,0,0,0,.1,0,0,0,0,0,.1,0,0,0,0,0,.1,0,0,0,0,0,.1,0,0,0,0,0,.1,0,0,0,0,0,.1,0,0,0,0,0,.1,0,0,0,0,0,0,0,0,0,0,0,0-.1,0,0,0,0,0-.1,0,0,0,0,0-.1,0,0,0,0,0-.1,0,0,0,0,0-.1,0,0,0,0,0-.1,0,0,0,0,0-.1,0,0,0,0,0-.1,0,0,0,0,0-.1,0,0,0,0,0-.1,0,0,0,0,0-.1,0,0,0,0,0-.1,0,0,0,0,0-.1,0,0,0,0,0-.1,0,0,0,0,0-.1h0c0-.1,0-.1,0-.2,0,0,0,0,0,0,0,0,0,0,0-.1,0,0,0,0,0-.1,0,0,0,0,0-.1,0,0,0,0,0-.1h0s0,0,0,0c0,0,0-.1,0-.2,0,0,0,0,0-.1,0,0,0,0,0-.1,0,0,0,0,0-.1,0,0,0,0,0-.1,0,0,0,0,0-.1,0,0,0,0,0-.1,0,0,0,0,0-.1,0,0,0,0,0-.1,0,0,0,0,0,0,0,0,0,0-.1,0,0,0,0,0-.1,0,0,0,0,0-.1,0,0,0,0,0-.1,0,0,0,0,0-.1,0,0,0,0,0-.1,0,0,0,0,0-.1,0,0,0,0,0-.1,0,0,0,0,0-.1,0,0,0,0,0-.1,0,0,0,0,0-.1,0,0,0,0,0-.1,0,0,0,0,0-.1,0,0,0,0,0-.1,0,0,0,0,0-.1,0h0ZM955.5,929.3" class="cls-5"/><path d="M1028.5,1058c0,4.3-6.9,8.5-19.2,11.6-12.3,3.1-29,4.8-46.3,4.8s-34-1.7-46.3-4.8c-12.3-3.1-19.2-7.2-19.2-11.6,0-9,29.3-16.4,65.5-16.4s65.5,7.3,65.5,16.4h0ZM1028.5,1058" class="cls-2"/><path d="M935,1012.1c4.3,16.2,5.1,40.7-1.6,42.5-6.7,1.8-18.3-19.8-22.6-36-4.3-16.2,1.9-21.4,6.9-22.7,4.9-1.3,13,0,17.3,16.2h0ZM935,1012.1" class="cls-16"/><path d="M916.8,992.5c-3.2.9-7.1,3.2-9.2,7.6-2.1,4.5-2.5,10.7-.2,19.3,2.3,8.5,6.3,18.1,10.8,25.7,2.2,3.8,4.6,7,7,9.4,2.5,2.4,5.5,4.4,9.1,3.5,3.6-1,5.2-4.2,6.1-7.5.9-3.3,1.3-7.3,1.4-11.6.1-8.8-1.2-19.1-3.5-27.6-2.3-8.6-5.7-13.8-9.8-16.7-4.1-2.8-8.6-2.9-11.8-2h0ZM918.7,999.2c1.7-.5,3.7-.5,6,1,2.2,1.6,5,5.1,7,12.7,2.1,7.7,3.3,17.7,3.2,25.7,0,4-.5,7.5-1.1,9.8-.5,1.7-1.1,2.4-1.2,2.6-.2-.1-1.1-.4-2.4-1.7-1.7-1.7-3.8-4.5-5.9-7.9-4.1-6.9-8-16.2-10.1-23.9-2-7.6-1.4-12.1-.3-14.5,1.2-2.5,2.9-3.4,4.7-3.9h0ZM918.7,999.2" class="cls-13"/><path d="M996.2,1009.4c8.4,14.5,15.5,38,9.5,41.5-6,3.5-22.8-14.4-31.2-29-8.4-14.5-3.7-21.1.8-23.7,4.4-2.6,12.5-3.3,20.9,11.2h0ZM996.2,1009.4" class="cls-16"/><path d="M973.5,995.2c-2.9,1.7-6,4.9-6.9,9.8-.9,4.9.4,11,4.8,18.7,4.4,7.6,10.8,15.9,17.1,22,3.1,3.1,6.2,5.6,9.2,7.3,3,1.7,6.4,2.9,9.7,1,3.2-1.9,3.9-5.4,4-8.9,0-3.4-.6-7.4-1.7-11.6-2.2-8.5-6.1-18.2-10.5-25.8-4.5-7.7-9.1-11.9-13.8-13.6-4.7-1.7-9-.6-11.9,1.1h0ZM977,1001.3c1.6-.9,3.5-1.5,6-.6,2.6.9,6.2,3.6,10.1,10.5,4,6.9,7.8,16.3,9.8,24,1,3.9,1.5,7.4,1.5,9.8,0,1.8-.4,2.6-.5,2.9-.3,0-1.2-.1-2.7-1-2.1-1.2-4.9-3.4-7.7-6.2-5.7-5.6-11.9-13.5-15.9-20.5-3.9-6.8-4.5-11.3-4-14,.5-2.7,1.9-4.1,3.5-5h0ZM977,1001.3" class="cls-13"/><path d="M866.9,944.6c-16.8,0-40.7-5.6-40.7-12.5s23.9-12.5,40.7-12.5,20.2,7.4,20.2,12.5-3.4,12.5-20.2,12.5h0ZM866.9,944.6" class="cls-16"/><path d="M890.5,932.1c0-3.3-1.2-7.6-5-10.8-3.8-3.2-9.7-5.2-18.6-5.2s-19.1,1.4-27.6,3.8c-4.2,1.2-8,2.6-10.9,4.3-2.9,1.8-5.7,4.1-5.7,7.9s2.7,6.1,5.7,7.9c2.9,1.8,6.7,3.2,10.9,4.3,8.4,2.4,18.8,3.8,27.6,3.8s14.8-2,18.6-5.2c3.8-3.2,5-7.5,5-10.8h0ZM883.5,932.1c0,1.8-.5,3.7-2.5,5.5-2.1,1.8-6.2,3.5-14.1,3.5s-18-1.4-25.7-3.5c-3.8-1.1-7.1-2.4-9.2-3.6-1.5-.9-2.1-1.7-2.2-1.9.2-.2.7-1,2.2-1.9,2.1-1.2,5.3-2.5,9.2-3.6,7.7-2.2,17.7-3.5,25.7-3.5s12,1.7,14.1,3.5c2.1,1.8,2.5,3.7,2.5,5.5h0ZM883.5,932.1" class="cls-13"/><path d="M1055.6,921.5c10.2,13.3,20.3,35.7,14.8,39.9-5.5,4.2-24.5-11.3-34.7-24.7-10.2-13.3-6.4-20.5-2.3-23.6,4.1-3.1,12-5,22.2,8.4h0ZM1055.6,921.5" class="cls-16"/><path d="M1031.3,910.4c-2.6,2-5.3,5.6-5.5,10.6-.2,5,1.8,10.9,7.2,17.9,5.3,7,12.8,14.3,19.8,19.6,3.5,2.6,6.9,4.7,10.1,6,3.2,1.3,6.7,2,9.7-.3,3-2.3,3.2-5.9,2.8-9.3-.4-3.4-1.6-7.2-3.2-11.3-3.3-8.1-8.4-17.2-13.8-24.2-5.4-7.1-10.6-10.6-15.4-11.6-4.9-1.1-9,.6-11.7,2.6h0ZM1035.5,915.9c1.4-1.1,3.2-1.9,5.9-1.3,2.7.6,6.6,2.8,11.4,9.1,4.9,6.4,9.9,15.1,12.8,22.5,1.5,3.7,2.5,7.1,2.7,9.5.2,1.8,0,2.7-.1,2.9-.3,0-1.2,0-2.8-.6-2.2-.9-5.3-2.7-8.5-5.1-6.4-4.8-13.6-11.9-18.4-18.2-4.8-6.3-5.9-10.6-5.8-13.3.1-2.7,1.4-4.3,2.8-5.4h0ZM1035.5,915.9" class="cls-13"/><path d="M932.5,783.2s11,13,15.4,19.1c5.3,7.3,7.3,13.2,7.5,17.2.4,5.9-2.1,8.6-5.6,10.2-3.5,1.6-8.2,1.3-11.1-.8-2.9-2.1-5.1-5.6-3.2-13.8l2.3-10.1-9.7,3.7s-10.6,3.9-19,12.4c-4.2,4.3-8.1,9.9-9.4,16.9-1.3,7,0,15.2,5.2,23.7,2.9,4.8,2.8,8,2,10.3-.8,2.3-2.6,3.9-4.6,4.6-10.7,3.4-8.2-22.6-8.2-22.6-5.8,6.5-10,11.7-13.9,17.5-8.5,12.5-22.7,37.9-22.7,67.1,0,54,44.4,91.3,98,91.3s98-37.2,98-91.3-12.5-50.8-35.3-80.5l-7-8.8s-1.2,16.6-7.5,21.4c-2,1.5-4.3,1.8-6.1,1.2-1.8-.5-3.2-1.7-3.8-3.9-.6-2.2-.4-6.1,2.9-11.8,11.2-19.2,6.7-38.9-5.2-52.3-8.5-9.6-20.4-16.5-33.2-19.8-12-3.1-25.8-1.1-25.8-1.1h0ZM956.9,795.7c10.1,2.9,19.8,8.5,26.3,15.9,9.5,10.7,12.9,23.8,3.9,39.2-4.4,7.5-5.7,14.5-4,20.4,1.6,5.9,6.2,10.1,11.5,11.7,5.2,1.5,11.2.5,16-3.1,2.1-1.6,3.9-3.7,5.3-6.2,18,24.5,26.6,42.3,26.6,65.2,0,48-38.3,80.1-86.8,80.1s-86.8-32.1-86.8-80.1,11-45.2,18.8-57.5c.8,1.3,1.8,2.5,2.9,3.5,4.5,3.9,10.5,4.3,15.5,2.6,5-1.7,9.5-5.7,11.5-11.4,2-5.7,1.2-12.8-3-19.8-4-6.7-4.6-11.7-3.8-15.9.8-4.2,3.2-8,6.4-11.1,2.3-2.3,4.7-4,7.1-5.5.8,6.3,3.8,11.5,8.2,14.6,6.6,4.7,15.2,5.1,22.3,1.8,7.1-3.3,12.7-11.1,12.1-21.1-.4-6.9-3.5-14.7-9.8-23.3h0ZM956.9,795.7" class="cls-13"/><path d="M943,788c50.5,51.5-21.6,64.9-12.9,26.1,0,0-38.7,14.7-20.4,45,14.2,23.6-22.7,35-19.1,8,0,0-27.5,32.8-27.5,71.8s41.4,85.7,92.4,85.7,92.4-34.7,92.4-85.7-11.5-47.7-34.1-77.1c-2.7,26.7-37.4,18.3-21.9-8,20.3-34.6-16.1-65.6-48.9-65.6h0ZM943,788" class="cls-16"/><path d="M875.1,891.8c-6.2,12.7-12,29.2-12,47,0,51,41.4,85.7,92.4,85.7s92.4-34.7,92.4-85.7-3.5-27.9-10.4-41.5c3.8,10.2,5.7,20.4,5.7,31.6,0,51-39.2,85.7-87.6,85.7s-87.6-34.7-87.6-85.7,3.1-26.3,7.2-37.2h0ZM875.1,891.8" class="cls-11"/><path d="M963.4,854.9s-37.1-2.6-32.2,37.8c2.8,23.4-25.5,19-16.2-.2-54.3,51.8-10.7,107.2,40.6,107.2s87.1-55.5,50.1-95.7c10.7,31-31.3,31.1-27.5,4,3.3-22.7-4.1-29.4-13.1-34.3,4,15.6-15.6,16.7-14.6,3.1,1-12.9,12.9-21.9,12.9-21.9h0ZM963.4,854.9" class="cls-8"/><path d="M1019.5,929.2c-2.1,29.4-29.4,55.5-64,55.5s-62.2-23.4-64.3-54c-8.7,37.7,25.6,69.1,64.3,69.1,41.1,0,72.3-35.7,63.9-70.6h0ZM1019.5,929.2" class="cls-4"/><path d="M939.7,786.6l2.3,2.4c12.5,12.7,17.2,23,17.7,30.4.4,7.4-3.2,12-8,14.3-4.9,2.3-11,1.9-15.3-1.2-4.3-3.1-7-8.8-4.9-18.1l.6-2.5-2.4.9s-9.9,3.7-17.5,11.5c-3.8,3.9-7.1,8.8-8.3,14.8-1.1,6,0,13,4.7,20.8,3.4,5.6,3.6,10.3,2.4,13.8-1.3,3.5-4.1,6-7.2,7.1-3.1,1.1-6.4.7-8.7-1.3-2.3-2-3.8-5.8-3-12.2l.6-4.8-3.1,3.7s-27.8,33.1-27.8,72.7,42.1,87.1,93.8,87.1c51.7,0,93.8-35.3,93.8-87.1s-11.8-48.5-34.4-78l-2.1-2.8-.4,3.5c-.6,6.4-3.1,10.4-6.2,12.7-3,2.3-6.7,2.8-9.8,1.9-3.1-.9-5.7-3.2-6.7-6.8-1-3.6-.4-8.7,3.3-15,10.4-17.8,6.3-35-4.7-47.4-11-12.4-28.6-20.3-45.4-20.3h-3.3ZM946.4,789.6c14.9,1,30.3,8.2,39.9,19.2,10.4,11.7,14.2,27.3,4.4,44.1-4,6.8-4.9,12.7-3.6,17.2,1.2,4.5,4.6,7.6,8.6,8.8,4,1.2,8.5.4,12.3-2.4,3.1-2.3,5.5-6.2,6.7-11.4,21.2,28,31.9,47.9,31.9,73.8,0,50.3-40.6,84.3-91,84.3s-91-34-91-84.3,18.4-59.2,24.5-67.3c.2,4.6,1.7,8,4.1,10.1,3.2,2.7,7.5,3.1,11.4,1.8,3.9-1.3,7.4-4.4,8.9-8.8,1.6-4.4,1.1-10-2.6-16.2-4.4-7.3-5.3-13.5-4.3-18.8,1-5.3,3.9-9.7,7.5-13.3,5-5.1,11.1-8.3,14.3-9.8-1.2,8.7,1.7,15,6.4,18.4,5.2,3.7,12.3,4.1,18.1,1.4,5.8-2.7,10.2-8.6,9.6-17-.5-7.8-5.1-17.7-16.1-29.6h0ZM946.4,789.6" class="cls-13"/><path d="M931.1,949.2c0,13.5,11,22.1,24.5,22.1s24.5-8.6,24.5-22.1-22.4-21.2-17.5-39.6c0,0-31.5,17.5-31.5,39.6h0ZM931.1,949.2" class="cls-3"/><path d="M899.8,891.1c-1.9,2.5-3.1,5.6-3.1,9v7.2c0,8,6.4,14.4,14.4,14.4s14.4-6.4,14.4-14.4v-5.5l-25.7-10.6ZM899.8,891.1" class="cls-13"/><path d="M919.5,904c0,1.2-.5,2.4-1.4,3.3-.9.9-2.1,1.4-3.3,1.4s-2.4-.5-3.3-1.4c-.9-.9-1.4-2.1-1.4-3.3s.5-2.4,1.4-3.3c.9-.9,2.1-1.4,3.3-1.4s2.4.5,3.3,1.4c.9.9,1.4,2.1,1.4,3.3h0ZM919.5,904" class="cls-5"/><path d="M981.7,891.1l-25.7,10.6v5.5c0,8,6.4,14.4,14.4,14.4s14.4-6.4,14.4-14.4v-7.2c0-3.4-1.2-6.5-3.1-9h0ZM981.7,891.1" class="cls-13"/><path d="M978.8,904c0,1.2-.5,2.4-1.4,3.3-.9.9-2.1,1.4-3.3,1.4s-2.4-.5-3.3-1.4c-.9-.9-1.4-2.1-1.4-3.3s.5-2.4,1.4-3.3c.9-.9,2.1-1.4,3.3-1.4s2.4.5,3.3,1.4c.9.9,1.4,2.1,1.4,3.3h0ZM978.8,904" class="cls-5"/><path d="M908.4,933c-3.7,0-6.7,3-6.7,6.7v7.6c0,21.6,17.5,39.1,39.1,39.1s39.1-17.5,39.1-39.1v-7.6c0-3.7-3-6.7-6.7-6.7h-64.7ZM908.4,933" class="cls-14"/><path d="M940.8,959.7c-11.7,0-22.3,5.2-29.4,13.4,7.2,8.2,17.7,13.4,29.4,13.4s22.3-5.2,29.4-13.4c-7.2-8.2-17.7-13.4-29.4-13.4h0ZM940.8,959.7" class="cls-1"/><path d="M908.4,933c-3.7,0-6.7,3-6.7,6.7v6.8c12.2,5.8,25.6,8.9,39.1,8.9,13.5,0,26.9-3.1,39.1-8.9v-6.8c0-3.7-3-6.7-6.7-6.7h-64.7ZM908.4,933" class="cls-5"/><path d="M908.4,933c-3.7,0-6.7,3-6.7,6.7v6.8c4.4,2.1,9,3.8,13.7,5.1-2.7-1.8-3.2-4.3-3.2-8.2v-10.5h-3.7ZM908.4,933" class="cls-15"/><path d="M958.9,933v10.5c0,5.3-1.3,9.8-5.9,11.1,9.3-1.3,18.4-3.9,26.8-8v-6.8c0-3.7-3-6.7-6.7-6.7h-14.2ZM958.9,933" class="cls-15"/><path d="M973.1,933c3.7,0,6.7,3,6.7,6.7v6.8c-4.4,2.1-9,3.8-13.7,5.1,2.7-1.8,3.2-4.3,3.2-8.2v-10.5h3.7ZM973.1,933" class="cls-7"/><path d="M908.4,931.6c-4.5,0-8.1,3.7-8.1,8.1v7.6c0,22.3,18.1,40.5,40.5,40.5s40.5-18.1,40.5-40.5v-7.6c0-4.5-3.7-8.1-8.1-8.1h-64.7ZM908.4,934.4h64.7c3,0,5.3,2.4,5.3,5.3v7.6c0,20.8-16.9,37.7-37.7,37.7s-37.7-16.9-37.7-37.7v-7.6c0-3,2.4-5.3,5.3-5.3h0ZM908.4,934.4" class="cls-13"/><path d="M901.2,945.7l-.6,1.3c25.4,12.4,55.1,12.4,80.4,0l-.6-1.3c-25,12.2-54.2,12.2-79.2,0h0ZM901.2,945.7" class="cls-13"/><path d="M936.4,970.2c0,1.2-.7,2.4-1.9,3.2-1.2.9-2.9,1.3-4.6,1.3s-3.4-.5-4.6-1.3c-1.2-.9-1.9-2-1.9-3.2s.7-2.4,1.9-3.2c1.2-.9,2.9-1.3,4.6-1.3s3.4.5,4.6,1.3c1.2.9,1.9,2,1.9,3.2h0ZM936.4,970.2" class="cls-10"/></g></g></g></g></svg>