<svg xmlns="http://www.w3.org/2000/svg" xmlns:xlink="http://www.w3.org/1999/xlink" id="Capa_1" data-name="Capa 1" viewBox="0 0 1080 1080"><defs><style>.cls-1{fill:#fff}.cls-2{fill:url(#Degradado_sin_nombre_2)}.cls-3{fill:url(#Degradado_sin_nombre)}.cls-4{fill:#00ce00}</style><linearGradient id="Degradado_sin_nombre" x1="540" x2="540" y1="1088.85" y2="10.74" data-name="Degradado sin nombre" gradientTransform="translate(0 1082) scale(1 -1)" gradientUnits="userSpaceOnUse"><stop offset="0" stop-color="#2059fa"/><stop offset="1" stop-color="#3c2ab3"/></linearGradient><linearGradient id="Degradado_sin_nombre_2" x1="772.79" x2="772.79" y1="345.37" y2="109.14" data-name="Degradado sin nombre 2" gradientTransform="translate(0 1082) scale(1 -1)" gradientUnits="userSpaceOnUse"><stop offset="0" stop-color="#2059fa"/><stop offset="1" stop-color="#3c2ab3"/></linearGradient></defs><path d="M0,0v1080h1080V0H0ZM1001.39,1030.54H78.61c-16.1,0-29.15-13.05-29.15-29.15V78.61c0-16.1,13.05-29.15,29.15-29.15h922.78c16.1,0,29.15,13.05,29.15,29.15v922.78c0,16.1-13.05,29.15-29.15,29.15Z" class="cls-3"/><g><path d="M972.74,919.48l-2.6-87.2c-.2-6.66-3.03-12.96-7.88-17.53-4.67-4.4-10.83-6.83-17.22-6.83-.25,0-.5,0-.75.01l-11.63.35c-3.42-4.69-8.42-8.15-14.21-9.59v-30.82c0-13.87-11.24-25.12-25.12-25.12h-14.76c-.61,0-1.22.03-1.82.07-.6-.04-1.21-.07-1.82-.07h-35.23c-2.69,0-5.28.43-7.71,1.21-3.18-.75-6.75-1.21-10.78-1.21h-27.54c-5.23,0-10.08,1.6-14.1,4.33-4.82-2.46-11.17-4.33-19.36-4.33h-12.68c-3.31,0-6.31.31-9.04.84-2.06-.54-4.22-.84-6.44-.84h-35.23c-.97,0-1.92.06-2.86.17-.94-.11-1.89-.17-2.86-.17h-16.21c-3.87,0-7.59.89-10.91,2.49-3.33-1.61-7.04-2.49-10.91-2.49h-16.21c-13.87,0-25.12,11.24-25.12,25.12v52.2c-8.93,2.86-17.05,7.94-23.66,14.96-10.29,10.92-15.7,25.19-15.26,40.18l2.6,87.2c.2,6.66,3.03,12.96,7.88,17.53,4.67,4.4,10.83,6.83,17.22,6.83.25,0,.5,0,.75-.01l317.04-9.47c30.95-.92,55.38-26.86,54.45-57.81h-.02Z" class="cls-2"/><g><g><path d="M658.44,819.62l-8.52-29.93v44.27h-13.09v-66.1h16.21l10.91,37.41,10.91-37.41h16.21v66.1h-13.09v-44.38l-8.52,30.04h-11.02,0Z" class="cls-1"/><path d="M732.85,823.05v10.91h-36.06v-66.1h35.23v10.91h-20.37v16.11h17.36v10.91h-17.36v17.25h21.2Z" class="cls-1"/><path d="M758.63,808.5c0-1.87-.73-2.49-2.81-2.49h-9.15c-9.15,0-12.26-4.57-12.26-11.64v-15.07c0-7.07,3.64-11.43,13.09-11.43h12.68c9.46,0,13.09,4.36,13.09,11.43v8.63h-14.86v-6.55c0-1.87-.73-2.6-2.81-2.6h-3.53c-2.08,0-2.81.73-2.81,2.6v11.64c0,1.87.73,2.49,2.81,2.49h8.94c9.25,0,12.47,4.26,12.47,11.33v15.59c0,7.17-3.64,11.54-13.1,11.54h-12.58c-9.46,0-13.2-4.36-13.2-11.54v-8.52h14.86v6.55c0,1.87.73,2.6,2.81,2.6h3.53c2.08,0,2.81-.73,2.81-2.6v-11.95h.02Z" class="cls-1"/><path d="M821.19,767.87c9.46,0,13.2,4.36,13.2,11.43v43.13c0,7.17-3.74,11.54-13.2,11.54h-27.54v-66.1h27.54ZM819.53,780.65c0-1.87-.83-2.6-2.81-2.6h-8.21v45.73h8.21c1.97,0,2.81-.73,2.81-2.6v-40.53Z" class="cls-1"/><path d="M875.75,823.05v10.91h-36.06v-66.1h35.23v10.91h-20.37v16.11h17.36v10.91h-17.36v17.25h21.2Z" class="cls-1"/><path d="M912.34,823.05v10.91h-33.78v-66.1h14.76v55.19h19.02,0Z" class="cls-1"/></g><g><path d="M944.76,832.77c.52,5.19.27,10.42.46,15.62.38,10.56.68,21.08.96,31.68.66,25.39,6.43,51.87-20.13,66.71-14.96,8.36-45.42,5.88-63.15,6.45-76.11,2.46-152.32,5.22-228.44,7.24-11.3.3-22.55.45-33.86.46-.61-6.8-.24-13.61-.46-20.42-.56-17.04-1.76-34.28-1.96-51.32-.28-24.33,12.7-45.38,38.67-47.29,29.1-2.14,59.95-1.48,89.29-2.39l218.62-6.74h0Z" class="cls-4"/><g><path d="M665.63,926.29l-20.8.62-2.45,13.05-23.23.69,19.69-87.36,28.76-.86,24.87,86.03-23.77.71-3.09-12.88h.02ZM661.48,909.65l-7.55-31-5.96,31.4,13.5-.4h.01Z" class="cls-1"/><path d="M724.34,918.72l-11.75-35.74,1.64,54.83-21.07.63-2.59-86.7,25.79-.77,15.43,45.9,12.66-46.74,25.79-.77,2.59,86.7-20.93.62-1.65-55.1-9.72,36.65-16.21.48h.02Z" class="cls-1"/><path d="M799.96,848.48l2.59,86.7-23.63.71-2.59-86.7,23.63-.71Z" class="cls-1"/><path d="M841.49,876.97l-.33-11.21c-.06-2.03-1.17-2.94-3.46-2.87l-4.86.15c-2.3.07-3.35,1.05-3.29,3.07l1.48,49.69c.06,2.03,1.17,2.94,3.46,2.87l4.86-.15c2.3-.07,3.35-1.05,3.29-3.07l-.43-14.45-6.75.2-.45-14.99,30.38-.91.93,31.19c.3,10.13-4.9,16.91-19.35,17.34l-19.18.57c-14.45.43-20.05-6.02-20.35-16.15l-1.59-53.21c-.3-10.13,4.9-16.91,19.35-17.34l19.18-.57c14.45-.43,20.05,6.02,20.35,16.15l.39,12.96-23.63.71v.02Z" class="cls-1"/><path d="M908.4,845.24c14.45-.43,20.05,6.02,20.35,16.15l1.59,53.21c.3,10.13-4.9,16.91-19.35,17.34l-19.99.6c-14.45.43-20.05-6.02-20.35-16.15l-1.59-53.21c-.3-10.13,4.9-16.91,19.35-17.34l19.99-.6ZM905.21,865.2c-.06-2.03-1.17-2.94-3.46-2.87l-5.67.17c-2.29.07-3.35,1.05-3.29,3.07l1.4,46.99c.06,2.03,1.17,2.94,3.46,2.87l5.67-.17c2.3-.07,3.35-1.05,3.29-3.07l-1.4-46.99Z" class="cls-1"/></g></g></g></g></svg>