<svg xmlns="http://www.w3.org/2000/svg" xmlns:xlink="http://www.w3.org/1999/xlink" id="Capa_1" data-name="Capa 1" viewBox="0 0 1080 1080"><defs><style>.cls-1{fill:#4d1472}.cls-2{fill:none}.cls-3{fill:#fbb848}.cls-4{fill:#2d103c}.cls-5{clip-path:url(#clippath)}</style><clipPath id="clippath"><rect width="1080" height="1080" class="cls-2"/></clipPath></defs><g class="cls-5"><path d="M0,0v1080h1080V0H0ZM1031.5,1034.02H48.5V39.98h983.01v994.03Z" class="cls-3"/></g><path d="M629.81,1029.58c-1.78,16.77-4.04,17.46-18.68,17.5,13.42,1.6,17.72,4.26,18.68,22.71,0-15.06,3.19-21.98,18.68-22.71-14.65-.04-16.91-.73-18.68-17.5Z" class="cls-3"/><path d="M675.03,1046.56c-.95,8.95-2.15,9.31-9.97,9.33,7.16.86,9.45,3.21,9.97,13.04,0-8.03,1.7-12.66,9.97-13.04-7.81-.02-9.02-.39-9.97-9.33Z" class="cls-3"/><path d="M1038.03,947.56c-.95,8.95-2.15,9.31-9.97,9.33,7.16.86,9.45,1.21,9.97,11.04,0-8.03,1.7-10.66,9.97-11.04-7.81-.02-9.02-.39-9.97-9.33Z" class="cls-3"/><path d="M1051.81,895.58c-1.78,16.77-4.04,17.46-18.68,17.5,13.42,1.6,17.72,2.26,18.68,20.71,0-15.06,3.19-19.98,18.68-20.71-14.65-.04-16.91-.73-18.68-17.5Z" class="cls-3"/><g><path d="M1080,998.12h-403.57c-.76,0-1.3-1.58-1.06-3.12l26.85-130.35c.15-.98.58-1.65,1.06-1.65h376.71c.62,0,0,1.07,0,2.39v130.35c0,1.32.62,2.39,0,2.39Z" class="cls-4"/><path d="M1081,1080.44h-464.46c-.76,0-17.77,1.54-17.54,0l40.21-189.52c.15-.98.58-1.65,1.06-1.65h439.73c.62,0,0,1.07,0,2.39l1,188.79c0,1.32.62,0,0,0Z" class="cls-1"/></g><g><path d="M703.28,969.03c-18.03,0-22.42-5.91-22.42-14.71v-24.59c0-8.8,4.4-14.78,22.42-14.78s22.35,5.98,22.35,14.78v24.59c0,8.8-4.33,14.71-22.35,14.71ZM703.28,955.11c5.26,0,6.06-1.44,6.06-3.39v-19.4c0-1.87-.79-3.32-6.06-3.32s-6.06,1.44-6.06,3.32v19.4c0,1.95.87,3.39,6.06,3.39Z" class="cls-3"/><path d="M737.39,967.95c-1.8,0-2.6-.79-2.6-2.6v-46.72c0-1.8.79-2.6,2.6-2.6h32.16c1.8,0,2.6.79,2.6,2.6v8.58c0,1.8-.79,2.6-2.6,2.6h-18.39v7.5h12.55c1.8,0,2.6.79,2.6,2.6v8.65c0,1.8-.79,2.6-2.6,2.6h-12.55v14.2c0,1.8-.79,2.6-2.6,2.6h-11.18Z" class="cls-3"/><path d="M781.95,967.95c-1.8,0-2.6-.79-2.6-2.6v-46.72c0-1.8.79-2.6,2.6-2.6h33.46c1.8,0,2.6.79,2.6,2.6v8.44c0,1.8-.79,2.6-2.6,2.6h-19.9v5.55h14.06c1.8,0,2.6.79,2.6,2.6v7.72c0,1.8-.79,2.6-2.6,2.6h-14.06v6.2h19.9c1.8,0,2.6.79,2.6,2.6v8.44c0,1.8-.79,2.6-2.6,2.6h-33.46Z" class="cls-3"/><path d="M829.11,967.95c-1.8,0-2.6-.79-2.6-2.6v-46.72c0-1.8.79-2.6,2.6-2.6h24.01c10.82,0,14.2,4.9,14.2,12.04v3.32c0,4.04-1.01,6.92-4.04,8.22,5.26.58,8.72,4.4,8.72,10.46v15.29c0,1.8-.79,2.6-2.6,2.6h-11.18c-1.8,0-2.6-.79-2.6-2.6v-11.03c0-2.16-.72-3.1-2.74-3.1h-10.09v14.13c0,1.8-.79,2.6-2.6,2.6h-11.1ZM842.81,938.24h5.41c2.52,0,3.17-1.44,3.17-3.39v-2.45c0-1.95-.65-3.39-3.17-3.39h-5.41v9.23Z" class="cls-3"/><path d="M890.77,967.95c-1.8,0-2.6-.79-2.6-2.6v-35.4h-10.6c-1.8,0-2.6-.79-2.6-2.6v-8.72c0-1.8.79-2.6,2.6-2.6h38.07c1.8,0,2.6.79,2.6,2.6v8.72c0,1.8-.79,2.6-2.6,2.6h-10.6v35.4c0,1.8-.79,2.6-2.6,2.6h-11.68Z" class="cls-3"/><path d="M934.47,967.95h-10.6c-1.8,0-2.6-.79-2.6-2.6v-19.04c0-2.88.87-6.49,2.81-11.54l6.27-16.37c.58-1.66,1.73-2.38,3.68-2.38h19.4c1.87,0,3.03.72,3.61,2.38l6.27,16.37c1.95,5.05,2.81,8.65,2.81,11.54v19.04c0,1.8-.79,2.6-2.6,2.6h-10.89c-1.95,0-2.81-.79-2.81-2.6v-10.09h-12.76v10.09c0,1.8-.79,2.6-2.6,2.6ZM937.78,942.13h11.32l-3.39-10.96c-.36-.87-.79-1.23-1.37-1.23h-1.8c-.58,0-1.01.36-1.37,1.23l-3.39,10.96Z" class="cls-3"/><path d="M976.29,967.95c-1.8,0-2.6-.79-2.6-2.6v-8.44c0-1.8.79-2.6,2.6-2.6h19.4c1.23,0,1.87-.94,1.87-2.09,0-1.66-.65-2.31-1.87-2.45l-10.82-1.51c-6.78-1.01-11.18-3.89-11.18-11.97v-7.57c0-8.22,5.55-12.69,14.93-12.69h20.19c1.8,0,2.6.79,2.6,2.6v8.58c0,1.8-.79,2.6-2.6,2.6h-16.8c-1.23,0-1.95.87-1.95,2.16s.72,2.16,1.95,2.31l10.74,1.44c6.78,1.01,11.25,3.89,11.25,11.97v7.57c0,8.22-5.62,12.69-14.93,12.69h-22.78Z" class="cls-3"/><path d="M661.68,1033.83c-1.8,0-2.6-.79-2.6-2.6v-46.72c0-1.8.79-2.6,2.6-2.6h24.3c12.11,0,17.74,4.69,17.74,14.71v22.5c0,10.02-5.62,14.71-17.74,14.71h-24.3ZM675.45,1020.2h8.58c2.31,0,3.39-1.08,3.39-3.53v-17.52c0-2.38-1.08-3.46-3.39-3.46h-8.58v24.52Z" class="cls-3"/><path d="M715.47,1033.83c-1.8,0-2.6-.79-2.6-2.6v-46.72c0-1.8.79-2.6,2.6-2.6h33.46c1.8,0,2.6.79,2.6,2.6v8.44c0,1.8-.79,2.6-2.6,2.6h-19.9v5.55h14.06c1.8,0,2.6.79,2.6,2.6v7.72c0,1.8-.79,2.6-2.6,2.6h-14.06v6.2h19.9c1.8,0,2.6.79,2.6,2.6v8.44c0,1.8-.79,2.6-2.6,2.6h-33.46Z" class="cls-3"/><path d="M778.86,1033.83c-1.8,0-2.6-.79-2.6-2.6v-46.72c0-1.8.79-2.6,2.6-2.6h24.01c10.82,0,14.2,4.9,14.2,12.04v3.32c0,4.04-1.01,6.92-4.04,8.22,5.26.58,8.72,4.4,8.72,10.46v15.29c0,1.8-.79,2.6-2.6,2.6h-11.18c-1.8,0-2.6-.79-2.6-2.6v-11.03c0-2.16-.72-3.1-2.74-3.1h-10.09v14.13c0,1.8-.79,2.6-2.6,2.6h-11.1ZM792.56,1004.12h5.41c2.52,0,3.17-1.44,3.17-3.39v-2.45c0-1.95-.65-3.39-3.17-3.39h-5.41v9.23Z" class="cls-3"/><path d="M832.43,1033.83c-1.8,0-2.6-.79-2.6-2.6v-46.72c0-1.8.79-2.6,2.6-2.6h33.46c1.8,0,2.6.79,2.6,2.6v8.44c0,1.8-.79,2.6-2.6,2.6h-19.9v5.55h14.06c1.8,0,2.6.79,2.6,2.6v7.72c0,1.8-.79,2.6-2.6,2.6h-14.06v6.2h19.9c1.8,0,2.6.79,2.6,2.6v8.44c0,1.8-.79,2.6-2.6,2.6h-33.46Z" class="cls-3"/><path d="M891.63,1033.83c-1.87,0-2.6-.79-2.6-2.6v-9.23l-11.03-14.78c-2.24-2.96-2.74-4.4-2.74-8.87v-13.84c0-1.8.79-2.6,2.6-2.6h11.1c1.8,0,2.6.79,2.6,2.6v11.83c0,1.01,0,2.02.65,3.03l3.32,5.19c.5.87.94,1.23,1.73,1.23h.72c.79,0,1.23-.36,1.73-1.23l3.32-5.19c.65-1.01.65-2.02.65-3.03v-11.83c0-1.8.79-2.6,2.6-2.6h10.74c1.8,0,2.6.79,2.6,2.6v13.84c0,4.47-.58,5.91-2.74,8.87l-10.96,14.85v9.16c0,1.8-.79,2.6-2.6,2.6h-11.68Z" class="cls-3"/><path d="M930.43,1033.83c-1.8,0-2.6-.79-2.6-2.6v-46.72c0-1.8.79-2.6,2.6-2.6h33.46c1.8,0,2.6.79,2.6,2.6v8.44c0,1.8-.79,2.6-2.6,2.6h-19.9v5.55h14.06c1.8,0,2.6.79,2.6,2.6v7.72c0,1.8-.79,2.6-2.6,2.6h-14.06v6.2h19.9c1.8,0,2.6.79,2.6,2.6v8.44c0,1.8-.79,2.6-2.6,2.6h-33.46Z" class="cls-3"/><path d="M976.29,1033.83c-1.8,0-2.6-.79-2.6-2.6v-8.44c0-1.8.79-2.6,2.6-2.6h19.4c1.23,0,1.87-.94,1.87-2.09,0-1.66-.65-2.31-1.87-2.45l-10.82-1.51c-6.78-1.01-11.18-3.89-11.18-11.97v-7.57c0-8.22,5.55-12.69,14.93-12.69h20.19c1.8,0,2.6.79,2.6,2.6v8.58c0,1.8-.79,2.6-2.6,2.6h-16.8c-1.23,0-1.95.87-1.95,2.16s.72,2.16,1.95,2.31l10.74,1.44c6.78,1.01,11.25,3.89,11.25,11.97v7.57c0,8.22-5.62,12.69-14.93,12.69h-22.78Z" class="cls-3"/></g></svg>