<svg xmlns="http://www.w3.org/2000/svg" xmlns:xlink="http://www.w3.org/1999/xlink" viewBox="0 0 1080.19 1245.2"><defs><style>.cls-1{fill:url(#Degradado_sin_nombre_17)}.cls-1,.cls-10,.cls-11,.cls-12,.cls-13,.cls-14,.cls-15,.cls-16,.cls-17,.cls-18,.cls-19,.cls-2,.cls-20,.cls-21,.cls-22,.cls-3,.cls-4,.cls-5,.cls-6,.cls-7,.cls-8,.cls-9{stroke-width:0}.cls-23{opacity:.15}.cls-23,.cls-24,.cls-25,.cls-26{mix-blend-mode:multiply}.cls-27{opacity:.37}.cls-27,.cls-28{mix-blend-mode:overlay}.cls-29{clip-path:url(#clippath-20)}.cls-2{fill:url(#Degradado_sin_nombre_14)}.cls-30{clip-path:url(#clippath-11)}.cls-31{clip-path:url(#clippath-16)}.cls-3{fill:url(#Degradado_sin_nombre_7-3)}.cls-32{clip-path:url(#clippath-33)}.cls-4{fill:url(#Degradado_sin_nombre_21-6)}.cls-5{fill:url(#Degradado_sin_nombre_7-2)}.cls-33{clip-path:url(#clippath-41)}.cls-34{clip-path:url(#clippath-32)}.cls-6{fill:url(#Degradado_sin_nombre_3)}.cls-35{stroke:#56f4f4;stroke-width:47px}.cls-10,.cls-35,.cls-36{fill:none}.cls-35,.cls-36,.cls-37{stroke-miterlimit:10}.cls-38{mask:url(#mask-2)}.cls-39{clip-path:url(#clippath-2)}.cls-40{clip-path:url(#clippath-13)}.cls-41{isolation:isolate}.cls-42{clip-path:url(#clippath-37)}.cls-43{clip-path:url(#clippath-25)}.cls-44{clip-path:url(#clippath-15)}.cls-45{clip-path:url(#clippath-6)}.cls-36{stroke:#9b43ef}.cls-46{mask:url(#mask-3)}.cls-47{clip-path:url(#clippath-40)}.cls-48{clip-path:url(#clippath-26)}.cls-8{fill:url(#Degradado_sin_nombre_21-4)}.cls-9{fill:url(#Degradado_sin_nombre_21)}.cls-49{clip-path:url(#clippath-7)}.cls-50{clip-path:url(#clippath-21)}.cls-51{mix-blend-mode:color-burn;opacity:.26}.cls-11{fill:url(#Degradado_sin_nombre_17-2)}.cls-52{clip-path:url(#clippath-34)}.cls-12{fill:#c6c6c5}.cls-53{clip-path:url(#clippath-1)}.cls-54{clip-path:url(#clippath-4)}.cls-55{clip-path:url(#clippath-38)}.cls-56{clip-path:url(#clippath-36)}.cls-57{clip-path:url(#clippath-27)}.cls-13{fill:url(#Degradado_sin_nombre_21-3)}.cls-14{fill:url(#Degradado_sin_nombre_21-5)}.cls-15{fill:#6139c8}.cls-58{clip-path:url(#clippath-12)}.cls-16,.cls-37{fill:#fff}.cls-59{filter:url(#luminosity-invert)}.cls-24{opacity:.25}.cls-17{fill:url(#Degradado_sin_nombre_4)}.cls-18{fill:url(#Degradado_sin_nombre_7)}.cls-60{clip-path:url(#clippath-24)}.cls-61{clip-path:url(#clippath-30)}.cls-19{fill:url(#Degradado_sin_nombre_18)}.cls-20{fill:url(#Degradado_sin_nombre_11)}.cls-62{clip-path:url(#clippath-22)}.cls-63{clip-path:url(#clippath-9)}.cls-64{clip-path:url(#clippath)}.cls-25{opacity:.2}.cls-65{clip-path:url(#clippath-39)}.cls-37{stroke:#000}.cls-66{clip-path:url(#clippath-19)}.cls-67{clip-path:url(#clippath-31)}.cls-68{clip-path:url(#clippath-3)}.cls-69{clip-path:url(#clippath-43)}.cls-70{clip-path:url(#clippath-8)}.cls-71{mask:url(#mask-1)}.cls-72{mask:url(#mask)}.cls-73{clip-path:url(#clippath-29)}.cls-74{clip-path:url(#clippath-18)}.cls-75{clip-path:url(#clippath-14)}.cls-76{clip-path:url(#clippath-17)}.cls-77{clip-path:url(#clippath-5)}.cls-78{clip-path:url(#clippath-42)}.cls-79{filter:url(#luminosity-invert-2)}.cls-21{fill:url(#Degradado_sin_nombre_21-2)}.cls-80{clip-path:url(#clippath-10)}.cls-81{clip-path:url(#clippath-23)}.cls-22{fill:url(#Degradado_sin_nombre_5)}.cls-82{clip-path:url(#clippath-28)}.cls-83{clip-path:url(#clippath-35)}</style><clipPath id="clippath"><rect width="122.3" height="1080" x=".19" y="80.89" class="cls-10"/></clipPath><clipPath id="clippath-1"><rect width="241.82" height="242.59" x="815.88" y="933.96" class="cls-10"/></clipPath><clipPath id="clippath-2"><rect width="241.82" height="242.59" x="815.88" y="933.96" class="cls-10"/></clipPath><clipPath id="clippath-3"><rect width="228.15" height="188.09" x="815.88" y="941.1" class="cls-10"/></clipPath><clipPath id="clippath-4"><path d="m821.88,1006.02l211.22-64.53c6.64-2.03,12.76,4.4,10.43,10.97l-60.6,171.09c-1.88,5.3-8.26,7.33-12.84,4.1l-150.62-106.55c-5.76-4.07-4.33-13.01,2.41-15.07" class="cls-10"/></clipPath><linearGradient id="Degradado_sin_nombre_7" x1="1.19" x2="2.65" y1="1155.32" y2="1155.32" data-name="Degradado sin nombre 7" gradientTransform="translate(150411.03 1283.57) rotate(-90) scale(129.39 -129.39)" gradientUnits="userSpaceOnUse"><stop offset="0" stop-color="#000"/><stop offset="1" stop-color="#fff"/></linearGradient><clipPath id="clippath-5"><path d="m1001,958.53l-12.73,3.87c-.95.29-1.75.86-2.34,1.59-.91-.28-1.9-.3-2.84-.02l-27.05,8.23c-2.1.64-3.51,2.61-3.44,4.81l.1,3.25c-1.01-.91-2.2-1.65-3.56-2.19-1.66-.66-3.58-1-5.72-1-.16,0-.32,0-.48,0-2.15.05-4.54.48-7.3,1.32l-14.03,4.27c-.34.1-.66.25-.96.42-.34.03-.69.08-1.03.18l-11.19,3.4c-1.4.43-2.54,1.47-3.09,2.83l-2.76,6.85-2.13-3.47c-1.15-1.88-3.42-2.75-5.53-2.11l-10.08,3.06c-1.49.45-2.67,1.59-3.18,3.07-.11.31-.18.64-.22.96-.18-.06-.35-.13-.53-.18-3.69-1.12-7.81-1.02-12.19.31-3.9,1.19-7.27,3.03-10.03,5.47-2.14,1.89-3.91,4.01-5.31,6.3.83-.12,1.69-.19,2.55-.19,9.68,0,17.76,8.11,17.76,17.84,0,7.43-4.72,13.91-11.26,16.56.6.22,1.21.42,1.83.58l-9.31,2.88c-1.33.41-2.42,1.38-2.99,2.66l-4.02,9-3.58-4.94c-1.22-1.68-3.36-2.39-5.34-1.79l-9.44,2.92c-2.09.65-3.49,2.63-3.41,4.83l1.33,36.64c.06,1.51.81,2.91,2.04,3.79.83.59,1.81.9,2.81.9.48,0,.96-.07,1.43-.22l9.24-2.86c2.09-.65,3.5-2.63,3.41-4.83l-.22-5.87c1.26,1.4,3.22,1.95,5.03,1.38l.19-.06c1.01-.32,1.89-.96,2.5-1.81l.06,1.4c.06,1.51.81,2.91,2.04,3.78,1.23.87,2.79,1.12,4.23.68l9.39-2.9c2.09-.65,3.49-2.63,3.41-4.83l-.27-7.41c1.59,1.69,3.42,3.06,5.47,4.09,2.39,1.2,5.04,1.91,7.87,2.12.51.04,1.04.06,1.56.06,2.32,0,4.72-.38,7.15-1.13.49-.15.97-.32,1.44-.49-1.77,1.64-3.19,3.5-4.2,5.55-1.05,2.13-1.69,4.41-1.89,6.76-.15,1.78-.05,3.53.29,5.22l-4.29,1.33c-2.1.65-3.5,2.63-3.41,4.84l.25,6.54c.06,1.51.81,2.91,2.04,3.78.83.59,1.81.9,2.8.9.48,0,.96-.07,1.43-.22l6.08-1.88c1.99-.62,3.33-2.43,3.4-4.5,1.66.73,3.45,1.16,5.35,1.24.22.01.45.01.67.01,1.72,0,3.49-.28,5.28-.84,2.79-.86,5.11-2.19,6.89-3.93,1.08-1.06,1.99-2.23,2.76-3.48,1.71.84,3.59,1.35,5.6,1.49.37.03.74.04,1.12.04,1.66,0,3.38-.27,5.1-.8,2.52-.78,4.75-2.02,6.62-3.67.34-.3.65-.6.96-.92.78.5,1.68.77,2.59.77.48,0,.96-.07,1.43-.22l5.93-1.84c2.09-.65,3.5-2.63,3.41-4.83l-.03-.95c.62.06,1.25,0,1.87-.19.35.74.89,1.38,1.57,1.87,1.23.87,2.79,1.13,4.23.68l6.02-1.86c.41-.13.79-.32,1.14-.54.43-.01.85-.08,1.27-.2l6.08-1.88c.08-.02.15-.06.22-.09.09-.02.18-.03.27-.06l6.51-2.02c1.54-.48,2.75-1.69,3.21-3.24l.66-2.2,1.83-.57c1.06,2.11,3.49,3.16,5.75,2.46l6.29-1.95c.1-.03.19-.07.28-.1.07-.02.14-.02.2-.05l6.02-1.86c1.45-.45,2.57-1.54,3.1-2.91,1.21.84,2.75,1.1,4.19.65l6.6-2.05c1.58-.49,2.8-1.75,3.24-3.34.44-1.59.05-3.31-1.05-4.54l-2.39-2.68c.74-.97,1.31-2,1.73-3.09,1.01-2.7,1.08-5.53.2-8.39-.43-1.39-1.06-2.66-1.89-3.78-.93-1.25-2.1-2.26-3.48-3-1.62-.87-3.52-1.32-5.62-1.35h-.17c-1.81,0-3.79.34-6.03,1.03l-6.01,1.86c.44-.51.78-1.11.98-1.77l1.44-4.81,6.49-2.01.89,1.94c1.02,2.21,3.5,3.32,5.82,2.6l9.82-3.04c1.35-.42,2.45-1.41,3.02-2.71.56-1.3.53-2.79-.09-4.06l.28-.63c.05,1.51.81,2.91,2.04,3.79.83.59,1.81.9,2.81.9.48,0,.96-.07,1.43-.22l9.39-2.91c2.09-.65,3.5-2.63,3.41-4.83l-.44-11.96,11.7-26.55c.77-1.74.45-3.78-.81-5.2-1.26-1.42-3.23-1.98-5.05-1.42l-11.17,3.46c-1.4.43-2.53,1.48-3.07,2.85l-2.72,6.86-2.15-3.46c-1.16-1.88-3.44-2.73-5.54-2.08h0c0-1.18-.41-2.34-1.21-3.24l-5.28-6.01c1.73-1.75,3-3.69,3.79-5.79,1.38-3.63,1.49-7.44.32-11.32-.56-1.88-1.41-3.59-2.5-5.09-1.2-1.63-2.72-2.95-4.51-3.92-2.14-1.16-4.67-1.77-7.52-1.82h-.34c-2.53,0-5.31.47-8.51,1.44" class="cls-10"/></clipPath><linearGradient id="Degradado_sin_nombre_3" x1="6.31" x2="7.75" y1="1162.07" y2="1162.07" data-name="Degradado sin nombre 3" gradientTransform="translate(-182.34 186875.08) scale(159.92 -159.92)" gradientUnits="userSpaceOnUse"><stop offset="0" stop-color="#8134fb"/><stop offset=".12" stop-color="#773cfb"/><stop offset=".31" stop-color="#5e53fb"/><stop offset=".55" stop-color="#3579fb"/><stop offset=".57" stop-color="#327dfb"/><stop offset=".99" stop-color="#2bd1f5"/><stop offset="1" stop-color="#2bd1f5"/></linearGradient><clipPath id="clippath-6"><path d="m1001,958.53l-12.73,3.87c-.95.29-1.75.86-2.34,1.59-.91-.28-1.9-.3-2.84-.02l-27.05,8.23c-2.1.64-3.51,2.61-3.44,4.81l.1,3.25c-1.01-.91-2.2-1.65-3.56-2.19-1.66-.66-3.58-1-5.72-1-.16,0-.32,0-.48,0-2.15.05-4.54.48-7.3,1.32l-14.03,4.27c-.34.1-.66.25-.96.42-.34.03-.69.08-1.03.18l-11.19,3.4c-1.4.43-2.54,1.47-3.09,2.83l-2.76,6.85-2.13-3.47c-1.15-1.88-3.42-2.75-5.53-2.11l-10.08,3.06c-1.49.45-2.67,1.59-3.18,3.07-.11.31-.18.64-.22.96-.18-.06-.35-.13-.53-.18-3.69-1.12-7.81-1.02-12.19.31-3.9,1.19-7.27,3.03-10.03,5.47-2.14,1.89-3.91,4.01-5.31,6.3.83-.12,1.69-.19,2.55-.19,9.68,0,17.76,8.11,17.76,17.84,0,7.43-4.72,13.91-11.26,16.56.6.22,1.21.42,1.83.58l-9.31,2.88c-1.33.41-2.42,1.38-2.99,2.66l-4.02,9-3.58-4.94c-1.22-1.68-3.36-2.39-5.34-1.79l-9.44,2.92c-2.09.65-3.49,2.63-3.41,4.83l1.33,36.64c.06,1.51.81,2.91,2.04,3.79.83.59,1.81.9,2.81.9.48,0,.96-.07,1.43-.22l9.24-2.86c2.09-.65,3.5-2.63,3.41-4.83l-.22-5.87c1.26,1.4,3.22,1.95,5.03,1.38l.19-.06c1.01-.32,1.89-.96,2.5-1.81l.06,1.4c.06,1.51.81,2.91,2.04,3.78,1.23.87,2.79,1.12,4.23.68l9.39-2.9c2.09-.65,3.49-2.63,3.41-4.83l-.27-7.41c1.59,1.69,3.42,3.06,5.47,4.09,2.39,1.2,5.04,1.91,7.87,2.12.51.04,1.04.06,1.56.06,2.32,0,4.72-.38,7.15-1.13.49-.15.97-.32,1.44-.49-1.77,1.64-3.19,3.5-4.2,5.55-1.05,2.13-1.69,4.41-1.89,6.76-.15,1.78-.05,3.53.29,5.22l-4.29,1.33c-2.1.65-3.5,2.63-3.41,4.84l.25,6.54c.06,1.51.81,2.91,2.04,3.78.83.59,1.81.9,2.8.9.48,0,.96-.07,1.43-.22l6.08-1.88c1.99-.62,3.33-2.43,3.4-4.5,1.66.73,3.45,1.16,5.35,1.24.22.01.45.01.67.01,1.72,0,3.49-.28,5.28-.84,2.79-.86,5.11-2.19,6.89-3.93,1.08-1.06,1.99-2.23,2.76-3.48,1.71.84,3.59,1.35,5.6,1.49.37.03.74.04,1.12.04,1.66,0,3.38-.27,5.1-.8,2.52-.78,4.75-2.02,6.62-3.67.34-.3.65-.6.96-.92.78.5,1.68.77,2.59.77.48,0,.96-.07,1.43-.22l5.93-1.84c2.09-.65,3.5-2.63,3.41-4.83l-.03-.95c.62.06,1.25,0,1.87-.19.35.74.89,1.38,1.57,1.87,1.23.87,2.79,1.13,4.23.68l6.02-1.86c.41-.13.79-.32,1.14-.54.43-.01.85-.08,1.27-.2l6.08-1.88c.08-.02.15-.06.22-.09.09-.02.18-.03.27-.06l6.51-2.02c1.54-.48,2.75-1.69,3.21-3.24l.66-2.2,1.83-.57c1.06,2.11,3.49,3.16,5.75,2.46l6.29-1.95c.1-.03.19-.07.28-.1.07-.02.14-.02.2-.05l6.02-1.86c1.45-.45,2.57-1.54,3.1-2.91,1.21.84,2.75,1.1,4.19.65l6.6-2.05c1.58-.49,2.8-1.75,3.24-3.34.44-1.59.05-3.31-1.05-4.54l-2.39-2.68c.74-.97,1.31-2,1.73-3.09,1.01-2.7,1.08-5.53.2-8.39-.43-1.39-1.06-2.66-1.89-3.78-.93-1.25-2.1-2.26-3.48-3-1.62-.87-3.52-1.32-5.62-1.35h-.17c-1.81,0-3.79.34-6.03,1.03l-6.01,1.86c.44-.51.78-1.11.98-1.77l1.44-4.81,6.49-2.01.89,1.94c1.02,2.21,3.5,3.32,5.82,2.6l9.82-3.04c1.35-.42,2.45-1.41,3.02-2.71.56-1.3.53-2.79-.09-4.06l.28-.63c.05,1.51.81,2.91,2.04,3.79.83.59,1.81.9,2.81.9.48,0,.96-.07,1.43-.22l9.39-2.91c2.09-.65,3.5-2.63,3.41-4.83l-.44-11.96,11.7-26.55c.77-1.74.45-3.78-.81-5.2-1.26-1.42-3.23-1.98-5.05-1.42l-11.17,3.46c-1.4.43-2.53,1.48-3.07,2.85l-2.72,6.86-2.15-3.46c-1.16-1.88-3.44-2.73-5.54-2.08h0c0-1.18-.41-2.34-1.21-3.24l-5.28-6.01c1.73-1.75,3-3.69,3.79-5.79,1.38-3.63,1.49-7.44.32-11.32-.56-1.88-1.41-3.59-2.5-5.09-1.2-1.63-2.72-2.95-4.51-3.92-2.14-1.16-4.67-1.77-7.52-1.82h-.34c-2.53,0-5.31.47-8.51,1.44" class="cls-10"/></clipPath><clipPath id="clippath-7"><rect width="241.82" height="242.59" x="815.88" y="933.96" class="cls-10"/></clipPath><clipPath id="clippath-8"><path d="m854.99,1047.43c-1.33.41-2.42,1.38-2.99,2.66l-4.02,9-3.58-4.94c-1.22-1.68-3.36-2.39-5.34-1.79l-9.44,2.92c-2.09.65-3.49,2.63-3.41,4.83l1.33,36.64c.06,1.51.81,2.91,2.04,3.79.83.59,1.81.9,2.81.9.48,0,.96-.07,1.43-.22l9.24-2.86c2.09-.65,3.5-2.63,3.41-4.83l-.22-5.87c1.26,1.4,3.22,1.95,5.03,1.38l.19-.06c1.01-.32,1.89-.96,2.5-1.81l.06,1.4c.06,1.51.81,2.91,2.04,3.78,1.23.87,2.79,1.12,4.23.68l9.39-2.91c2.09-.65,3.49-2.63,3.41-4.83l-.27-7.41c1.59,1.69,3.42,3.06,5.47,4.09,2.39,1.2,5.04,1.91,7.87,2.12.51.04,1.04.06,1.56.06,2.32,0,4.72-.38,7.15-1.13.49-.15.97-.32,1.44-.49-1.77,1.64-3.19,3.5-4.2,5.55-1.05,2.13-1.69,4.41-1.89,6.76-.15,1.78-.05,3.53.29,5.22l-4.29,1.33c-2.1.65-3.5,2.63-3.41,4.84l.25,6.54c.06,1.51.81,2.91,2.04,3.78.83.59,1.81.9,2.8.9.48,0,.96-.07,1.43-.22l6.08-1.88c1.99-.62,3.33-2.43,3.4-4.5,1.66.73,3.45,1.16,5.35,1.24.22.01.45.01.67.01,1.72,0,3.49-.28,5.28-.84,2.79-.86,5.11-2.19,6.89-3.93,1.08-1.06,1.99-2.23,2.76-3.48,1.71.84,3.59,1.35,5.6,1.49.37.03.74.04,1.12.04,1.66,0,3.38-.27,5.1-.81,2.52-.78,4.75-2.02,6.62-3.67.34-.3.65-.6.96-.92.78.5,1.68.77,2.59.77.48,0,.96-.07,1.43-.22l5.93-1.84c.64-.2,1.21-.53,1.7-.95-3.45-1.69-6.59-3.57-9.9-5.9-7.14-5.01-15.76-7.44-22.69-12.74-5.5-4.21-9.22-8.63-13.38-14.12,0-.01-.02-.02-.03-.03-.66-.81-1.31-1.6-2.06-2.32-1.03-.98-2.08-1.93-3.17-2.84-.65-.48-1.7-1.27-2.13-1.57-.9-.61-1.79-1.23-2.71-1.82-1.83-1.17-3.68-2.31-5.57-3.37-1.84-1.03-3.7-2.03-5.6-2.95-.79-.38-1.59-.76-2.39-1.13-4.2-1.57-8.92-1.89-13.3-2.63-1.91-.32-3.85-.68-5.77-1.11l-7.11,2.2Z" class="cls-10"/></clipPath><linearGradient id="Degradado_sin_nombre_4" x1="10.86" x2="12.31" y1="1157.45" y2="1157.45" data-name="Degradado sin nombre 4" gradientTransform="translate(37809.54 82388.26) rotate(-25) scale(77.15 -77.15)" gradientUnits="userSpaceOnUse"><stop offset="0" stop-color="#4d43b5"/><stop offset="1" stop-color="#297ab6"/></linearGradient><clipPath id="clippath-9"><path d="m1036.45,933.96c-.81,0-1.64.13-2.48.38l-211.22,64.53c-6.74,2.06-8.16,11-2.41,15.07l150.62,106.56c4.57,3.24,10.96,1.2,12.84-4.1l60.6-171.09c2.03-5.72-2.34-11.33-7.89-11.35h-.06Z" class="cls-10"/></clipPath><linearGradient id="Degradado_sin_nombre_5" x1="6.36" x2="7.81" y1="1162.08" y2="1162.08" data-name="Degradado sin nombre 5" gradientTransform="translate(-186.11 184180.8) scale(157.61 -157.61)" gradientUnits="userSpaceOnUse"><stop offset="0" stop-color="#2bd1f5"/><stop offset="0" stop-color="#2bd1f5"/><stop offset=".43" stop-color="#327dfb"/><stop offset=".45" stop-color="#3579fb"/><stop offset=".69" stop-color="#5e53fb"/><stop offset=".88" stop-color="#773cfb"/><stop offset="1" stop-color="#8134fb"/></linearGradient><clipPath id="clippath-10"><rect width="241.82" height="242.59" x="815.88" y="933.96" class="cls-10"/></clipPath><clipPath id="clippath-11"><rect width="228.15" height="188.09" x="816.75" y="933.96" class="cls-10"/></clipPath><clipPath id="clippath-12"><path d="m822.75,998.87l211.22-64.53c6.64-2.03,12.76,4.4,10.43,10.97l-60.6,171.09c-1.88,5.3-8.26,7.33-12.84,4.1l-150.62-106.56c-5.76-4.07-4.33-13.01,2.41-15.07" class="cls-10"/></clipPath><linearGradient id="Degradado_sin_nombre_7-2" x1="1.21" x2="2.66" y1="1155.32" y2="1155.32" data-name="Degradado sin nombre 7" gradientTransform="translate(150411.63 1278.65) rotate(-90) scale(129.39 -129.39)" xlink:href="#Degradado_sin_nombre_7"/><clipPath id="clippath-13"><rect width="228.15" height="188.09" x="816.75" y="933.96" class="cls-10"/></clipPath><clipPath id="clippath-14"><path d="m822.75,998.87l211.22-64.53c6.64-2.03,12.76,4.4,10.43,10.97l-60.6,171.09c-1.88,5.3-8.26,7.33-12.84,4.1l-150.62-106.56c-5.76-4.07-4.33-13.01,2.41-15.07" class="cls-10"/></clipPath><linearGradient id="Degradado_sin_nombre_7-3" x1="1.21" x2="2.66" y1="1155.32" y2="1155.32" data-name="Degradado sin nombre 7" gradientTransform="translate(150411.63 1278.65) rotate(-90) scale(129.39 -129.39)" xlink:href="#Degradado_sin_nombre_7"/><clipPath id="clippath-15"><rect width="157.75" height="144.94" x="826.2" y="969.91" class="cls-10"/></clipPath><clipPath id="clippath-16"><rect width="158.08" height="144.94" x="825.87" y="969.91" class="cls-10"/></clipPath><clipPath id="clippath-17"><polygon points="816.14 977.78 925.54 948.59 972.24 1125.18 862.84 1154.36 816.14 977.78" class="cls-10"/></clipPath><linearGradient id="Degradado_sin_nombre_11" x1="11.42" x2="12.87" y1="1160.41" y2="1160.41" data-name="Degradado sin nombre 11" gradientTransform="translate(38624.42 146808.91) rotate(-14.87) scale(78.19 -129.75)" gradientUnits="userSpaceOnUse"><stop offset="0" stop-color="#fff"/><stop offset=".64" stop-color="#000"/><stop offset="1" stop-color="#000"/></linearGradient><mask id="mask" width="257.77" height="283.55" x="765.3" y="909.7" maskUnits="userSpaceOnUse"><g class="cls-44"><rect width="158.08" height="144.94" x="825.87" y="969.91" class="cls-7"/><g class="cls-41"><g class="cls-31"><g class="cls-76"><polygon points="765.3 962.15 961.95 909.7 1023.07 1140.8 826.42 1193.25 765.3 962.15" class="cls-20"/></g></g></g></g></mask><clipPath id="clippath-18"><rect width="157.75" height="144.94" x="826.2" y="969.91" class="cls-10"/></clipPath><clipPath id="clippath-19"><rect width="157.75" height="144.94" x="826.2" y="969.91" class="cls-10"/></clipPath><clipPath id="clippath-20"><path d="m972.56,1114.85c-2.12,0-4.21-.67-5.97-1.95l-58.63-42.69-78.55-56.1c-2.34-1.67-3.55-4.49-3.14-7.35.41-2.86,2.34-5.23,5.06-6.18l.12-.04,97.71-30.63,2.31,7.43-22.93,7.19c-30.55,9.58-36.98,50.14-10.9,68.77l14.83,10.59,58.66,42.71c.8.58,1.61.5,2.03.39.41-.1,1.17-.41,1.6-1.31l2.2-4.58,6.98,3.38-2.09,4.35c-1.12,2.34-3.02,4.28-5.42,5.26-1.26.51-2.58.76-3.88.76" class="cls-10"/></clipPath><linearGradient id="Degradado_sin_nombre_21" x1="8.7" x2="10.15" y1="1162.14" y2="1162.14" data-name="Degradado sin nombre 21" gradientTransform="translate(-121.6 127683.65) scale(108.97 -108.97)" gradientUnits="userSpaceOnUse"><stop offset="0" stop-color="#2bd1f5"/><stop offset="0" stop-color="#2bd1f5"/><stop offset=".61" stop-color="#327dfb"/><stop offset=".62" stop-color="#3579fb"/><stop offset=".79" stop-color="#5e53fb"/><stop offset=".92" stop-color="#773cfb"/><stop offset="1" stop-color="#8134fb"/></linearGradient><clipPath id="clippath-21"><rect width="157.75" height="144.94" x="826.2" y="969.91" class="cls-10"/></clipPath><clipPath id="clippath-22"><rect width="158.08" height="144.94" x="825.87" y="969.91" class="cls-10"/></clipPath><clipPath id="clippath-23"><polygon points="816.14 977.78 925.54 948.59 972.24 1125.18 862.84 1154.36 816.14 977.78" class="cls-10"/></clipPath><mask id="mask-1" width="257.77" height="283.55" x="765.3" y="909.7" maskUnits="userSpaceOnUse"><g class="cls-50"><rect width="158.08" height="144.94" x="825.87" y="969.91" class="cls-7"/><g class="cls-41"><g class="cls-62"><g class="cls-81"><polygon points="765.3 962.15 961.95 909.7 1023.07 1140.8 826.42 1193.25 765.3 962.15" class="cls-20"/></g></g></g></g></mask><clipPath id="clippath-24"><rect width="157.75" height="144.94" x="826.2" y="969.91" class="cls-10"/></clipPath><clipPath id="clippath-25"><rect width="157.75" height="144.94" x="826.2" y="969.91" class="cls-10"/></clipPath><clipPath id="clippath-26"><path d="m972.56,1114.85c-2.12,0-4.21-.67-5.97-1.95l-58.63-42.69-78.55-56.1c-2.34-1.67-3.55-4.49-3.14-7.35.41-2.86,2.34-5.23,5.06-6.18l.12-.04,97.71-30.63,2.31,7.43-22.93,7.19c-30.55,9.58-36.98,50.14-10.9,68.77l14.83,10.59,58.66,42.71c.8.58,1.61.5,2.03.39.41-.1,1.17-.41,1.6-1.31l2.2-4.58,6.98,3.38-2.09,4.35c-1.12,2.34-3.02,4.28-5.42,5.26-1.26.51-2.58.76-3.88.76" class="cls-10"/></clipPath><filter id="luminosity-invert" width="483.3" height="488.38" x="693.06" y="805.49" color-interpolation-filters="sRGB" filterUnits="userSpaceOnUse"><feColorMatrix result="cm" values="-1 0 0 0 1 0 -1 0 0 1 0 0 -1 0 1 0 0 0 1 0"/></filter><clipPath id="clippath-27"><polygon points="1066.47 1106.77 899.01 1189.25 802.96 992.6 970.42 910.12 1066.47 1106.77" class="cls-10"/></clipPath><linearGradient id="Degradado_sin_nombre_17" x1="6.98" x2="8.44" y1="1159.87" y2="1159.87" data-name="Degradado sin nombre 17" gradientTransform="translate(89457.64 183785.01) rotate(-26.13) scale(128.84 -175.06)" gradientUnits="userSpaceOnUse"><stop offset="0" stop-color="#000"/><stop offset="1" stop-color="#fff"/></linearGradient><clipPath id="clippath-28"><path d="m956.68,1060.77c0,33.49-27.04,60.64-60.39,60.64s-60.39-27.15-60.39-60.64,27.04-60.64,60.39-60.64,60.39,27.15,60.39,60.64" class="cls-10"/></clipPath><linearGradient id="Degradado_sin_nombre_14" x1="11.03" x2="12.48" y1="1162.14" y2="1162.14" data-name="Degradado sin nombre 14" gradientTransform="translate(-84.44 98019.76) scale(83.43 -83.43)" gradientUnits="userSpaceOnUse"><stop offset="0" stop-color="#000"/><stop offset=".57" stop-color="#fff"/><stop offset="1" stop-color="#fff"/></linearGradient><mask id="mask-2" width="483.3" height="488.38" x="693.06" y="805.49" maskUnits="userSpaceOnUse"><g class="cls-59"><g class="cls-41"><g class="cls-57"><polygon points="693.06 964.25 1015.37 805.49 1176.37 1135.12 854.06 1293.88 693.06 964.25" class="cls-1"/></g><g class="cls-82"><rect width="120.78" height="121.29" x="835.9" y="1000.13" class="cls-2"/></g></g></g></mask><clipPath id="clippath-29"><rect width="172.78" height="148.3" x="822.25" y="969.91" class="cls-10"/></clipPath><clipPath id="clippath-30"><path d="m973.75,1118.21c-2.12,0-5.88-3.72-7.64-5l-58.34-43-78.55-56.1c-2.34-1.67-7.73-4.65-6.89-8.15,1.03-4.28,6.09-4.43,8.8-5.38l.12-.04,97.71-30.63,3.8,12.06-58.13,16.21c-18.08,5.84-17.08,28.05-15.5,29.19l53.14,36.52,58.65,42.71c.8.58,1.61.5,2.03.39.41-.1,1.17-.41,1.6-1.31l2.09-4.36,11-33.33,7.36,2.45-11.16,33.8s-4.41,12.55-6.24,13.19c-1.28.46-2.57.76-3.88.76" class="cls-10"/></clipPath><linearGradient id="Degradado_sin_nombre_21-2" x1="8.03" x2="9.48" y1="1162.11" y2="1162.11" data-name="Degradado sin nombre 21" gradientTransform="translate(-136.7 139746.57) scale(119.35 -119.35)" xlink:href="#Degradado_sin_nombre_21"/><clipPath id="clippath-31"><rect width="16.65" height="16.37" x="1019.33" y="943.05" class="cls-10"/></clipPath><filter id="luminosity-invert-2" width="349.79" height="351.89" x="753.08" y="860.21" color-interpolation-filters="sRGB" filterUnits="userSpaceOnUse"><feColorMatrix result="cm" values="-1 0 0 0 1 0 -1 0 0 1 0 0 -1 0 1 0 0 0 1 0"/></filter><clipPath id="clippath-32"><polygon points="1043.07 1102.16 863.39 1152.38 812.88 970.15 992.56 919.92 1043.07 1102.16" class="cls-10"/></clipPath><linearGradient id="Degradado_sin_nombre_17-2" x1="7.38" x2="8.83" y1="1160.57" y2="1160.57" data-name="Degradado sin nombre 17" gradientTransform="translate(46971.15 170349.21) rotate(-15.55) scale(128.84 -151.18)" xlink:href="#Degradado_sin_nombre_17"/><clipPath id="clippath-33"><path d="m958.73,1056.81c0,32.02-25.85,57.98-57.74,57.98s-57.74-25.96-57.74-57.98,25.85-57.98,57.74-57.98,57.74,25.96,57.74,57.98" class="cls-10"/></clipPath><radialGradient id="Degradado_sin_nombre_18" cx="22.28" cy="1162.73" r="1.45" data-name="Degradado sin nombre 18" fx="22.28" fy="1162.73" gradientTransform="translate(12.43 47630.45) scale(39.89 -40.06)" gradientUnits="userSpaceOnUse"><stop offset="0" stop-color="#fff"/><stop offset="1" stop-color="#000"/></radialGradient><mask id="mask-3" width="349.79" height="351.89" x="753.08" y="860.21" maskUnits="userSpaceOnUse"><g class="cls-79"><g class="cls-41"><g class="cls-34"><polygon points="753.08 936.64 1026.52 860.21 1102.87 1135.67 829.43 1212.1 753.08 936.64" class="cls-11"/></g><g class="cls-32"><rect width="115.48" height="115.97" x="843.25" y="998.82" class="cls-19"/></g></g></g></mask><clipPath id="clippath-34"><rect width="171.63" height="148.42" x="823.21" y="969.79" class="cls-10"/></clipPath><clipPath id="clippath-35"><path d="m973.8,1118.21c-2.12,0-6.06-3.85-7.82-5.13l-58.39-42.99-78.55-56.1c-2.35-1.67-6.22-4.69-5.8-8.08.43-3.45,2.77-4.25,7.71-5.45l.12-.04,97.71-30.63.3,5.1-95.25,29.86c-1.24.39-1.51,2.04-.44,2.8l78.71,56.22,58.65,42.71c.8.58,1.61.49,2.03.39.41-.1,1.17-.41,1.6-1.31l2.09-4.36,11.01-33.33,7.36,2.45-11.16,33.8-1.54,4.73c-1.12,2.35-2.06,7.6-4.46,8.58-1.26.51-2.58.76-3.88.76" class="cls-10"/></clipPath><linearGradient id="Degradado_sin_nombre_21-3" x1="8.08" x2="9.53" y1="1162.11" y2="1162.11" data-name="Degradado sin nombre 21" gradientTransform="translate(-135.09 138824.37) scale(118.56 -118.56)" xlink:href="#Degradado_sin_nombre_21"/><clipPath id="clippath-36"><rect width="167.54" height="78.44" x="856.79" y="961.51" class="cls-10"/></clipPath><clipPath id="clippath-37"><rect width="130.72" height="61.08" x="886.84" y="1053.61" class="cls-10"/></clipPath><clipPath id="clippath-38"><rect width="221.82" height="105.28" x="830.24" y="994.12" class="cls-10"/></clipPath><clipPath id="clippath-39"><path d="m826.62,1012.32l10.56,7.47,33.58-10.25c2.16-2.87,5.07-5.07,8.47-5.71.53-2.8,1.73-5.38,3.41-7.58l-56.03,16.08Z" class="cls-10"/></clipPath><linearGradient id="Degradado_sin_nombre_21-4" x1="16.26" x2="17.71" y1="1162.59" y2="1162.59" data-name="Degradado sin nombre 21" gradientTransform="translate(-56.11 64116.77) scale(54.28 -54.28)" xlink:href="#Degradado_sin_nombre_21"/><clipPath id="clippath-40"><path d="m842.06,1023.14l9.19,6.58,15.99-4.71c-.32-1.32-.49-2.68-.49-4.08,0-1.63.28-3.35.8-5.06l-25.49,7.27Z" class="cls-10"/></clipPath><linearGradient id="Degradado_sin_nombre_21-5" x1="14.94" x2="16.39" y1="1162.44" y2="1162.44" data-name="Degradado sin nombre 21" gradientTransform="translate(-52.09 70604.32) scale(59.86 -59.86)" xlink:href="#Degradado_sin_nombre_21"/><clipPath id="clippath-41"><path d="m855.91,1033.24l7.33,5.16,11.23-2.83c-2.17-1.52-4-3.52-5.33-5.83l-13.23,3.49Z" class="cls-10"/></clipPath><linearGradient id="Degradado_sin_nombre_21-6" x1="15.38" x2="16.83" y1="1162.4" y2="1162.4" data-name="Degradado sin nombre 21" gradientTransform="translate(-40.64 68776.85) scale(58.28 -58.28)" xlink:href="#Degradado_sin_nombre_21"/><clipPath id="clippath-42"><rect width="118.67" height="77.26" x="819.07" y="965.82" class="cls-10"/></clipPath><clipPath id="clippath-43"><rect width="39.62" height="25.4" x="947.68" y="1093.24" class="cls-10"/></clipPath></defs><g class="cls-41"><g id="Capa_1" data-name="Capa 1"><rect width="1033" height="1033" x="23.69" y="104.39" class="cls-35"/><g class="cls-64"><line x1="122.18" x2=".32" y1=".38" y2="101.49" class="cls-36"/><line x1="122.18" x2=".32" y1="21.56" y2="122.66" class="cls-36"/><line x1="122.18" x2=".32" y1="42.73" y2="143.83" class="cls-36"/><line x1="122.18" x2=".32" y1="63.9" y2="165.01" class="cls-36"/><line x1="122.18" x2=".32" y1="85.08" y2="186.18" class="cls-36"/><line x1="122.18" x2=".32" y1="106.25" y2="207.35" class="cls-36"/><line x1="122.18" x2=".32" y1="127.42" y2="228.52" class="cls-36"/><line x1="122.18" x2=".32" y1="148.59" y2="249.7" class="cls-36"/><line x1="122.18" x2=".32" y1="169.77" y2="270.87" class="cls-36"/><line x1="122.18" x2=".32" y1="190.94" y2="292.04" class="cls-36"/><line x1="122.18" x2=".32" y1="212.11" y2="313.22" class="cls-36"/><line x1="122.18" x2=".32" y1="233.28" y2="334.39" class="cls-36"/><line x1="122.18" x2=".32" y1="254.46" y2="355.56" class="cls-36"/><line x1="122.18" x2=".32" y1="275.63" y2="376.73" class="cls-36"/><line x1="122.18" x2=".32" y1="296.8" y2="397.91" class="cls-36"/><line x1="122.18" x2=".32" y1="317.98" y2="419.08" class="cls-36"/><line x1="122.18" x2=".32" y1="339.15" y2="440.25" class="cls-36"/><line x1="122.18" x2=".32" y1="360.32" y2="461.42" class="cls-36"/><line x1="122.18" x2=".32" y1="381.49" y2="482.6" class="cls-36"/><line x1="122.18" x2=".32" y1="402.67" y2="503.77" class="cls-36"/><line x1="122.18" x2=".32" y1="423.84" y2="524.94" class="cls-36"/><line x1="122.18" x2=".32" y1="445.01" y2="546.11" class="cls-36"/><line x1="122.18" x2=".32" y1="466.18" y2="567.29" class="cls-36"/><line x1="122.18" x2=".32" y1="487.36" y2="588.46" class="cls-36"/><line x1="122.18" x2=".32" y1="508.53" y2="609.63" class="cls-36"/><line x1="122.18" x2=".32" y1="529.7" y2="630.81" class="cls-36"/><line x1="122.18" x2=".32" y1="550.87" y2="651.98" class="cls-36"/><line x1="122.18" x2=".32" y1="572.05" y2="673.15" class="cls-36"/><line x1="122.18" x2=".32" y1="593.22" y2="694.32" class="cls-36"/><line x1="122.18" x2=".32" y1="614.39" y2="715.5" class="cls-36"/><line x1="122.18" x2=".32" y1="635.57" y2="736.67" class="cls-36"/><line x1="122.18" x2=".32" y1="656.74" y2="757.84" class="cls-36"/><line x1="122.18" x2=".32" y1="677.91" y2="779.01" class="cls-36"/><line x1="122.18" x2=".32" y1="699.08" y2="800.19" class="cls-36"/><line x1="122.18" x2=".32" y1="720.26" y2="821.36" class="cls-36"/><line x1="122.18" x2=".32" y1="741.43" y2="842.53" class="cls-36"/><line x1="122.18" x2=".32" y1="762.6" y2="863.7" class="cls-36"/><line x1="122.18" x2=".32" y1="783.77" y2="884.88" class="cls-36"/><line x1="122.18" x2=".32" y1="804.95" y2="906.05" class="cls-36"/><line x1="122.18" x2=".32" y1="826.12" y2="927.22" class="cls-36"/><line x1="122.18" x2=".32" y1="847.29" y2="948.4" class="cls-36"/><line x1="122.18" x2=".32" y1="868.47" y2="969.57" class="cls-36"/><line x1="122.18" x2=".32" y1="889.64" y2="990.74" class="cls-36"/><line x1="122.18" x2=".32" y1="910.81" y2="1011.91" class="cls-36"/><line x1="122.18" x2=".32" y1="931.98" y2="1033.09" class="cls-36"/><line x1="122.18" x2=".32" y1="953.16" y2="1054.26" class="cls-36"/><line x1="122.18" x2=".32" y1="974.33" y2="1075.43" class="cls-36"/><line x1="122.18" x2=".32" y1="995.5" y2="1096.6" class="cls-36"/><line x1="122.18" x2=".32" y1="1016.67" y2="1117.78" class="cls-36"/><line x1="122.18" x2=".32" y1="1037.85" y2="1138.95" class="cls-36"/><line x1="122.18" x2=".32" y1="1059.02" y2="1160.12" class="cls-36"/><line x1="122.18" x2=".32" y1="1080.19" y2="1181.3" class="cls-36"/><line x1="122.18" x2=".32" y1="1101.36" y2="1202.47" class="cls-36"/><line x1="122.18" x2=".32" y1="1122.54" y2="1223.64" class="cls-36"/><line x1="122.18" x2=".32" y1="1143.71" y2="1244.81" class="cls-36"/></g><g class="cls-53"><g class="cls-39"><g class="cls-23"><g class="cls-68"><g class="cls-54"><rect width="232.14" height="191.42" x="813.71" y="939.46" class="cls-18"/></g></g></g></g><g class="cls-77"><rect width="231.93" height="160.37" x="826.12" y="957.08" class="cls-6"/></g><g class="cls-45"><rect width="231.93" height="160.37" x="826.12" y="957.08" class="cls-6"/></g><g class="cls-49"><path d="m1019.59,1066.24c.74-.96,1.31-2,1.73-3.09,1.01-2.7,1.08-5.52.2-8.39-.43-1.39-1.06-2.66-1.89-3.78-.93-1.25-2.1-2.26-3.48-3-1.62-.87-3.52-1.32-5.62-1.35h-.17c-1.81,0-3.79.34-6.03,1.03l-5.58,1.73c-1.67,4.5-3.08,9.06-3.8,13.94-1.11,7.54-2.15,14.65-4.93,21.65.97.36,2.06.42,3.11.09l6.3-1.95c.1-.03.19-.07.28-.1.07-.02.14-.02.2-.05l6.02-1.86c1.45-.45,2.58-1.54,3.1-2.91,1.2.84,2.75,1.1,4.19.65l6.6-2.05c1.58-.49,2.8-1.75,3.24-3.34.44-1.59.04-3.31-1.05-4.54l-2.39-2.69Z" class="cls-15"/><path d="m1056.48,988.06c-1.26-1.42-3.23-1.98-5.05-1.42l-11.17,3.46c-1.4.43-2.53,1.48-3.07,2.85l-2.72,6.86-2.14-3.46c-1.16-1.88-3.44-2.73-5.54-2.08h0c0-1.18-.41-2.33-1.21-3.24l-1.38-1.57c-1.04.83-2.13,1.62-3.24,2.39-1.19.83-2.41,1.62-3.62,2.44-.32.22-.65.44-.97.66-.45.46-.98,1.08-1.3,1.44-.1.17-.21.34-.31.51-.11.19-.22.42-.33.66-.1.33-.2.67-.29,1.01-.94,3.89-1.41,7.88-2.22,11.8-2.04,9.89-5.42,19.4-9.13,28.76-.48,1.22-.97,2.43-1.46,3.64l5.88-1.82.89,1.94c1.02,2.21,3.5,3.32,5.82,2.6l9.82-3.04c1.35-.42,2.45-1.41,3.02-2.71.56-1.3.53-2.79-.09-4.06l.28-.63c.05,1.51.81,2.91,2.03,3.79.83.59,1.81.9,2.81.9.48,0,.96-.07,1.43-.22l9.39-2.9c2.09-.65,3.49-2.63,3.41-4.83l-.44-11.96,11.7-26.55c.77-1.74.45-3.78-.81-5.2" class="cls-15"/></g><g class="cls-70"><polygon points="798.58 1058.13 928.54 997.27 978.35 1104.55 848.39 1165.41 798.58 1058.13" class="cls-17"/></g><g class="cls-63"><rect width="231.84" height="189.77" x="814.58" y="933.96" class="cls-22"/></g><g class="cls-80"><g class="cls-24"><g class="cls-30"><g class="cls-58"><rect width="232.14" height="191.42" x="814.58" y="932.31" class="cls-5"/></g></g></g><g class="cls-25"><g class="cls-40"><g class="cls-75"><rect width="232.14" height="191.42" x="814.58" y="932.31" class="cls-3"/></g></g></g><g class="cls-72"><g class="cls-28"><g class="cls-74"><g class="cls-51"><g class="cls-66"><g class="cls-29"><rect width="158.08" height="144.94" x="825.87" y="969.91" class="cls-9"/></g></g></g></g></g></g><g class="cls-71"><g class="cls-28"><g class="cls-60"><g class="cls-51"><g class="cls-43"><g class="cls-48"><rect width="158.08" height="144.94" x="825.87" y="969.91" class="cls-9"/></g></g></g></g></g></g><g class="cls-38"><g class="cls-73"><g class="cls-61"><rect width="173.53" height="148.3" x="821.49" y="969.91" class="cls-21"/></g></g></g><g class="cls-26"><g class="cls-67"><path d="m1035.77,949.37c1.01,4.45-1.76,8.8-6.29,9.83-4.53,1.03-8.94-1.67-9.95-6.13-1.01-4.45,1.82-8.76,6.39-9.8,4.48-1.02,8.83,1.65,9.84,6.1m-14.21,3.24c.8,3.53,4.08,5.73,7.6,4.93,3.43-.73,5.39-4.18,4.6-7.66-.8-3.53-4.05-5.79-7.56-4.99-3.42.78-5.43,4.24-4.64,7.73m5.79,3l-1.83.42-1.8-7.93c.7-.26,1.68-.64,2.98-.93,1.49-.34,2.22-.26,2.84.01.56.23,1.03.73,1.2,1.51.22.97-.36,1.76-1.21,2.26l.02.1c.83.06,1.35.61,1.84,1.61.51,1.16.8,1.55,1.02,1.81l-1.93.44c-.31-.23-.6-.88-1.06-1.79-.33-.79-.9-1.06-1.91-.83l-.87.2.71,3.14Zm-.96-4.46l.87-.2c1.01-.23,1.75-.76,1.57-1.58-.17-.73-.8-1.09-1.96-.82-.48.11-.81.24-.99.33l.51,2.28Z" class="cls-12"/></g></g><path d="m1036.55,947.62c1.01,4.45-1.76,8.8-6.29,9.83-4.53,1.03-8.94-1.67-9.95-6.13-1.01-4.45,1.82-8.76,6.39-9.8,4.48-1.02,8.83,1.65,9.84,6.1m-14.21,3.24c.8,3.53,4.08,5.73,7.6,4.93,3.43-.73,5.39-4.18,4.6-7.66-.8-3.53-4.05-5.79-7.56-4.99-3.42.78-5.43,4.24-4.64,7.73m5.79,3l-1.83.42-1.8-7.93c.7-.26,1.68-.64,2.98-.93,1.49-.34,2.22-.26,2.84.01.56.23,1.03.73,1.2,1.51.22.97-.36,1.76-1.21,2.26l.02.1c.83.06,1.35.61,1.84,1.61.51,1.16.8,1.55,1.02,1.81l-1.93.44c-.31-.23-.6-.88-1.06-1.79-.33-.79-.9-1.06-1.91-.83l-.87.2.71,3.14Zm-.96-4.46l.87-.2c1.01-.23,1.75-.76,1.57-1.58-.17-.73-.8-1.09-1.96-.82-.48.11-.81.24-.99.33l.51,2.28Z" class="cls-16"/><g class="cls-46"><g class="cls-52"><g class="cls-83"><rect width="172.02" height="148.42" x="822.82" y="969.79" class="cls-13"/></g></g></g><g class="cls-26"><g class="cls-56"><path d="m878.08,1039.02c-2.35.71-4.6,1.02-6.75.92-2.16-.1-4.13-.58-5.94-1.45-1.8-.86-3.38-2.08-4.71-3.67-1.34-1.58-2.35-3.51-3.03-5.77-.76-2.52-1.02-5.14-.77-7.88.24-2.74.99-5.34,2.22-7.81,1.24-2.47,2.98-4.7,5.22-6.69,2.24-1.98,4.99-3.47,8.23-4.46,3.47-1.06,6.6-1.16,9.38-.32,2.78.85,5.08,2.42,6.9,4.72l-6.78,6.82c-1.09-1.18-2.3-1.99-3.62-2.41-1.32-.43-2.82-.39-4.49.12-1.42.43-2.64,1.14-3.68,2.12-1.04.98-1.85,2.13-2.44,3.44-.59,1.31-.95,2.71-1.07,4.21-.13,1.5.03,2.99.48,4.48.65,2.16,1.8,3.67,3.45,4.53,1.64.86,3.45.99,5.41.39,1.48-.45,2.69-1.14,3.63-2.08.95-.94,1.8-2.12,2.56-3.55l8.01,3.7c-1.08,2.37-2.58,4.49-4.5,6.36-1.93,1.87-4.5,3.3-7.71,4.27" class="cls-12"/><polygon points="901.74 1016.76 888.68 998.06 898.75 995 905.9 1006.67 912.25 990.89 923.44 987.49 911.16 1015.01 911.57 1028.1 902.17 1030.96 901.74 1016.76" class="cls-12"/><path d="m925.42,986.89l14.03-4.27c2.31-.7,4.32-1.07,6.01-1.11,1.69-.04,3.12.18,4.3.65,1.18.47,2.11,1.14,2.81,2,.7.86,1.21,1.83,1.53,2.89.65,2.16.54,4.21-.34,6.13-.88,1.92-2.42,3.54-4.62,4.84,1.68.09,3.16.55,4.44,1.37,1.28.83,2.19,2.11,2.71,3.85.44,1.45.54,2.9.31,4.35-.23,1.45-.84,2.82-1.84,4.13-.99,1.31-2.37,2.52-4.14,3.64-1.77,1.12-3.95,2.07-6.56,2.87l-17.5,5.32-1.15-36.65Zm15.93,9.9c1.67-.51,2.85-1.2,3.53-2.07.68-.87.87-1.84.55-2.89-.23-.77-.73-1.28-1.49-1.54-.76-.26-1.87-.17-3.31.27l-5.84,1.77.24,6.38,6.32-1.92Zm1.15,13.6c1.64-.5,2.82-1.22,3.54-2.15.72-.93.92-1.93.6-2.99-.53-1.76-2.18-2.22-4.94-1.38l-6.46,1.97.18,6.71,7.09-2.16Z" class="cls-12"/><polygon points="959.84 976.42 986.89 968.19 987.13 976.84 969.39 982.24 969.54 987.8 985.64 982.9 985.9 990.91 969.8 995.81 969.97 1001.62 988 996.14 988.29 1004.77 961 1013.07 959.84 976.42" class="cls-12"/><path d="m992.08,966.62l12.73-3.87c2.83-.86,5.28-1.27,7.36-1.24,2.08.04,3.85.45,5.31,1.24,1.17.63,2.14,1.47,2.91,2.53.77,1.05,1.36,2.25,1.77,3.61.86,2.84.79,5.57-.21,8.18-.99,2.61-3.08,4.91-6.27,6.9l8.65,9.84-10.32,3.14-7.58-8.9-4.15,1.26.35,11.1-9.4,2.86-1.16-36.65Zm15.3,13.11c2.12-.65,3.68-1.58,4.68-2.81,1-1.23,1.28-2.57.84-4.03-.26-.88-.78-1.55-1.56-2.03-1.01-.55-2.51-.51-4.5.09l-5.06,1.54.25,8.86,5.35-1.63Z" class="cls-12"/></g></g><g class="cls-26"><g class="cls-42"><polygon points="886.84 1108.16 892.95 1106.26 893.17 1112.81 887.09 1114.7 886.84 1108.16" class="cls-12"/><path d="m907.88,1108.73c-1.5.47-2.94.67-4.32.61-1.38-.06-2.65-.36-3.81-.91-1.16-.55-2.17-1.32-3.03-2.34-.86-1.01-1.52-2.24-1.96-3.69-.5-1.61-.67-3.29-.52-5.05.15-1.75.62-3.42,1.4-5.02.78-1.59,1.89-3.02,3.32-4.3,1.43-1.28,3.19-2.24,5.26-2.89,2.22-.69,4.23-.77,6.01-.23,1.79.53,3.26,1.53,4.44,3l-4.33,4.4c-.7-.75-1.48-1.27-2.33-1.54-.85-.27-1.81-.24-2.88.09-.9.28-1.69.74-2.35,1.37-.66.64-1.18,1.37-1.55,2.21-.37.84-.6,1.74-.67,2.7-.08.96.03,1.92.33,2.87.42,1.38,1.17,2.35,2.22,2.89,1.06.55,2.21.62,3.47.23.95-.29,1.72-.74,2.32-1.35s1.15-1.37,1.63-2.29l5.15,2.34c-.68,1.52-1.64,2.89-2.86,4.09-1.23,1.21-2.87,2.13-4.93,2.77" class="cls-12"/><path d="m929.35,1102.05c-1.54.48-3.02.67-4.44.56-1.42-.1-2.71-.45-3.88-1.04-1.17-.59-2.19-1.4-3.05-2.43-.86-1.03-1.5-2.24-1.93-3.63-.51-1.65-.68-3.35-.51-5.09.17-1.74.64-3.37,1.42-4.9s1.85-2.9,3.2-4.1c1.35-1.2,2.97-2.09,4.84-2.67,1.54-.48,3.02-.67,4.44-.56,1.42.1,2.71.45,3.88,1.04,1.17.59,2.19,1.4,3.05,2.43.86,1.04,1.5,2.24,1.93,3.63.51,1.65.68,3.35.52,5.08-.17,1.74-.64,3.37-1.42,4.9-.78,1.53-1.85,2.9-3.2,4.1-1.35,1.2-2.97,2.09-4.84,2.67m-1.13-5.56c.94-.29,1.73-.76,2.37-1.41.64-.65,1.12-1.39,1.45-2.23.33-.84.51-1.71.56-2.62.05-.91-.06-1.76-.3-2.57-.21-.68-.51-1.29-.89-1.81-.39-.52-.84-.94-1.38-1.25-.53-.31-1.13-.49-1.78-.55-.66-.06-1.36.03-2.12.27-.94.29-1.73.76-2.36,1.41-.63.65-1.11,1.39-1.45,2.23-.33.84-.53,1.71-.57,2.62-.05.91.06,1.77.3,2.57.21.68.51,1.29.89,1.81.39.52.84.94,1.38,1.25.53.31,1.13.49,1.78.55.66.06,1.36-.03,2.12-.27" class="cls-12"/><polygon points="940.09 1074.52 946.14 1072.65 951.58 1080.16 956.35 1069.48 963.08 1067.4 963.94 1090.89 957.92 1092.75 957.4 1079.27 952.26 1090.16 952.14 1090.2 946.37 1082.76 946.87 1096.18 940.95 1098.01 940.09 1074.52" class="cls-12"/><polygon points="966.1 1083.6 972.21 1081.71 972.43 1088.26 966.35 1090.14 966.1 1083.6" class="cls-12"/><path d="m981.24,1061.6l5.86-1.82,10.07,20.81-6.3,1.95-1.71-3.71-8.33,2.58-1.4,4.68-6.51,2.02,8.32-26.5Zm6,12.7l-2.68-5.99-2.13,7.48,4.81-1.49Z" class="cls-12"/><path d="m996.79,1056.95l8.15-2.52c1.81-.56,3.38-.83,4.72-.82,1.33.02,2.47.28,3.41.78.75.4,1.38.94,1.87,1.61.5.67.88,1.44,1.15,2.31.56,1.82.52,3.57-.1,5.24-.63,1.68-1.96,3.16-4,4.45l5.58,6.28-6.6,2.05-4.89-5.68-2.65.82.26,7.11-6.02,1.86-.86-23.49Zm9.85,8.35c1.36-.42,2.35-1.02,2.99-1.81.64-.79.81-1.65.52-2.59-.17-.56-.51-.99-1.01-1.29-.65-.35-1.61-.32-2.88.07l-3.24,1,.19,5.68,3.43-1.06Z" class="cls-12"/></g></g><g class="cls-26"><g class="cls-55"><polygon points="830.24 1062.76 839.68 1059.84 848.17 1071.55 855.61 1054.9 866.11 1051.66 867.44 1088.3 858.05 1091.21 857.24 1070.18 849.22 1087.16 849.03 1087.22 840.03 1075.61 840.82 1096.54 831.57 1099.4 830.24 1062.76" class="cls-12"/><path d="m892.63,1081.19c-2.41.74-4.72,1.04-6.93.87-2.21-.16-4.23-.7-6.06-1.62-1.83-.92-3.41-2.18-4.75-3.8-1.34-1.61-2.34-3.5-3-5.66-.79-2.58-1.06-5.22-.8-7.93.26-2.71,1-5.26,2.21-7.65,1.22-2.39,2.88-4.52,5-6.39,2.11-1.87,4.63-3.26,7.55-4.16,2.41-.74,4.72-1.04,6.93-.87,2.21.16,4.23.7,6.06,1.62,1.83.92,3.41,2.18,4.75,3.8,1.34,1.62,2.34,3.5,3,5.66.79,2.58,1.06,5.22.8,7.93-.26,2.71-1,5.26-2.21,7.65-1.22,2.39-2.88,4.52-5,6.39-2.11,1.87-4.63,3.26-7.55,4.16m-1.76-8.67c1.47-.45,2.7-1.19,3.7-2.2,1-1.01,1.75-2.17,2.26-3.48.51-1.3.8-2.66.87-4.08.07-1.42-.09-2.75-.47-4.01-.33-1.06-.79-2.01-1.39-2.82-.6-.82-1.32-1.47-2.15-1.96-.83-.48-1.76-.77-2.78-.86-1.02-.09-2.13.05-3.31.41-1.47.46-2.69,1.19-3.68,2.2-.98,1.01-1.74,2.17-2.26,3.48-.52,1.31-.82,2.67-.89,4.09-.07,1.42.08,2.75.47,4.01.33,1.06.79,2,1.39,2.82.6.82,1.32,1.47,2.15,1.96.83.49,1.76.77,2.78.86,1.02.09,2.13-.05,3.31-.41" class="cls-12"/><polygon points="911.08 1037.74 919.79 1035.04 934.28 1051.15 933.56 1030.78 942.85 1027.91 944.19 1064.55 936 1067.08 920.93 1050.42 921.7 1071.51 912.41 1074.38 911.08 1037.74" class="cls-12"/><path d="m948.69,1026.1l10.88-3.37c3.27-1.01,6.09-1.44,8.46-1.3,2.37.15,4.39.67,6.07,1.56,3.19,1.7,5.42,4.62,6.7,8.78.78,2.55,1.05,5.09.82,7.63-.24,2.55-.99,5.02-2.26,7.42-1.4,2.66-3.4,4.97-5.99,6.94-2.6,1.97-5.85,3.56-9.77,4.77l-13.58,4.2-1.33-36.64Zm13.47,23.78c1.96-.6,3.68-1.46,5.17-2.55,1.49-1.1,2.62-2.38,3.4-3.86.62-1.18,1-2.46,1.14-3.85.14-1.38,0-2.75-.42-4.11-.32-1.03-.74-1.88-1.26-2.55-.52-.67-1.14-1.19-1.85-1.57-.84-.45-1.85-.69-3.02-.73-1.17-.04-2.58.19-4.22.7l-2.7.83.66,18.64,3.08-.96Z" class="cls-12"/><path d="m996.67,1010.99l9.15-2.83,15.71,32.46-9.82,3.04-2.67-5.79-13,4.02-2.19,7.29-10.16,3.14,12.99-41.34Zm9.35,19.82l-4.19-9.35-3.32,11.67,7.51-2.32Z" class="cls-12"/><polygon points="1030.5 1023.5 1017.34 1004.86 1027.41 1001.74 1034.61 1013.38 1040.89 997.57 1052.06 994.12 1039.91 1021.7 1040.39 1034.78 1031 1037.69 1030.5 1023.5" class="cls-12"/></g></g><polygon points="887.79 1104.71 893.9 1102.81 894.12 1109.36 888.04 1111.25 887.79 1104.71" class="cls-16"/><path d="m908.83,1105.28c-1.5.47-2.94.67-4.32.61-1.38-.06-2.65-.36-3.81-.91-1.16-.55-2.17-1.32-3.03-2.34-.86-1.01-1.52-2.24-1.96-3.69-.5-1.61-.67-3.29-.52-5.05.15-1.75.62-3.42,1.4-5.02.78-1.59,1.89-3.02,3.32-4.3,1.43-1.28,3.19-2.24,5.26-2.89,2.22-.69,4.23-.77,6.01-.23,1.79.53,3.26,1.53,4.44,3l-4.33,4.4c-.7-.75-1.48-1.27-2.33-1.54-.85-.27-1.81-.24-2.88.09-.9.28-1.69.74-2.35,1.37-.66.64-1.18,1.37-1.55,2.21-.37.84-.6,1.74-.67,2.7-.08.96.03,1.92.33,2.87.42,1.38,1.17,2.35,2.22,2.89,1.06.55,2.21.62,3.47.23.95-.29,1.72-.74,2.32-1.35.6-.6,1.15-1.37,1.63-2.29l5.15,2.34c-.68,1.52-1.64,2.89-2.86,4.09-1.23,1.21-2.87,2.13-4.93,2.77" class="cls-16"/><path d="m930.3,1098.6c-1.54.48-3.02.67-4.44.56-1.42-.1-2.71-.45-3.88-1.04-1.17-.59-2.19-1.4-3.05-2.43-.86-1.03-1.5-2.24-1.93-3.63-.51-1.65-.68-3.35-.51-5.09.17-1.74.64-3.37,1.42-4.9.78-1.53,1.85-2.9,3.2-4.1,1.35-1.2,2.97-2.09,4.84-2.67,1.54-.48,3.02-.67,4.44-.56,1.42.1,2.71.45,3.88,1.04,1.17.59,2.19,1.4,3.05,2.43.86,1.04,1.5,2.24,1.93,3.63.51,1.65.68,3.35.52,5.08-.17,1.74-.64,3.37-1.42,4.9-.78,1.53-1.85,2.9-3.2,4.1-1.35,1.2-2.97,2.09-4.84,2.67m-1.13-5.56c.94-.29,1.73-.76,2.37-1.41.64-.65,1.12-1.39,1.45-2.23.33-.84.51-1.71.56-2.62.05-.91-.06-1.76-.3-2.57-.21-.68-.51-1.29-.89-1.81-.39-.52-.84-.94-1.38-1.25-.53-.31-1.13-.49-1.78-.55-.66-.06-1.36.03-2.12.27-.94.29-1.73.76-2.36,1.41-.63.65-1.11,1.39-1.45,2.23-.33.84-.53,1.71-.57,2.62-.05.91.06,1.77.3,2.57.21.68.51,1.29.89,1.81.39.52.84.94,1.38,1.25.53.31,1.13.49,1.78.55.66.06,1.36-.03,2.12-.27" class="cls-16"/><polygon points="941.04 1071.07 947.09 1069.2 952.53 1076.71 957.3 1066.03 964.03 1063.95 964.89 1087.44 958.87 1089.3 958.35 1075.82 953.21 1086.71 953.09 1086.75 947.32 1079.31 947.82 1092.72 941.9 1094.56 941.04 1071.07" class="cls-16"/><polygon points="967.05 1080.15 973.16 1078.26 973.38 1084.81 967.3 1086.69 967.05 1080.15" class="cls-16"/><path d="m982.19,1058.15l5.86-1.82,10.07,20.81-6.3,1.95-1.71-3.71-8.33,2.58-1.4,4.68-6.51,2.02,8.32-26.5Zm6,12.7l-2.68-5.99-2.13,7.48,4.81-1.49Z" class="cls-16"/><path d="m997.74,1053.5l8.15-2.52c1.81-.56,3.38-.83,4.72-.82,1.33.02,2.47.28,3.41.78.75.4,1.38.94,1.87,1.61.5.67.88,1.44,1.15,2.31.56,1.82.52,3.57-.1,5.24-.63,1.68-1.96,3.16-4,4.45l5.58,6.28-6.6,2.05-4.89-5.68-2.65.82.26,7.11-6.02,1.86-.86-23.49Zm9.85,8.35c1.36-.42,2.35-1.02,2.99-1.81.64-.79.81-1.65.52-2.59-.17-.56-.51-.99-1.01-1.29-.65-.35-1.61-.32-2.88.07l-3.24,1,.19,5.68,3.43-1.06Z" class="cls-16"/><polygon points="831.19 1059.31 840.63 1056.39 849.12 1068.1 856.56 1051.45 867.06 1048.21 868.39 1084.85 859 1087.76 858.19 1066.73 850.17 1083.71 849.98 1083.77 840.98 1072.16 841.77 1093.09 832.52 1095.95 831.19 1059.31" class="cls-16"/><path d="m893.58,1077.74c-2.41.74-4.72,1.04-6.93.87-2.21-.16-4.23-.7-6.06-1.62-1.83-.92-3.41-2.18-4.75-3.8-1.34-1.61-2.34-3.5-3-5.66-.79-2.58-1.06-5.22-.8-7.93.26-2.71,1-5.26,2.21-7.65,1.22-2.39,2.88-4.52,5-6.39,2.11-1.87,4.63-3.26,7.55-4.16,2.41-.74,4.72-1.04,6.93-.87,2.21.16,4.23.7,6.06,1.62,1.83.92,3.41,2.18,4.75,3.8,1.34,1.62,2.34,3.5,3,5.66.79,2.58,1.06,5.22.8,7.93-.26,2.71-1,5.26-2.21,7.65-1.22,2.39-2.88,4.52-5,6.39-2.11,1.87-4.63,3.26-7.55,4.16m-1.76-8.67c1.47-.45,2.7-1.19,3.7-2.2,1-1.01,1.75-2.17,2.26-3.48.51-1.3.8-2.66.87-4.08.07-1.42-.09-2.75-.47-4.01-.33-1.06-.79-2-1.39-2.82-.6-.82-1.32-1.47-2.15-1.96-.83-.48-1.76-.77-2.78-.86-1.02-.09-2.13.05-3.31.41-1.47.46-2.69,1.19-3.68,2.2-.98,1.01-1.74,2.17-2.26,3.48-.52,1.31-.82,2.67-.89,4.09-.07,1.42.08,2.75.47,4.01.33,1.06.79,2,1.39,2.82.6.82,1.32,1.47,2.15,1.96.83.48,1.76.77,2.78.86,1.02.09,2.13-.05,3.31-.41" class="cls-16"/><polygon points="912.03 1034.29 920.74 1031.59 935.23 1047.7 934.51 1027.33 943.8 1024.46 945.14 1061.1 936.95 1063.63 921.88 1046.97 922.65 1068.06 913.36 1070.93 912.03 1034.29" class="cls-16"/><path d="m949.64,1022.65l10.88-3.37c3.27-1.01,6.09-1.44,8.46-1.29,2.37.15,4.39.67,6.07,1.56,3.19,1.7,5.42,4.62,6.7,8.78.78,2.55,1.05,5.09.82,7.63-.24,2.55-.99,5.02-2.26,7.42-1.4,2.66-3.4,4.97-5.99,6.94-2.6,1.97-5.85,3.56-9.77,4.77l-13.58,4.2-1.33-36.64Zm13.47,23.78c1.96-.6,3.68-1.46,5.17-2.55,1.49-1.1,2.62-2.38,3.4-3.86.62-1.18,1-2.46,1.14-3.85.14-1.38,0-2.75-.42-4.11-.32-1.03-.74-1.88-1.26-2.55-.52-.67-1.14-1.19-1.85-1.57-.84-.45-1.85-.69-3.02-.73-1.17-.04-2.58.19-4.22.69l-2.7.83.66,18.64,3.08-.96Z" class="cls-16"/><path d="m997.62,1007.54l9.15-2.83,15.71,32.46-9.82,3.04-2.67-5.79-13,4.02-2.19,7.29-10.16,3.14,12.99-41.34Zm9.35,19.82l-4.19-9.35-3.32,11.67,7.51-2.32Z" class="cls-16"/><polygon points="1031.45 1020.05 1018.29 1001.41 1028.35 998.29 1035.56 1009.93 1041.84 994.12 1053 990.67 1040.86 1018.25 1041.34 1031.33 1031.95 1034.24 1031.45 1020.05" class="cls-16"/></g><g class="cls-65"><rect width="56.03" height="23.54" x="826.62" y="996.25" class="cls-8"/></g><g class="cls-47"><rect width="25.49" height="13.85" x="842.06" y="1015.87" class="cls-14"/></g><g class="cls-33"><rect width="18.56" height="8.65" x="855.91" y="1029.75" class="cls-4"/></g><g><path d="m879.03,1035.57c-2.35.71-4.6,1.02-6.75.92-2.16-.1-4.13-.58-5.94-1.45-1.8-.86-3.38-2.08-4.71-3.67-1.34-1.58-2.35-3.51-3.03-5.77-.76-2.52-1.02-5.14-.77-7.88.24-2.74.99-5.34,2.22-7.81,1.24-2.47,2.98-4.7,5.22-6.69,2.24-1.98,4.99-3.47,8.23-4.46,3.47-1.06,6.6-1.16,9.38-.32,2.78.85,5.08,2.42,6.9,4.72l-6.78,6.82c-1.09-1.18-2.3-1.99-3.62-2.41-1.32-.43-2.82-.39-4.49.12-1.42.43-2.64,1.14-3.68,2.12-1.04.98-1.85,2.13-2.44,3.44-.59,1.31-.95,2.71-1.07,4.21-.13,1.5.03,2.99.48,4.48.65,2.16,1.8,3.67,3.45,4.53,1.64.86,3.45.99,5.41.39,1.48-.45,2.69-1.14,3.63-2.08.95-.94,1.8-2.12,2.56-3.55l8.01,3.7c-1.08,2.37-2.58,4.49-4.5,6.36-1.93,1.87-4.5,3.3-7.71,4.27" class="cls-16"/><polygon points="902.69 1013.31 889.63 994.61 899.7 991.55 906.85 1003.22 913.2 987.44 924.39 984.04 912.11 1011.56 912.52 1024.65 903.12 1027.5 902.69 1013.31" class="cls-16"/><path d="m926.37,983.44l14.03-4.27c2.31-.7,4.32-1.07,6.01-1.11,1.69-.04,3.12.18,4.3.65,1.18.47,2.11,1.14,2.81,2,.7.86,1.21,1.83,1.53,2.89.65,2.16.54,4.21-.34,6.13-.88,1.92-2.42,3.54-4.62,4.84,1.68.09,3.16.55,4.44,1.37,1.28.83,2.19,2.11,2.71,3.85.44,1.45.54,2.9.31,4.35-.23,1.45-.84,2.82-1.84,4.13-.99,1.31-2.37,2.52-4.14,3.64-1.77,1.12-3.95,2.07-6.56,2.87l-17.5,5.32-1.15-36.65Zm15.93,9.9c1.67-.51,2.85-1.2,3.53-2.07.68-.87.87-1.84.55-2.89-.23-.77-.73-1.28-1.49-1.54-.76-.26-1.87-.17-3.31.27l-5.84,1.77.24,6.38,6.32-1.92Zm1.15,13.6c1.64-.5,2.82-1.22,3.54-2.15.72-.93.92-1.93.6-2.99-.53-1.76-2.18-2.22-4.94-1.38l-6.46,1.97.18,6.71,7.09-2.16Z" class="cls-16"/><polygon points="960.79 972.97 987.84 964.74 988.08 973.39 970.34 978.79 970.49 984.35 986.59 979.45 986.85 987.46 970.75 992.35 970.92 998.17 988.95 992.69 989.24 1001.32 961.95 1009.62 960.79 972.97" class="cls-16"/><path d="m993.03,963.17l12.73-3.87c2.83-.86,5.28-1.27,7.36-1.24,2.08.04,3.85.45,5.31,1.24,1.17.63,2.14,1.47,2.91,2.53.77,1.05,1.36,2.25,1.77,3.61.86,2.84.79,5.57-.21,8.18-.99,2.61-3.08,4.91-6.27,6.9l8.65,9.84-10.32,3.14-7.58-8.9-4.15,1.26.35,11.1-9.4,2.86-1.16-36.65Zm15.3,13.11c2.12-.65,3.68-1.58,4.68-2.81,1-1.23,1.28-2.57.84-4.03-.26-.88-.78-1.55-1.56-2.03-1.01-.55-2.51-.51-4.5.09l-5.06,1.54.25,8.86,5.35-1.63Z" class="cls-16"/><g class="cls-27"><g class="cls-78"><path d="m937.44,966.65l-54.99,18.85-55.01,18.82s-.04.01-.06.02l-.11.03c-1.02.27-1.88.77-2.32,1.28-.22.26-.34.5-.38.71-.05.21-.04.4.02.65.06.24.2.54.43.85.23.31.55.64.94.94l3.28,2.49,13.37,10.1c2.23,1.68,4.45,3.38,6.67,5.08l6.66,5.09c2.22,1.69,4.43,3.41,6.64,5.11,2.21,1.71,4.42,3.41,6.62,5.14.31.24.36.69.12,1-.23.29-.64.36-.94.16-2.36-1.5-4.71-3.01-7.05-4.52-2.35-1.51-4.7-3.02-7.04-4.55l-7.02-4.57c-2.34-1.53-4.68-3.04-7.01-4.58l-13.99-9.22-1.75-1.15-.87-.58-.44-.29-.22-.14-.27-.19c-.73-.53-1.44-1.16-2.06-1.97-.61-.8-1.14-1.76-1.41-2.89-.28-1.11-.25-2.37.09-3.5.35-1.14.99-2.12,1.73-2.87.74-.77,1.58-1.31,2.42-1.73.84-.42,1.7-.7,2.54-.89l-.17.05,55.65-16.79,55.67-16.75c.22-.07.46.06.53.29.07.22-.06.45-.27.52" class="cls-16"/></g></g><g class="cls-27"><g class="cls-69"><path d="m947.99,1099c1.12.66,2.23,1.32,3.33,2,1.1.67,2.2,1.36,3.3,2.05,1.1.69,2.19,1.38,3.28,2.08l3.26,2.1,3.24,2.13c1.08.72,2.16,1.41,3.23,2.14l3.21,2.17c1.07.73,2.15,1.44,3.21,2.18l-.08-.05c.06.03.12.06.19.1l.19.08.2.06.2.03.21.02h.21s.21-.03.21-.03l.2-.05.2-.07.19-.09.18-.1.17-.12.15-.14.14-.15.12-.17c.03-.06.07-.12.11-.18l-.05.11,1.16-2.79c.4-.93.78-1.86,1.19-2.78.4-.92.81-1.84,1.23-2.76.41-.92.84-1.83,1.27-2.75.43-.91.87-1.82,1.31-2.73.44-.91.91-1.8,1.37-2.71.46-.9.94-1.79,1.42-2.68.49-.89.98-1.77,1.51-2.64.01-.02.04-.03.06-.01.02.01.02.03.02.05-.25.99-.53,1.96-.82,2.94-.3.97-.59,1.94-.91,2.9-.32.96-.63,1.92-.96,2.88-.33.96-.67,1.9-1.01,2.85-.35.94-.7,1.89-1.06,2.83-.36.94-.73,1.88-1.1,2.82-.37.94-.76,1.87-1.13,2.8l-1.17,2.79-.02.04s-.02.05-.03.07l-.24.4c-.09.13-.18.25-.28.37-.1.12-.21.23-.32.34-.11.11-.23.21-.35.31-.12.1-.25.18-.38.27-.13.08-.27.16-.4.23-.14.07-.28.13-.42.19-.14.05-.29.1-.44.15-.15.03-.3.07-.45.1-.15.02-.31.04-.46.06-.15,0-.31.01-.46,0-.15-.01-.31-.02-.46-.04-.15-.03-.31-.05-.46-.08-.15-.04-.3-.08-.45-.13-.14-.06-.29-.11-.43-.17l-.41-.22s-.03-.02-.04-.03l-.03-.02c-1.06-.74-2.1-1.5-3.15-2.25l-3.15-2.26c-1.05-.75-2.09-1.53-3.13-2.29l-3.12-2.3-3.1-2.33c-1.04-.77-2.06-1.56-3.09-2.36-1.03-.79-2.05-1.58-3.06-2.38-1.02-.8-2.03-1.61-3.03-2.43-.09-.07-.1-.2-.03-.3.07-.08.18-.1.27-.05" class="cls-16"/></g></g></g></g><path d="m790.01,1043.77c-44.42,44.1-44.82,44.1-89.24,0,43.92,44.6,43.92,45.01,0,89.61,44.42-44.1,44.82-44.1,89.24,0-43.92-44.6-43.92-45.01,0-89.61" class="cls-37"/><path d="m1056.18,847.59c-25.22,25.04-25.45,25.04-50.67,0,24.94,25.33,24.94,25.56,0,50.88,25.22-25.04,25.45-25.04,50.67,0-24.94-25.33-24.94-25.56,0-50.88" class="cls-37"/><path d="m871.51,911.66c-17.43,17.23-17.59,17.23-35.01,0,17.23,17.43,17.23,17.59,0,35.01,17.43-17.23,17.59-17.23,35.01,0-17.23-17.43-17.23-17.59,0-35.01" class="cls-37"/></g></g></svg>