<svg xmlns="http://www.w3.org/2000/svg" id="Capa_1" data-name="Capa 1" viewBox="0 0 1080 1080"><defs><style>.cls-1{fill:none}.cls-1,.cls-2,.cls-3,.cls-4,.cls-5{stroke-width:0}.cls-2{fill:#fff}.cls-3{fill:#00ce00}.cls-4{fill:#2858d6}.cls-5{fill:#00d700}</style></defs><path d="m0,0v1080h1080V0H0Zm1023.5,1023.5H56.5V56.5h967v967Z" class="cls-5"/><g><rect width="173.5" height="408.5" x=".5" y="358" class="cls-4"/><g><g><path d="m47.21,688.04c5.19,0,9.78.96,13.78,2.89,4,1.92,7.07,4.66,9.23,8.21,2.16,3.54,3.24,7.58,3.24,12.12s-1.04,8.55-3.13,12.06c-2.08,3.51-5.06,6.25-8.94,8.21-3.88,1.96-8.32,2.99-13.34,3.09h-3c-5.21,0-9.81-.96-13.8-2.87s-7.06-4.65-9.23-8.22c-2.17-3.57-3.25-7.63-3.25-12.19s1.07-8.53,3.22-12.06c2.14-3.53,5.2-6.28,9.16-8.24,3.96-1.96,8.5-2.95,13.62-2.98h2.45Zm-2.23,13.05c-5.29,0-9.3.88-12.04,2.65-2.74,1.77-4.11,4.29-4.11,7.58,0,6.43,4.82,9.83,14.47,10.2l3.91.04c5.21,0,9.22-.87,12.03-2.6,2.8-1.73,4.2-4.3,4.2-7.71s-1.38-5.74-4.13-7.49c-2.75-1.75-6.71-2.64-11.88-2.67h-2.45Z" class="cls-2"/><path d="m51.52,647.9v20.69h21.2v12.83H19.5v-35.6h9.91v22.77h12.25v-20.69h9.87Z" class="cls-2"/><path d="m50.13,607.47v20.18h12.72v-23.83h9.87v36.66H19.5v-36.74h9.91v23.91h11.22v-20.18h9.5Z" class="cls-2"/><path d="m53.9,578.82v6.95h18.82v12.83H19.5v-20.95c0-6.31,1.4-11.25,4.2-14.8,2.8-3.56,6.75-5.34,11.87-5.34,3.7,0,6.77.75,9.2,2.25,2.43,1.5,4.41,3.84,5.92,7.04l21.49-11.11h.55v13.74l-18.82,9.39Zm-9.87,6.95v-8.12c0-2.44-.64-4.27-1.92-5.5-1.28-1.23-3.07-1.85-5.37-1.85s-4.1.62-5.4,1.86c-1.31,1.24-1.96,3.07-1.96,5.48v8.12h14.66Z" class="cls-2"/><path d="m29.41,509.8v15.97h43.31v12.83H29.41v15.68h-9.91v-44.49h9.91Z" class="cls-2"/><path d="m62.78,478.55v17.58l9.94,3.07v13.71l-53.22-19.52v-12.06l53.22-19.67v13.78l-9.94,3.11Zm-9.91,14.51v-11.44l-18.46,5.74,18.46,5.7Z" class="cls-2"/><path d="m58.58,430.34c-1.88,0-3.34.66-4.39,1.99s-2.13,3.66-3.25,7c-1.12,3.34-2.21,6.07-3.25,8.19-3.39,6.9-8.04,10.34-13.96,10.34-2.95,0-5.55-.86-7.8-2.58-2.25-1.72-4.01-4.15-5.26-7.29-1.25-3.14-1.88-6.68-1.88-10.6s.68-7.26,2.05-10.29c1.37-3.03,3.31-5.39,5.83-7.07,2.52-1.68,5.4-2.52,8.64-2.52v12.79c-2.17,0-3.85.66-5.04,1.99-1.19,1.33-1.79,3.12-1.79,5.39s.51,4.1,1.52,5.43c1.01,1.33,2.3,1.99,3.86,1.99,1.36,0,2.6-.73,3.71-2.19,1.11-1.46,2.25-4.03,3.44-7.71,1.18-3.68,2.46-6.7,3.82-9.06,3.31-5.75,7.88-8.63,13.71-8.63,4.65,0,8.31,1.75,10.97,5.26,2.66,3.51,3.98,8.32,3.98,14.44,0,4.31-.77,8.22-2.32,11.72-1.55,3.5-3.67,6.13-6.36,7.9-2.69,1.77-5.79,2.65-9.3,2.65v-12.87c2.85,0,4.95-.74,6.31-2.21,1.35-1.47,2.03-3.87,2.03-7.18,0-2.12-.46-3.79-1.37-5.03-.91-1.23-2.2-1.85-3.86-1.85Z" class="cls-2"/></g><g><path d="m134.66,640.72h-53.22v-19.12c0-6.85,1.26-12.06,3.76-15.63,2.51-3.57,6.15-5.36,10.93-5.36,2.75,0,5.11.63,7.05,1.9,1.95,1.27,3.39,3.13,4.31,5.59.73-2.78,2.1-4.91,4.09-6.4s4.44-2.23,7.31-2.23c5.21,0,9.13,1.65,11.75,4.95,2.62,3.3,3.95,8.19,4,14.68v21.6Zm-31.03-12.83v-6.69c-.02-2.8-.54-4.8-1.54-5.99-1-1.19-2.48-1.79-4.44-1.79-2.25,0-3.87.65-4.86,1.94-.99,1.29-1.49,3.38-1.49,6.25v6.29h12.32Zm8.41,0h12.76v-8.41c0-2.31-.53-4.09-1.59-5.34-1.06-1.24-2.55-1.86-4.48-1.86-4.44,0-6.67,2.21-6.69,6.62v8.99Z" class="cls-2"/><path d="m109.15,547.36c5.19,0,9.78.96,13.78,2.89,4,1.92,7.07,4.66,9.23,8.21,2.16,3.54,3.24,7.58,3.24,12.12s-1.04,8.55-3.13,12.06c-2.08,3.51-5.06,6.25-8.94,8.21-3.88,1.96-8.32,2.99-13.34,3.09h-3c-5.21,0-9.81-.96-13.8-2.87s-7.06-4.65-9.23-8.22c-2.17-3.57-3.25-7.63-3.25-12.19s1.07-8.53,3.22-12.06c2.14-3.53,5.2-6.28,9.16-8.24,3.96-1.96,8.5-2.95,13.62-2.98h2.45Zm-2.23,13.05c-5.29,0-9.3.88-12.04,2.65-2.74,1.77-4.11,4.29-4.11,7.58,0,6.43,4.82,9.83,14.47,10.2l3.91.04c5.21,0,9.22-.87,12.03-2.6,2.8-1.73,4.2-4.3,4.2-7.71s-1.38-5.74-4.13-7.49c-2.75-1.75-6.71-2.64-11.88-2.67h-2.45Z" class="cls-2"/><path d="m81.44,523.89l37.03-11.88-37.03-11.84v-16.89h53.22v12.87h-12.43l-25.44-1.24,37.87,12.87v8.48l-37.91,12.9,25.48-1.24h12.43v12.83h-53.22v-16.85Z" class="cls-2"/><path d="m134.66,475.13h-53.22v-19.12c0-6.85,1.26-12.06,3.76-15.63,2.51-3.57,6.15-5.35,10.93-5.35,2.75,0,5.11.63,7.05,1.9s3.39,3.13,4.31,5.59c.73-2.78,2.1-4.91,4.09-6.4,2-1.49,4.44-2.23,7.31-2.23,5.21,0,9.13,1.65,11.75,4.95,2.62,3.3,3.95,8.19,4,14.68v21.6Zm-31.03-12.83v-6.69c-.02-2.8-.54-4.8-1.54-5.99-1-1.19-2.48-1.79-4.44-1.79-2.25,0-3.87.65-4.86,1.94-.99,1.29-1.49,3.38-1.49,6.25v6.29h12.32Zm8.41,0h12.76v-8.41c0-2.31-.53-4.09-1.59-5.34-1.06-1.24-2.55-1.86-4.48-1.86-4.44,0-6.67,2.21-6.69,6.62v8.99Z" class="cls-2"/><path d="m124.72,396.62v17.58l9.94,3.07v13.71l-53.22-19.52v-12.06l53.22-19.67v13.78l-9.94,3.11Zm-9.91,14.51v-11.44l-18.46,5.74,18.46,5.7Z" class="cls-2"/></g><g><path d="m76.46,712.63c-3.8.37-7.03,1.45-7.89.09-.78-1.25.91-3.81,2.25-5.16,1.42-1.42,3.08-2.14,4.88-2.63,5.57-1.5,11.21-.4,14.19.39.21-.03,3.55-.46,5.39,1.77,1.81,2.19,1.48,6.11-1.36,8.64-.89-.33-1.78-.66-2.68-.99-6.4-2.33-11.39-2.45-14.79-2.12Z" class="cls-1"/><path d="m154.94,688.74c-.86-2.68-2.26-7.03-6.62-10.56-1.08-.87-5.01-3.87-10.7-4.23-.83-.05-1.79-.03-2.89.12-.15.02-.3.04-.45.07-1.26.23-2.19.75-2.73,1.12-4.7,10.74-15.4,30.37-36.81,40.24-2.94,1.36-5.86,2.42-8.7,3.25-2.7,1.3-4.55,2.87-5.75,3.97-1.75,1.6-4.52,4.17-4.2,7.31.05.51.22,2.14,1.37,2.83,1.15.69,2.65.07,5.02-1,4.57-2.08,5.57-2.73,7.67-3.65,3.56-1.56,6.16-2.66,9.03-1.85,1.4.39,2.44,1.12,3.1,1.69-1.66,1.99-9.49,11.62-7.01,18.12.3.78,1.19,3.11,2.92,3.43.5.09,1.46-.1,4.37-2.54,2.32-1.95,3.13-3.88,4.51-5.92,1.83-2.7,3.69-4.16,7.18-6.9,2.32-1.82,3.42-2.3,13.24-7.46,8.57-4.51,9.15-4.89,10.14-5.77,2.67-2.39,4.41-5.02,7.89-10.28,1.9-2.87,3.36-5.32,4.37-7.04,1.39-.05,3.45-.37,4.93-1.83,3.31-3.27,1.21-9.77.14-13.1Z" class="cls-1"/><path d="m137.52,673.17c-1.45,0-2.67.24-3.57.49-.89.27-1.88.64-2.93,1.15-1.76.85-3.15,1.84-4.19,2.7,1.7-.09,3.76-.37,6-1.08.81-.26,1.57-.55,2.25-.85h0c.58-.19,1.37-.39,2.31-.43.12,0,.24,0,.36,0,1.07,0,1.91.22,2.85.48,1.94.53,3.36,1.3,4.84,2.11.81.44,1.62.93,2.08,1.23,2.5,1.66,5.12,4.95,6.53,8.94,0,0,1.97,5.57.47,11.07-.37,1.36-1.12,2.36-1.33,2.62-.55.71-1,.99-1.38,1.16-.51.23-.99.27-1.29.27h0c.08-.43.14-.84.2-1.24-.03.25-.07.5-.12.76-.15.77-.32,1.29-.44,1.63-.23.65-.46,1.17-.63,1.52.02,0,.03,0,.05,0,.56,0,1.37-.07,2.29-.38.84-.29,1.48-.68,1.91-.99.85-.64,1.36-1.32,1.57-1.6.47-.64.72-1.2.86-1.53.15-.34.53-1.26.76-3.11.19-1.53.15-2.7.12-3.69-.07-1.92-.32-3.37-.45-4.02-.14-.72-.28-1.42-.58-2.33-.29-.85-.61-1.55-1.1-2.47-.8-1.52-1.42-2.72-2.44-4.09-.79-1.05-2.32-3.07-5-4.9-.45-.31-2.35-1.58-5.13-2.51-1.25-.42-2.56-.84-4.35-.91-.18,0-.36-.01-.53-.01h0Z" class="cls-3"/><path d="m83.18,704.13c-.61,0-1.41,0-2.49.02-.66,0-1.24.02-2.01.09-.9.09-1.56.22-2.24.35-.37.07-2.08.41-3.19.85-.14.05-.54.22-1.01.43-.21.09-.34.16-.53.25-.19.1-.48.24-.83.47-.34.22-.6.41-.79.57-.09.08-.18.14-.27.22-.56.5-1.1,1.03-1.49,1.68-.29.48-.57.97-.81,1.48-.29.62-.37,1.26-.28,1.93.02.15.07.29.16.4.19.26.39.52.58.78.04.05.09.12.16.12,0,0,.01,0,.02,0,.02,0,.04,0,.05,0,.12,0,.22.08.32.13.49.22.98.41,1.53.42.08,0,.15,0,.23,0,.36,0,.73,0,1.09-.05.27-.03.54-.07.81-.1.3-.04.6-.07.9-.1.47-.05.93-.13,1.4-.15.25-.01.5-.05.75-.08.17-.02.6-.06,1.25-.1.72-.05,1.08-.08,1.6-.09.3,0,.56-.01.81-.01.34,0,.64,0,.92.01.17,0,.64.01,1.33.05,1.09.06,1.98.13,2.34.17,1.66.16,3.27.5,4.25.71,2.4.52,4.65,1.02,6.79,1.52.06-.03.13-.06.22-.09.07-.02.14-.03.2-.04.08-.06.18-.12.31-.17.06-.03.13-.05.18-.07-1.06-.39-2.14-.78-3.24-1.16-1-.35-1.99-.68-2.96-.99,0,0-4.35-1.28-10.02-1.73-.77-.06-1.42-.07-1.42-.07-.08,0-.15,0-.22,0-.41,0-.8.01-1.4.04-.35.01-.7.02-1.17.05-.49.03-1.04.06-1.74.14-.76.08-1.47.2-1.9.24-.22.02-.44.04-.66.06-.04,0-.09,0-.13,0-.03,0-.06,0-.09-.01-.37-.13-.7-.33-.89-.7-.1-.2-.11-.42-.04-.64.13-.41.32-.79.61-1.12.06-.06.11-.13.16-.19.18-.24.29-.36.32-.39.12-.15.37-.35.86-.76.42-.34.63-.51.82-.65.21-.15.38-.25.43-.28.14-.08.39-.23.85-.44,0,0,.53-.24,1.01-.42,2.06-.74,5.12-1.16,5.12-1.16,2.61-.36,4-.55,5.78-.55.13,0,.26,0,.4,0,1.63.02,2.99.18,3.95.33-2.31-.84-4.16-1.09-5.38-1.16-.32-.02-.74-.03-1.33-.03h0Z" class="cls-3"/><path d="m97.86,714.95c-1.46,0-2.66.16-3.55.33-2.31.44-4.24,1.26-8.09,2.9-.62.27-1.23.55-1.23.55-.28.13-.74.34-1.15.56-.33.18-.99.54-1.91,1.19-2.37,1.67-3.92,3.44-4.32,3.89-1.3,1.48-1.78,2.39-1.94,2.71-.44.87-.94,1.87-.91,3.22.01.61.03,1.61.68,2.47.99,1.31,2.77,1.41,3.5,1.41.09,0,.16,0,.22,0,1.27-.03,2.25-.51,4.15-1.48,1.17-.6,1.81-1.02,2.62-1.51,1.34-.8,3.36-2.02,5.81-2.86.39-.13,2.76-.91,5.94-.91.37,0,.75.01,1.14.03,1.88.11,2.05.51,2.08.53.18-.23,1.36-1.68,3.21-3.08.26-.18.52-.36.78-.55-.7.49-1.41.99-2.11,1.48-.03.03-.06.05-.1.07-.11.08-.2.11-.31.11-.05,0-.11,0-.17-.02-.04,0-.08-.02-.12-.03,0,0-.01,0-.02,0-.05-.01-.11-.02-.16-.04-.82-.18-1.81-.35-2.94-.43-.43-.03-.86-.04-1.29-.04-.32,0-.65,0-.97.03-.09,0-.19,0-.28,0-.06,0-.13,0-.19,0-.17.01-.36.03-.57.05-.03,0-.05,0-.08.01-.22.05-.44.06-.66.07-1.09.15-2.52.44-4.11,1.02-.53.21-1.06.42-1.58.67-.07.03-.14.07-.21.1-.09.04-.17.09-.26.13-.08.04-.16.08-.23.12-.45.24-.95.51-1.56.85-2.62,1.44-4.21,2.62-6.59,3.35-.27.08-.88.26-1.54.26-.45,0-.92-.08-1.33-.34,0,0,0,0,0,0,0,0,0,0-.01,0,0,0,0,0,0,0-.08-.05-.14-.1-.21-.15-.19-.16-.28-.31-.31-.35-.36-.57-.23-1.22-.1-1.83.15-.69.4-1.18.65-1.66.24-.45.53-.93,1.05-1.62.8-1.06,1.47-1.79,1.72-2.05.39-.4.73-.7.93-.88.24-.21.83-.72,1.88-1.43.29-.2,1.17-.79,2.57-1.56.41-.22,1.26-.69,2.74-1.38,1.65-.77,1.64-.69,5.31-2.24,1.68-.71,2.51-1.08,3.87-1.36.72-.15,1.32-.23,1.74-.27-.52-.04-1.01-.05-1.47-.05h0Z" class="cls-3"/><g><g><path d="m132.42,646.07c.29-.26.64-.54,1.05-.81.34-.23.66-.41.96-.57.33.33.72.77,1.08,1.33.37.55.62,1.07.8,1.51-.56.29-1.14.64-1.74,1.05-.15-.33-.37-.73-.68-1.14,0,0,0,0,0,0-.51-.67-1.08-1.11-1.48-1.37Z" class="cls-1"/><path d="m130.04,653.42c-.18.28-.37.59-.55.95-.16.32-.3.63-.42.91-.72-.43-1.5-.86-2.34-1.27-.46-.23-.91-.43-1.35-.63.36-.54.72-1.08,1.08-1.63.01-.02.04-.06.09-.09.1-.06.21,0,.22,0,.48.15,1.05.36,1.65.68.67.35,1.21.74,1.62,1.08Z" class="cls-1"/><path d="m130.48,652.6c-.05-.04-.11-.09-.16-.13-.03-.01-.05-.03-.08-.05-.02-.02-.04-.04-.05-.06-.31-.24-.67-.49-1.08-.72-.71-.41-1.37-.68-1.92-.86.25-.34.54-.7.87-1.07.39-.43.78-.8,1.15-1.12.13.07.31.18.52.31.07.05.14.1.21.15,0,0,0,0,0,0,.62.44,1.72,1.24,1.6,2.03-.02.14-.11.29-.29.58,0,.02-.02.03-.03.05-.16.2-.31.4-.46.6-.1.11-.19.21-.28.28Z" class="cls-1"/><path d="m135.02,644.4c.16-.1.35-.21.56-.3.34-.16.66-.27.94-.34-.14.52-.28,1.04-.42,1.56,1.38.47,2.36.8,2.66.88.06.02.24.06.25.16,0,.03,0,.05-.03.08-.62.19-1.37.47-2.19.87-.18-.51-.46-1.13-.88-1.77-.3-.45-.6-.83-.88-1.13Z" class="cls-1"/><path d="m131.06,648.94c-.06-.05-.12-.1-.18-.15,0,0-.02-.01-.03-.02-.1-.08-.19-.16-.29-.23-.27-.2-.52-.37-.75-.5.27-.21.54-.43.82-.64.35-.27.7-.53,1.05-.78.38.26.88.68,1.36,1.31.35.46.58.9.74,1.27-.09.07-.18.14-.27.22-.41.34-.79.69-1.15,1.04-.29-.44-.71-.97-1.3-1.5Z" class="cls-1"/><path d="m85.08,687.74c.15-.15.31-.29.46-.43.19-.17.39-.33.56-.5.62-.63,1.29-1.19,1.94-1.8.41-.38.79-.79,1.21-1.14.14-.12.28-.25.44-.35.19-.11.21-.24.08-.42-.13-.19-.28-.37-.45-.53-.32-.31-.63-.62-.9-.96-.3-.37-.67-.67-1.02-.98-.38-.34-.78-.67-1.17-1.01-.39-.35-.74-.75-1.09-1.13-.13-.14-.16-.29-.11-.48.13-.52.33-1.01.58-1.49.44-.87.9-1.73,1.41-2.56.15-.24.32-.47.48-.7.19-.26.2-.36,0-.61-.33-.4-.65-.79-1.02-1.16-.21-.21-.41-.42-.62-.63-.1-.1-.2-.21-.27-.34.11.02.18.1.25.17.55.55,1.17,1.02,1.79,1.49,1.06.8,2.11,1.63,3.11,2.5.41.36.84.69,1.27,1.03.3.24.63.45.98.63.31.17.63.32.93.52.28.19.61.28.96.25.37-.03.66-.18.8-.55.03-.09.08-.17.12-.26.16-.29.23-.61.22-.94,0-.11,0-.23,0-.36.22.19.36.43.42.73.03.16.05.33.07.5,0,.07,0,.16.09.18.09.01.12-.06.17-.12.01-.02.02-.04.03-.05.18-.29.4-.54.68-.73.14-.09.24-.24.41-.26-.21.32-.38.67-.54,1.02-.19.42-.28.85-.15,1.31.04.16.11.29.24.4.35.29.73.47,1.2.47.73,0,1.41-.17,2.06-.48.12-.06.25-.12.37-.18,1.05-.57,2.16-1.02,3.24-1.54.05-.02.1-.04.14-.07,1.27-.68,2.6-1.23,3.89-1.84.3-.14.6-.3.9-.46.45-.25.92-.46,1.38-.67.69-.31,1.37-.63,2.03-.99.18-.1.36-.22.54-.32.11-.06.22-.12.34-.14-.04.1-.14.15-.22.21-.31.23-.62.46-.92.71-.09.08-.19.17-.3.24-.87.57-1.67,1.24-2.56,1.77-.34.2-.66.44-1,.66-.24.15-.48.3-.72.45-.25.16-.29.28-.16.55.18.37.23.78.32,1.18.09.42.13.85.2,1.27.04.22.08.43.13.65.07.32.09.64.11.97.04.71.16,1.42.14,2.13,0,.26.03.52.05.78.03.38.02.75-.06,1.13-.11.57-.13,1.15-.24,1.71-.18.96-.39,1.91-.8,2.8-.27.59-.53,1.19-.81,1.78-.37.78-.84,1.5-1.36,2.18-.25.33-.54.62-.87.86-.37.27-.74.55-1.14.79-.49.29-1.01.39-1.57.27-.3-.06-.6-.1-.9-.14-.22-.03-.42-.12-.6-.25-.15-.11-.31-.22-.45-.34-.07-.06-.15-.12-.2-.19-.41-.55-.8-1.1-1.09-1.73-.21-.46-.35-.94-.52-1.42-.06-.17-.04-.3.08-.43.26-.28.51-.56.77-.83.17-.17.35-.33.52-.5.44-.44.89-.86,1.35-1.27.05-.04.1-.08.14-.13.62-.64,1.31-1.21,1.91-1.87.07-.08.16-.13.26-.17.21-.09.26-.26.16-.46-.05-.08-.12-.15-.19-.21-.31-.27-.64-.51-.98-.73-.35-.23-.68-.48-1.02-.73-.44-.32-.89-.63-1.33-.95-.58-.42-1.16-.83-1.73-1.26-.33-.25-.31-.24-.22-.6.05-.22.11-.45.17-.67.02-.07.04-.14.06-.21.05-.22.02-.27-.21-.32-.27-.06-.53-.12-.79-.2-.36-.1-.6-.33-.69-.7-.02-.1-.06-.2-.08-.28-.09-.04-.14,0-.19.03-.19.11-.38.22-.57.34-.11.07-.22.11-.34.15-.18.06-.35.06-.52-.02-.11-.05-.23-.09-.35-.13-.06-.02-.13-.02-.17.03-.05.06-.03.13.02.17.12.1.12.23.13.37.03.27,0,.54.02.81.03.37.04.73.03,1.1-.02.62-.03,1.24-.13,1.85-.05.31-.07.63-.12.93-.09.52-.2,1.03-.29,1.54-.06.35-.15.69-.27,1.03-.2.56-.38,1.13-.57,1.7-.1.3-.22.59-.38.86-.19.34-.38.67-.56,1.02-.15.29-.35.55-.59.77-.44.41-.93.75-1.47,1.02-.63.32-1.3.42-2.01.29-.7-.13-1.29-.41-1.8-.89-.1-.09-.19-.2-.3-.28-.44-.32-.76-.75-1.02-1.22-.17-.31-.33-.63-.49-.95-.03-.06-.05-.14-.08-.22.16-.14.31-.28.47-.41.16-.13.31-.28.46-.43Z" class="cls-1"/><path d="m85.35,700.76c.55.24,1.11.42,1.69.58.03,0,.06.01.09.02.49.13.99.25,1.49.36,5.71,1.22,13.4.85,18.84-1.38.27-.12.54-.25.81-.36,1.08-.52,2.11-1.17,2.97-2.01-.13-.22-.25-.44-.34-.68-.18-.43-.23-.89-.28-1.35-.07-.2-.12-.39-.15-.56-.03-.28.4-.32.43-.04.31,1.35,1.1,2.56,1.98,3.62.26.3.53.61.85.85.09.07.19.14.29.21.15.11.07.37-.11.38-.11-.05-.21-.12-.32-.19-.14-.05-.29-.11-.42-.18-.32-.16-.6-.41-.86-.65-.29-.26-.53-.57-.75-.9-.04.07-.08.14-.11.21-1.83,3.6-2.73,7.54-3.79,11.41.49.09.97.2,1.46.32.3.05.59.11.89.17.25.09.89.14.68.53-.13.22-.83-.2-1.09-.19-3.52-.71-7.12-.72-10.7-.63-4.43.02-8.9.53-13.05,2.13-.18.06-.34-.16-.24-.31.22-.13.47-.22.72-.31.43-.19.87-.38,1.3-.58.42-.2.87-.34,1.32-.47-.01-.15-.01-.32-.05-.42-.16-1.09-.36-2.18-.58-3.27-.34-1.73-.88-3.42-1.36-5.12-.62-.19-1.23-.42-1.79-.75-.1-.05-.2-.11-.3-.17-.1-.05-.19-.1-.27-.15,0,0-.02-.01-.03-.02,0,0,0,0,.01,0-.13-.1-.2-.19-.15-.28.23-.34.64.13.94.18Z" class="cls-1"/><path d="m117.74,653.51c1.79.04,4.44.33,7.36,1.54,5.02,2.07,7.88,5.62,9.07,7.32-.53,1.74-1.05,3.49-1.58,5.23-1.25-1.09-2.46-2.01-3.57-2.79-1.78-1.32-3.7-2.47-5.73-3.43-.18-.09-.36-.19-.55-.28,0,0,0,0,0,0-.2-.08-.39-.15-.58-.24-.26-.12-.51-.25-.77-.37-1.3-.55-2.76-1.05-4.42-1.44-.36-.08-.72-.15-1.06-.22-1.23-.27-2.48-.49-3.75-.63,1.86-1.56,3.72-3.12,5.59-4.68Z" class="cls-1"/><path d="m113.68,671.73s-.07.05-.11.06c.03-.04.07-.05.11-.06Z" class="cls-1"/><path d="m150.64,629.26s-.06.01-.08.04c-.09.11-.19.19-.3.27-1.26.89-2.51,1.79-3.73,2.73-.96.74-1.93,1.45-2.86,2.21-.4.33-.82.65-1.23.98-.27.22-.54.43-.83.63-.17.12-.34.24-.5.38-.34.29-.7.57-1.06.84-.15.11-.29.24-.43.37-.23.2-.45.4-.68.6-.03.03-.06.07-.11.07-.02,0-.04,0-.06-.02,0-.43-.03-.87.02-1.31.06-.5.14-1,.15-1.5,0-.27.03-.54.06-.81.1-.8.21-1.6.31-2.4.05-.4.07-.79.1-1.19,0-.06,0-.13,0-.19-.02-.1-.08-.17-.18-.2-.03,0-.05-.01-.08-.01-.07,0-.13.03-.18.09-.05.06-.08.12-.12.18-.15.23-.28.47-.44.69-.61.88-1.13,1.81-1.64,2.75-.84,1.55-1.66,3.11-2.48,4.67-.03.05-.04.12-.11.14-.02,0-.04-.01-.06-.02-.24-.31-.49-.6-.7-.93-.36-.55-.86-.97-1.32-1.43-.03-.03-.07-.06-.11-.06-.01,0-.02,0-.03,0-.07.02-.08.09-.09.15-.02.26-.03.52-.04.78-.02.57,0,1.13-.04,1.7-.04.77-.05,1.55-.05,2.33,0,.71,0,1.43.01,2.14,0,.22,0,.44,0,.66,0,.15-.04.26-.15.35l.23-.16,1.3-.72c0-.45,0-.92,0-1.4,0-.61.03-1.2.06-1.77.46.64.92,1.28,1.39,1.93,0,0,.08.1.2.1.01,0,.02,0,.03,0,.1-.01.18-.08.22-.18.54-1.1,1.07-2.2,1.61-3.3.13.79.26,1.59.39,2.38,0,.01.03.1.12.13.03.01.05.02.08.02.05,0,.1-.02.15-.05,2.32-1.44,4.64-2.89,6.97-4.33-.11.3-1.57,4.33-1.68,4.76-.02.06-.05.2.02.28.04.04.1.06.16.06.03,0,.06,0,.08,0,2.28-.87,4.56-1.75,6.84-2.62-1.02,1.39-2.04,2.77-3.07,4.16-.08.07-.1.18-.07.28.03.11.13.18.25.19,1.7.42,3.4.84,5.11,1.27-1.59.64-3.18,1.28-4.77,1.92-.03.02-.14.08-.19.21-.06.18.03.33.04.35.8,1.12,1.59,2.24,2.39,3.36-2.33-.49-4.01-.84-4.32-.92-.03,0-.09-.02-.16-.02-.06,0-.12.01-.17.05-.08.06-.09.18-.09.27.37,1.1.75,2.2,1.12,3.3-.72-.56-1.45-1.17-2.2-1.83-.48-.43-.94-.85-1.37-1.27-.09-.07-.2-.11-.32-.11-.07,0-.14.01-.2.04-.22.1-.27.34-.27.36-.34.93-.68,1.85-1.02,2.78-.01-.04-.03-.08-.04-.13,0,0,0,0-.01,0-.03-.14-.08-.28-.11-.41l-1.85-5.87-2.73,1.79c.17.24.33.49.49.75,1.7,2.71,3.37,6.56,3.88,11.84,0,0,0,0,0,0,.1-.17.21-.34.31-.52.33-.57.58-1.19.89-1.77.2-.37.36-.76.5-1.16.12-.34.26-.66.42-.98.15-.3.29-.61.4-.92.1-.29.21-.57.32-.85.09-.21.2-.41.31-.65.17.14.32.25.46.38.5.47,1.01.95,1.5,1.43,1.03,1.01,2,2.09,3.04,3.1.06.06.11.12.17.19.26.3.52.6.79.9.07.08.14.15.22.22.03.02.06.03.09.03.06,0,.11-.04.12-.12.02-.11.04-.23.04-.34.03-.82.09-1.63.07-2.45-.01-.44-.01-.88-.01-1.32,0-.14,0-.27.01-.41.03-.27.03-.54.03-.82,0-.42-.02-.84-.02-1.26,0-.11-.03-.23.08-.34.13.03.26.06.39.09.4.09.79.2,1.2.27,1.18.2,2.34.48,3.5.76.8.2,1.61.37,2.41.6.11.03.22.06.33.06.01,0,.03,0,.04,0,.08,0,.12-.09.08-.16-.01-.02-.03-.03-.04-.05-.31-.4-.62-.79-.93-1.19-.7-.88-1.41-1.74-2.14-2.6-.35-.42-.64-.88-1.01-1.28-.26-.29-.5-.6-.71-.92-.21-.33-.44-.64-.7-.93-.05-.06-.13-.11-.11-.24.33-.1.63-.29.96-.43.69-.28,1.37-.57,2.08-.8.46-.15.92-.29,1.37-.45,1.58-.54,3.18-.98,4.78-1.47.15-.05.3-.1.44-.16.08-.03.18-.08.2-.16,0,0,.02-.07-.02-.15-.2-.41-1.28-.51-1.28-.51-1.46-.7-2.96-1.29-4.49-1.82-.83-.29-1.68-.51-2.53-.77-.14-.04-.28-.06-.38-.17.02-.05.03-.08.04-.1.61-.88,1.22-1.76,1.83-2.64.96-1.39,1.99-2.73,2.9-4.15.31-.48.65-.95,1.03-1.39.07-.08.13-.16.17-.26.02-.06.03-.12-.03-.18-.02,0-.03,0-.05,0-.04,0-.08.01-.13.03-.19.06-.38.13-.56.2-.73.29-1.45.6-2.18.89-.94.37-1.88.71-2.81,1.1-1.35.57-2.7,1.16-4.05,1.73-.72.31-1.44.62-2.13,1.01-.06.03-.11.08-.19.08-.02,0-.04,0-.06,0,.03-.1.06-.2.1-.29.27-.66.55-1.32.81-1.98.37-.92.74-1.85,1.11-2.77.45-1.14.9-2.28,1.36-3.42.09-.22.19-.45.28-.67.02-.05.01-.11-.04-.14-.02-.01-.04-.02-.06-.02h0Z" class="cls-3"/><path d="m73.67,690.85c0,1.23.07,2.45.21,3.64,1.59,13.8,12.1,25.02,25.88,28.28,2.65.63,5.42.96,8.27.96,18.98,0,34.36-14.72,34.36-32.89,0-7.95-2.94-15.23-7.85-20.92-.03-.05-.07-.1-.1-.15,0-.05,0-.1.02-.15.07-.35.13-.7.21-1.05.18-.73.38-1.46.55-2.2.26-1.15.51-2.31.76-3.47.06-.3.13-.6.11-.9,0-.11-.01-.21-.11-.28-.12-.08-.17-.21-.23-.33-.08-.17-.17-.34-.29-.49-.32-.42-.63-.84-.95-1.25-.23-.29-.48-.55-.75-.8-.33-.31-.66-.61-.99-.93-.39-.38-.81-.73-1.25-1.06-.26-.19-.52-.38-.78-.58-.15-.11-.16-.14-.1-.32.09-.27.19-.53.31-.79.32-.81.94-2.07,2.09-3.29.98-1.04,1.98-1.68,2.7-2.07l2.73-1.79c.06-.08.85-1.05,1.22-1.62.06-.09.16-.24.12-.43-.04-.19-.19-.3-.27-.35-.79-.25-1.57-.51-2.36-.76.06-.36.15-.78.29-1.22.14-.47.31-.88.48-1.23-.67.16-1.38.36-2.13.61-.99.33-1.89.68-2.69,1.05l-1.3.72-.23.16s-.03.03-.05.04c-.2.13-.4.28-.59.42-.86.61-1.62,1.33-2.45,1.97-.53.41-.96.93-1.45,1.4-.38.36-.72.76-1.03,1.18-.68.91-1.33,1.83-1.9,2.81,0,.02-.03.03-.05.04-.08.02-.14-.02-.21-.05-1.26-.56-2.61-.77-3.97-.92-.61-.07-1.23-.1-1.85-.16-.31-.03-.63-.02-.94-.01-.28,0-.53.09-.69.36-.07.12-.17.24-.3.32-.62.4-1.18.87-1.78,1.29-.7.49-1.37.99-2,1.57-.38.35-.81.67-1.2,1.02-.6.54-1.21,1.06-1.81,1.6-.09.08-.18.13-.29.14-.08,0-.16,0-.24,0-.18-.02-.35-.04-.53-.04-1.28-.04-2.56.02-3.83.1-.01,0-.02,0-.03,0-.81.09-1.62.22-2.43.36-.4.07-.8.16-1.21.22-.87.13-1.73.31-2.57.61-.7.25-1.4.5-2.09.77-.29.1-.58.21-.87.32-.19.06-.37.12-.56.18-.24.08-.47.18-.68.32,0,0-.02.01-.02.02-1.88.8-3.66,1.77-5.34,2.86-.34.19-.66.41-.96.65-8.5,5.99-14.02,15.63-14.02,26.51Zm54.76-38.51c.67.35,1.21.74,1.62,1.08-.18.28-.37.59-.55.95-.16.32-.3.63-.42.91-.72-.43-1.5-.86-2.34-1.27-.46-.23-.91-.43-1.35-.63.36-.54.72-1.08,1.08-1.63.01-.02.04-.06.09-.09.1-.06.21,0,.22,0,.48.15,1.05.36,1.65.68Zm8.36-5.04c-.18-.51-.46-1.13-.88-1.77-.3-.45-.6-.83-.88-1.13.16-.1.35-.21.56-.3.34-.16.66-.27.94-.34-.14.52-.28,1.04-.42,1.56,1.38.47,2.36.8,2.66.88.06.02.24.06.25.16,0,.03,0,.05-.03.08-.62.19-1.37.47-2.19.87Zm-2.88.14c-.51-.67-1.08-1.11-1.48-1.37.29-.26.64-.54,1.05-.81.34-.23.66-.41.96-.57.33.33.72.77,1.08,1.33.37.55.62,1.07.8,1.51-.56.29-1.14.64-1.74,1.05-.15-.33-.37-.73-.68-1.14,0,0,0,0,0,0Zm-1.54,3c-.29-.44-.71-.97-1.3-1.5-.06-.05-.12-.1-.18-.15,0,0-.02-.01-.03-.02-.1-.08-.19-.16-.29-.23-.27-.2-.52-.37-.75-.5.27-.21.54-.43.82-.64.35-.27.7-.53,1.05-.78.38.26.88.68,1.36,1.31.35.46.58.9.74,1.27-.09.07-.18.14-.27.22-.41.34-.79.69-1.15,1.04Zm-1.88,2.16c-.05-.04-.11-.09-.16-.13-.03-.01-.05-.03-.08-.05-.02-.02-.04-.04-.05-.06-.31-.24-.67-.49-1.08-.72-.71-.41-1.37-.68-1.92-.86.25-.34.54-.7.87-1.07.39-.43.78-.8,1.15-1.12.13.07.31.18.52.31.07.05.14.1.21.15,0,0,0,0,0,0,.62.44,1.72,1.24,1.6,2.03-.02.14-.11.29-.29.58,0,.02-.02.03-.03.05-.16.2-.31.4-.46.6-.1.11-.19.21-.28.28Zm-14.58,6.23c-1.23-.27-2.48-.49-3.75-.63,1.86-1.56,3.72-3.12,5.59-4.68,1.79.04,4.44.33,7.36,1.54,5.02,2.07,7.88,5.62,9.07,7.32-.53,1.74-1.05,3.49-1.58,5.23-1.25-1.09-2.46-2.01-3.57-2.79-1.78-1.32-3.7-2.47-5.73-3.43-.18-.09-.36-.19-.55-.28,0,0,0,0,0,0-.2-.08-.39-.15-.58-.24-.26-.12-.51-.25-.77-.37-1.3-.55-2.76-1.05-4.42-1.44-.36-.08-.72-.15-1.06-.22Zm-2.22,12.9s-.07.05-.11.06c.03-.04.07-.05.11-.06Zm-29.27,28.85c.23-.34.64.13.94.18.55.24,1.11.42,1.69.58.03,0,.06.01.09.02.49.13.99.25,1.49.36,5.71,1.22,13.4.85,18.84-1.38.27-.12.54-.25.81-.36,1.08-.52,2.11-1.17,2.97-2.01-.13-.22-.25-.44-.34-.68-.18-.43-.23-.89-.28-1.35-.07-.2-.12-.39-.15-.56-.03-.28.4-.32.43-.04.31,1.35,1.1,2.56,1.98,3.62.26.3.53.61.85.85.09.07.19.14.29.21.15.11.07.37-.11.38-.11-.05-.21-.12-.32-.19-.14-.05-.29-.11-.42-.18-.32-.16-.6-.41-.86-.65-.29-.26-.53-.57-.75-.9-.04.07-.08.14-.11.21-1.83,3.6-2.73,7.54-3.79,11.41.49.09.97.2,1.46.32.3.05.59.11.89.17.25.09.89.14.68.53-.13.22-.83-.2-1.09-.19-3.52-.71-7.12-.72-10.7-.63-4.43.02-8.9.53-13.05,2.13-.18.06-.34-.16-.24-.31.22-.13.47-.22.72-.31.43-.19.87-.38,1.3-.58.42-.2.87-.34,1.32-.47-.01-.15-.01-.32-.05-.42-.16-1.09-.36-2.18-.58-3.27-.34-1.73-.88-3.42-1.36-5.12-.62-.19-1.23-.42-1.79-.75-.1-.05-.2-.11-.3-.17-.1-.05-.19-.1-.27-.15,0,0-.02-.01-.03-.02,0,0,0,0,.01,0-.13-.1-.2-.19-.15-.28Zm-.26-11.99c.16-.14.31-.28.47-.41.16-.13.31-.28.46-.43.15-.15.31-.29.46-.43.19-.17.39-.33.56-.5.62-.63,1.29-1.19,1.94-1.8.41-.38.79-.79,1.21-1.14.14-.12.28-.25.44-.35.19-.11.21-.24.08-.42-.13-.19-.28-.37-.45-.53-.32-.31-.63-.62-.9-.96-.3-.37-.67-.67-1.02-.98-.38-.34-.78-.67-1.17-1.01-.39-.35-.74-.75-1.09-1.13-.13-.14-.16-.29-.11-.48.13-.52.33-1.01.58-1.49.44-.87.9-1.73,1.41-2.56.15-.24.32-.47.48-.7.19-.26.2-.36,0-.61-.33-.4-.65-.79-1.02-1.16-.21-.21-.41-.42-.62-.63-.1-.1-.2-.21-.27-.34.11.02.18.1.25.17.55.55,1.17,1.02,1.79,1.49,1.06.8,2.11,1.63,3.11,2.5.41.36.84.69,1.27,1.03.3.24.63.45.98.63.31.17.63.32.93.52.28.19.61.28.96.25.37-.03.66-.18.8-.55.03-.09.08-.17.12-.26.16-.29.23-.61.22-.94,0-.11,0-.23,0-.36.22.19.36.43.42.73.03.16.05.33.07.5,0,.07,0,.16.09.18.09.01.12-.06.17-.12.01-.02.02-.04.03-.05.18-.29.4-.54.68-.73.14-.09.24-.24.41-.26-.21.32-.38.67-.54,1.02-.19.42-.28.85-.15,1.31.04.16.11.29.24.4.35.29.73.47,1.2.47.73,0,1.41-.17,2.06-.48.12-.06.25-.12.37-.18,1.05-.57,2.16-1.02,3.24-1.54.05-.02.1-.04.14-.07,1.27-.68,2.6-1.23,3.89-1.84.3-.14.6-.3.9-.46.45-.25.92-.46,1.38-.67.69-.31,1.37-.63,2.03-.99.18-.1.36-.22.54-.32.11-.06.22-.12.34-.14-.04.1-.14.15-.22.21-.31.23-.62.46-.92.71-.09.08-.19.17-.3.24-.87.57-1.67,1.24-2.56,1.77-.34.2-.66.44-1,.66-.24.15-.48.3-.72.45-.25.16-.29.28-.16.55.18.37.23.78.32,1.18.09.42.13.85.2,1.27.04.22.08.43.13.65.07.32.09.64.11.97.04.71.16,1.42.14,2.13,0,.26.03.52.05.78.03.38.02.75-.06,1.13-.11.57-.13,1.15-.24,1.71-.18.96-.39,1.91-.8,2.8-.27.59-.53,1.19-.81,1.78-.37.78-.84,1.5-1.36,2.18-.25.33-.54.62-.87.86-.37.27-.74.55-1.14.79-.49.29-1.01.39-1.57.27-.3-.06-.6-.1-.9-.14-.22-.03-.42-.12-.6-.25-.15-.11-.31-.22-.45-.34-.07-.06-.15-.12-.2-.19-.41-.55-.8-1.1-1.09-1.73-.21-.46-.35-.94-.52-1.42-.06-.17-.04-.3.08-.43.26-.28.51-.56.77-.83.17-.17.35-.33.52-.5.44-.44.89-.86,1.35-1.27.05-.04.1-.08.14-.13.62-.64,1.31-1.21,1.91-1.87.07-.08.16-.13.26-.17.21-.09.26-.26.16-.46-.05-.08-.12-.15-.19-.21-.31-.27-.64-.51-.98-.73-.35-.23-.68-.48-1.02-.73-.44-.32-.89-.63-1.33-.95-.58-.42-1.16-.83-1.73-1.26-.33-.25-.31-.24-.22-.6.05-.22.11-.45.17-.67.02-.07.04-.14.06-.21.05-.22.02-.27-.21-.32-.27-.06-.53-.12-.79-.2-.36-.1-.6-.33-.69-.7-.02-.1-.06-.2-.08-.28-.09-.04-.14,0-.19.03-.19.11-.38.22-.57.34-.11.07-.22.11-.34.15-.18.06-.35.06-.52-.02-.11-.05-.23-.09-.35-.13-.06-.02-.13-.02-.17.03-.05.06-.03.13.02.17.12.1.12.23.13.37.03.27,0,.54.02.81.03.37.04.73.03,1.1-.02.62-.03,1.24-.13,1.85-.05.31-.07.63-.12.93-.09.52-.2,1.03-.29,1.54-.06.35-.15.69-.27,1.03-.2.56-.38,1.13-.57,1.7-.1.3-.22.59-.38.86-.19.34-.38.67-.56,1.02-.15.29-.35.55-.59.77-.44.41-.93.75-1.47,1.02-.63.32-1.3.42-2.01.29-.7-.13-1.29-.41-1.8-.89-.1-.09-.19-.2-.3-.28-.44-.32-.76-.75-1.02-1.22-.17-.31-.33-.63-.49-.95-.03-.06-.05-.14-.08-.22Z" class="cls-2"/></g><path d="m97.02,708.28c1.02-.49,2.15-.76,3.52-.83.24-.01.48-.02.72,0,.26,0,.52.03.78.08.09.02.19.04.28.07-.32.16-.73.37-.95.58-.14.14-.2.27-.1.39.08.09.22.09.3.01,1.22-.99,2.78-1.33,4.33-1.34.42,0,.84.02,1.25.07.27.03.53.06.79.14-.24.86-.48,1.72-.71,2.59-.25-.04-.5-.07-.75-.09-1.04-.09-2.08-.21-3.13-.28-.14,0-.29-.02-.43-.03-1.9-.03-3.81,0-5.71.09-.24.01-.48.02-.72.03-.56.03-1.11.06-1.67.09,0-.01,0-.02,0-.03.71-.64,1.42-1.14,2.19-1.51Z" class="cls-2"/></g><path d="m148.26,688.43s0,0,0,0c-.05.03.2.5.45,1.46.18.67.25,1.18.31,1.58.35,2.42.22,5.06.22,5.06,0,1.85-.35,3.29-.5,4.04-.11.55-.65,3.17-2.17,6.53-1.72,3.81-3.71,6.34-5.08,8.07-2.26,2.84-3.91,4.2-4.56,4.71-1.02.8-1.86,1.33-2.49,1.72-.26.18-.54.35-.82.5-4.95,3-10.38,5.82-12.96,7.15-1.16.6-2.87,1.48-5.11,2.82-.19.11-.37.22-.54.32-.27.17-.54.35-.82.54-1.02.7-2.34,1.59-3.82,2.95-2.17,1.98-3.57,3.92-4.71,5.48-.04.05-.07.1-.14.2-1.77,2.44-2.09,3.02-3.05,4.21-.14.18-.28.34-.41.5-.23.29-.51.59-.84.88-.9.78-1.5.88-1.64.9-.1.01-.21.02-.31.02-1.23,0-2.17-.99-2.31-1.14-.91-.99-.98-2.21-1.02-3.34-.03-.84.03-2.1.8-4.36.48-1.41,1.19-3.08,2.34-5.01.87-1.45,2.2-3.65,4.61-5.9,1.43-1.34,2.84-2.66,5.18-3.64,2.36-.98,4.5-1.13,5.68-1.13.18,0,.34,0,.47,0,.72.02,1.34.1,1.8.17-1.33-.87-2.56-1.26-3.51-1.45-.38-.04-.75-.06-1.13-.06-2.24,0-4.38.67-5.14.99-.88.37-1.72.88-2.16,1.16-.26.18-.52.36-.78.55-1.85,1.4-3.03,2.85-3.21,3.08-.01.02-.03.03-.04.05-.02.02-.03.05-.05.07-.4.53-.93,1.25-1.52,2.11-.42.6-1.86,2.7-2.81,4.52-.14.28-.27.56-.4.85-.46,1.04-.8,1.9-.92,2.22-.65,1.83-.92,4.32-.97,4.82-.06,1.32.12,2.39.29,3.13.23.97.48,2.13,1.43,3.1.16.16.32.31.49.46.54.45,1.46,1.03,2.62,1.03.03,0,.06,0,.09,0,0,0,.01,0,.02,0,.62-.02,1.08-.2,1.46-.35.55-.22,1.01-.51,1.42-.84.17-.15.34-.31.5-.47.24-.23.47-.46.69-.7.02-.03.05-.05.07-.08.47-.53.89-1.02,1.24-1.46.09-.12.18-.23.27-.35.29-.38.57-.78.88-1.15.03-.03.05-.06.08-.09.03-.04.06-.08.08-.11.96-1.32,1.84-2.45,2.47-3.24.07-.1.15-.2.23-.29.18-.22.36-.44.55-.65,1.13-1.34,2.24-2.46,3.18-3.32.16-.17.33-.33.49-.5.07-.08.15-.14.23-.21.55-.45,1.12-.88,1.69-1.3,0,0,0,0,.01-.01,1.49-1.1,2.69-1.76,5.09-3.08.68-.37,1.17-.63,1.63-.86.24-.14.49-.26.74-.38.05-.02.09-.04.14-.06.66-.32,1.44-.71,2.74-1.38.22-.11.5-.26.85-.45.28-.17.57-.34.87-.47.05-.02.09-.04.13-.06.49-.26,1.05-.57,1.66-.9.53-.31,1.07-.61,1.61-.9.24-.14.49-.28.74-.42,1.4-.8,2.49-1.42,3.41-1.97.31-.26.66-.48,1.02-.67.18-.09.35-.19.51-.3.51-.34.97-.67,1.4-1.02.14-.11.27-.22.4-.33,1.78-1.49,3.01-2.89,3.98-4.02,1.5-1.73,2.42-3.09,3.67-4.92,1.81-2.65,2.8-4.49,3.26-5.39.05-.11.11-.22.16-.32,0,0,0,0,0-.01.33-.67.59-1.23.77-1.64.01,0,.02.02.04.03,0,0,0,0,0-.01.17-.36.41-.88.63-1.52.12-.34.29-.86.44-1.63.17-1.04.27-1.99.33-2.83.02-.43.04-.89.04-1.39.01-2.51.02-3.91-.43-5.5,0-.03-.02-.06-.03-.1-.01-.05-.03-.1-.05-.15-.03-.1-.06-.2-.1-.31-.03-.09-.06-.18-.1-.28-.11-.3-.23-.6-.35-.88-.02-.03-.03-.07-.05-.1-.02-.04-.03-.07-.05-.11-.46-.99-.99-1.78-1.45-2.39-.05-.06-.09-.09-.11-.09h0Z" class="cls-3"/><g><path d="m130.99,718.01c-.02-.91-.21-3.88-2.39-5.58-2.01-1.56-4.56-1.15-6.77-.8-5.14.83-6.23,3.2-11.82,4.25-1.99.37-4.95.93-5.84-.4-.91-1.36.7-4.16,2.26-5.84,2.66-2.86,5.12-2.4,9.83-4.65,4.03-1.92,6.62-4.36,8.63-6.24,4.56-4.27,4.19-5.98,8.5-9.16,2.38-1.76,5.14-3.73,8.23-3.05,1.76.39,3.55,1.61,4.51,3.32,3.29,5.81-3.9,15.55-6.64,19.25-3.07,4.16-6.25,7.07-8.5,8.9Z" class="cls-1"/><path d="m140.01,685.75h0c-3.48.04-6.18,2.27-7.67,3.5-.34.28-.23.21-2.65,2.58-.33.33-3.22,3.14-4.67,4.52-3.37,3.19-5.05,4.78-6.99,6.02-1,.64-2.16,1.19-2.16,1.19-1.6.81-2.72,1.24-3.44,1.54-1.23.52-2.96,1.4-5.01,2.95-1.14.82-2.71,2.16-3.81,4-.61,1.01-.83,1.77-.71,2.54.03.19.13.78.6,1.31.23.26.63.6,1.72.86.78.19,1.49.24,2.02.24.46,0,.79-.04.93-.05,2.15-.25,3.75-.96,4.04-1.08,2.43-1.07,5.47-2.18,7.36-2.69,1.06-.29,3.26-.87,5.43-.87,1.74,0,3.48.38,4.62,1.58.11.12.99,1.07,1.2,2.33.22-.42.8-1.74.31-3.28-.45-1.41-1.53-2.11-1.91-2.34-.6-.36-1.25-.58-1.97-.66-.11-.01-.22-.02-.32-.03-.15,0-.3-.01-.45-.01-.09,0-.19,0-.28,0-.14,0-.28.02-.41.03-.24.02-.47.04-.71.06-2.16.24-3.99.81-7.64,2.26-.84.33-1.69.63-2.54.93-.56.22-1.11.45-1.69.62-.19.06-.38.11-.57.17-.02,0-.04.01-.06.02-.7.25-1.39.51-2.07.79,0,0-1.34.55-3.12.55-.24,0-.49-.01-.75-.03-1.04-.09-1.53-.34-1.73-.73-.2-.39-.06-.85.07-1.16.85-2.15,3.19-3.69,3.19-3.69,1.64-1.07,2.98-1.69,4.8-2.49,5.7-2.52,6.28-2.58,7.86-3.7,1-.71,1.92-1.5,3.42-2.81.51-.44,1.8-1.56,3.12-2.84,2.77-2.68,2.65-3.13,5.38-5.88,2.21-2.22,3.62-3.27,5.18-4.04,1.32-.65,2.27-.86,3.06-.92.25-.02.57-.05.94-.05.6,0,1.34.07,2.13.35.3.11.67.26.79.26.02,0,.04,0,.04-.01.01-.02-.01-.06-.06-.11-.09-.08-.19-.16-.29-.25-.26-.2-.59-.41-.66-.46-.01,0-.03-.02-.04-.03-.19-.12-.4-.23-.63-.34,0,0,0,0,0,0-.67-.3-1.67-.58-3.16-.62h0Z" class="cls-3"/></g></g></g></g></svg>