<svg xmlns="http://www.w3.org/2000/svg" xmlns:xlink="http://www.w3.org/1999/xlink" id="Capa_1" x="0" y="0" version="1.1" viewBox="0 0 1080 1080" style="enable-background:new 0 0 1080 1080" xml:space="preserve"><style type="text/css">.st0{fill:#00d700}.st1{fill:#2858d6}.st2{fill:#fff}.st4{fill:none}.st5{fill:#00ce00}</style><g><path d="M0,0v1080h1080V0H0z M1023.5,1023.5h-967v-967h967V1023.5z" class="st0"/></g><g><rect width="173.5" height="453" x=".5" y="313.5" class="st1"/><g><g><path d="M47.2,688c5.2,0,9.8,1,13.8,2.9c4,1.9,7.1,4.7,9.2,8.2c2.2,3.5,3.2,7.6,3.2,12.1c0,4.5-1,8.6-3.1,12.1 c-2.1,3.5-5.1,6.2-8.9,8.2c-3.9,2-8.3,3-13.3,3.1h-3c-5.2,0-9.8-1-13.8-2.9s-7.1-4.7-9.2-8.2c-2.2-3.6-3.3-7.6-3.3-12.2 c0-4.5,1.1-8.5,3.2-12.1c2.1-3.5,5.2-6.3,9.2-8.2c4-2,8.5-3,13.6-3H47.2z M45,701.1c-5.3,0-9.3,0.9-12,2.7 c-2.7,1.8-4.1,4.3-4.1,7.6c0,6.4,4.8,9.8,14.5,10.2l3.9,0c5.2,0,9.2-0.9,12-2.6c2.8-1.7,4.2-4.3,4.2-7.7c0-3.2-1.4-5.7-4.1-7.5 c-2.8-1.8-6.7-2.6-11.9-2.7H45z" class="st2"/><path d="M51.5,647.9v20.7h21.2v12.8H19.5v-35.6h9.9v22.8h12.2v-20.7H51.5z" class="st2"/><path d="M50.1,607.5v20.2h12.7v-23.8h9.9v36.7H19.5v-36.7h9.9v23.9h11.2v-20.2H50.1z" class="st2"/><path d="M53.9,578.8v6.9h18.8v12.8H19.5v-20.9c0-6.3,1.4-11.2,4.2-14.8c2.8-3.6,6.8-5.3,11.9-5.3 c3.7,0,6.8,0.8,9.2,2.2c2.4,1.5,4.4,3.8,5.9,7l21.5-11.1h0.5v13.7L53.9,578.8z M44,585.8v-8.1c0-2.4-0.6-4.3-1.9-5.5 c-1.3-1.2-3.1-1.8-5.4-1.8c-2.3,0-4.1,0.6-5.4,1.9c-1.3,1.2-2,3.1-2,5.5v8.1H44z" class="st2"/><path d="M29.4,509.8v16h43.3v12.8H29.4v15.7h-9.9v-44.5H29.4z" class="st2"/><path d="M62.8,478.6v17.6l9.9,3.1v13.7l-53.2-19.5v-12.1l53.2-19.7v13.8L62.8,478.6z M52.9,493.1v-11.4l-18.5,5.7 L52.9,493.1z" class="st2"/><path d="M58.6,430.3c-1.9,0-3.3,0.7-4.4,2s-2.1,3.7-3.3,7c-1.1,3.3-2.2,6.1-3.3,8.2c-3.4,6.9-8,10.3-14,10.3 c-2.9,0-5.5-0.9-7.8-2.6c-2.3-1.7-4-4.1-5.3-7.3c-1.3-3.1-1.9-6.7-1.9-10.6c0-3.8,0.7-7.3,2-10.3c1.4-3,3.3-5.4,5.8-7.1 c2.5-1.7,5.4-2.5,8.6-2.5v12.8c-2.2,0-3.9,0.7-5,2c-1.2,1.3-1.8,3.1-1.8,5.4c0,2.3,0.5,4.1,1.5,5.4c1,1.3,2.3,2,3.9,2 c1.4,0,2.6-0.7,3.7-2.2c1.1-1.5,2.3-4,3.4-7.7c1.2-3.7,2.5-6.7,3.8-9.1c3.3-5.8,7.9-8.6,13.7-8.6c4.7,0,8.3,1.8,11,5.3 c2.7,3.5,4,8.3,4,14.4c0,4.3-0.8,8.2-2.3,11.7c-1.5,3.5-3.7,6.1-6.4,7.9c-2.7,1.8-5.8,2.6-9.3,2.6v-12.9c2.9,0,5-0.7,6.3-2.2 c1.4-1.5,2-3.9,2-7.2c0-2.1-0.5-3.8-1.4-5C61.5,431,60.2,430.3,58.6,430.3z" class="st2"/></g><g><path d="M134.7,640.7H81.4v-19.1c0-6.8,1.3-12.1,3.8-15.6c2.5-3.6,6.2-5.4,10.9-5.4c2.8,0,5.1,0.6,7.1,1.9 c1.9,1.3,3.4,3.1,4.3,5.6c0.7-2.8,2.1-4.9,4.1-6.4s4.4-2.2,7.3-2.2c5.2,0,9.1,1.7,11.8,5c2.6,3.3,4,8.2,4,14.7V640.7z M103.6,627.9v-6.7c0-2.8-0.5-4.8-1.5-6c-1-1.2-2.5-1.8-4.4-1.8c-2.2,0-3.9,0.6-4.9,1.9c-1,1.3-1.5,3.4-1.5,6.3v6.3H103.6z M112,627.9h12.8v-8.4c0-2.3-0.5-4.1-1.6-5.3c-1.1-1.2-2.6-1.9-4.5-1.9c-4.4,0-6.7,2.2-6.7,6.6V627.9z" class="st2"/><path d="M109.1,547.4c5.2,0,9.8,1,13.8,2.9c4,1.9,7.1,4.7,9.2,8.2c2.2,3.5,3.2,7.6,3.2,12.1c0,4.5-1,8.6-3.1,12.1 c-2.1,3.5-5.1,6.2-8.9,8.2c-3.9,2-8.3,3-13.3,3.1h-3c-5.2,0-9.8-1-13.8-2.9s-7.1-4.7-9.2-8.2c-2.2-3.6-3.3-7.6-3.3-12.2 c0-4.5,1.1-8.5,3.2-12.1c2.1-3.5,5.2-6.3,9.2-8.2c4-2,8.5-3,13.6-3H109.1z M106.9,560.4c-5.3,0-9.3,0.9-12,2.7 c-2.7,1.8-4.1,4.3-4.1,7.6c0,6.4,4.8,9.8,14.5,10.2l3.9,0c5.2,0,9.2-0.9,12-2.6c2.8-1.7,4.2-4.3,4.2-7.7c0-3.2-1.4-5.7-4.1-7.5 c-2.8-1.8-6.7-2.6-11.9-2.7H106.9z" class="st2"/><path d="M81.4,523.9l37-11.9l-37-11.8v-16.9h53.2v12.9h-12.4l-25.4-1.2l37.9,12.9v8.5l-37.9,12.9l25.5-1.2h12.4v12.8 H81.4V523.9z" class="st2"/><path d="M134.7,475.1H81.4V456c0-6.8,1.3-12.1,3.8-15.6c2.5-3.6,6.2-5.4,10.9-5.4c2.8,0,5.1,0.6,7.1,1.9 s3.4,3.1,4.3,5.6c0.7-2.8,2.1-4.9,4.1-6.4c2-1.5,4.4-2.2,7.3-2.2c5.2,0,9.1,1.7,11.8,5c2.6,3.3,4,8.2,4,14.7V475.1z M103.6,462.3 v-6.7c0-2.8-0.5-4.8-1.5-6c-1-1.2-2.5-1.8-4.4-1.8c-2.2,0-3.9,0.6-4.9,1.9c-1,1.3-1.5,3.4-1.5,6.3v6.3H103.6z M112,462.3h12.8 v-8.4c0-2.3-0.5-4.1-1.6-5.3c-1.1-1.2-2.6-1.9-4.5-1.9c-4.4,0-6.7,2.2-6.7,6.6V462.3z" class="st2"/><path d="M124.7,396.6v17.6l9.9,3.1V431l-53.2-19.5v-12.1l53.2-19.7v13.8L124.7,396.6z M114.8,411.1v-11.4l-18.5,5.7 L114.8,411.1z" class="st2"/><path d="M120.5,348.4c-1.9,0-3.3,0.7-4.4,2s-2.1,3.7-3.3,7c-1.1,3.3-2.2,6.1-3.3,8.2c-3.4,6.9-8,10.3-14,10.3 c-2.9,0-5.5-0.9-7.8-2.6c-2.3-1.7-4-4.1-5.3-7.3c-1.3-3.1-1.9-6.7-1.9-10.6c0-3.8,0.7-7.3,2-10.3c1.4-3,3.3-5.4,5.8-7.1 c2.5-1.7,5.4-2.5,8.6-2.5v12.8c-2.2,0-3.9,0.7-5,2c-1.2,1.3-1.8,3.1-1.8,5.4c0,2.3,0.5,4.1,1.5,5.4c1,1.3,2.3,2,3.9,2 c1.4,0,2.6-0.7,3.7-2.2c1.1-1.5,2.3-4,3.4-7.7c1.2-3.7,2.5-6.7,3.8-9.1c3.3-5.8,7.9-8.6,13.7-8.6c4.7,0,8.3,1.8,11,5.3 c2.7,3.5,4,8.3,4,14.4c0,4.3-0.8,8.2-2.3,11.7c-1.5,3.5-3.7,6.1-6.4,7.9c-2.7,1.8-5.8,2.6-9.3,2.6v-12.9c2.9,0,5-0.7,6.3-2.2 c1.4-1.5,2-3.9,2-7.2c0-2.1-0.5-3.8-1.4-5C123.5,349,122.2,348.4,120.5,348.4z" class="st2"/></g><g><path d="M76.5,712.6c-3.8,0.4-7,1.5-7.9,0.1c-0.8-1.2,0.9-3.8,2.3-5.2c1.4-1.4,3.1-2.1,4.9-2.6 c5.6-1.5,11.2-0.4,14.2,0.4c0.2,0,3.6-0.5,5.4,1.8c1.8,2.2,1.5,6.1-1.4,8.6c-0.9-0.3-1.8-0.7-2.7-1 C84.9,712.4,79.9,712.3,76.5,712.6z" class="st4"/><path d="M154.9,688.7c-0.9-2.7-2.3-7-6.6-10.6c-1.1-0.9-5-3.9-10.7-4.2c-0.8-0.1-1.8,0-2.9,0.1c-0.1,0-0.3,0-0.5,0.1 c-1.3,0.2-2.2,0.8-2.7,1.1c-4.7,10.7-15.4,30.4-36.8,40.2c-2.9,1.4-5.9,2.4-8.7,3.3c-2.7,1.3-4.5,2.9-5.7,4 c-1.7,1.6-4.5,4.2-4.2,7.3c0.1,0.5,0.2,2.1,1.4,2.8c1.1,0.7,2.7,0.1,5-1c4.6-2.1,5.6-2.7,7.7-3.7c3.6-1.6,6.2-2.7,9-1.9 c1.4,0.4,2.4,1.1,3.1,1.7c-1.7,2-9.5,11.6-7,18.1c0.3,0.8,1.2,3.1,2.9,3.4c0.5,0.1,1.5-0.1,4.4-2.5c2.3-1.9,3.1-3.9,4.5-5.9 c1.8-2.7,3.7-4.2,7.2-6.9c2.3-1.8,3.4-2.3,13.2-7.5c8.6-4.5,9.2-4.9,10.1-5.8c2.7-2.4,4.4-5,7.9-10.3c1.9-2.9,3.4-5.3,4.4-7 c1.4,0,3.4-0.4,4.9-1.8C158.1,698.6,156,692.1,154.9,688.7z" class="st4"/><g><path d="M137.5,673.2c-1.5,0-2.7,0.2-3.6,0.5c-0.9,0.3-1.9,0.6-2.9,1.2c-1.8,0.9-3.1,1.8-4.2,2.7 c1.7-0.1,3.8-0.4,6-1.1c0.8-0.3,1.6-0.5,2.3-0.8c0,0,0,0,0,0c0.6-0.2,1.4-0.4,2.3-0.4c0.1,0,0.2,0,0.4,0c1.1,0,1.9,0.2,2.8,0.5 c1.9,0.5,3.4,1.3,4.8,2.1c0.8,0.4,1.6,0.9,2.1,1.2c2.5,1.7,5.1,5,6.5,8.9c0,0,2,5.6,0.5,11.1c-0.4,1.4-1.1,2.4-1.3,2.6 c-0.6,0.7-1,1-1.4,1.2c-0.5,0.2-1,0.3-1.3,0.3c0,0,0,0,0,0c0.1-0.4,0.1-0.8,0.2-1.2c0,0.2-0.1,0.5-0.1,0.8 c-0.2,0.8-0.3,1.3-0.4,1.6c-0.2,0.6-0.5,1.2-0.6,1.5c0,0,0,0,0,0c0.6,0,1.4-0.1,2.3-0.4c0.8-0.3,1.5-0.7,1.9-1 c0.8-0.6,1.4-1.3,1.6-1.6c0.5-0.6,0.7-1.2,0.9-1.5c0.1-0.3,0.5-1.3,0.8-3.1c0.2-1.5,0.2-2.7,0.1-3.7c-0.1-1.9-0.3-3.4-0.4-4 c-0.1-0.7-0.3-1.4-0.6-2.3c-0.3-0.8-0.6-1.5-1.1-2.5c-0.8-1.5-1.4-2.7-2.4-4.1c-0.8-1.1-2.3-3.1-5-4.9c-0.5-0.3-2.4-1.6-5.1-2.5 c-1.3-0.4-2.6-0.8-4.4-0.9C137.9,673.2,137.7,673.2,137.5,673.2L137.5,673.2z" class="st5"/></g><g><path d="M83.2,704.1c-0.6,0-1.4,0-2.5,0c-0.7,0-1.2,0-2,0.1c-0.9,0.1-1.6,0.2-2.2,0.3c-0.4,0.1-2.1,0.4-3.2,0.8 c-0.1,0.1-0.5,0.2-1,0.4c-0.2,0.1-0.3,0.2-0.5,0.2c-0.2,0.1-0.5,0.2-0.8,0.5c-0.3,0.2-0.6,0.4-0.8,0.6c-0.1,0.1-0.2,0.1-0.3,0.2 c-0.6,0.5-1.1,1-1.5,1.7c-0.3,0.5-0.6,1-0.8,1.5c-0.3,0.6-0.4,1.3-0.3,1.9c0,0.1,0.1,0.3,0.2,0.4c0.2,0.3,0.4,0.5,0.6,0.8 c0,0.1,0.1,0.1,0.2,0.1c0,0,0,0,0,0c0,0,0,0,0.1,0c0.1,0,0.2,0.1,0.3,0.1c0.5,0.2,1,0.4,1.5,0.4c0.1,0,0.2,0,0.2,0 c0.4,0,0.7,0,1.1-0.1c0.3,0,0.5-0.1,0.8-0.1c0.3,0,0.6-0.1,0.9-0.1c0.5-0.1,0.9-0.1,1.4-0.2c0.2,0,0.5,0,0.7-0.1 c0.2,0,0.6-0.1,1.2-0.1c0.7-0.1,1.1-0.1,1.6-0.1c0.3,0,0.6,0,0.8,0c0.3,0,0.6,0,0.9,0c0.2,0,0.6,0,1.3,0c1.1,0.1,2,0.1,2.3,0.2 c1.7,0.2,3.3,0.5,4.3,0.7c2.4,0.5,4.7,1,6.8,1.5c0.1,0,0.1-0.1,0.2-0.1c0.1,0,0.1,0,0.2,0c0.1-0.1,0.2-0.1,0.3-0.2 c0.1,0,0.1,0,0.2-0.1c-1.1-0.4-2.1-0.8-3.2-1.2c-1-0.3-2-0.7-3-1c0,0-4.3-1.3-10-1.7c-0.8-0.1-1.4-0.1-1.4-0.1 c-0.1,0-0.2,0-0.2,0c-0.4,0-0.8,0-1.4,0c-0.4,0-0.7,0-1.2,0.1c-0.5,0-1,0.1-1.7,0.1c-0.8,0.1-1.5,0.2-1.9,0.2 c-0.2,0-0.4,0-0.7,0.1c0,0-0.1,0-0.1,0c0,0-0.1,0-0.1,0c-0.4-0.1-0.7-0.3-0.9-0.7c-0.1-0.2-0.1-0.4,0-0.6 c0.1-0.4,0.3-0.8,0.6-1.1c0.1-0.1,0.1-0.1,0.2-0.2c0.2-0.2,0.3-0.4,0.3-0.4c0.1-0.1,0.4-0.4,0.9-0.8c0.4-0.3,0.6-0.5,0.8-0.6 c0.2-0.1,0.4-0.2,0.4-0.3c0.1-0.1,0.4-0.2,0.8-0.4c0,0,0.5-0.2,1-0.4c2.1-0.7,5.1-1.2,5.1-1.2c2.6-0.4,4-0.6,5.8-0.6 c0.1,0,0.3,0,0.4,0c1.6,0,3,0.2,4,0.3c-2.3-0.8-4.2-1.1-5.4-1.2C84.2,704.1,83.8,704.1,83.2,704.1L83.2,704.1z" class="st5"/></g><g><path d="M97.9,715c-1.5,0-2.7,0.2-3.5,0.3c-2.3,0.4-4.2,1.3-8.1,2.9c-0.6,0.3-1.2,0.5-1.2,0.5 c-0.3,0.1-0.7,0.3-1.2,0.6c-0.3,0.2-1,0.5-1.9,1.2c-2.4,1.7-3.9,3.4-4.3,3.9c-1.3,1.5-1.8,2.4-1.9,2.7c-0.4,0.9-0.9,1.9-0.9,3.2 c0,0.6,0,1.6,0.7,2.5c1,1.3,2.8,1.4,3.5,1.4c0.1,0,0.2,0,0.2,0c1.3,0,2.2-0.5,4.2-1.5c1.2-0.6,1.8-1,2.6-1.5 c1.3-0.8,3.4-2,5.8-2.9c0.4-0.1,2.8-0.9,5.9-0.9c0.4,0,0.7,0,1.1,0c1.9,0.1,2.1,0.5,2.1,0.5c0.2-0.2,1.4-1.7,3.2-3.1 c0.3-0.2,0.5-0.4,0.8-0.5c-0.7,0.5-1.4,1-2.1,1.5c0,0-0.1,0.1-0.1,0.1c-0.1,0.1-0.2,0.1-0.3,0.1c-0.1,0-0.1,0-0.2,0 c0,0-0.1,0-0.1,0c0,0,0,0,0,0c-0.1,0-0.1,0-0.2,0c-0.8-0.2-1.8-0.4-2.9-0.4c-0.4,0-0.9,0-1.3,0c-0.3,0-0.6,0-1,0 c-0.1,0-0.2,0-0.3,0c-0.1,0-0.1,0-0.2,0c-0.2,0-0.4,0-0.6,0c0,0-0.1,0-0.1,0c-0.2,0-0.4,0.1-0.7,0.1c-1.1,0.2-2.5,0.4-4.1,1 c-0.5,0.2-1.1,0.4-1.6,0.7c-0.1,0-0.1,0.1-0.2,0.1c-0.1,0-0.2,0.1-0.3,0.1c-0.1,0-0.2,0.1-0.2,0.1c-0.5,0.2-1,0.5-1.6,0.8 c-2.6,1.4-4.2,2.6-6.6,3.4c-0.3,0.1-0.9,0.3-1.5,0.3c-0.5,0-0.9-0.1-1.3-0.3c0,0,0,0,0,0c0,0,0,0,0,0c0,0,0,0,0,0 c-0.1,0-0.1-0.1-0.2-0.2c-0.2-0.2-0.3-0.3-0.3-0.4c-0.4-0.6-0.2-1.2-0.1-1.8c0.1-0.7,0.4-1.2,0.6-1.7c0.2-0.4,0.5-0.9,1-1.6 c0.8-1.1,1.5-1.8,1.7-2c0.4-0.4,0.7-0.7,0.9-0.9c0.2-0.2,0.8-0.7,1.9-1.4c0.3-0.2,1.2-0.8,2.6-1.6c0.4-0.2,1.3-0.7,2.7-1.4 c1.6-0.8,1.6-0.7,5.3-2.2c1.7-0.7,2.5-1.1,3.9-1.4c0.7-0.2,1.3-0.2,1.7-0.3C98.8,715,98.3,715,97.9,715L97.9,715z" class="st5"/></g><g><g><path d="M132.4,646.1c0.3-0.3,0.6-0.5,1.1-0.8c0.3-0.2,0.7-0.4,1-0.6c0.3,0.3,0.7,0.8,1.1,1.3 c0.4,0.6,0.6,1.1,0.8,1.5c-0.6,0.3-1.1,0.6-1.7,1.1c-0.2-0.3-0.4-0.7-0.7-1.1c0,0,0,0,0,0C133.4,646.8,132.8,646.3,132.4,646.1 z" class="st4"/><path d="M130,653.4c-0.2,0.3-0.4,0.6-0.5,0.9c-0.2,0.3-0.3,0.6-0.4,0.9c-0.7-0.4-1.5-0.9-2.3-1.3 c-0.5-0.2-0.9-0.4-1.3-0.6c0.4-0.5,0.7-1.1,1.1-1.6c0,0,0-0.1,0.1-0.1c0.1-0.1,0.2,0,0.2,0c0.5,0.1,1,0.4,1.7,0.7 C129.1,652.7,129.6,653.1,130,653.4z" class="st4"/><path d="M130.5,652.6c-0.1,0-0.1-0.1-0.2-0.1c0,0-0.1,0-0.1,0c0,0,0,0-0.1-0.1c-0.3-0.2-0.7-0.5-1.1-0.7 c-0.7-0.4-1.4-0.7-1.9-0.9c0.2-0.3,0.5-0.7,0.9-1.1c0.4-0.4,0.8-0.8,1.1-1.1c0.1,0.1,0.3,0.2,0.5,0.3c0.1,0,0.1,0.1,0.2,0.1 c0,0,0,0,0,0c0.6,0.4,1.7,1.2,1.6,2c0,0.1-0.1,0.3-0.3,0.6c0,0,0,0,0,0c-0.2,0.2-0.3,0.4-0.5,0.6 C130.7,652.4,130.6,652.5,130.5,652.6z" class="st4"/><path d="M135,644.4c0.2-0.1,0.3-0.2,0.6-0.3c0.3-0.2,0.7-0.3,0.9-0.3c-0.1,0.5-0.3,1-0.4,1.6 c1.4,0.5,2.4,0.8,2.7,0.9c0.1,0,0.2,0.1,0.3,0.2c0,0,0,0.1,0,0.1c-0.6,0.2-1.4,0.5-2.2,0.9c-0.2-0.5-0.5-1.1-0.9-1.8 C135.6,645.1,135.3,644.7,135,644.4z" class="st4"/><path d="M131.1,648.9c-0.1-0.1-0.1-0.1-0.2-0.2c0,0,0,0,0,0c-0.1-0.1-0.2-0.2-0.3-0.2c-0.3-0.2-0.5-0.4-0.8-0.5 c0.3-0.2,0.5-0.4,0.8-0.6c0.4-0.3,0.7-0.5,1.1-0.8c0.4,0.3,0.9,0.7,1.4,1.3c0.3,0.5,0.6,0.9,0.7,1.3c-0.1,0.1-0.2,0.1-0.3,0.2 c-0.4,0.3-0.8,0.7-1.1,1C132.1,650,131.7,649.5,131.1,648.9z" class="st4"/><path d="M85.1,687.7c0.1-0.1,0.3-0.3,0.5-0.4c0.2-0.2,0.4-0.3,0.6-0.5c0.6-0.6,1.3-1.2,1.9-1.8 c0.4-0.4,0.8-0.8,1.2-1.1c0.1-0.1,0.3-0.3,0.4-0.3c0.2-0.1,0.2-0.2,0.1-0.4c-0.1-0.2-0.3-0.4-0.4-0.5c-0.3-0.3-0.6-0.6-0.9-1 c-0.3-0.4-0.7-0.7-1-1c-0.4-0.3-0.8-0.7-1.2-1c-0.4-0.3-0.7-0.7-1.1-1.1c-0.1-0.1-0.2-0.3-0.1-0.5c0.1-0.5,0.3-1,0.6-1.5 c0.4-0.9,0.9-1.7,1.4-2.6c0.1-0.2,0.3-0.5,0.5-0.7c0.2-0.3,0.2-0.4,0-0.6c-0.3-0.4-0.7-0.8-1-1.2c-0.2-0.2-0.4-0.4-0.6-0.6 c-0.1-0.1-0.2-0.2-0.3-0.3c0.1,0,0.2,0.1,0.2,0.2c0.6,0.5,1.2,1,1.8,1.5c1.1,0.8,2.1,1.6,3.1,2.5c0.4,0.4,0.8,0.7,1.3,1 c0.3,0.2,0.6,0.4,1,0.6c0.3,0.2,0.6,0.3,0.9,0.5c0.3,0.2,0.6,0.3,1,0.3c0.4,0,0.7-0.2,0.8-0.5c0-0.1,0.1-0.2,0.1-0.3 c0.2-0.3,0.2-0.6,0.2-0.9c0-0.1,0-0.2,0-0.4c0.2,0.2,0.4,0.4,0.4,0.7c0,0.2,0,0.3,0.1,0.5c0,0.1,0,0.2,0.1,0.2 c0.1,0,0.1-0.1,0.2-0.1c0,0,0,0,0-0.1c0.2-0.3,0.4-0.5,0.7-0.7c0.1-0.1,0.2-0.2,0.4-0.3c-0.2,0.3-0.4,0.7-0.5,1 c-0.2,0.4-0.3,0.9-0.2,1.3c0,0.2,0.1,0.3,0.2,0.4c0.3,0.3,0.7,0.5,1.2,0.5c0.7,0,1.4-0.2,2.1-0.5c0.1-0.1,0.2-0.1,0.4-0.2 c1.1-0.6,2.2-1,3.2-1.5c0,0,0.1,0,0.1-0.1c1.3-0.7,2.6-1.2,3.9-1.8c0.3-0.1,0.6-0.3,0.9-0.5c0.5-0.2,0.9-0.5,1.4-0.7 c0.7-0.3,1.4-0.6,2-1c0.2-0.1,0.4-0.2,0.5-0.3c0.1-0.1,0.2-0.1,0.3-0.1c0,0.1-0.1,0.1-0.2,0.2c-0.3,0.2-0.6,0.5-0.9,0.7 c-0.1,0.1-0.2,0.2-0.3,0.2c-0.9,0.6-1.7,1.2-2.6,1.8c-0.3,0.2-0.7,0.4-1,0.7c-0.2,0.2-0.5,0.3-0.7,0.5 c-0.3,0.2-0.3,0.3-0.2,0.5c0.2,0.4,0.2,0.8,0.3,1.2c0.1,0.4,0.1,0.8,0.2,1.3c0,0.2,0.1,0.4,0.1,0.6c0.1,0.3,0.1,0.6,0.1,1 c0,0.7,0.2,1.4,0.1,2.1c0,0.3,0,0.5,0.1,0.8c0,0.4,0,0.8-0.1,1.1c-0.1,0.6-0.1,1.1-0.2,1.7c-0.2,1-0.4,1.9-0.8,2.8 c-0.3,0.6-0.5,1.2-0.8,1.8c-0.4,0.8-0.8,1.5-1.4,2.2c-0.2,0.3-0.5,0.6-0.9,0.9c-0.4,0.3-0.7,0.6-1.1,0.8 c-0.5,0.3-1,0.4-1.6,0.3c-0.3-0.1-0.6-0.1-0.9-0.1c-0.2,0-0.4-0.1-0.6-0.3c-0.2-0.1-0.3-0.2-0.5-0.3c-0.1-0.1-0.1-0.1-0.2-0.2 c-0.4-0.5-0.8-1.1-1.1-1.7c-0.2-0.5-0.4-0.9-0.5-1.4c-0.1-0.2,0-0.3,0.1-0.4c0.3-0.3,0.5-0.6,0.8-0.8c0.2-0.2,0.3-0.3,0.5-0.5 c0.4-0.4,0.9-0.9,1.4-1.3c0,0,0.1-0.1,0.1-0.1c0.6-0.6,1.3-1.2,1.9-1.9c0.1-0.1,0.2-0.1,0.3-0.2c0.2-0.1,0.3-0.3,0.2-0.5 c0-0.1-0.1-0.1-0.2-0.2c-0.3-0.3-0.6-0.5-1-0.7c-0.4-0.2-0.7-0.5-1-0.7c-0.4-0.3-0.9-0.6-1.3-1c-0.6-0.4-1.2-0.8-1.7-1.3 c-0.3-0.2-0.3-0.2-0.2-0.6c0.1-0.2,0.1-0.4,0.2-0.7c0-0.1,0-0.1,0.1-0.2c0-0.2,0-0.3-0.2-0.3c-0.3-0.1-0.5-0.1-0.8-0.2 c-0.4-0.1-0.6-0.3-0.7-0.7c0-0.1-0.1-0.2-0.1-0.3c-0.1,0-0.1,0-0.2,0c-0.2,0.1-0.4,0.2-0.6,0.3c-0.1,0.1-0.2,0.1-0.3,0.2 c-0.2,0.1-0.3,0.1-0.5,0c-0.1-0.1-0.2-0.1-0.4-0.1c-0.1,0-0.1,0-0.2,0c-0.1,0.1,0,0.1,0,0.2c0.1,0.1,0.1,0.2,0.1,0.4 c0,0.3,0,0.5,0,0.8c0,0.4,0,0.7,0,1.1c0,0.6,0,1.2-0.1,1.8c-0.1,0.3-0.1,0.6-0.1,0.9c-0.1,0.5-0.2,1-0.3,1.5 c-0.1,0.4-0.2,0.7-0.3,1c-0.2,0.6-0.4,1.1-0.6,1.7c-0.1,0.3-0.2,0.6-0.4,0.9c-0.2,0.3-0.4,0.7-0.6,1c-0.2,0.3-0.3,0.5-0.6,0.8 c-0.4,0.4-0.9,0.8-1.5,1c-0.6,0.3-1.3,0.4-2,0.3c-0.7-0.1-1.3-0.4-1.8-0.9c-0.1-0.1-0.2-0.2-0.3-0.3c-0.4-0.3-0.8-0.7-1-1.2 c-0.2-0.3-0.3-0.6-0.5-1c0-0.1,0-0.1-0.1-0.2c0.2-0.1,0.3-0.3,0.5-0.4C84.8,688,84.9,687.9,85.1,687.7z" class="st4"/><path d="M85.4,700.8c0.5,0.2,1.1,0.4,1.7,0.6c0,0,0.1,0,0.1,0c0.5,0.1,1,0.2,1.5,0.4c5.7,1.2,13.4,0.9,18.8-1.4 c0.3-0.1,0.5-0.2,0.8-0.4c1.1-0.5,2.1-1.2,3-2c-0.1-0.2-0.2-0.4-0.3-0.7c-0.2-0.4-0.2-0.9-0.3-1.4c-0.1-0.2-0.1-0.4-0.1-0.6 c0-0.3,0.4-0.3,0.4,0c0.3,1.4,1.1,2.6,2,3.6c0.3,0.3,0.5,0.6,0.8,0.9c0.1,0.1,0.2,0.1,0.3,0.2c0.2,0.1,0.1,0.4-0.1,0.4 c-0.1-0.1-0.2-0.1-0.3-0.2c-0.1-0.1-0.3-0.1-0.4-0.2c-0.3-0.2-0.6-0.4-0.9-0.6c-0.3-0.3-0.5-0.6-0.7-0.9c0,0.1-0.1,0.1-0.1,0.2 c-1.8,3.6-2.7,7.5-3.8,11.4c0.5,0.1,1,0.2,1.5,0.3c0.3,0.1,0.6,0.1,0.9,0.2c0.2,0.1,0.9,0.1,0.7,0.5c-0.1,0.2-0.8-0.2-1.1-0.2 c-3.5-0.7-7.1-0.7-10.7-0.6c-4.4,0-8.9,0.5-13.1,2.1c-0.2,0.1-0.3-0.2-0.2-0.3c0.2-0.1,0.5-0.2,0.7-0.3 c0.4-0.2,0.9-0.4,1.3-0.6c0.4-0.2,0.9-0.3,1.3-0.5c0-0.2,0-0.3-0.1-0.4c-0.2-1.1-0.4-2.2-0.6-3.3c-0.3-1.7-0.9-3.4-1.4-5.1 c-0.6-0.2-1.2-0.4-1.8-0.8c-0.1-0.1-0.2-0.1-0.3-0.2c-0.1-0.1-0.2-0.1-0.3-0.2c0,0,0,0,0,0c0,0,0,0,0,0 c-0.1-0.1-0.2-0.2-0.1-0.3C84.6,700.2,85.1,700.7,85.4,700.8z" class="st4"/><path d="M117.7,653.5c1.8,0,4.4,0.3,7.4,1.5c5,2.1,7.9,5.6,9.1,7.3c-0.5,1.7-1.1,3.5-1.6,5.2 c-1.3-1.1-2.5-2-3.6-2.8c-1.8-1.3-3.7-2.5-5.7-3.4c-0.2-0.1-0.4-0.2-0.5-0.3c0,0,0,0,0,0c-0.2-0.1-0.4-0.2-0.6-0.2 c-0.3-0.1-0.5-0.2-0.8-0.4c-1.3-0.6-2.8-1.1-4.4-1.4c-0.4-0.1-0.7-0.2-1.1-0.2c-1.2-0.3-2.5-0.5-3.7-0.6 C114,656.6,115.9,655.1,117.7,653.5z" class="st4"/><path d="M113.7,671.7c0,0-0.1,0.1-0.1,0.1C113.6,671.8,113.6,671.7,113.7,671.7z" class="st4"/><g><path d="M150.6,629.3C150.6,629.3,150.6,629.3,150.6,629.3c-0.2,0.1-0.3,0.2-0.4,0.3c-1.3,0.9-2.5,1.8-3.7,2.7 c-1,0.7-1.9,1.4-2.9,2.2c-0.4,0.3-0.8,0.6-1.2,1c-0.3,0.2-0.5,0.4-0.8,0.6c-0.2,0.1-0.3,0.2-0.5,0.4c-0.3,0.3-0.7,0.6-1.1,0.8 c-0.2,0.1-0.3,0.2-0.4,0.4c-0.2,0.2-0.5,0.4-0.7,0.6c0,0-0.1,0.1-0.1,0.1c0,0,0,0-0.1,0c0-0.4,0-0.9,0-1.3 c0.1-0.5,0.1-1,0.1-1.5c0-0.3,0-0.5,0.1-0.8c0.1-0.8,0.2-1.6,0.3-2.4c0-0.4,0.1-0.8,0.1-1.2c0-0.1,0-0.1,0-0.2 c0-0.1-0.1-0.2-0.2-0.2c0,0-0.1,0-0.1,0c-0.1,0-0.1,0-0.2,0.1c0,0.1-0.1,0.1-0.1,0.2c-0.1,0.2-0.3,0.5-0.4,0.7 c-0.6,0.9-1.1,1.8-1.6,2.8c-0.8,1.5-1.7,3.1-2.5,4.7c0,0.1,0,0.1-0.1,0.1c0,0,0,0-0.1,0c-0.2-0.3-0.5-0.6-0.7-0.9 c-0.4-0.6-0.9-1-1.3-1.4c0,0-0.1-0.1-0.1-0.1c0,0,0,0,0,0c-0.1,0-0.1,0.1-0.1,0.2c0,0.3,0,0.5,0,0.8c0,0.6,0,1.1,0,1.7 c0,0.8,0,1.6-0.1,2.3c0,0.7,0,1.4,0,2.1c0,0.2,0,0.4,0,0.7c0,0.2,0,0.3-0.2,0.4l0.2-0.2l1.3-0.7c0-0.5,0-0.9,0-1.4 c0-0.6,0-1.2,0.1-1.8c0.5,0.6,0.9,1.3,1.4,1.9c0,0,0.1,0.1,0.2,0.1c0,0,0,0,0,0c0.1,0,0.2-0.1,0.2-0.2 c0.5-1.1,1.1-2.2,1.6-3.3c0.1,0.8,0.3,1.6,0.4,2.4c0,0,0,0.1,0.1,0.1c0,0,0.1,0,0.1,0c0.1,0,0.1,0,0.1-0.1 c2.3-1.4,4.6-2.9,7-4.3c-0.1,0.3-1.6,4.3-1.7,4.8c0,0.1-0.1,0.2,0,0.3c0,0,0.1,0.1,0.2,0.1c0,0,0.1,0,0.1,0 c2.3-0.9,4.6-1.7,6.8-2.6c-1,1.4-2,2.8-3.1,4.2c-0.1,0.1-0.1,0.2-0.1,0.3c0,0.1,0.1,0.2,0.2,0.2c1.7,0.4,3.4,0.8,5.1,1.3 c-1.6,0.6-3.2,1.3-4.8,1.9c0,0-0.1,0.1-0.2,0.2c-0.1,0.2,0,0.3,0,0.3c0.8,1.1,1.6,2.2,2.4,3.4c-2.3-0.5-4-0.8-4.3-0.9 c0,0-0.1,0-0.2,0c-0.1,0-0.1,0-0.2,0.1c-0.1,0.1-0.1,0.2-0.1,0.3c0.4,1.1,0.7,2.2,1.1,3.3c-0.7-0.6-1.5-1.2-2.2-1.8 c-0.5-0.4-0.9-0.9-1.4-1.3c-0.1-0.1-0.2-0.1-0.3-0.1c-0.1,0-0.1,0-0.2,0c-0.2,0.1-0.3,0.3-0.3,0.4c-0.3,0.9-0.7,1.9-1,2.8 c0,0,0-0.1,0-0.1c0,0,0,0,0,0c0-0.1-0.1-0.3-0.1-0.4c-0.6-2-1.2-3.9-1.8-5.9l-2.7,1.8c0.2,0.2,0.3,0.5,0.5,0.7 c1.7,2.7,3.4,6.6,3.9,11.8c0,0,0,0,0,0c0.1-0.2,0.2-0.3,0.3-0.5c0.3-0.6,0.6-1.2,0.9-1.8c0.2-0.4,0.4-0.8,0.5-1.2 c0.1-0.3,0.3-0.7,0.4-1c0.2-0.3,0.3-0.6,0.4-0.9c0.1-0.3,0.2-0.6,0.3-0.9c0.1-0.2,0.2-0.4,0.3-0.7c0.2,0.1,0.3,0.3,0.5,0.4 c0.5,0.5,1,0.9,1.5,1.4c1,1,2,2.1,3,3.1c0.1,0.1,0.1,0.1,0.2,0.2c0.3,0.3,0.5,0.6,0.8,0.9c0.1,0.1,0.1,0.2,0.2,0.2 c0,0,0.1,0,0.1,0c0.1,0,0.1,0,0.1-0.1c0-0.1,0-0.2,0-0.3c0-0.8,0.1-1.6,0.1-2.5c0-0.4,0-0.9,0-1.3c0-0.1,0-0.3,0-0.4 c0-0.3,0-0.5,0-0.8c0-0.4,0-0.8,0-1.3c0-0.1,0-0.2,0.1-0.3c0.1,0,0.3,0.1,0.4,0.1c0.4,0.1,0.8,0.2,1.2,0.3 c1.2,0.2,2.3,0.5,3.5,0.8c0.8,0.2,1.6,0.4,2.4,0.6c0.1,0,0.2,0.1,0.3,0.1c0,0,0,0,0,0c0.1,0,0.1-0.1,0.1-0.2c0,0,0,0,0,0 c-0.3-0.4-0.6-0.8-0.9-1.2c-0.7-0.9-1.4-1.7-2.1-2.6c-0.4-0.4-0.6-0.9-1-1.3c-0.3-0.3-0.5-0.6-0.7-0.9 c-0.2-0.3-0.4-0.6-0.7-0.9c-0.1-0.1-0.1-0.1-0.1-0.2c0.3-0.1,0.6-0.3,1-0.4c0.7-0.3,1.4-0.6,2.1-0.8c0.5-0.1,0.9-0.3,1.4-0.5 c1.6-0.5,3.2-1,4.8-1.5c0.2,0,0.3-0.1,0.4-0.2c0.1,0,0.2-0.1,0.2-0.2c0,0,0-0.1,0-0.1c-0.2-0.4-1.3-0.5-1.3-0.5 c-1.5-0.7-3-1.3-4.5-1.8c-0.8-0.3-1.7-0.5-2.5-0.8c-0.1,0-0.3-0.1-0.4-0.2c0,0,0-0.1,0-0.1c0.6-0.9,1.2-1.8,1.8-2.6 c1-1.4,2-2.7,2.9-4.1c0.3-0.5,0.6-1,1-1.4c0.1-0.1,0.1-0.2,0.2-0.3c0-0.1,0-0.1,0-0.2c0,0,0,0-0.1,0c0,0-0.1,0-0.1,0 c-0.2,0.1-0.4,0.1-0.6,0.2c-0.7,0.3-1.5,0.6-2.2,0.9c-0.9,0.4-1.9,0.7-2.8,1.1c-1.4,0.6-2.7,1.2-4,1.7c-0.7,0.3-1.4,0.6-2.1,1 c-0.1,0-0.1,0.1-0.2,0.1c0,0,0,0-0.1,0c0-0.1,0.1-0.2,0.1-0.3c0.3-0.7,0.5-1.3,0.8-2c0.4-0.9,0.7-1.8,1.1-2.8 c0.5-1.1,0.9-2.3,1.4-3.4c0.1-0.2,0.2-0.4,0.3-0.7C150.8,629.4,150.7,629.3,150.6,629.3C150.7,629.3,150.7,629.3,150.6,629.3 L150.6,629.3z" class="st5"/></g><path d="M73.7,690.8c0,1.2,0.1,2.4,0.2,3.6c1.6,13.8,12.1,25,25.9,28.3c2.6,0.6,5.4,1,8.3,1 c19,0,34.4-14.7,34.4-32.9c0-7.9-2.9-15.2-7.8-20.9c0,0-0.1-0.1-0.1-0.1c0-0.1,0-0.1,0-0.2c0.1-0.3,0.1-0.7,0.2-1 c0.2-0.7,0.4-1.5,0.5-2.2c0.3-1.2,0.5-2.3,0.8-3.5c0.1-0.3,0.1-0.6,0.1-0.9c0-0.1,0-0.2-0.1-0.3c-0.1-0.1-0.2-0.2-0.2-0.3 c-0.1-0.2-0.2-0.3-0.3-0.5c-0.3-0.4-0.6-0.8-1-1.2c-0.2-0.3-0.5-0.6-0.8-0.8c-0.3-0.3-0.7-0.6-1-0.9c-0.4-0.4-0.8-0.7-1.2-1.1 c-0.3-0.2-0.5-0.4-0.8-0.6c-0.1-0.1-0.2-0.1-0.1-0.3c0.1-0.3,0.2-0.5,0.3-0.8c0.3-0.8,0.9-2.1,2.1-3.3c1-1,2-1.7,2.7-2.1 l2.7-1.8c0.1-0.1,0.9-1.1,1.2-1.6c0.1-0.1,0.2-0.2,0.1-0.4c0-0.2-0.2-0.3-0.3-0.4c-0.8-0.3-1.6-0.5-2.4-0.8 c0.1-0.4,0.2-0.8,0.3-1.2c0.1-0.5,0.3-0.9,0.5-1.2c-0.7,0.2-1.4,0.4-2.1,0.6c-1,0.3-1.9,0.7-2.7,1l-1.3,0.7l-0.2,0.2 c0,0,0,0,0,0c-0.2,0.1-0.4,0.3-0.6,0.4c-0.9,0.6-1.6,1.3-2.4,2c-0.5,0.4-1,0.9-1.4,1.4c-0.4,0.4-0.7,0.8-1,1.2 c-0.7,0.9-1.3,1.8-1.9,2.8c0,0,0,0,0,0c-0.1,0-0.1,0-0.2-0.1c-1.3-0.6-2.6-0.8-4-0.9c-0.6-0.1-1.2-0.1-1.8-0.2 c-0.3,0-0.6,0-0.9,0c-0.3,0-0.5,0.1-0.7,0.4c-0.1,0.1-0.2,0.2-0.3,0.3c-0.6,0.4-1.2,0.9-1.8,1.3c-0.7,0.5-1.4,1-2,1.6 c-0.4,0.4-0.8,0.7-1.2,1c-0.6,0.5-1.2,1.1-1.8,1.6c-0.1,0.1-0.2,0.1-0.3,0.1c-0.1,0-0.2,0-0.2,0c-0.2,0-0.4,0-0.5,0 c-1.3,0-2.6,0-3.8,0.1c0,0,0,0,0,0c-0.8,0.1-1.6,0.2-2.4,0.4c-0.4,0.1-0.8,0.2-1.2,0.2c-0.9,0.1-1.7,0.3-2.6,0.6 c-0.7,0.2-1.4,0.5-2.1,0.8c-0.3,0.1-0.6,0.2-0.9,0.3c-0.2,0.1-0.4,0.1-0.6,0.2c-0.2,0.1-0.5,0.2-0.7,0.3c0,0,0,0,0,0 c-1.9,0.8-3.7,1.8-5.3,2.9c-0.3,0.2-0.7,0.4-1,0.7C79.2,670.3,73.7,680,73.7,690.8z M128.4,652.3c0.7,0.4,1.2,0.7,1.6,1.1 c-0.2,0.3-0.4,0.6-0.5,0.9c-0.2,0.3-0.3,0.6-0.4,0.9c-0.7-0.4-1.5-0.9-2.3-1.3c-0.5-0.2-0.9-0.4-1.3-0.6 c0.4-0.5,0.7-1.1,1.1-1.6c0,0,0-0.1,0.1-0.1c0.1-0.1,0.2,0,0.2,0C127.2,651.8,127.8,652,128.4,652.3z M136.8,647.3 c-0.2-0.5-0.5-1.1-0.9-1.8c-0.3-0.5-0.6-0.8-0.9-1.1c0.2-0.1,0.3-0.2,0.6-0.3c0.3-0.2,0.7-0.3,0.9-0.3c-0.1,0.5-0.3,1-0.4,1.6 c1.4,0.5,2.4,0.8,2.7,0.9c0.1,0,0.2,0.1,0.3,0.2c0,0,0,0.1,0,0.1C138.4,646.6,137.6,646.9,136.8,647.3z M133.9,647.4 c-0.5-0.7-1.1-1.1-1.5-1.4c0.3-0.3,0.6-0.5,1.1-0.8c0.3-0.2,0.7-0.4,1-0.6c0.3,0.3,0.7,0.8,1.1,1.3c0.4,0.6,0.6,1.1,0.8,1.5 c-0.6,0.3-1.1,0.6-1.7,1.1C134.4,648.2,134.2,647.9,133.9,647.4C133.9,647.4,133.9,647.4,133.9,647.4z M132.4,650.4 c-0.3-0.4-0.7-1-1.3-1.5c-0.1-0.1-0.1-0.1-0.2-0.2c0,0,0,0,0,0c-0.1-0.1-0.2-0.2-0.3-0.2c-0.3-0.2-0.5-0.4-0.8-0.5 c0.3-0.2,0.5-0.4,0.8-0.6c0.4-0.3,0.7-0.5,1.1-0.8c0.4,0.3,0.9,0.7,1.4,1.3c0.3,0.5,0.6,0.9,0.7,1.3c-0.1,0.1-0.2,0.1-0.3,0.2 C133.1,649.7,132.7,650.1,132.4,650.4z M130.5,652.6c-0.1,0-0.1-0.1-0.2-0.1c0,0-0.1,0-0.1,0c0,0,0,0-0.1-0.1 c-0.3-0.2-0.7-0.5-1.1-0.7c-0.7-0.4-1.4-0.7-1.9-0.9c0.2-0.3,0.5-0.7,0.9-1.1c0.4-0.4,0.8-0.8,1.1-1.1c0.1,0.1,0.3,0.2,0.5,0.3 c0.1,0,0.1,0.1,0.2,0.1c0,0,0,0,0,0c0.6,0.4,1.7,1.2,1.6,2c0,0.1-0.1,0.3-0.3,0.6c0,0,0,0,0,0c-0.2,0.2-0.3,0.4-0.5,0.6 C130.7,652.4,130.6,652.5,130.5,652.6z M115.9,658.8c-1.2-0.3-2.5-0.5-3.7-0.6c1.9-1.6,3.7-3.1,5.6-4.7c1.8,0,4.4,0.3,7.4,1.5 c5,2.1,7.9,5.6,9.1,7.3c-0.5,1.7-1.1,3.5-1.6,5.2c-1.3-1.1-2.5-2-3.6-2.8c-1.8-1.3-3.7-2.5-5.7-3.4c-0.2-0.1-0.4-0.2-0.5-0.3 c0,0,0,0,0,0c-0.2-0.1-0.4-0.2-0.6-0.2c-0.3-0.1-0.5-0.2-0.8-0.4c-1.3-0.6-2.8-1.1-4.4-1.4C116.6,659,116.2,658.9,115.9,658.8z M113.7,671.7c0,0-0.1,0.1-0.1,0.1C113.6,671.8,113.6,671.7,113.7,671.7z M84.4,700.6c0.2-0.3,0.6,0.1,0.9,0.2 c0.5,0.2,1.1,0.4,1.7,0.6c0,0,0.1,0,0.1,0c0.5,0.1,1,0.2,1.5,0.4c5.7,1.2,13.4,0.9,18.8-1.4c0.3-0.1,0.5-0.2,0.8-0.4 c1.1-0.5,2.1-1.2,3-2c-0.1-0.2-0.2-0.4-0.3-0.7c-0.2-0.4-0.2-0.9-0.3-1.4c-0.1-0.2-0.1-0.4-0.1-0.6c0-0.3,0.4-0.3,0.4,0 c0.3,1.4,1.1,2.6,2,3.6c0.3,0.3,0.5,0.6,0.8,0.9c0.1,0.1,0.2,0.1,0.3,0.2c0.2,0.1,0.1,0.4-0.1,0.4c-0.1-0.1-0.2-0.1-0.3-0.2 c-0.1-0.1-0.3-0.1-0.4-0.2c-0.3-0.2-0.6-0.4-0.9-0.6c-0.3-0.3-0.5-0.6-0.7-0.9c0,0.1-0.1,0.1-0.1,0.2 c-1.8,3.6-2.7,7.5-3.8,11.4c0.5,0.1,1,0.2,1.5,0.3c0.3,0.1,0.6,0.1,0.9,0.2c0.2,0.1,0.9,0.1,0.7,0.5c-0.1,0.2-0.8-0.2-1.1-0.2 c-3.5-0.7-7.1-0.7-10.7-0.6c-4.4,0-8.9,0.5-13.1,2.1c-0.2,0.1-0.3-0.2-0.2-0.3c0.2-0.1,0.5-0.2,0.7-0.3 c0.4-0.2,0.9-0.4,1.3-0.6c0.4-0.2,0.9-0.3,1.3-0.5c0-0.2,0-0.3-0.1-0.4c-0.2-1.1-0.4-2.2-0.6-3.3c-0.3-1.7-0.9-3.4-1.4-5.1 c-0.6-0.2-1.2-0.4-1.8-0.8c-0.1-0.1-0.2-0.1-0.3-0.2c-0.1-0.1-0.2-0.1-0.3-0.2c0,0,0,0,0,0c0,0,0,0,0,0 C84.4,700.8,84.4,700.7,84.4,700.6z M84.2,688.6c0.2-0.1,0.3-0.3,0.5-0.4c0.2-0.1,0.3-0.3,0.5-0.4c0.1-0.1,0.3-0.3,0.5-0.4 c0.2-0.2,0.4-0.3,0.6-0.5c0.6-0.6,1.3-1.2,1.9-1.8c0.4-0.4,0.8-0.8,1.2-1.1c0.1-0.1,0.3-0.3,0.4-0.3c0.2-0.1,0.2-0.2,0.1-0.4 c-0.1-0.2-0.3-0.4-0.4-0.5c-0.3-0.3-0.6-0.6-0.9-1c-0.3-0.4-0.7-0.7-1-1c-0.4-0.3-0.8-0.7-1.2-1c-0.4-0.3-0.7-0.7-1.1-1.1 c-0.1-0.1-0.2-0.3-0.1-0.5c0.1-0.5,0.3-1,0.6-1.5c0.4-0.9,0.9-1.7,1.4-2.6c0.1-0.2,0.3-0.5,0.5-0.7c0.2-0.3,0.2-0.4,0-0.6 c-0.3-0.4-0.7-0.8-1-1.2c-0.2-0.2-0.4-0.4-0.6-0.6c-0.1-0.1-0.2-0.2-0.3-0.3c0.1,0,0.2,0.1,0.2,0.2c0.6,0.5,1.2,1,1.8,1.5 c1.1,0.8,2.1,1.6,3.1,2.5c0.4,0.4,0.8,0.7,1.3,1c0.3,0.2,0.6,0.4,1,0.6c0.3,0.2,0.6,0.3,0.9,0.5c0.3,0.2,0.6,0.3,1,0.3 c0.4,0,0.7-0.2,0.8-0.5c0-0.1,0.1-0.2,0.1-0.3c0.2-0.3,0.2-0.6,0.2-0.9c0-0.1,0-0.2,0-0.4c0.2,0.2,0.4,0.4,0.4,0.7 c0,0.2,0,0.3,0.1,0.5c0,0.1,0,0.2,0.1,0.2c0.1,0,0.1-0.1,0.2-0.1c0,0,0,0,0-0.1c0.2-0.3,0.4-0.5,0.7-0.7 c0.1-0.1,0.2-0.2,0.4-0.3c-0.2,0.3-0.4,0.7-0.5,1c-0.2,0.4-0.3,0.9-0.2,1.3c0,0.2,0.1,0.3,0.2,0.4c0.3,0.3,0.7,0.5,1.2,0.5 c0.7,0,1.4-0.2,2.1-0.5c0.1-0.1,0.2-0.1,0.4-0.2c1.1-0.6,2.2-1,3.2-1.5c0,0,0.1,0,0.1-0.1c1.3-0.7,2.6-1.2,3.9-1.8 c0.3-0.1,0.6-0.3,0.9-0.5c0.5-0.2,0.9-0.5,1.4-0.7c0.7-0.3,1.4-0.6,2-1c0.2-0.1,0.4-0.2,0.5-0.3c0.1-0.1,0.2-0.1,0.3-0.1 c0,0.1-0.1,0.1-0.2,0.2c-0.3,0.2-0.6,0.5-0.9,0.7c-0.1,0.1-0.2,0.2-0.3,0.2c-0.9,0.6-1.7,1.2-2.6,1.8c-0.3,0.2-0.7,0.4-1,0.7 c-0.2,0.2-0.5,0.3-0.7,0.5c-0.3,0.2-0.3,0.3-0.2,0.5c0.2,0.4,0.2,0.8,0.3,1.2c0.1,0.4,0.1,0.8,0.2,1.3c0,0.2,0.1,0.4,0.1,0.6 c0.1,0.3,0.1,0.6,0.1,1c0,0.7,0.2,1.4,0.1,2.1c0,0.3,0,0.5,0.1,0.8c0,0.4,0,0.8-0.1,1.1c-0.1,0.6-0.1,1.1-0.2,1.7 c-0.2,1-0.4,1.9-0.8,2.8c-0.3,0.6-0.5,1.2-0.8,1.8c-0.4,0.8-0.8,1.5-1.4,2.2c-0.2,0.3-0.5,0.6-0.9,0.9 c-0.4,0.3-0.7,0.6-1.1,0.8c-0.5,0.3-1,0.4-1.6,0.3c-0.3-0.1-0.6-0.1-0.9-0.1c-0.2,0-0.4-0.1-0.6-0.3c-0.2-0.1-0.3-0.2-0.5-0.3 c-0.1-0.1-0.1-0.1-0.2-0.2c-0.4-0.5-0.8-1.1-1.1-1.7c-0.2-0.5-0.4-0.9-0.5-1.4c-0.1-0.2,0-0.3,0.1-0.4c0.3-0.3,0.5-0.6,0.8-0.8 c0.2-0.2,0.3-0.3,0.5-0.5c0.4-0.4,0.9-0.9,1.4-1.3c0,0,0.1-0.1,0.1-0.1c0.6-0.6,1.3-1.2,1.9-1.9c0.1-0.1,0.2-0.1,0.3-0.2 c0.2-0.1,0.3-0.3,0.2-0.5c0-0.1-0.1-0.1-0.2-0.2c-0.3-0.3-0.6-0.5-1-0.7c-0.4-0.2-0.7-0.5-1-0.7c-0.4-0.3-0.9-0.6-1.3-1 c-0.6-0.4-1.2-0.8-1.7-1.3c-0.3-0.2-0.3-0.2-0.2-0.6c0.1-0.2,0.1-0.4,0.2-0.7c0-0.1,0-0.1,0.1-0.2c0-0.2,0-0.3-0.2-0.3 c-0.3-0.1-0.5-0.1-0.8-0.2c-0.4-0.1-0.6-0.3-0.7-0.7c0-0.1-0.1-0.2-0.1-0.3c-0.1,0-0.1,0-0.2,0c-0.2,0.1-0.4,0.2-0.6,0.3 c-0.1,0.1-0.2,0.1-0.3,0.2c-0.2,0.1-0.3,0.1-0.5,0c-0.1-0.1-0.2-0.1-0.4-0.1c-0.1,0-0.1,0-0.2,0c-0.1,0.1,0,0.1,0,0.2 c0.1,0.1,0.1,0.2,0.1,0.4c0,0.3,0,0.5,0,0.8c0,0.4,0,0.7,0,1.1c0,0.6,0,1.2-0.1,1.8c-0.1,0.3-0.1,0.6-0.1,0.9 c-0.1,0.5-0.2,1-0.3,1.5c-0.1,0.4-0.2,0.7-0.3,1c-0.2,0.6-0.4,1.1-0.6,1.7c-0.1,0.3-0.2,0.6-0.4,0.9c-0.2,0.3-0.4,0.7-0.6,1 c-0.2,0.3-0.3,0.5-0.6,0.8c-0.4,0.4-0.9,0.8-1.5,1c-0.6,0.3-1.3,0.4-2,0.3c-0.7-0.1-1.3-0.4-1.8-0.9c-0.1-0.1-0.2-0.2-0.3-0.3 c-0.4-0.3-0.8-0.7-1-1.2c-0.2-0.3-0.3-0.6-0.5-1C84.2,688.7,84.2,688.7,84.2,688.6z" class="st2"/></g><path d="M97,708.3c1-0.5,2.1-0.8,3.5-0.8c0.2,0,0.5,0,0.7,0c0.3,0,0.5,0,0.8,0.1c0.1,0,0.2,0,0.3,0.1 c-0.3,0.2-0.7,0.4-0.9,0.6c-0.1,0.1-0.2,0.3-0.1,0.4c0.1,0.1,0.2,0.1,0.3,0c1.2-1,2.8-1.3,4.3-1.3c0.4,0,0.8,0,1.2,0.1 c0.3,0,0.5,0.1,0.8,0.1c-0.2,0.9-0.5,1.7-0.7,2.6c-0.2,0-0.5-0.1-0.8-0.1c-1-0.1-2.1-0.2-3.1-0.3c-0.1,0-0.3,0-0.4,0 c-1.9,0-3.8,0-5.7,0.1c-0.2,0-0.5,0-0.7,0c-0.6,0-1.1,0.1-1.7,0.1c0,0,0,0,0,0C95.5,709.2,96.3,708.7,97,708.3z" class="st2"/></g><g><path d="M148.3,688.4C148.3,688.4,148.3,688.4,148.3,688.4c-0.1,0,0.2,0.5,0.4,1.5c0.2,0.7,0.2,1.2,0.3,1.6 c0.4,2.4,0.2,5.1,0.2,5.1c0,1.8-0.4,3.3-0.5,4c-0.1,0.6-0.6,3.2-2.2,6.5c-1.7,3.8-3.7,6.3-5.1,8.1c-2.3,2.8-3.9,4.2-4.6,4.7 c-1,0.8-1.9,1.3-2.5,1.7c-0.3,0.2-0.5,0.3-0.8,0.5c-4.9,3-10.4,5.8-13,7.1c-1.2,0.6-2.9,1.5-5.1,2.8c-0.2,0.1-0.4,0.2-0.5,0.3 c-0.3,0.2-0.5,0.4-0.8,0.5c-1,0.7-2.3,1.6-3.8,2.9c-2.2,2-3.6,3.9-4.7,5.5c0,0.1-0.1,0.1-0.1,0.2c-1.8,2.4-2.1,3-3,4.2 c-0.1,0.2-0.3,0.3-0.4,0.5c-0.2,0.3-0.5,0.6-0.8,0.9c-0.9,0.8-1.5,0.9-1.6,0.9c-0.1,0-0.2,0-0.3,0c-1.2,0-2.2-1-2.3-1.1 c-0.9-1-1-2.2-1-3.3c0-0.8,0-2.1,0.8-4.4c0.5-1.4,1.2-3.1,2.3-5c0.9-1.5,2.2-3.6,4.6-5.9c1.4-1.3,2.8-2.7,5.2-3.6 c2.4-1,4.5-1.1,5.7-1.1c0.2,0,0.3,0,0.5,0c0.7,0,1.3,0.1,1.8,0.2c-1.3-0.9-2.6-1.3-3.5-1.5c-0.4,0-0.8-0.1-1.1-0.1 c-2.2,0-4.4,0.7-5.1,1c-0.9,0.4-1.7,0.9-2.2,1.2c-0.3,0.2-0.5,0.4-0.8,0.5c-1.8,1.4-3,2.9-3.2,3.1c0,0,0,0,0,0.1 c0,0,0,0-0.1,0.1c-0.4,0.5-0.9,1.2-1.5,2.1c-0.4,0.6-1.9,2.7-2.8,4.5c-0.1,0.3-0.3,0.6-0.4,0.8c-0.5,1-0.8,1.9-0.9,2.2 c-0.7,1.8-0.9,4.3-1,4.8c-0.1,1.3,0.1,2.4,0.3,3.1c0.2,1,0.5,2.1,1.4,3.1c0.2,0.2,0.3,0.3,0.5,0.5c0.5,0.4,1.5,1,2.6,1 c0,0,0.1,0,0.1,0c0,0,0,0,0,0c0.6,0,1.1-0.2,1.5-0.4c0.6-0.2,1-0.5,1.4-0.8c0.2-0.2,0.3-0.3,0.5-0.5c0.2-0.2,0.5-0.5,0.7-0.7 c0,0,0-0.1,0.1-0.1c0.5-0.5,0.9-1,1.2-1.5c0.1-0.1,0.2-0.2,0.3-0.3c0.3-0.4,0.6-0.8,0.9-1.1c0,0,0.1-0.1,0.1-0.1 c0,0,0.1-0.1,0.1-0.1c1-1.3,1.8-2.5,2.5-3.2c0.1-0.1,0.1-0.2,0.2-0.3c0.2-0.2,0.4-0.4,0.5-0.7c1.1-1.3,2.2-2.5,3.2-3.3 c0.2-0.2,0.3-0.3,0.5-0.5c0.1-0.1,0.2-0.1,0.2-0.2c0.6-0.4,1.1-0.9,1.7-1.3c0,0,0,0,0,0c1.5-1.1,2.7-1.8,5.1-3.1 c0.7-0.4,1.2-0.6,1.6-0.9c0.2-0.1,0.5-0.3,0.7-0.4c0,0,0.1,0,0.1-0.1c0.7-0.3,1.4-0.7,2.7-1.4c0.2-0.1,0.5-0.3,0.9-0.4 c0.3-0.2,0.6-0.3,0.9-0.5c0,0,0.1,0,0.1-0.1c0.5-0.3,1.1-0.6,1.7-0.9c0.5-0.3,1.1-0.6,1.6-0.9c0.2-0.1,0.5-0.3,0.7-0.4 c1.4-0.8,2.5-1.4,3.4-2c0.3-0.3,0.7-0.5,1-0.7c0.2-0.1,0.3-0.2,0.5-0.3c0.5-0.3,1-0.7,1.4-1c0.1-0.1,0.3-0.2,0.4-0.3 c1.8-1.5,3-2.9,4-4c1.5-1.7,2.4-3.1,3.7-4.9c1.8-2.7,2.8-4.5,3.3-5.4c0.1-0.1,0.1-0.2,0.2-0.3c0,0,0,0,0,0 c0.3-0.7,0.6-1.2,0.8-1.6c0,0,0,0,0,0c0,0,0,0,0,0c0.2-0.4,0.4-0.9,0.6-1.5c0.1-0.3,0.3-0.9,0.4-1.6c0.2-1,0.3-2,0.3-2.8 c0-0.4,0-0.9,0-1.4c0-2.5,0-3.9-0.4-5.5c0,0,0-0.1,0-0.1c0-0.1,0-0.1,0-0.2c0-0.1-0.1-0.2-0.1-0.3c0-0.1-0.1-0.2-0.1-0.3 c-0.1-0.3-0.2-0.6-0.4-0.9c0,0,0-0.1,0-0.1c0,0,0-0.1,0-0.1c-0.5-1-1-1.8-1.5-2.4C148.3,688.5,148.3,688.4,148.3,688.4 L148.3,688.4z" class="st5"/></g><g><path d="M131,718c0-0.9-0.2-3.9-2.4-5.6c-2-1.6-4.6-1.2-6.8-0.8c-5.1,0.8-6.2,3.2-11.8,4.2c-2,0.4-5,0.9-5.8-0.4 c-0.9-1.4,0.7-4.2,2.3-5.8c2.7-2.9,5.1-2.4,9.8-4.6c4-1.9,6.6-4.4,8.6-6.2c4.6-4.3,4.2-6,8.5-9.2c2.4-1.8,5.1-3.7,8.2-3.1 c1.8,0.4,3.5,1.6,4.5,3.3c3.3,5.8-3.9,15.6-6.6,19.3C136.4,713.3,133.2,716.2,131,718z" class="st4"/><g><path d="M140,685.8L140,685.8c-3.5,0-6.2,2.3-7.7,3.5c-0.3,0.3-0.2,0.2-2.7,2.6c-0.3,0.3-3.2,3.1-4.7,4.5 c-3.4,3.2-5.1,4.8-7,6c-1,0.6-2.2,1.2-2.2,1.2c-1.6,0.8-2.7,1.2-3.4,1.5c-1.2,0.5-3,1.4-5,3c-1.1,0.8-2.7,2.2-3.8,4 c-0.6,1-0.8,1.8-0.7,2.5c0,0.2,0.1,0.8,0.6,1.3c0.2,0.3,0.6,0.6,1.7,0.9c0.8,0.2,1.5,0.2,2,0.2c0.5,0,0.8,0,0.9-0.1 c2.1-0.3,3.7-1,4-1.1c2.4-1.1,5.5-2.2,7.4-2.7c1.1-0.3,3.3-0.9,5.4-0.9c1.7,0,3.5,0.4,4.6,1.6c0.1,0.1,1,1.1,1.2,2.3 c0.2-0.4,0.8-1.7,0.3-3.3c-0.5-1.4-1.5-2.1-1.9-2.3c-0.6-0.4-1.3-0.6-2-0.7c-0.1,0-0.2,0-0.3,0c-0.1,0-0.3,0-0.4,0 c-0.1,0-0.2,0-0.3,0c-0.1,0-0.3,0-0.4,0c-0.2,0-0.5,0-0.7,0.1c-2.2,0.2-4,0.8-7.6,2.3c-0.8,0.3-1.7,0.6-2.5,0.9 c-0.6,0.2-1.1,0.5-1.7,0.6c-0.2,0.1-0.4,0.1-0.6,0.2c0,0,0,0-0.1,0c-0.7,0.2-1.4,0.5-2.1,0.8c0,0-1.3,0.5-3.1,0.5 c-0.2,0-0.5,0-0.8,0c-1-0.1-1.5-0.3-1.7-0.7c-0.2-0.4-0.1-0.9,0.1-1.2c0.8-2.1,3.2-3.7,3.2-3.7c1.6-1.1,3-1.7,4.8-2.5 c5.7-2.5,6.3-2.6,7.9-3.7c1-0.7,1.9-1.5,3.4-2.8c0.5-0.4,1.8-1.6,3.1-2.8c2.8-2.7,2.7-3.1,5.4-5.9c2.2-2.2,3.6-3.3,5.2-4 c1.3-0.6,2.3-0.9,3.1-0.9c0.3,0,0.6,0,0.9,0c0.6,0,1.3,0.1,2.1,0.3c0.3,0.1,0.7,0.3,0.8,0.3c0,0,0,0,0,0c0,0,0-0.1-0.1-0.1 c-0.1-0.1-0.2-0.2-0.3-0.2c-0.3-0.2-0.6-0.4-0.7-0.5c0,0,0,0,0,0c-0.2-0.1-0.4-0.2-0.6-0.3c0,0,0,0,0,0 C142.5,686.1,141.5,685.8,140,685.8L140,685.8z" class="st5"/></g></g></g></g></g></svg>