<svg xmlns="http://www.w3.org/2000/svg" id="Capa_1" data-name="Capa 1" viewBox="0 0 1080 1080"><defs><style>.cls-1{fill:#fff}.cls-2{fill:#5b218e}.cls-3{fill:#00ce00}</style></defs><path d="M.5-.5v1080h1080V-.5H.5ZM1043.5,1043.5H36.5V36.5h1007v1007Z" class="cls-3"/><g><g><path d="M807.6,968.76c-.58-.01-1.53.8-2.74,3.02-1.09,2.11-2.2,5.04-3.31,8.21-1.73,5.05-3.24,10.58-4.12,13.99l18.56.32c-.64-3.32-5.12-25.48-8.39-25.54Z" class="cls-1"/><path d="M894.67,873.76c-.59-.01-1.56.82-2.79,3.08-1.11,2.15-2.24,5.13-3.37,8.36-1.76,5.14-3.29,10.77-4.19,14.24l18.9.32c-.65-3.38-5.22-25.95-8.55-26Z" class="cls-1"/><path d="M617.34,952.39c-.38,0-1,.52-1.79,1.97-.71,1.38-1.43,3.29-2.16,5.36-1.13,3.3-2.11,6.9-2.69,9.13l12.11.21c-.42-2.17-3.34-16.63-5.48-16.67Z" class="cls-1"/><path d="M1037.68,987.22l2.12-3.08c2.58-3.74,3.99-8.02,4.07-12.36.08-4.1-1.35-8.5-4.37-13.45-1.06-1.73-3.23-5.03-5.88-7.6l-.15-.16c-6.83-7.21-15.68-11.51-25.59-12.43-1.09-.1-2.2-.16-3.3-.18-8.21-.14-17.7,2.71-25.37,7.63l-3.94,2.52-2.81-3.75c-3.1-4.13-7.51-6.66-12.43-7.12-.44-.04-.89-.07-1.33-.07-2.78-.05-5.64-.13-8.41-.2h-.06c-1.66-.05-3.36-.09-5.07-.13l-4.93-.12.02-4.93c.04-12.27-1.99-28.83-5.31-43.23-4.88-21.2-11.56-34.96-20.41-42.09-4.67-3.77-10.31-6.05-16.31-6.62-.77-.07-1.56-.12-2.33-.13-6.64-.11-12.8,1.62-18.31,5.15l-3.36,2.15-2.86-2.78c-3.33-3.23-7.81-5.08-12.43-5.16-4.85-.08-9.61-.31-14.66-.55-5.03-.24-10.24-.48-15.52-.57l-1.53-.03c-6.16-.12-11.62-.17-16.12.55-.14.02-.28.05-.42.07-3.51.67-6.6,2.24-9.18,4.67l-3.41,3.2-3.45-3.16c-1.07-.98-2.23-1.82-3.45-2.49l-.12-.07c-2.98-1.75-6.53-2.8-10.85-3.2-1.86-.17-3.58-.2-4.72-.22l-1.67-.03c-3.28-.06-6.38.54-9.23,1.77l-2.24.97-2.15-1.16c-2.04-1.1-4.24-1.77-6.56-1.99-.44-.04-.89-.07-1.33-.07-2.91-.05-5.94-.13-8.62-.21-2.85-.08-5.81-.16-8.73-.21-.32,0-.75-.02-1.27-.03h-.11c-2.65-.07-7.09-.19-11.57-.06-3.43.07-8.56.36-13.94,2.07-.29.09-.59.2-.92.33l-2.13.84-2.04-1.06c-1.11-.58-2.07-.96-2.85-1.27-.25-.1-.51-.19-.76-.28-2.7-.9-5.22-1.28-6.87-1.43-.7-.07-1.37-.1-1.98-.11-1.71-.03-4.89-.08-8.54.83-.29.07-.58.15-.86.24-4.41,1.4-7.96,3.6-10.56,6.53l-3.75,4.23-3.77-4.21c-3.83-4.28-9.48-6.97-15.92-7.57-.72-.07-1.44-.11-2.14-.12-2.39-.04-7.11.16-11.82,2l-2.05.8-2.18-1.06c-.44-.21-.9-.4-1.36-.56-1.96-.7-4.11-1.16-6.38-1.38-1.22-.11-2.2-.13-2.73-.14-2.78-.05-9.91.23-16.13,3.86-.33.19-.66.4-.98.62-1.35.94-2.58,2.06-3.65,3.33l-4.08,4.83-3.8-5.05c-2.43-3.23-5.36-4.78-6.61-5.44-.99-.52-2.04-.93-3.12-1.21l-.21-.06c-.69-.21-1.84-.56-3.28-.81l-.11-.02c-1.39-.27-2.84-.48-4.32-.62-.97-.09-1.88-.14-2.7-.16-4.4-.07-12.63.55-18.19,5.54-4.18,3.67-6.62,8.89-6.72,14.36-.04,1.88.13,3.69.48,5.38l.07.41c1.56,12.37,3.36,23.07,5.52,32.71l.02.08c1.97,9.51,4.9,21.74,10.14,32.04,5.87,11.54,13.77,18.87,23.49,21.76l5.02,1.5-1.69,4.96c-1.39,4.06-2.42,8-3.07,10.6-1.96,7.52-3.59,15.51-4.84,23.82-.09.62-.15,1.26-.16,1.88v.3c-.16,8.29,5.43,17.2,18.28,18.4.82.08,1.68.12,2.55.14,3.11.05,7.73-.38,12.08-2.72.26-.14.51-.29.76-.44l2.78-1.72,2.7,1.84c2.85,1.94,6.42,3.13,10.61,3.52.77.07,1.55.12,2.31.13.46,0,.93,0,1.42-.02l3.66-.14,1.26,3.44c1.91,5.22,4.53,9.98,7.79,14.13,8.23,10.49,20.37,16.98,34.18,18.27,1.43.13,2.89.21,4.35.24,7.84.13,15.18-1.54,21.82-4.96l2.92-1.51,2.56,2.06c1.27,1.02,2.64,1.89,4.08,2.58l.12.06c3.29,1.69,7.35,2.71,12.78,3.22,3.36.31,6.64.37,8.6.4,4.68.08,9.19-.06,13.55-.2,4.22-.13,8.18-.26,12.15-.19,2.04.03,4.08-.3,6.04-1.01l1.57-.56,1.6.49c1.97.61,4.11,1.02,6.36,1.23,1.06.1,2.18.16,3.34.18,3.15.05,9.25-.3,14.73-3.26.44-.24.87-.5,1.28-.78,1.5-1.02,2.82-2.19,3.92-3.45l3.88-4.47,3.79,4.55c1.23,1.48,2.72,2.8,4.42,3.91l.12.08c3.3,2.29,7.6,3.7,12.77,4.19.99.09,1.98.15,2.95.16,2.03.03,5.14-.11,8.47-1.01.41-.11.83-.24,1.24-.39,2.41-.89,4.58-2.16,6.45-3.77l2.6-2.24,3.04,1.61c7.95,4.2,15.84,5.67,21.06,6.15,1.38.13,2.75.21,4.08.23,8.09.14,16.17-1.62,23.37-5.08l3.31-1.59,2.53,2.66c2.88,3.03,6.66,4.74,10.95,4.81l42.37.73c3.11.05,7.68-.74,11.75-4.83l2.62-2.63,3.29,1.73c7.92,4.17,15.78,5.63,20.99,6.11,1.38.13,2.75.21,4.08.23,22.07.38,45.16-13.55,45.62-37.51.16-8.42-2.4-16.18-7.41-22.45l-2.34-2.92ZM564.79,889.63c-2.41-10.75-4.11-21.72-5.45-32.57-.22-.73-.32-1.69-.31-2.65.03-1.8,1.01-3.11,1.86-3.82,1.57-1.54,6.34-1.94,8.36-1.9.95.02,2.85.17,4.75.56.95.14,1.89.51,2.48.64.71.37,1.65.87,2.11,1.84.12.12.35.49.45,1.21,0,.24,0,.48.1.84-.01.72.09,1.56.07,2.53.09,1.69.17,3.49.28,4.09.6,6.26,7.91,53.29,13.74,53.39.71.01,1.93-1.29,3.54-4.87,4.38-11.71,7.13-24.77,8.9-37.13,1.06-5.51,1.87-11.15,1.98-16.8.04-1.92,1.13-3.11,1.97-3.69,2.4-1.4,5.98-1.94,8.6-1.9.83.01,2.73.05,4.51.68,2.36,1.12,3.88,2.23,3.82,5.24-.37,19.6-7.65,52.79-16.85,67.54-4.42,7.14-9.83,10.66-16.37,10.54-17.47-.3-24.4-23.75-28.54-43.78ZM637.28,990.43c-.04,2.23-1.51,3.14-2.5,3.5-1.07.29-2.22.35-2.9.34-1.45-.02-3.96-.3-5.16-1.24-.53-.32-1.13-.79-1.42-1.57-.14-.54-.21-1.16-.2-1.7l.02-1.16c-.03-2.24-.3-4.55-.56-6.79l-16.53-.28c-.59,3-1.11,6.07-1.16,9.08-.02,1-.49,1.53-1.26,2.06-1.39.75-3.37,1.02-4.97.99-2.44-.04-6.7-.5-6.64-3.81v-.31c1.14-7.54,2.65-15.14,4.54-22.36,3.21-12.82,8.14-27.54,19.42-27.35,2.06.04,4.33.69,6.28,2.27,8.71,7.01,13.28,35.15,13.04,48.33ZM645.11,930.69c-7.18-3.73-10.14-11-11-21.84-.47-6.86-.45-13.84-.32-20.81.2-10.7.76-21.51.97-32.34.03-1.56.64-2.51,1.13-3.23,1.71-2.26,6.23-2.78,8.85-2.73,3.68.06,8.88,1.72,8.8,6.28-.26,13.71-.52,27.53-.18,41.25.08,1.81.04,4.09,0,6.13.08,2.17.16,4.09.49,5.66.62,4.94,7.36,6.74,11.52,6.81,4.16.07,13.23-1.94,13.34-7.35.33-17.43.42-35.11,1.47-52.53.02-.96.27-1.8.77-2.87,1.1-1.66,3.14-2.47,4.57-2.93,1.79-.45,3.57-.42,4.76-.4.71.01,2.61.16,4.5.8.94.38,1.89.75,2.59,1.37.82.62,1.63,1.71,1.6,3.52l-1,53.02c-.07,3.97-.86,7.8-2.11,11.27-5.64,15.18-20.39,15.53-29.66,15.37-6.3-.11-15.08-.98-21.08-4.45ZM709.26,1019.04c-7.4,8.38-15.86,11.3-24.73,11.15-22.76-.39-36.09-18.1-35.68-39.83.23-12.28,5.49-24.83,13.95-33.66,6.67-6.97,16.3-9.76,24-9.63,6.54.11,14.09,2.13,19.46,8.48,1.37,1.44,3.63,5.5,4.29,7.63.33.83.66,2.02.64,3.08-.1,5.2-6.59,9.1-11.38,9.02-1.05-.02-2.91-.29-4.17-1.61-.69-.6-1.25-1.68-1.7-2.51.01-.59-.67-1.67-1.13-2.15-1.82-2.63-5.42-3.64-8.1-3.68-9.22-.16-16.45,11.53-16.7,25.11-.25,13.46,6.4,19.72,15.16,19.87,4.67.08,9.38-1.85,13.3-5.56,1.31-1.28,2.73-2.2,4.36-2.17,3.27.06,10.55,4.2,10.41,11.4-.05,2.48-1.01,3.88-1.96,5.05ZM709.81,935.41c-.95-.02-1.28-1.22-1.4-1.59-.23-.61-.22-1.21-.32-1.69-.1-.84-.08-2.05-.07-2.41l.4-21.16c.22-11.9.45-23.93.79-35.71.23-5.77.22-11.54.68-17.19,0-.24.26-1.44.51-1.8.49-.95,1.33-1.42,2.05-1.77,3.23-1.03,6.56-1.33,9.89-1.39,5.12-.15,10.46.06,12.36.09,5.71.1,11.53.32,17.35.42,3.68.06,4.4,6.45,4.34,9.33-.05,2.89-.67,10.45-4.71,10.38-7.73-.13-15.45-.14-23.18-.28-.2,4.33-.28,8.65-.36,12.98l19.14.33c3.92.07,4.52,6.33,4.46,9.22s-.91,10.57-4.95,10.5l-19.25-.33c-.08,4.21-.28,8.41-.36,12.62l25.79.44c3.8.06,4.52,5.97,4.47,8.98l-.03,1.56c-.14,1.32-.54,3.36-1.17,5.15-.37.84-.75,1.79-1.24,2.5-.49.71-1.1,1.54-2.05,1.53l-43.14-.74ZM767.47,1022.52c-.05,2.6-.76,9.2-4.38,9.14-8.64-.15-17.06.54-25.7.39-3.85-.07-11.79-.2-15.26-2.15-1.97-.86-3.23-2.3-3.18-4.54l.39-20.78c.22-11.69.44-23.5.78-35.07.22-5.55.22-11.45.67-16.88.3-3.42,3.13-4.91,6.16-4.86l1.63.03c2.45.04,6.42.11,8.61,1.56.81.37,1.84,1.33,2.16,2.99l-.08,4.13c-.35,18.42-.81,36.96-1.51,55.37l25.1.43c2.1.04,3.35,1.83,3.89,4.08.66,1.9.73,4.38.7,6.15ZM768.67,935.34c-2-.88-3.29-2.34-3.24-4.63l.4-21.16c.22-11.9.45-23.93.79-35.71.23-5.65.22-11.66.68-17.19.3-3.48,3.19-5,6.28-4.94l1.66.03c2.5.04,6.54.11,8.77,1.59.83.38,1.88,1.36,2.2,3.04l-.08,4.21c-.35,18.76-.83,37.63-1.54,56.38l25.55.44c2.14.04,3.41,1.86,3.96,4.16.68,1.94.75,4.46.71,6.27-.05,2.64-.77,9.37-4.46,9.3-8.8-.15-17.37.54-26.16.39-3.92-.07-12-.21-15.53-2.19ZM838.14,1027.04c-.06,3.42-2.31,4.8-3.84,5.37-1.64.44-3.4.53-4.45.51-2.22-.04-6.06-.46-7.9-1.91-.81-.49-1.73-1.21-2.17-2.4-.22-.83-.32-1.78-.3-2.6l.03-1.77c-.05-3.43-.45-6.98-.85-10.41l-25.33-.43c-.9,4.59-1.69,9.3-1.78,13.91-.03,1.54-.74,2.35-1.93,3.16-2.12,1.15-5.17,1.57-7.62,1.52-3.74-.06-10.26-.77-10.17-5.84v-.47c1.74-11.55,4.07-23.2,6.96-34.25,4.92-19.64,12.47-42.19,29.75-41.9,3.15.05,6.64,1.06,9.63,3.47,13.34,10.74,20.35,53.86,19.97,74.05ZM842.02,935.75c-.85.83-1.93,1.29-2.88,1.51-1.91.57-4.17.65-5.12.63-.83-.01-2.85-.17-4.74-.68-2.48-.88-4.35-2.48-4.3-5.37.37-19.72.74-39.44,1.35-59.15l-12.84-.22c-3.92-.07-4.86-7.3-4.8-10.43.07-3.61,1.23-8.64,4.69-9.3,4.05-.65,10.95-.41,15.11-.34,10.1.17,20.08.95,30.18,1.12,4.4.07,4.99,6.34,4.93,9.71-.06,3.25-1.26,10.08-5.18,10.01l-12.96-.22c-.73,19.71-1.34,39.3-1.71,59.02-.04,1.92-.89,2.99-1.73,3.7ZM876.79,1033.49c-10.04-.17-27.12-4.72-32.54-20.4-.22-.59-.44-1.43-.42-2.37.04-2.01.88-3.41,1.84-4.57,1.68-2.33,7.22-4.96,10.02-4.91,1.17.02,2.21.51,2.66,1.58,2.25,4.29,4.06,7.51,7.41,9.46,3.23,2.18,7.66,2.49,11.51,2.56,3.15.05,6.9-.35,9.5-2.44.71-.7.96-1.4.97-2.11.02-1.18-.65-2.49-2.73-3.94-4.15-2.79-11.71-4.33-16.6-5.25-2.56-.52-5-1.03-6.27-1.64-5.9-2.7-13.36-9.8-13.14-21.25.39-20.55,20.15-28.12,30.07-27.95,6.65.11,13.5,2.48,18.99,8.48,2.07,1.81,6.16,7.9,6.11,10.62-.12,6.38-8.25,10.02-10.7,9.97-.47,0-.82-.01-1.28-.14-.93-.37-1.5-.73-2.3-1.81-3.41-5.02-8.14-8.17-13.16-8.26-4.2-.07-8.46,2.57-8.57,8.59-.02,1.18.42,2.37,1.22,3.33,1.6,1.68,5.66,3.17,10.3,4.66,4.53,1.38,9.3,2.4,11.85,3.27,9.63,3.47,16.39,10.32,16.18,21.18-.3,15.82-17.26,23.56-30.92,23.33ZM907.08,934.7c-.22-.85-.32-1.81-.31-2.65l.03-1.8c-.05-3.49-.46-7.1-.87-10.6l-25.79-.44c-.92,4.67-1.72,9.47-1.81,14.16-.03,1.56-.76,2.39-1.96,3.21-2.16,1.17-5.26,1.59-7.76,1.55-3.8-.06-10.45-.78-10.35-5.95v-.48c1.78-11.76,4.14-23.62,7.09-34.88,5.01-20,12.7-42.96,30.29-42.66,3.21.06,6.76,1.08,9.8,3.54,13.59,10.94,20.72,54.84,20.34,75.4-.07,3.49-2.35,4.89-3.91,5.47-1.67.45-3.46.54-4.53.52-2.26-.04-6.17-.47-8.05-1.94-.82-.5-1.76-1.23-2.21-2.44ZM963.73,1024.47l-.03,1.53c-.14,1.3-.53,3.3-1.15,5.06-.37.82-.73,1.76-1.21,2.46-.48.7-1.08,1.52-2.01,1.5l-42.37-.73c-.93-.02-1.26-1.2-1.37-1.56-.22-.59-.21-1.18-.32-1.66-.1-.83-.08-2.01-.07-2.36l.39-20.78c.22-11.69.44-23.5.78-35.07.22-5.67.21-11.34.67-16.88,0-.24.26-1.41.5-1.76.48-.94,1.31-1.4,2.02-1.74,3.17-1.01,6.45-1.31,9.72-1.37,5.02-.15,10.27.06,12.14.09,5.6.1,11.32.31,17.04.41,3.62.06,4.32,6.33,4.26,9.17-.05,2.83-.66,10.26-4.63,10.2-7.59-.13-15.18-.14-22.76-.27-.2,4.25-.28,8.5-.36,12.75l18.79.32c3.85.07,4.44,6.22,4.38,9.05-.05,2.83-.9,10.38-4.87,10.31l-18.91-.32c-.08,4.13-.27,8.26-.35,12.4l25.33.43c3.74.06,4.44,5.86,4.39,8.82ZM1002.05,1035.64c-10.04-.17-27.12-4.72-32.54-20.4-.22-.59-.44-1.42-.42-2.37.04-2.01.88-3.41,1.84-4.58,1.68-2.33,7.22-4.96,10.02-4.91,1.17.02,2.21.51,2.66,1.58,2.25,4.29,4.06,7.51,7.41,9.46,3.23,2.18,7.66,2.49,11.51,2.56,3.15.05,6.9-.35,9.5-2.44.71-.7.96-1.4.97-2.11.02-1.18-.65-2.49-2.73-3.94-4.15-2.79-11.71-4.33-16.6-5.25-2.56-.52-5-1.03-6.27-1.64-5.9-2.7-13.36-9.8-13.14-21.25.39-20.55,20.15-28.12,30.07-27.95,6.65.11,13.5,2.48,18.99,8.47,2.07,1.81,6.16,7.9,6.11,10.62-.12,6.38-8.25,10.02-10.7,9.97-.47,0-.82-.01-1.28-.14-.93-.37-1.5-.73-2.3-1.81-3.41-5.02-8.14-8.17-13.16-8.26-4.2-.07-8.46,2.57-8.57,8.59-.02,1.18.42,2.37,1.22,3.33,1.6,1.68,5.66,3.17,10.3,4.66,4.53,1.38,9.3,2.4,11.85,3.27,9.63,3.47,16.39,10.32,16.18,21.18-.3,15.82-17.26,23.56-30.92,23.33Z" class="cls-1"/><path d="M1053.94,971.96c.12-6.08-1.8-12.25-5.84-18.89-1.59-2.6-4.15-6.35-7.4-9.51-8.52-8.96-19.55-14.3-31.89-15.46-1.34-.13-2.71-.2-4.06-.22-8.94-.15-18.65,2.37-27.23,7.01-4.52-4.41-10.26-7.09-16.55-7.68-.7-.07-1.4-.1-2.1-.12-2.73-.05-5.56-.12-8.3-.2h-.06c-.09,0-.18,0-.26,0-.4-12.33-2.38-27.12-5.49-40.6-5.41-23.48-13.23-39.08-23.9-47.67-6.21-5.01-13.71-8.05-21.69-8.8-1.02-.1-2.07-.15-3.1-.17-7.39-.13-14.32,1.5-20.67,4.85-4.7-3.44-10.44-5.38-16.29-5.48-4.69-.08-9.39-.3-14.36-.54-5.11-.24-10.39-.49-15.81-.58l-1.52-.03c-6.65-.13-12.59-.18-17.91.68-.24.04-.48.08-.72.13-3.89.75-7.55,2.27-10.77,4.48-.62-.41-1.25-.8-1.89-1.15-4.26-2.49-9.16-3.97-14.96-4.51-2.24-.21-4.2-.24-5.5-.27l-1.66-.03c-3.89-.07-7.64.51-11.17,1.73-2.61-1.13-5.38-1.84-8.24-2.1-.7-.07-1.4-.1-2.1-.12-2.85-.05-5.86-.13-8.52-.2-2.88-.08-5.86-.16-8.83-.21-.3,0-.7-.02-1.18-.03h-.11c-2.76-.07-7.37-.2-12.08-.06-3.89.08-9.75.41-16.15,2.36-.69-.3-1.28-.54-1.75-.73-.43-.17-.86-.33-1.3-.48-3.61-1.21-6.96-1.71-9.13-1.91-.95-.09-1.88-.14-2.74-.16-2.02-.03-6.22-.11-11.17,1.14-.48.12-.97.26-1.45.41-4.32,1.37-8.1,3.34-11.29,5.88-5.14-4.1-11.62-6.67-18.72-7.33-.97-.09-1.95-.15-2.91-.16-2.8-.05-8.05.17-13.63,1.97-.19-.07-.37-.14-.56-.21-2.75-.98-5.72-1.63-8.83-1.92-1.6-.15-2.88-.17-3.5-.18-3.62-.06-12.95.32-21.37,5.23-.56.33-1.12.68-1.66,1.06-.54.37-1.06.76-1.57,1.17-2.59-2.28-4.98-3.54-6.11-4.14-1.64-.87-3.38-1.55-5.18-2.02-.82-.25-2.4-.72-4.36-1.07-1.7-.33-3.48-.59-5.27-.75-1.23-.12-2.39-.18-3.47-.2-5.88-.1-16.96.82-25.05,8.07-6.26,5.5-9.95,13.41-10.11,21.71-.05,2.56.17,5.06.65,7.43,1.59,12.59,3.44,23.53,5.65,33.42,2.1,10.12,5.24,23.17,11.01,34.52,6.22,12.24,14.54,20.66,24.77,25.1-.77,2.6-1.37,4.92-1.81,6.66-2.04,7.81-3.74,16.17-5.04,24.82-.16,1.06-.25,2.13-.27,3.19v.3c-.24,12.53,8.24,26.83,27.41,28.62,1.08.1,2.2.16,3.32.18,3.96.07,9.74-.45,15.52-3.16,3.69,1.95,7.93,3.16,12.65,3.6.47.04.95.08,1.42.11,2.12,4.95,4.81,9.52,8.03,13.62,9.95,12.69,24.57,20.53,41.16,22.08,1.68.16,3.4.25,5.12.28,8.44.14,16.42-1.44,23.78-4.73,1.08.7,2.2,1.33,3.35,1.88,4.45,2.27,9.66,3.62,16.38,4.25,3.74.35,7.26.41,9.37.45,4.93.08,9.56-.06,14.05-.2,4.08-.13,7.93-.25,11.65-.18,2.71.05,5.39-.32,8.01-1.08,3.38.88,6.97,1.34,10.9,1.4,4.13.07,12.18-.42,19.68-4.46.74-.4,1.47-.84,2.17-1.32.68-.47,1.34-.95,1.97-1.46.88.73,1.81,1.42,2.78,2.06,4.73,3.28,10.63,5.26,17.53,5.91,1.25.12,2.5.19,3.71.21,2.67.05,6.8-.15,11.27-1.36.7-.19,1.4-.41,2.1-.67,2.44-.9,4.73-2.08,6.82-3.5,8.38,3.88,16.41,5.32,21.91,5.83,1.63.15,3.26.24,4.84.27,8.5.15,17-1.46,24.77-4.67,4.34,3.43,9.7,5.39,15.38,5.48l42.37.73c3.6.06,10.1-.62,16.28-5.35,8.27,3.77,16.18,5.18,21.6,5.69,1.63.15,3.26.24,4.85.27,27.01.46,55.29-17.14,55.86-47.39h0c.18-9.55-2.4-18.48-7.49-26.03,2.49-4.59,3.84-9.64,3.93-14.77ZM1001.8,1050.09c-1.33-.02-2.7-.1-4.08-.23-5.2-.49-13.06-1.94-20.99-6.11l-3.29-1.73-2.62,2.63c-4.07,4.09-8.64,4.88-11.75,4.83l-42.37-.73c-4.29-.08-8.08-1.78-10.95-4.81l-2.53-2.66-3.31,1.59c-7.19,3.46-15.27,5.21-23.37,5.08-1.33-.02-2.7-.1-4.08-.23-5.22-.49-13.12-1.95-21.06-6.15l-3.04-1.61-2.6,2.24c-1.87,1.61-4.04,2.88-6.45,3.77-.41.15-.82.28-1.24.39-3.33.9-6.44,1.05-8.47,1.01-.96-.02-1.95-.07-2.95-.16-5.18-.48-9.47-1.89-12.77-4.19l-.12-.08c-1.7-1.11-3.18-2.43-4.42-3.91l-3.79-4.55-3.88,4.47c-1.1,1.27-2.42,2.43-3.92,3.45-.41.28-.85.54-1.28.78-5.48,2.96-11.58,3.31-14.73,3.26-1.15-.02-2.28-.08-3.34-.18-2.24-.21-4.38-.62-6.36-1.23l-1.6-.49-1.57.56c-1.96.7-4,1.04-6.04,1.01-3.96-.07-7.93.06-12.15.19-4.36.14-8.87.28-13.55.2-1.96-.03-5.24-.09-8.6-.4-5.43-.51-9.49-1.53-12.78-3.22l-.12-.06c-1.44-.69-2.81-1.56-4.08-2.58l-2.56-2.06-2.92,1.51c-6.63,3.43-13.97,5.1-21.82,4.96-1.46-.03-2.92-.11-4.35-.24-13.81-1.29-25.95-7.78-34.18-18.27-3.26-4.15-5.88-8.9-7.79-14.13l-1.26-3.44-3.66.14c-.49.02-.96.02-1.42.02-.76-.01-1.54-.06-2.31-.13-4.19-.39-7.76-1.58-10.61-3.52l-2.7-1.84-2.78,1.72c-.25.15-.5.3-.76.44-4.35,2.35-8.97,2.78-12.08,2.72-.87-.01-1.73-.06-2.55-.14-12.85-1.2-18.44-10.11-18.28-18.4v-.3c.02-.63.07-1.26.16-1.88,1.25-8.31,2.87-16.3,4.84-23.82.65-2.61,1.68-6.54,3.07-10.6l1.69-4.96-5.02-1.5c-9.72-2.89-17.62-10.22-23.49-21.76-5.24-10.3-8.17-22.54-10.14-32.04l-.02-.08c-2.16-9.64-3.96-20.34-5.52-32.71l-.07-.41c-.35-1.69-.52-3.5-.48-5.38.1-5.47,2.54-10.69,6.72-14.36,5.56-4.99,13.79-5.61,18.19-5.54.82.01,1.73.07,2.7.16,1.48.14,2.93.35,4.32.62l.11.02c1.44.25,2.59.6,3.28.81l.21.06c1.08.28,2.13.69,3.12,1.21,1.25.66,4.18,2.21,6.61,5.44l3.8,5.05,4.08-4.83c1.07-1.27,2.3-2.39,3.65-3.33.32-.22.65-.43.98-.62,6.22-3.63,13.35-3.91,16.13-3.86.53,0,1.5.03,2.73.14,2.27.21,4.42.68,6.38,1.38.46.16.92.35,1.36.56l2.18,1.06,2.05-.8c4.71-1.84,9.43-2.04,11.82-2,.7.01,1.43.05,2.14.12,6.43.6,12.09,3.29,15.92,7.57l3.77,4.21,3.75-4.23c2.6-2.93,6.15-5.13,10.56-6.53.28-.09.57-.17.86-.24,3.65-.92,6.83-.86,8.54-.83.61.01,1.28.05,1.98.11,1.64.15,4.17.53,6.87,1.43.26.09.51.18.76.28.78.31,1.74.7,2.85,1.27l2.04,1.06,2.13-.84c.33-.13.63-.24.92-.33,5.39-1.71,10.51-2,13.94-2.07,4.47-.13,8.91-.01,11.57.06h.11c.52.02.95.03,1.27.03,2.92.05,5.88.13,8.73.21,2.68.07,5.72.16,8.62.21.44,0,.89.03,1.33.07,2.31.22,4.52.89,6.56,1.99l2.15,1.16,2.24-.97c2.84-1.23,5.95-1.82,9.23-1.77l1.67.03c1.14.02,2.86.05,4.72.22,4.33.4,7.88,1.45,10.85,3.2l.12.07c1.22.67,2.38,1.51,3.45,2.49l3.45,3.16,3.41-3.2c2.58-2.42,5.67-3.99,9.18-4.67.14-.03.28-.05.42-.07,4.49-.72,9.96-.68,16.12-.55l1.53.03c5.28.09,10.49.34,15.52.57,5.05.24,9.81.46,14.66.55,4.62.08,9.1,1.93,12.43,5.16l2.86,2.78,3.36-2.15c5.5-3.53,11.66-5.26,18.31-5.15.77.01,1.56.06,2.33.13,6,.56,11.64,2.85,16.31,6.62,8.85,7.13,15.53,20.89,20.41,42.09,3.32,14.4,5.35,30.97,5.31,43.23l-.02,4.93,4.93.12c1.7.04,3.4.09,5.07.13h.06c2.76.08,5.62.16,8.41.2.44,0,.89.03,1.33.07,4.92.46,9.34,2.99,12.43,7.12l2.81,3.75,3.94-2.52c7.67-4.92,17.16-7.77,25.37-7.63,1.1.02,2.21.08,3.3.18,9.91.93,18.76,5.23,25.59,12.43l.15.16c2.65,2.56,4.83,5.86,5.88,7.6,3.02,4.95,4.45,9.35,4.37,13.45-.08,4.34-1.49,8.62-4.07,12.36l-2.12,3.08,2.34,2.92c5,6.26,7.57,14.02,7.41,22.45-.45,23.96-23.55,37.89-45.62,37.51Z" class="cls-3"/><path d="M609.69,922.87c9.2-14.76,16.48-47.95,16.85-67.54.06-3.01-1.47-4.11-3.82-5.24-1.77-.63-3.67-.66-4.51-.68-2.61-.04-6.19.5-8.6,1.9-.84.59-1.94,1.77-1.97,3.69-.11,5.65-.93,11.29-1.98,16.8-1.78,12.36-4.52,25.42-8.9,37.13-1.61,3.58-2.83,4.88-3.54,4.87-5.82-.1-13.14-47.13-13.74-53.39-.11-.6-.19-2.41-.28-4.09.02-.96-.08-1.81-.07-2.53-.11-.36-.11-.6-.1-.84-.11-.72-.34-1.09-.45-1.21-.46-.97-1.4-1.47-2.11-1.84-.59-.13-1.54-.51-2.48-.64-1.9-.39-3.79-.55-4.75-.56-2.02-.03-6.78.36-8.36,1.9-.85.71-1.82,2.01-1.86,3.82-.02.96.08,1.93.31,2.65,1.34,10.85,3.04,21.82,5.45,32.57,4.14,20.04,11.07,43.49,28.54,43.78,6.54.11,11.95-3.4,16.37-10.54Z" class="cls-2"/><path d="M695.84,919.77c1.25-3.47,2.04-7.3,2.11-11.27l1-53.02c.03-1.8-.78-2.9-1.6-3.52-.7-.61-1.65-.99-2.59-1.37-1.89-.63-3.79-.79-4.5-.8-1.19-.02-2.97-.05-4.76.4-1.44.46-3.47,1.26-4.57,2.93-.5,1.07-.75,1.91-.77,2.87-1.04,17.42-1.14,35.1-1.47,52.53-.1,5.41-9.18,7.42-13.34,7.35-4.16-.07-10.9-1.87-11.52-6.81-.33-1.57-.41-3.49-.49-5.66.04-2.04.08-4.33,0-6.13-.34-13.72-.07-27.54.18-41.25.09-4.57-5.11-6.22-8.8-6.28-2.62-.04-7.14.48-8.85,2.73-.49.71-1.1,1.67-1.13,3.23-.2,10.82-.76,21.64-.97,32.34-.13,6.97-.14,13.95.32,20.81.87,10.84,3.82,18.11,11,21.84,6,3.47,14.78,4.34,21.08,4.45,9.27.16,24.02-.19,29.66-15.37Z" class="cls-2"/><path d="M755.01,934.62c.49-.71.86-1.67,1.24-2.5.63-1.79,1.02-3.83,1.17-5.15l.03-1.56c.06-3.01-.66-8.91-4.47-8.98l-25.79-.44c.08-4.21.28-8.41.36-12.62l19.25.33c4.04.07,4.9-7.61,4.95-10.5s-.54-9.15-4.46-9.22l-19.14-.33c.08-4.33.16-8.66.36-12.98,7.73.13,15.45.14,23.18.28,4.04.07,4.66-7.5,4.71-10.38.05-2.89-.66-9.27-4.34-9.33-5.82-.1-11.65-.32-17.35-.42-1.9-.03-7.25-.24-12.36-.09-3.33.06-6.67.37-9.89,1.39-.72.35-1.56.82-2.05,1.77-.24.36-.51,1.55-.51,1.8-.46,5.64-.45,11.42-.68,17.19-.34,11.78-.57,23.8-.79,35.71l-.4,21.16c0,.36-.03,1.56.07,2.41.11.48.1,1.08.32,1.69.11.36.45,1.57,1.4,1.59l43.14.74c.95.02,1.56-.81,2.05-1.53Z" class="cls-2"/><path d="M810.36,937.13c3.68.06,4.41-6.66,4.46-9.3.03-1.8-.04-4.33-.71-6.27-.55-2.29-1.82-4.12-3.96-4.16l-25.55-.44c.71-18.75,1.19-37.62,1.54-56.38l.08-4.21c-.32-1.69-1.38-2.67-2.2-3.04-2.23-1.48-6.27-1.55-8.77-1.59l-1.66-.03c-3.09-.05-5.97,1.46-6.28,4.94-.46,5.52-.46,11.54-.68,17.19-.34,11.78-.57,23.8-.79,35.71l-.4,21.16c-.04,2.28,1.24,3.75,3.24,4.63,3.53,1.98,11.61,2.12,15.53,2.19,8.8.15,17.37-.54,26.16-.39Z" class="cls-2"/><path d="M858.42,873.25c3.92.07,5.12-6.77,5.18-10.01.06-3.37-.53-9.63-4.93-9.71-10.1-.17-20.08-.95-30.18-1.12-4.16-.07-11.05-.31-15.11.34-3.46.66-4.63,5.69-4.69,9.3-.06,3.13.87,10.36,4.8,10.43l12.84.22c-.61,19.71-.98,39.43-1.35,59.15-.05,2.89,1.82,4.48,4.3,5.37,1.89.51,3.91.67,4.74.68.95.02,3.21-.07,5.12-.63.96-.22,2.03-.69,2.88-1.51.85-.71,1.7-1.78,1.73-3.7.37-19.72.98-39.31,1.71-59.02l12.96.22Z" class="cls-2"/><path d="M921.87,938.56c1.56-.57,3.84-1.98,3.91-5.47.39-20.56-6.75-64.46-20.34-75.4-3.04-2.46-6.59-3.48-9.8-3.54-17.59-.3-25.28,22.66-30.29,42.66-2.95,11.25-5.31,23.12-7.08,34.88v.48c-.11,5.17,6.54,5.89,10.34,5.95,2.5.04,5.6-.39,7.76-1.55,1.2-.82,1.93-1.65,1.96-3.21.09-4.69.89-9.49,1.81-14.16l25.79.44c.41,3.49.82,7.11.87,10.6l-.03,1.8c-.02.84.08,1.81.31,2.65.45,1.21,1.39,1.95,2.21,2.44,1.87,1.48,5.79,1.9,8.05,1.94,1.07.02,2.85-.07,4.53-.52ZM884.32,899.44c.9-3.47,2.43-9.1,4.19-14.24,1.13-3.23,2.26-6.22,3.37-8.36,1.23-2.26,2.2-3.09,2.79-3.08,3.33.06,7.9,22.63,8.55,26l-18.9-.32Z" class="cls-2"/><path d="M700.81,1002.6c-1.63-.03-3.05.89-4.36,2.17-3.92,3.71-8.63,5.64-13.3,5.56-8.76-.15-15.41-6.41-15.16-19.87.26-13.58,7.48-25.27,16.7-25.11,2.68.05,6.29,1.05,8.1,3.68.46.48,1.14,1.55,1.13,2.15.45.83,1.01,1.91,1.7,2.51,1.26,1.32,3.12,1.59,4.17,1.61,4.79.08,11.28-3.82,11.38-9.02.02-1.06-.31-2.25-.64-3.08-.66-2.14-2.92-6.19-4.29-7.63-5.37-6.35-12.92-8.37-19.46-8.48-7.7-.13-17.33,2.66-24,9.63-8.46,8.83-13.71,21.38-13.95,33.66-.41,21.73,12.92,39.44,35.68,39.83,8.87.15,17.33-2.77,24.73-11.15.96-1.16,1.92-2.57,1.96-5.05.14-7.2-7.14-11.34-10.41-11.4Z" class="cls-2"/><path d="M762.88,1012.28l-25.1-.43c.7-18.41,1.16-36.95,1.51-55.37l.08-4.13c-.32-1.66-1.35-2.62-2.16-2.99-2.19-1.46-6.16-1.52-8.61-1.56l-1.63-.03c-3.03-.05-5.87,1.44-6.16,4.86-.45,5.43-.45,11.33-.67,16.88-.33,11.57-.56,23.38-.78,35.07l-.39,20.78c-.04,2.24,1.22,3.68,3.18,4.54,3.47,1.95,11.4,2.09,15.26,2.15,8.64.15,17.06-.54,25.7-.39,3.62.06,4.33-6.54,4.38-9.14.03-1.77-.04-4.25-.7-6.15-.54-2.25-1.79-4.05-3.89-4.08Z" class="cls-2"/><path d="M818.17,952.99c-2.99-2.41-6.47-3.42-9.63-3.47-17.28-.3-24.82,22.25-29.75,41.9-2.89,11.05-5.22,22.71-6.95,34.25v.47c-.1,5.08,6.42,5.78,10.16,5.84,2.45.04,5.5-.38,7.62-1.52,1.18-.81,1.9-1.62,1.93-3.16.09-4.61.88-9.32,1.78-13.91l25.33.43c.4,3.43.8,6.98.85,10.41l-.03,1.77c-.02.83.08,1.77.3,2.6.44,1.19,1.37,1.91,2.17,2.4,1.84,1.45,5.69,1.87,7.9,1.91,1.05.02,2.8-.07,4.45-.51,1.53-.56,3.77-1.94,3.84-5.37.38-20.19-6.63-63.31-19.97-74.05ZM797.43,993.98c.88-3.41,2.39-8.94,4.12-13.99,1.11-3.17,2.22-6.1,3.31-8.21,1.21-2.22,2.16-3.03,2.74-3.02,3.27.06,7.75,22.22,8.39,25.54l-18.56-.32Z" class="cls-2"/><path d="M891.53,988.98c-2.55-.87-7.32-1.9-11.85-3.27-4.64-1.5-8.7-2.98-10.3-4.66-.8-.96-1.24-2.15-1.22-3.33.11-6.02,4.37-8.67,8.57-8.59,5.02.09,9.75,3.24,13.16,8.26.8,1.08,1.37,1.44,2.3,1.81.46.13.81.13,1.28.14,2.45.04,10.58-3.6,10.7-9.97.05-2.72-4.04-8.81-6.11-10.62-5.49-6-12.34-8.36-18.99-8.48-9.92-.17-29.68,7.41-30.07,27.95-.22,11.45,7.24,18.55,13.14,21.25,1.27.61,3.72,1.13,6.27,1.64,4.89.91,12.45,2.46,16.6,5.25,2.07,1.45,2.75,2.76,2.73,3.94-.01.71-.26,1.41-.97,2.11-2.61,2.08-6.35,2.49-9.5,2.44-3.85-.07-8.28-.38-11.51-2.56-3.35-1.95-5.16-5.17-7.41-9.46-.45-1.07-1.49-1.56-2.66-1.58-2.8-.05-8.34,2.57-10.02,4.91-.96,1.16-1.8,2.57-1.84,4.57-.02.94.2,1.78.42,2.37,5.43,15.68,22.51,20.23,32.54,20.4,13.66.23,30.62-7.51,30.92-23.33.2-10.86-6.56-17.71-16.18-21.18Z" class="cls-2"/><path d="M959.34,1015.66l-25.33-.43c.08-4.13.27-8.26.35-12.4l18.91.32c3.97.07,4.81-7.48,4.87-10.31.05-2.83-.53-8.99-4.38-9.05l-18.79-.32c.08-4.25.16-8.5.36-12.75,7.59.13,15.18.14,22.76.27,3.97.07,4.58-7.36,4.63-10.2.05-2.83-.65-9.11-4.26-9.17-5.72-.1-11.44-.31-17.04-.41-1.87-.03-7.12-.24-12.14-.09-3.27.06-6.55.36-9.72,1.37-.71.34-1.53.8-2.02,1.74-.24.35-.5,1.53-.5,1.76-.45,5.54-.44,11.21-.67,16.88-.33,11.57-.56,23.38-.78,35.07l-.39,20.78c0,.35-.03,1.53.07,2.36.11.47.1,1.06.32,1.66.11.36.44,1.54,1.37,1.56l42.37.73c.93.02,1.53-.8,2.01-1.5.48-.7.85-1.64,1.21-2.46.62-1.76,1.01-3.76,1.15-5.06l.03-1.53c.06-2.95-.65-8.75-4.39-8.82Z" class="cls-2"/><path d="M1016.79,991.13c-2.55-.87-7.32-1.9-11.85-3.27-4.64-1.5-8.7-2.98-10.3-4.66-.8-.96-1.24-2.15-1.22-3.33.11-6.02,4.37-8.67,8.57-8.59,5.02.09,9.75,3.24,13.16,8.26.8,1.08,1.37,1.44,2.3,1.81.46.13.81.13,1.28.14,2.45.04,10.58-3.6,10.7-9.97.05-2.72-4.04-8.81-6.11-10.62-5.49-6-12.34-8.36-18.99-8.47-9.92-.17-29.68,7.41-30.07,27.95-.22,11.45,7.24,18.55,13.14,21.25,1.27.61,3.72,1.13,6.27,1.64,4.89.91,12.45,2.46,16.6,5.25,2.07,1.45,2.75,2.76,2.73,3.94-.01.71-.26,1.41-.97,2.11-2.61,2.08-6.35,2.49-9.5,2.44-3.85-.07-8.28-.38-11.51-2.56-3.35-1.95-5.16-5.17-7.41-9.46-.45-1.07-1.49-1.56-2.66-1.58-2.8-.05-8.34,2.57-10.02,4.91-.96,1.16-1.8,2.57-1.84,4.58-.02.94.2,1.78.42,2.37,5.43,15.68,22.51,20.23,32.54,20.4,13.66.23,30.62-7.51,30.92-23.33.2-10.86-6.56-17.71-16.18-21.18Z" class="cls-2"/><path d="M624.24,942.1c-1.95-1.57-4.23-2.23-6.28-2.27-11.28-.19-16.2,14.53-19.42,27.35-1.89,7.21-3.4,14.82-4.54,22.36v.31c-.07,3.31,4.19,3.77,6.63,3.81,1.6.03,3.59-.25,4.97-.99.77-.53,1.24-1.06,1.26-2.06.06-3.01.57-6.08,1.16-9.08l16.53.28c.26,2.24.52,4.56.56,6.79l-.02,1.16c-.01.54.05,1.16.2,1.7.29.78.89,1.25,1.42,1.57,1.2.95,3.71,1.22,5.16,1.24.69.01,1.83-.05,2.9-.34,1-.37,2.46-1.27,2.5-3.5.25-13.18-4.33-41.32-13.04-48.33ZM610.71,968.85c.58-2.23,1.56-5.83,2.69-9.13.73-2.07,1.45-3.98,2.16-5.36.79-1.45,1.41-1.98,1.79-1.97,2.13.04,5.06,14.5,5.48,16.67l-12.11-.21Z" class="cls-2"/></g><g><path d="M1007.47,919.47c-1.81-.17-3.22-1.71-3.18-3.56.06-3.12-.03-6.16-.28-9.04-.16-1.93,1.27-3.63,3.2-3.8,1.93-.17,3.63,1.27,3.8,3.2.26,3.12.36,6.41.3,9.77-.04,1.94-1.64,3.48-3.58,3.44-.09,0-.18,0-.26-.01ZM1005.5,899.41c-1.45-.14-2.73-1.18-3.09-2.68-.82-3.41-1.92-6.63-3.27-9.55-.81-1.76-.04-3.85,1.72-4.66,1.76-.81,3.85-.04,4.66,1.72,1.54,3.34,2.79,6.99,3.72,10.85.45,1.89-.71,3.78-2.59,4.24-.39.09-.77.12-1.15.08ZM996.38,880.02c-.92-.09-1.8-.53-2.42-1.31-2.06-2.58-4.44-4.88-7.09-6.83-1.56-1.15-1.89-3.35-.74-4.91,1.15-1.56,3.35-1.89,4.91-.74,3.14,2.32,5.98,5.04,8.42,8.11,1.21,1.52.96,3.73-.56,4.94-.74.59-1.64.83-2.52.75ZM979.22,867.3c-.34-.03-.68-.11-1.01-.25-2.98-1.22-6.23-2.17-9.67-2.83-1.91-.36-3.16-2.2-2.79-4.11.36-1.91,2.21-3.16,4.11-2.79,3.9.74,7.61,1.83,11.02,3.23,1.79.74,2.65,2.79,1.92,4.58-.6,1.46-2.08,2.3-3.58,2.16ZM947.34,863.46c-1.65-.15-3.01-1.47-3.17-3.18-.17-1.93,1.25-3.64,3.19-3.81,3.87-.34,7.64-.46,11.22-.35,1.93.06,3.46,1.68,3.4,3.62s-1.68,3.46-3.62,3.4c-3.3-.1-6.79,0-10.37.32-.22.02-.43.02-.64,0Z" class="cls-2"/><polygon points="996.42 901.06 1007.89 913.86 1020.67 902.38 1020.12 912.68 1007.33 924.15 995.86 911.36 996.42 901.06" class="cls-2"/></g></g></svg>