<svg xmlns="http://www.w3.org/2000/svg" xmlns:xlink="http://www.w3.org/1999/xlink" id="Capa_1" data-name="Capa 1" viewBox="0 0 1080 1080"><defs><style>.cls-1{stroke:#0bcc01;stroke-miterlimit:10;stroke-width:13px}.cls-1,.cls-2{fill:none}.cls-3{fill:#fff}.cls-4{fill:#1e1e1e}.cls-5{fill:#0bcc01}.cls-6{fill:#00ce00}.cls-7{clip-path:url(#clippath)}</style><clipPath id="clippath"><rect width="1080" height="1080" x="0" y="0" class="cls-2"/></clipPath></defs><g class="cls-7"><g><path d="M0,0v1080h1080V0H0ZM1036.6,975.3c0,39-31.6,70.7-70.7,70.7H114.1c-39,0-70.7-31.6-70.7-70.7V104.7c0-39,31.6-70.7,70.7-70.7h851.8c39,0,70.7,31.6,70.7,70.7v870.6Z" class="cls-4"/><rect width="993.1" height="1011.9" x="43.4" y="34" class="cls-1" rx="70.7" ry="70.7"/><g><g><path d="M505.8,992.3c2.5-.2,4.5-1.5,5.6-3.7,1.4-3.1.9-7.4-1.2-10.3-1.7-2.3-4.2-3.4-6.9-3.1-4.2.5-5.8,4.7-5.4,8.6.4,4.3,3.1,8.6,7.5,8.6.1,0,.3,0,.4,0ZM507.1,986.1c-.2.7-.6,1.1-1.1,1.3-2.3.6-3.2-2.8-3.3-3.2-.5-1.9-.1-3.9.7-4.1h0c.9-.2,1.7,0,2.4.7,1.2,1.2,1.8,3.7,1.3,5.3Z" class="cls-4"/><path d="M635.1,1027c-7.4-7.3-16.6-7-25.9.8,9.1-13.8,10.6-30.6,3.8-46-7.4-16.7-23.3-27.7-41.6-28.7l-1.5-5.8-8.6-1.1c-2.3-8.3-8.5-16.9-18-19.2.7-.6,1.2-1.6,1.3-1.9.9-3.1,1.1-6.4,1.3-9.6,0-1.6.2-3.2.3-4.7v-1.2c.1,0-2.7-.2-2.7-.2l-5.2,11.5c-1-.9-2-2.2-3.1-3.6-1.3-1.7-2.6-3.4-4.1-4.6l-2.6-1.9,3.6,13.4-14.9-2.9.7,1.9c.4,1.2,1.6,1.8,2.4,2.2.2,0,.3.2.5.3,3.2,1.8,6.7,3.7,10.5,5.4-.7.6-1.8,1.4-2.9,2.1-1,.6-2,1.3-2.8,1.9h-.2c-2.1,1.8-3.6,3.2-2.7,4.5l.4.6,10.7-1.5c.2.6.3,1.8.3,2.6.2,2.4.4,4.9,2,5.9l1.2.7,3.5-11.5c.3.2.7.3,1,.4.9.4,1.7.8,2.5,1.3,3.7,2.4,6.3,6.4,6.8,10.2l-6.9,4.8,1.1,6.5c-10.2,6.8-17.6,16.2-21,26.7-.2.6-.5,2-.8,3.5-.3,1.3-.7,3.1-.9,3.7-.1,0-.3,0-.4,0l.7-10.4c0-1.1-1.2-5.4-1.3-5.7-1.9-5.7-5.9-9.5-11.3-10.6-5.8-1.1-12.2,1.1-16,5.6-3.5,4.2-4.3,9.5-2.3,15.1.5,1.3,1.3,2.5,2,3.7.7,1.1,1.5,2.3,1.9,3.5,1.5,4.2,0,7.2-1.7,10.7-1,2-1.9,4-2.4,6.4-1.9,8.8,3.3,14.8,8.7,17.5,7.1,3.5,15.5,2.1,20.3-3.5,4.3-5,3-10.3,1.8-15.4-.5-2.1-1.1-4.3-1.2-6.5h.5c.6,7.2,2.4,13.7,5.3,19.3.8,1.6,1.8,3,2.7,4.4.9,1.3,1.8,2.6,2.5,4-.9.1-1.8.2-2.7.3-4.5.4-9.6.8-10.4,7.7-.5,4.7,3.5,24.2,5.8,28.2,1.9,3.3,5,4.8,7.9,6.2l.4.2,6.7.5h.1c5.3-1,8.8-3.2,10.6-6.6,2-3.9,1.5-9.3-1.4-15.6-.5-1.1-1.9-3.3-3.4-5.7-1.3-2-3.2-5-3.6-6,.6.3,1.2.7,1.8,1,2.7,1.6,5.5,3.3,8.5,4.4,11.9,4.5,25.1,3.9,38.2-1.7,1.8,1.4,1.6,3.1,1.2,5.8-.5,2.8-1.1,6.4,3.5,8.2,4.2,1.7,7.5.5,11.2-1.1,7.2-3.1,19.8-10.5,26.3-14.9,3.8-2.6,5.7-5.1,5.9-7.8.2-2.5-1-5.1-3.8-7.8ZM542.3,931.2h0c.2,0,.7,0,1.2.1-.4.3-.8.6-1.3.9,0-.8,0-1,0-1ZM549.3,954.8c3.1-1.8,6.1-2.9,9.1-3.3l.6,3-9.6,2.6v-2.3ZM553.6,942.2h1.5s0,0,0,0l-1.5.2v-.3ZM555,946.8h1.7c-.2.2-.8.7-1.2.6-.2,0-.4-.3-.5-.6ZM548,934.3c0,0-.2.1-.3.2-.2,0-.4,0-.6.1l.5-.5.4.2ZM552.9,938.3c-.4.2-.8.2-1.2.1-.4,0-.9-.3-1.2-.6.7-.1,1.5-.2,2,.1.1,0,.2.2.4.3ZM565.6,950.9c.1,0,.3.1.4.2.4.3.5,1.1.5,2-.5-.6-.8-1.5-.9-2.2ZM600.4,1029.9c-15.1,16.6-34.6,16.1-48,10-17.1-7.8-26.7-24.9-24.5-43.7,2.3-19.8,19.9-36.5,39-37.3,17.5-.7,33,8.7,40.4,24.5,7.4,15.8,4.7,33.6-6.9,46.5ZM597.7,1051.4c.7-3.5,11.7-16.5,15.3-19.4,2-1.7,6-4.2,8.5-4.4,3.4-.3,6.5.7,9,2.9,1.8,1.5,2.6,2.8,2.5,3.8,0,1-.9,2-2.4,3.1-5.3,3.8-21.3,13.1-26.7,15.2-2,.8-5.5,1.3-6.3.9,0-.2,0-.9.2-2.1ZM527.8,1037.7c5.2-.7,12.1,8.8,15.4,15.3,3,5.8,3.8,10.4,2.3,13-1,1.7-3.2,2.7-6.4,2.8-9.4.4-10.6-6.5-12.1-14.5-.1-.8-.3-1.5-.4-2.3-.1-.5-.2-1.2-.4-1.8-.7-3.4-2-9-.3-11.4.4-.6,1-1,1.9-1.1ZM537.5,934.3h-3.2c1.4-1,2.9-2.3,2.7-3.8,0-.5-.4-.9-1-1.3l1.3.2-.4-3.8,2.1,1.7.2-.3-1.9,7.1.2.2ZM539.5,926.4l1-1.7c0,.3,0,.7,0,1,0,.3.2.6.3.8-.2,0-.4,0-.6,0h-.8ZM537.5,936.3v-1.9c.1,0,.3.1.3.1.4.4.8.7,1.2,1l-1.5.7ZM498.6,1007.9c2-4.5,4.3-9.6,1.7-15.5-.5-1.1-1.2-2.2-1.9-3.3-.8-1.2-1.6-2.3-1.9-3.4-1-3.1-.6-6.8,1.1-9.5.9-1.4,2.6-3.1,5.4-3.4h0c2.9-.3,5.3.4,7.2,2,2.5,2.1,4.2,5.9,4.6,10.4.2,2.8-.2,5.3-.7,8-.4,2.3-.8,4.6-.7,7.1,0,2.6.8,5.4,1.5,8.1.8,3.2,1.7,6.4,1.3,9.2-.7,5.2-3.9,8.4-8.6,8.6-4.5.2-9.8-2.7-11.3-8.7-.8-3.1.7-6.3,2.2-9.7Z" class="cls-4"/><path d="M586.4,985.7c-6.2.9-7.8,13.6-7.9,16.6-.2,8.8,3.5,13.2,7,13.5.1,0,.3,0,.4,0,3,0,6.5-2.9,7.9-11,.4-2.7,1.3-13.5-2.8-17.6-1.2-1.2-2.8-1.8-4.6-1.5Z" class="cls-4"/><path d="M505.1,1024.2c1,0,2.1-.2,3.2-.7,4.4-2,5.4-6.9,4.5-10.7-.9-3.8-3.6-6.3-6.7-6.1h0c-3,.1-5.4,2-6.5,5.2-1.4,3.9-.7,8.6,1.8,10.9,1,1,2.3,1.5,3.7,1.5ZM507.9,1016.6c-.1.8-.6,2.6-2.4,2.6-.6,0-1.4-.2-1.7-1.4-.5-2,.6-5.3,2.2-6.6,1.6.9,2.3,3.4,2,5.4Z" class="cls-4"/><path d="M603.4,1014.1l.2.2c.3.2.6.4,1,.4s.3,0,.4,0c1.6-.4,3.4-3.2,3.6-3.7.7-1.6,1.6-6.6,1.8-8.2.1-1.3.4-11.8-1.3-13.7-.5-.6-1.3-.8-1.9-1h-.2c-1-.2-1.6.4-1.9.6-3.5,3.2-3.8,20.9-1.7,25.3v.2Z" class="cls-4"/></g><g><path d="M635.8,988c-1.9,0-3.7-.5-5.3-1.4-1.6-1-2.9-2.2-3.9-3.9-1-1.6-1.4-3.4-1.4-5.3v-31.8c0-1.9.5-3.7,1.4-5.3,1-1.6,2.2-2.9,3.9-3.9,1.6-1,3.4-1.4,5.3-1.4h31.8c1.9,0,3.7.5,5.3,1.4,1.6,1,2.9,2.2,3.9,3.9,1,1.6,1.5,3.4,1.5,5.3v31.8c0,1.9-.5,3.7-1.5,5.3-1,1.6-2.3,2.9-3.9,3.9-1.6,1-3.3,1.4-5.3,1.4h-31.8ZM636.2,977.3h30.7c0,0,.2,0,.3-.1s.1-.2.1-.3v-30.7c0,0,0-.2-.1-.3,0,0-.2-.1-.3-.1h-30.7c0,0-.2,0-.3.1,0,0-.1.2-.1.3v30.7c0,0,0,.2.1.3,0,0,.2.1.3.1Z" class="cls-4"/><path d="M688.2,988v-53h48.8v10.7h-38.1v10.4h30.7v10.7h-30.7v21.1h-10.7Z" class="cls-4"/><path d="M743.2,988v-53h48.8v10.7h-38.1v10.4h30.7v10.7h-30.7v10.4h38.1v10.7h-48.8Z" class="cls-4"/><path d="M801.3,988v-52.9h42.3c1.9,0,3.7.5,5.3,1.4,1.6,1,2.9,2.2,3.9,3.9,1,1.6,1.5,3.4,1.5,5.3v14c0,1.9-.5,3.7-1.5,5.3-1,1.6-2.3,2.9-3.9,3.8-1.6,1-3.4,1.4-5.3,1.4h-31.7v17.8h-10.6ZM812.3,959.5h30.7c0,0,.2,0,.3-.1,0,0,.1-.2.1-.3v-13c0,0,0-.2-.1-.3,0,0-.2-.1-.3-.1h-30.7c0,0-.2,0-.3.1,0,0-.1.2-.1.3v13c0,0,0,.2.1.3,0,0,.2.1.3.1ZM842.9,988l-15.7-18.7h13.9l12.9,15.4v3.3h-11.2Z" class="cls-4"/><path d="M882.3,988v-42.3h-21.2v-10.7h53v10.7h-21.1v42.3h-10.7Z" class="cls-4"/><path d="M921.6,945.6c0-1.9.5-3.7,1.4-5.3,1-1.6,2.2-2.9,3.9-3.9,1.6-1,3.4-1.4,5.3-1.4h31.7c1.9,0,3.7.5,5.3,1.4,1.6,1,2.9,2.2,3.9,3.9,1,1.6,1.5,3.4,1.5,5.3v42.4h-10.7v-17.4h-31.6v17.4h-10.6v-42.4ZM963.8,959.9v-13.8c0,0,0-.2-.1-.3,0,0-.2-.1-.3-.1h-30.7c0,0-.2,0-.3.1,0,0-.1.2-.1.3v13.8h31.6Z" class="cls-4"/><path d="M995.1,988c-1.9,0-3.7-.5-5.3-1.4-1.6-1-2.9-2.2-3.8-3.9-.9-1.6-1.4-3.4-1.4-5.3v-4.5h10.6v4c0,0,0,.2.1.3,0,0,.2.1.3.1h30.8c0,0,.2,0,.3-.1s.1-.2.1-.3v-9.6c0,0,0-.2-.1-.3,0,0-.2-.1-.3-.1h-31.3c-1.9,0-3.7-.5-5.3-1.4-1.6-1-2.9-2.2-3.8-3.8-.9-1.6-1.4-3.4-1.4-5.3v-10.7c0-1.9.5-3.7,1.4-5.3.9-1.6,2.2-2.9,3.8-3.9,1.6-1,3.4-1.4,5.3-1.4h31.8c1.9,0,3.7.5,5.3,1.4,1.6,1,2.9,2.2,3.9,3.9,1,1.6,1.5,3.4,1.5,5.3v4.5h-10.7v-4c0,0,0-.2-.1-.3,0,0-.2-.1-.3-.1h-30.8c0,0-.2,0-.3.1,0,0-.1.2-.1.3v9.6c0,0,0,.2.1.3,0,0,.2.1.3.1h31.4c1.9,0,3.7.5,5.3,1.4,1.6,1,2.9,2.2,3.9,3.8,1,1.6,1.5,3.4,1.5,5.3v10.7c0,1.9-.5,3.7-1.5,5.3-1,1.6-2.3,2.9-3.9,3.9-1.6,1-3.3,1.4-5.3,1.4h-31.8Z" class="cls-4"/></g><g><path d="M651.6,1038.8v-35.5h32.7v7.1h-25.5v7h20.6v7.2h-20.6v7h25.5v7.1h-32.7Z" class="cls-4"/><path d="M690,1038.8v-2.2l13-15.5-13-15.5v-2.2h7.5l10.2,12.1,10.2-12.1h7.5v2.2l-13,15.5,13.1,15.5v2.3h-7.5l-10.3-12.1-10.1,12.1h-7.5Z" class="cls-4"/><path d="M731.8,1038.8v-35.4h28.3c1.3,0,2.5.3,3.5,1,1.1.6,2,1.5,2.6,2.6.7,1.1,1,2.3,1,3.5v9.4c0,1.3-.3,2.5-1,3.5-.7,1.1-1.5,1.9-2.6,2.6-1.1.6-2.3,1-3.5,1h-21.2v11.9h-7.1ZM739.2,1019.7h20.6c0,0,.1,0,.2,0,0,0,0-.1,0-.2v-8.7c0,0,0-.1,0-.2,0,0-.1,0-.2,0h-20.6c0,0-.1,0-.2,0,0,0,0,.1,0,.2v8.7c0,0,0,.1,0,.2,0,0,.1,0,.2,0Z" class="cls-4"/><path d="M772,1038.8v-35.5h7.1v28.4h28.4v7.1h-35.5Z" class="cls-4"/><path d="M818.6,1038.8c-1.3,0-2.5-.3-3.5-1-1.1-.6-1.9-1.5-2.6-2.6-.6-1.1-1-2.3-1-3.5v-21.3c0-1.3.3-2.5,1-3.5.6-1.1,1.5-1.9,2.6-2.6,1.1-.6,2.3-1,3.5-1h21.3c1.3,0,2.5.3,3.5,1,1.1.6,1.9,1.5,2.6,2.6.7,1.1,1,2.3,1,3.5v21.3c0,1.3-.3,2.5-1,3.5-.7,1.1-1.5,1.9-2.6,2.6-1.1.6-2.2,1-3.5,1h-21.3ZM818.9,1031.6h20.6c0,0,.1,0,.2,0s0-.1,0-.2v-20.6c0,0,0-.1,0-.2,0,0-.1,0-.2,0h-20.6c0,0-.1,0-.2,0,0,0,0,.1,0,.2v20.6c0,0,0,.1,0,.2,0,0,.1,0,.2,0Z" class="cls-4"/><path d="M860.6,1038.8c-1.3,0-2.5-.3-3.5-1-1.1-.6-1.9-1.5-2.6-2.6-.6-1.1-.9-2.3-.9-3.5v-3h7.1v2.7c0,0,0,.1,0,.2,0,0,.1,0,.2,0h20.7c0,0,.1,0,.2,0s0-.1,0-.2v-6.5c0,0,0-.1,0-.2,0,0-.1,0-.2,0h-21c-1.3,0-2.5-.3-3.5-1-1.1-.6-1.9-1.5-2.6-2.6-.6-1.1-.9-2.3-.9-3.6v-7.1c0-1.3.3-2.5.9-3.5.6-1.1,1.5-1.9,2.6-2.6,1.1-.6,2.3-1,3.5-1h21.3c1.3,0,2.5.3,3.5,1,1.1.6,1.9,1.5,2.6,2.6.7,1.1,1,2.3,1,3.5v3h-7.2v-2.7c0,0,0-.1,0-.2,0,0-.1,0-.2,0h-20.7c0,0-.1,0-.2,0,0,0,0,.1,0,.2v6.5c0,0,0,.1,0,.2,0,0,.1,0,.2,0h21.1c1.3,0,2.5.3,3.5,1,1.1.6,1.9,1.5,2.6,2.6.7,1.1,1,2.3,1,3.6v7.1c0,1.3-.3,2.5-1,3.5-.7,1.1-1.5,1.9-2.6,2.6-1.1.6-2.2,1-3.5,1h-21.3Z" class="cls-4"/><path d="M894.7,1038.8v-35.5h7v35.5h-7Z" class="cls-4"/><path d="M927,1038.8l-20.6-35.5h8.2l15.4,26.7,15.4-26.7h8.2l-20.6,35.5h-6.1Z" class="cls-4"/><path d="M957.5,1010.4c0-1.3.3-2.5,1-3.5s1.5-1.9,2.6-2.6c1.1-.6,2.3-1,3.5-1h21.2c1.3,0,2.5.3,3.5,1,1.1.6,2,1.5,2.6,2.6.7,1.1,1,2.3,1,3.5v28.4h-7.2v-11.7h-21.2v11.7h-7.1v-28.4ZM985.8,1020v-9.3c0,0,0-.1,0-.2,0,0-.1,0-.2,0h-20.6c0,0-.1,0-.2,0,0,0,0,.1,0,.2v9.3h21.2Z" class="cls-4"/><path d="M1057.9,945.6c0-5.6-1.5-11.1-4.4-15.9-2.7-4.5-6.3-8.1-10.8-10.7-4.7-2.8-10.2-4.3-15.7-4.3h-31.8c-5.5,0-10.9,1.5-15.6,4.3-4.7-2.8-10.1-4.3-15.6-4.3h-31.7c-3.4,0-6.8.6-10,1.7-2.5-1.1-5.2-1.7-8.1-1.7h-53c-2.8,0-5.5.6-8,1.6-3.1-1-6.3-1.5-9.6-1.5h-42.3c-1.5,0-3,.2-4.5.5-1.5-.4-3.1-.6-4.7-.6h-48.8c-1.1,0-2.1.1-3.1.3-1-.2-2-.3-3.1-.3h-48.8c-3.3,0-6.4.8-9.2,2.2-3.6-1.5-7.5-2.2-11.4-2.2h-31.8c-5.5,0-10.9,1.5-15.6,4.3-4.6,2.7-8.3,6.4-11,11-2.4,4-3.8,8.5-4.1,13.1-5.8-3.6-12.2-6.4-19-8.2-2.7-3.5-6.4-6-10.7-7.2-2.5-4.2-5.6-7.9-9.2-11,0,0,0-.1,0-.2,0-1.4.1-2.5.2-3.4v-1.2c.8-5.5-.9-11-4.4-15.3-3.5-4.3-8.7-6.9-14.2-7.3l-2.9-.2c-.5,0-1,0-1.5,0-3.3,0-6.5.8-9.3,2.3-1.9-.6-3.8-.8-5.7-.8-4,0-8,1.2-11.4,3.5-3.1,2.1-5.5,5-7.1,8.3-3.2,1.2-6.1,3.2-8.4,5.8-4.8,5.6-6.2,13.3-3.7,20.2l.7,1.9c.8,2.3,2,4.4,3.5,6.3-.4,3.9.4,7.4,1.4,10.1-9.5,1-18.6,5.6-24.7,12.9-8.3,9.7-10.4,22.9-5.8,35.3.6,1.6,1.3,3,2,4.2-1,2.3-2.2,5.2-2.9,8.7-3.5,16.4,4.4,32.4,19.5,40,2.7,1.3,5.6,2.4,8.5,3,1.5,10.3,4.7,22.4,7.6,27.5,5,8.7,12.6,12.3,16.7,14.3l.4.2c2.3,1.1,4.8,1.8,7.4,2l6.7.5c.5,0,1,0,1.5,0,1.2,0,2.4-.1,3.6-.3h.2c15.5-2.8,22.3-12,25-17.3,1.1-2.2,2.2-4.8,2.8-7.9,1.7,0,3.4-.2,5.1-.4,3.8,4.8,8.7,7.3,11,8.2,3.8,1.6,7.8,2.4,11.8,2.4h0c6.1,0,11.1-1.8,15.2-3.6,8.6-3.8,22.4-11.8,29.7-16.9.5-.3,1-.7,1.4-1,1.8.5,3.6.8,5.5.8h32.7c1,0,1.9,0,2.8-.2.9.1,1.9.2,2.8.2h7.5c3.6,0,7.1-1,10.2-2.7,3.1,1.8,6.6,2.7,10.2,2.7h7.5c1.1,0,2.1-.1,3.2-.3,1,.2,2.1.3,3.2.3h7.1c6.9,0,12.9-3.4,16.6-8.6,3.7,5.2,9.7,8.6,16.6,8.6h35.5c1.8,0,3.5-.2,5.1-.7,2,.4,4,.7,6,.7h21.3c3.6,0,7.1-.7,10.3-2,3.3,1.3,6.8,2,10.4,2h21.3c2.3,0,4.6-.3,6.8-.9,1.9.6,3.8.9,5.9.9h7.1c4.8,0,9.1-1.7,12.6-4.4,3.5,2.8,8,4.4,12.6,4.4h6.1c4.5,0,8.7-1.5,12.2-4.1,3.4,2.6,7.6,4.1,12.2,4.1h7.1c3.9,0,7.5-1.1,10.6-3,3.1,1.9,6.7,3,10.6,3h7.2c2.2,0,4.4-.4,6.4-1,2.4.7,4.9,1,7.4,1h21.3c4.9,0,9.8-1.3,14-3.9,3.9-2.4,7.1-5.5,9.5-9.5,2.6-4.2,3.9-9.1,3.9-14.1v-7.1c0-2-.2-4-.7-6,.4-1.6.7-3.4.7-5.2v-3c0-5-1.4-9.9-3.9-14.1,0,0,0-.1-.1-.2.7-.9,1.4-1.9,2-2.9,2.9-4.8,4.4-10.2,4.4-15.8v-10.7c0-3.1-.5-6.2-1.4-9.2.9-2.3,1.4-4.8,1.4-7.4v-4.5Z" class="cls-4"/><path d="M1006.8,1038.8c-1.3,0-2.5-.3-3.5-1-1.1-.6-1.9-1.5-2.6-2.6-.6-1.1-.9-2.3-.9-3.5v-3h7.1v2.7c0,0,0,.1,0,.2,0,0,.1,0,.2,0h20.7c0,0,.1,0,.2,0s0-.1,0-.2v-6.5c0,0,0-.1,0-.2,0,0-.1,0-.2,0h-21c-1.3,0-2.5-.3-3.5-1s-1.9-1.5-2.6-2.6c-.6-1.1-.9-2.3-.9-3.6v-7.1c0-1.3.3-2.5.9-3.5.6-1.1,1.5-1.9,2.6-2.6,1.1-.6,2.3-1,3.5-1h21.3c1.3,0,2.5.3,3.5,1,1.1.6,1.9,1.5,2.6,2.6.7,1.1,1,2.3,1,3.5v3h-7.2v-2.7c0,0,0-.1,0-.2,0,0-.1,0-.2,0h-20.7c0,0-.1,0-.2,0,0,0,0,.1,0,.2v6.5c0,0,0,.1,0,.2,0,0,.1,0,.2,0h21.1c1.3,0,2.5.3,3.5,1,1.1.6,1.9,1.5,2.6,2.6.7,1.1,1,2.3,1,3.6v7.1c0,1.3-.3,2.5-1,3.5-.7,1.1-1.5,1.9-2.6,2.6-1.1.6-2.2,1-3.5,1h-21.3Z" class="cls-4"/></g></g><g><g><path d="M505.8,992.3c2.5-.2,4.5-1.5,5.6-3.7,1.4-3.1.9-7.4-1.2-10.3-1.7-2.3-4.2-3.4-6.9-3.1-4.2.5-5.8,4.7-5.4,8.6.4,4.3,3.1,8.6,7.5,8.6.1,0,.3,0,.4,0ZM507.1,986.1c-.2.7-.6,1.1-1.1,1.3-2.3.6-3.2-2.8-3.3-3.2-.5-1.9-.1-3.9.7-4.1h0c.9-.2,1.7,0,2.4.7,1.2,1.2,1.8,3.7,1.3,5.3Z" class="cls-5"/><path d="M635.1,1027c-7.4-7.3-16.6-7-25.9.8,9.1-13.8,10.6-30.6,3.8-46-7.4-16.7-23.3-27.7-41.6-28.7l-1.5-5.8-8.6-1.1c-2.3-8.3-8.5-16.9-18-19.2.7-.6,1.2-1.6,1.3-1.9.9-3.1,1.1-6.4,1.3-9.6,0-1.6.2-3.2.3-4.7v-1.2c.1,0-2.7-.2-2.7-.2l-5.2,11.5c-1-.9-2-2.2-3.1-3.6-1.3-1.7-2.6-3.4-4.1-4.6l-2.6-1.9,3.6,13.4-14.9-2.9.7,1.9c.4,1.2,1.6,1.8,2.4,2.2.2,0,.3.2.5.3,3.2,1.8,6.7,3.7,10.5,5.4-.7.6-1.8,1.4-2.9,2.1-1,.6-2,1.3-2.8,1.9h-.2c-2.1,1.8-3.6,3.2-2.7,4.5l.4.6,10.7-1.5c.2.6.3,1.8.3,2.6.2,2.4.4,4.9,2,5.9l1.2.7,3.5-11.5c.3.2.7.3,1,.4.9.4,1.7.8,2.5,1.3,3.7,2.4,6.3,6.4,6.8,10.2l-6.9,4.8,1.1,6.5c-10.2,6.8-17.6,16.2-21,26.7-.2.6-.5,2-.8,3.5-.3,1.3-.7,3.1-.9,3.7-.1,0-.3,0-.4,0l.7-10.4c0-1.1-1.2-5.4-1.3-5.7-1.9-5.7-5.9-9.5-11.3-10.6-5.8-1.1-12.2,1.1-16,5.6-3.5,4.2-4.3,9.5-2.3,15.1.5,1.3,1.3,2.5,2,3.7.7,1.1,1.5,2.3,1.9,3.5,1.5,4.2,0,7.2-1.7,10.7-1,2-1.9,4-2.4,6.4-1.9,8.8,3.3,14.8,8.7,17.5,7.1,3.5,15.5,2.1,20.3-3.5,4.3-5,3-10.3,1.8-15.4-.5-2.1-1.1-4.3-1.2-6.5h.5c.6,7.2,2.4,13.7,5.3,19.3.8,1.6,1.8,3,2.7,4.4.9,1.3,1.8,2.6,2.5,4-.9.1-1.8.2-2.7.3-4.5.4-9.6.8-10.4,7.7-.5,4.7,3.5,24.2,5.8,28.2,1.9,3.3,5,4.8,7.9,6.2l.4.2,6.7.5h.1c5.3-1,8.8-3.2,10.6-6.6,2-3.9,1.5-9.3-1.4-15.6-.5-1.1-1.9-3.3-3.4-5.7-1.3-2-3.2-5-3.6-6,.6.3,1.2.7,1.8,1,2.7,1.6,5.5,3.3,8.5,4.4,11.9,4.5,25.1,3.9,38.2-1.7,1.8,1.4,1.6,3.1,1.2,5.8-.5,2.8-1.1,6.4,3.5,8.2,4.2,1.7,7.5.5,11.2-1.1,7.2-3.1,19.8-10.5,26.3-14.9,3.8-2.6,5.7-5.1,5.9-7.8.2-2.5-1-5.1-3.8-7.8ZM542.3,931.2h0c.2,0,.7,0,1.2.1-.4.3-.8.6-1.3.9,0-.8,0-1,0-1ZM549.3,954.8c3.1-1.8,6.1-2.9,9.1-3.3l.6,3-9.6,2.6v-2.3ZM553.6,942.2h1.5s0,0,0,0l-1.5.2v-.3ZM555,946.8h1.7c-.2.2-.8.7-1.2.6-.2,0-.4-.3-.5-.6ZM548,934.3c0,0-.2.1-.3.2-.2,0-.4,0-.6.1l.5-.5.4.2ZM552.9,938.3c-.4.2-.8.2-1.2.1-.4,0-.9-.3-1.2-.6.7-.1,1.5-.2,2,.1.1,0,.2.2.4.3ZM565.6,950.9c.1,0,.3.1.4.2.4.3.5,1.1.5,2-.5-.6-.8-1.5-.9-2.2ZM600.4,1029.9c-15.1,16.6-34.6,16.1-48,10-17.1-7.8-26.7-24.9-24.5-43.7,2.3-19.8,19.9-36.5,39-37.3,17.5-.7,33,8.7,40.4,24.5,7.4,15.8,4.7,33.6-6.9,46.5ZM597.7,1051.4c.7-3.5,11.7-16.5,15.3-19.4,2-1.7,6-4.2,8.5-4.4,3.4-.3,6.5.7,9,2.9,1.8,1.5,2.6,2.8,2.5,3.8,0,1-.9,2-2.4,3.1-5.3,3.8-21.3,13.1-26.7,15.2-2,.8-5.5,1.3-6.3.9,0-.2,0-.9.2-2.1ZM527.8,1037.7c5.2-.7,12.1,8.8,15.4,15.3,3,5.8,3.8,10.4,2.3,13-1,1.7-3.2,2.7-6.4,2.8-9.4.4-10.6-6.5-12.1-14.5-.1-.8-.3-1.5-.4-2.3-.1-.5-.2-1.2-.4-1.8-.7-3.4-2-9-.3-11.4.4-.6,1-1,1.9-1.1ZM537.5,934.3h-3.2c1.4-1,2.9-2.3,2.7-3.8,0-.5-.4-.9-1-1.3l1.3.2-.4-3.8,2.1,1.7.2-.3-1.9,7.1.2.2ZM539.5,926.4l1-1.7c0,.3,0,.7,0,1,0,.3.2.6.3.8-.2,0-.4,0-.6,0h-.8ZM537.5,936.3v-1.9c.1,0,.3.1.3.1.4.4.8.7,1.2,1l-1.5.7ZM498.6,1007.9c2-4.5,4.3-9.6,1.7-15.5-.5-1.1-1.2-2.2-1.9-3.3-.8-1.2-1.6-2.3-1.9-3.4-1-3.1-.6-6.8,1.1-9.5.9-1.4,2.6-3.1,5.4-3.4h0c2.9-.3,5.3.4,7.2,2,2.5,2.1,4.2,5.9,4.6,10.4.2,2.8-.2,5.3-.7,8-.4,2.3-.8,4.6-.7,7.1,0,2.6.8,5.4,1.5,8.1.8,3.2,1.7,6.4,1.3,9.2-.7,5.2-3.9,8.4-8.6,8.6-4.5.2-9.8-2.7-11.3-8.7-.8-3.1.7-6.3,2.2-9.7Z" class="cls-5"/><path d="M586.4,985.7c-6.2.9-7.8,13.6-7.9,16.6-.2,8.8,3.5,13.2,7,13.5.1,0,.3,0,.4,0,3,0,6.5-2.9,7.9-11,.4-2.7,1.3-13.5-2.8-17.6-1.2-1.2-2.8-1.8-4.6-1.5Z" class="cls-5"/><path d="M505.1,1024.2c1,0,2.1-.2,3.2-.7,4.4-2,5.4-6.9,4.5-10.7-.9-3.8-3.6-6.3-6.7-6.1h0c-3,.1-5.4,2-6.5,5.2-1.4,3.9-.7,8.6,1.8,10.9,1,1,2.3,1.5,3.7,1.5ZM507.9,1016.6c-.1.8-.6,2.6-2.4,2.6-.6,0-1.4-.2-1.7-1.4-.5-2,.6-5.3,2.2-6.6,1.6.9,2.3,3.4,2,5.4Z" class="cls-5"/><path d="M603.4,1014.1l.2.2c.3.2.6.4,1,.4s.3,0,.4,0c1.6-.4,3.4-3.2,3.6-3.7.7-1.6,1.6-6.6,1.8-8.2.1-1.3.4-11.8-1.3-13.7-.5-.6-1.3-.8-1.9-1h-.2c-1-.2-1.6.4-1.9.6-3.5,3.2-3.8,20.9-1.7,25.3v.2Z" class="cls-5"/></g><g><path d="M635.8,988c-1.9,0-3.7-.5-5.3-1.4-1.6-1-2.9-2.2-3.9-3.9-1-1.6-1.4-3.4-1.4-5.3v-31.8c0-1.9.5-3.7,1.4-5.3,1-1.6,2.2-2.9,3.9-3.9,1.6-1,3.4-1.4,5.3-1.4h31.8c1.9,0,3.7.5,5.3,1.4,1.6,1,2.9,2.2,3.9,3.9,1,1.6,1.5,3.4,1.5,5.3v31.8c0,1.9-.5,3.7-1.5,5.3-1,1.6-2.3,2.9-3.9,3.9-1.6,1-3.3,1.4-5.3,1.4h-31.8ZM636.2,977.3h30.7c0,0,.2,0,.3-.1s.1-.2.1-.3v-30.7c0,0,0-.2-.1-.3,0,0-.2-.1-.3-.1h-30.7c0,0-.2,0-.3.1,0,0-.1.2-.1.3v30.7c0,0,0,.2.1.3,0,0,.2.1.3.1Z" class="cls-3"/><path d="M688.2,988v-53h48.8v10.7h-38.1v10.4h30.7v10.7h-30.7v21.1h-10.7Z" class="cls-3"/><path d="M743.2,988v-53h48.8v10.7h-38.1v10.4h30.7v10.7h-30.7v10.4h38.1v10.7h-48.8Z" class="cls-3"/><path d="M801.3,988v-52.9h42.3c1.9,0,3.7.5,5.3,1.4,1.6,1,2.9,2.2,3.9,3.9,1,1.6,1.5,3.4,1.5,5.3v14c0,1.9-.5,3.7-1.5,5.3-1,1.6-2.3,2.9-3.9,3.8-1.6,1-3.4,1.4-5.3,1.4h-31.7v17.8h-10.6ZM812.3,959.5h30.7c0,0,.2,0,.3-.1,0,0,.1-.2.1-.3v-13c0,0,0-.2-.1-.3,0,0-.2-.1-.3-.1h-30.7c0,0-.2,0-.3.1,0,0-.1.2-.1.3v13c0,0,0,.2.1.3,0,0,.2.1.3.1ZM842.9,988l-15.7-18.7h13.9l12.9,15.4v3.3h-11.2Z" class="cls-3"/><path d="M882.3,988v-42.3h-21.2v-10.7h53v10.7h-21.1v42.3h-10.7Z" class="cls-3"/><path d="M921.6,945.6c0-1.9.5-3.7,1.4-5.3,1-1.6,2.2-2.9,3.9-3.9,1.6-1,3.4-1.4,5.3-1.4h31.7c1.9,0,3.7.5,5.3,1.4,1.6,1,2.9,2.2,3.9,3.9,1,1.6,1.5,3.4,1.5,5.3v42.4h-10.7v-17.4h-31.6v17.4h-10.6v-42.4ZM963.8,959.9v-13.8c0,0,0-.2-.1-.3,0,0-.2-.1-.3-.1h-30.7c0,0-.2,0-.3.1,0,0-.1.2-.1.3v13.8h31.6Z" class="cls-3"/><path d="M995.1,988c-1.9,0-3.7-.5-5.3-1.4-1.6-1-2.9-2.2-3.8-3.9-.9-1.6-1.4-3.4-1.4-5.3v-4.5h10.6v4c0,0,0,.2.1.3,0,0,.2.1.3.1h30.8c0,0,.2,0,.3-.1s.1-.2.1-.3v-9.6c0,0,0-.2-.1-.3,0,0-.2-.1-.3-.1h-31.3c-1.9,0-3.7-.5-5.3-1.4-1.6-1-2.9-2.2-3.8-3.8-.9-1.6-1.4-3.4-1.4-5.3v-10.7c0-1.9.5-3.7,1.4-5.3.9-1.6,2.2-2.9,3.8-3.9,1.6-1,3.4-1.4,5.3-1.4h31.8c1.9,0,3.7.5,5.3,1.4,1.6,1,2.9,2.2,3.9,3.9,1,1.6,1.5,3.4,1.5,5.3v4.5h-10.7v-4c0,0,0-.2-.1-.3,0,0-.2-.1-.3-.1h-30.8c0,0-.2,0-.3.1,0,0-.1.2-.1.3v9.6c0,0,0,.2.1.3,0,0,.2.1.3.1h31.4c1.9,0,3.7.5,5.3,1.4,1.6,1,2.9,2.2,3.9,3.8,1,1.6,1.5,3.4,1.5,5.3v10.7c0,1.9-.5,3.7-1.5,5.3-1,1.6-2.3,2.9-3.9,3.9-1.6,1-3.3,1.4-5.3,1.4h-31.8Z" class="cls-3"/></g><g><path d="M651.6,1038.8v-35.5h32.7v7.1h-25.5v7h20.6v7.2h-20.6v7h25.5v7.1h-32.7Z" class="cls-6"/><path d="M690,1038.8v-2.2l13-15.5-13-15.5v-2.2h7.5l10.2,12.1,10.2-12.1h7.5v2.2l-13,15.5,13.1,15.5v2.3h-7.5l-10.3-12.1-10.1,12.1h-7.5Z" class="cls-6"/><path d="M731.8,1038.8v-35.4h28.3c1.3,0,2.5.3,3.5,1,1.1.6,2,1.5,2.6,2.6.7,1.1,1,2.3,1,3.5v9.4c0,1.3-.3,2.5-1,3.5-.7,1.1-1.5,1.9-2.6,2.6-1.1.6-2.3,1-3.5,1h-21.2v11.9h-7.1ZM739.2,1019.7h20.6c0,0,.1,0,.2,0,0,0,0-.1,0-.2v-8.7c0,0,0-.1,0-.2,0,0-.1,0-.2,0h-20.6c0,0-.1,0-.2,0,0,0,0,.1,0,.2v8.7c0,0,0,.1,0,.2,0,0,.1,0,.2,0Z" class="cls-6"/><path d="M772,1038.8v-35.5h7.1v28.4h28.4v7.1h-35.5Z" class="cls-6"/><path d="M818.6,1038.8c-1.3,0-2.5-.3-3.5-1-1.1-.6-1.9-1.5-2.6-2.6-.6-1.1-1-2.3-1-3.5v-21.3c0-1.3.3-2.5,1-3.5.6-1.1,1.5-1.9,2.6-2.6,1.1-.6,2.3-1,3.5-1h21.3c1.3,0,2.5.3,3.5,1,1.1.6,1.9,1.5,2.6,2.6.7,1.1,1,2.3,1,3.5v21.3c0,1.3-.3,2.5-1,3.5-.7,1.1-1.5,1.9-2.6,2.6-1.1.6-2.2,1-3.5,1h-21.3ZM818.9,1031.6h20.6c0,0,.1,0,.2,0s0-.1,0-.2v-20.6c0,0,0-.1,0-.2,0,0-.1,0-.2,0h-20.6c0,0-.1,0-.2,0,0,0,0,.1,0,.2v20.6c0,0,0,.1,0,.2,0,0,.1,0,.2,0Z" class="cls-6"/><path d="M860.6,1038.8c-1.3,0-2.5-.3-3.5-1-1.1-.6-1.9-1.5-2.6-2.6-.6-1.1-.9-2.3-.9-3.5v-3h7.1v2.7c0,0,0,.1,0,.2,0,0,.1,0,.2,0h20.7c0,0,.1,0,.2,0s0-.1,0-.2v-6.5c0,0,0-.1,0-.2,0,0-.1,0-.2,0h-21c-1.3,0-2.5-.3-3.5-1-1.1-.6-1.9-1.5-2.6-2.6-.6-1.1-.9-2.3-.9-3.6v-7.1c0-1.3.3-2.5.9-3.5.6-1.1,1.5-1.9,2.6-2.6,1.1-.6,2.3-1,3.5-1h21.3c1.3,0,2.5.3,3.5,1,1.1.6,1.9,1.5,2.6,2.6.7,1.1,1,2.3,1,3.5v3h-7.2v-2.7c0,0,0-.1,0-.2,0,0-.1,0-.2,0h-20.7c0,0-.1,0-.2,0,0,0,0,.1,0,.2v6.5c0,0,0,.1,0,.2,0,0,.1,0,.2,0h21.1c1.3,0,2.5.3,3.5,1,1.1.6,1.9,1.5,2.6,2.6.7,1.1,1,2.3,1,3.6v7.1c0,1.3-.3,2.5-1,3.5-.7,1.1-1.5,1.9-2.6,2.6-1.1.6-2.2,1-3.5,1h-21.3Z" class="cls-6"/><path d="M894.7,1038.8v-35.5h7v35.5h-7Z" class="cls-6"/><path d="M927,1038.8l-20.6-35.5h8.2l15.4,26.7,15.4-26.7h8.2l-20.6,35.5h-6.1Z" class="cls-6"/><path d="M957.5,1010.4c0-1.3.3-2.5,1-3.5s1.5-1.9,2.6-2.6c1.1-.6,2.3-1,3.5-1h21.2c1.3,0,2.5.3,3.5,1,1.1.6,2,1.5,2.6,2.6.7,1.1,1,2.3,1,3.5v28.4h-7.2v-11.7h-21.2v11.7h-7.1v-28.4ZM985.8,1020v-9.3c0,0,0-.1,0-.2,0,0-.1,0-.2,0h-20.6c0,0-.1,0-.2,0,0,0,0,.1,0,.2v9.3h21.2Z" class="cls-6"/><path d="M1006.8,1038.8c-1.3,0-2.5-.3-3.5-1-1.1-.6-1.9-1.5-2.6-2.6-.6-1.1-.9-2.3-.9-3.5v-3h7.1v2.7c0,0,0,.1,0,.2,0,0,.1,0,.2,0h20.7c0,0,.1,0,.2,0s0-.1,0-.2v-6.5c0,0,0-.1,0-.2,0,0-.1,0-.2,0h-21c-1.3,0-2.5-.3-3.5-1s-1.9-1.5-2.6-2.6c-.6-1.1-.9-2.3-.9-3.6v-7.1c0-1.3.3-2.5.9-3.5.6-1.1,1.5-1.9,2.6-2.6,1.1-.6,2.3-1,3.5-1h21.3c1.3,0,2.5.3,3.5,1,1.1.6,1.9,1.5,2.6,2.6.7,1.1,1,2.3,1,3.5v3h-7.2v-2.7c0,0,0-.1,0-.2,0,0-.1,0-.2,0h-20.7c0,0-.1,0-.2,0,0,0,0,.1,0,.2v6.5c0,0,0,.1,0,.2,0,0,.1,0,.2,0h21.1c1.3,0,2.5.3,3.5,1,1.1.6,1.9,1.5,2.6,2.6.7,1.1,1,2.3,1,3.6v7.1c0,1.3-.3,2.5-1,3.5-.7,1.1-1.5,1.9-2.6,2.6-1.1.6-2.2,1-3.5,1h-21.3Z" class="cls-6"/></g></g></g></g></svg>