<svg xmlns="http://www.w3.org/2000/svg" id="Capa_1" data-name="Capa 1" viewBox="0 0 1080 879.66"><defs><style>.cls-1{fill:#28304d}.cls-1,.cls-2,.cls-3,.cls-4{stroke-width:0}.cls-2{fill:#fff}.cls-3{fill:#ff5400}.cls-4{opacity:.15}</style></defs><path d="m913.55,1.52L246.82,203.36c-.06.07-3.09,1.02-3.22,1.02-20.85,6.59-49.46,15.64-72.85,50.56L7.7,497.69c-7.5,11.17-9.65,25.08-5.88,37.99l56.39,192.9c3.83,13.08,13.33,23.75,25.89,29.05l266.65,112.49c40.96,17.36,72.93,6.93,92.14.7-.43.09,301.4-91.01,504.2-152.72l132.91-263.76L957.49,25.48c-5.39-18.86-25.17-29.65-43.94-23.96ZM183.42,612.74c-8.17,15.09-27.08,20.74-42.22,12.54-15.1-8.2-20.71-27.11-12.55-42.21,8.2-15.14,27.08-20.78,42.22-12.55,15.13,8.2,20.74,27.08,12.54,42.22Z" class="cls-3"/><path d="m828.64,224.49c-.16,16.33-13.38,29.18-30.09,29.03-16.7-.15-29.87-13.23-29.72-29.57.16-16.33,13.56-28.96,30.43-28.84,16.47.12,29.5,13.04,29.38,29.38Zm-52.36-.49c-.13,12.97,9.56,23.32,22.53,23.45,12.6.3,22.27-10.09,22.38-22.87.11-12.93-9.38-23.5-22.32-23.62-12.66-.11-22.48,10.26-22.59,23.04Zm17.78,15.24l-6.75-.06.26-29.11c2.67-.36,6.42-.81,11.2-.79,5.5.04,7.97.97,9.92,2.39,1.75,1.27,3,3.41,2.97,6.23-.05,3.55-2.7,5.85-6.1,6.87v.36c2.85.92,4.24,3.22,5.1,7.13.85,4.44,1.53,6.07,2.05,7.12l-7.12-.05c-.88-1.09-1.37-3.55-2.26-7.11-.49-2.99-2.27-4.44-5.99-4.49l-3.2-.02-.09,11.53Zm.32-16.32l3.19.02c3.72.02,6.77-1.18,6.77-4.18.02-2.67-1.91-4.44-6.19-4.51-1.78-.03-3.01.16-3.75.3l-.03,8.38Z" class="cls-2"/><g><g><path d="m462.3,341.08v111.58h-56.77v-95.83c0-20.67-11.81-33.47-31.18-33.47-22.32,0-36.1,17.72-36.1,42.01v87.29h-56.77v-225.66l56.77-16.64v94.62c12.47-21,33.15-31.5,59.4-31.83,39.05,0,64.65,26.58,64.65,67.93Z" class="cls-2"/><path d="m655.33,364.05c0,54.48-38.72,90.58-96.48,90.58s-96.81-36.1-96.81-90.58,38.72-90.25,96.81-90.25,96.48,35.77,96.48,90.25Zm-136.19.66c0,27.57,16.08,45.94,39.71,45.94s39.38-18.38,39.38-45.94-16.08-45.94-39.38-45.94-39.71,18.71-39.71,45.94Z" class="cls-2"/><path d="m774.52,443.14c-12.8,7.55-30.19,12.14-47.26,12.14-34.13,0-58.74-19.36-58.74-56.12v-78.1h-24.61v-37.08h24.61v-49.23h56.44v48.9h46.27v37.41h-46.27v69.24c0,13.78,5.91,19.69,16.41,19.36,5.91,0,13.46-2.3,21.99-5.9l11.16,39.38Z" class="cls-2"/><path d="m416.03,511.54l-19.36,36.75c-21.33-11.49-41.02-17.72-55.79-17.72-10.17,0-17.39,3.94-17.39,12.14,0,24.28,93.2,12.47,92.87,74.16,0,36.43-31.83,56.45-74.49,56.45-29.54,0-58.09-8.53-79.42-24.94l18.05-36.1c20.02,14.11,42.99,21.99,62.68,21.99,11.16,0,19.36-3.94,19.36-12.14,0-25.92-91.56-12.47-91.23-74.49,0-36.43,30.85-56.12,71.87-56.12,25.6,0,51.2,7.22,72.85,20.02Z" class="cls-2"/><path d="m581.75,555.52v115.51h-55.46v-20.35c-11.49,15.1-30.19,22.97-54.15,22.97-37.74,0-60.71-22.97-60.71-55.46s23.96-53.16,67.93-53.49h46.6v-2.62c0-17.39-11.49-27.89-34.46-27.89-14.77,0-34.13,5.25-52.84,14.77l-16.08-37.41c27.56-12.8,52.51-20.02,82.04-20.02,48.57,0,76.79,23.96,77.12,63.99Zm-55.79,55.46v-15.75h-35.77c-17.06,0-25.6,5.91-25.6,19.03s9.19,21,24.94,21c17.72,0,32.82-9.84,36.43-24.28Z" class="cls-2"/><path d="m848.23,597.85h-124.37c5.58,21,20.67,32.82,41.68,32.82,15.43,0,30.52-6.24,42.33-18.05l29.86,29.21c-18.05,19.69-44.63,31.18-77.12,31.18-57.76,0-93.85-36.1-93.85-89.92s37.41-90.9,92.21-90.9c62.35,0,93.2,41.02,89.26,105.67Zm-54.48-30.52c0-21.66-13.78-35.77-34.13-35.77s-33.14,14.44-36.75,35.77h70.88Z" class="cls-2"/><path d="m600.79,671.03v-200.23c22.65-7.16,41.35-19.37,56.77-40.14v240.38h-56.77Z" class="cls-2"/></g><g><path d="m268.38,757.45c0,4.93-3.43,8.57-8.25,8.57s-8.25-3.64-8.25-8.57,3.53-8.46,8.25-8.46,8.25,3.43,8.25,8.46Z" class="cls-2"/><path d="m322.77,719.01l-11.13,8.03c-3.11-3.85-7.5-6.21-13.17-6.1-8.03,0-13.71,6.21-13.71,15.42s5.68,15.63,13.71,15.63c5.89,0,10.49-2.25,13.38-6.75l11.35,7.71c-4.82,8.03-13.81,12.74-25.59,12.74-17.45,0-29.34-11.78-29.34-29.23s11.88-29.55,29.55-29.55c11.03,0,19.81,4.39,24.95,12.1Z" class="cls-2"/><path d="m380.92,736.25c0,17.56-12.42,29.45-30.84,29.45s-30.95-11.88-30.95-29.45,12.42-29.34,30.95-29.34,30.84,11.67,30.84,29.34Zm-45.19.21c0,9.42,5.78,15.85,14.35,15.85s14.35-6.43,14.35-15.85-5.89-15.85-14.35-15.85-14.35,6.42-14.35,15.85Z" class="cls-2"/><path d="m481.36,728.86v36.19h-16.38v-31.37c0-7.39-4.28-11.78-11.13-11.78-7.93.11-12.74,6.32-12.74,14.67v28.48h-16.38v-31.37c0-7.39-4.28-11.78-11.03-11.78-8.03.11-12.85,6.32-12.85,14.67v28.48h-16.49v-57.61h16.49v9.96c4.07-7.07,10.81-10.49,19.49-10.6,9.75,0,16.7,4.93,19.49,13.28,3.75-8.89,11.03-13.17,20.77-13.28,12.74,0,20.77,8.57,20.77,22.06Z" class="cls-2"/><path d="m500.96,757.45c0,4.93-3.43,8.57-8.25,8.57s-8.25-3.64-8.25-8.57,3.53-8.46,8.25-8.46,8.25,3.43,8.25,8.46Z" class="cls-2"/><path d="m539.19,758.31c-3.85,4.82-10.07,7.5-18.1,7.5-12.31,0-19.81-7.5-19.81-17.99s7.82-17.24,21.95-17.35h15.85v-1.07c0-6.1-4.07-9.64-11.99-9.64-5.14,0-11.14,1.71-17.13,5.03l-5.14-11.35c8.57-4.28,15.95-6.64,26.02-6.64,15.42,0,24.31,7.71,24.41,20.67l.11,37.58h-16.17v-6.75Zm-.11-12.96v-5.14h-12.96c-6.32,0-9.42,1.93-9.42,6.53s3.43,7.28,9,7.28c6.96,0,12.42-3.75,13.38-8.67Z" class="cls-2"/><path d="m578.6,717.83c3.96-7.07,10.49-10.92,19.06-11.03v15.53c-11.78-1.07-19.06,5.25-19.06,14.99v27.73h-16.49v-57.61h16.49v10.39Z" class="cls-2"/></g></g><path d="m873.67,553.43c7.25-11.75,35.73-41.83,35.73-41.83l37.69,206.5-70.9-120.97c-11.71-18.34-7.41-35.78-2.52-43.7Z" class="cls-4"/><path d="m1080,454.34c-12.64,3.82-92.37,27.67-151.89,45.64-22.17,6.69-34.87,29.92-28.56,52.2l47.54,165.91,132.91-263.76Z" class="cls-1"/></svg>